<svg width="95" height="95" viewBox="0 0 95 95" fill="none" xmlns="http://www.w3.org/2000/svg">
<rect x="0.920047" y="0.929812" width="92.736" height="92.736" rx="13.44" fill="url(#paint0_radial_1024_11453)"/>
<rect x="0.920047" y="0.929812" width="92.736" height="92.736" rx="13.44" stroke="#6886C3" stroke-width="1.344"/>
<path fill-rule="evenodd" clip-rule="evenodd" d="M74.748 39.2344C72.0026 39.2344 70.4517 39.7644 69.5613 41.0065C68.6309 42.3039 68.4439 44.3518 68.4439 47.2362C68.4439 52.8983 69.32 55.2652 74.748 55.2652C75.4 55.2652 77.6285 55.2528 78.9295 55.094C79.4357 55.0101 79.6624 54.6224 79.6624 54.2756V53.6502C79.6624 53.1636 79.2948 52.7964 78.8068 52.7964H74.7478C71.6853 52.7964 71.133 52.0745 71.0545 47.9703V46.6416C71.0805 42.4417 71.6328 41.7032 74.748 41.7032C77.6205 41.7032 78.1714 42.3586 78.2669 46.0561H73.7025V48.5524H79.7059C80.8883 48.5524 80.8883 47.7254 80.8883 47.4538V46.6569C80.8026 40.8992 79.4251 39.2344 74.748 39.2344V39.2344ZM66.8431 39.4544L66.7779 39.4372C66.2188 39.3197 64.6909 39.2344 63.9334 39.2344C61.2527 39.2344 59.836 40.3567 59.836 42.4801V54.3026C59.836 54.7892 60.1764 55.1292 60.6644 55.1292H61.6179C62.1059 55.1292 62.4466 54.7894 62.4466 54.3026V42.6972C62.4466 42.1732 62.5791 41.7032 64.1787 41.7032L66.5472 41.7012C66.7791 41.7288 67.0003 41.6647 67.1707 41.5204C67.3568 41.3636 67.4591 41.1347 67.4591 40.8766V40.2785C67.4591 39.886 67.2344 39.5856 66.8431 39.4544V39.4544ZM55.3947 39.4248H54.4412C53.9534 39.4248 53.6126 39.7646 53.6126 40.2514V52.7966H49.6469C47.1939 52.7966 46.1987 52.6406 46.1987 48.731V40.2514C46.1987 39.7648 45.8579 39.4248 45.3701 39.4248H44.4435C43.9557 39.4248 43.5879 39.78 43.5879 40.2514V48.731C43.5879 54.2874 45.6032 55.2652 49.8375 55.2652C51.3608 55.2652 53.4469 55.2652 55.4364 54.985L55.4824 54.9758C55.9738 54.8531 56.2231 54.5717 56.2231 54.1396V40.2514C56.2231 39.7648 55.8823 39.4248 55.3947 39.4248" fill="white"/>
<path fill-rule="evenodd" clip-rule="evenodd" d="M40.6464 39.8139C40.524 39.5536 40.2615 39.3984 39.9443 39.3984H38.7186C38.3626 39.3984 38.0964 39.5418 37.9563 39.7999L36.1396 42.4542L37.73 44.629L40.5066 40.6462C40.8114 40.2759 40.7058 39.9407 40.6464 39.8139" fill="#74BB11"/>
<path fill-rule="evenodd" clip-rule="evenodd" d="M31.0696 39.7699L31.068 39.7675C30.7911 39.3984 30.4226 39.3984 30.3015 39.3984H29.1026C28.7954 39.3984 28.5439 39.5396 28.4126 39.7853C28.2774 40.037 28.306 40.3394 28.4931 40.6195L32.9343 46.7763L27.8273 53.8994C27.6488 54.1673 27.6238 54.4651 27.7586 54.7166C27.8907 54.9623 28.1424 55.103 28.449 55.103H29.6745C29.9897 55.103 30.2668 54.9394 30.4054 54.6817L36.1218 46.8047L31.0696 39.7699Z" fill="#009CD9"/>
<path fill-rule="evenodd" clip-rule="evenodd" d="M41.2564 53.9603L37.6933 49.0703L36.126 51.231L38.9438 54.9918L39.0171 55.0238C39.1289 55.074 39.25 55.1005 39.3725 55.1015H40.571C40.8606 55.1015 41.1063 54.9729 41.2454 54.7483C41.388 54.518 41.392 54.231 41.2564 53.9603" fill="#EB2084"/>
<path fill-rule="evenodd" clip-rule="evenodd" d="M23.1138 48.4436V52.5963C21.9003 52.7825 20.0507 52.8238 19.4203 52.8238C16.6317 52.8238 16.3261 52.0619 16.3261 50.4437C16.3261 48.9294 16.8928 48.4434 18.6576 48.4434L23.1138 48.4436ZM19.2841 39.2344C18.4225 39.2344 17.2474 39.2568 15.7854 39.4326L15.7194 39.4472C15.2934 39.5684 15.0778 39.8481 15.0778 40.2787V40.8766C15.0778 41.3864 15.3952 41.7032 15.9062 41.7032H19.2843C22.0042 41.7032 23.1138 42.4401 23.1138 44.2465V46.0021H18.6576C15.1747 46.0021 13.6885 47.3303 13.6885 50.4435C13.6885 53.9133 15.2268 55.2654 19.1752 55.2654C20.7745 55.2654 23.7185 55.141 24.8067 54.8092C25.7242 54.5545 25.7242 53.8537 25.7242 53.6234V44.0837C25.7242 40.8207 23.6176 39.2344 19.2843 39.2344H19.2841Z" fill="white"/>
<defs>
<radialGradient id="paint0_radial_1024_11453" cx="0" cy="0" r="1" gradientUnits="userSpaceOnUse" gradientTransform="translate(47.288 47.2978) rotate(90) scale(47.04)">
<stop stop-color="#333944"/>
<stop offset="1" stop-color="#222428"/>
</radialGradient>
</defs>
</svg>
