<svg width="95" height="95" viewBox="0 0 95 95" fill="none" xmlns="http://www.w3.org/2000/svg">
<rect x="0.76868" y="1.06458" width="92.736" height="92.736" rx="13.44" fill="url(#paint0_radial_1024_11520)"/>
<rect x="0.76868" y="1.06458" width="92.736" height="92.736" rx="13.44" stroke="#6886C3" stroke-width="1.344"/>
<path d="M78.292 43.5528C78.1728 42.4786 78.0533 41.1656 77.5759 39.7333C77.2177 38.3009 76.6211 36.7493 75.7855 35.0782C74.9499 33.4072 73.8759 31.7361 72.5628 30.065C72.0854 29.4683 71.4885 28.7521 70.7724 28.1553C71.7272 24.3358 69.5789 21.113 69.5789 21.113C65.9981 20.8743 63.6107 22.1873 62.7751 22.9034C62.6559 22.9034 62.5364 22.7841 62.2977 22.6647C61.7011 22.426 61.1042 22.1873 60.3881 21.9486C59.672 21.7098 59.075 21.5905 58.3589 21.3517C57.6428 21.2324 56.9264 21.113 56.3298 20.9936C56.2103 20.9936 56.0911 20.9936 55.9716 20.9936C54.4199 15.9805 49.8842 13.832 49.8842 13.832C44.8711 17.0548 43.9163 21.4711 43.9163 21.4711C43.9163 21.4711 43.9163 21.5905 43.9163 21.7098C43.6775 21.8292 43.3194 21.8292 43.0807 21.9486C42.7226 22.0679 42.3645 22.1873 41.8871 22.3066C41.529 22.426 41.171 22.5453 40.6935 22.7841C39.9774 23.1422 39.1418 23.5002 38.4257 23.8583C37.7095 24.2164 36.9933 24.6938 36.2772 25.1713C36.1578 25.1713 36.1578 25.0519 36.1578 25.0519C29.1156 22.426 22.9088 25.6487 22.9088 25.6487C22.312 33.0491 25.6541 37.8235 26.3703 38.659C26.2509 39.1364 26.0122 39.6139 25.8928 40.0913C25.4154 41.7624 24.9379 43.5528 24.6992 45.3433C24.6992 45.582 24.5798 45.8207 24.5798 46.0594C18.1344 49.2821 16.2246 55.8469 16.2246 55.8469C21.5958 62.0537 27.922 62.4116 27.922 62.4116C28.7575 63.8442 29.593 65.1569 30.6672 66.4699C31.1447 66.9473 31.6221 67.5442 31.9802 68.0216C30.0704 73.6316 32.2189 78.2868 32.2189 78.2868C38.1869 78.5255 42.1258 75.6607 42.9614 74.9446C43.5581 75.1833 44.155 75.3025 44.7518 75.5415C46.5422 76.019 48.452 76.2577 50.3616 76.3769C50.839 76.3769 51.3167 76.3769 51.7941 76.3769H52.0328H52.152H52.3907H52.6294C55.4942 80.4351 60.3881 81.032 60.3881 81.032C63.9689 77.3317 64.0881 73.6316 64.0881 72.796V72.6768V72.5573C64.8042 72.0799 65.5203 71.4833 66.2368 70.8864C67.669 69.5734 68.8625 68.1411 69.9368 66.5894C70.0563 66.4699 70.1755 66.3507 70.1755 66.112C74.2338 66.3507 76.979 63.6055 76.979 63.6055C76.2629 59.4277 73.8756 57.3986 73.3982 57.0407H73.279C73.279 56.8017 73.279 56.563 73.279 56.3243C73.279 55.8469 73.279 55.3694 73.279 55.0115V54.4146V54.2951V54.1759V54.0564V53.8177V53.4598C73.279 53.3403 73.279 53.2211 73.279 53.1016C73.279 52.9824 73.279 52.8629 73.279 52.7434V52.3855V52.0273C73.1595 51.5499 73.1595 51.0725 73.0403 50.7143C72.5629 48.9242 71.9659 47.2529 71.0111 45.7012C70.0563 44.1496 68.982 42.8366 67.669 41.643C66.356 40.4494 64.9237 39.6139 63.372 38.8977C61.8203 38.1816 60.2686 37.8235 58.5976 37.5848C57.762 37.4654 57.0459 37.4654 56.2103 37.4654H55.9716H55.8524H55.7329H55.6137H55.375C55.2555 37.4654 55.136 37.4654 55.0168 37.4654C54.6586 37.4654 54.1812 37.5848 53.8233 37.5848C52.2715 37.8235 50.7198 38.4203 49.4068 39.2558C48.0938 40.0913 46.9003 41.0462 45.9454 42.1205C44.9905 43.1947 44.2743 44.5077 43.7969 45.8207C43.3194 47.1337 43.0807 48.4464 42.9614 49.7595C42.9614 50.1177 42.9614 50.3564 42.9614 50.7143C42.9614 50.8338 42.9614 50.8338 42.9614 50.9533V51.192C42.9614 51.3112 42.9614 51.5499 42.9614 51.6694C43.0807 52.266 43.2001 52.9824 43.3194 53.579C43.6775 54.7725 44.2743 55.8469 44.8711 56.8017C45.5873 57.7568 46.4228 58.4729 47.2585 59.0695C48.0938 59.6664 49.0489 60.1438 50.0037 60.3825C50.9585 60.6212 51.7941 60.7407 52.749 60.7407C52.8682 60.7407 52.9877 60.7407 53.1069 60.7407H53.2264H53.3459C53.4651 60.7407 53.5846 60.7407 53.5846 60.7407C53.5846 60.7407 53.5846 60.7407 53.7038 60.7407H53.8233H53.9425C54.062 60.7407 54.1812 60.7407 54.3007 60.7407C54.4199 60.7407 54.5394 60.7407 54.6586 60.6212C54.8973 60.6212 55.0168 60.502 55.2555 60.502C55.6137 60.3825 55.9716 60.2633 56.3298 60.0246C56.6877 59.9051 56.9264 59.6664 57.2846 59.4277C57.4038 59.4277 57.4041 59.3085 57.5233 59.189C57.8815 58.9503 57.8815 58.4729 57.6428 58.2342C57.4041 57.9955 57.0459 57.876 56.8072 58.1147C56.6877 58.1147 56.6877 58.2342 56.5685 58.2342C56.3298 58.3534 56.0911 58.4729 55.7329 58.5921C55.4942 58.7116 55.136 58.7116 54.8973 58.8308C54.7781 58.8308 54.5394 58.8308 54.4199 58.8308C54.3007 58.8308 54.3007 58.8308 54.1812 58.8308C54.062 58.8308 54.062 58.8308 53.9425 58.8308C53.8233 58.8308 53.8233 58.8308 53.7038 58.8308C53.5846 58.8308 53.4651 58.8308 53.4651 58.8308H53.3459H53.2264C53.1069 58.8308 53.1072 58.8308 52.9877 58.8308C52.2715 58.7116 51.6746 58.5921 50.9585 58.2342C50.2424 57.9955 49.6455 57.5181 49.0486 57.0407C48.452 56.563 47.9746 55.8469 47.6164 55.2502C47.2585 54.6533 46.9003 53.8177 46.7808 52.9824C46.6615 52.6242 46.6615 52.1468 46.6615 51.7886C46.6615 51.6694 46.6615 51.5499 46.6615 51.4307V51.3112V51.192C46.6615 50.9533 46.6615 50.7143 46.7808 50.4756C47.139 48.6851 47.9746 47.0142 49.4068 45.582C49.765 45.2238 50.1229 44.9851 50.4811 44.6269C50.839 44.3882 51.3167 44.1496 51.6746 43.9109C52.152 43.6722 52.6294 43.5528 52.9877 43.4334C53.4651 43.3141 53.9425 43.1947 54.4199 43.1947C54.6586 43.1947 54.8973 43.1947 55.136 43.1947H55.2555H55.4942H55.6137H55.8524C56.3298 43.1947 56.9264 43.3141 57.4038 43.4334C58.4781 43.6721 59.4329 44.0302 60.3881 44.6269C62.2977 45.7012 63.8494 47.3724 64.9237 49.2821C65.4011 50.2369 65.7593 51.3112 65.998 52.3855C65.998 52.6242 66.1173 52.9824 66.1173 53.2211V53.4598V53.6985C66.1173 53.8177 66.1173 53.8177 66.1173 53.9372C66.1173 54.0564 66.1173 54.0564 66.1173 54.1759V54.4146V54.6533C66.1173 54.7725 66.1173 55.0112 66.1173 55.1307C66.1173 55.4889 66.1172 55.7277 65.998 56.0856C65.998 56.3243 65.8785 56.6825 65.8785 56.9212C65.8785 57.1599 65.759 57.5181 65.6398 57.7568C65.5203 58.3534 65.2816 58.9503 65.0429 59.4277C64.5655 60.502 63.9689 61.5763 63.2525 62.6504C61.8203 64.5603 59.9107 66.2312 57.6428 67.186C56.5685 67.6637 55.375 68.0216 54.1812 68.2603C53.5846 68.3798 52.9877 68.3798 52.3907 68.499H52.2715H52.152H51.9133H51.6746H51.5554C51.1972 68.499 50.9585 68.499 50.6003 68.499C49.2876 68.3798 47.9746 68.1411 46.7808 67.7829C45.5873 67.425 44.2743 66.9473 43.2001 66.3507C40.9322 65.1569 38.9031 63.486 37.2321 61.4568C36.3965 60.502 35.6804 59.4277 35.2029 58.2342C34.6061 57.0407 34.1287 55.8469 33.7706 54.6533C33.4125 53.4598 33.1738 52.1468 33.1738 50.9533V50.7143V50.5951V50.3564V49.6403V49.5208V49.2821V49.1629C33.1738 49.0434 33.1738 48.8046 33.1738 48.6851C33.1738 48.0885 33.2932 47.3724 33.2932 46.7755C33.4125 46.1786 33.5319 45.4625 33.6513 44.8659C33.7706 44.269 33.89 43.5528 34.1287 42.956C34.4868 41.7624 34.9642 40.5688 35.4417 39.3752C36.5159 37.1073 37.8288 35.0782 39.4999 33.5265C39.858 33.1684 40.3354 32.691 40.8129 32.3329C41.2903 31.9748 41.7678 31.6167 42.2452 31.378C42.7227 31.0199 43.2001 30.7812 43.6775 30.5425C43.9162 30.4231 44.155 30.3038 44.3937 30.1844C44.5131 30.1844 44.6324 30.065 44.7518 30.065C44.8711 30.065 44.9905 29.9457 45.1099 29.9457C45.5873 29.707 46.1841 29.5876 46.6615 29.3489C46.7808 29.3489 46.9003 29.2295 47.0198 29.2295C47.139 29.2295 47.2585 29.1102 47.3777 29.1102C47.6164 28.9908 47.9746 28.9908 48.2133 28.8715C48.3325 28.8715 48.452 28.7521 48.6907 28.7521C48.8099 28.7521 48.9294 28.7521 49.1681 28.6327C49.2876 28.6327 49.4068 28.6327 49.6455 28.5134H49.8842H50.1229C50.2424 28.5134 50.3616 28.5134 50.6003 28.394C50.7198 28.394 50.9585 28.394 51.078 28.2746C51.1972 28.2746 51.4359 28.2746 51.5554 28.2746C51.6746 28.2746 51.7941 28.2746 51.9133 28.2746H52.152H52.2715H52.3907C52.5103 28.2746 52.749 28.2746 52.8682 28.2746H53.1069H53.2264C53.3459 28.2746 53.4651 28.2746 53.5846 28.2746C54.1812 28.2746 54.6586 28.2746 55.2555 28.2746C56.3298 28.2746 57.4038 28.394 58.4781 28.6327C60.5073 28.9908 62.4172 29.707 64.2076 30.5425C65.9981 31.378 67.5495 32.4523 68.8625 33.6459C68.982 33.7652 68.982 33.7652 69.1012 33.8846C69.2207 34.0039 69.2207 34.0039 69.3399 34.1233C69.4594 34.2427 69.6981 34.362 69.8173 34.6007C69.9368 34.8395 70.1755 34.8395 70.295 35.0782C70.4142 35.3169 70.6529 35.4363 70.7724 35.5556C71.369 36.1524 71.8464 36.7493 72.3241 37.4654C73.279 38.659 74.1146 39.972 74.7112 41.1656C74.7112 41.2849 74.8307 41.2849 74.8307 41.4043C74.8307 41.5237 74.9499 41.5237 74.9499 41.643C75.0694 41.7624 75.0694 41.8817 75.1886 42.1205C75.3081 42.2398 75.3081 42.3592 75.4273 42.5979C75.5468 42.7173 75.5468 42.8366 75.666 43.0753C75.905 43.6722 76.1437 44.1496 76.2629 44.6269C76.5016 45.4625 76.7403 46.1786 76.8598 46.7755C76.979 47.0142 77.2177 47.2529 77.4564 47.1337C77.6951 47.1337 77.9341 46.895 77.9341 46.656C78.4115 45.2238 78.4115 44.3882 78.292 43.5528Z" fill="url(#paint1_linear_1024_11520)"/>
<defs>
<radialGradient id="paint0_radial_1024_11520" cx="0" cy="0" r="1" gradientUnits="userSpaceOnUse" gradientTransform="translate(47.1367 47.4326) rotate(90) scale(47.04)">
<stop stop-color="#333944"/>
<stop offset="1" stop-color="#222428"/>
</radialGradient>
<linearGradient id="paint1_linear_1024_11520" x1="47.4856" y1="99.1921" x2="47.4856" y2="21.4535" gradientUnits="userSpaceOnUse">
<stop stop-color="#FFF100"/>
<stop offset="1" stop-color="#F05A28"/>
</linearGradient>
</defs>
</svg>
