<svg width="95" height="95" viewBox="0 0 95 95" fill="none" xmlns="http://www.w3.org/2000/svg">
<rect x="1.51184" y="1.33606" width="92.736" height="92.736" rx="13.44" fill="url(#paint0_radial_1024_11633)"/>
<rect x="1.51184" y="1.33606" width="92.736" height="92.736" rx="13.44" stroke="#6886C3" stroke-width="1.344"/>
<path d="M14.2803 14.1035H81.4803V81.3035H14.2803V14.1035Z" fill="#34BDB2"/>
<path d="M58.5015 36.9536C54.9536 34.8951 51.8041 33.2763 47.6839 33.3477C45.3267 33.3886 43.3028 34.6699 42.8773 37.0148C42.4812 39.1964 44.4205 40.4065 46.4381 41.1494C49.7842 42.3816 52.6971 43.6825 55.985 45.0525C61.9618 47.5434 65.0265 51.5772 64.6643 56.7529C64.2033 63.3383 60.2401 68.0614 53.9414 69.6186C45.711 71.6535 37.7186 68.5539 30.9658 64.2268C32.6702 61.6304 34.6476 59.858 36.3418 57.2774C40.2431 58.938 43.308 61.1818 47.3894 61.5317C50.2672 61.7785 53.528 61.6412 54.1745 58.261C54.7572 55.2128 52.1044 53.5788 49.517 52.6661C46.4365 51.5796 43.3619 50.2505 40.341 49.0168C34.7568 46.7359 32.4846 42.2748 32.8671 37.0192C32.8671 33.9378 35.4239 27.7094 41.6926 25.7722C51.3243 22.7954 56.631 25.8436 63.6153 30.3321C61.7602 32.7854 60.3341 34.5297 58.5015 36.9536" fill="white"/>
<defs>
<radialGradient id="paint0_radial_1024_11633" cx="0" cy="0" r="1" gradientUnits="userSpaceOnUse" gradientTransform="translate(47.8798 47.7041) rotate(90) scale(47.04)">
<stop stop-color="#333944"/>
<stop offset="1" stop-color="#222428"/>
</radialGradient>
</defs>
</svg>
