<svg width="95" height="95" viewBox="0 0 95 95" fill="none" xmlns="http://www.w3.org/2000/svg">
<rect x="1.32825" y="1.48841" width="92.736" height="92.736" rx="13.44" fill="url(#paint0_radial_1024_11567)"/>
<rect x="1.32825" y="1.48841" width="92.736" height="92.736" rx="13.44" stroke="#6886C3" stroke-width="1.344"/>
<path d="M52.4004 44.741L58.4377 30.461C58.5092 30.2894 58.7093 30.2082 58.8823 30.2801C59.0546 30.3516 59.1372 30.5489 59.0646 30.7208L53.744 43.3037L52.4004 44.741Z" fill="#939598"/>
<path d="M57.6085 37.4727C57.6085 37.4727 54.7193 41.2591 52.68 43.4467C50.639 45.635 47.665 49.085 47.665 49.085V56.7987C47.6865 56.7973 47.7061 56.793 47.7276 56.793C48.2209 56.793 48.6205 57.188 48.6205 57.6759C48.6205 58.1642 48.2205 58.5599 47.7276 58.5599C47.7061 58.5599 47.6865 58.5549 47.665 58.5531V66.3354C47.665 66.3354 51.4104 63.7904 54.1234 61.3283C57.1824 58.552 60.5821 54.2169 60.5821 54.2169L57.6085 37.473V37.4727Z" fill="#931A2B"/>
<path d="M45.5434 23.3601L45.5155 26.3673L34.6016 30.7389L34.7935 28.0669L45.5437 23.3594L45.5434 23.3601Z" fill="#A7A9AC"/>
<path d="M60.7062 27.9616L60.9189 30.6324L49.9499 26.3488L49.8981 23.3427L60.7062 27.9616ZM47.7166 22.409L47.728 25.4805L31.7627 19.2449L32.094 15.7305L47.7166 22.409ZM32.094 15.7305L31.7627 19.2449L29.6455 20.4942L30.0115 17.0627L32.094 15.7305Z" fill="#BCBEC0"/>
<path d="M63.2676 15.5996L63.6251 19.1119L47.7276 25.4805L47.7158 22.4086L63.2676 15.5996Z" fill="#A7A9AC"/>
<path d="M65.3664 16.9147L65.7592 20.3436L63.626 19.1115L63.2686 15.5996L65.3664 16.9147Z" fill="#BCBEC0"/>
<path d="M36.7751 31.3544L34.6019 30.7403L45.5161 26.3687L29.6455 20.4959L31.7627 19.2463L47.728 25.4819L63.6258 19.1133L65.7591 20.3454L49.9499 26.3505L60.9189 30.6338L58.751 31.2658L47.738 27.1909L36.7751 31.3537V31.3544Z" fill="#808285"/>
<path d="M29.8177 40.1732C29.8063 40.1732 29.7949 40.1732 29.7838 40.1714C29.5972 40.1528 29.4606 39.9891 29.4792 39.8033L31.4248 20.3903C31.4434 20.2062 31.6057 20.0704 31.7966 20.089C31.9831 20.1069 32.1197 20.272 32.1011 20.4565L30.1559 39.8694C30.138 40.0431 29.9915 40.1732 29.8185 40.1732H29.8177ZM64.8007 40.1732C64.6231 40.1732 64.4726 40.0353 64.4622 39.8569L63.2862 20.3106C63.2748 20.1247 63.4174 19.965 63.605 19.9539C63.797 19.9414 63.9539 20.084 63.9654 20.2699L65.1403 39.8151C65.1521 40.0009 65.0098 40.1604 64.8222 40.1718C64.8146 40.1729 64.8079 40.1729 64.8007 40.1732ZM42.0903 44.0798L36.4623 30.8113C36.3898 30.6398 36.4713 30.4417 36.6435 30.3699C36.8173 30.2984 37.0164 30.3792 37.0889 30.5504L43.3357 45.2772L42.0903 44.0798Z" fill="#939598"/>
<path d="M46.8359 57.6766C46.8359 57.2098 47.202 56.8316 47.6652 56.7991V49.0854C47.6652 49.0854 44.6902 45.635 42.6502 43.4467C40.6106 41.2591 37.721 37.4727 37.721 37.4727L34.7471 54.2183C34.7471 54.2183 38.1464 58.5531 41.2054 61.3294C43.9184 63.7915 47.6645 66.3361 47.6645 66.3361V58.5534C47.2023 58.5209 46.8359 58.1424 46.8359 57.6766Z" fill="#A81E2C"/>
<path d="M47.7263 58.1839C47.6441 58.1839 47.5605 58.1546 47.4954 58.0946L35.7819 47.3258L35.7783 46.4043L47.7242 57.385L59.5185 46.2734L59.5661 47.157L47.9605 58.0906C47.8947 58.1535 47.8103 58.1843 47.7256 58.1843L47.7263 58.1839Z" fill="#939598"/>
<path d="M72.2272 39.8286L57.6086 37.473C57.6086 37.473 58.9684 45.2142 58.9684 58.1728C58.9684 71.1327 57.1836 79.9681 57.1836 79.9681L71.9723 78.3689C71.9723 78.3689 73.8414 71.2986 73.8414 59.0975C73.8407 46.8967 72.2264 39.8282 72.2264 39.8282L72.2272 39.8286ZM65.4696 73.9934C65.0707 73.9934 64.7472 73.6738 64.7472 73.2785C64.7472 72.8846 65.0704 72.5636 65.4696 72.5636C65.8689 72.5636 66.1917 72.8846 66.1917 73.2785C66.1917 73.6731 65.8692 73.9934 65.4696 73.9934ZM36.3613 58.1724C36.3613 45.2139 37.721 37.4727 37.721 37.4727L23.1029 39.8282C23.1029 39.8282 21.4883 46.8971 21.4883 59.0982C21.4883 71.3007 23.3577 78.3696 23.3577 78.3696L38.146 79.9695C38.146 79.9677 36.3613 71.1331 36.3613 58.1724ZM29.5884 73.9465C29.2166 73.9465 28.9146 73.6473 28.9146 73.2792C28.9146 72.9107 29.2159 72.6118 29.588 72.6118C29.9598 72.6118 30.2615 72.9107 30.2615 73.2785C30.2615 73.6459 29.9601 73.9455 29.588 73.9455L29.5884 73.9465Z" fill="#CE2227"/>
<path d="M65.4689 44.7405C65.8378 44.7405 66.1369 44.4445 66.1369 44.0792C66.1369 43.714 65.8378 43.418 65.4689 43.418C65.0999 43.418 64.8008 43.714 64.8008 44.0792C64.8008 44.4445 65.0999 44.7405 65.4689 44.7405Z" fill="#A51724"/>
<path d="M65.4698 73.6163C65.4438 73.6163 65.4169 73.6127 65.3901 73.6063C65.2078 73.5638 65.0949 73.3836 65.1381 73.201C65.1485 73.1595 66.1486 68.8583 66.1486 58.897C66.1486 48.9164 65.1464 44.1959 65.1367 44.1502C65.0977 43.9679 65.2143 43.7892 65.3973 43.7499C65.5796 43.7105 65.7622 43.8263 65.8012 44.0083C65.8116 44.0548 66.8285 48.8463 66.8285 58.897C66.8285 68.9534 65.8416 73.1809 65.7998 73.3561C65.7622 73.513 65.6228 73.6167 65.4695 73.6167L65.4698 73.6163Z" fill="#939598"/>
<path d="M29.5882 44.856C30.0209 44.856 30.3717 44.5087 30.3717 44.0803C30.3717 43.652 30.0209 43.3047 29.5882 43.3047C29.1555 43.3047 28.8047 43.652 28.8047 44.0803C28.8047 44.5087 29.1555 44.856 29.5882 44.856Z" fill="#A51724"/>
<path d="M29.587 73.6153C29.4215 73.6153 29.2768 73.4948 29.251 73.3279C29.2428 73.2721 28.3975 67.6044 28.3975 58.7205C28.3975 49.8361 29.2428 44.0866 29.251 44.0294C29.2789 43.8453 29.4512 43.7184 29.6371 43.7459C29.823 43.7727 29.9516 43.9443 29.9241 44.1277C29.9152 44.1849 29.0777 49.8897 29.0777 58.7212C29.0777 67.5562 29.9159 73.1745 29.9238 73.2285C29.9524 73.4108 29.8237 73.5842 29.6378 73.6117C29.6206 73.6131 29.6035 73.6153 29.587 73.6153Z" fill="#939598"/>
<defs>
<radialGradient id="paint0_radial_1024_11567" cx="0" cy="0" r="1" gradientUnits="userSpaceOnUse" gradientTransform="translate(47.6963 47.8564) rotate(90) scale(47.04)">
<stop stop-color="#333944"/>
<stop offset="1" stop-color="#222428"/>
</radialGradient>
</defs>
</svg>
