<svg width="95" height="95" viewBox="0 0 95 95" fill="none" xmlns="http://www.w3.org/2000/svg">
<rect x="1.19251" y="0.777469" width="92.736" height="92.736" rx="13.44" fill="url(#paint0_radial_1024_11543)"/>
<rect x="1.19251" y="0.777469" width="92.736" height="92.736" rx="13.44" stroke="#6886C3" stroke-width="1.344"/>
<path d="M75.0691 13.5449H20.0528C16.6883 13.5449 13.9609 16.2723 13.9609 19.6368V74.6531C13.9609 78.0175 16.6883 80.7449 20.0528 80.7449H75.0691C78.4336 80.7449 81.1609 78.0175 81.1609 74.6531V19.6368C81.1609 16.2723 78.4336 13.5449 75.0691 13.5449Z" fill="#DC395F"/>
<path d="M36.4198 34.6891C38.6537 34.6891 40.5251 32.9382 40.5251 30.6434C40.5251 28.3502 38.6537 26.5996 36.4198 26.5996C34.186 26.5996 32.3151 28.3502 32.3151 30.6434C32.3151 32.9379 34.186 34.6891 36.4198 34.6891ZM27.908 56.3506C27.6668 57.377 27.5458 58.4853 27.5458 59.3893C27.5458 62.9517 29.4775 65.3166 33.5827 65.3166C36.9874 65.3166 39.7476 63.2948 41.7349 60.0301L40.5214 64.9003H47.2821L51.1461 49.4025C52.1121 45.4786 53.9835 43.4419 56.8211 43.4419C59.0547 43.4419 60.4431 44.8311 60.4431 47.1243C60.4431 47.7887 60.3827 48.5124 60.1412 49.2975L58.1488 56.421C57.8469 57.4474 57.7267 58.4743 57.7267 59.4395C57.7267 62.8213 59.7183 65.2948 63.8839 65.2948C67.4458 65.2948 70.2829 63.0019 71.8526 57.508L69.1966 56.4827C67.8684 60.1632 66.7213 60.8286 65.8156 60.8286C64.91 60.8286 64.427 60.2254 64.427 59.0187C64.427 58.4753 64.5483 57.8723 64.7289 57.1463L66.6611 50.2063C67.1439 48.5767 67.3253 47.1316 67.3253 45.8039C67.3253 40.6122 64.1858 37.9026 60.3827 37.9026C56.8211 37.9026 53.1986 41.1154 51.3879 44.4966L52.7156 38.4276H42.393L40.944 43.7732H45.7738L42.7996 55.6802C40.4642 60.8719 36.1741 60.9562 35.6357 60.8357C34.7516 60.6362 34.1862 60.3005 34.1862 59.1518C34.1862 58.489 34.307 57.5369 34.6088 56.389L39.137 38.4276H27.6668L26.2178 43.7732H30.9866L27.9083 56.3506" fill="white"/>
<defs>
<radialGradient id="paint0_radial_1024_11543" cx="0" cy="0" r="1" gradientUnits="userSpaceOnUse" gradientTransform="translate(47.5605 47.1455) rotate(90) scale(47.04)">
<stop stop-color="#333944"/>
<stop offset="1" stop-color="#222428"/>
</radialGradient>
</defs>
</svg>
