<svg width="95" height="95" viewBox="0 0 95 95" fill="none" xmlns="http://www.w3.org/2000/svg">
<rect x="1.04016" y="0.929812" width="92.736" height="92.736" rx="13.44" fill="url(#paint0_radial_1024_11463)"/>
<rect x="1.04016" y="0.929812" width="92.736" height="92.736" rx="13.44" stroke="#6886C3" stroke-width="1.344"/>
<g clip-path="url(#clip0_1024_11463)">
<path d="M75.6662 35.3754L73.5899 29.7717L75.0187 26.5568C75.1974 26.1326 75.108 25.6638 74.7955 25.3289L70.8885 21.3773C69.1694 19.6582 66.6243 19.0554 64.3248 19.8591L63.2308 20.2387L57.2476 13.7642L47.1341 13.6973H47.0671L36.8867 13.7866L30.9257 20.3056L29.8541 19.9261C27.5322 19.1001 24.9648 19.7028 23.2457 21.4666L19.2718 25.4852C19.0039 25.7531 18.9369 26.1326 19.0708 26.4675L20.5666 29.8163L18.5127 35.4201L19.8522 40.488L25.9248 63.5503C26.6169 66.207 28.2243 68.5289 30.4792 70.1363C30.4792 70.1363 37.8466 75.3382 45.1025 80.0489C45.7499 80.4731 46.4197 80.7633 47.1341 80.7633C47.8485 80.7633 48.5183 80.4731 49.1657 80.0489C57.3369 74.6908 63.789 70.114 63.789 70.114C66.0215 68.5066 67.629 66.1847 68.3211 63.528L74.349 40.4656L75.6662 35.3754Z" fill="#F15A22"/>
<path style="mix-blend-mode:lighten" opacity="0.15" d="M26.215 64.5326L18.5127 35.9112L20.7676 30.3074L19.2048 26.1549L22.9332 22.3595C24.1611 21.2656 26.5722 20.8861 27.6885 21.5335L33.5155 24.8823L41.1062 26.6461L47.0225 24.1902L47.5136 75.0256C47.4243 82.3484 47.8932 81.567 42.5127 78.1065L29.229 69.1986C27.8001 67.8367 26.7062 66.2963 26.215 64.5326Z" fill="url(#paint1_linear_1024_11463)"/>
<path style="mix-blend-mode:darken" opacity="0.4" d="M63.6561 70.012L52.3594 77.7366C49.2115 79.4557 47.6933 81.1524 47.4477 80.3264C47.2468 79.6789 47.4031 77.7813 47.3361 74.8343L47.2021 25.1152C47.2245 24.6241 47.5594 23.798 48.1398 23.8873L53.8998 25.6287L62.2049 24.3338L67.697 20.2929C68.2775 19.8464 69.1259 19.891 69.6617 20.4045L74.5733 25.0929C75.0198 25.5617 75.0421 26.4771 74.7742 27.0575L73.4124 29.5803L75.6673 35.4073L67.898 64.2966C66.6924 67.891 64.9956 68.8287 63.6561 70.012Z" fill="url(#paint2_linear_1024_11463)"/>
<path d="M48.4288 54.9548C48.1609 54.8432 47.8707 54.7539 47.7814 54.7539H47.4242H47.067C46.9777 54.7539 46.6874 54.8432 46.4195 54.9548L43.5172 56.1604C43.2493 56.272 42.8028 56.473 42.5349 56.6069L38.1591 58.8841C37.8912 59.0181 37.8688 59.2637 38.1144 59.4423L41.9767 62.166C42.2223 62.3446 42.6019 62.6348 42.8251 62.8358L44.5442 64.3093C44.7674 64.5102 45.1246 64.8227 45.3479 65.0237L47 66.4972C47.2232 66.6981 47.5805 66.6981 47.8037 66.4972L49.5005 65.0237C49.7237 64.8227 50.0809 64.5102 50.3042 64.3093L52.0232 62.8134C52.2465 62.6125 52.626 62.3223 52.8716 62.1437L56.7339 59.3976C56.9795 59.219 56.9572 58.9734 56.6893 58.8395L52.3135 56.6069C52.0456 56.473 51.5991 56.272 51.3312 56.1604L48.4288 54.9548Z" fill="white"/>
<path d="M69.3737 36.3718C69.463 36.0816 69.463 35.97 69.463 35.97C69.463 35.6797 69.4407 35.1886 69.396 34.8984L69.1727 34.2509C69.0388 33.983 68.8155 33.5588 68.6369 33.3132L66.1141 29.5849C65.9579 29.3393 65.6676 28.9598 65.4667 28.7142L62.2072 24.6286C62.0286 24.4053 61.85 24.2044 61.8276 24.2267H61.783C61.783 24.2267 61.5374 24.2714 61.2472 24.316L56.2686 25.2984C55.9783 25.3653 55.5095 25.4546 55.2193 25.4993L55.13 25.5216C54.8397 25.5663 54.3709 25.5439 54.0807 25.4546L49.9058 24.1151C49.6155 24.0258 49.1467 23.8918 48.8788 23.8249C48.8788 23.8249 48.0304 23.6239 47.3383 23.6463C46.6462 23.6463 45.7979 23.8249 45.7979 23.8249C45.5076 23.8918 45.0388 24.0258 44.7709 24.1151L40.596 25.4546C40.3058 25.5439 39.8369 25.5663 39.5467 25.5216L39.4574 25.4993C39.1672 25.4546 38.6983 25.343 38.4081 25.2984L33.3848 24.3607C33.0946 24.2937 32.849 24.2714 32.849 24.2714H32.8044C32.782 24.2714 32.6034 24.45 32.4248 24.6732L29.1653 28.7588C28.9867 28.9821 28.6965 29.3839 28.5179 29.6295L25.9951 33.3579C25.8388 33.6035 25.5932 34.0277 25.4593 34.2956L25.236 34.943C25.1913 35.2332 25.1467 35.7244 25.169 36.0146C25.169 36.0146 25.169 36.1039 25.2583 36.4165C25.4146 36.9523 25.7941 37.4435 25.7941 37.4435C25.9727 37.6667 26.3076 38.0463 26.5086 38.2472L33.8983 46.1058C34.0993 46.3291 34.1662 46.7309 34.0546 46.9988L32.5141 50.6379C32.4025 50.9058 32.3802 51.3523 32.4918 51.6425L32.916 52.7811C33.2732 53.7411 33.876 54.5895 34.6797 55.237L36.1755 56.4425C36.3988 56.6211 36.8007 56.6881 37.0686 56.5542L41.8016 54.2993C42.0695 54.1653 42.4714 53.8974 42.6946 53.6965L46.0881 50.6379C46.5793 50.1914 46.6016 49.4323 46.1551 48.9411L39.0332 44.1411C38.7876 43.9849 38.6983 43.6277 38.8323 43.3598L41.9579 37.4658C42.0918 37.1979 42.1141 36.7737 42.0025 36.5058L41.623 35.6351C41.5114 35.3672 41.1765 35.0546 40.9086 34.943L31.7327 31.5049C31.4648 31.3932 31.4648 31.2816 31.7551 31.2593L37.6714 30.7011C37.9616 30.6788 38.4304 30.7235 38.7207 30.7904L43.9895 32.2639C44.2797 32.3532 44.4583 32.6435 44.4137 32.9337L42.583 42.9579C42.5383 43.2481 42.5383 43.65 42.6053 43.8732C42.6723 44.0965 42.9625 44.2974 43.2527 44.3644L46.9141 45.1458C47.2044 45.2128 47.6732 45.2128 47.9634 45.1458L51.3793 44.3644C51.6695 44.2974 51.9597 44.0742 52.0267 43.8732C52.0937 43.6723 52.116 43.2481 52.049 42.9579L50.2407 32.9337C50.196 32.6435 50.3746 32.3309 50.6648 32.2639L55.9337 30.7904C56.2239 30.7011 56.6927 30.6788 56.983 30.7011L62.8993 31.2593C63.1895 31.2816 63.2118 31.3932 62.9216 31.5049L53.7458 34.9877C53.4779 35.0993 53.143 35.3895 53.0314 35.6798L52.6518 36.5504C52.5402 36.8184 52.5402 37.2649 52.6965 37.5104L55.8444 43.4044C55.9783 43.6723 55.889 44.0072 55.6434 44.1858L48.5216 49.0081C48.0527 49.477 48.0974 50.2584 48.5886 50.7049L51.982 53.7635C52.2053 53.9644 52.6072 54.2323 52.8751 54.3439L57.6304 56.5988C57.8983 56.7328 58.3002 56.6658 58.5234 56.4872L60.0193 55.2593C60.823 54.6118 61.4258 53.7635 61.7607 52.8035L62.1848 51.6649C62.2965 51.397 62.2741 50.9281 62.1625 50.6602L60.622 47.0211C60.5104 46.7532 60.5774 46.3514 60.7783 46.1281L68.1681 38.2695C68.369 38.0463 68.6816 37.6891 68.8825 37.4658C68.8379 37.3988 69.2397 36.9077 69.3737 36.3718Z" fill="white"/>
</g>
<defs>
<radialGradient id="paint0_radial_1024_11463" cx="0" cy="0" r="1" gradientUnits="userSpaceOnUse" gradientTransform="translate(47.4082 47.2978) rotate(90) scale(47.04)">
<stop stop-color="#333944"/>
<stop offset="1" stop-color="#222428"/>
</radialGradient>
<linearGradient id="paint1_linear_1024_11463" x1="18.5127" y1="2994.27" x2="2921.42" y2="2994.27" gradientUnits="userSpaceOnUse">
<stop stop-color="white"/>
<stop offset="0.1413" stop-color="white" stop-opacity="0.9576"/>
<stop offset="1" stop-color="white" stop-opacity="0.7"/>
</linearGradient>
<linearGradient id="paint2_linear_1024_11463" x1="46.0903" y1="3046.7" x2="2893.71" y2="3046.7" gradientUnits="userSpaceOnUse">
<stop stop-color="#F1F1F2"/>
<stop offset="0.0919144" stop-color="#E4E5E6"/>
<stop offset="0.2357" stop-color="#D9DADB"/>
<stop offset="0.438" stop-color="#D2D4D5"/>
<stop offset="1" stop-color="#D0D2D3"/>
</linearGradient>
<clipPath id="clip0_1024_11463">
<rect width="67.2" height="67.2" fill="white" transform="translate(13.8086 13.6973)"/>
</clipPath>
</defs>
</svg>
