<svg width="95" height="95" viewBox="0 0 95 95" fill="none" xmlns="http://www.w3.org/2000/svg">
<rect x="1.19251" y="1.21497" width="92.736" height="92.736" rx="13.44" fill="url(#paint0_radial_1024_11438)"/>
<rect x="1.19251" y="1.21497" width="92.736" height="92.736" rx="13.44" stroke="#6886C3" stroke-width="1.344"/>
<path d="M63.0254 57.0519C61.4825 57.0519 60.2274 55.7958 60.2274 54.2529C60.2274 52.7099 61.4825 51.4548 63.0254 51.4548C64.5686 51.4548 65.8237 52.7097 65.8237 54.2529C65.8237 55.7961 64.5686 57.0519 63.0254 57.0519ZM32.0964 57.0519C30.5535 57.0519 29.2984 55.7958 29.2984 54.2529C29.2984 52.7099 30.5532 51.4548 32.0964 51.4548C33.6394 51.4548 34.8945 52.7097 34.8945 54.2529C34.8945 55.7961 33.6396 57.0519 32.0964 57.0519ZM64.029 40.1961L69.6215 30.5102C69.7755 30.2429 69.8171 29.9255 69.7372 29.6275C69.6574 29.3296 69.4626 29.0755 69.1957 28.9209C68.9283 28.7671 68.6109 28.7255 68.313 28.8053C68.015 28.8852 67.7609 29.0799 67.6064 29.3468L61.944 39.1551C57.6135 37.1791 52.7503 36.0781 47.5609 36.0781C42.3715 36.0781 37.5084 37.1791 33.1782 39.1551L27.5155 29.3468C27.3609 29.0799 27.1068 28.8852 26.8089 28.8053C26.511 28.7255 26.1935 28.7671 25.9262 28.9209C25.6591 29.0753 25.4642 29.3294 25.3843 29.6274C25.3045 29.9255 25.3462 30.243 25.5003 30.5102L31.0928 40.1961C21.4897 45.419 14.9218 55.141 13.9609 66.6269H81.1609C80.1993 55.1412 73.6314 45.419 64.029 40.1958" fill="#3DDB85"/>
<defs>
<radialGradient id="paint0_radial_1024_11438" cx="0" cy="0" r="1" gradientUnits="userSpaceOnUse" gradientTransform="translate(47.5605 47.583) rotate(90) scale(47.04)">
<stop stop-color="#333944"/>
<stop offset="1" stop-color="#222428"/>
</radialGradient>
</defs>
</svg>
