<svg width="95" height="95" viewBox="0 0 95 95" fill="none" xmlns="http://www.w3.org/2000/svg">
<rect x="1.49622" y="1.48841" width="92.736" height="92.736" rx="13.44" fill="url(#paint0_radial_1024_11556)"/>
<rect x="1.49622" y="1.48841" width="92.736" height="92.736" rx="13.44" stroke="#6886C3" stroke-width="1.344"/>
<path d="M80.453 29.3658C80.4771 29.4548 80.4894 29.5466 80.4896 29.6389V43.9754C80.4896 44.1594 80.441 44.3402 80.3488 44.4994C80.2566 44.6586 80.124 44.7907 79.9643 44.8822L67.9314 51.8101V65.5416C67.9314 65.9153 67.7328 66.2603 67.4088 66.4484L42.2911 80.9078C42.2336 80.9405 42.1709 80.9614 42.1082 80.9836C42.0846 80.9914 42.0624 81.0058 42.0376 81.0123C41.862 81.0586 41.6775 81.0586 41.5019 81.0123C41.4731 81.0045 41.447 80.9888 41.4196 80.9784C41.3621 80.9575 41.302 80.9392 41.2471 80.9078L16.1346 66.4484C15.9751 66.3568 15.8426 66.2247 15.7503 66.0655C15.6581 65.9063 15.6095 65.7256 15.6094 65.5416V22.532C15.6094 22.4379 15.6224 22.3465 15.646 22.2576C15.6538 22.2276 15.6721 22.2001 15.6825 22.1701C15.7021 22.1152 15.7204 22.059 15.7492 22.008C15.7688 21.9741 15.7975 21.9466 15.8211 21.9153C15.8511 21.8734 15.8785 21.8303 15.9138 21.7937C15.9439 21.7637 15.9831 21.7415 16.017 21.7153C16.0549 21.684 16.0889 21.65 16.132 21.6252H16.1333L28.6902 14.3955C28.8492 14.304 29.0294 14.2559 29.2129 14.2559C29.3963 14.2559 29.5765 14.304 29.7355 14.3955L42.2924 21.6252H42.295C42.3368 21.6513 42.3721 21.684 42.41 21.714C42.444 21.7402 42.4819 21.7637 42.5119 21.7924C42.5485 21.8303 42.5746 21.8734 42.606 21.9153C42.6282 21.9466 42.6583 21.9741 42.6766 22.008C42.7066 22.0603 42.7236 22.1152 42.7445 22.1701C42.755 22.2001 42.7733 22.2276 42.7811 22.2589C42.8051 22.348 42.8174 22.4398 42.8177 22.532V49.3954L53.2813 43.3704V29.6376C53.2813 29.5461 53.2944 29.4533 53.3179 29.3658C53.327 29.3344 53.344 29.307 53.3545 29.2769C53.3754 29.222 53.3937 29.1659 53.4224 29.1149C53.442 29.0809 53.4708 29.0535 53.493 29.0221C53.5243 28.9803 53.5505 28.9372 53.5871 28.9006C53.6171 28.8705 53.655 28.8483 53.689 28.8222C53.7282 28.7908 53.7621 28.7569 53.804 28.732H53.8053L66.3634 21.5024C66.5224 21.4107 66.7026 21.3625 66.8861 21.3625C67.0696 21.3625 67.2498 21.4107 67.4088 21.5024L79.9656 28.732C80.0101 28.7582 80.044 28.7908 80.0832 28.8209C80.1159 28.847 80.1538 28.8705 80.1838 28.8993C80.2204 28.9372 80.2466 28.9803 80.2779 29.0221C80.3014 29.0535 80.3302 29.0809 80.3485 29.1149C80.3785 29.1659 80.3955 29.222 80.4164 29.2769C80.4282 29.307 80.4452 29.3344 80.453 29.3658V29.3658ZM78.3964 43.3704V31.4486L74.0021 33.9782L67.9314 37.4735V49.3954L78.3977 43.3704H78.3964ZM65.8395 64.9366V53.0069L59.8681 56.4173L42.8164 66.1492V78.1913L65.8395 64.9366ZM17.7026 24.3417V64.9366L40.7231 78.19V66.1505L28.6967 59.3442L28.6928 59.3416L28.6876 59.339C28.6471 59.3154 28.6131 59.2815 28.5752 59.2527C28.5426 59.2266 28.5047 59.2057 28.4759 59.1769L28.4733 59.173C28.4393 59.1404 28.4158 59.0998 28.3871 59.0633C28.3609 59.028 28.3296 58.9979 28.3087 58.9613L28.3074 58.9574C28.2838 58.9182 28.2695 58.8712 28.2525 58.8268C28.2355 58.7876 28.2133 58.751 28.2028 58.7092V58.7079C28.1898 58.6582 28.1872 58.6059 28.1819 58.555C28.1767 58.5158 28.1662 58.4766 28.1662 58.4374V30.3667L22.0969 26.8701L17.7026 24.343V24.3417ZM29.2142 16.5097L18.7519 22.532L29.2116 28.5543L39.6726 22.5307L29.2116 16.5097H29.2142ZM34.6551 54.0941L40.7244 50.6001V24.3417L36.3302 26.8714L30.2595 30.3667V56.6251L34.6551 54.0941ZM66.8861 23.6165L56.4251 29.6389L66.8861 35.6612L77.3458 29.6376L66.8861 23.6165ZM65.8395 37.4735L59.7688 33.9782L55.3746 31.4486V43.3704L61.4439 46.8644L65.8395 49.3954V37.4735ZM41.7684 64.3395L57.1124 55.5797L64.7824 51.2025L54.3292 45.184L42.2937 52.1132L31.3244 58.4282L41.7684 64.3395Z" fill="#FF2D20"/>
<defs>
<radialGradient id="paint0_radial_1024_11556" cx="0" cy="0" r="1" gradientUnits="userSpaceOnUse" gradientTransform="translate(47.8642 47.8564) rotate(90) scale(47.04)">
<stop stop-color="#333944"/>
<stop offset="1" stop-color="#222428"/>
</radialGradient>
</defs>
</svg>
