<svg width="96" height="95" viewBox="0 0 96 95" fill="none" xmlns="http://www.w3.org/2000/svg">
<rect x="1.61536" y="1.48841" width="92.736" height="92.736" rx="13.44" fill="url(#paint0_radial_1024_11566)"/>
<rect x="1.61536" y="1.48841" width="92.736" height="92.736" rx="13.44" stroke="#6886C3" stroke-width="1.344"/>
<path fill-rule="evenodd" clip-rule="evenodd" d="M80.1129 25.6809C79.0813 25.7149 79.3798 26.1796 77.1467 26.7313C74.8908 27.2868 72.1627 26.9467 69.7368 27.9669C63.3887 30.6271 62.3609 40.9125 54.7999 44.8914C49.8424 47.6913 44.7866 48.3337 40.2673 49.7507C36.6399 51.2055 34.384 52.169 31.7239 54.4626C29.6608 56.2424 29.1582 57.9692 27.0006 60.2024C24.8128 63.1761 16.5187 60.5349 14.3838 64.2644C15.5098 64.9936 16.1597 65.1939 18.1359 64.9332C17.7278 65.7078 15.1282 66.728 15.6005 67.8692C15.6005 67.8692 21.8843 69.0141 27.182 65.8174C29.6532 64.8123 31.9695 62.6849 35.8086 62.1748C40.7812 61.5135 46.3849 63.2177 52.3967 63.6976C51.1535 66.1537 49.8726 67.6047 48.501 69.63C48.0778 70.0872 48.8637 70.4915 50.3222 70.2157C52.9446 69.5658 54.8452 68.863 56.7308 67.5593C59.1907 65.8627 60.2487 64.3097 62.3232 61.8498C64.1256 64.7405 70.4812 65.3753 71.7848 62.8776C69.359 61.8498 68.8413 56.5031 69.6726 54.1943C70.655 51.9952 71.3616 48.8854 72.1551 45.9947C72.8693 43.3913 73.3114 39.4199 74.1653 37.387C75.1856 34.8591 77.1693 34.0694 78.6581 32.728C80.1469 31.3866 81.6281 30.2681 81.5828 27.1999C81.5677 26.2023 81.0538 25.6506 80.1129 25.6809Z" fill="#1F305F"/>
<path d="M16.2807 67.34C20.1764 67.4571 21.2345 67.3551 24.314 66.0174C26.9326 64.8801 30.4354 61.8156 33.5301 60.8256C38.072 59.3671 42.9426 59.5862 47.7755 60.1568C49.3927 60.3495 51.0176 60.6178 52.1776 60.4931C53.9876 59.3822 54.0745 56.3668 55.1967 56.125C54.8906 61.9592 52.3892 65.6925 49.8877 69.0781C55.1589 68.1486 58.6806 64.8574 60.8117 60.7841C61.4579 59.5484 62.531 57.5269 63.0222 56.1364C63.4114 57.0583 62.5159 57.644 62.9353 58.6491C66.3285 55.8492 67.9306 52.66 69.3061 47.9896C70.9006 42.5862 72.5368 37.9423 73.5646 36.3439C74.5659 34.7834 76.1265 33.8198 77.551 32.8223C79.1682 31.6849 80.6155 30.5022 80.8649 28.337C79.1569 28.1783 78.7639 27.7854 78.5108 26.9238C77.6568 27.4037 76.8709 27.5095 75.9829 27.536C75.2121 27.5586 74.3656 27.5246 73.3303 27.6304C64.7793 28.5071 64.3825 36.8654 58.1667 43.0019C57.7662 43.3911 57.0822 43.9654 56.6288 44.3055C54.7092 45.7376 52.6537 46.5235 50.4885 47.3511C46.982 48.6887 43.6568 49.0779 40.3694 50.2341C37.9549 51.0806 35.7103 52.0517 33.7266 53.4082C33.2316 53.7483 32.559 54.3528 32.1282 54.7043C30.9644 55.6565 30.2011 56.7107 29.4605 57.7989C28.6972 58.9174 27.9642 60.0699 26.8419 61.1695C25.0244 62.953 18.238 61.6909 15.8461 63.346C15.5816 63.5311 15.3662 63.7503 15.2227 64.0148C16.5263 64.608 17.3991 64.2453 18.8992 64.4077C19.0844 65.8398 15.7932 66.6863 16.2807 67.34Z" fill="#C0765A"/>
<path fill-rule="evenodd" clip-rule="evenodd" d="M70.4814 31.1672C71.6906 32.2177 74.2298 31.375 73.7764 29.2854C71.8946 29.1267 70.8064 29.7653 70.4814 31.1672Z" fill="#1F305F"/>
<path d="M78.9187 28.7242C78.5975 29.4005 77.9816 30.2696 77.9816 31.9889C77.9778 32.2836 77.7587 32.4877 77.7549 32.0305C77.77 30.349 78.2159 29.6235 78.6882 28.6713C78.9036 28.2821 79.0359 28.4408 78.9187 28.7242Z" fill="#1F305F"/>
<path d="M78.5939 28.4686C78.2123 29.1109 77.2979 30.2861 77.1505 32.0016C77.1241 32.2963 76.8822 32.4777 76.92 32.0243C77.0863 30.3541 77.8155 29.3074 78.371 28.3968C78.6204 28.0265 78.7375 28.1965 78.5939 28.4686Z" fill="#1F305F"/>
<path d="M78.2993 28.1353C77.8648 28.7436 76.4591 30.1568 76.1644 31.8497C76.1115 32.1406 75.8583 32.2993 75.9339 31.8534C76.24 30.2022 77.4529 28.9023 78.0801 28.0446C78.3597 27.6932 78.4656 27.8746 78.2993 28.1353Z" fill="#1F305F"/>
<path d="M78.0343 27.7565C77.5205 28.3006 75.8428 30.0993 75.3138 31.7354C75.2193 32.015 74.9472 32.1397 75.0833 31.7052C75.6161 30.1106 77.0859 28.3951 77.8303 27.6356C78.1591 27.3295 78.2346 27.526 78.0343 27.7565Z" fill="#1F305F"/>
<defs>
<radialGradient id="paint0_radial_1024_11566" cx="0" cy="0" r="1" gradientUnits="userSpaceOnUse" gradientTransform="translate(47.9834 47.8564) rotate(90) scale(47.04)">
<stop stop-color="#333944"/>
<stop offset="1" stop-color="#222428"/>
</radialGradient>
</defs>
</svg>
