<svg width="95" height="95" viewBox="0 0 95 95" fill="none" xmlns="http://www.w3.org/2000/svg">
<rect x="1.20813" y="1.48841" width="92.736" height="92.736" rx="13.44" fill="url(#paint0_radial_1024_11557)"/>
<rect x="1.20813" y="1.48841" width="92.736" height="92.736" rx="13.44" stroke="#6886C3" stroke-width="1.344"/>
<path d="M77.7173 57.1367C77.7173 60.2972 75.1315 62.8831 71.971 62.8831H23.6721C20.5117 62.8831 17.9258 60.2972 17.9258 57.1367V38.8362C17.9258 35.6757 20.5117 33.0898 23.6721 33.0898H71.971C75.1315 33.0898 77.7173 35.6757 77.7173 38.8362V57.1367Z" fill="url(#paint1_linear_1024_11557)"/>
<path d="M67.6142 47.5951C70.1386 48.4783 71.4003 49.9914 71.4003 52.1324C71.4003 53.5416 70.877 54.6601 69.8329 55.4874C68.7898 56.3152 67.3018 56.829 65.3649 56.829C63.428 56.829 61.6365 56.2678 59.9863 55.3465C60.0042 54.858 60.1333 54.3219 60.3704 53.7401C60.6074 53.1582 60.888 52.6959 61.2095 52.3583C62.726 53.1464 64.0457 53.5411 65.1659 53.5411C65.6954 53.5411 66.105 53.4523 66.3901 53.2733C66.6758 53.0951 66.8178 52.8558 66.8178 52.5551C66.8178 51.99 66.3801 51.5673 65.5075 51.2856L63.9401 50.6937C61.569 49.8295 60.3833 48.4214 60.3833 46.4655C60.3833 45.0373 60.8814 43.9053 61.8775 43.0679C62.8736 42.2317 64.2163 41.5117 65.9044 41.5117C66.7396 41.5117 67.6591 41.6291 68.6652 41.8639C69.6703 42.0993 70.4959 42.679 71.141 42.9975C71.179 43.524 71.0734 44.102 70.828 44.7314C70.5809 45.3614 70.278 45.8074 69.9163 46.0707C68.3216 45.3564 66.9946 44.9992 65.9314 44.9992C65.5507 44.9992 65.2639 45.0836 65.0627 45.2535C64.8637 45.4229 64.7658 45.6386 64.7658 45.902C64.7658 46.3531 65.1258 46.7097 65.8474 46.973L67.6142 47.5951Z" fill="#F6F6F6"/>
<path d="M55.0058 47.5951C57.5301 48.4783 58.7912 49.9914 58.7912 52.1324C58.7912 53.5416 58.268 54.6601 57.2255 55.4874C56.1814 56.3152 54.6928 56.829 52.7565 56.829C50.8213 56.829 49.0275 56.2678 47.3779 55.3465C47.3958 54.858 47.5249 54.3219 47.7625 53.7401C47.9995 53.1582 48.279 52.6959 48.6016 52.3583C50.1198 53.1464 51.439 53.5411 52.5586 53.5411C53.0885 53.5411 53.4982 53.4523 53.7822 53.2733C54.0668 53.0951 54.2099 52.8558 54.2099 52.5551C54.2099 51.99 53.7722 51.5673 52.8996 51.2856L51.3333 50.6937C48.9616 49.8295 47.7754 48.4214 47.7754 46.4655C47.7754 45.0373 48.2735 43.9053 49.2707 43.0679C50.2662 42.2317 51.6083 41.5117 53.2965 41.5117C54.131 41.5117 55.0528 41.6291 56.0567 41.8639C57.0629 42.0993 57.8875 42.679 58.533 42.9975C58.5711 43.524 58.4654 44.102 58.2201 44.7314C57.9735 45.3614 57.67 45.8074 57.3089 46.0707C55.7135 45.3564 54.3865 44.9992 53.3228 44.9992C52.9427 44.9992 52.6548 45.0836 52.4547 45.2535C52.2562 45.4229 52.1573 45.6386 52.1573 45.902C52.1573 46.3531 52.5178 46.7097 53.2395 46.973L55.0058 47.5951Z" fill="#F6F6F6"/>
<path d="M45.81 47.7942C45.81 46.93 45.6725 46.1312 45.3975 45.3978C45.1231 44.6645 44.729 44.0356 44.2169 43.509C43.7043 42.9825 43.0833 42.5693 42.3532 42.2686C41.6221 41.9684 40.8015 41.5156 39.8909 41.5156C38.8092 41.5156 37.8652 42.0053 37.0591 42.3815C36.2531 42.7572 35.5889 43.2737 35.0674 43.9316C34.5447 44.59 34.1557 45.3648 33.8997 46.2575C33.6436 47.1502 33.5156 48.1228 33.5156 49.1748C33.5156 50.2638 33.6196 51.271 33.8287 52.1916C34.0372 53.1111 34.3932 53.9094 34.8958 54.5869C35.3989 55.2633 36.0534 55.7893 36.86 56.1644C37.6666 56.54 38.6678 56.8285 39.8629 56.8285C42.0636 56.8285 43.9228 56.1912 45.441 55.1208C45.2906 54.0318 44.9027 53.166 44.2794 52.527C43.5041 52.8182 42.8182 53.0267 42.2235 53.1548C41.6282 53.2812 41.1033 53.3449 40.65 53.3449C39.7427 53.3449 39.0898 53.114 38.6936 52.6479C38.2977 52.1833 38.0806 51.6339 38.0421 50.7993H45.4421C45.6865 50.0089 45.81 48.9407 45.81 47.7942ZM38.0139 47.9894C38.0703 47.0301 38.2453 46.0039 38.5366 45.5813C38.8284 45.1582 39.275 44.9468 39.8781 44.9468C40.4992 44.9468 40.9653 45.1716 41.2756 45.6227C41.5864 46.0738 41.7417 46.9827 41.7417 47.678L41.7423 47.9894H38.0139Z" fill="#F6F6F6"/>
<path d="M79.2069 49.8643C78.4026 50.5669 77.9358 51.5781 77.9358 52.9002V57.8237C77.9358 59.4604 77.4326 60.7052 76.2963 61.5611C75.1609 62.4157 73.8373 62.8389 72.3263 62.8796L71.4309 62.8729V60.4195C72.2202 60.1892 72.5443 59.9215 72.8585 59.6174C73.4276 59.1032 73.8636 58.2664 73.8636 57.1042V53.1293C73.8848 51.7783 73.9888 50.7196 74.4807 49.9548C74.9743 49.1901 75.9351 48.5216 77.3633 47.9442C75.7859 47.222 74.7266 46.2789 74.1866 45.1157C73.8691 44.4248 73.8629 43.4924 73.8629 42.3196V38.6745C73.8629 37.4704 73.4688 36.627 72.9842 36.1456C72.669 35.8315 72.3022 35.5805 71.4297 35.391V33.088C72.4968 33.0992 73.0357 33.0869 73.6572 33.088C74.6142 33.0802 75.4158 33.6034 76.1134 34.1484C76.8731 34.7459 77.413 35.5537 77.7294 36.5704C77.9094 37.1579 77.9351 37.7192 77.9351 38.2535V42.4694C77.9351 43.9585 78.3751 45.0654 79.1269 45.7881C79.5507 46.2074 80.1488 46.5908 81.1756 46.9369V48.8413C80.2657 49.0929 79.6944 49.4339 79.2069 49.8643Z" fill="#F6F6F6" stroke="#404040" stroke-width="0.362102" stroke-miterlimit="10"/>
<path d="M22.6033 33.0901V33.0934C22.2976 33.0917 22.0208 33.0905 21.7995 33.0911C20.8419 33.0827 20.0404 33.606 19.3434 34.1515C18.5826 34.749 17.9314 35.5289 17.7274 36.5736C17.6112 37.1862 17.6358 37.7217 17.6358 38.2567V42.4726C17.6358 43.9611 17.0818 45.0674 16.3305 45.7913C15.9073 46.2105 15.004 46.5933 13.9766 46.9394V48.8437C14.8871 49.0948 15.7637 49.4346 16.25 49.8662C17.0549 50.5694 17.6351 51.5812 17.6351 52.9031V57.8266C17.6351 59.4622 18.0253 60.7082 19.1605 61.5628C20.2959 62.417 21.619 62.8418 23.1299 62.8831L24.1411 62.8764V60.4213C23.3523 60.1905 22.9141 59.9227 22.5983 59.6197C22.0298 59.1048 21.7078 58.2686 21.7078 57.1071V53.1316C21.686 51.7795 21.468 50.7218 20.9756 49.9566C20.4831 49.193 19.5222 48.5233 18.0923 47.9465C19.6704 47.2237 20.7291 46.2812 21.2691 45.1185C21.5872 44.4271 21.7079 43.4947 21.7079 42.322V38.6768C21.7079 37.4728 21.9873 36.6293 22.4715 36.1475C22.7342 35.8859 23.2015 35.6707 23.8505 35.4963L24.8768 35.5035C24.8768 34.6201 24.8768 34.0671 24.8768 33.0898H22.6034V33.0901H22.6033Z" fill="#F6F6F6" stroke="#404040" stroke-width="0.362102" stroke-miterlimit="10"/>
<path d="M32.065 53.0636H31.2964C30.4608 53.0636 30.146 52.6243 30.146 51.7417V35.5206C30.146 34.5452 29.8643 33.8604 29.5037 33.4658C29.1431 33.0723 28.5171 33.0762 27.6255 33.0762H25.8899L25.6853 33.0723V33.089L25.6836 35.5033V52.5266C25.6836 53.8804 25.9877 54.871 26.5287 55.5015C27.0704 56.1309 27.9855 56.445 29.2756 56.445C30.1677 56.445 31.1829 56.3511 32.3209 56.1627C32.3779 55.9726 32.4065 55.5657 32.4065 54.9413C32.4065 54.3152 32.2925 53.6908 32.065 53.0636Z" fill="#F6F6F6"/>
<defs>
<radialGradient id="paint0_radial_1024_11557" cx="0" cy="0" r="1" gradientUnits="userSpaceOnUse" gradientTransform="translate(47.5761 47.8564) rotate(90) scale(47.04)">
<stop stop-color="#333944"/>
<stop offset="1" stop-color="#222428"/>
</radialGradient>
<linearGradient id="paint1_linear_1024_11557" x1="47.8216" y1="33.0898" x2="47.8216" y2="62.8831" gradientUnits="userSpaceOnUse">
<stop offset="0.1497" stop-color="#2A4F84"/>
<stop offset="0.3884" stop-color="#294E82"/>
<stop offset="1" stop-color="#172E4E"/>
</linearGradient>
</defs>
</svg>
