<svg width="95" height="95" viewBox="0 0 95 95" fill="none" xmlns="http://www.w3.org/2000/svg">
<rect x="0.903445" y="0.777469" width="92.736" height="92.736" rx="13.44" fill="url(#paint0_radial_1024_11544)"/>
<rect x="0.903445" y="0.777469" width="92.736" height="92.736" rx="13.44" stroke="#6886C3" stroke-width="1.344"/>
<path fill-rule="evenodd" clip-rule="evenodd" d="M77.5805 32.5621L77.8548 33.2021C79.8662 37.6363 80.8719 42.2992 80.8719 47.1449C80.8719 65.6592 65.7861 80.7449 47.2719 80.7449C28.7576 80.7449 13.6719 65.6592 13.6719 47.1449C13.6719 28.6306 28.7576 13.5449 47.2719 13.5449C52.7119 13.5449 57.8775 14.8249 62.6319 17.2021L63.2718 17.5221L62.7233 17.9792C61.352 19.0763 60.3005 20.4478 59.6148 22.0478L59.4319 22.5049L59.0205 22.3221C55.3176 20.5849 51.3862 19.6706 47.2719 19.6706C32.0947 19.6706 19.7976 31.9678 19.7976 47.1449C19.7976 62.322 32.0947 74.6192 47.2719 74.6192C62.449 74.6192 74.7462 62.2763 74.7462 47.1449C74.7462 43.5336 74.0605 39.9678 72.6432 36.6306L72.4605 36.1735L72.9175 35.9906C74.5175 35.3963 75.9803 34.3906 77.1234 33.1106L77.5805 32.5621ZM69.2603 33.2021C73.1233 33.2021 76.2548 30.0707 76.2548 26.2078C76.2548 22.345 73.1233 19.2135 69.2603 19.2135C65.3976 19.2135 62.2661 22.345 62.2661 26.2078C62.2661 30.0707 65.3976 33.2021 69.2603 33.2021ZM47.2717 31.8308C38.8145 31.8308 31.9574 38.6878 31.9574 47.1451C31.9574 55.6022 38.8145 62.4594 47.2717 62.4594C55.7288 62.4594 62.5859 55.6022 62.5859 47.1451C62.5859 38.6878 55.7288 31.8308 47.2717 31.8308Z" fill="#3880FF"/>
<defs>
<radialGradient id="paint0_radial_1024_11544" cx="0" cy="0" r="1" gradientUnits="userSpaceOnUse" gradientTransform="translate(47.2714 47.1455) rotate(90) scale(47.04)">
<stop stop-color="#333944"/>
<stop offset="1" stop-color="#222428"/>
</radialGradient>
</defs>
</svg>
