<svg width="95" height="96" viewBox="0 0 95 96" fill="none" xmlns="http://www.w3.org/2000/svg">
<rect x="0.783328" y="1.64075" width="92.736" height="92.736" rx="13.44" fill="url(#paint0_radial_1024_11471)"/>
<rect x="0.783328" y="1.64075" width="92.736" height="92.736" rx="13.44" stroke="#6886C3" stroke-width="1.344"/>
<g clip-path="url(#clip0_1024_11471)">
<path d="M47.1516 64.8031C56.4299 64.8031 63.9516 57.2815 63.9516 48.0031C63.9516 38.7247 56.4299 31.2031 47.1516 31.2031C37.8732 31.2031 30.3516 38.7247 30.3516 48.0031C30.3516 57.2815 37.8732 64.8031 47.1516 64.8031Z" fill="white"/>
<path d="M47.1505 31.2083H76.2442C73.296 26.1002 69.055 21.8584 63.9475 18.9093C58.84 15.9602 53.046 14.4078 47.1482 14.4082C41.2505 14.4086 35.4567 15.9618 30.3497 18.9116C25.2426 21.8614 21.0021 26.1038 18.0547 31.2123L32.6015 56.4083L32.6145 56.4049C31.1347 53.8531 30.3538 50.9562 30.3505 48.0064C30.3472 45.0565 31.1216 42.158 32.5957 39.6028C34.0697 37.0477 36.1913 34.9263 38.7466 33.4525C41.3019 31.9787 44.2006 31.2046 47.1505 31.2083Z" fill="url(#paint1_linear_1024_11471)"/>
<path d="M47.1506 61.309C54.496 61.309 60.4506 55.3544 60.4506 48.009C60.4506 40.6636 54.496 34.709 47.1506 34.709C39.8052 34.709 33.8506 40.6636 33.8506 48.009C33.8506 55.3544 39.8052 61.309 47.1506 61.309Z" fill="#1A73E8"/>
<path d="M61.6993 56.4146L47.1525 81.6105C53.0503 81.6113 58.8443 80.0593 63.952 77.1106C69.0597 74.1619 73.301 69.9204 76.2495 64.8126C79.198 59.7047 80.7498 53.9107 80.7487 48.0129C80.7477 42.1151 79.1938 36.3216 76.2435 31.2148H47.15L47.1465 31.2279C50.0963 31.2222 52.9956 31.9943 55.5519 33.4663C58.1082 34.9383 60.2313 37.0583 61.7071 39.6124C63.1828 42.1666 63.9592 45.0647 63.9578 48.0145C63.9565 50.9644 63.1775 53.8618 61.6993 56.4146Z" fill="url(#paint2_linear_1024_11471)"/>
<path d="M32.6034 56.4127L18.0566 31.2168C15.1069 36.324 13.5539 42.1178 13.5537 48.0155C13.5535 53.9133 15.1061 59.7072 18.0553 64.8146C21.0046 69.922 25.2465 74.163 30.3547 77.1109C35.4628 80.0589 41.2571 81.6101 47.1549 81.6084L61.7017 56.4125L61.6923 56.4029C60.2223 58.9604 58.104 61.0851 55.551 62.5629C52.998 64.0407 50.1005 64.8193 47.1507 64.8203C44.2008 64.8213 41.3029 64.0446 38.7489 62.5686C36.1949 61.0925 34.0752 58.9692 32.6034 56.4127Z" fill="url(#paint3_linear_1024_11471)"/>
</g>
<defs>
<radialGradient id="paint0_radial_1024_11471" cx="0" cy="0" r="1" gradientUnits="userSpaceOnUse" gradientTransform="translate(47.1513 48.0088) rotate(90) scale(47.04)">
<stop stop-color="#333944"/>
<stop offset="1" stop-color="#222428"/>
</radialGradient>
<linearGradient id="paint1_linear_1024_11471" x1="18.0547" y1="35.4083" x2="76.2442" y2="35.4083" gradientUnits="userSpaceOnUse">
<stop stop-color="#D93025"/>
<stop offset="1" stop-color="#EA4335"/>
</linearGradient>
<linearGradient id="paint2_linear_1024_11471" x1="42.5622" y1="81.1612" x2="71.657" y2="30.7677" gradientUnits="userSpaceOnUse">
<stop stop-color="#FCC934"/>
<stop offset="1" stop-color="#FBBC04"/>
</linearGradient>
<linearGradient id="paint3_linear_1024_11471" x1="50.7887" y1="79.5105" x2="21.6939" y2="29.1168" gradientUnits="userSpaceOnUse">
<stop stop-color="#1E8E3E"/>
<stop offset="1" stop-color="#34A853"/>
</linearGradient>
<clipPath id="clip0_1024_11471">
<rect width="67.2" height="67.2" fill="white" transform="translate(13.5508 14.4082)"/>
</clipPath>
</defs>
</svg>
