<svg width="95" height="96" viewBox="0 0 95 96" fill="none" xmlns="http://www.w3.org/2000/svg">
<rect x="1.19251" y="1.62512" width="92.736" height="92.736" rx="13.44" fill="url(#paint0_radial_1024_11627)"/>
<rect x="1.19251" y="1.62512" width="92.736" height="92.736" rx="13.44" stroke="#6886C3" stroke-width="1.344"/>
<g clip-path="url(#clip0_1024_11627)">
<path d="M73.2716 36.5156C73.2716 32.5594 72.2355 28.8504 70.4104 25.636C65.5711 20.6553 55.0445 19.5014 52.4306 25.6124C49.746 31.8765 56.9403 38.8471 60.0841 38.2936C64.0875 37.5871 59.3776 28.4029 59.3776 28.4029C65.5004 39.9421 64.0875 36.4097 53.0193 47.0068C41.9512 57.6039 30.6476 79.9639 28.9992 80.9059C28.9285 80.953 28.8579 80.9883 28.7754 81.0236H72.1884C72.9537 81.0236 73.4483 80.2112 73.1068 79.5283L61.7561 57.0623C61.5088 56.5795 61.6854 55.979 62.1564 55.7082C68.7973 51.8933 73.2716 44.7343 73.2716 36.5156Z" fill="url(#paint1_linear_1024_11627)"/>
<path d="M73.2716 36.5156C73.2716 32.5594 72.2355 28.8504 70.4104 25.636C65.5711 20.6553 55.0445 19.5014 52.4306 25.6124C49.746 31.8765 56.9403 38.8471 60.0841 38.2936C64.0875 37.5871 59.3776 28.4029 59.3776 28.4029C65.5004 39.9421 64.0875 36.4097 53.0193 47.0068C41.9512 57.6039 30.6476 79.9639 28.9992 80.9059C28.9285 80.953 28.8579 80.9883 28.7754 81.0236H72.1884C72.9537 81.0236 73.4483 80.2112 73.1068 79.5283L61.7561 57.0623C61.5088 56.5795 61.6854 55.979 62.1564 55.7082C68.7973 51.8933 73.2716 44.7343 73.2716 36.5156Z" fill="url(#paint2_linear_1024_11627)"/>
<path d="M28.9994 80.9034C30.6479 79.9614 41.9515 57.5897 53.0196 46.9926C64.0877 36.3954 65.5007 39.9278 59.3779 28.3887C59.3779 28.3887 35.9465 61.2398 27.4688 77.4888" fill="url(#paint3_linear_1024_11627)"/>
<path d="M32.2953 51.4688C48.1204 22.3738 50.1926 19.4419 58.4349 19.4419C62.7679 19.4419 67.1363 21.3965 69.9622 24.87C66.1119 18.6648 59.2944 14.5084 51.4878 14.3906H24.6065C24.0413 14.3906 23.582 14.8498 23.582 15.415V69.6017C25.1834 65.4688 27.9033 59.558 32.2953 51.4688Z" fill="url(#paint4_linear_1024_11627)"/>
<path d="M53.019 46.9939C41.9508 57.5911 30.6472 79.9628 28.9988 80.9048C27.3503 81.8468 24.5833 81.9645 23.1114 80.3161C21.5454 78.5616 19.1081 75.7239 32.2957 51.4683C48.1207 22.3733 50.193 19.4414 58.4353 19.4414C62.7683 19.4414 67.1367 21.396 69.9626 24.8695C70.1157 25.1168 70.2687 25.3758 70.4218 25.6348C65.5824 20.6542 55.056 19.5003 52.442 25.6113C49.7573 31.8754 56.9517 38.8459 60.0955 38.2925C64.0988 37.5861 59.389 28.4019 59.389 28.4019C65.5 39.9292 64.0871 36.3968 53.019 46.9939Z" fill="url(#paint5_linear_1024_11627)"/>
<path opacity="0.3" d="M33.5909 52.7636C49.4159 23.6685 51.4882 20.7366 59.7305 20.7366C63.2981 20.7366 66.8894 22.0671 69.6212 24.4692C66.7952 21.2429 62.6035 19.4414 58.4353 19.4414C50.193 19.4414 48.1207 22.3733 32.2957 51.4683C19.1081 75.7239 21.5454 78.5616 23.1114 80.3161C23.3352 80.5634 23.5942 80.7753 23.865 80.9519C22.4874 78.9502 21.8751 74.2992 33.5909 52.7636Z" fill="url(#paint6_linear_1024_11627)"/>
</g>
<defs>
<radialGradient id="paint0_radial_1024_11627" cx="0" cy="0" r="1" gradientUnits="userSpaceOnUse" gradientTransform="translate(47.5605 47.9931) rotate(90) scale(47.04)">
<stop stop-color="#333944"/>
<stop offset="1" stop-color="#222428"/>
</radialGradient>
<linearGradient id="paint1_linear_1024_11627" x1="40.7112" y1="50.1802" x2="58.8441" y2="54.4191" gradientUnits="userSpaceOnUse">
<stop stop-color="#FF6533"/>
<stop offset="0.157" stop-color="#FF5633"/>
<stop offset="0.434" stop-color="#FF4333"/>
<stop offset="0.714" stop-color="#FF3733"/>
<stop offset="1" stop-color="#FF3333"/>
</linearGradient>
<linearGradient id="paint2_linear_1024_11627" x1="37.8751" y1="44.1694" x2="70.3731" y2="69.367" gradientUnits="userSpaceOnUse">
<stop stop-color="#BF3338"/>
<stop offset="1" stop-color="#FF3333"/>
</linearGradient>
<linearGradient id="paint3_linear_1024_11627" x1="38.9355" y1="49.1304" x2="43.6454" y2="54.0757" gradientUnits="userSpaceOnUse">
<stop stop-color="#FF6533"/>
<stop offset="0.157" stop-color="#FF5633"/>
<stop offset="0.434" stop-color="#FF4333"/>
<stop offset="0.714" stop-color="#FF3733"/>
<stop offset="1" stop-color="#FF3333"/>
</linearGradient>
<linearGradient id="paint4_linear_1024_11627" x1="47.4976" y1="57.6454" x2="46.0846" y2="37.3931" gradientUnits="userSpaceOnUse">
<stop stop-color="#FF6533"/>
<stop offset="0.157" stop-color="#FF5633"/>
<stop offset="0.434" stop-color="#FF4333"/>
<stop offset="0.714" stop-color="#FF3733"/>
<stop offset="1" stop-color="#FF3333"/>
</linearGradient>
<linearGradient id="paint5_linear_1024_11627" x1="41.3768" y1="48.7847" x2="48.0669" y2="53.3341" gradientUnits="userSpaceOnUse">
<stop stop-color="#FBB040"/>
<stop offset="1" stop-color="#FB8840"/>
</linearGradient>
<linearGradient id="paint6_linear_1024_11627" x1="48.2306" y1="23.063" x2="41.4013" y2="98.185" gradientUnits="userSpaceOnUse">
<stop stop-color="white"/>
<stop offset="1" stop-color="white" stop-opacity="0"/>
</linearGradient>
<clipPath id="clip0_1024_11627">
<rect width="67.2" height="67.2" fill="white" transform="translate(13.9609 14.3906)"/>
</clipPath>
</defs>
</svg>
