<svg width="96" height="95" viewBox="0 0 96 95" fill="none" xmlns="http://www.w3.org/2000/svg">
<rect x="1.63196" y="1.33606" width="92.736" height="92.736" rx="13.44" fill="url(#paint0_radial_1024_11643)"/>
<rect x="1.63196" y="1.33606" width="92.736" height="92.736" rx="13.44" stroke="#6886C3" stroke-width="1.344"/>
<path d="M23.2055 76.0283L21.1223 20.5548C21.0908 19.6738 21.4049 18.8153 21.9974 18.1625C22.59 17.5097 23.4141 17.1142 24.2941 17.0604L71.4684 14.1104C71.9293 14.081 72.3914 14.1464 72.826 14.3027C73.2606 14.4589 73.6585 14.7027 73.9952 15.0189C74.3318 15.3351 74.6001 15.717 74.7832 16.1409C74.9664 16.5649 75.0607 17.0219 75.0602 17.4838V77.9267C75.0598 78.383 74.9669 78.8345 74.7873 79.254C74.6076 79.6735 74.3449 80.0523 74.0149 80.3675C73.685 80.6827 73.2946 80.9279 72.8673 81.0881C72.44 81.2484 71.9848 81.3205 71.5289 81.3001L26.4311 79.2741C25.5838 79.2359 24.7819 78.8806 24.1844 78.2788C23.5869 77.6769 23.2375 76.8758 23.2055 76.0283Z" fill="#FF4785"/>
<path fill-rule="evenodd" clip-rule="evenodd" d="M67.7599 14.3418L61.2684 14.745L60.9525 22.3621C60.9487 22.4574 60.9719 22.5518 61.0196 22.6345C61.0673 22.7171 61.1374 22.7845 61.2218 22.8288C61.3063 22.8731 61.4016 22.8926 61.4967 22.8849C61.5917 22.8773 61.6827 22.8428 61.7589 22.7855L64.7157 20.541L67.2156 22.5099C67.291 22.5697 67.382 22.6066 67.4778 22.6162C67.5736 22.6259 67.6701 22.6079 67.756 22.5644C67.8419 22.521 67.9135 22.4538 67.9624 22.3709C68.0113 22.288 68.0355 22.1928 68.032 22.0967L67.7599 14.3418ZM62.7065 39.8441C61.5204 40.7681 52.6634 41.3965 52.6634 40.0827C52.8516 35.0662 50.6071 34.8478 49.3572 34.8478C48.1745 34.8478 46.1786 35.204 46.1786 37.892C46.1786 40.6304 49.0951 42.176 52.519 43.9904C57.3809 46.5675 63.2709 49.6889 63.2709 57.5379C63.2709 65.0642 57.1557 69.2172 49.3606 69.2172C41.3134 69.2172 34.2809 65.9613 35.0739 54.6751C35.3864 53.3513 45.6175 53.6671 45.6175 54.6751C45.4899 59.3321 46.5516 60.703 49.2329 60.703C51.2926 60.703 52.2266 59.5673 52.2266 57.6588C52.2266 54.7659 49.1892 53.059 45.6914 51.0967C40.9572 48.439 35.3864 45.3108 35.3864 38.1305C35.3864 30.967 40.3121 26.1891 49.1086 26.1891C57.905 26.1891 62.7065 30.8931 62.7065 39.8441Z" fill="white"/>
<defs>
<radialGradient id="paint0_radial_1024_11643" cx="0" cy="0" r="1" gradientUnits="userSpaceOnUse" gradientTransform="translate(48 47.7041) rotate(90) scale(47.04)">
<stop stop-color="#333944"/>
<stop offset="1" stop-color="#222428"/>
</radialGradient>
</defs>
</svg>
