<svg width="95" height="95" viewBox="0 0 95 95" fill="none" xmlns="http://www.w3.org/2000/svg">
<rect x="1.36048" y="1.33606" width="92.736" height="92.736" rx="13.44" fill="url(#paint0_radial_1024_11637)"/>
<rect x="1.36048" y="1.33606" width="92.736" height="92.736" rx="13.44" stroke="#6886C3" stroke-width="1.344"/>
<path fill-rule="evenodd" clip-rule="evenodd" d="M14.4624 38.7198L28.1185 20.1823C28.2581 19.9931 28.4355 19.8349 28.6392 19.7176C28.843 19.6004 29.0689 19.5265 29.3026 19.5008L47.542 17.4732C47.6665 17.4594 47.7922 17.4594 47.9168 17.4732L66.1562 19.4986C66.3899 19.5244 66.6157 19.5982 66.8195 19.7155C67.0233 19.8328 67.2006 19.991 67.3403 20.1802L80.9985 38.7198C81.227 39.031 81.343 39.4106 81.3275 39.7964C81.3121 40.1822 81.166 40.5513 80.9133 40.8432L48.6984 78.0971C48.5785 78.236 48.43 78.3473 48.2632 78.4237C48.0963 78.5 47.915 78.5395 47.7315 78.5395C47.548 78.5395 47.3667 78.5 47.1999 78.4237C47.033 78.3473 46.8846 78.236 46.7646 78.0971L14.5433 40.8432C14.291 40.551 14.1453 40.1818 14.1302 39.796C14.1151 39.4103 14.2315 39.0308 14.4603 38.7198H14.4624ZM52.4277 22.9531L65.3064 35.1184C65.4312 35.2366 65.5888 35.3143 65.7586 35.3413C65.9284 35.3683 66.1024 35.3432 66.2577 35.2695C66.413 35.1958 66.5423 35.0768 66.6287 34.9282C66.7151 34.7796 66.7546 34.6083 66.7418 34.4368L66.1242 25.8028C66.1156 25.6971 66.1466 25.5921 66.2112 25.5081C66.2759 25.4241 66.3695 25.3673 66.4739 25.3486C66.5782 25.33 66.6857 25.3509 66.7755 25.4073C66.8652 25.4637 66.9307 25.5516 66.9591 25.6537L69.7832 35.5401C69.8782 35.873 70.053 36.1777 70.2924 36.4278C70.5317 36.6779 70.8285 36.8659 71.1569 36.9755L77.1841 38.9839C77.2803 39.0155 77.362 39.0803 77.4147 39.1667C77.4674 39.2531 77.4877 39.3555 77.4718 39.4554C77.4559 39.5554 77.4049 39.6464 77.328 39.7122C77.2511 39.778 77.1533 39.8143 77.0521 39.8145H71.2591C70.9011 39.8147 70.5489 39.9052 70.2351 40.0775C69.9213 40.2499 69.656 40.4986 69.4637 40.8006L53.6736 65.6124C53.5852 65.7478 53.4488 65.8446 53.2919 65.8834C53.135 65.9222 52.9692 65.9001 52.8279 65.8215C52.6866 65.7429 52.5804 65.6137 52.5307 65.4599C52.4809 65.3061 52.4913 65.1391 52.5597 64.9926L63.8773 41.6504C63.9719 41.4555 64.0154 41.2398 64.0037 41.0236C63.9921 40.8073 63.9256 40.5975 63.8106 40.414C63.6957 40.2304 63.5359 40.0791 63.3464 39.9743C63.1569 39.8694 62.9438 39.8144 62.7272 39.8145H32.7316C32.515 39.8144 32.3019 39.8694 32.1124 39.9743C31.9229 40.0791 31.7631 40.2304 31.6482 40.414C31.5332 40.5975 31.4667 40.8073 31.4551 41.0236C31.4434 41.2398 31.4869 41.4555 31.5815 41.6504L42.8991 64.9926C42.9702 65.1394 42.9825 65.3077 42.9335 65.4633C42.8845 65.6188 42.7779 65.7497 42.6356 65.8292C42.4932 65.9086 42.3258 65.9307 42.1678 65.8908C42.0097 65.8509 41.8728 65.7521 41.7852 65.6145L25.9951 40.8027C25.8029 40.5 25.5374 40.2507 25.2231 40.078C24.9089 39.9052 24.5562 39.8146 24.1976 39.8145H18.2278C18.1266 39.8143 18.0288 39.778 17.9519 39.7122C17.875 39.6464 17.824 39.5554 17.8081 39.4554C17.7922 39.3555 17.8124 39.2531 17.8652 39.1667C17.9179 39.0803 17.9996 39.0155 18.0958 38.9839L24.2892 36.9713C24.621 36.8631 24.9213 36.6751 25.1634 36.4237C25.4056 36.1722 25.5822 35.8651 25.6778 35.5294L28.4997 25.6537C28.5281 25.5516 28.5936 25.4637 28.6833 25.4073C28.7731 25.3509 28.8806 25.33 28.9849 25.3486C29.0893 25.3673 29.1829 25.4241 29.2476 25.5081C29.3122 25.5921 29.3432 25.6971 29.3346 25.8028L28.7169 34.4368C28.7042 34.6083 28.7436 34.7796 28.8301 34.9282C28.9165 35.0768 29.0458 35.1958 29.2011 35.2695C29.3564 35.3432 29.5304 35.3683 29.7002 35.3413C29.87 35.3143 30.0276 35.2366 30.1524 35.1184L43.0311 22.9531C43.1089 22.8746 43.2143 22.8293 43.3248 22.827C43.4354 22.8247 43.5425 22.8654 43.6236 22.9407C43.7046 23.0159 43.7532 23.1197 43.7591 23.2302C43.765 23.3406 43.7277 23.449 43.6551 23.5324L35.0147 34.1664C34.9133 34.2913 34.8494 34.4423 34.8304 34.602C34.8113 34.7618 34.8378 34.9236 34.9069 35.0689C34.976 35.2141 35.0847 35.3369 35.2206 35.4229C35.3566 35.5089 35.5141 35.5547 35.6749 35.555H59.7839C59.9447 35.5547 60.1022 35.5089 60.2381 35.4229C60.3741 35.3369 60.4828 35.2141 60.5519 35.0689C60.621 34.9236 60.6475 34.7618 60.6284 34.602C60.6094 34.4423 60.5455 34.2913 60.4441 34.1664L51.8036 23.5324C51.7311 23.449 51.6938 23.3406 51.6997 23.2302C51.7056 23.1197 51.7542 23.0159 51.8352 22.9407C51.9163 22.8654 52.0234 22.8247 52.134 22.827C52.2445 22.8293 52.3498 22.8746 52.4277 22.9531V22.9531Z" fill="white"/>
<defs>
<radialGradient id="paint0_radial_1024_11637" cx="0" cy="0" r="1" gradientUnits="userSpaceOnUse" gradientTransform="translate(47.7285 47.7041) rotate(90) scale(47.04)">
<stop stop-color="#333944"/>
<stop offset="1" stop-color="#222428"/>
</radialGradient>
</defs>
</svg>
