<svg width="95" height="96" viewBox="0 0 95 96" fill="none" xmlns="http://www.w3.org/2000/svg">
<rect x="1.32825" y="1.64075" width="92.736" height="92.736" rx="13.44" fill="url(#paint0_radial_1024_11483)"/>
<rect x="1.32825" y="1.64075" width="92.736" height="92.736" rx="13.44" stroke="#6886C3" stroke-width="1.344"/>
<path d="M77.3273 33.9705C77.3269 32.8517 77.0876 31.863 76.6037 31.0148C76.1284 30.1802 75.4165 29.4809 74.4617 28.9279C66.5803 24.3834 58.6912 19.8528 50.8122 15.3037C48.6881 14.0774 46.6286 14.1223 44.5203 15.3662C41.3832 17.2161 25.677 26.2145 20.9968 28.9254C19.0693 30.0414 18.1314 31.7491 18.1309 33.9684C18.1279 43.1077 18.1309 52.2469 18.1279 61.3862C18.1279 62.4805 18.3575 63.4501 18.8201 64.2856C19.2956 65.1452 20.0174 65.8638 20.9942 66.4292C25.6747 69.1401 41.383 78.1378 44.5193 79.9884C46.6286 81.233 48.6881 81.2774 50.8129 80.0509C58.6921 75.5015 66.5817 70.9709 74.4643 66.4264C75.4411 65.8612 76.1629 65.1422 76.6384 64.2833C77.1003 63.4476 77.3303 62.4782 77.3303 61.3837C77.3303 61.3837 77.3303 43.11 77.3273 33.9705Z" fill="#A179DC"/>
<path d="M47.82 47.5879L18.8203 64.2853C19.2959 65.1449 20.0176 65.8634 20.9945 66.4289C25.6749 69.1397 41.3832 78.1374 44.5196 79.988C46.6289 81.2326 48.6884 81.2771 50.8132 80.0506C58.6923 75.5012 66.5819 70.9706 74.4645 66.4261C75.4414 65.8609 76.1631 65.1419 76.6387 64.283L47.82 47.5879Z" fill="#280068"/>
<path d="M77.328 33.9733C77.3275 32.8545 77.0882 31.8658 76.6043 31.0176L47.8203 47.5913L76.6391 64.2862C77.101 63.4504 77.3305 62.481 77.331 61.3865C77.331 61.3865 77.331 43.1128 77.328 33.9733" fill="#390091"/>
<path d="M64.8933 41.3477V44.4687H68.0144V41.3477H69.575V44.4687H72.6961V46.0293H69.575V49.1501H72.6961V50.7107H69.575V53.8318H68.0144V50.7107H64.8933V53.8318H63.3328V50.7107H60.2119V49.1501H63.3328V46.0293H60.2119V44.4687H63.3328V41.3477H64.8933ZM68.0144 46.0291H64.8933V49.1501H68.0144V46.0291Z" fill="white"/>
<path d="M47.8828 25.6741C56.0234 25.6741 63.1308 30.0951 66.9377 36.6667L66.9007 36.6034L57.3225 42.1183C55.4355 38.9233 51.9763 36.767 48.0076 36.7225L47.8825 36.7218C41.831 36.7218 36.9249 41.6279 36.9249 47.6794C36.9229 49.5868 37.4212 51.4614 38.3701 53.116C40.2589 56.4134 43.8096 58.6373 47.8828 58.6373C51.9811 58.6373 55.5521 56.3851 57.4311 53.0525L57.3855 53.1324L66.9491 58.6728C63.1838 65.1887 56.1738 69.5961 48.1278 69.6839L47.8828 69.6853C39.7164 69.6853 32.5889 65.2369 28.7914 58.6306C26.9376 55.4055 25.877 51.6666 25.877 47.6794C25.877 35.5263 35.729 25.6738 47.8825 25.6738L47.8828 25.6741Z" fill="white"/>
<defs>
<radialGradient id="paint0_radial_1024_11483" cx="0" cy="0" r="1" gradientUnits="userSpaceOnUse" gradientTransform="translate(47.6963 48.0088) rotate(90) scale(47.04)">
<stop stop-color="#333944"/>
<stop offset="1" stop-color="#222428"/>
</radialGradient>
</defs>
</svg>
