<svg width="95" height="96" viewBox="0 0 95 96" fill="none" xmlns="http://www.w3.org/2000/svg">
<rect x="0.752078" y="1.62512" width="92.736" height="92.736" rx="13.44" fill="url(#paint0_radial_1024_11632)"/>
<rect x="0.752078" y="1.62512" width="92.736" height="92.736" rx="13.44" stroke="#6886C3" stroke-width="1.344"/>
<path fill-rule="evenodd" clip-rule="evenodd" d="M25.6787 39.3956C26.2649 40.2035 31.2077 41.7276 38.5807 43.315C45.9537 44.7281 53.6214 50.3078 59.5845 48.5873C63.6179 47.4213 67.9936 37.0319 67.9936 35.4889V35.3304C67.9936 34.2531 67.1856 33.3882 65.8137 32.6689C60.1896 29.7951 59.125 28.7368 57.0402 29.3103C46.2167 32.2982 27.1077 30.771 25.6787 39.3956Z" fill="#380D09"/>
<path fill-rule="evenodd" clip-rule="evenodd" d="M25.6787 60.4911C26.2649 61.3117 31.2077 62.823 38.5807 64.4136C46.8187 65.9155 53.9826 70.8107 59.9488 69.0871C63.9823 67.9211 67.9936 58.1306 67.9936 56.5843V56.4323C67.9936 55.3581 67.1856 54.49 65.8137 53.7739C61.5236 51.4926 55.8552 48.98 53.7735 49.5535C42.931 52.535 28.4384 53.1909 25.6787 60.4911Z" fill="#380D09"/>
<path fill-rule="evenodd" clip-rule="evenodd" d="M25.6187 43.9297V44.0818C25.6154 44.0311 25.6154 43.9803 25.6187 43.9297Z" fill="#555555"/>
<path fill-rule="evenodd" clip-rule="evenodd" d="M59.9327 18.4704C49.9647 21.3505 34.1509 22.976 25.6309 22.976V39.246C25.6336 39.302 25.6547 39.3555 25.6911 39.3981C31.5052 39.3981 49.4546 37.497 60.2844 34.5187C62.1731 34.038 64.025 33.4228 65.826 32.6778C67.1504 32.0821 68.0059 31.4548 68.0059 30.8021V14.3926C67.9932 15.9388 63.9661 17.3076 59.9327 18.4704Z" fill="#DE3423"/>
<path fill-rule="evenodd" clip-rule="evenodd" d="M59.9327 39.57C53.9664 41.2905 45.9154 42.5705 38.5804 43.3183C33.6566 43.8221 29.056 44.0851 25.6309 44.0851V60.3425C25.6336 60.3984 25.6547 60.4519 25.6911 60.4945C31.5052 60.4945 49.4546 58.5935 60.2844 55.6183C62.1727 55.1361 64.0245 54.521 65.826 53.7774C67.1504 53.1786 68.0059 52.5544 68.0059 51.9017V35.4922C67.9932 37.0352 63.9661 38.404 59.9327 39.57Z" fill="#DE3423"/>
<path fill-rule="evenodd" clip-rule="evenodd" d="M59.9336 60.6796C53.9674 62.4001 45.9163 63.677 38.5813 64.4279C33.6512 64.9317 29.0443 65.1947 25.6191 65.1947V81.5915C31.3731 81.5915 49.4143 79.7062 60.2726 76.7152C64.2744 75.6126 67.9942 74.3579 67.9942 72.9954V56.5859C67.9942 58.1448 63.9671 59.5009 59.9336 60.6796Z" fill="#DE3423"/>
<defs>
<radialGradient id="paint0_radial_1024_11632" cx="0" cy="0" r="1" gradientUnits="userSpaceOnUse" gradientTransform="translate(47.1201 47.9931) rotate(90) scale(47.04)">
<stop stop-color="#333944"/>
<stop offset="1" stop-color="#222428"/>
</radialGradient>
</defs>
</svg>
