<svg width="95" height="95" viewBox="0 0 95 95" fill="none" xmlns="http://www.w3.org/2000/svg">
<rect x="1.49622" y="1.06458" width="92.736" height="92.736" rx="13.44" fill="url(#paint0_radial_1024_11514)"/>
<rect x="1.49622" y="1.06458" width="92.736" height="92.736" rx="13.44" stroke="#6886C3" stroke-width="1.344"/>
<path d="M47.8646 13.832C29.3067 13.832 14.2646 28.8741 14.2646 47.432C14.2646 65.99 29.3067 81.032 47.8646 81.032C66.4226 81.032 81.4646 65.99 81.4646 47.432C81.4646 28.8741 66.4226 13.832 47.8646 13.832ZM21.4846 47.7815L47.5152 73.8121C33.2204 73.6266 21.6701 62.0763 21.4846 47.7815ZM53.7702 73.1535L22.1432 41.5265C24.8258 29.7988 35.3224 21.0466 47.8646 21.0466C56.6302 21.0466 64.3985 25.3232 69.1966 31.9035L65.5436 35.1264C61.6514 29.5461 55.1841 25.8931 47.8646 25.8931C38.5454 25.8931 30.6077 31.8121 27.6079 40.0965L55.2002 67.6861C61.9014 65.2588 67.0543 59.6033 68.78 52.5984H57.3452V47.432H74.2527C74.2501 59.9742 65.4979 70.4709 53.7702 73.1535Z" fill="#744C9E"/>
<defs>
<radialGradient id="paint0_radial_1024_11514" cx="0" cy="0" r="1" gradientUnits="userSpaceOnUse" gradientTransform="translate(47.8642 47.4326) rotate(90) scale(47.04)">
<stop stop-color="#333944"/>
<stop offset="1" stop-color="#222428"/>
</radialGradient>
</defs>
</svg>
