<svg width="96" height="95" viewBox="0 0 96 95" fill="none" xmlns="http://www.w3.org/2000/svg">
<rect x="1.61536" y="0.929812" width="92.736" height="92.736" rx="13.44" fill="url(#paint0_radial_1024_11461)"/>
<rect x="1.61536" y="0.929812" width="92.736" height="92.736" rx="13.44" stroke="#6886C3" stroke-width="1.344"/>
<path d="M14.3838 72.2324C14.3838 77.0183 18.2633 80.8973 23.0487 80.8973H72.9187C77.7048 80.8973 81.5838 77.0178 81.5838 72.2324V22.3624C81.5838 17.5762 77.7043 13.6973 72.9189 13.6973H23.0489C18.2628 13.6973 14.3838 17.5768 14.3838 22.3621V72.2321V72.2324Z" fill="#563D7C"/>
<path d="M42.2505 43.4218V33.9054H50.6272C51.4252 33.9054 52.1943 33.9719 52.9351 34.1049C53.6759 34.2378 54.3313 34.4751 54.9012 34.8171C55.4708 35.1591 55.9268 35.634 56.2688 36.2417C56.6106 36.8496 56.7818 37.6285 56.7818 38.5779C56.7818 40.2876 56.2688 41.5224 55.243 42.2821C54.2174 43.042 52.9067 43.4218 51.311 43.4218H42.2505V43.4218ZM33.3037 26.9531V67.6406H53.0207C54.8443 67.6406 56.6203 67.4128 58.3489 66.9568C60.0775 66.5008 61.616 65.7981 62.9647 64.8484C64.3132 63.8987 65.3865 62.6733 66.1843 61.1729C66.9823 59.6722 67.381 57.8961 67.381 55.8447C67.381 53.2992 66.7636 51.1244 65.5291 49.32C64.2943 47.5153 62.4232 46.2521 59.9158 45.5302C61.7394 44.6566 63.1167 43.5358 64.0475 42.1681C64.9781 40.8005 65.4435 39.0911 65.4435 37.0394C65.4435 35.14 65.1301 33.5445 64.5032 32.2527C63.8764 30.9612 62.9931 29.9259 61.8533 29.1471C60.7138 28.3683 59.3461 27.8078 57.7504 27.466C56.1549 27.124 54.3883 26.9531 52.4508 26.9531H33.3037V26.9531ZM42.2505 60.6883V49.5192H51.9948C53.9323 49.5192 55.49 49.9654 56.6678 50.8585C57.8454 51.7512 58.4345 53.2422 58.4345 55.3317C58.4345 56.3956 58.2539 57.2692 57.8929 57.9531C57.532 58.6369 57.0477 59.1784 56.4397 59.5771C55.832 59.9761 55.1291 60.261 54.3313 60.4321C53.5333 60.6027 52.6978 60.6883 51.8239 60.6883H42.2505V60.6883Z" fill="white"/>
<defs>
<radialGradient id="paint0_radial_1024_11461" cx="0" cy="0" r="1" gradientUnits="userSpaceOnUse" gradientTransform="translate(47.9834 47.2978) rotate(90) scale(47.04)">
<stop stop-color="#333944"/>
<stop offset="1" stop-color="#222428"/>
</radialGradient>
</defs>
</svg>
