<svg width="95" height="95" viewBox="0 0 95 95" fill="none" xmlns="http://www.w3.org/2000/svg">
<rect x="1.47962" y="1.35169" width="92.736" height="92.736" rx="13.44" fill="url(#paint0_radial_1024_11500)"/>
<rect x="1.47962" y="1.35169" width="92.736" height="92.736" rx="13.44" stroke="#6886C3" stroke-width="1.344"/>
<path fill-rule="evenodd" clip-rule="evenodd" d="M50.0395 14.2754C45.1035 16.0269 40.486 21.1221 35.8685 29.4018C29.0218 41.9805 20.2645 59.8137 32.3655 73.9847C37.9384 80.5129 47.3327 84.3343 59.4337 78.2838C69.1465 73.3478 72.0125 59.1768 68.3503 52.6486C61.026 38.9552 53.7017 35.6115 51.791 27.1726C50.5172 21.4405 49.8803 17.1414 50.0395 14.2754Z" fill="url(#paint1_linear_1024_11500)"/>
<path fill-rule="evenodd" clip-rule="evenodd" d="M50.0395 14.1191C45.1035 15.8706 40.3268 20.9658 35.8685 29.2455C29.0218 41.8243 20.2645 59.6575 32.3655 73.8285C37.9384 80.3567 47.1734 82.4266 52.2686 78.6052C55.6124 76.0576 57.8415 73.6693 59.1153 68.5741C60.5483 62.842 59.4337 55.3584 58.6376 51.6962C57.6823 47.2379 57.3638 42.4612 57.6823 37.0475C57.6823 37.0475 57.523 37.0475 57.523 36.8883C54.8162 33.7038 52.9055 30.8378 51.9502 26.8571C50.5172 21.2843 49.8803 16.9852 50.0395 14.1191Z" fill="url(#paint2_linear_1024_11500)"/>
<path fill-rule="evenodd" clip-rule="evenodd" d="M45.9 16.3457C41.2825 20.0079 37.9388 26.0584 35.7096 34.4973C32.3659 47.2353 32.0475 59.018 33.162 66.0239C35.3912 79.3988 47.333 84.3347 59.4341 78.125C66.9177 74.3036 70.1022 66.1831 69.9429 57.2665C69.7837 48.0315 51.9505 37.6818 48.9253 30.039C46.8554 24.7846 45.9 20.3263 45.9 16.3457Z" fill="url(#paint3_linear_1024_11500)"/>
<path fill-rule="evenodd" clip-rule="evenodd" d="M57.523 40.2309C63.0959 47.2368 64.2105 52.1728 61.1852 54.8796C56.5677 59.0194 45.1035 61.7263 38.0976 56.7903C33.3209 53.4466 31.5694 46.2814 32.684 35.2949C30.7733 39.4348 29.0218 43.4154 27.748 47.7145C26.4742 51.8543 25.9965 56.3126 26.6334 60.7709C28.3849 64.1146 32.3655 66.503 38.8937 67.6176C48.6064 69.369 57.8415 68.4137 64.0512 65.3884C68.1911 63.3185 70.1018 61.2486 69.9425 59.1787C70.1018 56.1534 69.1464 53.2873 67.0765 50.4213C65.1658 47.5552 61.9813 44.2115 57.523 40.2309Z" fill="url(#paint4_linear_1024_11500)"/>
<path fill-rule="evenodd" clip-rule="evenodd" d="M36.0272 33.2246C36.0272 38.3198 37.301 43.0966 40.0078 47.7141C43.9885 54.5607 48.606 61.4074 55.6119 66.9803C60.2294 70.8017 64.0508 71.9163 66.7576 70.6425C64.5284 74.7823 61.9809 76.693 59.4333 76.693C55.6119 76.5338 50.8351 74.9415 43.3516 65.8657C38.2564 59.8152 34.9127 54.0831 33.002 48.6694C33.3204 46.5995 33.6389 44.3703 33.9573 42.3004C34.435 40.2305 35.0719 37.2052 36.0272 33.2246Z" fill="url(#paint5_linear_1024_11500)"/>
<path fill-rule="evenodd" clip-rule="evenodd" d="M47.9704 40.2295C48.4481 44.3693 50.0403 51.0568 47.9704 55.3558C45.9005 59.8141 36.5062 67.7754 39.0538 74.7813C41.6014 81.7872 47.9704 80.1949 51.951 77.0104C55.9316 73.8259 58.0016 68.5715 58.4792 64.7501C58.9569 61.0879 57.3647 53.9228 56.887 47.7131C56.5685 43.5732 56.7278 40.0703 57.5239 37.045L56.2501 35.4527L49.085 33.3828C48.1296 35.1343 47.6519 37.3634 47.9704 40.2295Z" fill="url(#paint6_linear_1024_11500)"/>
<path fill-rule="evenodd" clip-rule="evenodd" d="M50.5178 19.6895C48.1294 20.6448 46.0595 22.5555 43.9895 25.5808C40.8051 29.8798 39.2128 32.5867 40.4866 41.1848C41.2827 46.9169 41.7604 52.1713 42.2381 57.1073L52.2692 27.9691C51.9508 26.5361 51.6323 25.1031 51.3139 23.9885C50.8362 22.5555 50.677 21.2817 50.5178 19.6895Z" fill="url(#paint7_linear_1024_11500)"/>
<path fill-rule="evenodd" clip-rule="evenodd" d="M52.1092 27.8105C49.5616 29.2436 47.6509 32.4281 46.2179 36.8864C44.7849 41.5039 43.5111 47.8729 42.3965 56.1526C43.9887 50.8982 44.9441 47.0768 45.4218 44.6884C46.2179 41.1854 46.3771 36.0902 48.447 32.7465C49.7208 30.5174 50.9946 28.9251 52.1092 27.8105Z" fill="#330A4C" fill-opacity="0.3163"/>
<path fill-rule="evenodd" clip-rule="evenodd" d="M40.168 77.1699C44.3078 77.8068 46.537 78.2845 46.6962 78.7622C47.0146 79.3991 46.2185 80.036 43.8301 79.7175C42.3971 79.3991 41.1233 78.6029 40.168 77.1699Z" fill="white"/>
<path fill-rule="evenodd" clip-rule="evenodd" d="M42.3964 19.6895C40.1672 22.3963 38.0973 25.4215 36.3459 28.4468C34.5944 31.4721 33.4798 33.8605 32.6837 35.2935C32.5245 36.4081 32.3652 38.1595 32.3652 40.3887C32.3652 42.6178 32.5245 45.0062 33.0021 47.713C33.3206 42.4586 34.2759 37.2042 36.0274 32.2682C37.6197 27.3322 39.8488 23.0332 42.3964 19.6895Z" fill="#EDEDED" fill-opacity="0.6033"/>
<defs>
<radialGradient id="paint0_radial_1024_11500" cx="0" cy="0" r="1" gradientUnits="userSpaceOnUse" gradientTransform="translate(47.8476 47.7197) rotate(90) scale(47.04)">
<stop stop-color="#333944"/>
<stop offset="1" stop-color="#222428"/>
</radialGradient>
<linearGradient id="paint1_linear_1024_11500" x1="48.7309" y1="19.1924" x2="46.3931" y2="81.3865" gradientUnits="userSpaceOnUse">
<stop stop-color="#D9D8DC"/>
<stop offset="1" stop-color="white" stop-opacity="0.3853"/>
</linearGradient>
<linearGradient id="paint2_linear_1024_11500" x1="47.8804" y1="18.1607" x2="23.4562" y2="71.6911" gradientUnits="userSpaceOnUse">
<stop stop-color="#8D67AF" stop-opacity="0.6719"/>
<stop offset="1" stop-color="#9F8DAF"/>
</linearGradient>
<linearGradient id="paint3_linear_1024_11500" x1="51.3158" y1="36.5383" x2="51.3158" y2="79.5973" gradientUnits="userSpaceOnUse">
<stop stop-color="#26053D" stop-opacity="0.7616"/>
<stop offset="1" stop-color="#B7B4B4" stop-opacity="0.2777"/>
</linearGradient>
<linearGradient id="paint4_linear_1024_11500" x1="35.2438" y1="37.7729" x2="46.2057" y2="66.8088" gradientUnits="userSpaceOnUse">
<stop stop-color="#91739F" stop-opacity="0.4595"/>
<stop offset="1" stop-color="#32054F" stop-opacity="0.5399"/>
</linearGradient>
<linearGradient id="paint5_linear_1024_11500" x1="60.0196" y1="75.2066" x2="29.8798" y2="50.2432" gradientUnits="userSpaceOnUse">
<stop stop-color="#463D49" stop-opacity="0.3312"/>
<stop offset="1" stop-color="#340A50" stop-opacity="0.8214"/>
</linearGradient>
<linearGradient id="paint6_linear_1024_11500" x1="52.5623" y1="36.0558" x2="31.306" y2="68.3987" gradientUnits="userSpaceOnUse">
<stop stop-color="#715383" stop-opacity="0.1452"/>
<stop offset="1" stop-color="#F4F4F4" stop-opacity="0.2336"/>
</linearGradient>
<linearGradient id="paint7_linear_1024_11500" x1="56.0915" y1="44.0514" x2="41.0384" y2="43.1326" gradientUnits="userSpaceOnUse">
<stop stop-color="#A5A1A8" stop-opacity="0.3561"/>
<stop offset="1" stop-color="#370C50" stop-opacity="0.582"/>
</linearGradient>
</defs>
</svg>
