<svg width="95" height="95" viewBox="0 0 95 95" fill="none" xmlns="http://www.w3.org/2000/svg">
<rect x="1.51184" y="0.929812" width="92.736" height="92.736" rx="13.44" fill="url(#paint0_radial_1024_11444)"/>
<rect x="1.51184" y="0.929812" width="92.736" height="92.736" rx="13.44" stroke="#6886C3" stroke-width="1.344"/>
<g clip-path="url(#clip0_1024_11444)">
<path d="M46.7339 18.4055C50.3658 18.51 53.646 20.642 55.2179 23.9414L61.4552 37.0622L61.5554 36.8086C61.8032 36.1546 62.0062 35.4846 62.1631 34.8031L62.2503 34.3967C63.3013 29.1415 68.4093 25.7403 73.6743 26.78C74.9248 27.0298 76.1138 27.5236 77.1735 28.233C78.2331 28.9424 79.1426 29.8537 79.8499 30.9147C80.5573 31.9758 81.0487 33.1658 81.2961 34.4168C81.5434 35.6677 81.5419 36.9552 81.2915 38.2056C79.8905 45.2018 76.2791 51.6947 71.0989 56.8386L70.9348 56.998L73.1215 61.5954C75.6593 66.932 73.0298 73.3824 67.5039 75.1926L67.2546 75.2706L67.0643 75.3281C66.2188 75.5661 65.3447 75.6874 64.4663 75.6885C62.63 75.6886 60.8313 75.1683 59.2786 74.1879C57.7259 73.2075 56.4829 71.8072 55.6936 70.1492L54.0057 66.6008L53.5799 66.7063C51.2983 67.2455 48.984 67.5442 46.6688 67.5901L46.0375 67.5964C43.8094 67.5964 41.5445 67.3373 39.2818 66.8352L38.8355 66.7312L37.2141 70.1403C36.1208 72.4391 34.1681 74.2163 31.7769 75.089L31.4882 75.1892C30.2427 75.5999 28.927 75.7539 27.6204 75.6418C26.3138 75.5297 25.0435 75.154 23.8862 74.5372C19.2767 72.087 17.519 66.3509 19.7681 61.613L21.7814 57.3791L21.6056 57.2085C18.8454 54.4856 16.6572 51.3907 15.2055 48.0638L15.0121 47.6089L14.9843 47.5351C12.9864 42.5676 15.3856 36.9131 20.35 34.9031C24.2439 33.3268 28.5605 34.4587 31.2149 37.4173L31.2648 37.4745L37.6818 23.9763C38.4426 22.3504 39.6407 20.9682 41.1421 19.9843C42.6435 19.0004 44.389 18.4535 46.1834 18.405L46.4551 18.4023L46.7339 18.4055Z" fill="white"/>
<path d="M37.1489 63.0385L42.8966 50.9457C38.5066 50.0133 34.0895 47.2977 31.5913 43.9941L25.5811 56.6296C28.9208 59.4627 32.9308 61.6898 37.1489 63.0385Z" fill="#1A007F"/>
<path d="M61.136 43.6309C58.2485 47.1701 54.2388 49.7951 49.9482 50.8178L55.6778 62.8745C59.8597 61.4622 63.7699 59.1814 67.1465 56.2579L61.136 43.6309Z" fill="#4E000A"/>
<path d="M25.5822 56.6311L22.5771 62.9492C21.0473 66.1625 22.1968 70.1181 25.3468 71.7926C28.6868 73.5666 32.7963 72.1819 34.4075 68.8053L37.1501 63.0398C32.9148 61.6743 28.9858 59.4978 25.5822 56.6311Z" fill="#1A007F"/>
<path d="M73.0656 29.8394C72.2157 29.6692 71.3406 29.6681 70.4903 29.8362C69.64 30.0043 68.8312 30.3383 68.11 30.8191C67.3888 31.2999 66.7694 31.9181 66.2872 32.6383C65.8049 33.3585 65.4693 34.1667 65.2995 35.0166C64.6658 38.185 63.1814 41.1355 61.1357 43.6429L67.137 56.2789C72.6766 51.4725 76.7676 44.9284 78.2342 37.6054C78.9493 34.021 76.6319 30.5452 73.0656 29.8394Z" fill="#FF9396"/>
<path d="M49.9476 50.8194C48.6624 51.127 47.3499 51.29 46.0374 51.29C45.0147 51.29 43.9558 51.1724 42.8966 50.9461C38.5065 50.0137 34.0895 47.2982 31.5912 43.9946C30.9665 43.1709 30.4599 42.3109 30.1068 41.4329C28.74 38.0566 24.893 36.4275 21.5168 37.7852C18.1405 39.152 16.5117 42.999 17.8691 46.375C19.4168 50.2127 22.1504 53.7339 25.581 56.6303C28.9813 59.4967 32.9073 61.6734 37.1397 63.039C40.0453 63.9711 43.0593 64.4872 46.0285 64.4872C49.3231 64.4872 52.5726 63.9168 55.6683 62.876L49.9476 50.8194Z" fill="#002DC8"/>
<path d="M70.3059 62.9204L67.138 56.2587L61.1367 43.6317L61.1278 43.6409C61.1278 43.6409 61.1278 43.6317 61.1367 43.6317L52.4112 25.2751C51.8756 24.1489 51.0318 23.1975 49.9777 22.5311C48.9236 21.8647 47.7022 21.5106 46.4551 21.5098C43.9115 21.5098 41.5944 22.9761 40.4993 25.2753L31.6016 43.9939C34.0998 47.2975 38.5169 50.0131 42.9069 50.9455L45.7852 44.899C46.0569 44.3286 46.8714 44.3286 47.1431 44.899L49.9582 50.8187H49.9763H49.9579L55.6878 62.8753L58.5028 68.7949C59.038 69.9233 59.8829 70.8764 60.9389 71.5431C61.995 72.2097 63.2187 72.5626 64.4676 72.5605C65.0561 72.5605 65.6444 72.4791 66.2237 72.3161C70.1975 71.2207 72.0801 66.6498 70.3059 62.9204Z" fill="#FF536A"/>
</g>
<defs>
<radialGradient id="paint0_radial_1024_11444" cx="0" cy="0" r="1" gradientUnits="userSpaceOnUse" gradientTransform="translate(47.8798 47.2978) rotate(90) scale(47.04)">
<stop stop-color="#333944"/>
<stop offset="1" stop-color="#222428"/>
</radialGradient>
<clipPath id="clip0_1024_11444">
<rect width="67.2" height="57.4875" fill="white" transform="translate(14.2803 18.4023)"/>
</clipPath>
</defs>
</svg>
