<svg width="95" height="95" viewBox="0 0 95 95" fill="none" xmlns="http://www.w3.org/2000/svg">
<rect x="1.49622" y="0.777469" width="92.736" height="92.736" rx="13.44" fill="url(#paint0_radial_1024_11535)"/>
<rect x="1.49622" y="0.777469" width="92.736" height="92.736" rx="13.44" stroke="#6886C3" stroke-width="1.344"/>
<path d="M23.6882 74.0478L18.2979 13.5449H77.5593L72.1689 74.0151L47.8796 80.7449" fill="#E44D26"/>
<path d="M47.9268 75.6007V18.5117H72.1508L67.5281 70.1286" fill="#F16529"/>
<path d="M29.3057 25.9121H47.927V33.328H37.4402L38.1263 40.9235H47.927V48.323H31.3311L29.3057 25.9121ZM31.6578 52.0473H39.1063L39.629 57.9767L47.927 60.1982V67.9407L32.7032 63.6937" fill="#EBEBEB"/>
<path d="M66.4832 25.9121H47.8945V33.328H65.7971L66.4832 25.9121ZM65.1274 40.9235H47.8945V48.3393H57.0418L56.1761 57.9767L47.8945 60.1982V67.908L63.0856 63.6937" fill="white"/>
<defs>
<radialGradient id="paint0_radial_1024_11535" cx="0" cy="0" r="1" gradientUnits="userSpaceOnUse" gradientTransform="translate(47.8642 47.1455) rotate(90) scale(47.04)">
<stop stop-color="#333944"/>
<stop offset="1" stop-color="#222428"/>
</radialGradient>
</defs>
</svg>
