<svg width="95" height="96" viewBox="0 0 95 96" fill="none" xmlns="http://www.w3.org/2000/svg">
<rect x="1.51184" y="1.64075" width="92.736" height="92.736" rx="13.44" fill="url(#paint0_radial_1024_11465)"/>
<rect x="1.51184" y="1.64075" width="92.736" height="92.736" rx="13.44" stroke="#6886C3" stroke-width="1.344"/>
<path d="M74.2482 36.1158C74.1138 35.973 73.971 35.8302 73.8282 35.6958C73.6854 35.5614 73.551 35.4102 73.4082 35.2758C73.2654 35.1414 73.131 34.9902 72.9882 34.8558C72.8454 34.7214 72.711 34.5702 72.5682 34.4358C72.4254 34.3014 72.291 34.1502 72.1482 34.0158C72.0054 33.8814 71.871 33.7302 71.7282 33.5958C71.5854 33.4614 71.451 33.3102 71.3082 33.1758C75.4747 37.2705 77.8616 42.841 77.9526 48.6822C77.9526 62.601 63.8238 73.9242 46.4526 73.9242C36.7254 73.9242 28.023 70.371 22.2354 64.8018L22.6554 65.2218L23.0754 65.6418L23.4954 66.0618L23.9154 66.4818L24.3354 66.9018L24.7554 67.3218L25.1754 67.7418C30.9546 73.5462 39.8502 77.2842 49.8126 77.2842C67.1838 77.2842 81.3126 65.961 81.3126 52.0842C81.3126 46.1538 78.759 40.5342 74.2482 36.1158Z" fill="black"/>
<path d="M75.8527 48.6828C75.8527 61.4592 62.6899 71.8164 46.4527 71.8164C30.2155 71.8164 17.0527 61.4592 17.0527 48.6828C17.0527 40.7616 22.0927 33.7644 29.8375 29.6148C37.5823 25.4652 42.4039 21.2148 46.4527 21.2148C50.5015 21.2148 53.9623 24.684 63.0679 29.6148C70.8127 33.7644 75.8527 40.7616 75.8527 48.6828Z" fill="#FBF0DF"/>
<path d="M75.8514 48.6833C75.8473 47.042 75.6213 45.4088 75.1794 43.8281C72.8862 71.8001 38.7654 73.1441 25.3506 64.7777C31.381 69.4518 38.8226 71.9343 46.4514 71.8169C62.6634 71.8169 75.8514 61.4429 75.8514 48.6833Z" fill="#F6DECE"/>
<path d="M35.1379 28.0776C38.8927 25.8264 43.8823 21.6012 48.7879 21.5928C48.0333 21.3489 47.2458 21.2214 46.4527 21.2148C44.4199 21.2148 42.2527 22.2648 39.5227 23.844C38.5735 24.3984 37.5907 25.0116 36.5491 25.65C34.5919 26.8596 32.3491 28.2288 29.8291 29.598C21.8323 33.924 17.0527 41.0556 17.0527 48.6828C17.0527 49.0188 17.0527 49.3548 17.0527 49.6824C22.1431 31.698 31.3915 30.3288 35.1379 28.0776Z" fill="#FFFEFC"/>
<path fill-rule="evenodd" clip-rule="evenodd" d="M44.0326 23.3408C44.0443 25.3242 43.6279 27.2868 42.8117 29.0946C41.9955 30.9024 40.7988 32.5127 39.3034 33.8156C39.0682 34.0256 39.253 34.4288 39.5554 34.3112C42.3862 33.2108 46.2082 29.918 44.5954 23.2736C44.5282 22.8956 44.0326 22.9964 44.0326 23.3408ZM45.9394 23.3408C46.9672 25.0178 47.6202 26.8972 47.8536 28.8502C48.087 30.8032 47.8954 32.7836 47.2918 34.6556C47.191 34.9496 47.5522 35.2016 47.7538 34.958C49.5934 32.606 51.1978 27.9356 46.393 22.8956C46.1494 22.6772 45.7714 23.0132 45.9394 23.3072V23.3408ZM48.2578 23.198C49.8673 24.3375 51.2138 25.8089 52.2064 27.513C53.199 29.2171 53.8146 31.1142 54.0118 33.0764C54.0033 33.1471 54.0223 33.2184 54.0649 33.2754C54.1076 33.3325 54.1705 33.371 54.2407 33.3828C54.3109 33.3947 54.383 33.3791 54.4421 33.3393C54.5011 33.2994 54.5425 33.2384 54.5578 33.1688C55.3306 30.2372 54.8938 25.2392 48.535 22.6436C48.199 22.5092 47.9806 22.9628 48.2578 23.1644V23.198ZM32.7514 31.934C34.6659 31.362 36.4386 30.3932 37.9539 29.0907C39.4692 27.7881 40.6932 26.181 41.5462 24.374C41.6974 24.0716 42.1762 24.1892 42.1006 24.5252C40.6474 31.2452 35.7838 32.648 32.7598 32.4632C32.4406 32.4716 32.449 32.0264 32.7514 31.934Z" fill="#CCBEA7"/>
<path d="M46.4521 73.9252C29.0809 73.9252 14.9521 62.602 14.9521 48.6832C14.9521 40.2832 20.1433 32.446 28.8373 27.7504C31.3573 26.4064 33.5161 25.054 35.4397 23.8696C36.4981 23.2144 37.4977 22.6012 38.4637 22.03C41.4121 20.2828 43.9321 19.1152 46.4521 19.1152C48.9721 19.1152 51.1729 20.1232 53.9281 21.7528C54.7681 22.2316 55.6081 22.7524 56.5069 23.3236C58.5985 24.6172 60.9589 26.0788 64.0669 27.7504C72.7609 32.446 77.9521 40.2748 77.9521 48.6832C77.9521 62.602 63.8233 73.9252 46.4521 73.9252ZM46.4521 21.2152C44.4193 21.2152 42.2521 22.2652 39.5221 23.8444C38.5729 24.3988 37.5901 25.012 36.5485 25.6504C34.5913 26.86 32.3485 28.2292 29.8285 29.5984C21.8317 33.9244 17.0521 41.056 17.0521 48.6832C17.0521 61.4428 30.2401 71.8252 46.4521 71.8252C62.6641 71.8252 75.8521 61.4428 75.8521 48.6832C75.8521 41.056 71.0725 33.9244 63.0673 29.6152C59.8921 27.9352 57.4141 26.356 55.4065 25.1128C54.4909 24.55 53.6509 24.0292 52.8865 23.5672C50.3413 22.0552 48.4849 21.2152 46.4521 21.2152Z" fill="black"/>
<path d="M52.3745 54.8137C51.9971 56.3592 51.1381 57.7447 49.9217 58.7701C49.0084 59.6554 47.8261 60.2111 46.5617 60.3493C45.2593 60.233 44.0355 59.6759 43.0925 58.7701C41.8884 57.7399 41.0415 56.3549 40.6733 54.8137C40.6611 54.7222 40.67 54.6291 40.6993 54.5416C40.7286 54.454 40.7776 54.3744 40.8425 54.3087C40.9073 54.243 40.9864 54.1931 41.0735 54.1627C41.1607 54.1323 41.2536 54.1222 41.3453 54.1333H51.7109C51.8019 54.1236 51.8939 54.1347 51.9799 54.1657C52.066 54.1967 52.1439 54.2469 52.2078 54.3124C52.2717 54.3779 52.3199 54.457 52.3488 54.5439C52.3776 54.6307 52.3864 54.723 52.3745 54.8137Z" fill="#B71422"/>
<path d="M43.0921 58.8353C44.0332 59.7416 45.2525 60.304 46.5529 60.4313C47.8503 60.3021 49.0664 59.7399 50.0053 58.8353C50.3056 58.5554 50.5863 58.255 50.8453 57.9365C50.3278 57.3494 49.6957 56.8745 48.9879 56.5408C48.2801 56.2071 47.5114 56.0217 46.7293 55.9961C45.8924 56.0159 45.0729 56.2388 44.3412 56.6456C43.6096 57.0524 42.9878 57.6309 42.5293 58.3313C42.7225 58.5077 42.8905 58.6757 43.0921 58.8353Z" fill="#FF6164"/>
<path d="M43.2267 58.1737C43.6431 57.6354 44.1762 57.1985 44.7858 56.8959C45.3954 56.5933 46.0657 56.4328 46.7463 56.4265C48.0042 56.4636 49.2028 56.97 50.1063 57.8461C50.2995 57.6361 50.4843 57.4177 50.6607 57.1993C49.592 56.1816 48.1798 55.6029 46.7043 55.5781C45.9157 55.5849 45.1385 55.7662 44.4283 56.109C43.7181 56.4517 43.0926 56.9474 42.5967 57.5605C42.7953 57.7763 43.0056 57.981 43.2267 58.1737Z" fill="black"/>
<path d="M46.5269 60.8531C45.1271 60.7304 43.8099 60.1384 42.7889 59.1731C41.4886 58.0733 40.5734 56.5872 40.1765 54.9311C40.148 54.7836 40.1529 54.6317 40.1906 54.4864C40.2284 54.341 40.2982 54.206 40.3949 54.0911C40.51 53.9521 40.6554 53.8412 40.8199 53.767C40.9844 53.6927 41.1637 53.6571 41.3441 53.6627H51.7097C51.8898 53.6589 52.0685 53.6954 52.2327 53.7695C52.397 53.8436 52.5426 53.9535 52.6589 54.0911C52.7546 54.2064 52.8232 54.3418 52.8595 54.4872C52.8959 54.6326 52.8991 54.7843 52.8689 54.9311C52.472 56.5872 51.5567 58.0733 50.2565 59.1731C49.2377 60.1367 47.9237 60.7286 46.5269 60.8531ZM41.3441 54.6371C41.2097 54.6371 41.1761 54.6959 41.1677 54.7127C41.5228 56.1488 42.326 57.4345 43.4609 58.3835C44.2908 59.2011 45.3697 59.7184 46.5269 59.8535C47.681 59.7199 48.7588 59.2091 49.5929 58.4003C50.7242 57.4497 51.5243 56.1643 51.8777 54.7295C51.8594 54.7026 51.834 54.6814 51.8043 54.668C51.7747 54.6547 51.7419 54.6498 51.7097 54.6539L41.3441 54.6371Z" fill="black"/>
<path d="M59.2372 55.3358C61.9512 55.3358 64.1512 54.0421 64.1512 52.4462C64.1512 50.8504 61.9512 49.5566 59.2372 49.5566C56.5233 49.5566 54.3232 50.8504 54.3232 52.4462C54.3232 54.0421 56.5233 55.3358 59.2372 55.3358Z" fill="#FEBBD0"/>
<path d="M33.8105 55.3358C36.5244 55.3358 38.7245 54.0421 38.7245 52.4462C38.7245 50.8504 36.5244 49.5566 33.8105 49.5566C31.0966 49.5566 28.8965 50.8504 28.8965 52.4462C28.8965 54.0421 31.0966 55.3358 33.8105 55.3358Z" fill="#FEBBD0"/>
<path fill-rule="evenodd" clip-rule="evenodd" d="M36.12 51.2861C37.0358 51.2878 37.9314 51.0177 38.6937 50.5102C39.4559 50.0026 40.0505 49.2803 40.4021 48.4347C40.7537 47.5892 40.8465 46.6583 40.6689 45.7599C40.4912 44.8615 40.0511 44.036 39.4041 43.3879C38.7572 42.7398 37.9325 42.2981 37.0344 42.1188C36.1364 41.9396 35.2054 42.0307 34.3591 42.3808C33.5129 42.7309 32.7896 43.3241 32.2806 44.0854C31.7717 44.8467 31.5 45.7419 31.5 46.6577C31.5 47.8838 31.9865 49.0597 32.8527 49.9275C33.7188 50.7953 34.8939 51.2839 36.12 51.2861ZM56.9268 51.2861C57.8436 51.2927 58.7417 51.027 59.5073 50.5225C60.2728 50.0179 60.8713 49.2974 61.2268 48.4523C61.5822 47.6072 61.6787 46.6755 61.5039 45.7755C61.3292 44.8755 60.891 44.0476 60.2451 43.397C59.5991 42.7463 58.7745 42.3022 57.8758 42.1208C56.9771 41.9395 56.0447 42.0292 55.197 42.3785C54.3493 42.7278 53.6245 43.321 53.1144 44.0828C52.6043 44.8447 52.332 45.7409 52.332 46.6577C52.3298 47.8801 52.8121 49.0536 53.6733 49.9211C54.5345 50.7886 55.7044 51.2794 56.9268 51.2861Z" fill="black"/>
<path fill-rule="evenodd" clip-rule="evenodd" d="M34.6923 46.9522C35.0366 46.9539 35.3736 46.8533 35.6606 46.6632C35.9477 46.4732 36.1718 46.2022 36.3047 45.8846C36.4376 45.5671 36.4733 45.2172 36.4071 44.8793C36.341 44.5415 36.176 44.2309 35.9332 43.9869C35.6904 43.7429 35.3806 43.5764 35.043 43.5086C34.7055 43.4409 34.3555 43.4748 34.0373 43.6062C33.719 43.7375 33.447 43.9604 33.2555 44.2465C33.0641 44.5326 32.9619 44.8691 32.9619 45.2134C32.9619 45.6731 33.1439 46.1141 33.4682 46.4399C33.7925 46.7658 34.2326 46.95 34.6923 46.9522ZM55.4991 46.9522C55.8434 46.9539 56.1804 46.8533 56.4674 46.6632C56.7545 46.4732 56.9786 46.2022 57.1115 45.8846C57.2444 45.5671 57.2801 45.2172 57.2139 44.8793C57.1478 44.5415 56.9828 44.2309 56.74 43.9869C56.4972 43.7429 56.1874 43.5764 55.8498 43.5086C55.5123 43.4409 55.1623 43.4748 54.8441 43.6062C54.5258 43.7375 54.2538 43.9604 54.0623 44.2465C53.8709 44.5326 53.7687 44.8691 53.7687 45.2134C53.7687 45.6702 53.9484 46.1087 54.2691 46.4341C54.5897 46.7595 55.0255 46.9456 55.4823 46.9522H55.4991Z" fill="white"/>
<defs>
<radialGradient id="paint0_radial_1024_11465" cx="0" cy="0" r="1" gradientUnits="userSpaceOnUse" gradientTransform="translate(47.8798 48.0088) rotate(90) scale(47.04)">
<stop stop-color="#333944"/>
<stop offset="1" stop-color="#222428"/>
</radialGradient>
</defs>
</svg>
