<svg width="95" height="95" viewBox="0 0 95 95" fill="none" xmlns="http://www.w3.org/2000/svg">
<rect x="0.920047" y="1.19934" width="92.736" height="92.736" rx="13.44" fill="url(#paint0_radial_1024_11579)"/>
<rect x="0.920047" y="1.19934" width="92.736" height="92.736" rx="13.44" stroke="#6886C3" stroke-width="1.344"/>
<path fill-rule="evenodd" clip-rule="evenodd" d="M53.2566 13.9668C52.7707 13.9668 52.3195 14.0709 51.903 14.2098C52.788 14.7998 53.274 15.5808 53.5169 16.4658C53.5343 16.5873 53.569 16.6741 53.5864 16.7956C53.6038 16.8997 53.6211 17.0038 53.6211 17.108C53.6905 18.6352 53.2219 18.8261 52.8922 19.7285C52.3889 20.8912 52.5277 22.1408 53.1351 23.1473C53.1872 23.2688 53.2566 23.4076 53.3434 23.5291C52.6839 19.1384 56.3457 18.479 57.0225 17.108C57.0746 15.9105 56.0854 15.1122 55.3044 14.5568C54.5582 14.1056 53.8814 13.9668 53.2566 13.9668ZM58.7753 14.956C58.7059 15.3552 58.758 15.251 58.7407 15.4593C58.7233 15.5981 58.7233 15.7717 58.706 15.9105C58.6713 16.0493 58.6365 16.1882 58.5845 16.327C58.5498 16.4658 58.4977 16.6047 58.4457 16.7435C58.3762 16.8824 58.3242 17.0038 58.2548 17.1427C58.2027 17.2121 58.168 17.2815 58.1159 17.3509C58.0812 17.403 58.0465 17.4551 58.0118 17.5071C57.925 17.6286 57.8382 17.7501 57.7515 17.8542C57.6473 17.9583 57.5606 18.0798 57.4391 18.1666V18.184C57.335 18.2707 57.2308 18.3749 57.1094 18.4616C56.7449 18.7393 56.3284 18.9476 55.9466 19.2079C55.8251 19.2947 55.7036 19.3641 55.5995 19.4682C55.478 19.555 55.3739 19.6417 55.2698 19.7459C55.1483 19.85 55.0615 19.9541 54.9574 20.0756C54.8706 20.1797 54.7665 20.3012 54.6971 20.4227C54.6103 20.5442 54.5235 20.6657 54.4541 20.7871C54.3847 20.926 54.3326 21.0475 54.2632 21.1863C54.2112 21.3251 54.1591 21.4466 54.1244 21.5854C54.0723 21.7416 54.0376 21.8805 54.0029 22.0193C53.9855 22.0888 53.9855 22.1755 53.9682 22.2449C53.9508 22.3144 53.9508 22.3838 53.9335 22.4532C53.9335 22.592 53.9162 22.7482 53.9162 22.887C53.9162 22.9912 53.9162 23.0953 53.9335 23.1994C53.9335 23.3383 53.9509 23.4771 53.9856 23.6333C54.003 23.7721 54.0377 23.9109 54.0724 24.0498C54.1244 24.1886 54.1592 24.3275 54.2112 24.4663C54.2459 24.5531 54.298 24.6398 54.3327 24.7093L50.3412 23.1647C49.6643 22.9738 49.0049 22.8003 48.328 22.6441C47.9636 22.5573 47.5992 22.4705 47.2347 22.3838C46.1934 22.1755 45.1348 22.0193 44.0762 21.9152C44.0415 21.9152 44.0241 21.8978 43.9894 21.8978C42.9481 21.7937 41.9242 21.7416 40.883 21.7416C40.1194 21.7416 39.3558 21.7763 38.6095 21.8284C37.5509 21.8978 36.4923 22.0366 35.4336 22.2102C35.1733 22.2449 34.913 22.297 34.6527 22.349C34.1147 22.4531 33.5941 22.5746 33.0908 22.6961C32.8305 22.7656 32.5701 22.835 32.3098 22.9044C32.0495 23.0085 31.8066 23.13 31.5636 23.2341C31.3727 23.3209 31.1818 23.4076 30.9909 23.4944C30.9562 23.5118 30.9214 23.5118 30.9041 23.5291C30.7306 23.6159 30.5744 23.6853 30.4182 23.7721C30.3661 23.7894 30.3314 23.8068 30.2967 23.8241C30.1058 23.9109 29.9149 24.015 29.7587 24.1018C29.6372 24.1539 29.5158 24.2233 29.4116 24.2754C29.3596 24.31 29.2901 24.3448 29.2554 24.3621C29.0992 24.4489 28.9431 24.5357 28.8042 24.6224C28.648 24.7092 28.5092 24.796 28.3877 24.8828C28.2662 24.9695 28.1447 25.0389 28.0406 25.1257C28.0232 25.1431 28.0059 25.1431 27.9886 25.1604C27.8844 25.2298 27.763 25.3166 27.6588 25.4034C27.6588 25.4034 27.6414 25.4207 27.6241 25.438C27.5374 25.5075 27.4506 25.5769 27.3638 25.6463C27.3291 25.6637 27.2944 25.6984 27.2597 25.7157C27.1729 25.7852 27.0862 25.8719 26.9994 25.9414C26.982 25.976 26.9473 25.9934 26.9299 26.0108C26.8258 26.1149 26.7217 26.2017 26.6176 26.3058C26.6002 26.3058 26.6002 26.3232 26.5829 26.3405C26.4787 26.4273 26.3746 26.5314 26.2705 26.6355C26.2531 26.6529 26.2531 26.6702 26.2358 26.6702C26.149 26.757 26.0623 26.8438 25.9755 26.9479C25.9408 26.9826 25.8887 27.0173 25.854 27.052C25.7672 27.1561 25.6631 27.2603 25.559 27.3644C25.5416 27.3991 25.5069 27.4165 25.4895 27.4512C25.3507 27.59 25.2292 27.7288 25.0904 27.8677C25.073 27.8851 25.0557 27.9024 25.0383 27.9197C24.7606 28.2148 24.4656 28.5098 24.1532 28.7701C23.8409 29.0478 23.5111 29.3081 23.1814 29.5337C22.8343 29.7767 22.5046 29.9849 22.1401 30.1932C21.793 30.3841 21.4286 30.5576 21.0468 30.7138C20.6823 30.87 20.3005 31.0088 19.9187 31.1303C19.1899 31.2865 18.4436 31.5815 17.8015 31.6336C17.6627 31.6336 17.5065 31.6683 17.3676 31.6857C17.2114 31.7203 17.0726 31.7551 16.9338 31.7898C16.7949 31.8419 16.6561 31.8939 16.5173 31.946C16.3784 31.998 16.2396 32.0675 16.1008 32.1369C15.9793 32.2237 15.8404 32.2931 15.719 32.3798C15.5975 32.4666 15.476 32.5707 15.3719 32.6749C15.2504 32.7616 15.1289 32.8831 15.0248 32.9873C14.9206 33.1087 14.8165 33.2129 14.7297 33.3343C14.643 33.4732 14.5388 33.5947 14.4694 33.7335C14.3827 33.855 14.2959 33.9938 14.2265 34.1326C14.157 34.2888 14.0876 34.4277 14.0356 34.5839C13.9835 34.7227 13.9314 34.8789 13.8794 35.0351C13.8447 35.1739 13.8099 35.3128 13.7926 35.4516C13.7926 35.469 13.7752 35.4863 13.7752 35.5037C13.7405 35.6598 13.7405 35.8681 13.7232 35.9722C13.7058 36.0937 13.6885 36.1978 13.6885 36.3193C13.6885 36.3888 13.6885 36.4755 13.7059 36.5449C13.7232 36.6664 13.7405 36.7705 13.7753 36.8747C13.81 36.9788 13.8447 37.0829 13.8968 37.187V37.2044C13.9488 37.3086 14.0183 37.4127 14.0877 37.5168C14.1571 37.6209 14.2265 37.7251 14.3133 37.8292C14.4001 37.916 14.5042 38.0201 14.6083 38.1069C14.7124 38.211 14.8166 38.2978 14.938 38.3845C15.3546 38.749 15.4587 38.8705 15.9967 39.1481C16.0834 39.2002 16.1702 39.2349 16.2744 39.287C16.2917 39.287 16.309 39.3043 16.3264 39.3043C16.3264 39.339 16.3264 39.3564 16.3438 39.3911C16.3612 39.53 16.3959 39.6688 16.4306 39.8076C16.4653 39.9638 16.5174 40.1027 16.5694 40.2241C16.6215 40.3283 16.6562 40.4324 16.7082 40.5365C16.7256 40.5712 16.7429 40.606 16.7603 40.6233C16.8298 40.7621 16.8991 40.8836 16.9686 41.0051C17.0553 41.1266 17.1421 41.2481 17.2289 41.3695C17.3157 41.4737 17.4198 41.5951 17.5239 41.6993C17.628 41.8034 17.7322 41.8902 17.8536 41.9943C17.8536 41.9943 17.871 42.0117 17.8883 42.0117C17.9925 42.0985 18.0966 42.1852 18.2007 42.2547C18.3222 42.3414 18.4437 42.4108 18.5825 42.4803C18.704 42.5497 18.8428 42.6191 18.9817 42.6712C19.0858 42.7232 19.2073 42.7579 19.3288 42.7927C19.3461 42.8101 19.3634 42.8101 19.3982 42.8273C19.4676 42.8447 19.5544 42.862 19.6238 42.8794C19.5717 43.8165 19.5544 44.7016 19.6932 45.014C19.8494 45.3611 20.613 44.3025 21.3766 43.0877C21.2725 44.2851 21.2031 45.6908 21.3766 46.1073C21.5675 46.5412 22.6088 45.1875 23.5112 43.6951C35.8156 40.8489 47.0439 49.3526 48.224 61.3619C47.9984 59.4877 45.6903 58.4464 44.6317 58.7067C44.111 59.9909 43.226 61.6396 41.8029 62.6635C41.9244 61.5181 41.8723 60.338 41.6293 59.1926C41.2475 60.7892 40.5013 62.2817 39.4774 63.566C37.8287 63.6874 36.18 62.8891 35.3123 61.6917C35.2428 61.6396 35.2255 61.5355 35.1735 61.4661C35.1214 61.3446 35.0693 61.2231 35.0346 61.1016C34.9826 60.9801 34.9479 60.8587 34.9305 60.7372C34.9131 60.6157 34.9131 60.4942 34.9131 60.3554C34.9131 60.2686 34.9131 60.1818 34.9131 60.0951C34.9305 59.9736 34.9652 59.8521 34.9999 59.7306C35.0346 59.6091 35.0693 59.4877 35.1214 59.3662C35.1908 59.2447 35.2428 59.1232 35.3296 59.0017C35.6246 58.1687 35.6246 57.4919 35.0867 57.0927C34.9825 57.0233 34.8784 56.9713 34.7569 56.9192C34.6875 56.9018 34.6007 56.8671 34.5313 56.8497C34.4793 56.8324 34.4445 56.8151 34.3925 56.7977C34.271 56.763 34.1495 56.7282 34.028 56.7109C33.9065 56.6762 33.7851 56.6588 33.6636 56.6588C33.5421 56.6414 33.4033 56.6242 33.2818 56.6242C33.195 56.6242 33.1082 56.6415 33.0215 56.6415C32.8826 56.6415 32.7612 56.6589 32.6397 56.6936C32.5182 56.711 32.3967 56.7283 32.2752 56.763C32.1537 56.7977 32.0323 56.8325 31.9108 56.8845C31.7893 56.9366 31.6852 56.9887 31.5637 57.0407C31.4596 57.0928 31.3554 57.1622 31.234 57.2143C27.1904 59.8521 29.6026 66.0303 32.362 67.8179C31.3207 68.0088 30.2621 68.2344 29.9671 68.46C29.9497 68.4774 29.9324 68.4947 29.9324 68.4947C30.6786 68.9459 31.4596 69.3277 32.2753 69.6574C33.3859 70.0219 34.566 70.3516 35.0867 70.4904V70.5078C36.5271 70.8028 37.9849 70.907 39.46 70.8202C47.1481 70.2822 53.4478 64.4337 54.5932 56.7283C54.6278 56.8845 54.6626 57.0234 54.6973 57.1796C54.7493 57.4919 54.8188 57.8217 54.8535 58.1514V58.1688C54.8881 58.325 54.9055 58.4812 54.9229 58.62V58.6895C54.9403 58.8457 54.9576 59.0018 54.9576 59.1407C54.975 59.3316 54.9923 59.5225 54.9923 59.7134V59.991C54.9923 60.0778 55.0097 60.1819 55.0097 60.2687C55.0097 60.3729 54.9923 60.477 54.9923 60.5811V60.8241C54.9923 60.9456 54.9749 61.0497 54.9749 61.1712C54.9749 61.2406 54.9749 61.31 54.9575 61.3968C54.9575 61.5183 54.9401 61.6397 54.9401 61.7786C54.9227 61.8306 54.9227 61.8827 54.9227 61.9348C54.9053 62.0736 54.888 62.1951 54.8706 62.3339C54.8706 62.386 54.8706 62.438 54.8533 62.4901C54.8359 62.6636 54.8012 62.8198 54.7838 62.9934V63.0108V63.0282C54.7492 63.1843 54.7144 63.3579 54.6797 63.5141V63.5661C54.645 63.7223 54.6103 63.8785 54.5756 64.0347C54.5756 64.0521 54.5582 64.0868 54.5582 64.1042C54.5235 64.2604 54.4888 64.4165 54.4367 64.5727V64.6248C54.3847 64.7983 54.3326 64.9545 54.2979 65.1107C54.2805 65.1281 54.2805 65.1454 54.2805 65.1454C54.2284 65.319 54.1764 65.4925 54.1243 65.666C54.0549 65.8396 54.0028 65.9958 53.9334 66.1693C53.864 66.3429 53.8119 66.5164 53.7425 66.6726C53.6731 66.8462 53.6037 67.0023 53.5343 67.1759H53.5169C53.4474 67.3321 53.378 67.5056 53.2912 67.6618C53.2739 67.7139 53.2566 67.7486 53.2392 67.7833C53.2218 67.8007 53.2218 67.818 53.2045 67.8354C52.0765 70.1088 50.4104 72.1046 48.3279 73.6665C48.1891 73.7532 48.0502 73.8574 47.9114 73.9615C47.8767 73.9962 47.8246 74.0136 47.7899 74.0483C47.6684 74.135 47.5469 74.2218 47.4081 74.3086L47.4602 74.4127H47.4775C47.7205 74.378 47.9635 74.3433 48.2064 74.3086H48.2238C48.675 74.2391 49.1262 74.1524 49.5775 74.0656C49.6989 74.0482 49.8378 74.0136 49.9593 73.9788C50.046 73.9614 50.1155 73.9442 50.2022 73.9268C50.3237 73.9094 50.4452 73.8747 50.5667 73.8573C50.6708 73.8227 50.7749 73.8053 50.8791 73.7706C52.6145 73.354 54.2979 72.7813 55.9119 72.1045C53.1525 75.8704 49.456 78.9075 45.1347 80.9033C47.1305 80.7644 49.1262 80.4347 51.0526 79.8793C58.0465 77.8142 63.9296 73.1111 67.4526 66.7767C66.7411 70.7856 65.1445 74.6036 62.7842 77.9356C64.4676 76.8249 66.0122 75.5407 67.4179 74.0829C71.3053 70.022 73.8564 64.8677 74.7241 59.3316C75.3142 62.0736 75.4877 64.9024 75.2274 67.6965C87.7574 50.2205 76.2687 32.1024 71.4615 27.3299C71.4441 27.2952 71.4268 27.2779 71.4268 27.2431C71.4094 27.2605 71.4094 27.2605 71.4094 27.2778C71.4094 27.2604 71.4094 27.2604 71.392 27.2431C71.392 27.4514 71.3747 27.6596 71.3574 27.8679C71.3053 28.2671 71.2532 28.6489 71.1838 29.0307C71.097 29.4125 70.9929 29.7942 70.8888 30.1761C70.7673 30.5405 70.6285 30.9223 70.4723 31.2867C70.3161 31.6338 70.1425 31.9983 69.9516 32.3454C69.7607 32.6751 69.5525 33.0222 69.3269 33.3346C69.1013 33.6643 68.8583 33.9767 68.6153 34.2717C68.355 34.5841 68.0773 34.8618 67.7997 35.1394C67.6261 35.2956 67.4699 35.4345 67.2964 35.5733C67.1576 35.6948 67.0361 35.7989 66.8972 35.9204C66.5849 36.1633 66.2725 36.389 65.9254 36.5972C65.5957 36.8055 65.2486 37.0137 64.9015 37.1873C64.537 37.3608 64.1726 37.517 63.8081 37.6732C63.4437 37.812 63.0619 37.9335 62.6801 38.0376C62.2983 38.1418 61.8991 38.2285 61.5173 38.298C61.1182 38.3674 60.719 38.4021 60.3372 38.4368C60.0596 38.4542 59.7819 38.4715 59.5042 38.4715C59.1051 38.4715 58.7059 38.4368 58.3241 38.402C57.925 38.3674 57.5258 38.3153 57.144 38.2285C56.7449 38.159 56.3631 38.0549 55.9813 37.9335H55.9639C56.3457 37.8988 56.7275 37.864 57.1093 37.7946C57.5084 37.7252 57.8902 37.6384 58.272 37.5343C58.6538 37.4302 59.0356 37.3087 59.4001 37.1699C59.7819 37.031 60.1463 36.8575 60.4934 36.6839C60.8579 36.5104 61.1876 36.3195 61.5347 36.1112C61.8644 35.8856 62.1941 35.66 62.5065 35.417C62.8189 35.1741 63.1139 34.9138 63.3916 34.6361C63.6866 34.3758 63.947 34.0808 64.2073 33.7857C64.4676 33.4734 64.7106 33.161 64.9362 32.8486C64.9708 32.7965 65.0056 32.7271 65.0403 32.675C65.2138 32.3974 65.3874 32.1197 65.5436 31.842C65.7345 31.4949 65.908 31.1478 66.0642 30.7834C66.2204 30.419 66.3592 30.0545 66.4807 29.6727C66.6022 29.3083 66.689 28.9265 66.7757 28.5447C66.8452 28.1455 66.9146 27.7637 66.9493 27.3819C66.984 26.9828 67.0187 26.5836 67.0187 26.2018C67.0187 25.9241 67.0013 25.6465 66.984 25.3688C66.9494 24.9697 66.8973 24.5878 66.8452 24.2061C66.7758 23.8069 66.689 23.4251 66.5849 23.0433C66.4634 22.6789 66.3419 22.2971 66.2031 21.9326C66.0643 21.5682 65.8907 21.2037 65.7172 20.8566C65.5263 20.5095 65.3354 20.1624 65.1271 19.8327C64.9015 19.503 64.6759 19.1906 64.4329 18.8782C64.1726 18.5832 63.9123 18.2882 63.6346 17.9931C63.4958 17.8543 63.3396 17.6981 63.1834 17.5593C62.4025 16.9519 61.5868 16.3792 60.7711 15.8585C60.6497 15.7891 60.5455 15.7371 60.424 15.685C59.8513 15.3205 59.3133 15.1295 58.7753 14.956Z" fill="#E0234E"/>
<defs>
<radialGradient id="paint0_radial_1024_11579" cx="0" cy="0" r="1" gradientUnits="userSpaceOnUse" gradientTransform="translate(47.288 47.5673) rotate(90) scale(47.04)">
<stop stop-color="#333944"/>
<stop offset="1" stop-color="#222428"/>
</radialGradient>
</defs>
</svg>
