<svg width="95" height="95" viewBox="0 0 95 95" fill="none" xmlns="http://www.w3.org/2000/svg">
<rect x="1.49622" y="0.912234" width="92.736" height="92.736" rx="13.44" fill="url(#paint0_radial_1024_11598)"/>
<rect x="1.49622" y="0.912234" width="92.736" height="92.736" rx="13.44" stroke="#6886C3" stroke-width="1.344"/>
<path d="M48.0499 13.6797C34.2154 13.6797 23.001 24.8941 23.001 38.7286C23.001 38.9998 23.0057 39.2685 23.015 39.5373V63.6093C23.015 63.6093 23.015 63.6116 23.015 63.614V66.0611C23.015 66.0611 23.015 66.0611 23.0173 66.0588V72.1101C23.0173 72.1568 23.015 72.2013 23.015 72.248C23.015 72.2947 23.0173 72.3415 23.0197 72.3882V72.5004H23.022C23.1552 77.1493 26.9627 80.8774 31.6444 80.8774C36.326 80.8774 40.1732 77.1493 40.3064 72.5004V63.614H47.4633C47.6573 63.6186 47.8536 63.621 48.0476 63.621C61.8821 63.621 73.0966 52.5632 73.0966 38.7286C73.0966 24.8941 61.8845 13.6797 48.0499 13.6797ZM48.0499 46.3249C46.519 46.3249 42.6391 46.3249 41.0287 46.3249H40.3134V38.731C40.3134 34.4747 43.7937 31.0225 48.0499 31.0225C52.3062 31.0225 55.7584 34.4747 55.7584 38.731C55.7584 42.9872 52.3062 46.3272 48.0499 46.3272V46.3249Z" fill="#E72264"/>
<path opacity="0.15" d="M31.427 63.6191H40.2947V72.5033H40.255C40.1218 77.1522 36.3143 80.8802 31.6327 80.8802C26.951 80.8802 23.1412 77.1522 23.008 72.5033H23.0057V72.3911C23.0057 72.3443 23.001 72.2976 23.001 72.2508C23.001 72.2041 23.0033 72.1597 23.0033 72.1129V71.4865C23.2698 67.3285 27.1941 63.6191 31.4246 63.6191H31.427Z" fill="#1D1D1B"/>
<g opacity="0.05">
<path opacity="0.5" d="M23.0137 52.9345V63.616C23.0137 54.206 30.9208 46.4602 40.3074 46.3316V42.9238C33.3306 43.6577 27.153 47.4138 23.0137 52.9345Z" fill="black"/>
<path d="M23.0283 71.6552C25.0665 70.1593 27.5393 69.2782 30.2085 69.2782H40.3104V63.6172H31.6553C27.0836 63.6172 23.3462 67.1629 23.0283 71.6552Z" fill="black"/>
</g>
<g opacity="0.05">
<path opacity="0.5" d="M40.3074 46.329V43.2344C33.2721 43.9239 27.0642 47.7617 23.0137 53.397V63.6134C23.0137 54.2034 30.9208 46.4575 40.3074 46.329Z" fill="black"/>
<path d="M31.6548 63.6152C27.2069 63.6152 23.5467 66.974 23.0605 71.2933C25.0963 69.7039 27.6113 68.7643 30.3389 68.7643H40.3076V63.6176H31.6525L31.6548 63.6152Z" fill="black"/>
</g>
<g opacity="0.05">
<path opacity="0.5" d="M40.3074 46.3306V43.5469C33.209 44.1896 26.9614 48.121 23.0137 53.8825V63.6127C23.0137 54.2027 30.9208 46.4568 40.3074 46.3283V46.3306Z" fill="black"/>
<path d="M31.653 63.6152C27.329 63.6152 23.7506 66.787 23.1055 70.931C25.1296 69.2505 27.6866 68.2478 30.468 68.2478H40.3057V63.6152H31.6507H31.653Z" fill="black"/>
</g>
<g opacity="0.05">
<path opacity="0.5" d="M40.3074 46.3299V43.8594C33.1366 44.4531 26.8469 48.4919 23.0137 54.3936V63.6143C23.0137 54.2043 30.9208 46.4585 40.3074 46.3299Z" fill="black"/>
<path d="M31.6553 63.6152C27.4552 63.6152 23.9562 66.6093 23.1709 70.5781C25.1786 68.8041 27.7707 67.7336 30.6036 67.7336H40.3104V63.6152H31.6553Z" fill="black"/>
</g>
<g opacity="0.05">
<path opacity="0.5" d="M40.3074 46.3308V44.1758C33.0524 44.7134 26.7136 48.8784 23.0137 54.9344V63.6152C23.0137 54.2052 30.9208 46.4593 40.3074 46.3308Z" fill="black"/>
<path d="M31.655 63.6156C27.581 63.6156 24.1686 66.4321 23.25 70.2209C25.2297 68.3557 27.8545 67.2174 30.7341 67.2174H40.3077V63.6133H31.6526L31.655 63.6156Z" fill="black"/>
</g>
<g opacity="0.05">
<path opacity="0.5" d="M40.3074 46.3297V44.4902C32.9566 44.9717 26.557 49.2794 23.0137 55.513V63.6141C23.0137 54.2041 30.9208 46.4582 40.3074 46.3297Z" fill="black"/>
<path d="M31.6548 63.6152C27.7095 63.6152 24.3858 66.2564 23.3457 69.8629C25.2903 67.9065 27.9409 66.7028 30.8672 66.7028H40.3099V63.6152H31.6548Z" fill="black"/>
</g>
<g opacity="0.05">
<path opacity="0.5" d="M40.3074 46.3282V44.8066C32.8444 45.225 26.3724 49.7056 23.0137 56.1403V63.6126C23.0137 54.2026 30.9208 46.4568 40.3074 46.3282Z" fill="black"/>
<path d="M31.6544 63.6133C27.8422 63.6133 24.6074 66.0815 23.4551 69.5056C25.3553 67.4605 28.0315 66.1867 30.9952 66.1867H40.3071V63.6133H31.652H31.6544Z" fill="black"/>
</g>
<g opacity="0.05">
<path opacity="0.5" d="M40.3074 46.3322V45.1309C32.7065 45.4815 26.148 50.1724 23.0137 56.8431V63.6166C23.0137 54.2066 30.9208 46.4608 40.3074 46.3322Z" fill="black"/>
<path d="M31.6551 63.6172C27.9738 63.6172 24.8325 65.9194 23.582 69.1613C25.4308 67.025 28.1234 65.6764 31.1292 65.6764H40.3102V63.6172H31.6551Z" fill="black"/>
</g>
<g opacity="0.05">
<path opacity="0.5" d="M40.3074 46.3273V45.4531C32.5312 45.7313 25.8605 50.6864 23.0137 57.6492V63.6117C23.0137 54.2017 30.9208 46.4558 40.3074 46.3273Z" fill="black"/>
<path d="M31.6547 63.6113C28.1067 63.6113 25.0588 65.75 23.7266 68.8072C25.5099 66.5797 28.2212 65.1563 31.2621 65.1563H40.3098V63.6113H31.6547Z" fill="black"/>
</g>
<defs>
<radialGradient id="paint0_radial_1024_11598" cx="0" cy="0" r="1" gradientUnits="userSpaceOnUse" gradientTransform="translate(47.8642 47.2802) rotate(90) scale(47.04)">
<stop stop-color="#333944"/>
<stop offset="1" stop-color="#222428"/>
</radialGradient>
</defs>
</svg>
