<svg width="95" height="95" viewBox="0 0 95 95" fill="none" xmlns="http://www.w3.org/2000/svg">
<rect x="0.76868" y="0.777469" width="92.736" height="92.736" rx="13.44" fill="url(#paint0_radial_1024_11541)"/>
<rect x="0.76868" y="0.777469" width="92.736" height="92.736" rx="13.44" stroke="#6886C3" stroke-width="1.344"/>
<g opacity="0.783251">
<g filter="url(#filter0_f_1024_11541)">
<path d="M41.1469 16.3781L16.4789 41.6448C7.13857 50.9851 22.5261 50.2067 28.0944 53.7393C30.669 55.4158 19.8318 57.5712 22.0471 59.7865C24.2026 62.0019 35.0397 64.0376 37.1952 66.193C39.3507 68.4084 32.8244 70.7434 34.9799 72.9588C37.0755 75.1741 42.1048 73.0785 43.003 78.1079C43.6616 81.8201 52.2235 79.964 56.0554 76.7907C58.4504 74.755 51.9241 74.755 54.0796 72.5397C59.4682 67.0911 64.2581 70.0848 66.234 65.0554C67.3117 62.3611 58.0911 60.4452 60.546 58.7088C66.4136 54.5775 87.9681 52.4819 78.0291 42.5429L52.463 16.3781C49.2897 13.3844 44.0807 13.3844 41.1469 16.3781ZM69.4672 65.0554C69.4672 66.3128 79.2266 67.0313 78.6877 64.7561C77.9094 60.9241 70.5449 61.2235 69.4672 65.0554ZM27.8549 71.7014C30.0702 73.6174 33.4232 71.2823 34.5009 68.588C32.3454 65.7739 24.3822 68.7676 27.8549 71.7014ZM68.2697 67.6899C65.5155 70.2046 68.7487 72.839 71.443 71.1027C72.1615 70.6237 71.3831 68.2886 68.2697 67.6899Z" fill="black"/>
</g>
<g opacity="0.576355" filter="url(#filter1_f_1024_11541)">
<path d="M41.1469 16.964L16.4789 42.2307C7.13857 51.5711 22.5261 50.7927 28.0944 54.3252C30.669 56.0017 19.8318 58.1572 22.0471 60.3725C24.2026 62.5878 35.0397 64.6235 37.1952 66.779C39.3507 68.9943 32.8244 71.3294 34.9799 73.5447C37.0755 75.7601 42.1048 73.6645 43.003 78.6939C43.6616 82.4061 52.2235 80.55 56.0554 77.3767C58.4504 75.3409 51.9241 75.3409 54.0796 73.1256C59.4682 67.6771 64.2581 70.6708 66.234 65.6414C67.3117 62.9471 58.0911 61.0311 60.546 59.2948C66.4136 55.1635 87.9681 53.0679 78.0291 43.1289L52.463 16.964C49.2897 13.9703 44.0807 13.9703 41.1469 16.964ZM69.4672 65.6414C69.4672 66.8987 79.2266 67.6172 78.6877 65.342C77.9094 61.5101 70.5449 61.8095 69.4672 65.6414ZM27.8549 72.2874C30.0702 74.2033 33.4232 71.8683 34.5009 69.1739C32.3454 66.3599 24.3822 69.3536 27.8549 72.2874ZM68.2697 68.2758C65.5155 70.7905 68.7487 73.425 71.443 71.6886C72.1615 71.2097 71.3831 68.8746 68.2697 68.2758Z" fill="black"/>
</g>
</g>
<path d="M41.1478 15.7902L16.4799 41.0569C7.13954 50.3972 22.5271 49.6189 28.0954 53.1514C30.6699 54.8279 19.8328 56.9833 22.0481 59.1987C24.2036 61.414 35.0407 63.4497 37.1962 65.6051C39.3516 67.8205 32.8254 70.1556 34.9808 72.3709C37.0764 74.5862 42.1058 72.4906 43.0039 77.52C43.6625 81.2322 52.2245 79.3761 56.0564 76.2028C58.4514 74.1671 51.9251 74.1671 54.0806 71.9518C59.4692 66.5033 64.2591 69.4969 66.2349 64.4675C67.3127 61.7732 58.0921 59.8573 60.5469 58.1209C66.4146 53.9896 87.9691 51.8941 78.0301 41.955L52.464 15.7902C49.2907 12.7965 44.0817 12.7965 41.1478 15.7902ZM69.4681 64.4675C69.4681 65.7249 79.2276 66.4434 78.6887 64.1682C77.9103 60.3363 70.5459 60.6356 69.4681 64.4675ZM27.8559 71.1135C30.0712 73.0295 33.4241 70.6944 34.5019 68.0001C32.3464 65.186 24.3832 68.1797 27.8559 71.1135ZM68.2707 67.102C65.5165 69.6167 68.7496 72.2511 71.444 70.5148C72.1625 70.0358 71.3841 67.7007 68.2707 67.102Z" fill="black"/>
<mask id="mask0_1024_11541" style="mask-type:luminance" maskUnits="userSpaceOnUse" x="13" y="13" width="68" height="67">
<path d="M41.2022 16.0834L16.7675 41.1112C7.51547 50.3632 22.7575 49.5922 28.2731 53.0914C30.8234 54.752 20.0887 56.887 22.2831 59.0814C24.4181 61.2758 35.1528 63.2923 37.2879 65.4273C39.423 67.6217 32.9584 69.9347 35.0935 72.1291C37.1693 74.3235 42.1511 72.2477 43.0407 77.2295C43.6931 80.9066 52.1741 79.0681 55.9698 75.9248C58.3421 73.9083 51.8775 73.9083 54.0126 71.7139C59.3503 66.3169 64.0949 69.2823 66.0521 64.3005C67.1196 61.6316 57.9862 59.7338 60.4178 58.0139C66.23 53.9217 87.5807 51.8459 77.7357 42.0008L52.4113 16.0834C49.268 13.118 44.1083 13.118 41.2022 16.0834ZM35.3307 54.4554C35.8645 54.4554 53.5975 56.8277 46.7771 58.6663C44.1676 59.378 32.1874 54.4554 35.3307 54.4554ZM69.2547 64.3005C69.2547 65.5459 78.9218 66.2576 78.3881 64.004C77.6171 60.2083 70.3222 60.5048 69.2547 64.3005ZM28.0359 70.8836C30.2303 72.7815 33.5515 70.4685 34.619 67.7996C32.484 65.0122 24.5961 67.9776 28.0359 70.8836ZM68.0685 66.91C65.3404 69.4009 68.543 72.0105 71.2118 70.2906C71.9235 69.8161 71.1525 67.5031 68.0685 66.91Z" fill="white"/>
</mask>
<g mask="url(#mask0_1024_11541)">
<path d="M41.2022 16.0834L16.7675 41.1112C7.51547 50.3632 22.7575 49.5922 28.2731 53.0914C30.8234 54.752 20.0887 56.887 22.2831 59.0814C24.4181 61.2758 35.1528 63.2923 37.2879 65.4273C39.423 67.6217 32.9584 69.9347 35.0935 72.1291C37.1693 74.3235 42.1511 72.2477 43.0407 77.2295C43.6931 80.9066 52.1741 79.0681 55.9698 75.9248C58.3421 73.9083 51.8775 73.9083 54.0126 71.7139C59.3503 66.3169 64.0949 69.2823 66.0521 64.3005C67.1196 61.6316 57.9862 59.7338 60.4178 58.0139C66.23 53.9217 87.5807 51.8459 77.7357 42.0008L52.4113 16.0834C49.268 13.118 44.1083 13.118 41.2022 16.0834ZM35.3307 54.4554C35.8645 54.4554 53.5975 56.8277 46.7771 58.6663C44.1676 59.378 32.1874 54.4554 35.3307 54.4554ZM69.2547 64.3005C69.2547 65.5459 78.9218 66.2576 78.3881 64.004C77.6171 60.2083 70.3222 60.5048 69.2547 64.3005ZM28.0359 70.8836C30.2303 72.7815 33.5515 70.4685 34.619 67.7996C32.484 65.0122 24.5961 67.9776 28.0359 70.8836ZM68.0685 66.91C65.3404 69.4009 68.543 72.0105 71.2118 70.2906C71.9235 69.8161 71.1525 67.5031 68.0685 66.91Z" fill="url(#paint1_linear_1024_11541)"/>
</g>
<path opacity="0.505263" d="M18.6737 42.4612C11.9667 49.1078 23.7493 47.2347 32.8129 50.7997L51.5442 17.8688C48.7043 14.9685 45.0789 15.2102 42.4807 17.8688L18.6737 42.4612Z" fill="url(#paint2_linear_1024_11541)"/>
<path d="M50.9668 17.5864L60.7262 27.5254C61.6243 28.4235 61.6243 30.2796 61.0854 30.8185L56.2357 26.8668L55.2777 32.6746L51.2661 30.5191L44.7399 34.6504L42.5844 25.9687L39.1118 33.5128L30.4301 33.4529C28.7536 33.4529 28.9931 31.7166 30.7294 29.9803C34.1422 26.2082 40.7882 19.8017 42.8838 17.5864C45.0393 15.3711 48.8113 15.4309 50.9668 17.5864Z" fill="url(#paint3_linear_1024_11541)"/>
<path opacity="0.216749" fill-rule="evenodd" clip-rule="evenodd" d="M37.5719 64.543C37.5719 64.543 38.6312 66.1605 38.5233 66.9214C38.3114 68.4146 35.0954 69.1597 35.8079 70.489C36.5119 71.8022 39.0493 71.0579 41.1791 72.4313C43.2999 73.7989 42.7297 76.5861 44.2711 77.2872C47.2771 78.6547 55.1721 74.9287 54.7757 75.0079C54.3793 75.0872 46.984 76.6238 45.3191 75.2761C43.4209 73.7394 42.8766 72.6661 41.4765 71.7575C40.1644 70.906 38.3212 70.5586 37.8922 69.8615C37.4632 69.1644 38.7514 68.2649 38.8404 66.9214C38.8939 66.1145 37.5719 64.543 37.5719 64.543Z" fill="url(#paint4_radial_1024_11541)"/>
<g opacity="0.275862" filter="url(#filter2_f_1024_11541)">
<path fill-rule="evenodd" clip-rule="evenodd" d="M37.5719 64.543C37.5719 64.543 38.6312 66.1605 38.5233 66.9214C38.3114 68.4146 35.0954 69.1597 35.8079 70.489C36.5119 71.8022 39.0493 71.0579 41.1791 72.4313C43.2999 73.7989 42.7297 76.5861 44.2711 77.2872C47.2771 78.6547 55.1721 74.9287 54.7757 75.0079C41.6661 75.0578 44.1126 71.6799 39.0584 69.4583C38.3281 69.1373 38.7514 68.2649 38.8404 66.9214C38.8939 66.1145 37.5719 64.543 37.5719 64.543Z" fill="url(#paint5_radial_1024_11541)"/>
</g>
<path opacity="0.453202" fill-rule="evenodd" clip-rule="evenodd" d="M59.8489 57.6438C71.6153 53.3137 75.3953 52.7188 79.2726 48.8438C74.7819 52.6345 65.288 54.6679 57.5498 58.0402L59.8489 57.6438Z" fill="url(#paint6_radial_1024_11541)"/>
<g opacity="0.512315" filter="url(#filter3_f_1024_11541)">
<path fill-rule="evenodd" clip-rule="evenodd" d="M59.8489 57.0872C79.2262 50.2201 75.9503 50.2594 79.2726 48.2871C73.1116 50.6454 61.598 50.8969 57.5498 57.4836L59.8489 57.0872Z" fill="url(#paint7_radial_1024_11541)"/>
</g>
<path opacity="0.285714" d="M76.7755 62.5777C76.7755 62.7827 76.5103 62.9793 76.0382 63.1242C75.5662 63.2692 74.9259 63.3506 74.2584 63.3506C73.5908 63.3506 72.9505 63.2692 72.4785 63.1242C72.0064 62.9793 71.7412 62.7827 71.7412 62.5777C71.7412 62.3727 72.0064 62.1761 72.4785 62.0311C72.9505 61.8861 73.5908 61.8047 74.2584 61.8047C74.9259 61.8047 75.5662 61.8861 76.0382 62.0311C76.5103 62.1761 76.7755 62.3727 76.7755 62.5777Z" fill="url(#paint8_linear_1024_11541)"/>
<g opacity="0.620689" filter="url(#filter4_f_1024_11541)">
<path d="M77.6486 63.4696C77.6486 63.9111 77.2915 64.3346 76.6559 64.6468C76.0203 64.959 75.1582 65.1345 74.2593 65.1345C73.3605 65.1345 72.4984 64.959 71.8628 64.6468C71.2272 64.3346 70.8701 63.9111 70.8701 63.4696C70.8701 63.028 71.2272 62.6045 71.8628 62.2923C72.4984 61.9801 73.3605 61.8047 74.2593 61.8047C75.1582 61.8047 76.0203 61.9801 76.6559 62.2923C77.2915 62.6045 77.6486 63.028 77.6486 63.4696Z" fill="url(#paint9_linear_1024_11541)"/>
</g>
<g filter="url(#filter5_f_1024_11541)">
<path fill-rule="evenodd" clip-rule="evenodd" d="M69.6406 64.3933C70.836 65.4982 77.4912 66.0652 78.5795 64.0762C76.4431 65.5932 71.6926 65.0601 69.6406 64.3933Z" fill="url(#paint10_radial_1024_11541)"/>
</g>
<path opacity="0.285714" d="M69.6652 68.0831C69.7234 68.1976 69.7604 68.3214 69.7741 68.4476C69.7878 68.5737 69.778 68.6996 69.7452 68.8181C69.7123 68.9367 69.6572 69.0455 69.5828 69.1383C69.5084 69.2312 69.4163 69.3063 69.3117 69.3593C69.2071 69.4123 69.0921 69.4423 68.9732 69.4474C68.8544 69.4525 68.734 69.4327 68.619 69.3891C68.504 69.3456 68.3966 69.2791 68.3029 69.1935C68.2093 69.1079 68.1313 69.0048 68.0733 68.8902C68.0151 68.7757 67.9781 68.6519 67.9644 68.5257C67.9507 68.3996 67.9605 68.2737 67.9933 68.1552C68.0261 68.0366 68.0813 67.9278 68.1557 67.835C68.2301 67.7421 68.3222 67.667 68.4268 67.614C68.5314 67.561 68.6464 67.5311 68.7653 67.5259C68.8841 67.5208 69.0045 67.5406 69.1195 67.5842C69.2345 67.6277 69.3419 67.6942 69.4355 67.7798C69.5292 67.8654 69.6072 67.9685 69.6652 68.0831Z" fill="url(#paint11_linear_1024_11541)"/>
<g opacity="0.620689" filter="url(#filter6_f_1024_11541)">
<path d="M70.1364 68.2964C70.2233 68.4676 70.2793 68.6524 70.3013 68.8403C70.3232 69.0281 70.3105 69.2153 70.2641 69.3912C70.2176 69.567 70.1382 69.7281 70.0305 69.8652C69.9227 70.0022 69.7887 70.1126 69.636 70.19C69.4834 70.2674 69.3152 70.3103 69.1409 70.3162C68.9667 70.3221 68.7898 70.291 68.6205 70.2245C68.4512 70.1581 68.2927 70.0576 68.1541 69.9289C68.0155 69.8002 67.8996 69.6458 67.8128 69.4745C67.7259 69.3033 67.6699 69.1184 67.6479 68.9306C67.626 68.7427 67.6387 68.5555 67.6851 68.3797C67.7316 68.2038 67.811 68.0428 67.9187 67.9057C68.0265 67.7686 68.1605 67.6583 68.3132 67.5809C68.4658 67.5035 68.634 67.4606 68.8083 67.4547C68.9825 67.4488 69.1594 67.4799 69.3287 67.5464C69.498 67.6128 69.6565 67.7133 69.7951 67.8419C69.9337 67.9706 70.0496 68.1251 70.1364 68.2964Z" fill="url(#paint12_linear_1024_11541)"/>
</g>
<g filter="url(#filter7_f_1024_11541)">
<path fill-rule="evenodd" clip-rule="evenodd" d="M68.0078 70.3164C68.9685 71.0682 72.5841 71.1645 71.2124 68.9795C71.5701 70.6908 69.1007 70.5099 68.0078 70.3164Z" fill="url(#paint13_radial_1024_11541)"/>
</g>
<path fill-rule="evenodd" clip-rule="evenodd" d="M23.3809 58.9895C23.3809 58.7927 35.6998 62.7437 37.8098 64.8562C36.0748 63.1633 27.2942 59.2698 25.9575 59.2273C24.6207 59.1849 23.5394 59.0688 23.3809 58.9895Z" fill="url(#paint14_radial_1024_11541)"/>
<path opacity="0.285714" d="M32.6343 67.4531C32.6822 67.5957 32.4951 67.7837 32.114 67.9757C31.733 68.1677 31.1892 68.348 30.6024 68.4768C30.0156 68.6056 29.4338 68.6725 28.9849 68.6628C28.5361 68.653 28.257 68.5673 28.2091 68.4247C28.1611 68.282 28.3483 68.094 28.7293 67.902C29.1104 67.71 29.6541 67.5298 30.2409 67.4009C30.8277 67.2721 31.4096 67.2052 31.8584 67.215C32.3073 67.2247 32.5863 67.3104 32.6343 67.4531Z" fill="url(#paint15_linear_1024_11541)"/>
<g opacity="0.620689" filter="url(#filter8_f_1024_11541)">
<path d="M33.6104 67.9051C33.7136 68.2124 33.4988 68.576 33.0131 68.916C32.5274 69.2559 31.8106 69.5444 31.0205 69.7179C30.2304 69.8913 29.4316 69.9356 28.7999 69.841C28.1682 69.7464 27.7553 69.5206 27.652 69.2133C27.5488 68.906 27.7636 68.5424 28.2493 68.2025C28.735 67.8625 29.4517 67.5741 30.2419 67.4006C31.032 67.2271 31.8308 67.1828 32.4625 67.2774C33.0942 67.372 33.5071 67.5978 33.6104 67.9051Z" fill="url(#paint16_linear_1024_11541)"/>
</g>
<g opacity="0.615764" filter="url(#filter9_f_1024_11541)">
<path fill-rule="evenodd" clip-rule="evenodd" d="M27.3252 69.4565C27.3252 69.4565 27.9922 71.2485 29.8225 71.3394C31.6741 71.4314 33.7876 69.1173 33.9649 68.2871C33.6478 69.0006 31.875 71.1517 29.5847 71.1214C28.2845 71.1041 27.3252 69.4565 27.3252 69.4565Z" fill="url(#paint17_radial_1024_11541)"/>
</g>
<g filter="url(#filter10_f_1024_11541)">
<path d="M46.7189 14.4258C44.8639 14.4258 43.0459 15.0976 41.7606 16.4091L17.1001 41.6683C14.8455 43.923 14.3039 45.3989 14.4432 46.2337C14.5129 46.6511 14.7178 47.0139 15.1542 47.3938C15.5907 47.7737 16.2508 48.146 17.044 48.479C18.6304 49.1449 20.7669 49.6813 22.863 50.2565C24.959 50.8317 27.0121 51.4388 28.5697 52.4269C28.8072 52.5815 29.0302 52.7721 29.1872 53.0444C29.3441 53.3167 29.3992 53.6767 29.3368 53.9799C29.212 54.5863 28.8387 54.9061 28.4574 55.1961C27.695 55.776 26.6473 56.2578 25.5947 56.7678C24.5422 57.2777 23.4842 57.7995 22.9565 58.2272C22.6927 58.441 22.5972 58.6332 22.601 58.6201C22.6049 58.607 22.5311 58.4566 22.6572 58.5827C22.9875 58.9222 24.0187 59.5036 25.3328 60.0234C26.6468 60.5431 28.255 61.0686 29.8794 61.5951C31.5039 62.1216 33.1471 62.6428 34.5384 63.1855C35.9297 63.7281 37.0637 64.2326 37.8127 64.9817C38.1855 65.3649 38.449 65.8414 38.505 66.3288C38.5611 66.8162 38.4291 67.2737 38.2431 67.6573C37.871 68.4245 37.2729 69.0147 36.7275 69.5845C36.1821 70.1542 35.688 70.6983 35.5113 71.0626C35.423 71.2448 35.4093 71.3634 35.4178 71.4368C35.4262 71.5102 35.4388 71.5843 35.6049 71.7549C35.6112 71.761 35.6174 71.7673 35.6236 71.7736C36.3382 72.5291 37.891 72.6353 39.6464 73.0459C40.524 73.2512 41.4419 73.562 42.2284 74.2434C43.0149 74.9248 43.6052 75.9621 43.8562 77.3681C43.9619 77.9636 44.277 78.2535 45.035 78.4907C45.793 78.7279 46.9476 78.7694 48.2158 78.5843C50.7522 78.2139 53.7601 76.9705 55.4942 75.5344C55.602 75.4428 55.572 75.467 55.6065 75.4222C55.4898 75.3387 55.2163 75.1608 54.7645 74.9357C54.2307 74.6697 53.6001 74.421 53.1179 73.8131C52.8769 73.5091 52.7109 73.0291 52.7812 72.5595C52.8514 72.0898 53.1086 71.6991 53.4547 71.3433C56.2962 68.4702 59.096 67.7843 61.2009 67.227C62.2534 66.9483 63.1344 66.6933 63.8017 66.2727C64.4689 65.8521 64.9902 65.2766 65.4295 64.1584C65.4779 64.0374 65.4765 64.0022 65.4108 63.8591C65.345 63.7159 65.1686 63.4868 64.8869 63.2416C64.3234 62.7512 63.3838 62.2242 62.4545 61.7073C61.5252 61.1904 60.6221 60.7085 59.966 60.0982C59.638 59.7931 59.2942 59.4087 59.255 58.8259C59.2158 58.2431 59.5978 57.7173 60.0409 57.4039C61.6848 56.2464 64.1699 55.3653 66.8702 54.4289C69.5705 53.4926 72.4751 52.5237 74.8409 51.4165C77.2067 50.3094 78.9466 49.0344 79.4998 47.7493C79.7764 47.1067 79.8271 46.4568 79.5372 45.6163C79.2474 44.7757 78.5855 43.7477 77.4042 42.5664L51.8643 16.4278C51.8579 16.4218 51.8521 16.4151 51.8456 16.4091C50.434 15.0872 48.5655 14.4258 46.7189 14.4258ZM74.2235 62.3248C72.6456 62.3817 71.1941 63.104 70.5749 64.2333C70.7508 64.2994 70.9092 64.3739 71.1923 64.4391C72.016 64.6286 73.1654 64.7509 74.2983 64.7759C75.4311 64.8009 76.564 64.7055 77.2546 64.5139C77.5568 64.43 77.717 64.3452 77.7972 64.2894C77.644 63.6361 77.2793 63.1745 76.6558 62.83C76.01 62.4732 75.125 62.2922 74.2235 62.3248ZM32.0125 67.7508C30.7612 67.6638 29.1885 68.1619 28.42 68.7799C28.0358 69.0889 27.8732 69.3753 27.8587 69.5658C27.8442 69.7562 27.905 70.01 28.42 70.4452C28.4201 70.4514 28.4201 70.4576 28.42 70.4638C29.23 71.1644 30.1457 71.0913 31.1892 70.52C32.0639 70.041 32.84 69.1424 33.3596 68.1998C33.0093 67.9739 32.5905 67.7911 32.0125 67.7508ZM68.5354 68.1251C68.2676 68.4655 68.1218 68.7825 68.1051 69.0045C68.0821 69.3109 68.1689 69.5476 68.4045 69.7716C68.8459 70.1913 69.805 70.372 70.7807 69.8464C70.7614 69.7332 70.7248 69.5615 70.5749 69.3412C70.2756 68.9017 69.5758 68.4281 68.5354 68.1251Z" stroke="url(#paint18_radial_1024_11541)" stroke-width="0.292368"/>
</g>
<g opacity="0.325123" filter="url(#filter11_f_1024_11541)">
<path fill-rule="evenodd" clip-rule="evenodd" d="M33.1981 53.9824C31.7098 54.4215 26.8853 56.2445 27.57 57.637C28.226 58.971 39.4435 59.5086 41.1651 63.4844C41.9159 65.2181 39.4424 66.5259 40.0687 68.3084C40.5511 69.681 44.2823 73.1298 46.6429 74.7603C48.4945 76.0393 50.9264 73.7305 49.9362 71.8168C48.3586 68.7682 55.3282 65.0342 58.4879 63.3382C60.3314 62.3487 54.6871 57.4908 54.6871 57.4908L33.1981 53.9824Z" fill="url(#paint19_linear_1024_11541)"/>
</g>
<path fill-rule="evenodd" clip-rule="evenodd" d="M33.7487 55.3275C35.0851 56.309 37.7224 55.717 39.3063 56.4302C43.108 58.1422 47.7814 60.0499 46.9213 56.6725L45.9539 57.476L45.935 55.9447L43.6886 56.4933C43.6886 56.4933 41.9486 55.0966 41.1508 54.636C40.9842 54.5398 40.1284 55.4101 40.1284 55.4101L39.9745 54.4858C38.8624 54.3674 37.7615 54.3152 36.7921 54.323C34.4685 54.3417 32.9009 54.7049 33.7487 55.3275Z" fill="url(#paint20_linear_1024_11541)"/>
<g opacity="0.477832" filter="url(#filter12_f_1024_11541)">
<path fill-rule="evenodd" clip-rule="evenodd" d="M58.708 58.4395C58.1935 60.3335 65.0312 62.9068 64.5188 64.2137C63.3905 67.0911 57.2166 65.131 52.4952 71.1574C51.8189 72.0207 53.4454 75.1044 53.2261 74.7389C53.0068 74.3735 51.3359 71.8261 51.7642 70.5727C53.1074 66.6418 66.094 65.1763 63.7148 63.3001C62.3465 62.2211 57.4273 59.2399 58.708 58.4395Z" fill="url(#paint21_radial_1024_11541)"/>
</g>
<path opacity="0.586207" d="M74.0931 62.3321C74.0931 62.4145 74.0142 62.4935 73.8737 62.5518C73.7332 62.61 73.5426 62.6428 73.3439 62.6428C73.1452 62.6428 72.9547 62.61 72.8142 62.5518C72.6737 62.4935 72.5947 62.4145 72.5947 62.3321C72.5947 62.2497 72.6737 62.1707 72.8142 62.1125C72.9547 62.0542 73.1452 62.0215 73.3439 62.0215C73.5426 62.0215 73.7332 62.0542 73.8737 62.1125C74.0142 62.1707 74.0931 62.2497 74.0931 62.3321Z" fill="white"/>
<path opacity="0.586207" d="M69.0869 68.0685C69.0869 68.1508 69.0369 68.2299 68.9478 68.2881C68.8587 68.3464 68.7378 68.3791 68.6118 68.3791C68.4858 68.3791 68.365 68.3464 68.2759 68.2881C68.1868 68.2299 68.1367 68.1508 68.1367 68.0685C68.1367 67.9861 68.1868 67.9071 68.2759 67.8488C68.365 67.7905 68.4858 67.7578 68.6118 67.7578C68.7378 67.7578 68.8587 67.7905 68.9478 67.8488C69.0369 67.9071 69.0869 67.9861 69.0869 68.0685Z" fill="white"/>
<path opacity="0.586207" d="M31.1879 67.795C31.1879 67.8774 31.0994 67.9564 30.9418 68.0147C30.7841 68.0729 30.5703 68.1057 30.3474 68.1057C30.1245 68.1057 29.9107 68.0729 29.753 68.0147C29.5954 67.9564 29.5068 67.8774 29.5068 67.795C29.5068 67.7126 29.5954 67.6336 29.753 67.5754C29.9107 67.5171 30.1245 67.4844 30.3474 67.4844C30.5703 67.4844 30.7841 67.5171 30.9418 67.5754C31.0994 67.6336 31.1879 67.7126 31.1879 67.795Z" fill="white"/>
<path opacity="0.251232" d="M30.7133 54.127C26.4305 56.7758 19.7719 57.7399 27.0587 59.4992C26.1907 57.5664 28.9379 57.7796 30.7133 54.127Z" fill="url(#paint22_linear_1024_11541)"/>
<g opacity="0.363158" filter="url(#filter13_f_1024_11541)">
<path d="M45.9168 78.2485C45.9168 78.2485 52.5219 77.6263 54.0499 75.7205C54.9438 74.6055 50.4972 73.3044 51.4571 72.2121C55.0678 68.1031 58.1028 68.2747 62.2894 66.5538C66.4759 64.8328 64.931 63.99 63.5769 63.2343C61.2577 61.9402 56.096 60.5614 57.8035 57.4904C59.5217 54.4001 74.5688 50.1081 74.5688 50.1081C79.1286 48.5502 78.5564 45.733 76.323 43.3836L62.8741 30.0078C62.8741 30.0078 63.5416 42.6932 60.8275 48.1346C57.4736 54.8588 39.618 62.3617 47.0862 63.1915C49.7175 63.4839 50.9808 64.3816 52.0565 66.4076C54.2716 70.5793 45.9168 78.2485 45.9168 78.2485Z" fill="url(#paint23_linear_1024_11541)"/>
</g>
<defs>
<filter id="filter0_f_1024_11541" x="12.5716" y="13.1683" width="69.0033" height="67.9583" filterUnits="userSpaceOnUse" color-interpolation-filters="sRGB">
<feFlood flood-opacity="0" result="BackgroundImageFix"/>
<feBlend mode="normal" in="SourceGraphic" in2="BackgroundImageFix" result="shape"/>
<feGaussianBlur stdDeviation="0.482262" result="effect1_foregroundBlur_1024_11541"/>
</filter>
<filter id="filter1_f_1024_11541" x="9.35653" y="10.5391" width="75.4334" height="74.3885" filterUnits="userSpaceOnUse" color-interpolation-filters="sRGB">
<feFlood flood-opacity="0" result="BackgroundImageFix"/>
<feBlend mode="normal" in="SourceGraphic" in2="BackgroundImageFix" result="shape"/>
<feGaussianBlur stdDeviation="2.0898" result="effect1_foregroundBlur_1024_11541"/>
</filter>
<filter id="filter2_f_1024_11541" x="34.4633" y="63.3012" width="21.5685" height="15.5304" filterUnits="userSpaceOnUse" color-interpolation-filters="sRGB">
<feFlood flood-opacity="0" result="BackgroundImageFix"/>
<feBlend mode="normal" in="SourceGraphic" in2="BackgroundImageFix" result="shape"/>
<feGaussianBlur stdDeviation="0.620892" result="effect1_foregroundBlur_1024_11541"/>
</filter>
<filter id="filter3_f_1024_11541" x="56.2055" y="46.9428" width="24.4113" height="11.8859" filterUnits="userSpaceOnUse" color-interpolation-filters="sRGB">
<feFlood flood-opacity="0" result="BackgroundImageFix"/>
<feBlend mode="normal" in="SourceGraphic" in2="BackgroundImageFix" result="shape"/>
<feGaussianBlur stdDeviation="0.672157" result="effect1_foregroundBlur_1024_11541"/>
</filter>
<filter id="filter4_f_1024_11541" x="70.2597" y="61.1943" width="7.99916" height="4.55092" filterUnits="userSpaceOnUse" color-interpolation-filters="sRGB">
<feFlood flood-opacity="0" result="BackgroundImageFix"/>
<feBlend mode="normal" in="SourceGraphic" in2="BackgroundImageFix" result="shape"/>
<feGaussianBlur stdDeviation="0.30521" result="effect1_foregroundBlur_1024_11541"/>
</filter>
<filter id="filter5_f_1024_11541" x="69.1202" y="63.5558" width="9.9793" height="2.36113" filterUnits="userSpaceOnUse" color-interpolation-filters="sRGB">
<feFlood flood-opacity="0" result="BackgroundImageFix"/>
<feBlend mode="normal" in="SourceGraphic" in2="BackgroundImageFix" result="shape"/>
<feGaussianBlur stdDeviation="0.260205" result="effect1_foregroundBlur_1024_11541"/>
</filter>
<filter id="filter6_f_1024_11541" x="67.2363" y="67.0517" width="3.47659" height="3.66604" filterUnits="userSpaceOnUse" color-interpolation-filters="sRGB">
<feFlood flood-opacity="0" result="BackgroundImageFix"/>
<feBlend mode="normal" in="SourceGraphic" in2="BackgroundImageFix" result="shape"/>
<feGaussianBlur stdDeviation="0.200691" result="effect1_foregroundBlur_1024_11541"/>
</filter>
<filter id="filter7_f_1024_11541" x="67.6656" y="68.6363" width="4.19611" height="2.50666" filterUnits="userSpaceOnUse" color-interpolation-filters="sRGB">
<feFlood flood-opacity="0" result="BackgroundImageFix"/>
<feBlend mode="normal" in="SourceGraphic" in2="BackgroundImageFix" result="shape"/>
<feGaussianBlur stdDeviation="0.171098" result="effect1_foregroundBlur_1024_11541"/>
</filter>
<filter id="filter8_f_1024_11541" x="27.1308" y="66.7323" width="7.00114" height="3.65446" filterUnits="userSpaceOnUse" color-interpolation-filters="sRGB">
<feFlood flood-opacity="0" result="BackgroundImageFix"/>
<feBlend mode="normal" in="SourceGraphic" in2="BackgroundImageFix" result="shape"/>
<feGaussianBlur stdDeviation="0.248087" result="effect1_foregroundBlur_1024_11541"/>
</filter>
<filter id="filter9_f_1024_11541" x="26.9037" y="67.8656" width="7.48266" height="3.8977" filterUnits="userSpaceOnUse" color-interpolation-filters="sRGB">
<feFlood flood-opacity="0" result="BackgroundImageFix"/>
<feBlend mode="normal" in="SourceGraphic" in2="BackgroundImageFix" result="shape"/>
<feGaussianBlur stdDeviation="0.210753" result="effect1_foregroundBlur_1024_11541"/>
</filter>
<filter id="filter10_f_1024_11541" x="13.8859" y="13.8888" width="66.3835" height="65.3474" filterUnits="userSpaceOnUse" color-interpolation-filters="sRGB">
<feFlood flood-opacity="0" result="BackgroundImageFix"/>
<feBlend mode="normal" in="SourceGraphic" in2="BackgroundImageFix" result="shape"/>
<feGaussianBlur stdDeviation="0.195252" result="effect1_foregroundBlur_1024_11541"/>
</filter>
<filter id="filter11_f_1024_11541" x="25.3481" y="51.8266" width="35.6661" height="25.4581" filterUnits="userSpaceOnUse" color-interpolation-filters="sRGB">
<feFlood flood-opacity="0" result="BackgroundImageFix"/>
<feBlend mode="normal" in="SourceGraphic" in2="BackgroundImageFix" result="shape"/>
<feGaussianBlur stdDeviation="1.07791" result="effect1_foregroundBlur_1024_11541"/>
</filter>
<filter id="filter12_f_1024_11541" x="50.9687" y="57.7138" width="14.3028" height="17.7813" filterUnits="userSpaceOnUse" color-interpolation-filters="sRGB">
<feFlood flood-opacity="0" result="BackgroundImageFix"/>
<feBlend mode="normal" in="SourceGraphic" in2="BackgroundImageFix" result="shape"/>
<feGaussianBlur stdDeviation="0.362809" result="effect1_foregroundBlur_1024_11541"/>
</filter>
<filter id="filter13_f_1024_11541" x="43.6578" y="28.3883" width="35.9744" height="51.4793" filterUnits="userSpaceOnUse" color-interpolation-filters="sRGB">
<feFlood flood-opacity="0" result="BackgroundImageFix"/>
<feBlend mode="normal" in="SourceGraphic" in2="BackgroundImageFix" result="shape"/>
<feGaussianBlur stdDeviation="0.809763" result="effect1_foregroundBlur_1024_11541"/>
</filter>
<radialGradient id="paint0_radial_1024_11541" cx="0" cy="0" r="1" gradientUnits="userSpaceOnUse" gradientTransform="translate(47.1367 47.1455) rotate(90) scale(47.04)">
<stop stop-color="#333944"/>
<stop offset="1" stop-color="#222428"/>
</radialGradient>
<linearGradient id="paint1_linear_1024_11541" x1="57.8193" y1="20.5315" x2="44.7013" y2="32.393" gradientUnits="userSpaceOnUse">
<stop stop-color="#C0CDF9"/>
<stop offset="1" stop-color="#07092D" stop-opacity="0.288043"/>
</linearGradient>
<linearGradient id="paint2_linear_1024_11541" x1="28.4624" y1="29.2284" x2="43.5683" y2="44.3344" gradientUnits="userSpaceOnUse">
<stop stop-color="white"/>
<stop offset="1" stop-color="white" stop-opacity="0"/>
</linearGradient>
<linearGradient id="paint3_linear_1024_11541" x1="44.68" y1="20.2807" x2="62.6421" y2="38.2428" gradientUnits="userSpaceOnUse">
<stop stop-color="white"/>
<stop offset="1" stop-color="white" stop-opacity="0"/>
</linearGradient>
<radialGradient id="paint4_radial_1024_11541" cx="0" cy="0" r="1" gradientUnits="userSpaceOnUse" gradientTransform="translate(35.7051 76.6188) scale(15.2354 10.198)">
<stop stop-color="white"/>
<stop offset="1" stop-color="white" stop-opacity="0"/>
</radialGradient>
<radialGradient id="paint5_radial_1024_11541" cx="0" cy="0" r="1" gradientUnits="userSpaceOnUse" gradientTransform="translate(43.7381 76.9843) scale(19.4391 13.0117)">
<stop stop-color="white"/>
<stop offset="1" stop-color="white" stop-opacity="0"/>
</radialGradient>
<radialGradient id="paint6_radial_1024_11541" cx="0" cy="0" r="1" gradientUnits="userSpaceOnUse" gradientTransform="translate(68.4112 53.442) scale(10.8614 4.59825)">
<stop stop-color="white"/>
<stop offset="1" stop-color="white" stop-opacity="0"/>
</radialGradient>
<radialGradient id="paint7_radial_1024_11541" cx="0" cy="0" r="1" gradientUnits="userSpaceOnUse" gradientTransform="translate(70.7103 54.7088) scale(10.8614 4.59825)">
<stop stop-color="white"/>
<stop offset="1" stop-color="white" stop-opacity="0"/>
</radialGradient>
<linearGradient id="paint8_linear_1024_11541" x1="74.7935" y1="61.3488" x2="74.8331" y2="63.3506" gradientUnits="userSpaceOnUse">
<stop stop-color="white"/>
<stop offset="1" stop-color="white" stop-opacity="0"/>
</linearGradient>
<linearGradient id="paint9_linear_1024_11541" x1="74.8738" y1="61.1191" x2="74.8738" y2="64.1587" gradientUnits="userSpaceOnUse">
<stop stop-color="white"/>
<stop offset="1" stop-color="white" stop-opacity="0"/>
</linearGradient>
<radialGradient id="paint10_radial_1024_11541" cx="0" cy="0" r="1" gradientUnits="userSpaceOnUse" gradientTransform="translate(74.11 64.7365) scale(4.46942 0.660336)">
<stop stop-color="white"/>
<stop offset="1" stop-color="white" stop-opacity="0"/>
</radialGradient>
<linearGradient id="paint11_linear_1024_11541" x1="68.5199" y1="67.286" x2="69.5053" y2="69.027" gradientUnits="userSpaceOnUse">
<stop stop-color="white"/>
<stop offset="1" stop-color="white" stop-opacity="0"/>
</linearGradient>
<linearGradient id="paint12_linear_1024_11541" x1="68.1486" y1="66.6689" x2="69.5232" y2="69.3799" gradientUnits="userSpaceOnUse">
<stop stop-color="white"/>
<stop offset="1" stop-color="white" stop-opacity="0"/>
</linearGradient>
<radialGradient id="paint13_radial_1024_11541" cx="0" cy="0" r="1" gradientUnits="userSpaceOnUse" gradientTransform="translate(69.7875 70.4423) rotate(-26.8861) scale(1.93245 0.660336)">
<stop stop-color="white"/>
<stop offset="1" stop-color="white" stop-opacity="0"/>
</radialGradient>
<radialGradient id="paint14_radial_1024_11541" cx="0" cy="0" r="1" gradientUnits="userSpaceOnUse" gradientTransform="translate(30.2386 60.968) scale(7.21449 2.93691)">
<stop stop-color="white" stop-opacity="0.330049"/>
<stop offset="1" stop-color="white" stop-opacity="0"/>
</radialGradient>
<linearGradient id="paint15_linear_1024_11541" x1="30.6047" y1="66.9804" x2="30.9417" y2="68.4051" gradientUnits="userSpaceOnUse">
<stop stop-color="white"/>
<stop offset="1" stop-color="white" stop-opacity="0"/>
</linearGradient>
<linearGradient id="paint16_linear_1024_11541" x1="30.6217" y1="66.8049" x2="31.0974" y2="68.9718" gradientUnits="userSpaceOnUse">
<stop stop-color="white"/>
<stop offset="1" stop-color="white" stop-opacity="0"/>
</linearGradient>
<radialGradient id="paint17_radial_1024_11541" cx="0" cy="0" r="1" gradientUnits="userSpaceOnUse" gradientTransform="translate(30.427 71.2218) rotate(-15.4869) scale(4.0825 1.52747)">
<stop stop-color="white"/>
<stop offset="1" stop-color="white" stop-opacity="0"/>
</radialGradient>
<radialGradient id="paint18_radial_1024_11541" cx="0" cy="0" r="1" gradientUnits="userSpaceOnUse" gradientTransform="translate(49.7088 21.4192) scale(56.4881 55.5967)">
<stop stop-color="white"/>
<stop offset="1" stop-color="white" stop-opacity="0"/>
</radialGradient>
<linearGradient id="paint19_linear_1024_11541" x1="33.1981" y1="64.5557" x2="50.1554" y2="69.0394" gradientUnits="userSpaceOnUse">
<stop stop-color="white"/>
<stop offset="1" stop-color="white" stop-opacity="0"/>
</linearGradient>
<linearGradient id="paint20_linear_1024_11541" x1="42.1874" y1="54.2462" x2="40.2826" y2="58.6105" gradientUnits="userSpaceOnUse">
<stop stop-color="#EEEEEC"/>
<stop offset="1" stop-color="#EEEEEC" stop-opacity="0"/>
</linearGradient>
<radialGradient id="paint21_radial_1024_11541" cx="0" cy="0" r="1" gradientUnits="userSpaceOnUse" gradientTransform="translate(58.2628 66.4214) scale(8.87741 11.2818)">
<stop stop-color="white"/>
<stop offset="1" stop-color="white" stop-opacity="0"/>
</radialGradient>
<linearGradient id="paint22_linear_1024_11541" x1="26.9125" y1="55.735" x2="29.5804" y2="57.8546" gradientUnits="userSpaceOnUse">
<stop stop-color="white"/>
<stop offset="1" stop-color="white" stop-opacity="0"/>
</linearGradient>
<linearGradient id="paint23_linear_1024_11541" x1="58.1415" y1="67.2847" x2="50.2147" y2="45.9418" gradientUnits="userSpaceOnUse">
<stop stop-color="#729FCF"/>
<stop offset="1" stop-color="#729FCF" stop-opacity="0"/>
</linearGradient>
</defs>
</svg>
