<svg width="95" height="95" viewBox="0 0 95 95" fill="none" xmlns="http://www.w3.org/2000/svg">
<rect x="0.903445" y="0.929812" width="92.736" height="92.736" rx="13.44" fill="url(#paint0_radial_1024_11460)"/>
<rect x="0.903445" y="0.929812" width="92.736" height="92.736" rx="13.44" stroke="#6886C3" stroke-width="1.344"/>
<path d="M61.741 39.1094L76.126 47.6144V64.4144L61.741 72.7094L47.251 64.4144V47.6144L61.741 39.1094Z" fill="#00B46F"/>
<path d="M47.2517 13.6973L61.7417 22.3073V39.1073L47.2517 47.2973L32.7617 39.1073V22.3073L47.2517 13.6973Z" fill="#2294D9"/>
<path d="M61.741 22.3086L76.126 30.8136V47.6136L61.741 55.9086L47.251 47.6136V30.8136L61.741 22.3086Z" fill="#2294D9"/>
<path d="M32.761 22.3086L47.251 30.8136V47.6136L32.761 55.9086L18.376 47.6136V30.8136L32.761 22.3086Z" fill="#F85551"/>
<path d="M32.761 39.1094L47.251 47.6144V64.4144L32.761 72.7094L18.376 64.4144V47.6144L32.761 39.1094Z" fill="#F85551"/>
<path d="M47.2517 47.2969L61.7417 55.9069V72.7069L47.2517 80.8969L32.7617 72.7069V55.9069L47.2517 47.2969Z" fill="#00B46F"/>
<path d="M61.7417 22.3073L47.2517 30.8123L32.7617 22.3073L47.2517 13.6973L61.7417 22.3073ZM76.1267 30.8123L61.6367 39.4223L47.2517 30.8123L61.7417 22.2023L76.1267 30.8123Z" fill="#30B2E9"/>
<path d="M47.2517 64.0969V47.2969L32.7617 55.9069V72.7069L47.2517 64.0969Z" fill="#00AB64"/>
<path d="M61.7417 55.9069L47.2517 64.0969L32.7617 55.9069L47.2517 47.2969L61.7417 55.9069Z" fill="#00CE8E"/>
<path d="M47.2517 64.0969L32.7617 55.9069L47.2517 47.2969V64.0969Z" fill="#00C783"/>
<path d="M47.2517 30.8123L32.7617 22.3073L47.2517 13.6973V30.8123Z" fill="#2CAEE7"/>
<path d="M47.251 30.8136L32.761 39.4236L18.376 30.8136L32.761 22.3086L47.251 30.8136Z" fill="#FB716C"/>
<path d="M76.126 47.6119L61.741 55.9069L47.251 47.2969L61.741 39.4219L76.126 47.6119Z" fill="#1F8ED6"/>
<path d="M32.551 72.4973L18.376 64.3073L32.551 55.6973V72.4973Z" fill="#F64743"/>
<path d="M32.7617 39.4236V22.3086L47.2517 30.8136V47.2986L32.7617 39.4236Z" fill="#F96560"/>
<path d="M47.2517 47.2975V30.8125L32.7617 39.4225V55.9075L47.2517 47.2975Z" fill="#B71D1D"/>
<path d="M47.2517 47.2975L32.7617 39.4225L47.2517 30.8125V47.2975Z" fill="#B21A1A"/>
<path d="M76.1262 64.4133L61.7412 55.9083L76.1262 47.6133V64.4133Z" fill="#10161A" fill-opacity="0.2"/>
<path d="M61.741 72.7083V55.9083L47.251 64.0983V80.8983L61.741 72.7083ZM76.126 64.4133V47.6133L61.636 55.8033V72.6033L76.126 64.4133Z" fill="#007233"/>
<path d="M76.1262 64.4133L61.7412 55.9083L76.1262 47.6133V64.4133Z" fill="#00682C"/>
<path d="M76.1262 47.6125V30.8125L61.7412 39.4225V55.9075L76.1262 47.6125Z" fill="#0759BA"/>
<path d="M76.1262 47.6125L61.7412 39.4225L76.1262 30.8125V47.6125Z" fill="#0860BF"/>
<path opacity="0.78" d="M18.376 30.8125L32.866 39.0025L47.251 30.8125L33.181 39.5275L32.866 55.8025L32.551 39.5275L18.376 30.8125Z" fill="#FEBCB7"/>
<path opacity="0.78" d="M47.251 30.8125L61.741 39.1075L76.126 30.8125L62.056 39.5275L61.741 55.9075L61.321 39.5275L47.251 30.8125Z" fill="#4EDCF8"/>
<path opacity="0.78" d="M32.7617 55.9082L47.2517 63.7832L61.7417 55.9082L47.6717 64.3082L47.2517 80.8982L46.9367 64.3082L32.7617 55.9082Z" fill="#00F3C9"/>
<defs>
<radialGradient id="paint0_radial_1024_11460" cx="0" cy="0" r="1" gradientUnits="userSpaceOnUse" gradientTransform="translate(47.2714 47.2978) rotate(90) scale(47.04)">
<stop stop-color="#333944"/>
<stop offset="1" stop-color="#222428"/>
</radialGradient>
</defs>
</svg>
