<svg width="95" height="95" viewBox="0 0 95 95" fill="none" xmlns="http://www.w3.org/2000/svg">
<rect x="1.47962" y="0.929812" width="92.736" height="92.736" rx="13.44" fill="url(#paint0_radial_1024_11458)"/>
<rect x="1.47962" y="0.929812" width="92.736" height="92.736" rx="13.44" stroke="#6886C3" stroke-width="1.344"/>
<path d="M16.4289 17.0588C16.1147 17.0547 15.8033 17.1195 15.5168 17.2486C15.2302 17.3777 14.9754 17.5679 14.7702 17.806C14.565 18.044 14.4145 18.3241 14.3291 18.6266C14.2437 18.929 14.2255 19.2465 14.2759 19.5567L23.4158 75.0419C23.5297 75.7209 23.8792 76.3381 24.4029 76.785C24.9266 77.2319 25.591 77.48 26.2794 77.4857H70.1273C70.6433 77.4923 71.1446 77.3133 71.5397 76.9814C71.9348 76.6494 72.1976 76.1866 72.2801 75.6771L81.4203 19.5675C81.4706 19.2573 81.4524 18.9398 81.3669 18.6374C81.2815 18.335 81.1308 18.055 80.9256 17.817C80.7204 17.579 80.4656 17.3888 80.1791 17.2598C79.8925 17.1307 79.5812 17.066 79.267 17.0701L16.4289 17.0588ZM54.9155 57.1602H40.9203L37.1309 37.3625H58.3067L54.9155 57.1602Z" fill="#2684FF"/>
<path d="M78.4573 37.332H58.267L54.8784 57.114H40.8945L24.3828 76.7129C24.9062 77.1654 25.5734 77.417 26.2652 77.4227H70.0889C70.6045 77.4293 71.1054 77.2506 71.5003 76.9189C71.8952 76.5872 72.1578 76.1247 72.2403 75.6157L78.4573 37.332Z" fill="url(#paint1_linear_1024_11458)"/>
<defs>
<radialGradient id="paint0_radial_1024_11458" cx="0" cy="0" r="1" gradientUnits="userSpaceOnUse" gradientTransform="translate(47.8476 47.2978) rotate(90) scale(47.04)">
<stop stop-color="#333944"/>
<stop offset="1" stop-color="#222428"/>
</radialGradient>
<linearGradient id="paint1_linear_1024_11458" x1="83.1256" y1="42.8718" x2="59.8025" y2="75.9879" gradientUnits="userSpaceOnUse">
<stop offset="0.18" stop-color="#0052CC"/>
<stop offset="1" stop-color="#2684FF"/>
</linearGradient>
</defs>
</svg>
