<svg width="95" height="96" viewBox="0 0 95 96" fill="none" xmlns="http://www.w3.org/2000/svg">
<rect x="0.920047" y="1.62512" width="92.736" height="92.736" rx="13.44" fill="url(#paint0_radial_1024_11621)"/>
<rect x="0.920047" y="1.62512" width="92.736" height="92.736" rx="13.44" stroke="#6886C3" stroke-width="1.344"/>
<path d="M78.2556 63.2891C74.6693 65.1583 56.0917 72.7968 52.1366 74.8588C48.1815 76.921 45.9844 76.901 42.8598 75.4074C39.7356 73.9138 19.9656 65.928 16.4043 64.2257C14.6246 63.3752 13.6885 62.657 13.6885 61.9787V55.1862C13.6885 55.1862 39.4266 49.5832 43.5817 48.0924C47.7366 46.6017 49.1782 46.5479 52.7141 47.843C56.2505 49.1387 77.3938 52.9534 80.8885 54.2334L80.8869 60.9297C80.8874 61.6012 80.081 62.3378 78.2556 63.2891" fill="#912626"/>
<path d="M78.2542 56.5381C74.6682 58.4066 56.0911 66.0453 52.136 68.107C48.1812 70.1695 45.9841 70.1492 42.8598 68.6556C39.7352 67.1631 19.9661 59.176 16.405 57.4747C12.844 55.7724 12.7694 54.6009 16.2675 53.2311C19.7656 51.8609 39.4263 44.1473 43.5819 42.6566C47.7368 41.1664 49.1782 41.1121 52.714 42.4078C56.2502 43.7029 74.7165 51.0532 78.2107 52.3329C81.7061 53.6141 81.8402 54.6691 78.2542 56.5381" fill="#C6302B"/>
<path d="M78.2556 52.2987C74.6693 54.1682 56.0917 61.8064 52.1366 63.8692C48.1815 65.9306 45.9844 65.9106 42.8598 64.417C39.7353 62.9242 19.9656 54.9376 16.4043 53.2353C14.6246 52.3848 13.6885 51.6676 13.6885 50.9891V44.1958C13.6885 44.1958 39.4266 38.593 43.5817 37.1023C47.7366 35.6116 49.1782 35.5575 52.7141 36.8529C56.2508 38.1484 77.3941 41.9622 80.8885 43.2424L80.8869 49.9396C80.8874 50.6108 80.081 51.3474 78.2556 52.2987Z" fill="#912626"/>
<path d="M78.2542 45.5478C74.6682 47.4168 56.0911 55.055 52.136 57.1175C48.1812 59.1791 45.9841 59.1589 42.8598 57.6653C39.7352 56.1727 19.9661 48.1859 16.405 46.4844C12.844 44.7826 12.7694 43.6108 16.2675 42.2405C19.7656 40.8711 39.4265 33.157 43.5819 31.6665C47.7368 30.176 49.1782 30.122 52.714 31.4174C56.2502 32.7126 74.7165 40.0623 78.2107 41.3425C81.7061 42.6235 81.8402 43.6788 78.2542 45.5478" fill="#C6302B"/>
<path d="M78.2556 40.9017C74.6693 42.7707 56.0917 50.4094 52.1366 52.4722C48.1815 54.5339 45.9844 54.5136 42.8598 53.02C39.7353 51.5272 19.9656 43.5403 16.4043 41.8388C14.6246 40.9875 13.6885 40.2701 13.6885 39.5923V32.7988C13.6885 32.7988 39.4266 27.1963 43.5817 25.7058C47.7366 24.2148 49.1782 24.1612 52.7141 25.4564C56.2508 26.7519 77.3941 30.5657 80.8885 31.8459L80.8869 38.5429C80.8874 39.2135 80.081 39.9501 78.2556 40.9017Z" fill="#912626"/>
<path d="M78.2541 34.149C74.6681 36.018 56.091 43.6568 52.1359 45.7185C48.181 47.7801 45.9839 47.7599 42.8596 46.2671C39.7354 44.7735 19.966 36.7872 16.4052 35.0854C12.8438 33.3838 12.7695 32.2118 16.2673 30.8418C19.7654 29.4721 39.4264 21.759 43.5818 20.268C47.7366 18.7773 49.178 18.7237 52.7139 20.0192C56.25 21.3146 74.7164 28.6644 78.2105 29.9446C81.706 31.2245 81.8401 32.28 78.2541 34.149" fill="#C6302B"/>
<path d="M55.5005 27.5422L49.7229 28.142L48.4295 31.2542L46.3406 27.7814L39.6691 27.1818L44.6472 25.3866L43.1536 22.6309L47.8142 24.4537L52.208 23.0152L51.0204 25.8646L55.5005 27.5422V27.5422ZM48.0846 42.6407L37.3019 38.1685L52.7527 35.7968L48.0846 42.6407V42.6407ZM33.1352 29.2721C37.6962 29.2721 41.3935 30.7053 41.3935 32.473C41.3935 34.2412 37.6962 35.6742 33.1352 35.6742C28.5743 35.6742 24.877 34.241 24.877 32.473C24.877 30.7053 28.5743 29.2721 33.1352 29.2721Z" fill="white"/>
<path d="M62.3281 28.3928L71.4726 32.0064L62.336 35.6166L62.3281 28.3926" fill="#621B1C"/>
<path d="M52.21 32.3944L62.3267 28.3926L62.3346 35.6164L61.3426 36.0043L52.21 32.3944Z" fill="#9A2928"/>
<defs>
<radialGradient id="paint0_radial_1024_11621" cx="0" cy="0" r="1" gradientUnits="userSpaceOnUse" gradientTransform="translate(47.288 47.9931) rotate(90) scale(47.04)">
<stop stop-color="#333944"/>
<stop offset="1" stop-color="#222428"/>
</radialGradient>
</defs>
</svg>
