<svg width="95" height="95" viewBox="0 0 95 95" fill="none" xmlns="http://www.w3.org/2000/svg">
<rect x="1.05579" y="0.912234" width="92.736" height="92.736" rx="13.44" fill="url(#paint0_radial_1024_11603)"/>
<rect x="1.05579" y="0.912234" width="92.736" height="92.736" rx="13.44" stroke="#6886C3" stroke-width="1.344"/>
<path d="M47.6271 13.6797L76.7259 30.4797V64.0797L47.6271 80.8797L18.5283 64.0797V30.4797L47.6271 13.6797Z" fill="#673AB8"/>
<path d="M26.4545 63.8037C30.3228 68.755 42.6168 64.9824 54.2234 55.9143C65.8299 46.8464 72.4647 35.8304 68.5964 30.8789C64.7278 25.9275 52.434 29.7004 40.8275 38.7683C29.2209 47.8366 22.5862 58.8523 26.4545 63.8037ZM28.1072 62.5124C26.8241 60.8706 27.3848 57.647 29.8288 53.5889C32.4027 49.3157 36.7718 44.5983 42.1185 40.421C47.4654 36.2437 53.0994 33.1454 57.8684 31.6818C62.3974 30.2921 65.6608 30.5281 66.9436 32.1701C68.2267 33.8122 67.6661 37.0358 65.222 41.0939C62.6482 45.3671 58.279 50.0843 52.9323 54.2618C47.5854 58.4391 41.9512 61.5374 37.1824 63.0007C32.6534 64.3907 29.3901 64.1545 28.1072 62.5124Z" fill="white"/>
<path d="M68.5955 63.8037C72.464 58.8524 65.829 47.8364 54.2225 38.7683C42.6159 29.7004 30.3217 25.9275 26.4536 30.8789C22.5851 35.8302 29.22 46.8464 40.8266 55.9143C52.4331 64.9824 64.7269 68.7553 68.5955 63.8037ZM66.9427 62.5124C65.6599 64.1547 62.3965 64.3907 57.8676 63.0007C53.0985 61.5374 47.4645 58.4391 42.1178 54.2618C36.7709 50.0843 32.4016 45.3671 29.8282 41.0939C27.3839 37.0358 26.8233 33.8124 28.1061 32.1701C29.3892 30.5281 32.6526 30.2921 37.1813 31.6818C41.9503 33.1454 47.5846 36.2437 52.9312 40.421C58.2781 44.5983 62.6473 49.3157 65.2209 53.5889C67.6652 57.6468 68.2258 60.8702 66.9427 62.5124Z" fill="white"/>
<path d="M47.526 51.7959C49.9873 51.7959 51.9824 49.8006 51.9824 47.3392C51.9824 44.8781 49.9873 42.8828 47.526 42.8828C45.0646 42.8828 43.0693 44.8781 43.0693 47.3392C43.0693 49.8006 45.0646 51.7959 47.526 51.7959Z" fill="white"/>
<defs>
<radialGradient id="paint0_radial_1024_11603" cx="0" cy="0" r="1" gradientUnits="userSpaceOnUse" gradientTransform="translate(47.4238 47.2802) rotate(90) scale(47.04)">
<stop stop-color="#333944"/>
<stop offset="1" stop-color="#222428"/>
</radialGradient>
</defs>
</svg>
