<svg width="95" height="95" viewBox="0 0 95 95" fill="none" xmlns="http://www.w3.org/2000/svg">
<rect x="0.783328" y="1.48841" width="92.736" height="92.736" rx="13.44" fill="url(#paint0_radial_1024_11555)"/>
<rect x="0.783328" y="1.48841" width="92.736" height="92.736" rx="13.44" stroke="#6886C3" stroke-width="1.344"/>
<path d="M74.873 30.0467C74.4888 28.8171 73.5666 27.8181 72.4139 27.2034L48.9759 15.9838C48.3611 15.6765 47.6695 15.5996 47.0547 15.5996C46.4399 15.5996 45.7483 15.5996 45.1336 15.7533L21.6955 27.0497C20.5428 27.5876 19.6975 28.5866 19.3901 29.893L13.6266 55.1754C13.3961 56.4818 13.7035 57.7882 14.4719 58.864L30.6865 78.9209C31.6086 79.843 32.915 80.4578 34.2214 80.5346H60.0417C61.4249 80.6883 62.7313 80.0735 63.5766 78.9209L79.7912 58.864C80.5596 57.7882 80.867 56.4818 80.7133 55.1754L74.873 30.0467Z" fill="white" stroke="white" stroke-width="3.36" stroke-miterlimit="10"/>
<path d="M74.873 30.0467C74.4888 28.8171 73.5666 27.8181 72.4139 27.2034L48.9759 15.9838C48.3611 15.6765 47.6695 15.5996 47.0547 15.5996C46.4399 15.5996 45.7483 15.5996 45.1336 15.7533L21.6955 27.0497C20.5428 27.5876 19.6975 28.5866 19.3901 29.893L13.6266 55.1754C13.3961 56.4818 13.7035 57.7882 14.4719 58.864L30.6865 78.9209C31.6086 79.843 32.915 80.4578 34.2214 80.5346H60.0417C61.4249 80.6883 62.7313 80.0735 63.5766 78.9209L79.7912 58.864C80.5596 57.7882 80.867 56.4818 80.7133 55.1754L74.873 30.0467Z" fill="#326DE6"/>
<path d="M71.2616 54.1756C71.1847 54.1756 71.1079 54.1756 71.1079 54.0988C71.1079 54.0219 70.9542 54.0219 70.8005 54.0219C70.4931 53.9451 70.1857 53.9451 69.8783 53.9451C69.7246 53.9451 69.5709 53.9451 69.4173 53.8682H69.3404C68.4951 53.7914 67.5729 53.6377 66.7276 53.4071C66.4971 53.3303 66.2666 53.0998 66.1897 52.8692L65.5749 52.7155C65.8823 50.487 65.7286 48.1816 65.2676 45.9531C64.7296 43.7245 63.8075 41.5728 62.578 39.6517L63.039 39.1906V39.1138C63.039 38.8832 63.1159 38.5758 63.2696 38.4221C63.9612 37.8074 64.6528 37.3463 65.4213 36.8852C65.5749 36.8084 65.7286 36.7315 65.8823 36.6547C66.1897 36.501 66.4203 36.3473 66.7276 36.1936C66.8045 36.1168 66.8813 36.1168 66.9582 36.0399C67.035 35.9631 66.9582 35.9631 66.9582 35.8862C67.6498 35.3483 67.8035 34.4261 67.2656 33.7345C67.035 33.4271 66.5739 33.1966 66.1897 33.1966C65.8055 33.1966 65.4213 33.3503 65.1139 33.5808L65.037 33.6577C64.9602 33.7345 64.8833 33.8114 64.8065 33.8114C64.5759 34.0419 64.3454 34.2724 64.1917 34.503C64.1149 34.6567 63.9612 34.7335 63.8843 34.8104C63.3464 35.4251 62.6548 36.0399 61.9632 36.501C61.8095 36.5778 61.6558 36.6547 61.5021 36.6547C61.4253 36.6547 61.2716 36.6547 61.1947 36.5778H61.1179L60.5031 36.9621C59.8883 36.3473 59.1967 35.7325 58.5819 35.1178C55.7386 32.8892 52.2037 31.506 48.5919 31.1218L48.5151 30.507V30.5838C48.2846 30.4301 48.2077 30.1996 48.1309 29.9691C48.1309 29.1238 48.1309 28.2784 48.2846 27.3563V27.2794C48.2846 27.1258 48.3614 26.9721 48.3614 26.8184C48.4383 26.511 48.4383 26.2036 48.5151 25.8962V25.4351C48.5919 24.6667 47.9772 23.8982 47.2087 23.8214C46.7476 23.7445 46.2866 23.9751 45.9023 24.3593C45.5949 24.6667 45.4413 25.0509 45.4413 25.4351V25.8194C45.4413 26.1267 45.5181 26.4341 45.5949 26.7415C45.6718 26.8952 45.6718 27.0489 45.6718 27.2026V27.2794C45.8255 28.1248 45.8255 28.9701 45.8255 29.8922C45.7486 30.1228 45.6718 30.3533 45.4413 30.507V30.6607L45.3644 31.2754C44.5191 31.3523 43.6738 31.506 42.7516 31.6597C39.1399 32.4281 35.8355 34.3493 33.2996 37.0389L32.8385 36.7315H32.7616C32.6848 36.7315 32.6079 36.8084 32.4543 36.8084C32.3006 36.8084 32.1469 36.7315 31.9932 36.6547C31.3016 36.1168 30.6099 35.502 30.072 34.8872C29.9952 34.7335 29.8415 34.6567 29.7646 34.5798C29.5341 34.3493 29.3804 34.1188 29.1499 33.8882C29.073 33.8114 28.9962 33.8114 28.9193 33.7345C28.8425 33.6577 28.8425 33.6577 28.8425 33.6577C28.5351 33.4271 28.1509 33.2734 27.7666 33.2734C27.3056 33.2734 26.9213 33.4271 26.6908 33.8114C26.2297 34.503 26.3834 35.4251 26.9982 35.9631C27.075 35.9631 27.075 36.0399 27.075 36.0399C27.075 36.0399 27.2287 36.1936 27.3056 36.1936C27.5361 36.3473 27.8435 36.501 28.1509 36.6547C28.3046 36.7315 28.4583 36.8084 28.6119 36.8852C29.3804 37.3463 30.1489 37.8074 30.7636 38.4221C30.9173 38.5758 31.071 38.8832 30.9942 39.1138V39.0369L31.4553 39.498C31.3784 39.6517 31.3016 39.7285 31.2247 39.8822C28.8425 43.6477 27.8435 48.1048 28.5351 52.485L27.9203 52.6387C27.9203 52.7155 27.8435 52.7155 27.8435 52.7155C27.7666 52.9461 27.5361 53.0998 27.3056 53.2534C26.4602 53.484 25.6149 53.6377 24.6928 53.7145C24.5391 53.7145 24.3854 53.7145 24.2317 53.7914C23.9243 53.7914 23.6169 53.8682 23.3096 53.8682C23.2327 53.8682 23.1559 53.9451 23.0022 53.9451C22.9253 53.9451 22.9253 53.9451 22.8485 54.0219C22.0032 54.1756 21.4652 54.9441 21.6189 55.7894C21.7726 56.481 22.4642 56.9421 23.1559 56.8652C23.3096 56.8652 23.3864 56.8652 23.5401 56.7884C23.6169 56.7884 23.6169 56.7884 23.6169 56.7115C23.6169 56.6347 23.8475 56.7115 23.9243 56.7115C24.2317 56.6347 24.5391 56.481 24.7696 56.4041C24.9233 56.3273 25.077 56.2504 25.2307 56.2504H25.3076C26.1529 55.9431 26.9213 55.7125 27.8435 55.5588H27.9203C28.1509 55.5588 28.3814 55.6357 28.5351 55.7894C28.6119 55.7894 28.6119 55.8662 28.6119 55.8662L29.3036 55.7894C30.4563 59.3243 32.6079 62.475 35.6049 64.7804C36.2966 65.3183 36.9113 65.7794 37.6798 66.1636L37.2956 66.7015C37.2956 66.7784 37.3724 66.7784 37.3724 66.7784C37.5261 67.0089 37.5261 67.3163 37.4493 67.5468C37.1419 68.3153 36.6808 69.0838 36.2197 69.7754V69.8522C36.1429 70.0059 36.066 70.0828 35.9123 70.2364C35.7586 70.3901 35.6049 70.6975 35.3744 71.0049C35.2976 71.0818 35.2976 71.1586 35.2207 71.2354C35.2207 71.2354 35.2207 71.3123 35.1439 71.3123C34.7596 72.0808 35.067 73.0029 35.7586 73.3871C35.9123 73.464 36.1429 73.5408 36.2966 73.5408C36.9113 73.5408 37.4493 73.1566 37.7566 72.6187C37.7566 72.6187 37.7566 72.5418 37.8335 72.5418C37.8335 72.465 37.9103 72.3881 37.9872 72.3113C38.064 72.0039 38.2177 71.7734 38.2946 71.466L38.4483 71.0049C38.6788 70.1596 39.063 69.3911 39.4473 68.6227C39.6009 68.3921 39.8315 68.2384 40.062 68.1616C40.1389 68.1616 40.1389 68.1616 40.1389 68.0848L40.4463 67.47C42.5979 68.3153 44.8265 68.6995 47.1319 68.6995C48.5151 68.6995 49.8983 68.5458 51.2816 68.1616C52.1269 68.0079 52.9722 67.7005 53.7406 67.47L54.048 68.0079C54.1249 68.0079 54.1249 68.0079 54.1249 68.0848C54.3554 68.1616 54.5859 68.3153 54.7396 68.5458C55.1239 69.3143 55.5081 70.0828 55.7386 70.9281V71.0049L55.8923 71.466C55.9692 71.7734 56.046 72.0808 56.1997 72.3113C56.2766 72.3881 56.2766 72.465 56.3534 72.5418C56.3534 72.5418 56.3534 72.6187 56.4303 72.6187C56.7376 73.1566 57.2756 73.5408 57.8903 73.5408C58.1209 73.5408 58.2746 73.464 58.5051 73.3871C58.8125 73.2334 59.1199 72.9261 59.1967 72.5418C59.2736 72.1576 59.2736 71.7734 59.1199 71.3891C59.1199 71.3123 59.043 71.3123 59.043 71.3123C59.043 71.2354 58.9662 71.1586 58.8893 71.0818C58.7356 70.7744 58.5819 70.5438 58.3514 70.3133C58.2746 70.1596 58.1977 70.0828 58.044 69.9291V69.7754C57.5061 69.0838 57.1219 68.3153 56.8145 67.5468C56.7376 67.3163 56.7376 67.0089 56.8913 66.7784C56.8913 66.7015 56.9682 66.7015 56.9682 66.7015L56.7376 66.0868C60.6568 63.7045 63.6538 60.0159 65.037 55.6357L65.6518 55.7125C65.7286 55.7125 65.7286 55.6357 65.7286 55.6357C65.8823 55.482 66.1129 55.4051 66.3434 55.4051H66.4203C67.2656 55.5588 68.1109 55.7894 68.8793 56.0968H68.9562C69.1099 56.1736 69.2636 56.2504 69.4173 56.2504C69.7246 56.4041 69.9552 56.5578 70.2626 56.6347C70.3394 56.6347 70.4163 56.7115 70.5699 56.7115C70.6468 56.7115 70.6468 56.7115 70.7236 56.7884C70.8773 56.8652 70.9542 56.8652 71.1079 56.8652C71.7995 56.8652 72.4143 56.4041 72.6448 55.7894C72.5679 54.9441 71.9532 54.3293 71.2616 54.1756ZM49.053 51.7934L46.9782 52.7924L44.9033 51.7934L44.3654 49.5648L45.8255 47.7205H48.1309L49.5909 49.5648L49.053 51.7934ZM61.5789 46.7984C61.9632 48.4121 62.04 50.0259 61.8863 51.6397L54.5859 49.5648C53.8943 49.4111 53.5101 48.7195 53.6638 48.0279C53.7406 47.7974 53.8175 47.6437 53.9712 47.49L59.7346 42.2644C60.5799 43.6477 61.1947 45.1846 61.5789 46.7984ZM57.4293 39.4211L51.1279 43.8782C50.5899 44.1856 49.8215 44.1088 49.4373 43.5708C49.2836 43.4171 49.2067 43.2634 49.2067 43.0329L48.7456 35.2714C52.1269 35.6557 55.1239 37.1158 57.4293 39.4211ZM43.5201 35.502L45.057 35.1946L44.6728 42.8792C44.6728 43.5708 44.058 44.1088 43.3664 44.1088C43.1359 44.1088 42.9822 44.0319 42.7516 43.9551L36.3734 39.4211C38.3714 37.5 40.8305 36.1168 43.5201 35.502ZM34.1449 42.2644L39.8315 47.3363C40.3694 47.7974 40.4463 48.5658 39.9852 49.1038C39.8315 49.3343 39.6778 49.4111 39.3704 49.488L31.9163 51.6397C31.6858 48.4121 32.4543 45.1078 34.1449 42.2644ZM32.8385 55.2514L40.4463 53.9451C41.061 53.9451 41.6758 54.3293 41.7526 54.9441C41.8295 55.1746 41.8295 55.482 41.6758 55.7125L38.7556 62.7824C36.066 61.0149 33.9143 58.3253 32.8385 55.2514ZM50.2826 64.7804C49.2067 65.0109 48.1309 65.1646 46.9782 65.1646C45.3644 65.1646 43.6738 64.8572 42.1369 64.3961L45.9023 57.5568C46.2866 57.0958 46.9013 56.9421 47.4393 57.2494C47.6698 57.4031 47.8235 57.5568 48.054 57.7874L51.7426 64.473C51.2816 64.5498 50.8205 64.6267 50.2826 64.7804ZM59.6578 58.0948C58.5051 59.9391 56.8913 61.5528 55.047 62.7055L52.05 55.482C51.8963 54.8672 52.2037 54.2524 52.7416 54.0219C52.9722 53.9451 53.2027 53.8682 53.4333 53.8682L61.1179 55.1746C60.7336 56.2504 60.2726 57.2494 59.6578 58.0948Z" fill="white"/>
<defs>
<radialGradient id="paint0_radial_1024_11555" cx="0" cy="0" r="1" gradientUnits="userSpaceOnUse" gradientTransform="translate(47.1513 47.8564) rotate(90) scale(47.04)">
<stop stop-color="#333944"/>
<stop offset="1" stop-color="#222428"/>
</radialGradient>
</defs>
</svg>
