<svg width="95" height="96" viewBox="0 0 95 96" fill="none" xmlns="http://www.w3.org/2000/svg">
<rect x="1.32825" y="1.62512" width="92.736" height="92.736" rx="13.44" fill="url(#paint0_radial_1024_11630)"/>
<rect x="1.32825" y="1.62512" width="92.736" height="92.736" rx="13.44" stroke="#6886C3" stroke-width="1.344"/>
<g clip-path="url(#clip0_1024_11630)">
<g opacity="0.53" filter="url(#filter0_f_1024_11630)">
<path d="M78.3458 48.8696C78.3458 52.7452 77.5531 56.5829 76.0129 60.1635C74.4727 63.7441 72.2151 66.9975 69.3692 69.7379C66.5233 72.4784 63.1447 74.6523 59.4263 76.1354C55.7079 77.6185 51.7226 78.3819 47.6978 78.3819C43.673 78.3819 39.6877 77.6185 35.9693 76.1354C32.2509 74.6523 28.8723 72.4784 26.0264 69.7379C23.1805 66.9975 20.923 63.7441 19.3827 60.1635C17.8425 56.5829 17.0498 52.7452 17.0498 48.8696C17.0498 41.0425 20.2788 33.536 26.0264 28.0014C31.774 22.4667 39.5694 19.3574 47.6978 19.3574C51.7226 19.3574 55.7079 20.1208 59.4263 21.6039C63.1447 23.087 66.5233 25.2609 69.3692 28.0014C72.2151 30.7418 74.4727 33.9952 76.0129 37.5758C77.5531 41.1564 78.3458 44.994 78.3458 48.8696Z" fill="black"/>
</g>
<path d="M79.5114 46.266C79.5114 50.444 78.6885 54.581 77.0897 58.441C75.4908 62.3009 73.1474 65.8082 70.1931 68.7624C67.2388 71.7167 63.7316 74.0602 59.8716 75.659C56.0117 77.2579 51.8746 78.0808 47.6966 78.0808C39.2588 78.0808 31.1666 74.7289 25.2002 68.7624C19.2337 62.796 15.8818 54.7038 15.8818 46.266C15.8818 37.8282 19.2337 29.7359 25.2002 23.7695C31.1666 17.8031 39.2588 14.4512 47.6966 14.4512C51.8746 14.4512 56.0117 15.2741 59.8716 16.8729C63.7316 18.4718 67.2388 20.8152 70.1931 23.7695C73.1474 26.7238 75.4908 30.231 77.0897 34.091C78.6885 37.9509 79.5114 42.088 79.5114 46.266Z" fill="url(#paint1_linear_1024_11630)" stroke="#CDCDCD" stroke-width="0.0944661" stroke-linecap="round" stroke-linejoin="round"/>
<path d="M77.0177 46.2632C77.0177 54.0399 73.9284 61.498 68.4295 66.9969C62.9306 72.4958 55.4725 75.585 47.6958 75.585C39.9192 75.585 32.4611 72.4958 26.9622 66.9969C21.4633 61.498 18.374 54.0399 18.374 46.2632C18.374 38.4866 21.4633 31.0285 26.9622 25.5296C32.4611 20.0307 39.9192 16.9414 47.6958 16.9414C55.4725 16.9414 62.9306 20.0307 68.4295 25.5296C73.9284 31.0285 77.0177 38.4866 77.0177 46.2632Z" fill="url(#paint2_radial_1024_11630)"/>
<path d="M47.6955 18.4727C47.4587 18.4727 47.268 18.6633 47.268 18.9002V23.8312C47.268 24.0681 47.4587 24.2587 47.6955 24.2587C47.9324 24.2587 48.123 24.0681 48.123 23.8312V18.9002C48.123 18.6633 47.9324 18.4727 47.6955 18.4727ZM44.8988 18.6494C44.8705 18.6464 44.8413 18.6464 44.8119 18.6498C44.5763 18.6744 44.4065 18.8838 44.4311 19.1193L44.6466 21.1823C44.6711 21.4178 44.8806 21.5877 45.1161 21.5631C45.3517 21.5385 45.5215 21.3291 45.4969 21.0935L45.2816 19.0306C45.2601 18.8245 45.097 18.6687 44.8988 18.6494ZM50.5118 18.6514C50.3136 18.6705 50.1505 18.8263 50.1288 19.0324L49.9118 21.0952C49.887 21.3308 50.0569 21.5404 50.2924 21.5651C50.528 21.5899 50.7374 21.4202 50.7622 21.1847L50.9791 19.1217C51.0039 18.8862 50.8341 18.6768 50.5985 18.652C50.5691 18.6489 50.5401 18.6489 50.5118 18.6514ZM42.0259 19.066C41.9975 19.0663 41.9685 19.0691 41.9396 19.0752C41.7079 19.1242 41.5608 19.3503 41.6099 19.582L42.6311 24.406C42.6802 24.6378 42.9062 24.7848 43.1379 24.7358C43.3696 24.6867 43.5167 24.4608 43.4676 24.2291L42.4464 19.4049C42.4034 19.2021 42.2251 19.0645 42.0259 19.066ZM53.3845 19.0701C53.1854 19.0681 53.0069 19.2061 52.9639 19.4088L51.9391 24.2323C51.8899 24.464 52.0368 24.6901 52.2685 24.7393C52.5001 24.7886 52.7263 24.6416 52.7755 24.41L53.8002 19.5865C53.8495 19.3548 53.7025 19.1287 53.4709 19.0795C53.4419 19.0734 53.413 19.0701 53.3845 19.0701ZM39.2842 19.8391C39.2288 19.834 39.1717 19.8401 39.1153 19.8588C38.8901 19.932 38.7676 20.1721 38.8408 20.3974L39.4818 22.3701C39.555 22.5953 39.7953 22.7178 40.0205 22.6446C40.2458 22.5714 40.3681 22.3311 40.2949 22.1059L39.6539 20.1332C39.5991 19.9642 39.4502 19.8532 39.2842 19.8391ZM56.1108 19.8401C55.9447 19.8542 55.7959 19.9653 55.741 20.1342L55.0997 22.1067C55.0264 22.332 55.1488 22.5723 55.374 22.6455C55.5993 22.7187 55.8396 22.5963 55.9128 22.3711L56.5541 20.3984C56.6274 20.1732 56.505 19.9329 56.2798 19.8597C56.2235 19.8414 56.1661 19.8354 56.1108 19.8401ZM36.5729 20.8313C36.5173 20.8323 36.4611 20.8445 36.407 20.8685C36.1907 20.9647 36.0938 21.2163 36.19 21.4328L38.1928 25.9387C38.289 26.1551 38.5406 26.2519 38.757 26.1557C38.9733 26.0595 39.0704 25.8079 38.9742 25.5915L36.9712 21.0855C36.8991 20.9232 36.7395 20.828 36.5729 20.8313ZM58.8527 20.8464C58.6861 20.8433 58.5263 20.9379 58.454 21.1001L56.4451 25.6033C56.3486 25.8196 56.445 26.0714 56.6613 26.1679C56.8776 26.2644 57.1294 26.1679 57.2259 25.9516L59.2348 21.4484C59.3313 21.2321 59.2348 20.9803 59.0185 20.8839C58.9645 20.8598 58.9082 20.8476 58.8527 20.8464ZM34.0562 22.1628C33.9742 22.1567 33.8896 22.175 33.8127 22.2195C33.6076 22.3379 33.5378 22.5984 33.6562 22.8035L34.6933 24.5998C34.8118 24.8049 35.0722 24.8747 35.2773 24.7563C35.4824 24.6378 35.5522 24.3774 35.4338 24.1723L34.3966 22.376C34.3226 22.2478 34.193 22.1724 34.0562 22.1628ZM61.3348 22.1628C61.198 22.172 61.0686 22.2477 60.9946 22.3759L59.9573 24.1723C59.8389 24.3774 59.9089 24.6378 60.1139 24.7562C60.3191 24.8746 60.5795 24.8049 60.6979 24.5998L61.735 22.8034C61.8534 22.5983 61.7837 22.3379 61.5785 22.2195C61.5017 22.1751 61.4169 22.1571 61.3348 22.1628ZM31.6125 23.687C31.5302 23.6901 31.4478 23.7165 31.3759 23.7686C31.1842 23.9076 31.1419 24.1739 31.281 24.3656L34.1764 28.357C34.3155 28.5487 34.5819 28.5911 34.7736 28.4521C34.9654 28.313 35.0077 28.0467 34.8686 27.855L31.973 23.8636C31.8861 23.7438 31.7495 23.6823 31.6125 23.687ZM63.8092 23.7088C63.6722 23.7037 63.5356 23.7651 63.4485 23.8848L60.5475 27.8723C60.4082 28.0638 60.4502 28.3302 60.6418 28.4695C60.8333 28.6088 61.0997 28.5669 61.239 28.3755L64.1398 24.388C64.2791 24.1964 64.237 23.9301 64.0456 23.7907C63.9738 23.7385 63.8914 23.7117 63.8092 23.7088ZM29.4281 25.5189C29.319 25.5128 29.2077 25.5493 29.1196 25.6285C28.9436 25.787 28.9295 26.0562 29.088 26.2322L30.4758 27.7739C30.6342 27.95 30.9035 27.9641 31.0795 27.8056C31.2555 27.6472 31.2697 27.3778 31.1112 27.2017L29.7235 25.6602C29.6443 25.5722 29.5373 25.5247 29.4281 25.5189ZM65.966 25.522C65.8569 25.5281 65.7499 25.5753 65.6707 25.6633L64.2828 27.2046C64.1243 27.3807 64.1384 27.6501 64.3144 27.8085C64.4904 27.967 64.7596 27.9528 64.9181 27.7768L66.3061 26.2355C66.4646 26.0595 66.4504 25.7901 66.2744 25.6316C66.1864 25.5524 66.0752 25.5163 65.966 25.522ZM27.3346 27.5299C27.2254 27.536 27.1186 27.5832 27.0394 27.6713C26.8809 27.8473 26.8951 28.1165 27.071 28.275L30.7359 31.5741C30.9119 31.7325 31.1811 31.7184 31.3395 31.5424C31.498 31.3664 31.484 31.0971 31.308 30.9387L27.643 27.6396C27.5549 27.5604 27.4437 27.5242 27.3346 27.5299ZM68.0698 27.5443C67.9606 27.5382 67.8492 27.5746 67.7611 27.6538L64.0941 30.9503C63.9179 31.1086 63.9035 31.3778 64.0618 31.554C64.2201 31.7301 64.4895 31.7444 64.6657 31.5861L68.3329 28.2896C68.509 28.1312 68.5233 27.862 68.365 27.6859C68.2857 27.5978 68.1789 27.5502 68.0698 27.5443ZM25.5936 29.7686C25.4565 29.7635 25.3199 29.8252 25.2329 29.9449C25.0937 30.1365 25.1359 30.4028 25.3275 30.542L27.0056 31.7612C27.1972 31.9004 27.4634 31.8584 27.6027 31.6667C27.7419 31.4751 27.6998 31.2087 27.5082 31.0695L25.8301 29.8503C25.7583 29.7981 25.6758 29.7715 25.5936 29.7686ZM69.8091 29.7841C69.7268 29.7871 69.6444 29.8134 69.5726 29.8656L67.8938 31.0838C67.7021 31.2228 67.6596 31.4893 67.7987 31.681C67.9378 31.8727 68.204 31.9149 68.3957 31.7759L70.0747 30.5578C70.2664 30.4187 70.3087 30.1524 70.1696 29.9607C70.0827 29.8409 69.9461 29.7794 69.8091 29.7841ZM23.9666 32.1565C23.8298 32.1656 23.7004 32.2414 23.6264 32.3695C23.508 32.5747 23.5778 32.8351 23.7829 32.9535L28.0532 35.419C28.2583 35.5375 28.5187 35.4677 28.6372 35.2626C28.7556 35.0575 28.6858 34.797 28.4807 34.6786L24.2104 32.2131C24.1335 32.1687 24.0487 32.1508 23.9666 32.1565ZM71.4244 32.1565C71.3424 32.1504 71.2576 32.1686 71.1807 32.2131L66.9103 34.6787C66.7052 34.7971 66.6355 35.0575 66.7539 35.2626C66.8723 35.4677 67.1327 35.5375 67.3378 35.4191L71.6084 32.9535C71.8135 32.8351 71.8832 32.5747 71.7648 32.3696C71.6908 32.2414 71.5612 32.166 71.4244 32.1565ZM22.7365 34.7017C22.5699 34.6976 22.4102 34.793 22.3378 34.9552C22.2413 35.1715 22.3378 35.4233 22.5541 35.5198L24.4485 36.3648C24.6649 36.4613 24.9167 36.3649 25.0131 36.1486C25.1096 35.9323 25.013 35.6805 24.7967 35.584L22.9024 34.739C22.8484 34.7148 22.7921 34.7028 22.7365 34.7017ZM72.6628 34.7193C72.6073 34.7203 72.5509 34.7325 72.4967 34.7565L70.6019 35.6001C70.3855 35.6965 70.2888 35.9481 70.3851 36.1645C70.4815 36.3808 70.7333 36.4776 70.9497 36.3813L72.8446 35.5375C73.0609 35.4412 73.1575 35.1895 73.0612 34.9731C72.9889 34.8109 72.8294 34.7159 72.6628 34.7193ZM21.6402 37.3619C21.4742 37.3758 21.3253 37.4867 21.2703 37.6556C21.197 37.8808 21.319 38.1212 21.5443 38.1946L26.2327 39.7223C26.4579 39.7956 26.6983 39.6734 26.7717 39.4483C26.845 39.2231 26.7229 38.9827 26.4977 38.9093L21.8092 37.3816C21.753 37.3633 21.6956 37.3572 21.6402 37.3619ZM73.7571 37.3802C73.7018 37.3751 73.6446 37.3812 73.5883 37.3999L68.8987 38.9243C68.6735 38.9975 68.5512 39.2378 68.6244 39.463C68.6976 39.6883 68.9379 39.8106 69.1631 39.7374L73.8525 38.213C74.0777 38.1398 74.2002 37.8995 74.127 37.6743C74.0721 37.5053 73.9231 37.3943 73.7571 37.3802ZM20.9572 40.1544C20.758 40.1524 20.5794 40.2906 20.5363 40.4933C20.4871 40.725 20.634 40.9511 20.8657 41.0004L22.8947 41.4315C23.1263 41.4808 23.3524 41.3338 23.4017 41.1022C23.4509 40.8705 23.304 40.6444 23.0723 40.5952L21.0435 40.164C21.0146 40.1579 20.9856 40.1544 20.9572 40.1544ZM74.4348 40.1585C74.4064 40.1587 74.3776 40.1625 74.3487 40.1676L72.3197 40.5986C72.088 40.6479 71.9411 40.8738 71.9903 41.1055C72.0396 41.3371 72.2657 41.4842 72.4973 41.435L74.5262 41.004C74.7578 40.9547 74.9049 40.7286 74.8557 40.4969C74.8126 40.2942 74.6339 40.1568 74.4348 40.1585ZM20.4402 42.9633C20.242 42.9823 20.0788 43.1378 20.057 43.3439C20.0321 43.5795 20.2015 43.7892 20.4371 43.814L25.3408 44.3325C25.5763 44.3574 25.7861 44.1878 25.8109 43.9522C25.8358 43.7167 25.6662 43.507 25.4307 43.4821L20.5269 42.9637C20.4975 42.9606 20.4685 42.9606 20.4402 42.9633ZM74.9555 43.0002C74.9271 42.9971 74.898 42.9971 74.8685 43.0005L69.9642 43.5123C69.7287 43.5369 69.5588 43.7463 69.5834 43.9819C69.608 44.2175 69.8174 44.3873 70.053 44.3627L74.9573 43.8509C75.1928 43.8263 75.3626 43.6169 75.3381 43.3813C75.3166 43.1752 75.1537 43.0194 74.9555 43.0002ZM20.3572 45.8386C20.1203 45.8386 19.9297 46.0292 19.9297 46.2661C19.9297 46.5029 20.1203 46.6936 20.3572 46.6936H22.4314C22.6682 46.6936 22.8591 46.5029 22.8591 46.2661C22.8591 46.0292 22.6682 45.8386 22.4314 45.8386H20.3572ZM72.9597 45.8386C72.7228 45.8386 72.5322 46.0292 72.5322 46.2661C72.5322 46.5029 72.7228 46.6936 72.9597 46.6936H75.0339C75.2707 46.6936 75.4614 46.5029 75.4614 46.2661C75.4614 46.0292 75.2707 45.8386 75.0339 45.8386H72.9597ZM25.425 48.1691C25.3966 48.166 25.3677 48.166 25.3382 48.1694L20.4337 48.6812C20.1982 48.7058 20.0284 48.9152 20.0529 49.1508C20.0775 49.3863 20.2869 49.5562 20.5225 49.5316L25.427 49.0198C25.6625 48.9952 25.8323 48.7858 25.8078 48.5502C25.7862 48.3441 25.6232 48.1883 25.425 48.1691ZM69.9635 48.1993C69.7653 48.2183 69.6021 48.3739 69.5803 48.58C69.5554 48.8155 69.7249 49.0252 69.9604 49.0501L74.8641 49.5685C75.0997 49.5934 75.3094 49.4238 75.3342 49.1883C75.3591 48.9527 75.1895 48.743 74.954 48.7182L70.0504 48.1997C70.021 48.1966 69.9919 48.1966 69.9635 48.1993ZM22.9803 51.0874C22.9518 51.0876 22.9229 51.0904 22.8939 51.0965L20.865 51.5275C20.6333 51.5768 20.4864 51.8028 20.5356 52.0345C20.5849 52.2662 20.811 52.4131 21.0426 52.3639L23.0716 51.933C23.3033 51.8838 23.4502 51.6577 23.401 51.426C23.3579 51.2233 23.1794 51.0857 22.9803 51.0874ZM72.4102 51.0914C72.2111 51.0894 72.0326 51.2275 71.9896 51.4302C71.9403 51.6618 72.0871 51.888 72.3187 51.9372L74.3477 52.3684C74.5794 52.4176 74.8055 52.2709 74.8547 52.0392C74.904 51.8076 74.757 51.5813 74.5254 51.532L72.4966 51.1008C72.4676 51.0947 72.4387 51.0914 72.4102 51.0914ZM26.3969 52.7752C26.3416 52.7701 26.2844 52.7762 26.2281 52.7949L21.5386 54.3193C21.3133 54.3925 21.191 54.6328 21.2642 54.858C21.3374 55.0833 21.5777 55.2056 21.803 55.1324L26.4923 53.608C26.7176 53.5348 26.8401 53.2945 26.7669 53.0693C26.7119 52.9003 26.5629 52.7893 26.3969 52.7752ZM68.9895 52.7903C68.8235 52.8043 68.6746 52.9152 68.6196 53.0841C68.5463 53.3093 68.6683 53.5496 68.8936 53.623L73.582 55.1507C73.8072 55.224 74.0476 55.1019 74.1209 54.8767C74.1944 54.6515 74.0722 54.4112 73.847 54.3378L69.1585 52.8101C69.1023 52.7917 69.0449 52.7857 68.9895 52.7903ZM24.6074 56.114C24.5519 56.115 24.4956 56.127 24.4415 56.1511L22.5465 56.9948C22.3301 57.0911 22.2336 57.3428 22.3299 57.5592C22.4263 57.7756 22.6779 57.8721 22.8943 57.7758L24.7893 56.9323C25.0057 56.836 25.1023 56.5842 25.0059 56.3679C24.9337 56.2056 24.774 56.1107 24.6074 56.114ZM70.7768 56.1303C70.6102 56.1262 70.4505 56.2216 70.3781 56.3838C70.2816 56.6001 70.378 56.8519 70.5943 56.9483L72.4886 57.7934C72.7049 57.8899 72.9567 57.7934 73.0532 57.5771C73.1497 57.3608 73.0533 57.109 72.837 57.0126L70.9427 56.1675C70.8887 56.1433 70.8323 56.1314 70.7768 56.1303ZM28.2969 57.0567C28.2149 57.0506 28.1301 57.0688 28.0532 57.1133L23.7829 59.5788C23.5778 59.6973 23.508 59.9577 23.6264 60.1628C23.7448 60.3679 24.0053 60.4377 24.2104 60.3193L28.4807 57.8539C28.6858 57.7355 28.7556 57.4749 28.6372 57.2698C28.5631 57.1416 28.4337 57.0662 28.2969 57.0567ZM67.0943 57.0567C66.9575 57.0658 66.8279 57.1416 66.7539 57.2697C66.6355 57.4749 66.7052 57.7355 66.9103 57.8539L71.1807 60.3192C71.3858 60.4377 71.6464 60.3679 71.7648 60.1628C71.8832 59.9577 71.8135 59.6972 71.6084 59.5788L67.3378 57.1133C67.261 57.0689 67.1764 57.051 67.0943 57.0567ZM27.2318 60.6748C27.1495 60.6778 27.0672 60.7043 26.9953 60.7565L25.3165 61.9746C25.1248 62.1137 25.0824 62.38 25.2214 62.5717C25.3605 62.7634 25.6268 62.8058 25.8185 62.6666L27.4974 61.4485C27.6892 61.3095 27.7316 61.0432 27.5925 60.8515C27.5056 60.7317 27.3689 60.6701 27.2318 60.6748ZM68.1491 60.6892C68.0121 60.6841 67.8754 60.7459 67.7884 60.8656C67.6492 61.0572 67.6914 61.3236 67.8831 61.4628L69.5611 62.682C69.7527 62.8212 70.019 62.779 70.1582 62.5874C70.2974 62.3958 70.2553 62.1295 70.0637 61.9903L68.3857 60.7711C68.3139 60.7189 68.2313 60.6921 68.1491 60.6892ZM31.0341 60.8368C30.9249 60.8307 30.8136 60.8671 30.7256 60.9462L27.0584 64.2427C26.8822 64.4011 26.8679 64.6703 27.0263 64.8464C27.1846 65.0226 27.4538 65.0369 27.63 64.8785L31.2972 61.582C31.4733 61.4237 31.4876 61.1544 31.3293 60.9783C31.2502 60.8902 31.1432 60.8426 31.0341 60.8368ZM64.3468 60.8486C64.2377 60.8547 64.1307 60.9019 64.0515 60.9899C63.893 61.1659 63.9072 61.4351 64.0831 61.5936L67.748 64.8927C67.924 65.0512 68.1934 65.037 68.3518 64.861C68.5103 64.685 68.4961 64.4158 68.3201 64.2573L64.6551 60.9582C64.5671 60.879 64.456 60.8428 64.3468 60.8486ZM34.5131 63.9804C34.376 63.9753 34.2393 64.0366 34.1522 64.1564L31.2514 68.1439C31.1121 68.3354 31.154 68.6018 31.3455 68.7411C31.537 68.8804 31.8034 68.8385 31.9427 68.647L34.8435 64.6595C34.9828 64.4679 34.9409 64.2015 34.7494 64.0622C34.6776 64.01 34.5953 63.9832 34.5131 63.9804ZM60.8542 63.9982C60.7719 64.0013 60.6895 64.0276 60.6176 64.0798C60.4259 64.2189 60.3836 64.4851 60.5226 64.6768L63.418 68.6682C63.5571 68.8599 63.8233 68.9023 64.0151 68.7633C64.2068 68.6242 64.2491 68.3579 64.1101 68.1662L61.2147 64.1748C61.1278 64.055 60.9912 63.9935 60.8542 63.9982ZM30.7684 64.6141C30.6592 64.6202 30.5522 64.6674 30.473 64.7554L29.0851 66.2968C28.9267 66.4728 28.9407 66.7422 29.1167 66.9007C29.2927 67.0591 29.562 67.0449 29.7204 66.8689L31.1084 65.3275C31.2669 65.1515 31.2527 64.8821 31.0768 64.7237C30.9887 64.6444 30.8775 64.6084 30.7684 64.6141ZM64.6201 64.6161C64.511 64.61 64.3998 64.6465 64.3118 64.7257C64.1357 64.8842 64.1216 65.1534 64.28 65.3294L65.6677 66.8711C65.8261 67.0472 66.0953 67.0613 66.2714 66.9028C66.4474 66.7444 66.4616 66.475 66.3031 66.2989L64.9154 64.7574C64.8362 64.6694 64.7292 64.6219 64.6201 64.6161ZM38.5639 66.3261C38.3973 66.3221 38.2377 66.4174 38.1653 66.5796L36.1563 71.0828C36.0598 71.2991 36.1562 71.5509 36.3725 71.6474C36.5888 71.7439 36.8406 71.6475 36.9371 71.4312L38.9462 66.928C39.0426 66.7117 38.9462 66.4599 38.7299 66.3634C38.6759 66.3392 38.6194 66.3272 38.5639 66.3261ZM56.8001 66.3385C56.7445 66.3395 56.6881 66.3515 56.634 66.3756C56.4177 66.4718 56.3208 66.7234 56.417 66.9398L58.4198 71.4457C58.516 71.662 58.7678 71.7589 58.9842 71.6627C59.2005 71.5666 59.2974 71.3149 59.2012 71.0985L57.1984 66.5926C57.1263 66.4303 56.9667 66.3353 56.8001 66.3385ZM35.0336 67.7184C34.8968 67.7275 34.7673 67.8033 34.6933 67.9315L33.6562 69.7278C33.5378 69.9329 33.6076 70.1934 33.8127 70.3118C34.0178 70.4302 34.2782 70.3604 34.3966 70.1553L35.4338 68.359C35.5522 68.1539 35.4824 67.8935 35.2773 67.7751C35.2004 67.7307 35.1156 67.7127 35.0336 67.7184ZM60.3575 67.7184C60.2754 67.7123 60.1909 67.7307 60.1139 67.7751C59.9088 67.8935 59.8391 68.1539 59.9575 68.359L60.9946 70.1554C61.113 70.3605 61.3734 70.4302 61.5785 70.3118C61.7837 70.1934 61.8534 69.933 61.735 69.7279L60.6979 67.9315C60.6239 67.8033 60.4943 67.728 60.3575 67.7184ZM43.0364 67.7828C42.8373 67.7808 42.6588 67.9188 42.6158 68.1216L41.591 72.945C41.5418 73.1767 41.6887 73.4028 41.9204 73.4521C42.152 73.5013 42.3782 73.3544 42.4274 73.1227L43.4521 68.2992C43.5014 68.0676 43.3544 67.8414 43.1228 67.7922C43.0938 67.7861 43.0649 67.7828 43.0364 67.7828ZM52.3395 67.7858C52.3111 67.7861 52.2823 67.7889 52.2534 67.795C52.0217 67.844 51.8746 68.0699 51.9236 68.3016L52.9449 73.1259C52.9939 73.3576 53.22 73.5046 53.4517 73.4556C53.6834 73.4065 53.8305 73.1805 53.7814 72.9487L52.76 68.1249C52.7171 67.9221 52.5386 67.7843 52.3395 67.7858ZM47.6955 68.2724C47.4587 68.2724 47.268 68.463 47.268 68.6999V73.6309C47.268 73.8678 47.4587 74.0584 47.6955 74.0584C47.9324 74.0584 48.123 73.8678 48.123 73.6309V68.6999C48.123 68.463 47.9324 68.2724 47.6955 68.2724ZM39.8482 69.8658C39.6822 69.8799 39.5332 69.9909 39.4783 70.1599L38.8371 72.1326C38.7639 72.3578 38.8863 72.5981 39.1115 72.6713C39.3367 72.7446 39.577 72.622 39.6502 72.3968L40.2914 70.4243C40.3646 70.199 40.2422 69.9587 40.017 69.8855C39.9608 69.8672 39.9035 69.8611 39.8482 69.8658ZM55.5395 69.8668C55.4842 69.8617 55.427 69.8678 55.3707 69.8864C55.1455 69.9596 55.023 70.1999 55.0962 70.4251L55.7371 72.3979C55.8104 72.6231 56.0506 72.7454 56.2759 72.6722C56.5011 72.599 56.6236 72.3589 56.5504 72.1336L55.9093 70.1609C55.8543 69.992 55.7056 69.8809 55.5395 69.8668ZM45.0121 70.9655C44.8138 70.9846 44.6505 71.1402 44.6289 71.3463L44.4121 73.4093C44.3873 73.6448 44.557 73.8542 44.7925 73.879C45.0281 73.9038 45.2377 73.7341 45.2625 73.4986L45.4793 71.4358C45.504 71.2003 45.3343 70.9906 45.0988 70.9659C45.0694 70.9628 45.0404 70.9628 45.0121 70.9655ZM50.3618 70.9675C50.3334 70.9645 50.3043 70.9645 50.2748 70.9679C50.0393 70.9925 49.8694 71.2019 49.894 71.4374L50.1095 73.5006C50.1341 73.7361 50.3435 73.9058 50.5791 73.8812C50.8147 73.8566 50.9845 73.6472 50.9599 73.4116L50.7446 71.3487C50.7231 71.1426 50.56 70.9868 50.3618 70.9675Z" fill="#F4F2F3"/>
<g opacity="0.409" filter="url(#filter1_f_1024_11630)">
<path d="M67.7322 29.1641L44.343 42.7532L29.5547 66.0342L51.1888 50.0101L67.7322 29.1641Z" fill="black"/>
</g>
<path d="M51.0479 49.7768L44.3438 42.756L68.1258 26.7578L51.0479 49.7768Z" fill="#FF5150"/>
<path d="M51.0487 49.7747L44.3445 42.7539L27.2666 65.7729L51.0487 49.7747Z" fill="#F1F1F1"/>
<path opacity="0.243" d="M27.2666 65.775L51.0487 49.7768L68.1266 26.7578L27.2666 65.775Z" fill="black"/>
</g>
<defs>
<filter id="filter0_f_1024_11630" x="14.6438" y="16.9514" width="66.1079" height="63.8374" filterUnits="userSpaceOnUse" color-interpolation-filters="sRGB">
<feFlood flood-opacity="0" result="BackgroundImageFix"/>
<feBlend mode="normal" in="SourceGraphic" in2="BackgroundImageFix" result="shape"/>
<feGaussianBlur stdDeviation="1.20299" result="effect1_foregroundBlur_1024_11630"/>
</filter>
<filter id="filter1_f_1024_11630" x="28.8708" y="28.4802" width="39.5454" height="38.2388" filterUnits="userSpaceOnUse" color-interpolation-filters="sRGB">
<feFlood flood-opacity="0" result="BackgroundImageFix"/>
<feBlend mode="normal" in="SourceGraphic" in2="BackgroundImageFix" result="shape"/>
<feGaussianBlur stdDeviation="0.341923" result="effect1_foregroundBlur_1024_11630"/>
</filter>
<radialGradient id="paint0_radial_1024_11630" cx="0" cy="0" r="1" gradientUnits="userSpaceOnUse" gradientTransform="translate(47.6963 47.9931) rotate(90) scale(47.04)">
<stop stop-color="#333944"/>
<stop offset="1" stop-color="#222428"/>
</radialGradient>
<linearGradient id="paint1_linear_1024_11630" x1="47.6955" y1="78.0801" x2="47.6955" y2="14.451" gradientUnits="userSpaceOnUse">
<stop stop-color="#BDBDBD"/>
<stop offset="1" stop-color="white"/>
</linearGradient>
<radialGradient id="paint2_radial_1024_11630" cx="0" cy="0" r="1" gradientUnits="userSpaceOnUse" gradientTransform="translate(47.828 41.9877) scale(31.8147 31.8147)">
<stop stop-color="#06C2E7"/>
<stop offset="0.25" stop-color="#0DB8EC"/>
<stop offset="0.5" stop-color="#12AEF1"/>
<stop offset="0.75" stop-color="#1F86F9"/>
<stop offset="1" stop-color="#107DDD"/>
</radialGradient>
<clipPath id="clip0_1024_11630">
<rect width="67.2" height="66.8323" fill="white" transform="translate(14.0967 14.3926)"/>
</clipPath>
</defs>
</svg>
