<svg width="95" height="95" viewBox="0 0 95 95" fill="none" xmlns="http://www.w3.org/2000/svg">
<rect x="1.05579" y="0.777469" width="92.736" height="92.736" rx="13.44" fill="url(#paint0_radial_1024_11540)"/>
<rect x="1.05579" y="0.777469" width="92.736" height="92.736" rx="13.44" stroke="#6886C3" stroke-width="1.344"/>
<path d="M81.0243 48.7621C81.0243 43.4496 79.6508 38.4589 77.2421 34.1219C87.5085 10.887 66.2418 14.29 65.0577 14.5218C60.5521 15.4035 56.3836 16.8189 52.5388 18.6134C51.9718 18.5814 51.4011 18.5638 50.8265 18.5638C36.4769 18.5638 24.4654 28.5724 21.3913 41.9896C28.9544 33.5048 34.2472 30.0812 37.4169 28.7115C36.9144 29.1611 36.4182 29.6177 35.9285 30.0812C35.7663 30.2343 35.6101 30.3897 35.4503 30.5435C35.1292 30.8509 34.8108 31.1611 34.4953 31.4741C34.3089 31.6597 34.1278 31.8468 33.944 32.034C33.6668 32.315 33.3916 32.5981 33.1185 32.8832C32.9258 33.0853 32.7378 33.2877 32.5488 33.4901C32.2961 33.7598 32.0455 34.0314 31.7968 34.3049C31.6051 34.5167 31.4161 34.7283 31.2277 34.9407C30.8025 35.4188 30.3828 35.9019 29.9687 36.3897C29.7529 36.6445 29.5385 36.9006 29.3256 37.158C29.1382 37.3848 28.9513 37.6111 28.7678 37.8376C28.571 38.0811 28.3755 38.3255 28.1814 38.571C27.9934 38.8078 27.8057 39.0441 27.6222 39.2806C27.4474 39.5055 27.2778 39.7297 27.1069 39.9541C26.914 40.208 26.7195 40.4616 26.5318 40.7138C26.3974 40.8944 26.2685 41.0734 26.1365 41.2533C24.9986 42.8055 23.9087 44.3925 22.8686 46.0119C22.866 46.0155 22.8634 46.0192 22.8615 46.0232C22.607 46.42 22.3555 46.8188 22.1068 47.2194C22.0937 47.2406 22.0801 47.2622 22.0669 47.2839C21.8262 47.6723 21.5883 48.0624 21.3532 48.4542L21.3285 48.4949C20.739 49.4767 20.1669 50.469 19.6126 51.4711C16.8928 56.3998 15.5687 59.8433 15.5115 60.0478C6.92302 90.7524 33.728 77.7862 37.4684 75.8505C41.4959 77.8403 46.0298 78.9601 50.8265 78.9601C63.957 78.9601 75.1288 70.5785 79.2873 58.8739H63.4202C61.0724 62.8402 56.5524 65.5269 51.3596 65.5269C43.7513 65.5269 37.5839 59.7624 37.5839 52.6513H80.7757C80.9395 51.3779 81.0243 50.0798 81.0243 48.7621ZM75.3831 19.0452C77.9837 20.8005 80.0693 23.5568 76.4875 32.8396C73.0519 27.3145 67.8832 22.9804 61.7399 20.5982C64.5345 19.2486 71.4551 16.394 75.3831 19.0452V19.0452ZM20.1189 75.7889C18.0005 73.6167 17.6262 68.3262 22.3003 58.6859C24.6589 65.4676 29.3658 71.1499 35.4495 74.7562C32.4239 76.4217 24.3914 80.1713 20.1189 75.7889V75.7889ZM37.5172 44.3936C37.7587 37.4822 43.7736 31.9484 51.1638 31.9484C58.554 31.9484 64.5692 37.4822 64.8107 44.3936H37.5172Z" fill="#1EBBEE"/>
<defs>
<radialGradient id="paint0_radial_1024_11540" cx="0" cy="0" r="1" gradientUnits="userSpaceOnUse" gradientTransform="translate(47.4238 47.1455) rotate(90) scale(47.04)">
<stop stop-color="#333944"/>
<stop offset="1" stop-color="#222428"/>
</radialGradient>
</defs>
</svg>
