<svg width="95" height="95" viewBox="0 0 95 95" fill="none" xmlns="http://www.w3.org/2000/svg">
<rect x="1.07239" y="1.33606" width="92.736" height="92.736" rx="13.44" fill="url(#paint0_radial_1024_11638)"/>
<rect x="1.07239" y="1.33606" width="92.736" height="92.736" rx="13.44" stroke="#6886C3" stroke-width="1.344"/>
<path fill-rule="evenodd" clip-rule="evenodd" d="M38.4301 14.1016C34.7228 14.1043 31.7225 17.1129 31.7252 20.8202C31.7225 24.5275 34.7256 27.5361 38.4329 27.5388H45.1405V20.8229C45.1433 17.1156 42.1402 14.107 38.4301 14.1016C38.4329 14.1016 38.4329 14.1016 38.4301 14.1016ZM38.4301 32.0216H20.5485C16.8412 32.0243 13.8381 35.0329 13.8408 38.7402C13.8353 42.4475 16.8385 45.4561 20.5458 45.4615H38.4301C42.1374 45.4588 45.1405 42.4502 45.1378 38.7429C45.1405 35.0329 42.1374 32.0243 38.4301 32.0216Z" fill="#36C5F0"/>
<path fill-rule="evenodd" clip-rule="evenodd" d="M80.9063 38.7402C80.9091 35.0329 77.906 32.0243 74.1987 32.0216C70.4914 32.0243 67.4883 35.0329 67.491 38.7402V45.4615H74.1987C77.906 45.4588 80.9091 42.4502 80.9063 38.7402ZM63.022 38.7402V20.8202C63.0247 17.1156 60.0243 14.107 56.317 14.1016C52.6097 14.1043 49.6066 17.1129 49.6094 20.8202V38.7402C49.6039 42.4475 52.607 45.4561 56.3143 45.4615C60.0216 45.4588 63.0247 42.4502 63.022 38.7402Z" fill="#2EB67D"/>
<path fill-rule="evenodd" clip-rule="evenodd" d="M56.3151 81.3022C60.0224 81.2994 63.0255 78.2908 63.0228 74.5835C63.0255 70.8762 60.0224 67.8677 56.3151 67.8649H49.6074V74.5835C49.6047 78.2881 52.6078 81.2967 56.3151 81.3022ZM56.3151 63.3794H74.1995C77.9068 63.3767 80.9099 60.3681 80.9071 56.6608C80.9126 52.9535 77.9095 49.9449 74.2022 49.9395H56.3178C52.6105 49.9422 49.6074 52.9508 49.6102 56.6581C49.6074 60.3681 52.6078 63.3767 56.3151 63.3794Z" fill="#ECB22E"/>
<path fill-rule="evenodd" clip-rule="evenodd" d="M13.8408 56.662C13.8381 60.3693 16.8412 63.3779 20.5485 63.3806C24.2558 63.3779 27.2589 60.3693 27.2562 56.662V49.9434H20.5485C16.8412 49.9461 13.8381 52.9547 13.8408 56.662ZM31.7252 56.662V74.582C31.7197 78.2893 34.7228 81.2979 38.4301 81.3033C42.1374 81.3006 45.1405 78.292 45.1378 74.5847V56.6675C45.1433 52.9602 42.1402 49.9516 38.4329 49.9461C34.7228 49.9461 31.7225 52.9547 31.7252 56.662Z" fill="#E01E5A"/>
<defs>
<radialGradient id="paint0_radial_1024_11638" cx="0" cy="0" r="1" gradientUnits="userSpaceOnUse" gradientTransform="translate(47.4404 47.7041) rotate(90) scale(47.04)">
<stop stop-color="#333944"/>
<stop offset="1" stop-color="#222428"/>
</radialGradient>
</defs>
</svg>
