<svg width="95" height="95" viewBox="0 0 95 95" fill="none" xmlns="http://www.w3.org/2000/svg">
<rect x="1.34387" y="1.04895" width="92.736" height="92.736" rx="13.44" fill="url(#paint0_radial_1024_11665)"/>
<rect x="1.34387" y="1.04895" width="92.736" height="92.736" rx="13.44" stroke="#6886C3" stroke-width="1.344"/>
<path d="M14.7517 37.6697C14.7517 37.6697 13.1149 36.4899 15.079 34.9145L19.6551 30.8227C19.6551 30.8227 20.9644 29.4451 22.3489 30.6454L64.5768 62.6164V77.9472C64.5768 77.9472 64.5563 80.3546 61.4669 80.0886L14.7517 37.6697Z" fill="#2489CA"/>
<path d="M25.6373 47.5527L14.7529 57.4482C14.7529 57.4482 13.6345 58.2802 14.7529 59.7669L19.8064 64.3634C19.8064 64.3634 21.0067 65.6523 22.7798 64.1861L34.3188 55.4364L25.6373 47.5527Z" fill="#1070B3"/>
<path d="M44.7448 47.6355L64.7062 32.3933L64.5767 17.1443C64.5767 17.1443 63.7242 13.8162 60.8804 15.5485L34.3174 39.7245L44.7448 47.6355Z" fill="#0877B9"/>
<path d="M61.4683 80.1087C62.6277 81.2954 64.0326 80.9066 64.0326 80.9066L79.5884 73.2412C81.5798 71.8841 81.3002 70.1996 81.3002 70.1996V24.4253C81.3002 22.4135 79.2406 21.7179 79.2406 21.7179L65.758 15.2187C62.8118 13.3978 60.8818 15.546 60.8818 15.546C60.8818 15.546 63.3642 13.7592 64.5781 17.1418V77.6672C64.5781 78.0833 64.4895 78.4924 64.3122 78.8607C63.9575 79.5768 63.1869 80.2451 61.3388 79.9655L61.4683 80.1087Z" fill="#3C99D4"/>
<defs>
<radialGradient id="paint0_radial_1024_11665" cx="0" cy="0" r="1" gradientUnits="userSpaceOnUse" gradientTransform="translate(47.7119 47.417) rotate(90) scale(47.04)">
<stop stop-color="#333944"/>
<stop offset="1" stop-color="#222428"/>
</radialGradient>
</defs>
</svg>
