<svg width="95" height="95" viewBox="0 0 95 95" fill="none" xmlns="http://www.w3.org/2000/svg">
<rect x="0.752078" y="1.21497" width="92.736" height="92.736" rx="13.44" fill="url(#paint0_radial_1024_11443)"/>
<rect x="0.752078" y="1.21497" width="92.736" height="92.736" rx="13.44" stroke="#6886C3" stroke-width="1.344"/>
<g clip-path="url(#clip0_1024_11443)">
<path d="M64.9705 13.9824H29.2705C20.572 13.9824 13.5205 21.0339 13.5205 29.7324V65.4324C13.5205 74.1309 20.572 81.1824 29.2705 81.1824H64.9705C73.669 81.1824 80.7205 74.1309 80.7205 65.4324V29.7324C80.7205 21.0339 73.669 13.9824 64.9705 13.9824Z" fill="#F02E65"/>
<path fill-rule="evenodd" clip-rule="evenodd" d="M55.5065 64.5915C52.4195 64.5915 49.5257 63.7641 47.0354 62.3185C45.1667 63.4003 43.09 64.124 40.9102 64.4288C36.4709 65.0496 31.9666 63.8814 28.3885 61.1814C26.615 59.845 25.1223 58.1723 23.9956 56.259C22.8689 54.3453 22.1302 52.2285 21.8219 50.0296C21.5136 47.8306 21.6416 45.5923 22.1987 43.4427C22.7558 41.2931 23.731 39.2745 25.0686 37.502C26.4062 35.7295 28.0799 34.2379 29.9942 33.1126C31.9084 31.9872 34.0257 31.2501 36.225 30.9433C38.4243 30.6366 40.6624 30.7662 42.8115 31.3248C44.2949 31.7103 45.7158 32.295 47.0364 33.0605C49.5268 31.6156 52.4201 30.7883 55.5065 30.7883C64.8413 30.7883 72.4081 38.3553 72.4081 47.6899C72.4081 57.0244 64.8413 64.5915 55.5065 64.5915ZM44.2062 35.1208L44.2114 35.1164C41.8644 34.0633 39.2489 33.6794 36.6605 34.0414C33.0408 34.5476 29.7702 36.4711 27.5686 39.3886C25.367 42.3063 24.4145 45.9787 24.9207 49.5988C25.4269 53.2184 27.3504 56.4889 30.2679 58.6905C33.1854 60.8921 36.8581 61.8447 40.4779 61.3383C44.0978 60.8322 47.3682 58.9089 49.5698 55.9912C51.7714 53.0735 52.724 49.4012 52.2177 45.7813C51.9843 44.1113 51.4491 42.5155 50.6537 41.0649C49.2134 38.4482 46.9472 36.3499 44.2062 35.1208Z" fill="white"/>
<path d="M39.0213 41.8425C39.001 41.8924 38.7426 42.9074 38.4643 44.1113C38.1755 45.3151 37.7178 47.2156 37.4596 48.3396C36.9616 50.3992 36.6631 51.7524 36.6631 51.9317C36.6631 51.981 36.9718 52.0212 37.3495 52.0212H38.0364L38.3444 50.6478C38.5239 49.9017 38.922 48.1903 39.2403 46.8473C39.5587 45.5038 39.9465 43.8724 40.0961 43.2153C40.2449 42.5586 40.3943 41.9622 40.4242 41.8924C40.4544 41.8031 40.2848 41.7734 39.7676 41.7734C39.3794 41.7734 39.0408 41.8031 39.0213 41.8425ZM33.6781 46.1506L32.7627 47.1458L33.0317 47.4639C33.1804 47.6429 33.5888 48.091 33.9371 48.4591L34.5738 49.1355H36.3846L35.5292 48.2099C35.0612 47.713 34.6731 47.2353 34.6731 47.1757C34.6731 47.1061 35.0315 46.6586 35.4694 46.1808C35.907 45.6936 36.2652 45.2752 36.2652 45.2253C36.2652 45.1857 35.8871 45.1558 35.4296 45.1558H34.6038L33.6781 46.1506ZM40.6429 45.2153C40.6429 45.2455 40.8122 45.4343 41.0206 45.6432C41.7974 46.4194 42.3444 47.0765 42.3145 47.2053C42.2948 47.2752 41.9163 47.7424 41.459 48.2301L40.6334 49.1355H41.5585L42.4838 49.1255L43.3291 48.2005C43.7971 47.6834 44.1751 47.225 44.1751 47.1654C44.1751 47.1161 43.7771 46.6483 43.2794 46.1212L42.3843 45.1558H41.5183C41.0309 45.1558 40.6429 45.1857 40.6429 45.2153Z" fill="white"/>
</g>
<defs>
<radialGradient id="paint0_radial_1024_11443" cx="0" cy="0" r="1" gradientUnits="userSpaceOnUse" gradientTransform="translate(47.1201 47.583) rotate(90) scale(47.04)">
<stop stop-color="#333944"/>
<stop offset="1" stop-color="#222428"/>
</radialGradient>
<clipPath id="clip0_1024_11443">
<rect width="67.2" height="67.2" fill="white" transform="translate(13.5205 13.9824)"/>
</clipPath>
</defs>
</svg>
