<svg width="95" height="95" viewBox="0 0 95 95" fill="none" xmlns="http://www.w3.org/2000/svg">
<rect x="0.903445" y="0.912234" width="92.736" height="92.736" rx="13.44" fill="url(#paint0_radial_1024_11607)"/>
<rect x="0.903445" y="0.912234" width="92.736" height="92.736" rx="13.44" stroke="#6886C3" stroke-width="1.344"/>
<path d="M25.5719 14.3516H68.9719C75.5519 14.3516 80.8719 19.6716 80.8719 26.2516V67.9716C80.8719 74.5516 75.5519 79.8716 68.9719 79.8716H25.5719C18.9919 79.8716 13.6719 74.5516 13.6719 67.9716V26.2516C13.6719 19.6716 18.9919 14.3516 25.5719 14.3516Z" fill="#001E36"/>
<path d="M28.792 60.2997V31.4877C28.792 31.2917 28.876 31.1797 29.072 31.1797C29.548 31.1797 29.996 31.1797 30.64 31.1517C31.312 31.1237 32.012 31.1237 32.768 31.0957C33.524 31.0677 34.336 31.0677 35.204 31.0397C36.072 31.0117 36.912 31.0117 37.752 31.0117C40.048 31.0117 41.952 31.2917 43.52 31.8797C44.92 32.3557 46.208 33.1397 47.272 34.1757C48.168 35.0717 48.868 36.1637 49.316 37.3677C49.736 38.5437 49.96 39.7477 49.96 41.0077C49.96 43.4157 49.4 45.4037 48.28 46.9717C47.16 48.5397 45.592 49.7157 43.772 50.3877C41.868 51.0877 39.768 51.3397 37.472 51.3397C36.8 51.3397 36.352 51.3397 36.072 51.3117C35.792 51.2837 35.4 51.2837 34.868 51.2837V60.2717C34.896 60.4677 34.756 60.6357 34.56 60.6637C34.532 60.6637 34.504 60.6637 34.448 60.6637H29.128C28.904 60.6637 28.792 60.5517 28.792 60.2997ZM34.896 36.5837V45.9917C35.288 46.0197 35.652 46.0477 35.988 46.0477H37.472C38.564 46.0477 39.656 45.8797 40.692 45.5437C41.588 45.2917 42.372 44.7597 42.988 44.0597C43.576 43.3597 43.856 42.4077 43.856 41.1757C43.884 40.3077 43.66 39.4397 43.212 38.6837C42.736 37.9557 42.064 37.3957 41.252 37.0877C40.216 36.6677 39.096 36.4997 37.948 36.5277C37.22 36.5277 36.576 36.5277 36.044 36.5557C35.484 36.5277 35.092 36.5557 34.896 36.5837Z" fill="#31A8FF"/>
<path d="M67.4317 44.285C66.5917 43.837 65.6957 43.529 64.7437 43.333C63.7077 43.109 62.6717 42.969 61.6077 42.969C61.0477 42.941 60.4597 43.025 59.9277 43.165C59.5637 43.249 59.2557 43.445 59.0597 43.725C58.9197 43.949 58.8357 44.229 58.8357 44.481C58.8357 44.733 58.9477 44.985 59.1157 45.209C59.3677 45.517 59.7037 45.769 60.0677 45.965C60.7117 46.301 61.3837 46.609 62.0557 46.889C63.5677 47.393 65.0237 48.093 66.3677 48.933C67.2917 49.521 68.0477 50.305 68.5797 51.257C69.0277 52.153 69.2517 53.133 69.2237 54.141C69.2517 55.457 68.8597 56.773 68.1317 57.865C67.3477 58.985 66.2557 59.853 64.9957 60.357C63.6237 60.945 61.9437 61.253 59.9277 61.253C58.6397 61.253 57.3797 61.141 56.1197 60.889C55.1397 60.721 54.1597 60.413 53.2637 59.993C53.0677 59.881 52.9277 59.685 52.9557 59.461V54.589C52.9557 54.505 52.9837 54.393 53.0677 54.337C53.1517 54.281 53.2357 54.309 53.3197 54.365C54.4117 55.009 55.5597 55.457 56.7917 55.737C57.8557 56.017 58.9757 56.157 60.0957 56.157C61.1597 56.157 61.9157 56.017 62.4197 55.765C62.8677 55.569 63.1757 55.093 63.1757 54.589C63.1757 54.197 62.9517 53.833 62.5037 53.469C62.0557 53.105 61.1317 52.685 59.7597 52.153C58.3317 51.649 57.0157 50.977 55.7837 50.137C54.9157 49.521 54.1877 48.709 53.6557 47.757C53.2077 46.861 52.9837 45.881 53.0117 44.901C53.0117 43.697 53.3477 42.549 53.9637 41.513C54.6637 40.393 55.6997 39.497 56.9037 38.937C58.2197 38.265 59.8717 37.957 61.8597 37.957C63.0077 37.957 64.1837 38.041 65.3317 38.209C66.1717 38.321 66.9837 38.545 67.7397 38.853C67.8517 38.881 67.9637 38.993 68.0197 39.105C68.0477 39.217 68.0757 39.329 68.0757 39.441V44.005C68.0757 44.117 68.0197 44.229 67.9357 44.285C67.6837 44.341 67.5437 44.341 67.4317 44.285Z" fill="#31A8FF"/>
<defs>
<radialGradient id="paint0_radial_1024_11607" cx="0" cy="0" r="1" gradientUnits="userSpaceOnUse" gradientTransform="translate(47.2714 47.2802) rotate(90) scale(47.04)">
<stop stop-color="#333944"/>
<stop offset="1" stop-color="#222428"/>
</radialGradient>
</defs>
</svg>
