<svg width="95" height="95" viewBox="0 0 95 95" fill="none" xmlns="http://www.w3.org/2000/svg">
<rect x="1.32825" y="0.929812" width="92.736" height="92.736" rx="13.44" fill="url(#paint0_radial_1024_11462)"/>
<rect x="1.32825" y="0.929812" width="92.736" height="92.736" rx="13.44" stroke="#6886C3" stroke-width="1.344"/>
<path fill-rule="evenodd" clip-rule="evenodd" d="M28.0543 20.418C24.22 20.418 21.3828 23.774 21.5098 27.4136C21.6317 30.9102 21.4733 35.4389 20.3333 39.132C19.1892 42.8355 17.2556 45.1823 14.0967 45.4836V48.8845C17.2556 49.1864 19.1892 51.5321 20.3332 55.2361C21.4733 58.9292 21.6316 63.4579 21.5097 66.9545C21.3826 70.5935 24.2199 73.9501 28.0549 73.9501H67.3441C71.1785 73.9501 74.0152 70.5941 73.8881 66.9545C73.7662 63.4579 73.9246 58.9292 75.0647 55.2361C76.2088 51.5321 78.1376 49.1855 81.2967 48.8845V45.4836C78.1378 45.1817 76.2089 42.836 75.0647 39.132C73.9245 35.4394 73.7662 30.9102 73.8881 27.4136C74.0152 23.7746 71.1785 20.418 67.3441 20.418H28.0538H28.0543ZM59.656 53.3705C59.656 58.382 55.9179 61.4214 49.7144 61.4214H39.1543C38.8522 61.4214 38.5625 61.3014 38.3489 61.0878C38.1353 60.8742 38.0153 60.5845 38.0153 60.2824V34.0858C38.0153 33.7837 38.1353 33.494 38.3489 33.2804C38.5625 33.0668 38.8522 32.9468 39.1543 32.9468H49.6543C54.827 32.9468 58.2217 35.7488 58.2217 40.0506C58.2217 43.07 55.938 45.7731 53.0286 46.2467V46.4042C56.9892 46.8386 59.656 49.5817 59.656 53.3705V53.3705ZM48.5629 36.5574H42.5417V45.0624H47.6131C51.5335 45.0624 53.6952 43.4837 53.6952 40.662C53.6948 38.0175 51.8363 36.5574 48.5629 36.5574ZM42.5417 48.437V57.8096H48.7845C52.8664 57.8096 55.0284 56.1718 55.0284 53.0937C55.0284 50.0156 52.8057 48.4364 48.522 48.4364H42.5417V48.437Z" fill="white"/>
<defs>
<radialGradient id="paint0_radial_1024_11462" cx="0" cy="0" r="1" gradientUnits="userSpaceOnUse" gradientTransform="translate(47.6963 47.2978) rotate(90) scale(47.04)">
<stop stop-color="#333944"/>
<stop offset="1" stop-color="#222428"/>
</radialGradient>
</defs>
</svg>
