<svg width="95" height="95" viewBox="0 0 95 95" fill="none" xmlns="http://www.w3.org/2000/svg">
<rect x="1.07239" y="1.19934" width="92.736" height="92.736" rx="13.44" fill="url(#paint0_radial_1024_11575)"/>
<rect x="1.07239" y="1.19934" width="92.736" height="92.736" rx="13.44" stroke="#6886C3" stroke-width="1.344"/>
<path d="M79.5165 45.2481C79.494 44.9107 79.4153 44.5901 79.2803 44.2864C79.1566 43.9827 78.9823 43.7241 78.7573 43.5103C78.5436 43.2854 78.2849 43.1111 77.9812 42.9873C77.6888 42.8524 77.3626 42.7849 77.0027 42.7849C76.6315 42.7849 76.2941 42.8524 75.9904 42.9873C75.698 43.1111 75.4449 43.2854 75.2312 43.5103C75.0175 43.7353 74.8488 43.9996 74.7251 44.3033C74.6013 44.5957 74.5282 44.9107 74.5057 45.2481H79.5165ZM80.9 47.6776C80.7088 48.6561 80.287 49.3928 79.6346 49.8877C78.9823 50.3826 78.1612 50.6301 77.1714 50.6301C76.4741 50.6301 75.8667 50.5176 75.3493 50.2926C74.8432 50.0677 74.4157 49.7527 74.0671 49.3478C73.7184 48.9429 73.4541 48.4593 73.2741 47.8969C73.1054 47.3345 73.0098 46.7215 72.9873 46.0579C72.9873 45.3943 73.0885 44.7869 73.291 44.2358C73.4934 43.6847 73.7746 43.2067 74.1346 42.8018C74.5057 42.3968 74.9388 42.0819 75.4337 41.857C75.9398 41.632 76.4909 41.5195 77.087 41.5195C77.8631 41.5195 78.5042 41.6826 79.0104 42.0088C79.5278 42.3237 79.9383 42.7286 80.242 43.2235C80.5569 43.7184 80.7706 44.2583 80.8831 44.8432C81.0068 45.4281 81.0574 45.9848 81.0349 46.5134H74.5057C74.4945 46.8959 74.5395 47.2614 74.6407 47.6101C74.7419 47.9475 74.905 48.2512 75.13 48.5211C75.3549 48.7798 75.6417 48.9879 75.9904 49.1454C76.3391 49.3028 76.7496 49.3816 77.222 49.3816C77.8294 49.3816 78.3243 49.241 78.7067 48.9598C79.1004 48.6786 79.3591 48.2512 79.4828 47.6776H80.9Z" fill="#880000"/>
<path d="M67.521 47.6944C67.5322 48.0094 67.6053 48.2793 67.7403 48.5043C67.8753 48.718 68.0496 48.8923 68.2633 49.0273C68.4883 49.151 68.7357 49.241 69.0057 49.2972C69.2868 49.3535 69.5737 49.3816 69.8661 49.3816C70.091 49.3816 70.3272 49.3647 70.5747 49.331C70.8221 49.2972 71.0471 49.2354 71.2495 49.1454C71.4632 49.0554 71.6376 48.9261 71.7726 48.7573C71.9075 48.5774 71.975 48.3524 71.975 48.0825C71.975 47.7113 71.8344 47.4301 71.5532 47.2389C71.272 47.0477 70.9177 46.8959 70.4903 46.7834C70.0742 46.6597 69.6186 46.5528 69.1238 46.4628C68.6289 46.3616 68.1677 46.2266 67.7403 46.0579C67.3241 45.878 66.9755 45.6305 66.6943 45.3156C66.4131 45.0007 66.2725 44.562 66.2725 43.9996C66.2725 43.561 66.3681 43.1842 66.5593 42.8692C66.7618 42.5543 67.0148 42.3012 67.3185 42.11C67.6335 41.9076 67.9821 41.7614 68.3645 41.6714C68.7582 41.5701 69.1462 41.5195 69.5287 41.5195C70.0236 41.5195 70.4791 41.5645 70.8952 41.6545C71.3114 41.7332 71.6769 41.8795 71.9919 42.0932C72.3181 42.2956 72.5768 42.5768 72.768 42.9367C72.9592 43.2854 73.0716 43.7241 73.1054 44.2527H71.6713C71.6488 43.9715 71.5757 43.7409 71.452 43.561C71.3283 43.3698 71.1708 43.2179 70.9796 43.1054C70.7884 42.993 70.5747 42.9142 70.3385 42.8692C70.1135 42.813 69.883 42.7849 69.6468 42.7849C69.4331 42.7849 69.2137 42.8018 68.9888 42.8355C68.7751 42.8692 68.5782 42.9311 68.3983 43.0211C68.2183 43.0998 68.0721 43.2123 67.9596 43.3585C67.8472 43.4935 67.7909 43.6734 67.7909 43.8984C67.7909 44.1458 67.8753 44.3539 68.044 44.5226C68.2239 44.6801 68.4489 44.8151 68.7188 44.9275C68.9888 45.0288 69.2925 45.1188 69.6299 45.1975C69.9673 45.265 70.3047 45.3381 70.6422 45.4168C71.0021 45.4955 71.3508 45.5911 71.6882 45.7036C72.0369 45.8161 72.3406 45.9679 72.5993 46.1591C72.8692 46.3391 73.0829 46.5697 73.2404 46.8509C73.4091 47.1321 73.4934 47.4807 73.4934 47.8969C73.4934 48.4255 73.381 48.8642 73.156 49.2129C72.9423 49.5615 72.6555 49.8427 72.2956 50.0564C71.9469 50.2701 71.5476 50.4164 71.0977 50.4951C70.659 50.5851 70.2204 50.6301 69.7817 50.6301C69.2981 50.6301 68.8369 50.5794 68.3983 50.4782C67.9596 50.377 67.5716 50.2139 67.2342 49.9889C66.8967 49.7527 66.6268 49.4491 66.4243 49.0779C66.2219 48.6955 66.1094 48.2343 66.0869 47.6944H67.521Z" fill="#880000"/>
<path d="M59.618 46.0917C59.618 46.6203 59.6855 47.0927 59.8205 47.5089C59.9667 47.9138 60.1635 48.2568 60.411 48.538C60.6584 48.808 60.9452 49.016 61.2714 49.1622C61.6088 49.3085 61.9631 49.3816 62.3343 49.3816C62.7055 49.3816 63.0542 49.3085 63.3803 49.1622C63.7178 49.016 64.0102 48.808 64.2576 48.538C64.5051 48.2568 64.6963 47.9138 64.8313 47.5089C64.9775 47.0927 65.0506 46.6203 65.0506 46.0917C65.0506 45.563 64.9775 45.0963 64.8313 44.6913C64.6963 44.2752 64.5051 43.9265 64.2576 43.6453C64.0102 43.3641 63.7178 43.1504 63.3803 43.0042C63.0542 42.858 62.7055 42.7849 62.3343 42.7849C61.9631 42.7849 61.6088 42.858 61.2714 43.0042C60.9452 43.1504 60.6584 43.3641 60.411 43.6453C60.1635 43.9265 59.9667 44.2752 59.8205 44.6913C59.6855 45.0963 59.618 45.563 59.618 46.0917ZM58.0996 46.0917C58.0996 45.4506 58.1896 44.8544 58.3695 44.3033C58.5495 43.7409 58.8195 43.2573 59.1794 42.8524C59.5393 42.4362 59.9836 42.11 60.5122 41.8738C61.0408 41.6376 61.6482 41.5195 62.3343 41.5195C63.0317 41.5195 63.639 41.6376 64.1564 41.8738C64.6851 42.11 65.1293 42.4362 65.4893 42.8524C65.8492 43.2573 66.1191 43.7409 66.2991 44.3033C66.479 44.8544 66.569 45.4506 66.569 46.0917C66.569 46.7328 66.479 47.3289 66.2991 47.88C66.1191 48.4312 65.8492 48.9148 65.4893 49.331C65.1293 49.7359 64.6851 50.0564 64.1564 50.2926C63.639 50.5176 63.0317 50.6301 62.3343 50.6301C61.6482 50.6301 61.0408 50.5176 60.5122 50.2926C59.9836 50.0564 59.5393 49.7359 59.1794 49.331C58.8195 48.9148 58.5495 48.4312 58.3695 47.88C58.1896 47.3289 58.0996 46.7328 58.0996 46.0917Z" fill="#880000"/>
<path d="M51.5497 46.0917C51.5497 46.6203 51.6172 47.0927 51.7521 47.5089C51.8983 47.9138 52.0952 48.2568 52.3426 48.538C52.5901 48.808 52.8769 49.016 53.2031 49.1622C53.5405 49.3085 53.8948 49.3816 54.266 49.3816C54.6371 49.3816 54.9858 49.3085 55.312 49.1622C55.6494 49.016 55.9418 48.808 56.1893 48.538C56.4367 48.2568 56.6279 47.9138 56.7629 47.5089C56.9091 47.0927 56.9822 46.6203 56.9822 46.0917C56.9822 45.563 56.9091 45.0963 56.7629 44.6913C56.6279 44.2752 56.4367 43.9265 56.1893 43.6453C55.9418 43.3641 55.6494 43.1504 55.312 43.0042C54.9858 42.858 54.6371 42.7849 54.266 42.7849C53.8948 42.7849 53.5405 42.858 53.2031 43.0042C52.8769 43.1504 52.5901 43.3641 52.3426 43.6453C52.0952 43.9265 51.8983 44.2752 51.7521 44.6913C51.6172 45.0963 51.5497 45.563 51.5497 46.0917ZM50.0312 46.0917C50.0312 45.4506 50.1212 44.8544 50.3012 44.3033C50.4812 43.7409 50.7511 43.2573 51.111 42.8524C51.4709 42.4362 51.9152 42.11 52.4439 41.8738C52.9725 41.6376 53.5799 41.5195 54.266 41.5195C54.9633 41.5195 55.5707 41.6376 56.0881 41.8738C56.6167 42.11 57.061 42.4362 57.4209 42.8524C57.7808 43.2573 58.0508 43.7409 58.2307 44.3033C58.4107 44.8544 58.5007 45.4506 58.5007 46.0917C58.5007 46.7328 58.4107 47.3289 58.2307 47.88C58.0508 48.4312 57.7808 48.9148 57.4209 49.331C57.061 49.7359 56.6167 50.0564 56.0881 50.2926C55.5707 50.5176 54.9633 50.6301 54.266 50.6301C53.5799 50.6301 52.9725 50.5176 52.4439 50.2926C51.9152 50.0564 51.4709 49.7359 51.111 49.331C50.7511 48.9148 50.4812 48.4312 50.3012 47.88C50.1212 47.3289 50.0312 46.7328 50.0312 46.0917Z" fill="#880000"/>
<path d="M49.957 49.7021C49.957 51.1306 49.6308 52.1991 48.9784 52.9077C48.3261 53.6163 47.3026 53.9706 45.9079 53.9706C45.5029 53.9706 45.0868 53.9256 44.6594 53.8356C44.2432 53.7456 43.8608 53.5994 43.5121 53.397C43.1747 53.1945 42.8935 52.9302 42.6686 52.604C42.4436 52.2778 42.3199 51.8785 42.2974 51.4061H43.7315C43.7427 51.6648 43.8214 51.8842 43.9677 52.0641C44.1251 52.2441 44.3107 52.3903 44.5244 52.5028C44.7494 52.6152 44.9912 52.694 45.2499 52.739C45.5086 52.7952 45.756 52.8233 45.9922 52.8233C46.4646 52.8233 46.8639 52.739 47.1901 52.5703C47.5163 52.4128 47.7862 52.1878 47.9999 51.8954C48.2136 51.6142 48.3654 51.2712 48.4554 50.8663C48.5567 50.4613 48.6073 50.0171 48.6073 49.5334V48.9598H48.5735C48.3261 49.4997 47.9493 49.899 47.4431 50.1577C46.9483 50.4051 46.4196 50.5288 45.8572 50.5288C45.2049 50.5288 44.6369 50.4107 44.1532 50.1745C43.6696 49.9383 43.2647 49.6234 42.9385 49.2297C42.6123 48.8248 42.3649 48.358 42.1962 47.8294C42.0387 47.2895 41.96 46.7215 41.96 46.1254C41.96 45.608 42.0274 45.0794 42.1624 44.5395C42.2974 43.9884 42.5223 43.4935 42.8373 43.0548C43.1522 42.6049 43.5684 42.2394 44.0858 41.9582C44.6031 41.6657 45.2386 41.5195 45.9922 41.5195C46.5433 41.5195 47.0495 41.6433 47.5106 41.8907C47.9718 42.1269 48.3317 42.4868 48.5904 42.9705H48.6073V41.722H49.957V49.7021ZM45.9416 49.2803C46.414 49.2803 46.8133 49.1847 47.1395 48.9935C47.4769 48.7911 47.7468 48.5324 47.9493 48.2175C48.1517 47.8913 48.298 47.5257 48.3879 47.1208C48.4892 46.7159 48.5398 46.311 48.5398 45.9061C48.5398 45.5237 48.4948 45.1469 48.4048 44.7757C48.3148 44.4045 48.1686 44.0727 47.9662 43.7803C47.775 43.4766 47.5219 43.2348 47.2069 43.0548C46.892 42.8749 46.5096 42.7849 46.0597 42.7849C45.5985 42.7849 45.2049 42.8749 44.8787 43.0548C44.5525 43.2235 44.2826 43.4541 44.0689 43.7465C43.8664 44.039 43.7146 44.3764 43.6134 44.7588C43.5234 45.1412 43.4784 45.5405 43.4784 45.9567C43.4784 46.3504 43.5178 46.744 43.5965 47.1377C43.6752 47.5314 43.8102 47.8913 44.0014 48.2175C44.1926 48.5324 44.4457 48.7911 44.7606 48.9935C45.0755 49.1847 45.4692 49.2803 45.9416 49.2803Z" fill="#880000"/>
<path d="M34.6758 41.722H36.0255V43.1054H36.0592C36.6554 42.0482 37.6001 41.5195 38.8936 41.5195C39.4672 41.5195 39.9453 41.5983 40.3277 41.7557C40.7101 41.9132 41.0194 42.1325 41.2556 42.4137C41.4918 42.6949 41.6549 43.0323 41.7449 43.426C41.8461 43.8084 41.8967 44.2358 41.8967 44.7082V50.4445H40.4627V44.5395C40.4627 43.9996 40.3052 43.5722 39.9903 43.2573C39.6753 42.9423 39.2423 42.7849 38.6912 42.7849C38.2525 42.7849 37.8701 42.8524 37.5439 42.9873C37.229 43.1223 36.9647 43.3135 36.751 43.561C36.5373 43.8084 36.3742 44.1008 36.2617 44.4383C36.1605 44.7645 36.1098 45.1244 36.1098 45.518V50.4445H34.6758V41.722Z" fill="#880000"/>
<path d="M27.6522 46.0917C27.6522 46.6203 27.7197 47.0927 27.8547 47.5089C28.0009 47.9138 28.1977 48.2568 28.4452 48.538C28.6926 48.808 28.9794 49.016 29.3056 49.1622C29.643 49.3085 29.9973 49.3816 30.3685 49.3816C30.7397 49.3816 31.0883 49.3085 31.4145 49.1622C31.7519 49.016 32.0444 48.808 32.2918 48.538C32.5393 48.2568 32.7305 47.9138 32.8655 47.5089C33.0117 47.0927 33.0848 46.6203 33.0848 46.0917C33.0848 45.563 33.0117 45.0963 32.8655 44.6913C32.7305 44.2752 32.5393 43.9265 32.2918 43.6453C32.0444 43.3641 31.7519 43.1504 31.4145 43.0042C31.0883 42.858 30.7397 42.7849 30.3685 42.7849C29.9973 42.7849 29.643 42.858 29.3056 43.0042C28.9794 43.1504 28.6926 43.3641 28.4452 43.6453C28.1977 43.9265 28.0009 44.2752 27.8547 44.6913C27.7197 45.0963 27.6522 45.563 27.6522 46.0917ZM26.1338 46.0917C26.1338 45.4506 26.2238 44.8544 26.4037 44.3033C26.5837 43.7409 26.8536 43.2573 27.2136 42.8524C27.5735 42.4362 28.0178 42.11 28.5464 41.8738C29.075 41.6376 29.6824 41.5195 30.3685 41.5195C31.0658 41.5195 31.6732 41.6376 32.1906 41.8738C32.7192 42.11 33.1635 42.4362 33.5234 42.8524C33.8834 43.2573 34.1533 43.7409 34.3333 44.3033C34.5132 44.8544 34.6032 45.4506 34.6032 46.0917C34.6032 46.7328 34.5132 47.3289 34.3333 47.88C34.1533 48.4312 33.8834 48.9148 33.5234 49.331C33.1635 49.7359 32.7192 50.0564 32.1906 50.2926C31.6732 50.5176 31.0658 50.6301 30.3685 50.6301C29.6824 50.6301 29.075 50.5176 28.5464 50.2926C28.0178 50.0564 27.5735 49.7359 27.2136 49.331C26.8536 48.9148 26.5837 48.4312 26.4037 47.88C26.2238 47.3289 26.1338 46.7328 26.1338 46.0917Z" fill="#880000"/>
<path d="M13.8408 41.722H15.1905V43.0042H15.2243C15.8766 42.0144 16.8158 41.5195 18.0418 41.5195C18.5817 41.5195 19.0709 41.632 19.5096 41.857C19.9482 42.0819 20.2576 42.4643 20.4375 43.0042C20.73 42.5318 21.1124 42.1663 21.5848 41.9076C22.0684 41.6489 22.597 41.5195 23.1707 41.5195C23.6093 41.5195 24.003 41.5701 24.3517 41.6714C24.7116 41.7614 25.0153 41.9076 25.2627 42.11C25.5214 42.3125 25.7182 42.5768 25.8532 42.903C25.9994 43.2179 26.0725 43.6003 26.0725 44.0502V50.4445H24.6385V44.7251C24.6385 44.4551 24.616 44.2021 24.571 43.9659C24.526 43.7297 24.4416 43.5272 24.3179 43.3585C24.1942 43.1785 24.0199 43.038 23.7949 42.9367C23.5812 42.8355 23.3 42.7849 22.9513 42.7849C22.2427 42.7849 21.686 42.9873 21.2811 43.3923C20.8762 43.7972 20.6737 44.337 20.6737 45.0119V50.4445H19.2396V44.7251C19.2396 44.4439 19.2115 44.1852 19.1553 43.949C19.1103 43.7128 19.0259 43.5103 18.9022 43.3416C18.7785 43.1617 18.6098 43.0267 18.3961 42.9367C18.1936 42.8355 17.9293 42.7849 17.6031 42.7849C17.187 42.7849 16.827 42.8692 16.5234 43.038C16.2309 43.2067 15.9891 43.4091 15.7979 43.6453C15.6179 43.8815 15.483 44.129 15.393 44.3877C15.3143 44.6351 15.2749 44.8432 15.2749 45.0119V50.4445H13.8408V41.722Z" fill="#880000"/>
<defs>
<radialGradient id="paint0_radial_1024_11575" cx="0" cy="0" r="1" gradientUnits="userSpaceOnUse" gradientTransform="translate(47.4404 47.5673) rotate(90) scale(47.04)">
<stop stop-color="#333944"/>
<stop offset="1" stop-color="#222428"/>
</radialGradient>
</defs>
</svg>
