<svg width="95" height="95" viewBox="0 0 95 95" fill="none" xmlns="http://www.w3.org/2000/svg">
<rect x="1.36048" y="1.35169" width="92.736" height="92.736" rx="13.44" fill="url(#paint0_radial_1024_11490)"/>
<rect x="1.36048" y="1.35169" width="92.736" height="92.736" rx="13.44" stroke="#6886C3" stroke-width="1.344"/>
<path d="M45.1802 14.1191H56.1616V64.4506C50.5367 65.5145 46.3959 65.9332 41.9155 65.9332C28.5032 65.9191 21.5215 59.9272 21.5215 48.4192C21.5215 37.3312 28.9272 30.1351 40.4033 30.1351C42.1841 30.1351 43.5407 30.2753 45.1802 30.6951V14.1191ZM45.565 39.7654C44.2788 39.3454 43.219 39.2054 41.8621 39.2054C36.308 39.2054 33.0998 42.5933 33.0998 48.5307C33.0998 54.3114 36.1668 57.5033 41.7917 57.5033C43.0069 57.5033 43.9963 57.4348 45.565 57.2248V39.7654V39.7654Z" fill="#2BA977"/>
<path d="M74.118 31.4864V56.6866C74.118 65.3651 73.4679 69.5385 71.5599 73.1367C69.779 76.5959 67.433 78.7772 62.5854 81.1865L52.3955 76.3846C57.2431 74.1318 59.5891 72.1411 61.0874 69.1032C62.6559 65.9966 63.1506 62.3985 63.1506 52.9345V31.4866H74.118V31.4864ZM62.044 14.1191H73.0253V25.2772H62.044V14.1191Z" fill="#2BA977"/>
<defs>
<radialGradient id="paint0_radial_1024_11490" cx="0" cy="0" r="1" gradientUnits="userSpaceOnUse" gradientTransform="translate(47.7285 47.7197) rotate(90) scale(47.04)">
<stop stop-color="#333944"/>
<stop offset="1" stop-color="#222428"/>
</radialGradient>
</defs>
</svg>
