<svg width="95" height="95" viewBox="0 0 95 95" fill="none" xmlns="http://www.w3.org/2000/svg">
<rect x="0.76868" y="1.04895" width="92.736" height="92.736" rx="13.44" fill="url(#paint0_radial_1024_11667)"/>
<rect x="0.76868" y="1.04895" width="92.736" height="92.736" rx="13.44" stroke="#6886C3" stroke-width="1.344"/>
<path d="M54.8237 13.8164C54.8237 13.935 54.8237 14.0537 54.8237 14.1786C54.8237 16.2222 54.0119 18.182 52.5669 19.6271C51.1218 21.0721 49.162 21.8839 47.1184 21.8839C45.0748 21.8839 43.1149 21.0721 41.6699 19.6271C40.2249 18.182 39.413 16.2222 39.413 14.1786C39.413 14.0537 39.413 13.935 39.413 13.8164H13.5371V81.0164H80.7371V13.8164H54.8237ZM45.6073 73.8231L42.3353 57.6319H42.2791L38.7387 73.8231H34.2304L29.1226 50.0327H33.5747L36.6219 66.2239H36.6781L40.3497 50.0327H44.5145L47.8115 66.4237H47.8677L51.3457 50.0327H55.7166L50.0407 73.8231H45.6073ZM70.122 73.8231L68.6046 68.528H60.5933L59.4257 73.8231H54.9736L60.7307 50.0327H67.7554L74.7552 73.8231H70.122Z" fill="#654FF0"/>
<path d="M63.4087 55.8965L61.4668 64.6259H67.5112L65.282 55.8965H63.4087Z" fill="#654FF0"/>
<defs>
<radialGradient id="paint0_radial_1024_11667" cx="0" cy="0" r="1" gradientUnits="userSpaceOnUse" gradientTransform="translate(47.1367 47.417) rotate(90) scale(47.04)">
<stop stop-color="#333944"/>
<stop offset="1" stop-color="#222428"/>
</radialGradient>
</defs>
</svg>
