<svg width="95" height="95" viewBox="0 0 95 95" fill="none" xmlns="http://www.w3.org/2000/svg">
<rect x="1.49622" y="1.21497" width="92.736" height="92.736" rx="13.44" fill="url(#paint0_radial_1024_11430)"/>
<rect x="1.49622" y="1.21497" width="92.736" height="92.736" rx="13.44" stroke="#6886C3" stroke-width="1.344"/>
<path d="M44.2725 20.0672L19.2183 30.4341C17.8251 31.0107 17.8395 32.9901 19.2415 33.5458L44.4001 43.5226C46.6106 44.3993 49.0723 44.3993 51.2828 43.5226L76.4418 33.5454C77.8434 32.9901 77.8586 31.0111 76.4646 30.4345L51.4112 20.0668C49.1255 19.121 46.5578 19.121 44.2721 20.0668" fill="#FCB400"/>
<path d="M50.0732 48.9735V73.8974C50.0732 75.0825 51.2686 75.8946 52.3705 75.4578L80.4049 64.5762C80.7176 64.4522 80.9858 64.2372 81.1748 63.959C81.3637 63.6807 81.4647 63.3521 81.4647 63.0158V38.0923C81.4647 36.9068 80.2693 36.0951 79.1674 36.5319L51.133 47.4135C50.8204 47.5376 50.5522 47.7526 50.3633 48.0308C50.1743 48.309 50.0733 48.6376 50.0732 48.9739" fill="#18BFFF"/>
<path d="M43.5267 50.2577L35.2067 54.2749L34.3619 54.6832L16.7989 63.0986C15.686 63.6357 14.2646 62.8243 14.2646 61.5876V38.1948C14.2646 37.7474 14.4941 37.3611 14.8017 37.0705C14.928 36.9448 15.0712 36.8374 15.2272 36.7514C15.6465 36.4996 16.2451 36.4324 16.7541 36.6337L43.3869 47.1864C44.7407 47.7235 44.847 49.6204 43.5267 50.2581" fill="#F82B60"/>
<path d="M43.5267 50.2577L35.2067 54.2749L14.8018 37.0701C14.928 36.9446 15.0712 36.8373 15.2272 36.7514C15.6465 36.4996 16.2451 36.4324 16.7541 36.6337L43.3869 47.1864C44.7407 47.7235 44.847 49.6204 43.5267 50.2581" fill="black" fill-opacity="0.25"/>
<defs>
<radialGradient id="paint0_radial_1024_11430" cx="0" cy="0" r="1" gradientUnits="userSpaceOnUse" gradientTransform="translate(47.8642 47.583) rotate(90) scale(47.04)">
<stop stop-color="#333944"/>
<stop offset="1" stop-color="#222428"/>
</radialGradient>
</defs>
</svg>
