<svg width="96" height="95" viewBox="0 0 96 95" fill="none" xmlns="http://www.w3.org/2000/svg">
<rect x="1.64856" y="1.19934" width="92.736" height="92.736" rx="13.44" fill="url(#paint0_radial_1024_11573)"/>
<rect x="1.64856" y="1.19934" width="92.736" height="92.736" rx="13.44" stroke="#6886C3" stroke-width="1.344"/>
<path d="M75.8019 65.6744L49.8309 80.68C49.2833 80.9988 48.661 81.1668 48.0273 81.1668C47.3937 81.1668 46.7714 80.9988 46.2238 80.68L20.2528 65.6744C19.1346 65.025 18.4492 63.835 18.4492 62.5724V32.5612C18.4492 31.2628 19.1346 30.1085 20.2528 29.4592L46.2238 14.4536C46.7714 14.1348 47.3937 13.9668 48.0273 13.9668C48.661 13.9668 49.2833 14.1348 49.8309 14.4536L75.8019 29.4592C76.9203 30.1085 77.6055 31.2988 77.6055 32.5612V62.5724C77.5694 63.8348 76.884 65.025 75.8019 65.6744V65.6744Z" fill="#8D6748"/>
<path d="M47.9913 18.5293C47.4503 18.5293 46.9091 18.6735 46.4403 18.9621L24.0041 31.9115C23.0301 32.4527 22.4531 33.4986 22.4531 34.5805V60.4796C22.4531 61.5978 23.0301 62.6079 24.0041 63.149L46.4403 76.0985C46.9091 76.3871 47.4501 76.5313 47.9913 76.5313C48.532 76.5313 49.0734 76.3871 49.5423 76.0985L71.9785 63.1488C72.9525 62.6079 73.5295 61.5618 73.5295 60.4799V34.5805C73.5295 33.4625 72.9525 32.4527 71.9785 31.9115L49.5423 18.9619C49.0732 18.6735 48.5322 18.5293 47.9913 18.5293V18.5293ZM47.9913 19.6114C48.3518 19.6114 48.6767 19.7196 49.0011 19.9001L71.4373 32.8495C72.0505 33.21 72.4471 33.8956 72.4471 34.617V60.5159C72.4471 61.2373 72.0505 61.9225 71.4373 62.2832L49.0013 75.2326C48.6767 75.4129 48.352 75.5213 47.9913 75.5213C47.6344 75.5198 47.2849 75.4198 46.9812 75.2324L24.5451 62.2834C23.9318 61.9227 23.535 61.2376 23.535 60.5161V34.617C23.535 33.8956 23.9318 33.2102 24.5449 32.8493L46.981 19.9001C47.3057 19.7196 47.6664 19.6112 47.9908 19.6112L47.9913 19.6114ZM45.9171 42.1918H48.947C49.0554 42.1918 49.1275 42.1555 49.1996 42.0834C51.0032 40.0636 51.1836 35.8431 51.1836 34.5807C51.1836 34.4005 51.0392 34.22 50.8229 34.22H44.0415C43.8612 34.22 43.6807 34.3642 43.6807 34.5807C43.6807 35.8071 43.8612 40.0275 45.6648 42.0834C45.7369 42.1555 45.809 42.1918 45.9171 42.1918V42.1918ZM45.0876 35.3382H49.8489C50.0292 35.3382 50.2096 35.4824 50.2096 35.6989C50.2096 36.709 50.0292 39.5584 48.8028 41.0373C48.6947 41.1096 48.6226 41.1457 48.5142 41.1457H46.3862C46.2778 41.1457 46.2057 41.1096 46.1336 41.0373C44.9071 39.5947 44.7629 36.709 44.7268 35.6989C44.7268 35.5187 44.871 35.3382 45.0876 35.3382ZM48.1175 33.4988C48.1175 33.4988 49.4161 32.7411 48.6224 31.3706C48.1535 30.6489 47.9372 30.0359 48.1175 29.7833C47.6486 30.3605 46.8551 30.9736 47.7207 32.2723C48.0095 32.5969 48.1535 33.2821 48.1175 33.4986V33.4988ZM46.6746 33.6067C46.6746 33.6067 47.5402 33.1018 46.9993 32.1639C46.6746 31.695 46.5304 31.2622 46.6746 31.1178C46.3499 31.5146 45.845 31.9113 46.422 32.8132C46.6025 32.9935 46.6746 33.4626 46.6746 33.6067ZM46.5665 40.7129H48.37C48.4421 40.7129 48.5142 40.6768 48.5863 40.6047C49.1996 39.8833 49.4882 38.7651 49.6324 37.7911C49.6324 37.7911 49.5964 38.1158 48.7307 38.4405C47.5407 38.8733 45.4483 38.5846 45.4483 38.5846C45.6285 39.3421 45.9174 40.0636 46.3499 40.6047C46.386 40.6768 46.4944 40.7129 46.5665 40.7129ZM33.0037 50.8487V43.6347H31.6693L29.4689 47.0253L27.2686 43.6347H25.9339V50.8848H27.1963V45.7266L29.4326 49.0812H29.4687L31.7413 45.6906V50.8487H33.0037V50.8487ZM41.0839 43.7788C40.6148 43.5986 40.1099 43.4902 39.5689 43.4902C39.0277 43.4902 38.5228 43.5623 38.0537 43.7791C37.5846 43.9593 37.1881 44.2477 36.8634 44.5724C36.5225 44.9125 36.2527 45.3171 36.0699 45.7627C35.8897 46.2317 35.7811 46.7004 35.7811 47.2055V47.2416C35.7811 47.7465 35.8897 48.2516 36.0699 48.6844C36.2502 49.1535 36.5027 49.55 36.8274 49.8747C37.1521 50.1994 37.5488 50.488 38.0175 50.6682C38.4865 50.8487 38.9917 50.9571 39.5326 50.9571C40.0738 50.9571 40.5787 50.8848 41.0478 50.6682C41.5167 50.488 41.9134 50.1994 42.2379 49.8747C42.5789 49.5347 42.8487 49.1301 43.0316 48.6847C43.2119 48.2156 43.3203 47.7465 43.3203 47.2416V47.2055C43.3203 46.7004 43.2116 46.1957 43.0314 45.7627C42.8512 45.2938 42.5988 44.897 42.2742 44.5726C41.9495 44.2477 41.5527 43.9591 41.0839 43.7788V43.7788ZM41.9495 47.2776C41.9495 47.6023 41.8774 47.9269 41.769 48.2516C41.6248 48.54 41.4806 48.8286 41.2641 49.0451C41.0426 49.2652 40.7867 49.4479 40.5066 49.5861C40.2178 49.7305 39.8934 49.8026 39.5326 49.8026C39.2082 49.8026 38.8475 49.7305 38.5589 49.5861C38.2788 49.448 38.023 49.2654 37.8014 49.0454C37.5849 48.7926 37.4046 48.54 37.2963 48.2158C37.1881 47.8909 37.116 47.5665 37.116 47.2055V47.1695C37.116 46.8448 37.1881 46.5201 37.2963 46.1955C37.4407 45.9069 37.5849 45.6185 37.8014 45.4019C38.0229 45.1818 38.2788 44.999 38.5589 44.8608C38.8475 44.7166 39.1719 44.6445 39.5326 44.6445C39.8931 44.6445 40.218 44.7166 40.5066 44.8608C40.7867 44.999 41.0426 45.1818 41.2641 45.4019C41.4806 45.6545 41.6609 45.9068 41.769 46.2315C41.8774 46.5562 41.9493 46.8808 41.9493 47.2416V47.2776H41.9495ZM47.2879 46.1955C47.4321 45.9069 47.5765 45.6182 47.7928 45.4019C48.0144 45.1819 48.2702 44.9991 48.5503 44.8608C48.8389 44.7166 49.1275 44.6445 49.4882 44.6445C49.921 44.6445 50.2817 44.7166 50.6064 44.8968C50.9311 45.0773 51.2197 45.2938 51.5081 45.5461L52.3379 44.6084C52.1574 44.4282 51.9772 44.2837 51.7967 44.1393C51.6165 43.9951 51.3999 43.887 51.1836 43.7788C50.9311 43.7065 50.7146 43.6344 50.4259 43.5623C50.1376 43.5263 49.8489 43.4902 49.5243 43.4902C48.947 43.4902 48.4782 43.5984 48.0093 43.7786C47.5405 43.9591 47.1437 44.2477 46.819 44.5724C46.5006 44.9231 46.2445 45.3257 46.0615 45.7627C45.8725 46.2203 45.7745 46.7104 45.7729 47.2055V47.2416C45.7729 47.7465 45.8811 48.2153 46.0615 48.6844C46.2418 49.1535 46.4944 49.55 46.819 49.8747C47.1437 50.1994 47.5405 50.488 47.9733 50.6682C48.4298 50.8608 48.9206 50.9591 49.4161 50.9571C49.7408 50.9571 50.0652 50.9571 50.3899 50.8848C50.6425 50.8487 50.9311 50.7403 51.1474 50.6322C51.3639 50.524 51.5804 50.4157 51.7967 50.2354C52.0132 50.0552 52.1935 49.9108 52.3739 49.6942L51.5444 48.8647C51.2197 49.1535 50.895 49.3698 50.6064 49.55C50.3178 49.7305 49.921 49.8026 49.4882 49.8026C49.1636 49.8026 48.8389 49.6942 48.5503 49.5861C48.2619 49.4779 48.0093 49.2614 47.7928 49.0454C47.5765 48.7926 47.396 48.54 47.2879 48.2153C47.1797 47.8909 47.1074 47.5662 47.1074 47.2055V47.1695C47.1074 46.8448 47.1797 46.5201 47.2879 46.1955V46.1955ZM54.8989 43.6347V50.8487H56.1613V47.8188H59.6243V50.8487H60.8867V43.6344H59.6243V46.6285H56.1613V43.6344H54.8989V43.6347ZM68.75 49.1175L69.4715 50.8489H70.806L67.6319 43.5986H66.4774L63.3033 50.8487H64.6019L65.3592 49.1172H68.75V49.1175ZM67.0546 45.1136L68.281 47.9993H65.8283L67.0546 45.1136V45.1136ZM25.0322 53.5177H71.0225V53.1209H25.0322V53.5177ZM51.4723 39.5582C51.4723 39.7024 51.436 39.8108 51.436 39.9552H71.0225V39.5582H51.472H51.4723ZM43.4284 39.5582H25.0322V39.9552H43.4645C43.4645 39.811 43.4282 39.7026 43.4282 39.5582H43.4284Z" fill="white"/>
<defs>
<radialGradient id="paint0_radial_1024_11573" cx="0" cy="0" r="1" gradientUnits="userSpaceOnUse" gradientTransform="translate(48.0166 47.5673) rotate(90) scale(47.04)">
<stop stop-color="#333944"/>
<stop offset="1" stop-color="#222428"/>
</radialGradient>
</defs>
</svg>
