<svg width="95" height="95" viewBox="0 0 95 95" fill="none" xmlns="http://www.w3.org/2000/svg">
<rect x="0.783328" y="1.06458" width="92.736" height="92.736" rx="13.44" fill="url(#paint0_radial_1024_11513)"/>
<rect x="0.783328" y="1.06458" width="92.736" height="92.736" rx="13.44" stroke="#6886C3" stroke-width="1.344"/>
<path d="M67.8651 57.3928C68.5707 58.0984 68.0704 59.3043 67.0736 59.3043H48.4966C47.8768 59.3043 47.3766 59.8046 47.3766 60.4243V79.0014C47.3766 79.9982 46.1707 80.4984 45.4651 79.7928L25.4134 59.7411C25.1334 59.4611 24.9766 59.0803 24.9766 58.6846V38.0243C24.9766 37.4046 25.4768 36.9043 26.0966 36.9043H47.3766L67.8651 57.3928Z" fill="white"/>
<path d="M47.3773 36.9039L26.8888 16.4154C26.1832 15.7098 26.6835 14.5039 27.6803 14.5039H68.6573C69.2771 14.5039 69.7773 15.0042 69.7773 15.6239V35.7839C69.7773 36.4036 69.2771 36.9039 68.6573 36.9039H47.3773Z" fill="white"/>
<defs>
<radialGradient id="paint0_radial_1024_11513" cx="0" cy="0" r="1" gradientUnits="userSpaceOnUse" gradientTransform="translate(47.1513 47.4326) rotate(90) scale(47.04)">
<stop stop-color="#333944"/>
<stop offset="1" stop-color="#222428"/>
</radialGradient>
</defs>
</svg>
