<svg width="95" height="95" viewBox="0 0 95 95" fill="none" xmlns="http://www.w3.org/2000/svg">
<rect x="1.51184" y="1.48841" width="92.736" height="92.736" rx="13.44" fill="url(#paint0_radial_1024_11549)"/>
<rect x="1.51184" y="1.48841" width="92.736" height="92.736" rx="13.44" stroke="#6886C3" stroke-width="1.344"/>
<path d="M18.2165 59.9694C18.2809 60.115 18.3537 60.2494 18.4321 60.3838C18.4685 60.4622 18.5189 60.5434 18.5637 60.6162C18.6365 60.7618 18.7149 60.9018 18.7905 61.0418L19.2301 61.781C19.3113 61.9182 19.3897 62.0526 19.4821 62.187C19.6361 62.4502 19.8181 62.7078 19.9777 62.971C20.0505 63.0802 20.1177 63.1894 20.1989 63.2986C20.5069 63.7775 20.7869 64.1751 21.0865 64.5615C21.2993 64.8499 21.5121 65.1327 21.7417 65.4155C21.8173 65.5219 21.9013 65.6283 21.9797 65.7347L22.5985 66.4851C22.6741 66.5719 22.7497 66.6727 22.8309 66.7623C23.1053 67.0927 23.3965 67.4119 23.6877 67.7367C23.6877 67.7423 23.6961 67.7479 23.7017 67.7563C24.0629 68.2099 24.4521 68.6131 24.8777 68.9715L24.8889 68.9827C25.1129 69.2123 25.3369 69.4391 25.5749 69.6631L25.8577 69.9347C26.1685 70.2259 26.4794 70.5143 26.807 70.7943C26.8126 70.7943 26.8154 70.7999 26.821 70.8027L26.9806 70.9427C27.2662 71.1919 27.5546 71.4383 27.8486 71.6679L28.1986 71.9619C28.4366 72.1523 28.683 72.3315 28.9266 72.5191L29.3074 72.8103C29.5678 73.0063 29.845 73.1967 30.111 73.3871C30.209 73.4571 30.307 73.5271 30.4078 73.5915L30.489 73.6559L31.2758 74.1711L31.6118 74.3951C32.0234 74.6584 32.4322 74.9048 32.841 75.1512C32.9586 75.21 33.0762 75.2744 33.1854 75.3416C33.4878 75.5152 33.8014 75.6916 34.1066 75.8512C34.2746 75.9464 34.4482 76.0276 34.6218 76.1144C34.8318 76.232 35.0502 76.3468 35.2742 76.4644C35.3358 76.484 35.3862 76.5036 35.4366 76.5316L35.4478 76.5204C35.5402 76.5624 35.627 76.6072 35.7167 76.652C36.0527 76.82 36.4027 76.9796 36.7667 77.1364C36.8339 77.1644 36.9067 77.1924 36.9795 77.2316C37.3827 77.408 37.7859 77.576 38.2031 77.7384C38.2983 77.7664 38.3991 77.814 38.4971 77.8504C38.8751 77.9932 39.2643 78.1388 39.6507 78.276L39.7907 78.3264C40.2191 78.472 40.6419 78.612 41.0787 78.7436C41.1795 78.7716 41.2831 78.808 41.3895 78.836C41.8347 78.9704 42.2659 79.13 42.7167 79.214C71.4814 84.4304 79.8395 62.005 79.8395 62.005C72.817 71.1051 60.3541 73.5047 48.552 70.8335C48.1152 70.7327 47.6784 70.5927 47.236 70.4639C46.6115 70.2872 45.9925 70.092 45.3796 69.8787L45.6456 69.9599L45.472 69.8927C45.0912 69.7639 44.7243 69.6211 44.3519 69.4783C44.2608 69.4396 44.1683 69.4042 44.0747 69.3719L44.0439 69.3635C43.6323 69.1983 43.2319 69.0303 42.8343 68.8539C42.7475 68.8259 42.6747 68.7867 42.5879 68.7531C42.117 68.5479 41.6502 68.3331 41.1879 68.1091L41.5743 68.2799C41.4735 68.2353 41.3745 68.1867 41.2775 68.1343C41.0143 68.0111 40.7511 67.8711 40.4935 67.7395C40.2973 67.6465 40.104 67.5475 39.9139 67.4427L39.9699 67.4707C39.6535 67.3027 39.3371 67.1207 39.0179 66.9499C38.9227 66.8827 38.8135 66.8267 38.7043 66.7651C38.2298 66.4893 37.7612 66.2036 37.2987 65.9083L37.4751 66.0147C37.3565 65.9415 37.2407 65.8639 37.1279 65.7823L37.1447 65.7935C36.8437 65.6086 36.5486 65.4144 36.2599 65.2111C36.1647 65.1495 36.0779 65.0823 35.9799 65.0151C35.6782 64.8092 35.3813 64.5963 35.0894 64.3767L35.1566 64.4243C35.039 64.3291 34.913 64.2395 34.787 64.1471C34.5406 63.9539 34.2914 63.7691 34.045 63.5675L33.7146 63.3043C33.3625 63.0241 33.0171 62.7356 32.6786 62.439L32.6758 62.4362L31.7042 61.5542L31.4242 61.291C31.1946 61.0586 30.9594 60.8374 30.7242 60.6078L30.4526 60.3278C30.1627 60.0407 29.8798 59.7466 29.6042 59.4458L29.5874 59.4262L29.5398 59.387C29.2433 59.0614 28.9512 58.7319 28.6634 58.3986C28.5878 58.3118 28.5178 58.2194 28.4394 58.127L27.8038 57.357C27.5172 56.9971 27.2372 56.6321 26.9638 56.2622L26.8518 56.1054C20.3053 47.2125 17.9365 34.94 23.1753 24.8711L18.5497 30.7203C12.5996 39.2296 13.336 50.2953 17.8861 59.331C17.9897 59.5522 18.1045 59.7594 18.2165 59.9694V59.9694Z" fill="#1266A9"/>
<path d="M38.2572 47.7112L38.2264 47.6664L38.2012 47.6328L38.2572 47.7112Z" fill="black"/>
<path d="M41.3865 51.3834L41.6385 51.6354C41.9577 51.9434 42.2853 52.2431 42.6185 52.5427L42.6605 52.5791C42.9965 52.8759 43.3745 53.1867 43.7637 53.4891L43.8225 53.5339C43.9177 53.5983 43.9989 53.6739 44.0913 53.7383C44.4833 54.0407 44.8781 54.3291 45.2897 54.6175L45.3317 54.6427C45.5053 54.7687 45.6901 54.8835 45.8861 55.0067C45.9645 55.0571 46.0541 55.1243 46.1381 55.1747C46.4349 55.3651 46.7261 55.5415 47.0258 55.7235C47.0734 55.7431 47.1154 55.7683 47.1602 55.7879C47.4122 55.9419 47.6866 56.0903 47.9498 56.2247C48.0422 56.2807 48.1318 56.3227 48.227 56.3759C48.4146 56.4683 48.5994 56.5663 48.7786 56.6615L48.8682 56.7007C49.2462 56.8855 49.6326 57.0591 50.0106 57.2299C50.1058 57.2663 50.187 57.2971 50.2682 57.3363C50.579 57.4707 50.8954 57.5995 51.2062 57.7171C51.3462 57.7647 51.4778 57.8207 51.6094 57.8627C51.895 57.9691 52.1946 58.0671 52.4774 58.1651L52.8694 58.2911C53.2782 58.4171 53.6926 58.5823 54.1266 58.6495C76.3392 62.3064 81.4801 45.2906 81.4801 45.2906C76.8516 51.9183 67.8944 55.0767 58.3491 52.6099C57.8726 52.4897 57.4001 52.3543 56.9322 52.2039L57.0919 52.2487C56.9574 52.2123 56.8398 52.1703 56.711 52.1311C56.4198 52.0303 56.1202 51.9323 55.8374 51.8286L55.4342 51.6774C55.1206 51.5514 54.8014 51.4338 54.4962 51.2994C54.401 51.2574 54.3142 51.2294 54.2414 51.1874C53.8494 51.011 53.4546 50.8374 53.071 50.6526L52.4942 50.353L52.161 50.185C51.9034 50.0506 51.6654 49.9106 51.419 49.7678C51.3562 49.7383 51.2954 49.7046 51.237 49.667L51.2454 49.6698C50.9486 49.485 50.6406 49.3058 50.355 49.1182C50.2598 49.065 50.173 49.0006 50.0834 48.9446L49.501 48.5666C49.0978 48.2866 48.703 47.987 48.3026 47.6958C48.213 47.6146 48.1262 47.5474 48.0394 47.4746C43.8421 44.1902 40.5325 39.7017 38.9617 34.6197C37.3069 29.336 37.6709 23.4112 40.5297 18.6035L37.0157 23.554C32.7008 29.7168 32.9444 37.9545 36.3044 44.473C36.9177 45.677 37.5393 46.6934 38.2253 47.6622C38.8637 48.575 39.5693 49.6446 40.4205 50.3782C40.7229 50.7226 41.0477 51.0502 41.3865 51.3834V51.3834Z" fill="#1266A9"/>
<path d="M52.5455 18.1952C50.0003 21.9109 49.7567 26.5253 51.5095 30.6218C53.3715 34.973 57.1767 38.389 61.612 40.0074C61.794 40.0774 61.9704 40.1362 62.158 40.2034L62.4044 40.2791C62.662 40.3603 62.9224 40.4555 63.1884 40.5143C75.4553 42.8691 78.7762 34.2478 79.6694 32.9794C76.749 37.1514 71.8517 38.1538 65.8428 36.7006C65.3204 36.5732 64.8061 36.4142 64.3028 36.2246L64.3952 36.2554C63.769 36.0387 63.1557 35.7863 62.5584 35.4994L62.6648 35.547C61.5168 34.987 60.5312 34.3822 59.6156 33.6878C54.2451 29.6277 50.9243 21.8969 54.4299 15.5996L52.5455 18.1952Z" fill="#1266A9"/>
<defs>
<radialGradient id="paint0_radial_1024_11549" cx="0" cy="0" r="1" gradientUnits="userSpaceOnUse" gradientTransform="translate(47.8798 47.8564) rotate(90) scale(47.04)">
<stop stop-color="#333944"/>
<stop offset="1" stop-color="#222428"/>
</radialGradient>
</defs>
</svg>
