<svg width="95" height="95" viewBox="0 0 95 95" fill="none" xmlns="http://www.w3.org/2000/svg">
<rect x="0.935672" y="1.48841" width="92.736" height="92.736" rx="13.44" fill="url(#paint0_radial_1024_11551)"/>
<rect x="0.935672" y="1.48841" width="92.736" height="92.736" rx="13.44" stroke="#6886C3" stroke-width="1.344"/>
<path d="M68.3041 14.2559H26.3041C19.3453 14.2559 13.7041 19.8971 13.7041 26.8559V68.8559C13.7041 75.8146 19.3453 81.4559 26.3041 81.4559H68.3041C75.2629 81.4559 80.9041 75.8146 80.9041 68.8559V26.8559C80.9041 19.8971 75.2629 14.2559 68.3041 14.2559Z" fill="#FAEBD7"/>
<path d="M24.1393 14.4662C21.5668 14.9256 19.4143 16.0281 17.5374 17.8525C15.8705 19.4669 14.7418 21.4094 14.0724 23.8375L13.7705 24.9531V47.8562V70.7594L14.0593 71.8619C15.3061 76.495 18.6268 79.8156 23.2861 81.0887L24.4018 81.3906H47.3049H70.208L71.3236 81.0887C75.9436 79.8287 79.3036 76.4687 80.5374 71.875L80.8393 70.7594V47.8562C80.8393 22.42 80.9049 24.4806 79.973 22.1444C78.6211 18.745 75.5368 15.91 71.9799 14.7944C70.2343 14.2562 70.2343 14.2562 47.1868 14.2694C28.733 14.2825 25.0186 14.3087 24.1393 14.4662ZM70.2474 17.6162C70.8249 17.7344 71.783 18.0756 72.5049 18.4169C73.5549 18.9287 73.9224 19.1912 74.9461 20.215C75.9699 21.2387 76.2324 21.6062 76.7443 22.6562C77.8336 24.9137 77.768 23.1419 77.7286 48.3156C77.6761 73.2925 77.768 70.9956 76.7049 73.135C75.8124 74.9725 73.8174 76.8231 71.9143 77.6106C70.1949 78.3325 71.048 78.3062 47.3049 78.3062C23.5618 78.3062 24.4149 78.3325 22.6955 77.6106C20.7924 76.8231 18.7974 74.9725 17.9049 73.135C16.8418 70.9956 16.9336 73.2925 16.8811 48.3156C16.8418 23.1287 16.7761 24.8875 17.8655 22.6562C18.3774 21.6062 18.653 21.2256 19.6636 20.215C20.6874 19.1912 21.0549 18.9287 22.1049 18.4169C24.2968 17.3537 22.538 17.4325 47.213 17.4194C66.6774 17.4062 69.3549 17.4325 70.2474 17.6162Z" fill="#2F4F4F"/>
<path d="M36.647 35.545L36.6076 46.7406L33.8251 46.78L31.0295 46.8062V42.6062V38.4062H28.2076H25.3857V41.9894V45.5594L27.3939 47.5675L29.3889 49.5625H33.8514H38.3139L40.2564 47.62L42.1857 45.6906V35.02V24.3625H39.4295H36.6732L36.647 35.545Z" fill="#2F4F4F"/>
<path d="M49.8241 26.3706L47.8291 28.3656V31.2531V34.1406L52.0291 38.3406L56.2291 42.5406V44.6669V46.8062H54.9166H53.6041L50.8479 45.4281C49.3385 44.6669 48.0391 44.05 47.9604 44.05C47.8816 44.05 47.8291 44.3912 47.8291 44.8112V45.5594L49.8372 47.5675L51.8322 49.5625H54.851H57.8697L59.8779 47.5544L61.8729 45.5594V42.6719V39.7844L57.6729 35.5844L53.4729 31.3844V29.2581V27.1187H54.851H56.2291L58.9854 28.4969C60.4947 29.2581 61.7679 29.875 61.8072 29.875C61.8466 29.875 61.8729 29.5337 61.8729 29.1137V28.3656L59.8647 26.3575L57.8697 24.3625H54.851H51.8322L49.8241 26.3706Z" fill="#2F4F4F"/>
<path d="M24.7295 63.6066V73.0566H29.9795H35.2295V72.0066V70.9566H32.0795H28.9295V62.5566V54.1566H26.8295H24.7295V63.6066Z" fill="#2F4F4F"/>
<path d="M39.4297 55.2059V56.2559H41.5297H43.6297V55.2059V54.1559H41.5297H39.4297V55.2059Z" fill="#2F4F4F"/>
<path d="M64.6293 56.2566V58.3566H63.5793H62.5293V59.4066V60.4566H63.5793H64.6293V65.2866V70.1035L66.1124 71.5866L67.5824 73.0566H69.2624H70.9293V72.0066V70.9566H69.8793H68.8293V65.7066V60.4566H69.8793H70.9293V59.4066V58.3566H69.8793H68.8293V56.2566V54.1566H66.7293H64.6293V56.2566Z" fill="#2F4F4F"/>
<path d="M39.4297 65.7066V73.0566H41.5297H43.6297V65.7066V58.3566H41.5297H39.4297V65.7066Z" fill="#2F4F4F"/>
<path d="M47.8291 65.7066V73.0566H49.9291H52.0291V66.7566V60.4566H54.1291H56.2291V66.7566V73.0566H58.3291H60.4291V67.1766V61.3098L58.946 59.8266L57.476 58.3566H52.646H47.8291V65.7066Z" fill="#2F4F4F"/>
<defs>
<radialGradient id="paint0_radial_1024_11551" cx="0" cy="0" r="1" gradientUnits="userSpaceOnUse" gradientTransform="translate(47.3037 47.8564) rotate(90) scale(47.04)">
<stop stop-color="#333944"/>
<stop offset="1" stop-color="#222428"/>
</radialGradient>
</defs>
</svg>
