<svg width="95" height="95" viewBox="0 0 95 95" fill="none" xmlns="http://www.w3.org/2000/svg">
<rect x="0.903445" y="1.19934" width="92.736" height="92.736" rx="13.44" fill="url(#paint0_radial_1024_11586)"/>
<rect x="0.903445" y="1.19934" width="92.736" height="92.736" rx="13.44" stroke="#6886C3" stroke-width="1.344"/>
<path d="M44.7714 14.6837C46.4376 13.73 48.6079 13.7257 50.2727 14.6837C58.6483 19.4163 67.0264 24.1415 75.4005 28.877C76.9756 29.7642 78.0292 31.5171 78.0131 33.332V61.8052C78.0248 63.6953 76.8672 65.49 75.2055 66.3571C66.8575 71.0637 58.5138 75.7759 50.1672 80.4825C48.4665 81.4549 46.2526 81.38 44.605 80.3279C42.1023 78.877 39.5953 77.4333 37.0923 75.9839C36.5808 75.679 36.0043 75.4363 35.6431 74.9404C35.9624 74.5101 36.5332 74.4565 36.9971 74.2686C38.0418 73.9364 39.0012 73.4032 39.961 72.8857C40.2037 72.7196 40.5 72.7833 40.7326 72.9319C42.8727 74.159 44.994 75.4217 47.1413 76.6371C47.5994 76.9015 48.0632 76.5504 48.4547 76.3321C56.6467 71.7022 64.8487 67.0897 73.0393 62.4584C73.3427 62.3124 73.5105 61.9902 73.4859 61.6578C73.4916 52.2651 73.4873 42.8707 73.4887 33.478C73.5234 33.1008 73.3052 32.754 72.9641 32.5996C64.6451 27.9147 56.3303 23.2225 48.0127 18.5363C47.8686 18.4372 47.6979 18.3841 47.523 18.3838C47.3481 18.3836 47.1773 18.4362 47.0329 18.5349C38.7152 23.2225 30.4019 27.919 22.0843 32.6037C21.7445 32.7583 21.5164 33.0994 21.5568 33.478C21.5583 42.8707 21.5568 52.2651 21.5568 61.6592C21.5424 61.8214 21.578 61.9842 21.6589 62.1255C21.7398 62.2668 21.862 62.38 22.0092 62.4498C24.2288 63.7084 26.4512 64.9582 28.6723 66.2126C29.9235 66.8861 31.4598 67.2862 32.8384 66.7702C34.0549 66.3339 34.9077 65.0925 34.8844 63.8008C34.8959 54.4629 34.8787 45.1236 34.8931 35.7871C34.8627 35.3726 35.2559 35.0301 35.6589 35.0691C36.7254 35.0619 37.7933 35.0547 38.8598 35.072C39.305 35.0619 39.6113 35.5083 39.5563 35.9259C39.552 45.3229 39.5678 54.7202 39.5491 64.1172C39.552 66.6216 38.5231 69.3467 36.2065 70.5721C33.3527 72.0504 29.8254 71.7369 27.006 70.3193C24.5653 69.1011 22.2361 67.6634 19.8386 66.3583C18.1726 65.496 17.0207 63.6941 17.0324 61.8055V33.332C17.015 31.4795 18.1104 29.6948 19.7345 28.8205C28.0811 24.1102 36.4262 19.3962 44.7714 14.6837Z" fill="#8CC84B"/>
<path d="M52.0526 34.4073C55.6929 34.173 59.59 34.2684 62.8658 36.0618C65.402 37.436 66.8081 40.3203 66.8529 43.138C66.782 43.518 66.3847 43.7277 66.0219 43.7016C64.9657 43.7002 63.9093 43.716 62.8531 43.6944C62.4051 43.7117 62.1447 43.2986 62.0884 42.9025C61.7849 41.5543 61.0497 40.219 59.7807 39.5688C57.8328 38.5935 55.5742 38.6425 53.4501 38.6629C51.8994 38.7452 50.232 38.8795 48.9183 39.7913C47.9097 40.4821 47.6034 41.8764 47.9633 42.9994C48.3027 43.8057 49.2335 44.0659 49.995 44.3057C54.3821 45.4531 59.0309 45.3389 63.3342 46.8489C65.1158 47.4644 66.8586 48.6611 67.4684 50.5265C68.2661 53.0266 67.9165 56.0149 66.1377 58.022C64.6953 59.6736 62.5944 60.5726 60.499 61.0608C57.7115 61.6824 54.8186 61.6982 51.9878 61.4222C49.3259 61.1187 46.5558 60.4194 44.5009 58.6057C42.7437 57.08 41.8854 54.7026 41.9706 52.4081C41.991 52.0207 42.3768 51.7504 42.748 51.7823C43.8116 51.7737 44.8752 51.7708 45.9388 51.7837C46.3636 51.7533 46.6786 52.1205 46.7004 52.5209C46.8966 53.8054 47.3794 55.1536 48.4994 55.9151C50.6611 57.3097 53.3735 57.2142 55.8487 57.2532C57.8993 57.1623 60.2013 57.1348 61.8747 55.7794C62.7576 55.0064 63.0192 53.713 62.7806 52.6003C62.5221 51.6609 61.5394 51.2232 60.6955 50.9369C56.3647 49.567 51.6639 50.0641 47.375 48.5149C45.6339 47.8995 43.9502 46.7361 43.2812 44.9473C42.3478 42.4157 42.7755 39.2842 44.7407 37.3449C46.6568 35.4158 49.4228 34.6729 52.0526 34.407V34.4073Z" fill="#8CC84B"/>
<defs>
<radialGradient id="paint0_radial_1024_11586" cx="0" cy="0" r="1" gradientUnits="userSpaceOnUse" gradientTransform="translate(47.2714 47.5673) rotate(90) scale(47.04)">
<stop stop-color="#333944"/>
<stop offset="1" stop-color="#222428"/>
</radialGradient>
</defs>
</svg>
