<svg width="95" height="95" viewBox="0 0 95 95" fill="none" xmlns="http://www.w3.org/2000/svg">
<rect x="0.783328" y="1.21497" width="92.736" height="92.736" rx="13.44" fill="url(#paint0_radial_1024_11429)"/>
<rect x="0.783328" y="1.21497" width="92.736" height="92.736" rx="13.44" stroke="#6886C3" stroke-width="1.344"/>
<path d="M25.4518 14.6543H68.8518C75.4318 14.6543 80.7518 19.9743 80.7518 26.5543V68.2743C80.7518 74.8543 75.4318 80.1743 68.8518 80.1743H25.4518C18.8718 80.1743 13.5518 74.8543 13.5518 68.2743V26.5543C13.5518 19.9743 18.8718 14.6543 25.4518 14.6543Z" fill="#330000"/>
<path d="M46.1162 53.9658H35.7002L33.5722 60.5458C33.5162 60.7978 33.2922 60.9658 33.0402 60.9378H27.7762C27.4682 60.9378 27.3842 60.7698 27.4682 60.4338L36.4842 34.4778C36.5682 34.1978 36.6522 33.8898 36.7642 33.5538C36.8762 32.9658 36.9322 32.3498 36.9322 31.7338C36.9042 31.5938 37.0162 31.4538 37.1562 31.4258C37.1842 31.4258 37.2122 31.4258 37.2402 31.4258H44.4082C44.6322 31.4258 44.7442 31.5098 44.7722 31.6498L54.9922 60.4898C55.0762 60.7978 54.9922 60.9378 54.7122 60.9378H48.8602C48.6642 60.9658 48.4682 60.8258 48.4122 60.6298L46.1162 53.9658ZM37.3242 48.2818H44.4362C44.2682 47.6938 44.0442 46.9938 43.7922 46.2658C43.5402 45.5098 43.2882 44.6978 43.0362 43.8578C42.7562 42.9898 42.5042 42.1498 42.2242 41.2818C41.9442 40.4138 41.6922 39.6018 41.4682 38.7898C41.2442 38.0058 41.0482 37.2778 40.8522 36.6058H40.7962C40.5442 37.8098 40.2362 39.0138 39.8442 40.2178C39.4242 41.5618 39.0042 42.9618 38.5562 44.3618C38.1642 45.7898 37.7442 47.1058 37.3242 48.2818Z" fill="#FF9A00"/>
<path d="M61.097 36.2116C60.173 36.2396 59.277 35.8756 58.605 35.2316C57.961 34.5316 57.625 33.6076 57.653 32.6556C57.625 31.7036 57.989 30.8076 58.661 30.1636C59.333 29.5196 60.229 29.1836 61.153 29.1836C62.245 29.1836 63.085 29.5196 63.701 30.1636C64.317 30.8356 64.653 31.7316 64.625 32.6556C64.653 33.6076 64.317 34.5316 63.645 35.2316C63.001 35.9036 62.049 36.2676 61.097 36.2116ZM57.961 60.5156V38.9556C57.961 38.6756 58.073 38.5636 58.325 38.5636H63.869C64.121 38.5636 64.233 38.7036 64.233 38.9556V60.5156C64.233 60.8236 64.121 60.9636 63.869 60.9636H58.381C58.101 60.9636 57.961 60.7956 57.961 60.5156Z" fill="#FF9A00"/>
<defs>
<radialGradient id="paint0_radial_1024_11429" cx="0" cy="0" r="1" gradientUnits="userSpaceOnUse" gradientTransform="translate(47.1513 47.583) rotate(90) scale(47.04)">
<stop stop-color="#333944"/>
<stop offset="1" stop-color="#222428"/>
</radialGradient>
</defs>
</svg>
