<svg width="95" height="95" viewBox="0 0 95 95" fill="none" xmlns="http://www.w3.org/2000/svg">
<rect x="1.47962" y="1.19934" width="92.736" height="92.736" rx="13.44" fill="url(#paint0_radial_1024_11584)"/>
<rect x="1.47962" y="1.19934" width="92.736" height="92.736" rx="13.44" stroke="#6886C3" stroke-width="1.344"/>
<path d="M48.1147 24.7188C48.1147 24.7188 45.5397 26.7536 42.9147 28.7747C40.2143 28.6889 34.9179 29.2936 32.048 30.3373C29.4043 28.6624 27.0814 26.8132 27.0814 26.8132C27.0814 26.8132 25.0963 30.2282 23.848 32.2323C21.9967 33.2169 20.138 34.3244 18.4814 35.7896C16.5546 35.0245 14.3209 34.0916 14.248 34.0608C16.7997 39.2076 18.5151 44.3613 23.1813 47.4588C30.6103 35.726 65.1322 36.8073 72.7147 47.3923C77.6151 44.8363 79.5209 39.3372 81.448 34.2603C81.2367 34.3299 78.6145 35.2078 76.9147 35.8561C75.8998 34.7511 73.5076 33.0523 72.148 32.2323C70.8584 29.8707 68.9814 26.6803 68.9814 26.6803C68.9814 26.6803 66.7582 28.3337 64.1813 30.1378C60.7001 29.4952 56.4894 28.7144 52.948 28.9077C50.5372 26.9262 48.1147 24.7188 48.1147 24.7188Z" fill="#F3D400"/>
<path d="M16.8857 44.9974C16.8857 44.9974 20.5024 53.7544 23.0142 59.8394C33.6576 73.8813 60.8367 74.8575 72.6854 60.1112C75.4892 53.7923 79.272 44.9121 79.272 44.9121C76.2322 49.4153 71.2852 52.5239 68.2384 54.1984C66.0734 55.3845 61.0779 56.1014 61.0779 56.1014L47.9628 49.3051L34.7725 55.9655C34.7725 55.9655 29.8434 55.1735 27.612 54.1304C23.1083 51.7263 20.0792 48.8859 16.8857 44.9974Z" fill="#FFE953"/>
<defs>
<radialGradient id="paint0_radial_1024_11584" cx="0" cy="0" r="1" gradientUnits="userSpaceOnUse" gradientTransform="translate(47.8476 47.5673) rotate(90) scale(47.04)">
<stop stop-color="#333944"/>
<stop offset="1" stop-color="#222428"/>
</radialGradient>
</defs>
</svg>
