<svg width="95" height="95" viewBox="0 0 95 95" fill="none" xmlns="http://www.w3.org/2000/svg">
<rect x="0.783328" y="0.929812" width="92.736" height="92.736" rx="13.44" fill="url(#paint0_radial_1024_11450)"/>
<rect x="0.783328" y="0.929812" width="92.736" height="92.736" rx="13.44" stroke="#6886C3" stroke-width="1.344"/>
<path d="M32.4892 41.7332C32.4892 42.5602 32.5786 43.2307 32.735 43.7224C32.9138 44.2141 33.1373 44.7505 33.4502 45.3316C33.562 45.5104 33.6067 45.6892 33.6067 45.8457C33.6067 46.0692 33.4726 46.2927 33.182 46.5162L31.7739 47.4549C31.5728 47.589 31.3716 47.656 31.1928 47.656C30.9693 47.656 30.7458 47.5443 30.5223 47.3431C30.2094 47.0079 29.9412 46.6503 29.7177 46.2927C29.4942 45.9127 29.2707 45.4881 29.0249 44.974C27.2816 47.0302 25.0913 48.0583 22.454 48.0583C20.5766 48.0583 19.0791 47.5219 17.984 46.4491C16.8888 45.3763 16.3301 43.9459 16.3301 42.1579C16.3301 40.2581 17.0006 38.716 18.3639 37.5538C19.7273 36.3916 21.5376 35.8105 23.8397 35.8105C24.5996 35.8105 25.3818 35.8775 26.2088 35.9893C27.0357 36.101 27.885 36.2798 28.779 36.481V34.8494C28.779 33.1508 28.4214 31.9663 27.7286 31.2734C27.0134 30.5806 25.8065 30.2453 24.0855 30.2453C23.3033 30.2453 22.4987 30.3347 21.6717 30.5359C20.8448 30.737 20.0402 30.9829 19.2579 31.2958C18.9003 31.4522 18.6321 31.5416 18.4757 31.5863C18.3192 31.631 18.2075 31.6534 18.1181 31.6534C17.8052 31.6534 17.6487 31.4299 17.6487 30.9605V29.8654C17.6487 29.5078 17.6934 29.2396 17.8052 29.0831C17.9169 28.9267 18.1181 28.7702 18.431 28.6138C19.2132 28.2115 20.1519 27.8762 21.2471 27.608C22.3422 27.3175 23.5044 27.1834 24.7337 27.1834C27.3933 27.1834 29.3378 27.7868 30.5894 28.9937C31.8186 30.2006 32.4444 32.0333 32.4444 34.4918V41.7332H32.4892ZM23.415 45.1305C24.1526 45.1305 24.9125 44.9964 25.7171 44.7282C26.5217 44.46 27.2369 43.9683 27.8403 43.2977C28.1979 42.8731 28.4661 42.4037 28.6002 41.8673C28.7343 41.3309 28.8237 40.6828 28.8237 39.9229V38.9842C28.1756 38.8277 27.4827 38.6936 26.7675 38.6042C26.0523 38.5148 25.3595 38.4701 24.6666 38.4701C23.1692 38.4701 22.074 38.7607 21.3365 39.3641C20.5989 39.9676 20.2413 40.8169 20.2413 41.9344C20.2413 42.9848 20.5095 43.7671 21.0683 44.3035C21.6047 44.8623 22.3869 45.1305 23.415 45.1305V45.1305ZM41.3621 47.5443C40.9598 47.5443 40.6916 47.4772 40.5128 47.3208C40.334 47.1867 40.1776 46.8738 40.0435 46.4491L34.7912 29.1725C34.6571 28.7255 34.5901 28.435 34.5901 28.2785C34.5901 27.9209 34.7689 27.7198 35.1265 27.7198H37.3168C37.7414 27.7198 38.032 27.7868 38.1884 27.9433C38.3672 28.0774 38.5013 28.3903 38.6354 28.8149L42.3902 43.6107L45.8768 28.8149C45.9886 28.3679 46.1227 28.0774 46.3015 27.9433C46.4803 27.8092 46.7932 27.7198 47.1955 27.7198H48.9835C49.4081 27.7198 49.6987 27.7868 49.8775 27.9433C50.0563 28.0774 50.2127 28.3903 50.3021 28.8149L53.8334 43.7894L57.7 28.8149C57.8341 28.3679 57.9905 28.0774 58.147 27.9433C58.3258 27.8092 58.6163 27.7198 59.0186 27.7198H61.0972C61.4548 27.7198 61.6559 27.8986 61.6559 28.2785C61.6559 28.3903 61.6336 28.502 61.6112 28.6361C61.5889 28.7702 61.5442 28.949 61.4548 29.1949L56.0684 46.4715C55.9343 46.9185 55.7779 47.209 55.5991 47.3431C55.4203 47.4772 55.1297 47.5666 54.7498 47.5666H52.8277C52.403 47.5666 52.1125 47.4996 51.9337 47.3431C51.7549 47.1867 51.5984 46.8961 51.509 46.4491L48.0448 32.0333L44.6029 46.4268C44.4911 46.8738 44.357 47.1643 44.1782 47.3208C43.9994 47.4772 43.6865 47.5443 43.2842 47.5443H41.3621ZM70.0819 48.1477C68.9197 48.1477 67.7575 48.0136 66.64 47.7454C65.5225 47.4772 64.6508 47.1867 64.0697 46.8514C63.7121 46.6503 63.4663 46.4268 63.3769 46.2256C63.2875 46.0245 63.2428 45.801 63.2428 45.5998V44.46C63.2428 43.9906 63.4216 43.7671 63.7568 43.7671C63.8909 43.7671 64.025 43.7895 64.1591 43.8342C64.2932 43.8789 64.4944 43.9683 64.7179 44.0577C65.4778 44.3929 66.3047 44.6611 67.1764 44.8399C68.0704 45.0187 68.942 45.1081 69.836 45.1081C71.2441 45.1081 72.3393 44.8623 73.0992 44.3706C73.8591 43.8788 74.2614 43.1636 74.2614 42.2473C74.2614 41.6215 74.0602 41.1074 73.6579 40.6828C73.2556 40.2581 72.4957 39.8782 71.4005 39.5206L68.1598 38.5148C66.5282 38.0008 65.3213 37.2409 64.5838 36.2351C63.8462 35.2517 63.4663 34.1566 63.4663 32.9944C63.4663 32.0557 63.6674 31.2287 64.0697 30.5135C64.472 29.7983 65.0084 29.1725 65.6789 28.6808C66.3494 28.1668 67.1093 27.7868 68.0033 27.5186C68.8973 27.2504 69.836 27.1387 70.8194 27.1387C71.3111 27.1387 71.8252 27.161 72.3169 27.2281C72.831 27.2951 73.3003 27.3845 73.7697 27.4739C74.2167 27.5857 74.6413 27.6974 75.0436 27.8315C75.4459 27.9656 75.7588 28.0997 75.9823 28.2338C76.2952 28.4126 76.5187 28.5914 76.6528 28.7926C76.7869 28.9714 76.854 29.2172 76.854 29.5301V30.5806C76.854 31.0499 76.6752 31.2958 76.3399 31.2958C76.1611 31.2958 75.8706 31.2064 75.4906 31.0276C74.2167 30.4465 72.7863 30.1559 71.1994 30.1559C69.9254 30.1559 68.9197 30.3571 68.2268 30.7817C67.534 31.2064 67.1764 31.8545 67.1764 32.7709C67.1764 33.3967 67.3999 33.9331 67.8469 34.3577C68.2939 34.7824 69.1208 35.207 70.3054 35.587L73.4791 36.5927C75.0883 37.1068 76.2505 37.822 76.9434 38.7383C77.6362 39.6547 77.9715 40.7051 77.9715 41.8673C77.9715 42.8284 77.7703 43.7 77.3904 44.46C76.9881 45.2199 76.4517 45.8904 75.7588 46.4268C75.066 46.9855 74.239 47.3878 73.278 47.6784C72.2722 47.9913 71.2218 48.1477 70.0819 48.1477V48.1477Z" fill="white"/>
<path fill-rule="evenodd" clip-rule="evenodd" d="M74.3062 59.01C66.9531 64.4411 56.2698 67.3242 47.0839 67.3242C34.2103 67.3242 22.6107 62.5637 13.8495 54.6517C13.1566 54.0259 13.7824 53.1766 14.6094 53.6683C24.0858 59.1665 35.7748 62.4966 47.8662 62.4966C56.0239 62.4966 64.9863 60.798 73.2334 57.3114C74.4627 56.7526 75.5131 58.116 74.3062 59.01V59.01Z" fill="#FF9900"/>
<path fill-rule="evenodd" clip-rule="evenodd" d="M77.3684 55.5233C76.4297 54.3164 71.1551 54.9422 68.7637 55.2327C68.0485 55.3221 67.9367 54.6963 68.5849 54.227C72.7866 51.2768 79.6927 52.1261 80.4973 53.1095C81.3019 54.1152 80.2738 61.0214 76.3403 64.3292C75.7368 64.8433 75.1557 64.5751 75.4239 63.9046C76.3179 61.6919 78.3071 56.7078 77.3684 55.5233V55.5233Z" fill="#FF9900"/>
<defs>
<radialGradient id="paint0_radial_1024_11450" cx="0" cy="0" r="1" gradientUnits="userSpaceOnUse" gradientTransform="translate(47.1513 47.2978) rotate(90) scale(47.04)">
<stop stop-color="#333944"/>
<stop offset="1" stop-color="#222428"/>
</radialGradient>
</defs>
</svg>
