<svg width="95" height="95" viewBox="0 0 95 95" fill="none" xmlns="http://www.w3.org/2000/svg">
<rect x="1.07239" y="1.06458" width="92.736" height="92.736" rx="13.44" fill="url(#paint0_radial_1024_11512)"/>
<rect x="1.07239" y="1.06458" width="92.736" height="92.736" rx="13.44" stroke="#6886C3" stroke-width="1.344"/>
<path fill-rule="evenodd" clip-rule="evenodd" d="M60.8324 25.4883H68.5704C75.453 25.4883 81.0408 31.0761 81.0408 37.9587V65.1676C81.0408 72.0502 75.453 77.638 68.5704 77.638H67.9606C64.4182 77.0839 62.8819 76.0215 61.6951 75.1236L51.8569 67.0345C51.6105 66.8352 51.3031 66.7264 50.9861 66.7264C50.6691 66.7264 50.3617 66.8352 50.1152 67.0345L46.919 69.6627L37.9173 62.2611C37.6712 62.0614 37.3639 61.9524 37.0469 61.9524C36.7299 61.9524 36.4226 62.0614 36.1764 62.2611L23.6708 73.2624C21.154 75.3094 19.4892 74.9313 18.4096 74.8126C15.621 72.5241 13.8408 69.0521 13.8408 65.1676V37.9587C13.8408 31.0761 19.4286 25.4883 26.3121 25.4883H34.0328L34.0189 25.5194L33.7586 26.2781L33.6776 26.5384L33.3273 28.0927L33.279 28.3653L33.1251 29.922L33.1047 30.3493L33.1014 30.499L33.1161 31.2128L33.1513 31.631L33.2381 32.2858L33.3486 32.8751L33.4795 33.4178L33.6498 34.0054L34.0918 35.2495L34.2374 35.6228L35.0068 37.2483L35.2786 37.7475L36.1682 39.2748L36.5087 39.8257L37.7504 41.6542L37.9296 41.8964L39.5453 43.9991L40.0675 44.6465L41.9124 46.8032L42.2913 47.2182L43.8121 48.8544L44.4145 49.4781L45.4098 50.4668L45.21 50.6338L45.0856 50.7459C44.7476 51.061 44.4268 51.3958 44.1264 51.7477C43.982 51.9179 43.8444 52.0938 43.7139 52.2748C43.5147 52.5514 43.3366 52.8425 43.181 53.1457C43.1015 53.3031 43.0302 53.4646 42.9674 53.6294C42.8054 54.0505 42.708 54.4937 42.6785 54.9439L42.6727 55.3327C42.6869 55.8809 42.7986 56.4222 43.0026 56.9312C43.2093 57.4472 43.5108 57.92 43.8915 58.325C44.1681 58.6197 44.4832 58.8767 44.8286 59.0879C45.1225 59.2679 45.4359 59.4161 45.7617 59.529C46.4698 59.7691 47.2211 59.8545 47.9651 59.7795H47.9691C48.6038 59.7179 49.2207 59.5348 49.7862 59.2401C50.0301 59.1108 50.2625 58.961 50.4803 58.7908C51.1037 58.3056 51.5868 57.6632 51.8799 56.9295C52.109 56.3574 52.2212 55.746 52.2114 55.1305L52.1933 54.8088C52.1518 54.3839 52.0504 53.967 51.8921 53.5705C51.8236 53.3978 51.7457 53.2289 51.6589 53.0646C51.4978 52.762 51.3145 52.4718 51.1105 52.1962C51.0172 52.0701 50.9205 51.9465 50.8207 51.8255C50.4885 51.4289 50.1309 51.0543 49.7502 50.7041L49.4809 50.475L49.9368 50.0248L51.8962 47.9786L52.5739 47.2346L53.6273 46.0494L54.3124 45.2481L55.2897 44.058L55.951 43.2265L56.9225 41.9275L57.4128 41.2556L58.1085 40.2153L58.688 39.3288L59.7799 37.4275L60.4044 36.1801L60.4224 36.1417L60.9004 34.9843C60.9067 34.9694 60.9122 34.9541 60.9167 34.9385L61.4316 33.3326L61.4856 33.0985L61.709 31.8201L61.7524 31.4739L61.7655 31.2619L61.7811 30.4614L61.777 30.3124L61.7361 29.5954L61.6853 29.0389L61.4316 27.4338C61.4275 27.4125 61.4234 27.3913 61.4168 27.37L61.0911 26.1832L60.979 25.8533L60.8324 25.4883ZM64.5107 59.4185C63.7305 59.4295 62.9853 59.7444 62.4336 60.2961C61.8818 60.8479 61.567 61.5931 61.556 62.3733C61.5674 63.1533 61.8824 63.8981 62.4341 64.4497C62.9858 65.0012 63.7307 65.316 64.5107 65.3272C65.2907 65.3158 66.0356 65.0009 66.5874 64.4495C67.1392 63.898 67.4544 63.1533 67.4663 62.3733C67.455 61.593 67.14 60.8478 66.5882 60.2961C66.0363 59.7443 65.291 59.4295 64.5107 59.4185Z" fill="url(#paint1_radial_1024_11512)"/>
<path fill-rule="evenodd" clip-rule="evenodd" d="M42.4891 77.0055L50.507 70.2391C50.6539 70.1162 50.8393 70.0487 51.0309 70.0484C51.2225 70.0481 51.4081 70.115 51.5555 70.2375L59.6896 77.0055C60.1839 77.4082 60.8027 77.6284 61.4403 77.6292H40.749C41.3842 77.6292 41.9988 77.409 42.4891 77.0055ZM47.4802 52.8512L47.5588 52.8742C47.5842 52.8864 47.6055 52.9036 47.6284 52.9192L47.6939 52.9773C47.8559 53.1263 48.0131 53.2826 48.1645 53.443C48.2709 53.5568 48.3748 53.6738 48.4747 53.795C48.6016 53.948 48.7202 54.1084 48.8283 54.2754C48.8749 54.3491 48.9183 54.4235 48.9592 54.5013C48.9944 54.5684 49.0264 54.638 49.0542 54.7084C49.1033 54.8312 49.1401 54.9605 49.1516 55.0922L49.1491 55.3394C49.1326 55.5625 49.0634 55.7785 48.9472 55.9696C48.8309 56.1607 48.671 56.3215 48.4804 56.4387C48.233 56.5883 47.9548 56.6798 47.6669 56.7063L47.3616 56.7153L47.1037 56.6924C46.9832 56.6748 46.8645 56.646 46.7493 56.6064C46.6321 56.5665 46.5195 56.5138 46.4138 56.4493L46.2124 56.302C45.9752 56.0994 45.8136 55.8224 45.7541 55.5162C45.7441 55.4647 45.7362 55.4128 45.7303 55.3607L45.723 55.125C45.727 55.0611 45.7369 54.9981 45.7508 54.9351C45.786 54.7976 45.8367 54.6642 45.9006 54.5373C45.9832 54.3785 46.0774 54.2255 46.1821 54.0798C46.3565 53.8441 46.5455 53.6198 46.7477 53.4078C46.8778 53.2703 47.0112 53.1369 47.1504 53.0084L47.2494 52.9192C47.3182 52.8742 47.319 52.8742 47.3976 52.8512H47.4802ZM46.9736 19.9907L47.0055 19.9883V47.5426L46.9368 47.4157C46.0297 45.7378 45.1852 44.0268 44.4052 42.2862C43.7724 40.8773 43.1993 39.4423 42.6872 37.9851C42.2784 36.8244 41.9328 35.6424 41.6518 34.4443C41.4349 33.4925 41.2679 32.5266 41.1992 31.551C41.1724 31.1347 41.1645 30.7174 41.1755 30.3004C41.182 29.937 41.1967 29.5744 41.2197 29.2118C41.2557 28.6421 41.3138 28.0733 41.3973 27.5085C41.4636 27.0641 41.5454 26.6213 41.6461 26.1834C41.7263 25.8355 41.8196 25.4901 41.926 25.1505C42.0799 24.6594 42.264 24.1797 42.4785 23.7116C42.5571 23.543 42.6414 23.3752 42.7298 23.2107C43.2618 22.2252 43.9837 21.3175 44.929 20.711C45.5433 20.3111 46.2443 20.0642 46.9736 19.9907ZM50.5463 20.0603L52.4001 20.589C53.2587 20.9058 54.0854 21.3183 54.845 21.834C55.8803 22.5327 56.7726 23.4228 57.4739 24.4564C57.8848 25.0686 58.2253 25.7291 58.4913 26.4191C58.8768 27.4398 59.1158 28.5095 59.2001 29.5965C59.2247 29.8813 59.2386 30.167 59.2443 30.4526C59.2509 30.7178 59.2492 30.9838 59.2279 31.249C59.1756 31.8424 59.0642 32.4292 58.8948 33.0005C58.7588 33.4681 58.5985 33.9281 58.4144 34.3789C58.1852 34.9395 57.9306 35.4896 57.6515 36.0265C57.0344 37.219 56.3231 38.3608 55.5619 39.4649C54.6183 40.8219 53.6124 42.1346 52.5475 43.3986C51.3912 44.7776 50.1853 46.1142 48.9322 47.4059C49.7825 45.8114 50.5761 44.1873 51.3116 42.5367C51.7208 41.6167 52.1063 40.6869 52.4689 39.7481C52.8675 38.7168 53.2276 37.6716 53.5468 36.6133C53.7842 35.8202 53.9937 35.0189 54.1664 34.2086C54.3146 33.5137 54.4308 32.8115 54.5028 32.1051C54.5634 31.5158 54.5855 30.9232 54.5708 30.3323C54.5652 29.9705 54.5518 29.609 54.5307 29.2478C54.4439 27.795 54.2229 26.3463 53.7989 24.9524C53.6384 24.4239 53.4432 23.9066 53.2145 23.4038C52.6719 22.2219 51.9148 21.1178 50.89 20.3116L50.5463 20.0603Z" fill="white"/>
<defs>
<radialGradient id="paint0_radial_1024_11512" cx="0" cy="0" r="1" gradientUnits="userSpaceOnUse" gradientTransform="translate(47.4404 47.4326) rotate(90) scale(47.04)">
<stop stop-color="#333944"/>
<stop offset="1" stop-color="#222428"/>
</radialGradient>
<radialGradient id="paint1_radial_1024_11512" cx="0" cy="0" r="1" gradientUnits="userSpaceOnUse" gradientTransform="translate(49.521 51.336) scale(48.6805 48.6805)">
<stop stop-color="#BA7BF0"/>
<stop offset="0.45" stop-color="#996BEC"/>
<stop offset="1" stop-color="#5046E4"/>
</radialGradient>
</defs>
</svg>
