<svg width="95" height="95" viewBox="0 0 95 95" fill="none" xmlns="http://www.w3.org/2000/svg">
<rect x="0.752078" y="1.19934" width="92.736" height="92.736" rx="13.44" fill="url(#paint0_radial_1024_11590)"/>
<rect x="0.752078" y="1.19934" width="92.736" height="92.736" rx="13.44" stroke="#6886C3" stroke-width="1.344"/>
<path d="M48.3847 70.1682C48.2516 69.636 48.5177 68.9706 48.2516 68.4383C48.1185 67.9061 47.7193 67.9061 47.5863 67.5068C47.054 66.4423 46.3886 65.2447 46.3886 63.914C46.3886 62.8494 45.9894 61.7849 45.8563 60.7203C45.8563 60.188 45.8563 59.6558 45.8563 59.1235C45.8563 58.8573 45.8563 58.5912 45.7233 58.3251C45.7233 58.192 45.7233 57.9259 45.5902 57.9259L45.7233 57.5267C45.7233 57.3936 46.9209 57.3936 47.3201 57.3936C47.9855 57.3936 48.5177 57.3936 49.1831 57.5267C50.5138 57.5267 51.5783 57.5267 52.909 57.3936C55.7035 56.9944 56.9011 55.7968 57.5665 55.3975C60.0948 53.6676 61.2924 50.607 61.2924 50.607C61.6916 49.6756 61.6916 47.9457 62.6231 47.2803C63.6876 46.3488 65.4175 46.4819 66.6152 45.9496C67.2805 45.6835 67.8128 45.4173 68.6112 45.5504C69.1435 45.6835 70.075 46.3488 70.3411 45.4173C70.208 45.2843 70.075 45.1512 69.9419 45.0181C71.0065 44.8851 69.9419 42.6229 69.5427 42.0906C68.8773 41.4253 67.9459 41.0261 66.8813 40.7599C65.5506 40.3607 64.353 39.9615 63.1554 40.2276C61.0263 40.6269 61.1593 39.4292 59.9617 39.4292C58.4979 39.4292 55.8365 39.5623 55.3043 41.0261C55.0381 41.6914 54.9051 41.6914 54.5059 42.2237C54.2397 42.6229 54.5059 43.0221 54.3728 43.5544C54.2397 44.0867 53.9736 45.9496 53.7074 46.615C53.3082 47.6795 52.776 49.0102 51.8445 49.0102C50.5138 49.1433 49.4492 49.2764 48.3847 48.8771C47.7193 48.611 46.6548 48.2118 46.1225 48.0787C43.5942 47.0142 43.195 45.9496 43.195 45.9496C42.9288 45.5504 42.2635 44.752 41.9973 43.8205C41.7312 42.756 41.1989 41.9575 41.0659 41.4253C40.7997 40.893 40.4005 39.9615 40.0013 39.03C39.469 37.8324 38.8037 36.9009 38.2714 36.5017C37.473 35.8364 36.8076 34.7718 35.2108 35.0379C34.9447 35.0379 33.8801 35.171 33.0817 35.8364C32.5494 36.2356 32.4163 37.167 31.8841 37.9655C31.6179 38.3647 31.0857 39.6954 30.6864 40.7599C30.4203 41.5583 30.2872 42.0906 29.888 42.3567C29.6219 42.6229 29.3558 42.889 28.9565 42.756C28.6904 42.6229 28.4243 42.4898 28.1581 42.3567C27.7589 42.0906 26.9605 40.6268 26.4282 39.6954C26.029 38.7639 25.0975 37.4332 24.5653 36.7678C23.7668 35.7033 23.3676 35.4371 22.17 35.4371C19.7748 35.4371 19.5086 36.7678 18.4441 38.7639C17.9118 39.6954 17.7787 41.0261 16.8472 42.0906C16.448 42.6229 14.7181 45.1512 13.5205 45.5504V63.914V63.7809C13.6536 63.5148 13.6536 63.2486 13.7866 63.1156C14.3189 62.1841 15.3835 61.2526 15.9158 60.188C16.1819 59.6558 16.5811 59.1235 16.8472 58.4581C16.9803 58.0589 17.1134 57.2605 17.3795 56.8613C17.6457 56.329 18.1779 56.196 18.7102 56.0629C19.6417 55.9298 20.307 57.2605 21.3716 57.7928C21.7708 58.0589 23.8999 58.7243 24.5653 58.8573C25.6298 59.1235 26.6944 59.2566 27.7589 59.5227C28.2912 59.6558 28.8235 59.6558 29.4888 59.7888C30.0211 59.7888 32.0171 59.9219 32.0171 60.055C31.0857 60.5872 30.4203 61.9179 30.0211 62.9825C29.6219 64.047 29.3558 65.2447 28.9565 66.1762C28.4243 67.2407 27.3597 67.773 27.4928 69.1037C27.4928 69.636 27.6259 70.1682 27.4928 70.7005C27.3597 71.3659 27.0936 71.7651 26.9605 72.4304C26.6944 73.2288 26.4282 75.7571 26.1621 76.4225L28.2912 76.1564C28.5573 75.6241 28.6904 73.2288 28.8235 72.9627C29.2227 71.7651 29.755 70.8336 30.5534 69.9021C31.3518 68.9706 31.3518 67.9061 31.751 66.8415C32.2833 65.6439 32.9486 64.8455 33.614 63.7809C34.8116 61.9179 35.61 59.3896 38.0053 58.8573C38.2714 58.8573 39.7352 59.9219 40.4005 60.5872C41.1989 61.3857 41.9973 62.1841 42.5296 63.2486C43.4611 65.2447 44.3926 68.1722 44.6587 69.636C44.7918 70.5674 44.9249 70.5674 45.5902 71.3659C45.8564 71.632 46.3886 72.6966 46.6548 73.0958C46.7878 73.495 47.187 74.4264 47.3201 74.9587C47.4532 75.2249 47.8524 76.1564 48.1185 76.9548H50.1146C49.3162 74.6926 48.6508 72.4304 48.3847 70.1682Z" fill="white"/>
<path d="M47.3189 74.824C47.0528 74.2918 46.7867 73.3603 46.6536 72.9611C46.5205 72.5619 45.8552 71.4973 45.589 71.2312C44.9237 70.5658 44.7906 70.4328 44.6576 69.5013C44.3914 67.9044 43.4599 64.9769 42.5285 63.1139C41.9962 62.0494 41.1978 61.251 40.3993 60.4526C39.734 59.7872 38.2702 58.7227 38.0041 58.7227C35.4758 59.2549 34.8104 61.6502 33.6128 63.6462C32.9475 64.7108 32.2821 65.6423 31.7498 66.7068C31.2176 67.7714 31.3506 68.969 30.5522 69.7674C29.7538 70.6989 29.2215 71.6304 28.8223 72.828C28.6892 73.0941 28.5562 75.4894 28.29 76.0217L32.016 75.7555C35.4758 76.0217 34.4112 77.3524 39.8671 77.0862L48.3835 76.8201C47.8512 76.0217 47.452 75.0902 47.3189 74.824Z" fill="url(#paint1_linear_1024_11590)"/>
<path d="M72.071 18.6699H21.9039C17.2464 18.6699 13.5205 22.5289 13.5205 27.1864V45.683C14.7181 45.1507 16.448 42.6224 16.9803 41.9571C17.9118 40.8925 18.0449 39.4287 18.5771 38.6303C19.6417 36.6343 19.9078 35.3036 22.3031 35.3036C23.5007 35.3036 23.8999 35.5697 24.6983 36.6343C25.2306 37.2996 26.1621 38.6303 26.5613 39.4287C27.0936 40.4933 27.892 41.824 28.2912 42.0901C28.5573 42.3563 28.8235 42.4893 29.0896 42.4893C29.4888 42.6224 29.755 42.3563 30.0211 42.0901C30.4203 41.824 30.5534 41.2917 30.8195 40.4933C31.2187 39.4287 31.751 38.098 32.0171 37.6988C32.5494 36.9004 32.6825 35.9689 33.2148 35.5697C34.0132 34.9044 34.9447 34.9044 35.3439 34.7713C36.9407 34.5052 37.606 35.5697 38.4045 36.2351C38.9367 36.6343 39.6021 37.5658 40.1344 38.7634C40.5336 39.6949 41.0659 40.6264 41.1989 41.1586C41.332 41.6909 41.8643 42.4893 42.1304 43.5539C42.3965 44.4854 43.0619 45.1507 43.328 45.683C43.328 45.683 43.7272 46.8806 46.2556 47.8121C46.7878 48.0782 47.8524 48.3444 48.5177 48.6105C49.5823 49.0097 50.6468 49.0097 51.9775 48.7436C52.909 48.7436 53.4413 47.4129 53.8405 46.3483C54.1066 45.683 54.3728 43.82 54.5059 43.2877C54.6389 42.7555 54.2397 42.3563 54.6389 41.9571C55.0381 41.4248 55.1712 41.4248 55.4373 40.7594C55.8365 39.2957 58.631 39.1626 60.0948 39.1626C61.2924 39.1626 61.1593 40.3602 63.2884 39.961C64.4861 39.6949 65.6837 40.0941 67.0144 40.4933C68.0789 40.7594 69.1435 41.1586 69.6758 41.824C70.075 42.2232 71.0064 44.6184 70.075 44.7515C70.208 44.8846 70.208 45.0176 70.4742 45.1507C70.208 46.0822 69.2765 45.4169 68.7443 45.2838C68.0789 45.1507 67.5466 45.2838 66.7482 45.683C65.5506 46.2153 63.6876 46.2153 62.7561 47.0137C61.8247 47.8121 61.8247 49.4089 61.4255 50.3404C61.4255 50.3404 60.2278 53.401 57.6995 55.1309C57.0342 55.6632 55.8365 56.7277 53.0421 57.127C51.8445 57.26 50.6468 57.3931 49.3161 57.26C48.6508 57.26 48.1185 57.26 47.4532 57.127C47.054 57.127 45.8563 57.127 45.8563 57.26L45.7233 57.6592C45.7233 57.7923 45.7233 58.0584 45.8563 58.0584C45.8563 58.3246 45.8563 58.5907 45.9894 58.8569C45.9894 59.3891 45.9894 59.9214 45.9894 60.4537C45.9894 61.5182 46.3886 62.5828 46.5217 63.6473C46.5217 64.845 47.187 66.1757 47.7193 67.2402C47.9855 67.6394 48.2516 67.6394 48.3847 68.1717C48.5177 68.704 48.3847 69.2363 48.5177 69.9016C48.7839 72.1638 49.4492 74.426 50.5138 76.5551C51.7114 76.2889 53.0421 75.8897 54.6389 75.6236C57.5664 75.2244 61.6916 75.3574 64.353 75.2244C71.0064 74.559 74.7324 78.0188 80.7205 76.5551V27.1864C80.5874 22.5289 76.8615 18.6699 72.071 18.6699Z" fill="url(#paint2_linear_1024_11590)"/>
<path d="M28.9565 66.1753C29.4888 65.1107 29.755 64.0462 30.0211 62.9816C30.4203 61.9171 30.9526 60.5864 32.0171 60.0541C31.8841 59.921 29.888 59.788 29.4888 59.788C28.9565 59.788 28.4243 59.6549 27.7589 59.5218C26.6944 59.2557 25.4967 59.1226 24.5653 58.8565C23.8999 58.7234 21.9039 57.925 21.3716 57.7919C20.307 57.2597 19.6417 55.929 18.7102 56.062C18.1779 56.1951 17.6457 56.3282 17.3795 56.8604C17.1134 57.2597 16.9803 58.0581 16.8472 58.5903C16.5811 59.1226 16.315 59.788 15.9158 60.3202C15.2504 61.3848 14.1859 62.3163 13.7866 63.2478C13.6536 63.5139 13.6536 63.647 13.5205 63.9131V75.3571C14.0528 75.4901 14.5851 75.6232 15.2504 75.7563C19.9078 76.9539 21.1055 77.087 25.7629 76.5547H26.1621C26.5613 75.7563 26.8274 73.361 26.9605 72.5626C27.0936 72.0303 27.3597 71.4981 27.4928 70.8327C27.6259 70.3004 27.4928 69.7682 27.4928 69.2359C27.3597 67.7721 28.4243 67.2399 28.9565 66.1753Z" fill="url(#paint3_linear_1024_11590)"/>
<defs>
<radialGradient id="paint0_radial_1024_11590" cx="0" cy="0" r="1" gradientUnits="userSpaceOnUse" gradientTransform="translate(47.1201 47.5673) rotate(90) scale(47.04)">
<stop stop-color="#333944"/>
<stop offset="1" stop-color="#222428"/>
</radialGradient>
<linearGradient id="paint1_linear_1024_11590" x1="38.12" y1="58.7624" x2="38.12" y2="77.12" gradientUnits="userSpaceOnUse">
<stop stop-color="#F29100"/>
<stop offset="1" stop-color="#EC670F"/>
</linearGradient>
<linearGradient id="paint2_linear_1024_11590" x1="47.0432" y1="18.6972" x2="47.0432" y2="77.1567" gradientUnits="userSpaceOnUse">
<stop stop-color="#F29100"/>
<stop offset="1" stop-color="#EC670F"/>
</linearGradient>
<linearGradient id="paint3_linear_1024_11590" x1="22.763" y1="56.029" x2="22.763" y2="76.7527" gradientUnits="userSpaceOnUse">
<stop stop-color="#F29100"/>
<stop offset="1" stop-color="#EC670F"/>
</linearGradient>
</defs>
</svg>
