<svg width="95" height="95" viewBox="0 0 95 95" fill="none" xmlns="http://www.w3.org/2000/svg">
<rect x="1.34387" y="1.06458" width="92.736" height="92.736" rx="13.44" fill="url(#paint0_radial_1024_11518)"/>
<rect x="1.34387" y="1.06458" width="92.736" height="92.736" rx="13.44" stroke="#6886C3" stroke-width="1.344"/>
<path d="M47.7126 78.4232L60.0861 40.3418H35.3389L47.7124 78.4232H47.7126Z" fill="#E24329"/>
<path d="M47.7136 78.4233L35.3399 40.3418H17.999L47.7136 78.4233Z" fill="#FC6D26"/>
<path d="M17.9978 40.3418L14.2377 51.9146C14.0705 52.4291 14.0705 52.9833 14.2376 53.4978C14.4048 54.0123 14.7305 54.4607 15.1681 54.7787L47.7123 78.4235L17.9975 40.3421L17.9978 40.3418Z" fill="#FCA326"/>
<path d="M17.999 40.3409H35.3399L27.8878 17.4046C27.5043 16.2244 25.8346 16.2246 25.4514 17.4046L17.999 40.3409Z" fill="#E24329"/>
<path d="M47.7132 78.4233L60.0866 40.3418H77.4277L47.7129 78.4233H47.7132Z" fill="#FC6D26"/>
<path d="M77.4274 40.3418L81.1875 51.9146C81.3546 52.4291 81.3546 52.9834 81.1874 53.4979C81.0202 54.0124 80.6945 54.4607 80.2568 54.7787L47.7129 78.4235L77.4274 40.3421V40.3418Z" fill="#FCA326"/>
<path d="M77.428 40.3409H60.0869L67.5393 17.4046C67.9228 16.2244 69.5924 16.2246 69.9757 17.4046L77.428 40.3409Z" fill="#E24329"/>
<defs>
<radialGradient id="paint0_radial_1024_11518" cx="0" cy="0" r="1" gradientUnits="userSpaceOnUse" gradientTransform="translate(47.7119 47.4326) rotate(90) scale(47.04)">
<stop stop-color="#333944"/>
<stop offset="1" stop-color="#222428"/>
</radialGradient>
</defs>
</svg>
