<svg width="95" height="96" viewBox="0 0 95 96" fill="none" xmlns="http://www.w3.org/2000/svg">
<rect x="0.935672" y="1.64075" width="92.736" height="92.736" rx="13.44" fill="url(#paint0_radial_1024_11467)"/>
<rect x="0.935672" y="1.64075" width="92.736" height="92.736" rx="13.44" stroke="#6886C3" stroke-width="1.344"/>
<path d="M80.9037 63.6966V53.0566C80.9037 55.5626 78.1597 57.8642 73.5789 59.6842L47.3037 53.0566V63.6966L73.5789 70.3242C78.1597 68.507 80.9037 66.2054 80.9037 63.6966Z" fill="#D32F2F"/>
<path d="M73.5783 49.0505C78.1591 47.2193 80.9031 44.9289 80.9031 42.4201V31.7661C80.9031 25.9029 65.8531 21.1289 47.3031 21.1289C28.7391 21.1289 13.7031 25.9001 13.7031 31.7633V42.4201C13.7031 48.2917 28.7475 53.0573 47.3031 53.0573V42.4257L73.5783 49.0505ZM47.3031 74.3289V63.6945C28.7391 63.6945 13.7031 58.9205 13.7031 53.0601V63.6945C13.7031 69.5661 28.7391 74.3289 47.3031 74.3289Z" fill="#D32F2F"/>
<defs>
<radialGradient id="paint0_radial_1024_11467" cx="0" cy="0" r="1" gradientUnits="userSpaceOnUse" gradientTransform="translate(47.3037 48.0088) rotate(90) scale(47.04)">
<stop stop-color="#333944"/>
<stop offset="1" stop-color="#222428"/>
</radialGradient>
</defs>
</svg>
