<svg width="95" height="95" viewBox="0 0 95 95" fill="none" xmlns="http://www.w3.org/2000/svg">
<rect x="1.49622" y="1.04895" width="92.736" height="92.736" rx="13.44" fill="url(#paint0_radial_1024_11661)"/>
<rect x="1.49622" y="1.04895" width="92.736" height="92.736" rx="13.44" stroke="#6886C3" stroke-width="1.344"/>
<path d="M48.0781 16.6328L17.3018 47.4505L47.9498 78.1398L78.7262 47.3221L48.0781 16.6328Z" fill="#019833" stroke="black" stroke-width="0.179649"/>
<path d="M47.9507 16.761V14.0645L14.4814 47.5787H17.3026L47.9507 16.761Z" fill="#66FE98" stroke="black" stroke-width="0.179649"/>
<path d="M47.874 16.761V14.0645L81.3433 47.5787H78.5221L47.874 16.761Z" fill="#45FE02" stroke="black" stroke-width="0.179649"/>
<path d="M47.9507 78.3196V81.0162L14.4814 47.502H17.3026L47.9507 78.3196Z" fill="#017D17" stroke="black" stroke-width="0.179649"/>
<path d="M20.6906 17.4688H42.2714L43.5862 18.7853V22.8258L42.5435 24.097H40.1859V44.1632L60.4972 24.097H57.1422L55.9635 22.8258V18.5583L57.0516 17.5595H78.9044L79.9925 18.6491V22.6442L30.5743 73.4H24.9524L23.3251 72.4592V23.9154H20.6L19.6025 22.9166V18.6491L20.6906 17.4688Z" stroke="black" stroke-width="3.59298"/>
<path d="M47.874 78.3196V81.0162L81.3433 47.502H78.5221L47.874 78.3196Z" fill="#005D04" stroke="black" stroke-width="0.179649"/>
<path d="M47.8598 13.8164L14.2646 47.4567L47.7198 80.9568L81.3149 47.3165L47.8598 13.8164Z" stroke="black" stroke-width="1.07789"/>
<path d="M42.5006 19.5229L43.7189 18.8809L42.4686 17.6289H20.7008L19.5947 18.7364V22.9257L20.821 24.1536L21.406 22.9257L20.6366 22.1553V19.2019L21.2137 18.6883H41.9877L42.5006 19.5229Z" fill="#FEFEFE" stroke="black" stroke-width="0.179649"/>
<path d="M57.8895 18.5566L57.1209 19.3263V22.152L57.7942 22.8262H61.3511V25.5564L37.8216 49.4377V22.8599H41.732L42.5342 22.0565V19.1971L41.7937 18.6241H21.2152L20.542 19.2982V22.2195L21.2264 22.9048H24.8058V71.8472L25.479 72.5213H29.5465L78.8551 21.5734V19.3263L78.0865 18.5566H57.8895Z" stroke="black" stroke-width="0.179649"/>
<path d="M24.7704 22.8242V71.8549L25.4052 72.5812L24.9074 73.5312L23.501 72.1272V24.0954L24.7704 22.8242Z" fill="#FEFEFE" stroke="black" stroke-width="0.179649"/>
<path d="M21.2533 22.8242L20.8906 24.0046H23.5202L24.971 22.8242H21.2533Z" fill="#808080" stroke="black" stroke-width="0.179649"/>
<path d="M57.3761 24.1508L57.9532 22.9631L57.1196 22.1926V19.5603L58.0814 18.5972H78.1501L78.9195 19.6245L80.0095 18.854L78.8875 17.7305H57.312L56.238 18.8059V23.0273L57.3521 24.0786M39.9162 44.3484L37.8203 49.4406L61.4796 25.6853V22.8603L39.9162 44.3484Z" fill="#FEFEFE"/>
<path d="M57.3761 24.1508L57.9532 22.9631L57.1196 22.1926V19.5603L58.0814 18.5972H78.1501L78.9195 19.6245L80.0095 18.854L78.8875 17.7305H57.312L56.238 18.8059V23.0273L57.3521 24.0786M39.9162 44.3484L37.8203 49.4406L61.4796 25.6853V22.8603L39.9162 44.3484Z" stroke="black" stroke-width="0.179649"/>
<path d="M42.4526 19.3763L43.4954 18.6953V22.8266L42.2939 24.0297H39.959V44.391L37.8281 49.4303V22.8266H41.7272L42.4526 22.2364V19.3763Z" fill="#808080" stroke="black" stroke-width="0.179649"/>
<path d="M57.8895 18.5566L57.1209 19.3263V22.152L57.7942 22.8262H61.3511V25.5564L37.8216 49.4377V22.8599H41.732L42.5342 22.0565V19.1971L41.7937 18.6241H21.2152L20.542 19.2982V22.2195L21.2264 22.9048H24.8058V71.8472L25.479 72.5213H29.5465L78.8551 21.5734V19.3263L78.0865 18.5566H57.8895Z" fill="#CCCCCC" stroke="black" stroke-width="0.179649"/>
<path d="M78.9198 19.3929L80.0149 18.7598V22.7315L30.3438 73.5559H25.0703L25.5741 72.5534H29.6135L78.8556 21.64L78.9198 19.3929Z" fill="#808080" stroke="black" stroke-width="0.179649"/>
<path d="M61.3815 22.8945L60.2708 24.0522H57.3691L58.0492 22.8945C58.0719 22.8945 61.3815 22.8945 61.3815 22.8945Z" fill="#808080" stroke="black" stroke-width="0.179649"/>
<path d="M49.5364 51.548C49.4989 51.5558 49.4641 51.5733 49.4354 51.5986L48.4817 52.4188C48.4531 52.4447 48.4319 52.4776 48.4199 52.5143L47.4662 55.1884C47.4521 55.2276 47.4494 55.2701 47.4583 55.3108C47.4672 55.3516 47.4875 55.3889 47.5167 55.4187L48.246 56.149C48.2882 56.1896 48.3447 56.2118 48.4031 56.2108H51.3485C51.407 56.2118 51.4634 56.1896 51.5056 56.149L52.2742 55.3737C52.3007 55.3472 52.32 55.3143 52.3303 55.2782L53.1494 52.4637C53.1605 52.4255 53.1612 52.385 53.1514 52.3465C53.1415 52.3079 53.1214 52.2727 53.0933 52.2446L52.4593 51.6098C52.4172 51.5692 52.3607 51.547 52.3022 51.548H49.5813C49.5663 51.5465 49.5513 51.5465 49.5364 51.548ZM44.1393 59.0871C44.0989 59.0958 44.0616 59.1157 44.0319 59.1445C44.0021 59.1733 43.981 59.2098 43.971 59.25L43.6063 60.6994C43.5982 60.732 43.5976 60.7659 43.6045 60.7987C43.6114 60.8316 43.6257 60.8624 43.6462 60.8889C43.6667 60.9154 43.693 60.9369 43.723 60.9517C43.753 60.9666 43.786 60.9745 43.8195 60.9747H45.5531L41.2556 73.2608C41.2445 73.294 41.2414 73.3293 41.2465 73.3639C41.2517 73.3985 41.2649 73.4313 41.2851 73.4598C41.3054 73.4883 41.3321 73.5116 41.363 73.5278C41.394 73.544 41.4283 73.5526 41.4632 73.553H47.7187C47.7657 73.5536 47.8117 73.5393 47.85 73.512C47.8883 73.4847 47.917 73.446 47.9318 73.4013L48.3414 72.0811C48.3516 72.0478 48.3538 72.0126 48.3478 71.9784C48.3419 71.9441 48.328 71.9117 48.3072 71.8838C48.2865 71.8559 48.2595 71.8333 48.2284 71.8178C48.1973 71.8023 48.1629 71.7944 48.1282 71.7946H46.7144L50.967 59.3792C50.9781 59.3461 50.9812 59.3108 50.9761 59.2762C50.971 59.2416 50.9577 59.2087 50.9375 59.1803C50.9172 59.1518 50.8906 59.1285 50.8596 59.1123C50.8287 59.0961 50.7943 59.0875 50.7594 59.0871H44.1842C44.1693 59.0856 44.1542 59.0856 44.1393 59.0871ZM64.0445 59.1321C63.9964 59.142 63.953 59.1677 63.9211 59.2051L62.6195 60.677H60.5493L59.1692 59.2444C59.1488 59.2233 59.1244 59.2065 59.0974 59.1949C59.0705 59.1833 59.0415 59.1772 59.0121 59.177H54.0695C54.0241 59.1771 53.9798 59.1912 53.9427 59.2173C53.9056 59.2434 53.8774 59.2803 53.8619 59.3231L53.4075 60.6826C53.3964 60.7157 53.3932 60.751 53.3984 60.7856C53.4035 60.8202 53.4167 60.8531 53.437 60.8816C53.4572 60.91 53.4839 60.9333 53.5149 60.9495C53.5458 60.9657 53.5801 60.9743 53.615 60.9747H54.9391L50.8211 73.126C50.81 73.1592 50.8069 73.1945 50.812 73.2291C50.8172 73.2636 50.8304 73.2965 50.8506 73.325C50.8709 73.3535 50.8976 73.3768 50.9285 73.393C50.9595 73.4091 50.9938 73.4178 51.0287 73.4181H56.2911C56.3365 73.418 56.3808 73.404 56.4179 73.3778C56.455 73.3517 56.4832 73.3148 56.4987 73.2721L56.9027 72.0867C56.9138 72.0536 56.9169 72.0183 56.9118 71.9837C56.9066 71.9491 56.8934 71.9162 56.8732 71.8877C56.8529 71.8592 56.8262 71.836 56.7953 71.8198C56.7643 71.8036 56.73 71.795 56.6951 71.7946H55.775L58.4006 63.5196H63.1525L60.1566 73.1316C60.1465 73.1649 60.1443 73.2001 60.1502 73.2344C60.1561 73.2686 60.17 73.301 60.1908 73.3289C60.2115 73.3568 60.2386 73.3794 60.2697 73.3949C60.3008 73.4104 60.3351 73.4184 60.3698 73.4181H65.4471C65.4902 73.4178 65.5323 73.4049 65.5682 73.3809C65.6041 73.357 65.6322 73.323 65.6491 73.2833L66.1035 72.1935C66.1167 72.1601 66.1216 72.1241 66.1179 72.0885C66.1141 72.0528 66.1018 72.0186 66.0819 71.9888C66.0621 71.9589 66.0353 71.9344 66.0039 71.9172C65.9724 71.9 65.9373 71.8907 65.9015 71.8901H64.9814L67.6519 63.4746H72.1738L69.133 73.1316C69.1229 73.1649 69.1207 73.2001 69.1266 73.2344C69.1325 73.2686 69.1465 73.301 69.1672 73.3289C69.188 73.3568 69.215 73.3794 69.2461 73.3949C69.2772 73.4104 69.3115 73.4184 69.3462 73.4181H74.9228C74.9676 73.4185 75.0113 73.4052 75.0484 73.3802C75.0854 73.3551 75.114 73.3194 75.1304 73.2777L75.5848 72.0923C75.5971 72.0589 75.601 72.0229 75.5964 71.9876C75.5918 71.9523 75.5788 71.9186 75.5584 71.8894C75.5381 71.8602 75.511 71.8363 75.4794 71.8198C75.4479 71.8033 75.4129 71.7946 75.3773 71.7946H74.272L77.6326 60.868C77.6437 60.834 77.6464 60.7979 77.6405 60.7627C77.6347 60.7275 77.6204 60.6942 77.5989 60.6657L76.5554 59.2613C76.5341 59.2342 76.5068 59.2125 76.4756 59.1979C76.4444 59.1833 76.4103 59.1761 76.3759 59.177H72.387C72.3567 59.1765 72.3267 59.1822 72.2987 59.1938C72.2707 59.2054 72.2454 59.2226 72.2243 59.2444L70.9676 60.6264H68.7684L67.4668 59.1995C67.4457 59.1777 67.4204 59.1605 67.3924 59.1489C67.3644 59.1373 67.3344 59.1315 67.3041 59.1321H64.0894C64.0745 59.1305 64.0595 59.1305 64.0445 59.1321Z" fill="#CCCCCC" stroke="black" stroke-width="1.43719" stroke-miterlimit="10"/>
<path d="M49.5809 51.7676L48.6272 52.5878L47.6735 55.2619L48.4028 55.9922H51.3482L52.1168 55.2169L52.9359 52.4024L52.3019 51.7676H49.5809ZM44.1839 59.3067L43.8192 60.7561H45.8613L41.4629 73.3343H47.7183L48.1279 72.0142H46.4055L50.7591 59.3067H44.1839ZM64.0891 59.3516L62.7258 60.8965H60.4593L59.0118 59.3966H54.0692L53.6147 60.7561H55.2473L51.0284 73.1995H56.2908L56.6948 72.0142H55.4717L58.2376 63.3009H63.4551L60.3695 73.1995H65.4468L65.9012 72.1097H64.6782L67.4889 63.256H72.4764L69.3459 73.1995H74.9225L75.377 72.0142H73.9688L77.4191 60.801L76.3756 59.3966H72.3867L71.0683 60.846H68.6671L67.3038 59.3516H64.0891Z" fill="#CCCCCC" stroke="black" stroke-width="0.179649" stroke-miterlimit="10"/>
<defs>
<radialGradient id="paint0_radial_1024_11661" cx="0" cy="0" r="1" gradientUnits="userSpaceOnUse" gradientTransform="translate(47.8642 47.417) rotate(90) scale(47.04)">
<stop stop-color="#333944"/>
<stop offset="1" stop-color="#222428"/>
</radialGradient>
</defs>
</svg>
