<svg width="95" height="96" viewBox="0 0 95 96" fill="none" xmlns="http://www.w3.org/2000/svg">
<rect x="1.49622" y="1.62512" width="92.736" height="92.736" rx="13.44" fill="url(#paint0_radial_1024_11619)"/>
<rect x="1.49622" y="1.62512" width="92.736" height="92.736" rx="13.44" stroke="#6886C3" stroke-width="1.344"/>
<path d="M34.8521 54.2689C31.5138 54.2689 28.7926 51.5261 28.7926 48.1637C28.7926 44.8013 31.5138 42.0586 34.8521 42.0586C38.1905 42.0586 40.9117 44.8013 40.9117 48.1637C40.9117 51.5237 38.1881 54.2689 34.8521 54.2689ZM20.3026 66.3903C16.969 66.3831 14.2551 63.6284 14.2647 60.266C14.2666 58.6533 14.9077 57.1071 16.0476 55.9664C17.1875 54.8256 18.7331 54.1832 20.3458 54.18C23.6818 54.1872 26.3957 56.942 26.3837 60.3068C26.3805 61.9189 25.7389 63.464 24.5992 64.6041C23.4595 65.7443 21.9146 66.3865 20.3026 66.3903ZM75.4507 66.3903C73.8382 66.3935 72.2901 65.7577 71.1454 64.622C70.0007 63.4863 69.3526 61.9433 69.3431 60.3308C69.3263 56.9636 72.0282 54.1992 75.3594 54.1824C76.9711 54.1799 78.5182 54.8157 79.6623 55.9508C80.8064 57.0859 81.4544 58.6279 81.4645 60.2395C81.4838 63.6043 78.7794 66.3711 75.4507 66.3903Z" fill="white"/>
<path d="M64.0935 42.4133C62.4459 41.8993 60.6855 41.6855 58.9587 41.4982C56.288 41.21 55.224 40.1677 54.7725 37.4922C54.5179 35.9983 54.1625 34.466 53.5164 33.109C52.2843 30.5272 49.3975 29.3696 46.4986 30.03C44.0488 30.5896 42.0146 33.0274 41.9017 35.53C41.772 38.3832 43.4052 40.8209 46.2104 41.6615C47.5433 42.0626 48.9603 42.262 50.3509 42.3652C52.904 42.5502 53.7566 43.3115 54.4459 44.4739C54.883 45.2089 55.3033 45.9318 55.3033 48.1173C55.3033 50.3053 54.8782 51.0282 54.4459 51.7607C53.7566 52.9231 52.904 53.6821 50.3509 53.8718C48.9579 53.9727 47.5409 54.1744 46.2104 54.5755C43.4052 55.4185 41.772 57.8515 41.9017 60.7095C42.0146 63.2097 44.0512 65.6474 46.4986 66.207C49.3975 66.8699 52.2843 65.7099 53.5164 63.128C54.1649 61.7735 54.5179 60.2388 54.7725 58.7449C55.2264 56.0694 56.2904 55.0294 58.9587 54.7388C60.6879 54.5515 62.4459 54.3354 64.0935 53.8214C66.5937 53.0408 68.0972 50.7088 68.0972 48.1173C68.0972 45.5283 66.5937 43.1986 64.0935 42.4133Z" fill="#F44250"/>
<defs>
<radialGradient id="paint0_radial_1024_11619" cx="0" cy="0" r="1" gradientUnits="userSpaceOnUse" gradientTransform="translate(47.8642 47.9931) rotate(90) scale(47.04)">
<stop stop-color="#333944"/>
<stop offset="1" stop-color="#222428"/>
</radialGradient>
</defs>
</svg>
