<svg width="95" height="95" viewBox="0 0 95 95" fill="none" xmlns="http://www.w3.org/2000/svg">
<rect x="1.04016" y="1.35169" width="92.736" height="92.736" rx="13.44" fill="url(#paint0_radial_1024_11505)"/>
<rect x="1.04016" y="1.35169" width="92.736" height="92.736" rx="13.44" stroke="#6886C3" stroke-width="1.344"/>
<path d="M64.197 28.2155C60.0397 29.6031 58.038 32.0921 56.6743 35.9685C56.3223 37.0038 55.4424 38.149 54.4526 38.9198L57.862 42.5762L47.0398 34.9995L17.1689 14.1191C17.1689 14.1191 19.3246 28.1273 20.0725 33.2813C20.6004 36.9155 21.5022 38.5455 24.3617 40.1975L25.5055 40.8142L30.4327 43.4131L27.5072 41.8933L41.0128 49.2719L40.925 49.4702L26.3854 42.7303C27.1553 45.3734 28.651 50.4613 29.2889 52.708C29.9708 55.1306 30.7406 56.0118 33.0942 56.8707L37.4275 58.4566L40.111 57.3994L36.7016 59.6679L19.6545 81.3191C30.9826 70.7908 40.573 67.0465 47.5897 63.985C56.5423 60.1084 61.9313 57.6196 65.4506 48.6773C67.9583 42.3999 69.916 34.3606 72.4015 31.2549L77.7027 24.4711C77.7027 24.4711 66.7266 27.3786 64.197 28.2155Z" fill="white"/>
<defs>
<radialGradient id="paint0_radial_1024_11505" cx="0" cy="0" r="1" gradientUnits="userSpaceOnUse" gradientTransform="translate(47.4082 47.7197) rotate(90) scale(47.04)">
<stop stop-color="#333944"/>
<stop offset="1" stop-color="#222428"/>
</radialGradient>
</defs>
</svg>
