<svg width="95" height="95" viewBox="0 0 95 95" fill="none" xmlns="http://www.w3.org/2000/svg">
<rect x="1.22473" y="1.06458" width="92.736" height="92.736" rx="13.44" fill="url(#paint0_radial_1024_11508)"/>
<rect x="1.22473" y="1.06458" width="92.736" height="92.736" rx="13.44" stroke="#6886C3" stroke-width="1.344"/>
<path d="M67.9421 20.082C66.3075 21.9851 65.5438 26.274 67.2037 30.6166C68.8604 34.9624 71.4039 34.0187 72.9881 38.4497C75.0803 44.2945 74.1052 52.1497 74.1052 52.1497C74.1052 52.1497 76.6202 59.4305 78.3717 51.6952C82.2468 37.1715 67.9421 23.6609 67.9421 20.082V20.082Z" fill="url(#paint1_radial_1024_11508)"/>
<path d="M47.985 80.3992C64.7321 80.3992 78.2983 66.756 78.2983 49.9379C78.2983 33.1198 64.7321 19.4766 48.0008 19.4766C31.2694 19.4766 17.7032 33.1166 17.7032 49.9379C17.6716 66.7749 31.2536 80.3992 47.985 80.3992Z" fill="url(#paint2_radial_1024_11508)"/>
<path d="M70.7002 68.7175C70.0438 69.1814 69.3559 69.5948 68.6427 69.9578C69.5894 68.5723 70.4635 67.1363 71.2587 65.6562C71.9056 64.9398 72.4958 64.2455 72.9786 63.4943C73.2121 63.1251 73.4772 62.6706 73.758 62.1404C75.4589 59.0728 77.3365 54.1117 77.3902 49.0148V49.0022C77.3902 48.8759 77.3934 48.7497 77.3902 48.6266C77.3997 47.3484 77.2671 46.0703 76.9989 44.8205C77.0115 44.9184 77.0241 45.0162 77.0368 45.114C77.021 45.0383 77.0084 44.9625 76.9926 44.8868C77.0178 45.0257 77.0368 45.1614 77.0588 45.2939C77.406 48.2447 77.1598 51.1261 75.9197 53.2469C75.9007 53.2785 75.8786 53.3069 75.8597 53.3385C76.5035 50.1131 76.718 46.55 76.0017 42.9837C76.0017 42.9837 75.7145 41.2511 73.5845 35.987C72.3601 32.9573 70.1826 30.4735 68.2577 28.6651C66.5726 26.5791 65.0389 25.1778 64.1963 24.291C62.4323 22.4353 61.6939 21.0435 61.391 20.1346C61.129 20.002 57.7619 16.7325 57.4937 16.6094C56.0232 18.888 51.4033 26.011 53.6028 32.6701C54.6 35.6872 57.1182 38.8179 59.7532 40.5758C59.8699 40.7083 61.3215 42.2863 62.0126 45.8462C62.7258 49.5229 62.3503 52.3917 60.8829 56.6364C59.1567 60.3605 54.7325 64.0403 50.5891 64.4159C41.7343 65.2207 38.4903 59.9691 38.4903 59.9691C41.6554 61.2347 45.1519 60.9696 47.282 59.6567C49.4278 58.3312 50.7248 57.3465 51.7756 57.7347C52.8138 58.1197 53.6406 56.9994 52.8991 55.838C51.7283 54.0359 49.5951 53.1049 47.4776 53.4773C45.3318 53.8276 43.3658 55.5255 40.5509 53.8813C40.3679 53.7771 40.1912 53.6604 40.0239 53.5341C39.8377 53.411 40.6267 53.7203 40.4436 53.5815C39.8977 53.2848 38.9289 52.6347 38.6765 52.4043C38.6354 52.3664 39.1025 52.5526 39.0583 52.5148C36.4296 50.3498 36.7578 48.8854 36.8399 47.967C36.9061 47.2317 37.3826 46.2912 38.1873 45.9093C38.5755 46.1208 38.8185 46.2849 38.8185 46.2849C38.8185 46.2849 38.6512 45.9472 38.5628 45.7673C38.5944 45.7547 38.6228 45.7578 38.6544 45.7452C38.9731 45.8999 39.6768 46.2975 40.0492 46.5405C40.532 46.8814 40.6866 47.1843 40.6866 47.1843C40.6866 47.1843 40.8128 47.1149 40.7182 46.8182C40.6835 46.6952 40.5383 46.3101 40.0586 45.9188L40.087 45.9219C40.3742 46.0861 40.6456 46.2723 40.898 46.4837C41.0337 45.9945 41.2767 45.4801 41.2231 44.5649C41.1915 43.9211 41.2041 43.7538 41.0905 43.5045C40.9896 43.2899 41.1473 43.2078 41.3241 43.4287C41.2925 43.2552 41.242 43.0847 41.1726 42.9238V42.908C41.3935 42.1411 45.8335 40.1434 46.1554 39.9098C46.6855 39.5343 47.1305 39.0514 47.4618 38.4897C47.708 38.0952 47.8942 37.5429 47.9383 36.7065C47.9636 36.1038 47.6827 35.6998 43.1922 35.2296C41.9647 35.1096 41.2452 34.2196 40.8349 33.3991C40.7592 33.2224 40.6835 33.0614 40.6077 32.9005C40.5351 32.7142 40.4752 32.5217 40.4342 32.3261C41.1694 30.2179 42.4001 28.4348 44.2146 27.0872C44.3125 26.9956 43.8202 27.1093 43.918 27.0209C44.0348 26.9167 44.7858 26.6138 44.9278 26.5443C45.1014 26.4623 44.1862 26.0741 43.3752 26.1688C42.5516 26.2603 42.3749 26.3613 41.9363 26.5475C42.1193 26.3645 42.6999 26.1278 42.5642 26.1278C41.6743 26.2635 40.573 26.781 39.6263 27.3649C39.6232 27.2639 39.6452 27.1629 39.6831 27.0682C39.2445 27.2544 38.1621 28.0087 37.8497 28.6494C37.8623 28.5263 37.8686 28.4032 37.8686 28.2801C37.5341 28.561 37.2312 28.8766 36.9661 29.2238L36.9503 29.2395C34.4005 28.2107 32.1537 28.1444 30.254 28.6052C29.8374 28.1886 29.6355 28.4916 28.6888 26.4149C28.6256 26.2887 28.7392 26.538 28.6888 26.4149C28.5341 26.011 28.7834 26.9515 28.6888 26.4149C27.0983 27.671 25.0061 29.0912 24.0026 30.0948C23.99 30.1358 25.1733 29.7603 24.0026 30.0948C23.5924 30.2116 23.6208 30.4546 23.5576 32.6574C23.5419 32.8247 23.5545 33.0109 23.5419 33.1624C22.7403 34.1849 22.1944 35.0497 21.9861 35.4978C20.9479 37.2872 19.8056 40.074 18.6979 44.4828C19.187 43.2867 19.774 42.1348 20.4588 41.0397C19.5373 43.3814 18.6474 47.0549 18.4707 52.7136C18.6948 51.5459 18.9788 50.3908 19.3259 49.2546C19.1081 53.9507 19.9192 58.6373 21.699 62.9862C22.3364 64.5453 23.3904 66.9091 25.1828 69.5033C30.8188 75.4334 38.768 79.1258 47.5723 79.1258C56.7742 79.1258 65.0294 75.1051 70.7002 68.7175V68.7175Z" fill="url(#paint3_linear_1024_11508)"/>
<path d="M63.8989 73.026C75.0226 71.7383 79.9454 60.2759 73.6215 60.0486C67.9097 59.8687 58.6289 73.6351 63.8989 73.026Z" fill="url(#paint4_radial_1024_11508)"/>
<path d="M74.4236 57.7104C82.0762 53.2573 80.0818 43.6348 80.0818 43.6348C80.0818 43.6348 77.1281 47.0653 75.121 52.5346C73.1393 57.9502 69.8226 60.3993 74.4236 57.7104V57.7104Z" fill="url(#paint5_radial_1024_11508)"/>
<path d="M50.1277 78.7181C60.797 82.1234 69.9674 73.716 64.3156 70.9103C59.175 68.3793 45.066 77.1086 50.1277 78.7181Z" fill="url(#paint6_radial_1024_11508)"/>
<path d="M75.2189 61.7928C75.4777 61.4267 75.828 60.2527 76.1404 59.7288C78.0243 56.6864 78.0369 54.2627 78.0369 54.209C79.1761 48.5251 79.072 46.2055 78.3714 41.9134C77.8066 38.4576 75.3451 33.5059 73.2119 31.1231C71.0124 28.6678 72.5618 29.4663 70.4318 27.6737C68.5668 25.6034 66.7554 23.5551 65.7708 22.7314C58.6485 16.7761 58.8094 15.5106 58.9451 15.296C58.923 15.3212 58.8883 15.3591 58.8441 15.4096C58.7589 15.0719 58.699 14.791 58.699 14.791C58.699 14.791 54.8049 18.6855 53.9876 25.171C53.4511 29.4063 55.0384 33.8215 57.3326 36.6461C58.5286 38.1073 59.8792 39.4359 61.3624 40.6068V40.6036C63.098 43.0937 64.051 46.1676 64.051 49.4751C64.051 57.7563 57.3357 64.4691 49.0521 64.4691C47.9224 64.4691 46.7989 64.3428 45.6976 64.0935C41.7877 63.3487 39.5314 61.3762 38.4049 60.0381C37.7611 59.2712 37.4866 58.7126 37.4866 58.7126C40.9894 59.9686 44.8614 59.7035 47.2155 58.4033C49.5886 57.0873 51.0244 56.1121 52.1888 56.4971C53.3375 56.879 54.2526 55.7681 53.4322 54.6161C52.6275 53.4642 50.5353 51.8168 47.4301 52.2744C45.0539 52.6216 42.8764 54.3068 39.765 52.6721C39.563 52.5679 39.3705 52.4543 39.1812 52.3281C38.976 52.2081 39.847 52.5111 39.645 52.3754C39.0392 52.0819 37.9662 51.4381 37.6885 51.2108C37.6412 51.173 38.1587 51.3592 38.1114 51.3213C35.2019 49.1721 35.5648 47.7235 35.6563 46.8114C35.7289 46.0824 36.259 45.1514 37.1489 44.7727C37.5781 44.9841 37.8463 45.1451 37.8463 45.1451C37.8463 45.1451 37.6633 44.8106 37.5623 44.6307C37.597 44.618 37.6317 44.6212 37.6633 44.6086C38.0167 44.7601 38.7962 45.1577 39.2064 45.3976C39.7397 45.7352 39.9101 46.0382 39.9101 46.0382C39.9101 46.0382 40.0521 45.9688 39.948 45.6753C39.9101 45.5554 39.7492 45.1703 39.219 44.7821L39.2506 44.7853C39.5662 44.9463 39.8659 45.1325 40.1468 45.3439C40.2951 44.8579 40.5633 44.3498 40.5065 43.4409C40.4718 42.8034 40.4876 42.6361 40.3614 42.3899C40.2478 42.1785 40.4245 42.0964 40.6201 42.3142C40.5854 42.1406 40.5318 41.9733 40.4529 41.8124L40.456 41.7966C40.699 41.036 45.6156 39.0572 45.9722 38.8237C46.5496 38.4608 47.0419 37.981 47.4175 37.4161C47.692 37.0248 47.8971 36.4788 47.9476 35.6488C47.9634 35.2732 47.8498 34.9797 46.5465 34.6957C45.7639 34.5253 44.5553 34.3612 42.6934 34.1844C41.3333 34.0645 40.5381 33.1808 40.0837 32.3666C40.0016 32.1898 39.9164 32.032 39.8312 31.8743C39.7523 31.688 39.6861 31.4987 39.6387 31.303C40.456 29.1696 41.9203 27.3518 43.8295 26.1051C43.9399 26.0168 43.3908 26.1272 43.5013 26.0389C43.6275 25.9347 44.4606 25.6349 44.6184 25.5655C44.8109 25.4834 43.7947 25.0984 42.9017 25.1931C41.9897 25.2846 41.7972 25.3824 41.3081 25.5686C41.51 25.3887 42.1538 25.152 42.0023 25.1552C41.0178 25.2909 39.7965 25.8022 38.752 26.3829C38.7488 26.2819 38.7709 26.1809 38.8151 26.0894C38.3291 26.2756 37.1331 27.0235 36.786 27.6579C36.8018 27.538 36.8081 27.4149 36.8049 27.2918C36.4389 27.5664 36.1044 27.8788 35.8077 28.226L35.7888 28.2417C32.9645 27.2224 30.481 27.1561 28.3761 27.6137C27.9154 27.2003 27.177 26.5722 26.1293 24.5145C26.0567 24.3915 26.0189 24.7702 25.9652 24.6471C25.5581 23.7035 25.312 22.157 25.353 21.0935C25.353 21.0935 24.5104 21.4753 23.8162 23.0786C23.6868 23.3658 23.6048 23.5267 23.5227 23.6845C23.4849 23.7319 23.6079 23.1575 23.589 23.189C23.4691 23.3942 23.1535 23.6814 23.0178 24.0506C22.9231 24.3252 22.7906 24.4798 22.7054 24.8207L22.6865 24.8522C22.6802 24.7512 22.7117 24.4356 22.6896 24.5019C22.3646 25.1615 22.0837 25.8432 21.8502 26.5407C21.4747 27.7747 21.0392 29.4505 20.9698 31.6344C20.954 31.7985 20.9666 31.9847 20.954 32.133C20.0673 33.1461 19.4614 34.0045 19.2342 34.4495C18.0823 36.2169 16.8169 38.9815 15.5894 43.3525C16.1353 42.1595 16.7885 41.0139 17.5396 39.9377C16.5203 42.2574 15.5357 45.9025 15.3369 51.517C15.5831 50.3556 15.9018 49.21 16.2836 48.0864C16.1069 51.8294 16.5424 56.4687 18.9091 61.7044C20.3134 64.7847 23.548 71.0366 31.4498 75.9157C39.3516 80.7949 34.1384 77.9166 38.7583 79.4157C39.0991 79.5388 39.4462 79.6619 39.7997 79.7786C39.6924 79.7345 39.5851 79.6871 39.4778 79.6398C42.5546 80.5613 45.745 81.0316 48.9574 81.0316C60.9206 81.041 64.4486 76.2376 64.4486 76.2376C64.4486 76.2376 64.436 76.2471 64.4139 76.2629C64.5811 76.1051 64.7452 75.9378 64.903 75.7674C63.0159 77.5505 58.7084 77.6673 57.0959 77.5411C59.8413 76.7331 61.6495 76.0514 65.1649 74.7038C65.5752 74.5524 65.998 74.3788 66.4272 74.1831C66.4746 74.1642 66.5219 74.1389 66.5661 74.12C66.6513 74.079 66.7365 74.0443 66.8217 74.0001C68.5352 73.1921 70.1446 72.1854 71.6214 70.9956C75.1526 68.1742 75.9195 65.4253 76.3234 63.6138C76.2666 63.7874 76.093 64.1913 75.97 64.4564C75.0611 66.4005 73.0447 67.5966 70.8546 68.6191C71.896 67.2526 72.8616 65.8293 73.7484 64.3554C74.4616 63.6485 74.6856 62.5376 75.2189 61.7928V61.7928Z" fill="url(#paint7_radial_1024_11508)"/>
<path d="M70.9212 68.5375C72.3602 66.95 73.654 65.1353 74.6323 63.0745C77.1537 57.7756 81.0478 48.9642 77.9805 39.7646C75.5538 32.4932 72.2245 28.5167 67.9991 24.6317C61.1323 18.323 59.2137 15.5078 59.2137 13.832C59.2137 13.832 51.2866 22.6719 54.7231 31.8873C58.1597 41.1027 65.2031 40.7682 69.8609 50.3875C75.3423 61.708 65.424 74.0604 57.2224 77.5193C57.7242 77.4089 75.4528 73.3945 76.3869 63.2544C76.3679 63.4406 75.9671 66.2431 70.9212 68.5375V68.5375Z" fill="url(#paint8_radial_1024_11508)"/>
<path d="M47.9499 35.6425C47.9783 35.0428 47.6659 34.642 42.7146 34.1781C40.6761 33.9888 39.8966 32.1078 39.66 31.3125C38.9342 33.1966 38.6375 35.1691 38.7985 37.5613C38.9089 39.1267 39.9598 40.8056 40.4615 41.7934C40.4615 41.7934 40.5719 41.6483 40.6256 41.5946C41.5723 40.61 45.539 39.1077 45.9113 38.8931C46.3184 38.6343 47.8836 37.4919 47.9499 35.6425V35.6425Z" fill="url(#paint9_linear_1024_11508)"/>
<path d="M26.1488 24.5187C26.0762 24.3956 26.0384 24.7744 25.9847 24.6513C25.5776 23.7076 25.3315 22.1802 25.3883 21.0977C25.3883 21.0977 24.5457 21.4795 23.8515 23.0828C23.7221 23.37 23.6401 23.5309 23.558 23.6887C23.5201 23.736 23.6432 23.1617 23.6243 23.1932C23.5044 23.3984 23.1888 23.6856 23.0531 24.039C22.9395 24.3294 22.8259 24.484 22.7375 24.8438C22.7123 24.9416 22.7628 24.4114 22.7407 24.4777C21.1218 27.6084 20.8126 32.3392 20.983 32.1404C24.429 28.4605 28.3799 27.5863 28.3799 27.5863C27.9633 27.2739 27.0482 26.3808 26.1488 24.5187V24.5187Z" fill="url(#paint10_linear_1024_11508)"/>
<path d="M39.2284 63.0143C34.4665 60.9818 29.0545 58.1131 29.2565 51.5992C29.5342 43.0213 37.2561 44.716 37.2561 44.716C36.9658 44.7855 36.1863 45.3409 35.9086 45.9342C35.6183 46.6727 35.085 48.3422 36.6975 50.0938C39.2315 52.8395 31.4938 56.6077 43.4349 63.7243C43.7378 63.8853 40.639 63.6234 39.2284 63.0143V63.0143Z" fill="url(#paint11_linear_1024_11508)"/>
<path d="M37.5369 58.7387C40.9134 59.9126 44.8454 59.7074 47.2027 58.4073C48.7806 57.53 50.8002 56.1226 52.0467 56.4697C50.9706 56.0437 50.1533 55.8449 49.1719 55.7976C49.0046 55.7976 48.8058 55.7944 48.6228 55.7755C48.263 55.7755 47.9033 55.7944 47.5467 55.8354C46.9376 55.8922 46.2655 56.2741 45.6533 56.2141C45.6217 56.211 46.2465 55.9553 46.1961 55.968C45.871 56.0342 45.5176 56.05 45.1452 56.0974C44.9085 56.1226 44.7034 56.1542 44.4699 56.1636C37.4359 56.76 31.4937 52.3516 31.4937 52.3516C30.9857 54.0525 33.7564 57.4227 37.5369 58.7387Z" fill="url(#paint12_linear_1024_11508)"/>
<path d="M70.9088 68.5829C78.0217 61.5988 81.6223 53.1092 80.0981 43.5845C80.0981 43.5845 80.7071 48.4668 78.4003 53.4627C79.508 48.5867 79.6374 42.5273 76.6963 36.2532C72.7706 27.8773 66.3141 23.4715 63.8464 21.6316C60.1132 18.8449 58.5638 16.0108 58.5354 15.4238C57.4183 17.7087 54.0448 25.545 58.1725 32.2925C62.0413 38.6139 68.1349 40.4917 72.3982 46.2892C80.259 56.9753 70.9088 68.5829 70.9088 68.5829V68.5829Z" fill="url(#paint13_linear_1024_11508)"/>
<path d="M69.8885 50.411C67.4018 45.2763 64.2998 43.0356 61.365 40.6055C61.7058 41.082 61.791 41.2524 61.9804 41.5617C64.5649 44.3137 68.3738 51.0328 65.6062 59.4623C60.3994 75.3336 39.5783 67.8603 37.3945 65.7616C38.2781 74.9455 53.6494 79.3417 63.6592 73.3864C69.3552 67.9929 73.9624 58.828 69.8885 50.411V50.411Z" fill="url(#paint14_linear_1024_11508)"/>
<defs>
<radialGradient id="paint0_radial_1024_11508" cx="0" cy="0" r="1" gradientUnits="userSpaceOnUse" gradientTransform="translate(47.5927 47.4326) rotate(90) scale(47.04)">
<stop stop-color="#333944"/>
<stop offset="1" stop-color="#222428"/>
</radialGradient>
<radialGradient id="paint1_radial_1024_11508" cx="0" cy="0" r="1" gradientUnits="userSpaceOnUse" gradientTransform="translate(77.3707 30.6349) rotate(2.55508) scale(23.4856 34.5236)">
<stop offset="0.045" stop-color="#FFEA00"/>
<stop offset="0.12" stop-color="#FFDE00"/>
<stop offset="0.254" stop-color="#FFBF00"/>
<stop offset="0.429" stop-color="#FF8E00"/>
<stop offset="0.769" stop-color="#FF272D"/>
<stop offset="0.872" stop-color="#E0255A"/>
<stop offset="0.953" stop-color="#CC2477"/>
<stop offset="1" stop-color="#C42482"/>
</radialGradient>
<radialGradient id="paint2_radial_1024_11508" cx="0" cy="0" r="1" gradientUnits="userSpaceOnUse" gradientTransform="translate(60.622 27.023) scale(66.1923 66.1984)">
<stop stop-color="#00CCDA"/>
<stop offset="0.22" stop-color="#0083FF"/>
<stop offset="0.261" stop-color="#007AF9"/>
<stop offset="0.33" stop-color="#0060E8"/>
<stop offset="0.333" stop-color="#005FE7"/>
<stop offset="0.438" stop-color="#2639AD"/>
<stop offset="0.522" stop-color="#401E84"/>
<stop offset="0.566" stop-color="#4A1475"/>
</radialGradient>
<linearGradient id="paint3_linear_1024_11508" x1="52.259" y1="63.6335" x2="39.1832" y2="20.8639" gradientUnits="userSpaceOnUse">
<stop stop-color="#000F43" stop-opacity="0.4"/>
<stop offset="0.485" stop-color="#001962" stop-opacity="0.173"/>
<stop offset="1" stop-color="#002079" stop-opacity="0"/>
</linearGradient>
<radialGradient id="paint4_radial_1024_11508" cx="0" cy="0" r="1" gradientUnits="userSpaceOnUse" gradientTransform="translate(70.5302 48.3814) rotate(5.67027) scale(22.3266 22.3286)">
<stop offset="0.003" stop-color="#FFEA00"/>
<stop offset="0.497" stop-color="#FF272D"/>
<stop offset="1" stop-color="#C42482"/>
</radialGradient>
<radialGradient id="paint5_radial_1024_11508" cx="0" cy="0" r="1" gradientUnits="userSpaceOnUse" gradientTransform="translate(70.6357 26.8765) rotate(5.67019) scale(37.2841 37.287)">
<stop offset="0.003" stop-color="#FFE900"/>
<stop offset="0.157" stop-color="#FFAF0E"/>
<stop offset="0.316" stop-color="#FF7A1B"/>
<stop offset="0.472" stop-color="#FF4E26"/>
<stop offset="0.621" stop-color="#FF2C2E"/>
<stop offset="0.762" stop-color="#FF1434"/>
<stop offset="0.892" stop-color="#FF0538"/>
<stop offset="1" stop-color="#FF0039"/>
</radialGradient>
<radialGradient id="paint6_radial_1024_11508" cx="0" cy="0" r="1" gradientUnits="userSpaceOnUse" gradientTransform="translate(72.4685 61.7915) rotate(5.67019) scale(34.2118 34.2145)">
<stop offset="0.003" stop-color="#FF272D"/>
<stop offset="0.497" stop-color="#C42482"/>
<stop offset="0.986" stop-color="#620700"/>
</radialGradient>
<radialGradient id="paint7_radial_1024_11508" cx="0" cy="0" r="1" gradientUnits="userSpaceOnUse" gradientTransform="translate(64.1785 40.7426) scale(53.4165 53.4215)">
<stop offset="0.156" stop-color="#FFEA00"/>
<stop offset="0.231" stop-color="#FFDE00"/>
<stop offset="0.365" stop-color="#FFBF00"/>
<stop offset="0.541" stop-color="#FF8E00"/>
<stop offset="0.763" stop-color="#FF272D"/>
<stop offset="0.796" stop-color="#F92433"/>
<stop offset="0.841" stop-color="#E91C45"/>
<stop offset="0.893" stop-color="#CF0E62"/>
<stop offset="0.935" stop-color="#B5007F"/>
</radialGradient>
<radialGradient id="paint8_radial_1024_11508" cx="0" cy="0" r="1" gradientUnits="userSpaceOnUse" gradientTransform="translate(60.1599 13.9188) scale(63.0755 63.0812)">
<stop offset="0.279" stop-color="#FFEA00"/>
<stop offset="0.402" stop-color="#FFDD00"/>
<stop offset="0.63" stop-color="#FFBA00"/>
<stop offset="0.856" stop-color="#FF9100"/>
<stop offset="0.933" stop-color="#FF6711"/>
<stop offset="0.994" stop-color="#FF4A1D"/>
</radialGradient>
<linearGradient id="paint9_linear_1024_11508" x1="16.5877" y1="40.129" x2="40.8589" y2="36.4454" gradientUnits="userSpaceOnUse">
<stop stop-color="#C42482" stop-opacity="0.5"/>
<stop offset="0.474" stop-color="#FF272D" stop-opacity="0.5"/>
<stop offset="0.486" stop-color="#FF2C2C" stop-opacity="0.513"/>
<stop offset="0.675" stop-color="#FF7A1A" stop-opacity="0.72"/>
<stop offset="0.829" stop-color="#FFB20D" stop-opacity="0.871"/>
<stop offset="0.942" stop-color="#FFD605" stop-opacity="0.964"/>
<stop offset="1" stop-color="#FFE302"/>
</linearGradient>
<linearGradient id="paint10_linear_1024_11508" x1="25.1182" y1="31.4419" x2="22.3631" y2="21.5662" gradientUnits="userSpaceOnUse">
<stop stop-color="#891551" stop-opacity="0.6"/>
<stop offset="1" stop-color="#C42482" stop-opacity="0"/>
</linearGradient>
<linearGradient id="paint11_linear_1024_11508" x1="30.3964" y1="45.869" x2="36.063" y2="53.7741" gradientUnits="userSpaceOnUse">
<stop offset="0.005" stop-color="#891551" stop-opacity="0.5"/>
<stop offset="0.484" stop-color="#FF272D" stop-opacity="0.5"/>
<stop offset="1" stop-color="#FF272D" stop-opacity="0"/>
</linearGradient>
<linearGradient id="paint12_linear_1024_11508" x1="41.2184" y1="59.7295" x2="41.7329" y2="54.6485" gradientUnits="userSpaceOnUse">
<stop stop-color="#C42482"/>
<stop offset="0.083" stop-color="#C42482" stop-opacity="0.81"/>
<stop offset="0.206" stop-color="#C42482" stop-opacity="0.565"/>
<stop offset="0.328" stop-color="#C42482" stop-opacity="0.362"/>
<stop offset="0.447" stop-color="#C42482" stop-opacity="0.204"/>
<stop offset="0.562" stop-color="#C42482" stop-opacity="0.091"/>
<stop offset="0.673" stop-color="#C42482" stop-opacity="0.023"/>
<stop offset="0.773" stop-color="#C42482" stop-opacity="0"/>
</linearGradient>
<linearGradient id="paint13_linear_1024_11508" x1="57.7146" y1="16.2989" x2="78.5916" y2="62.979" gradientUnits="userSpaceOnUse">
<stop stop-color="#FFF14F"/>
<stop offset="0.268" stop-color="#FFEE4C"/>
<stop offset="0.452" stop-color="#FFE643"/>
<stop offset="0.612" stop-color="#FFD834"/>
<stop offset="0.757" stop-color="#FFC41E"/>
<stop offset="0.892" stop-color="#FFAB02"/>
<stop offset="0.902" stop-color="#FFA900"/>
<stop offset="0.949" stop-color="#FFA000"/>
<stop offset="1" stop-color="#FF9100"/>
</linearGradient>
<linearGradient id="paint14_linear_1024_11508" x1="61.8353" y1="43.1464" x2="51.946" y2="69.6967" gradientUnits="userSpaceOnUse">
<stop stop-color="#FF8E00"/>
<stop offset="0.04" stop-color="#FF8E00" stop-opacity="0.858"/>
<stop offset="0.084" stop-color="#FF8E00" stop-opacity="0.729"/>
<stop offset="0.13" stop-color="#FF8E00" stop-opacity="0.628"/>
<stop offset="0.178" stop-color="#FF8E00" stop-opacity="0.557"/>
<stop offset="0.227" stop-color="#FF8E00" stop-opacity="0.514"/>
<stop offset="0.282" stop-color="#FF8E00" stop-opacity="0.5"/>
<stop offset="0.389" stop-color="#FF8E00" stop-opacity="0.478"/>
<stop offset="0.524" stop-color="#FF8E00" stop-opacity="0.416"/>
<stop offset="0.676" stop-color="#FF8E00" stop-opacity="0.314"/>
<stop offset="0.838" stop-color="#FF8E00" stop-opacity="0.172"/>
<stop offset="1" stop-color="#FF8E00" stop-opacity="0"/>
</linearGradient>
</defs>
</svg>
