<svg width="95" height="95" viewBox="0 0 95 95" fill="none" xmlns="http://www.w3.org/2000/svg">
<rect x="0.935672" y="0.777469" width="92.736" height="92.736" rx="13.44" fill="url(#paint0_radial_1024_11530)"/>
<rect x="0.935672" y="0.777469" width="92.736" height="92.736" rx="13.44" stroke="#6886C3" stroke-width="1.344"/>
<path d="M71.3275 13.5449H23.1115C19.7515 13.5449 17.0635 16.2329 17.0635 19.5929V74.6969C17.0635 78.0569 19.7515 80.7449 23.1115 80.7449H71.3275C74.6875 80.7449 77.3755 78.0569 77.3755 74.6969V19.5929C77.3755 16.2329 74.6875 13.5449 71.3275 13.5449ZM74.0155 74.6969C74.0155 76.2089 72.8395 77.3849 71.3275 77.3849H23.1115C21.5995 77.3849 20.4235 76.2089 20.4235 74.6969V19.5929C20.4235 18.0809 21.5995 16.9049 23.1115 16.9049H71.3275C72.8395 16.9049 74.0155 18.0809 74.0155 19.5929V74.6969ZM32.1835 70.6649L39.7435 63.9449L32.1835 57.2249V70.6649ZM59.3995 43.4489C58.0555 42.1049 55.5355 40.4249 51.3355 40.4249C46.7995 40.4249 42.0955 41.6009 38.7355 42.7769V23.6249H32.0155V52.6889L36.7195 50.5049C36.7195 50.5049 44.4475 46.9769 51.1675 46.9769C54.5275 46.9769 55.3675 48.8249 55.3675 50.5049V70.6649H62.0875V50.5049C62.2555 50.0009 62.2555 46.3049 59.3995 43.4489ZM50.4955 34.5449H57.2155C60.2395 31.0169 61.7515 27.4889 62.2555 23.6249H55.5355C54.8635 27.4889 53.1835 31.0169 50.4955 34.5449Z" fill="white"/>
<defs>
<radialGradient id="paint0_radial_1024_11530" cx="0" cy="0" r="1" gradientUnits="userSpaceOnUse" gradientTransform="translate(47.3037 47.1455) rotate(90) scale(47.04)">
<stop stop-color="#333944"/>
<stop offset="1" stop-color="#222428"/>
</radialGradient>
</defs>
</svg>
