<svg width="95" height="95" viewBox="0 0 95 95" fill="none" xmlns="http://www.w3.org/2000/svg">
<rect x="0.903445" y="1.48841" width="92.736" height="92.736" rx="13.44" fill="url(#paint0_radial_1024_11565)"/>
<rect x="0.903445" y="1.48841" width="92.736" height="92.736" rx="13.44" stroke="#6886C3" stroke-width="1.344"/>
<path d="M13.6719 41.1359C13.6719 31.7272 13.6719 27.0225 15.5031 23.4287C17.1137 20.2677 19.6837 17.6977 22.8447 16.0871C26.4385 14.2559 31.1439 14.2559 40.5519 14.2559H53.9919C63.4005 14.2559 68.1052 14.2559 71.6991 16.0871C74.8601 17.6977 77.43 20.2677 79.0407 23.4287C80.8719 27.0225 80.8719 31.7279 80.8719 41.1359V54.5759C80.8719 63.9845 80.8719 68.6892 79.0407 72.2831C77.43 75.444 74.8601 78.014 71.6991 79.6247C68.1052 81.4559 63.3999 81.4559 53.9919 81.4559H40.5519C31.1432 81.4559 26.4385 81.4559 22.8447 79.6247C19.6837 78.014 17.1137 75.444 15.5031 72.2831C13.6719 68.6892 13.6719 63.9839 13.6719 54.5759V41.1359Z" fill="#179DE3"/>
<path d="M65.7388 37.5218C64.2179 36.9573 62.8367 36.0713 61.6896 34.9242C60.5425 33.7771 59.6565 32.3959 59.0921 30.875C58.527 32.3955 57.6408 33.7762 56.4937 34.9231C55.3467 36.0701 53.9658 36.9562 52.4453 37.5211C53.9657 38.0864 55.3464 38.9729 56.4933 40.12C57.6402 41.2671 58.5263 42.648 59.0914 44.1685C59.6564 42.6478 60.5428 41.2669 61.6899 40.1199C62.8371 38.9728 64.2181 38.0866 65.7388 37.5218Z" fill="white"/>
<path d="M47.3537 31.0566H30.5537V64.6566H64.147V47.8566L47.3537 64.6499V31.0566Z" fill="white"/>
<defs>
<radialGradient id="paint0_radial_1024_11565" cx="0" cy="0" r="1" gradientUnits="userSpaceOnUse" gradientTransform="translate(47.2714 47.8564) rotate(90) scale(47.04)">
<stop stop-color="#333944"/>
<stop offset="1" stop-color="#222428"/>
</radialGradient>
</defs>
</svg>
