<svg width="95" height="95" viewBox="0 0 95 95" fill="none" xmlns="http://www.w3.org/2000/svg">
<rect x="1.47962" y="1.04895" width="92.736" height="92.736" rx="13.44" fill="url(#paint0_radial_1024_11668)"/>
<rect x="1.47962" y="1.04895" width="92.736" height="92.736" rx="13.44" stroke="#6886C3" stroke-width="1.344"/>
<path d="M47.978 13.8164L18.2812 30.6164V64.2164L47.978 81.0164L77.6748 64.2164V30.6164L47.978 13.8164Z" fill="white"/>
<path d="M23.5834 63.0569L46.997 76.3009V65.9857L32.409 57.9609L23.5834 63.0569ZM21.9818 61.6065V33.9089L30.5498 38.8537V56.6561L21.9818 61.6065ZM72.4658 63.0569L49.0522 76.3009V65.9857L63.6402 57.9609L72.4658 63.0569V63.0569ZM74.0674 61.6065V33.9089L65.4994 38.8537V56.6561L74.0674 61.6065V61.6065ZM73.065 32.1169L49.0522 18.5312V28.5049L64.4354 36.9665L64.553 37.0337L73.065 32.1169V32.1169ZM22.9842 32.1169L46.997 18.5312V28.5049L31.6138 36.9665L31.4962 37.0337L22.9842 32.1169V32.1169Z" fill="#8ED6FB"/>
<path d="M49.0523 63.6388L63.4443 55.726V40.046L49.0523 48.3564V63.6388ZM46.9971 63.6388L32.6051 55.726V40.046L46.9971 48.3564V63.6388ZM62.4699 38.2316L48.0219 30.2852L33.5739 38.2316L48.0219 46.5756L62.4699 38.2316" fill="#1C78C0"/>
<defs>
<radialGradient id="paint0_radial_1024_11668" cx="0" cy="0" r="1" gradientUnits="userSpaceOnUse" gradientTransform="translate(47.8476 47.417) rotate(90) scale(47.04)">
<stop stop-color="#333944"/>
<stop offset="1" stop-color="#222428"/>
</radialGradient>
</defs>
</svg>
