<svg width="95" height="96" viewBox="0 0 95 96" fill="none" xmlns="http://www.w3.org/2000/svg">
<rect x="0.76868" y="1.64075" width="92.736" height="92.736" rx="13.44" fill="url(#paint0_radial_1024_11478)"/>
<rect x="0.76868" y="1.64075" width="92.736" height="92.736" rx="13.44" stroke="#6886C3" stroke-width="1.344"/>
<path d="M48.4443 39.0873C52.8351 44.2254 54.6412 51.0761 53.3022 57.709C60.1841 54.9686 62.8621 50.3599 63.6718 45.7512C63.6718 45.7512 66.0073 37.0009 69.6818 33.3887C62.4884 34.4786 61.7722 31.6448 48.4443 39.0873Z" fill="#19B99A"/>
<path d="M37.4208 48.0227C35.9884 43.5697 33.4972 39.5215 30.1652 36.2207C30.1652 36.2207 40.1923 38.8676 45.9843 57.5827C40.5348 55.9323 38.1993 50.5451 37.4208 48.0227ZM49.8457 60.2607C50.0014 59.3577 52.6794 50.2959 47.3856 42.9469C38.573 33.169 25.2451 31.7988 25.2451 31.7988C27.8297 36.8124 27.9231 41.5145 30.7569 51.0744C34.1823 60.9769 46.8874 61.6309 47.8216 61.662C48.6623 63.001 50.6241 64.8071 55.1083 65.7413L55.6065 63.3747C51.7452 62.5651 50.3439 61.0704 49.8457 60.2607Z" fill="#19B99A"/>
<path d="M26.6782 28.9348C21.073 31.5817 18.8309 38.0276 18.8309 47.899C18.8309 57.5835 21.073 64.0606 26.6782 66.8943L26.0554 69.3232C17.4296 66.3027 13.5371 59.5765 13.5371 47.9301C13.5371 36.1904 17.4296 29.4642 26.0554 26.5059L26.6782 28.9348Z" fill="white"/>
<path d="M68.2183 26.5059C76.844 29.4642 80.7365 36.1904 80.7365 47.899C80.7365 59.5453 76.844 66.2715 68.2183 69.261L67.5332 66.8321C73.1384 63.9983 75.3805 57.5212 75.3805 47.8367C75.3805 37.9653 73.1384 31.5194 67.5332 28.9036L68.2183 26.5059Z" fill="white"/>
<defs>
<radialGradient id="paint0_radial_1024_11478" cx="0" cy="0" r="1" gradientUnits="userSpaceOnUse" gradientTransform="translate(47.1367 48.0088) rotate(90) scale(47.04)">
<stop stop-color="#333944"/>
<stop offset="1" stop-color="#222428"/>
</radialGradient>
</defs>
</svg>
