<svg width="95" height="95" viewBox="0 0 95 95" fill="none" xmlns="http://www.w3.org/2000/svg">
<rect x="1.34387" y="0.777469" width="92.736" height="92.736" rx="13.44" fill="url(#paint0_radial_1024_11539)"/>
<rect x="1.34387" y="0.777469" width="92.736" height="92.736" rx="13.44" stroke="#6886C3" stroke-width="1.344"/>
<path d="M26.0123 14.2188H69.4123C75.9923 14.2188 81.3123 19.5388 81.3123 26.1188V67.8388C81.3123 74.4188 75.9923 79.7388 69.4123 79.7388H26.0123C19.4323 79.7388 14.1123 74.4188 14.1123 67.8388V26.1188C14.1123 19.5388 19.4323 14.2188 26.0123 14.2188Z" fill="#49021F"/>
<path d="M38.5292 31.3526V60.1926C38.5292 60.5006 38.3892 60.6406 38.1372 60.6406H32.6492C32.3972 60.6406 32.2852 60.5006 32.2852 60.1926V31.3526C32.2852 31.1006 32.4252 30.9886 32.6772 30.9886H38.1372C38.3052 30.9606 38.4732 31.0726 38.5012 31.2686C38.5292 31.2966 38.5292 31.3246 38.5292 31.3526Z" fill="#FF3366"/>
<path d="M54.7129 60.9804C52.6409 61.0084 50.5689 60.5884 48.6929 59.7204C46.9289 58.9084 45.4729 57.5644 44.4649 55.9124C43.4289 54.2044 42.9249 52.0764 42.9249 49.5284C42.8969 47.4564 43.4289 45.4124 44.4649 43.6204C45.5289 41.8004 47.0689 40.2884 48.9169 39.2804C50.8769 38.1884 53.2289 37.6564 56.0009 37.6564C56.1409 37.6564 56.3369 37.6564 56.5889 37.6844C56.8409 37.7124 57.1209 37.7124 57.4569 37.7404V28.8924C57.4569 28.6964 57.5409 28.5844 57.7369 28.5844H63.4209C63.5609 28.5564 63.6729 28.6684 63.7009 28.7804V28.8364V55.4924C63.7009 55.9964 63.7289 56.5564 63.7569 57.1724C63.8129 57.7604 63.8409 58.3204 63.8689 58.7964C63.8689 58.9924 63.7849 59.1604 63.5889 59.2444C62.1329 59.8604 60.5929 60.3084 59.0249 60.5884C57.6249 60.8404 56.1689 60.9804 54.7129 60.9804ZM57.4569 55.3804V43.0604C57.2049 43.0044 56.9529 42.9484 56.7009 42.9204C56.3929 42.8924 56.0849 42.8644 55.7769 42.8644C54.6849 42.8644 53.5929 43.0884 52.6129 43.5924C51.6609 44.0684 50.8489 44.7684 50.2329 45.6644C49.6169 46.5604 49.3089 47.7644 49.3089 49.2204C49.2809 50.2004 49.4489 51.1804 49.7849 52.1044C50.0649 52.8604 50.4849 53.5324 51.0449 54.0924C51.5769 54.5964 52.2209 54.9884 52.9489 55.2124C53.7049 55.4644 54.4889 55.5764 55.2729 55.5764C55.6929 55.5764 56.0849 55.5484 56.4489 55.5204C56.8129 55.5484 57.1489 55.4924 57.4569 55.3804Z" fill="#FF3366"/>
<defs>
<radialGradient id="paint0_radial_1024_11539" cx="0" cy="0" r="1" gradientUnits="userSpaceOnUse" gradientTransform="translate(47.7119 47.1455) rotate(90) scale(47.04)">
<stop stop-color="#333944"/>
<stop offset="1" stop-color="#222428"/>
</radialGradient>
</defs>
</svg>
