<svg width="96" height="95" viewBox="0 0 96 95" fill="none" xmlns="http://www.w3.org/2000/svg">
<rect x="1.63196" y="0.929812" width="92.736" height="92.736" rx="13.44" fill="url(#paint0_radial_1024_11454)"/>
<rect x="1.63196" y="0.929812" width="92.736" height="92.736" rx="13.44" stroke="#6886C3" stroke-width="1.344"/>
<path d="M36.8036 15.7165H56.6886L36.0459 76.9145C35.9403 77.227 35.7867 77.5212 35.5906 77.7864C35.3948 78.0519 35.1588 78.2846 34.8908 78.477C34.6228 78.6693 34.3271 78.8189 34.0129 78.9197C33.6988 79.0205 33.3711 79.0726 33.0418 79.0726H17.5663C17.064 79.0726 16.5683 78.9533 16.1214 78.7231C15.6741 78.4936 15.2879 78.1607 14.9949 77.752C14.7018 77.3433 14.51 76.8708 14.4354 76.3735C14.3607 75.8762 14.406 75.3679 14.5665 74.8916L33.7987 17.8729C33.9037 17.5604 34.0575 17.2664 34.254 17.001C34.4498 16.7355 34.6867 16.5028 34.9538 16.3104C35.2218 16.1181 35.5175 15.9685 35.8317 15.8677C36.1458 15.7669 36.4735 15.7148 36.8028 15.7148V15.7157L36.8036 15.7165Z" fill="url(#paint1_linear_1024_11454)"/>
<path d="M73.4592 79.0713H55.6038C55.4047 79.0713 55.2056 79.0528 55.0091 79.015C54.8133 78.9781 54.621 78.9226 54.4353 78.8495C54.2497 78.7765 54.0716 78.6857 53.9027 78.5799C53.7341 78.4733 53.5757 78.3513 53.4298 78.2153L33.1677 59.2922C32.9533 59.0921 32.8041 58.8322 32.7392 58.5463C32.6744 58.2603 32.6972 57.9614 32.8047 57.6886C32.9121 57.4157 33.0992 57.1816 33.3415 57.0165C33.5843 56.8519 33.8708 56.7637 34.164 56.7637H65.6962L73.4575 79.0722L73.4592 79.0713Z" fill="#0078D4"/>
<path d="M56.7602 15.7149L42.8405 56.7676L65.5841 56.7625L73.3857 79.071H55.5975C55.4136 79.0694 55.2296 79.0526 55.0481 79.0198C54.8667 78.987 54.6886 78.9391 54.5155 78.8753C54.1685 78.7489 53.8458 78.5639 53.5612 78.3284L39.8835 65.5629L36.0545 76.855C35.9554 77.1372 35.8193 77.4052 35.6496 77.6513C35.3095 78.1465 34.8443 78.5427 34.3013 78.7997C34.031 78.9276 33.7448 79.0188 33.4503 79.071H17.5758C17.0684 79.0727 16.5677 78.9517 16.1166 78.7182C15.6655 78.4849 15.2771 78.1463 14.9844 77.7312C14.6916 77.3161 14.5031 76.8366 14.4348 76.3333C14.3668 75.8297 14.4207 75.3172 14.5919 74.8388L33.7931 17.9141C33.893 17.5958 34.0434 17.2959 34.2383 17.0254C34.4323 16.7549 34.6692 16.5163 34.9381 16.3197C35.2069 16.1232 35.5059 15.9703 35.8226 15.8678C36.1393 15.7653 36.4712 15.7132 36.8047 15.7149H56.761H56.7602Z" fill="url(#paint2_linear_1024_11454)"/>
<path d="M81.4349 74.89C81.5954 75.3666 81.6406 75.8745 81.5668 76.3719C81.4921 76.8691 81.3007 77.3415 81.0081 77.7504C80.7151 78.1589 80.3291 78.4917 79.8819 78.7213C79.4348 78.9509 78.9394 79.0708 78.4367 79.071H56.2744C56.7767 79.071 57.2724 78.9509 57.7201 78.7215C58.167 78.4922 58.5534 78.1587 58.8466 77.7504C59.1398 77.3422 59.3313 76.8692 59.4061 76.3719C59.4809 75.8746 59.4355 75.3664 59.2751 74.89L40.042 17.8696C39.8303 17.2415 39.4269 16.6956 38.8886 16.3088C38.6214 16.1164 38.3257 15.9677 38.0124 15.8669C37.6991 15.7661 37.3714 15.7148 37.043 15.7148H59.2045C59.5338 15.7148 59.8606 15.7661 60.1748 15.8669C60.4881 15.9677 60.7838 16.1172 61.0518 16.3088C61.3189 16.5011 61.555 16.7338 61.7507 16.9984C61.9464 17.2631 62.0993 17.5571 62.2052 17.8696L81.4383 74.89H81.4349Z" fill="url(#paint3_linear_1024_11454)"/>
<defs>
<radialGradient id="paint0_radial_1024_11454" cx="0" cy="0" r="1" gradientUnits="userSpaceOnUse" gradientTransform="translate(48 47.2978) rotate(90) scale(47.04)">
<stop stop-color="#333944"/>
<stop offset="1" stop-color="#222428"/>
</radialGradient>
<linearGradient id="paint1_linear_1024_11454" x1="44.0608" y1="20.4124" x2="23.3955" y2="81.4592" gradientUnits="userSpaceOnUse">
<stop stop-color="#114A8B"/>
<stop offset="1" stop-color="#0669BC"/>
</linearGradient>
<linearGradient id="paint2_linear_1024_11454" x1="50.5043" y1="48.8551" x2="45.7244" y2="50.4764" gradientUnits="userSpaceOnUse">
<stop stop-opacity="0.3"/>
<stop offset="0.1" stop-opacity="0.2"/>
<stop offset="0.3" stop-opacity="0.1"/>
<stop offset="0.6" stop-opacity="0.1"/>
<stop offset="1" stop-opacity="0"/>
</linearGradient>
<linearGradient id="paint3_linear_1024_11454" x1="47.8671" y1="18.6298" x2="70.5486" y2="79.055" gradientUnits="userSpaceOnUse">
<stop stop-color="#3CCBF4"/>
<stop offset="1" stop-color="#2892DF"/>
</linearGradient>
</defs>
</svg>
