<svg width="96" height="95" viewBox="0 0 96 95" fill="none" xmlns="http://www.w3.org/2000/svg">
<rect x="1.61536" y="1.21497" width="92.736" height="92.736" rx="13.44" fill="url(#paint0_radial_1024_11440)"/>
<rect x="1.61536" y="1.21497" width="92.736" height="92.736" rx="13.44" stroke="#6886C3" stroke-width="1.344"/>
<g clip-path="url(#clip0_1024_11440)">
<path d="M79.6629 25.2699L77.3004 60.9699L55.5129 13.9824L79.6629 25.2699ZM64.4379 71.4699L48.1629 80.9199L31.6254 71.4699L34.7754 63.3324H61.2879L64.4379 71.4699ZM48.1629 31.8324L56.5629 52.8324H39.5004L48.1629 31.8324ZM18.7629 60.9699L16.4004 25.2699L40.5504 13.9824L18.7629 60.9699Z" fill="url(#paint1_linear_1024_11440)"/>
<path d="M79.6629 25.2699L77.3004 60.9699L55.5129 13.9824L79.6629 25.2699ZM64.4379 71.4699L48.1629 80.9199L31.6254 71.4699L34.7754 63.3324H61.2879L64.4379 71.4699ZM48.1629 31.8324L56.5629 52.8324H39.5004L48.1629 31.8324ZM18.7629 60.9699L16.4004 25.2699L40.5504 13.9824L18.7629 60.9699Z" fill="url(#paint2_linear_1024_11440)"/>
</g>
<defs>
<radialGradient id="paint0_radial_1024_11440" cx="0" cy="0" r="1" gradientUnits="userSpaceOnUse" gradientTransform="translate(47.9834 47.583) rotate(90) scale(47.04)">
<stop stop-color="#333944"/>
<stop offset="1" stop-color="#222428"/>
</radialGradient>
<linearGradient id="paint1_linear_1024_11440" x1="30.3654" y1="74.8562" x2="80.7129" y2="50.9162" gradientUnits="userSpaceOnUse">
<stop stop-color="#E40035"/>
<stop offset="0.2" stop-color="#F60A48"/>
<stop offset="0.4" stop-color="#F20755"/>
<stop offset="0.5" stop-color="#DC087D"/>
<stop offset="0.7" stop-color="#9717E7"/>
<stop offset="1" stop-color="#6C00F5"/>
</linearGradient>
<linearGradient id="paint2_linear_1024_11440" x1="28.0816" y1="22.0412" x2="61.0254" y2="59.6574" gradientUnits="userSpaceOnUse">
<stop stop-color="#FF31D9"/>
<stop offset="1" stop-color="#FF5BE1" stop-opacity="0"/>
</linearGradient>
<clipPath id="clip0_1024_11440">
<rect width="63.525" height="67.2" fill="white" transform="translate(16.4004 13.9824)"/>
</clipPath>
</defs>
</svg>
