<svg width="96" height="95" viewBox="0 0 96 95" fill="none" xmlns="http://www.w3.org/2000/svg">
<rect x="1.61536" y="1.04895" width="92.736" height="92.736" rx="13.44" fill="url(#paint0_radial_1024_11671)"/>
<rect x="1.61536" y="1.04895" width="92.736" height="92.736" rx="13.44" stroke="#6886C3" stroke-width="1.344"/>
<path d="M26.2838 14.4863H69.6838C76.2638 14.4863 81.5838 19.8063 81.5838 26.3863V68.1063C81.5838 74.6863 76.2638 80.0063 69.6838 80.0063H26.2838C19.7038 80.0063 14.3838 74.6863 14.3838 68.1063V26.3863C14.3838 19.8063 19.7038 14.4863 26.2838 14.4863Z" fill="#470137"/>
<path d="M49.7208 31.7071L41.3208 45.5671L50.2808 60.2671C50.3368 60.3791 50.3648 60.4911 50.3368 60.6031C50.3088 60.7151 50.1968 60.6311 50.0288 60.6591H43.6168C43.1688 60.6591 42.8608 60.6311 42.6648 60.3511C42.0768 59.1751 41.4608 58.0271 40.8728 56.8511C40.2848 55.7031 39.6408 54.5271 38.9688 53.3231C38.2968 52.1191 37.6248 50.9151 36.9528 49.6831H36.8968C36.3088 50.8871 35.6648 52.0911 35.0208 53.2951C34.3768 54.4991 33.7328 55.7031 33.1168 56.8791C32.4728 58.0551 31.8288 59.2591 31.1848 60.4071C31.0728 60.6871 30.8488 60.7151 30.5408 60.7151H24.3808C24.2688 60.7151 24.1848 60.7711 24.1848 60.6311C24.1568 60.5191 24.1848 60.4071 24.2408 60.3231L32.9488 46.0431L24.4648 31.6791C24.3808 31.5671 24.3528 31.4551 24.4088 31.3991C24.4648 31.3151 24.5768 31.2871 24.6888 31.2871H31.0448C31.1848 31.2871 31.3248 31.3151 31.4368 31.3431C31.5488 31.3991 31.6328 31.4831 31.7168 31.5951C32.2488 32.7991 32.8648 34.0031 33.5088 35.2071C34.1808 36.4111 34.8248 37.5871 35.5248 38.7631C36.1968 39.9391 36.8128 41.1151 37.4008 42.3191H37.4568C38.0448 41.0871 38.6608 39.8831 39.2768 38.7071C39.8928 37.5311 40.5368 36.3551 41.1808 35.1791C41.8248 34.0031 42.4408 32.7991 43.0568 31.6511C43.0848 31.5391 43.1408 31.4271 43.2248 31.3711C43.3368 31.3151 43.4488 31.2871 43.5888 31.3151H49.4968C49.6368 31.2871 49.7768 31.3711 49.8048 31.5111C49.8328 31.5391 49.7768 31.6511 49.7208 31.7071Z" fill="#FF61F6"/>
<path d="M62.6562 61.248C60.5842 61.276 58.5122 60.856 56.6362 59.988C54.8722 59.176 53.4162 57.832 52.4082 56.18C51.3722 54.472 50.8682 52.344 50.8682 49.796C50.8402 47.724 51.3722 45.68 52.4082 43.888C53.4722 42.068 55.0122 40.556 56.8602 39.548C58.8202 38.456 61.1722 37.924 63.9442 37.924C64.0842 37.924 64.2802 37.924 64.5322 37.952C64.7842 37.98 65.0642 37.98 65.4002 38.008V29.16C65.4002 28.964 65.4842 28.852 65.6802 28.852H71.3642C71.5042 28.824 71.6162 28.936 71.6442 29.048C71.6442 29.076 71.6442 29.104 71.6442 29.104V55.76C71.6442 56.264 71.6722 56.824 71.7002 57.44C71.7562 58.028 71.7842 58.588 71.8122 59.064C71.8122 59.26 71.7282 59.428 71.5322 59.512C70.0762 60.128 68.5362 60.576 66.9682 60.856C65.5402 61.108 64.1122 61.248 62.6562 61.248ZM65.4002 55.648V43.328C65.1482 43.272 64.8962 43.216 64.6442 43.188C64.3362 43.16 64.0282 43.132 63.7202 43.132C62.6282 43.132 61.5362 43.356 60.5562 43.86C59.6042 44.336 58.7922 45.036 58.1762 45.932C57.5602 46.828 57.2522 48.032 57.2522 49.488C57.2242 50.468 57.3922 51.448 57.7282 52.372C58.0082 53.128 58.4282 53.8 58.9882 54.36C59.5202 54.864 60.1642 55.256 60.8922 55.48C61.6482 55.732 62.4322 55.844 63.2162 55.844C63.6362 55.844 64.0282 55.816 64.3922 55.788C64.7562 55.816 65.0642 55.76 65.4002 55.648Z" fill="#FF61F6"/>
<defs>
<radialGradient id="paint0_radial_1024_11671" cx="0" cy="0" r="1" gradientUnits="userSpaceOnUse" gradientTransform="translate(47.9834 47.417) rotate(90) scale(47.04)">
<stop stop-color="#333944"/>
<stop offset="1" stop-color="#222428"/>
</radialGradient>
</defs>
</svg>
