<svg width="95" height="95" viewBox="0 0 95 95" fill="none" xmlns="http://www.w3.org/2000/svg">
<rect x="1.34387" y="0.929812" width="92.736" height="92.736" rx="13.44" fill="url(#paint0_radial_1024_11455)"/>
<rect x="1.34387" y="0.929812" width="92.736" height="92.736" rx="13.44" stroke="#6886C3" stroke-width="1.344"/>
<path d="M60.1997 36.8534L60.1847 36.7095L59.9515 36.7294L59.9663 36.8733L60.1997 36.8534V36.8534ZM61.768 40.6253L61.773 40.7047L61.9368 40.6899C61.9318 40.6403 61.9516 40.5609 61.9864 40.4616L61.9714 40.3176C61.902 40.3226 61.8324 40.4268 61.768 40.6253ZM55.6485 45.375C55.6386 45.241 55.2216 44.7199 54.3978 43.8017C54.3829 43.633 54.6658 43.3798 55.2464 43.0474L56.9041 41.6031C57.2763 41.1315 57.4947 40.3673 57.5593 39.3052L57.5394 39.062C57.4749 38.3275 56.9439 37.7369 55.9364 37.2852C55.3408 36.8832 54.2688 36.6598 52.7203 36.6202C51.4398 36.7294 49.7673 37.1859 47.7076 37.9949C47.1417 38.4019 46.4967 38.8089 45.772 39.2158L45.7819 39.34C45.8266 39.335 45.8961 39.3102 45.9755 39.2556C46.0599 39.2456 46.1095 39.2854 46.1145 39.3648L46.2385 39.3002L46.2981 39.2952L46.3031 39.3498C46.308 39.4144 45.8613 39.7668 44.958 40.3971L45.0276 40.5261L44.968 40.5311L44.819 40.4765C44.824 40.5211 44.7596 40.5509 44.6354 40.5609L44.6404 40.6155L44.7844 40.7941C44.7397 40.7991 44.6702 40.7793 44.5759 40.7445C44.3674 40.7643 44.1639 40.8735 43.9605 41.0819L44.0449 40.7147C44.3476 39.4094 44.556 38.253 44.6652 37.2505L44.6504 37.1859C44.4419 37.0519 44.2384 36.8633 44.0498 36.6251C44.0547 36.4712 44.0547 36.382 44.0498 36.362L44.0349 36.3074L43.9753 36.3224C43.3203 37.3051 42.0596 38.9826 40.1885 41.3549C38.7642 43.0424 38.0296 43.9804 37.985 44.169C37.4043 44.7695 37.1263 45.1319 37.1561 45.2559C37.0023 45.3552 36.9377 45.4544 36.9625 45.5636C36.9179 45.5736 36.8881 45.5587 36.8781 45.514C36.6301 45.916 36.2627 46.174 35.7714 46.2882L35.2552 46.4074C35.1858 46.4222 35.151 46.4718 35.156 46.5562L35.1708 46.6208L35.3644 46.576L35.3794 46.6306L34.9426 46.7994L34.1683 46.9781L33.7613 47.0029C33.7017 47.0625 34.0839 46.998 33.9351 47.0327L33.4289 47.1518C33.1211 47.2213 32.9524 47.1965 32.9226 47.0724L32.8631 47.0873C32.873 47.1419 32.8779 47.1816 32.868 47.2163L32.8383 47.0922L32.4312 47.1865C32.4015 46.998 31.8506 46.313 30.7835 45.1319C30.7637 44.9035 31.1408 44.5709 31.9102 44.1393L34.0839 42.2284C34.5704 41.6031 34.8582 40.6005 34.9526 39.2208L34.9228 38.8982C34.8384 37.9255 34.1336 37.1413 32.8085 36.5358C32.0242 36.0048 30.6147 35.7218 28.58 35.6772C26.8925 35.8212 24.6888 36.4216 21.979 37.4689C21.2346 38.0097 20.3859 38.5458 19.433 39.0768L19.4479 39.2456C19.5124 39.2406 19.5967 39.206 19.7009 39.1464C19.8101 39.1364 19.8697 39.186 19.8797 39.2854L20.0483 39.191L20.1327 39.186L20.1377 39.2654C20.1427 39.3448 19.5521 39.8064 18.356 40.6501L18.4502 40.7991L18.366 40.8041L18.1822 40.7395C18.1872 40.7891 18.1028 40.8239 17.9292 40.8387L17.939 40.9281L18.1376 41.1465C18.0732 41.1515 17.9838 41.1315 17.8696 41.0919C17.4825 41.1267 17.1053 41.4045 16.7331 41.9307L16.8273 42.0795C17.1499 41.7817 17.3385 41.6329 17.3931 41.6279L17.413 41.8711C17.3584 41.8761 17.274 41.9108 17.1599 41.9703L17.3634 42.2781C17.7477 41.8627 18.1829 41.4975 18.6588 41.1911C18.892 41.2507 19.0161 41.3251 19.021 41.4045L19.1997 41.3897C20.4801 40.4417 21.7458 39.7568 23.0015 39.335L23.0163 39.5036C22.7831 39.8511 22.6242 40.0298 22.5399 40.0397C22.5498 40.1588 22.5895 40.263 22.6639 40.3524C22.6838 40.5658 22.113 42.0051 20.9566 44.6653C18.3312 50.8493 16.1275 55.4252 14.3359 58.3833C14.3408 58.4427 14.3756 58.5222 14.4402 58.6215C14.8818 58.5173 15.1598 58.4081 15.2788 58.3038L15.3732 58.2939L15.388 58.4627L15.5518 58.4477L15.7206 58.3535C15.7256 58.4031 15.7802 58.4279 15.8943 58.4179L15.9092 58.5867C15.9241 58.7505 15.8298 58.9986 15.6312 59.3412C15.4526 59.5446 15.259 59.9714 15.0556 60.6216L15.0604 60.701L15.2242 60.6861C15.939 59.887 16.4799 59.1028 16.8521 58.3385C18.9366 57.7281 20.5249 57.1276 21.6266 56.537C22.7334 56.4426 23.5771 56.1498 24.1529 55.6684L24.1429 55.5791L23.7261 55.7032L23.6317 55.7131L23.6217 55.6238C24.4358 55.4997 24.9966 55.321 25.3092 55.0729C26.8925 53.8519 28.0886 52.9884 28.8976 52.4772C30.5601 51.2563 31.6422 50.0651 32.1334 48.9087C32.2264 48.8885 32.3191 48.867 32.4114 48.8442C32.6447 48.8343 32.7737 48.8293 32.8085 48.8194C32.7985 48.7747 32.8184 48.7499 32.8631 48.74C33.2353 48.7003 33.0567 48.7648 33.2949 48.7102L33.9201 48.5663C33.8805 48.5762 33.8655 48.5961 33.8755 48.6357L33.9698 48.5762C33.9499 48.5762 33.9351 48.5713 33.9201 48.5663L34.0244 48.5415L33.9747 48.5713C34.0443 48.5811 34.1187 48.5762 34.2031 48.5563L34.2477 48.74L31.404 53.2614L30.7736 54.0505L30.4659 55.0827L30.5255 55.0679L30.8331 54.9389L30.7339 55.3409L30.7637 55.46L30.848 55.5642C30.8083 55.5741 30.7935 55.599 30.8034 55.6436L30.8183 55.7082L30.9473 55.6784C31.1359 55.5146 31.2153 55.3657 31.1856 55.2317C31.389 55.2664 31.523 55.2813 31.5926 55.2615L31.6074 55.326C31.4834 55.3557 31.4188 55.455 31.4088 55.6238L31.4238 55.6883L31.4932 55.6734C32.5256 54.5467 35.0568 50.6905 37.0867 48.0749C37.0221 47.7921 38.0792 47.3999 40.2629 46.8937L40.3325 46.8788C40.4119 47.2213 40.2431 48.0501 39.8263 49.3654C39.5583 50.1594 39.4292 50.5962 39.4491 50.6657C39.1016 51.7227 38.9378 52.2936 38.9577 52.3829L38.1834 54.9189C37.6822 56.2194 37.3001 57.5842 37.0321 59.0235C37.0767 59.0136 37.1461 59.0185 37.2455 59.0433L37.3546 58.949C37.3645 58.9937 37.3943 59.0086 37.439 58.9986L37.3943 58.815L37.7318 58.8051C37.831 58.7803 37.9154 58.6562 37.985 58.4279C37.97 58.0855 38.0396 57.9019 38.1934 57.8621C38.4018 57.0482 38.5308 56.6412 38.5756 56.6262C38.769 55.8174 38.913 55.3557 39.0073 55.2416C39.3002 54.1895 39.5135 53.6484 39.6525 53.6137L39.6823 53.7428L39.4689 54.2937C39.0966 55.9464 38.7194 57.2517 38.3374 58.2095L38.4466 58.686L38.516 58.6711C39.4391 56.6858 40.7692 52.7552 42.5013 46.8788C42.551 46.3626 42.7991 45.9606 43.2409 45.6778L43.1415 45.5736L43.1267 45.519C43.3253 45.4743 43.4641 45.3949 43.5435 45.2857C43.5337 45.241 43.3599 45.1765 43.0225 45.0871L43.8861 41.3847C44.0746 41.2159 44.1838 41.1267 44.2185 41.1267L44.2335 41.3153C44.1888 41.3201 44.1193 41.3449 44.0399 41.3995L44.2037 41.6329C44.5014 41.3103 44.824 41.0323 45.1764 40.7991C45.355 40.8487 45.4444 40.9083 45.4544 40.9679L45.5834 40.9579C46.5661 40.2382 47.5289 39.722 48.4768 39.4094L48.4868 39.5334C48.3132 39.7965 48.194 39.9305 48.1294 39.9354C48.1394 40.0248 48.1642 40.1042 48.2088 40.1737C48.2238 40.3375 47.7969 41.4293 46.9235 43.4543C44.9282 48.1443 43.2557 51.6135 41.8958 53.8668C41.9008 53.9115 41.9306 53.9711 41.9852 54.0505C42.3177 53.9711 42.5311 53.8867 42.6155 53.8073L42.675 53.8023L42.685 53.9264L42.8239 53.9165L42.948 53.8519C42.9529 53.8867 42.9977 53.9016 43.0821 53.8966L43.0919 54.0306C43.1019 54.1497 43.0324 54.3383 42.8785 54.5963C42.7346 54.7503 42.5857 55.0729 42.4269 55.5642L42.4318 55.6287L42.5609 55.6188C43.1019 55.0133 43.5137 54.4177 43.7967 53.8321C45.3798 53.3656 46.5859 52.914 47.4197 52.4672C48.2684 52.3928 48.9086 52.1744 49.3454 51.8071L49.3404 51.7427L49.0178 51.8369L48.9484 51.8419L48.9434 51.7773C49.5588 51.6881 49.9907 51.5491 50.2239 51.3655C51.425 50.4423 52.3332 49.7822 52.9486 49.3952C54.8644 48.0005 55.7577 46.6604 55.6485 45.375V45.375ZM55.321 45.4594L55.3656 45.9606C55.306 46.0848 55.2416 46.1492 55.182 46.1542L55.1076 45.3006C55.2464 45.3502 55.316 45.3998 55.321 45.4594V45.4594ZM17.7406 41.4195L17.6562 41.4243L17.6413 41.2705L17.9838 41.2407L17.9888 41.3201C17.9342 41.3251 17.8498 41.3549 17.7406 41.4195V41.4195ZM16.068 58.1499C15.8695 58.0607 15.6908 58.0259 15.537 58.0407L15.5171 57.7975C15.5072 57.7033 15.5618 57.6387 15.6809 57.6139C15.7901 57.6041 15.8546 57.6835 15.8645 57.8423C16.1524 57.4899 16.3113 57.3112 16.341 57.3063L16.5247 57.3807C16.4651 57.8771 16.3113 58.1301 16.068 58.1499V58.1499ZM33.9401 39.454C33.8557 39.464 33.6869 39.201 33.4437 38.6798L33.4289 38.526C33.5877 38.5111 33.7515 38.7692 33.9251 39.3002L33.9401 39.454V39.454ZM33.7017 37.6029L33.6323 37.7667L31.2054 36.7542C32.8233 36.8088 33.6571 37.0917 33.7017 37.6029ZM23.4531 46.4024L23.1107 46.4322L23.0957 46.2782L23.4381 46.2486L23.4531 46.4024ZM23.1751 41.1167L23.2595 41.1117L23.2793 41.3549C23.1999 41.3599 23.0957 41.4789 22.9667 41.7073L22.9517 41.5385C23.1057 41.3549 23.1851 41.2159 23.1751 41.1167V41.1167ZM22.4555 42.814L22.4853 43.1366L22.4009 43.1416L22.3711 42.819L22.4555 42.814V42.814ZM22.0782 43.4196L22.242 43.4046C22.2272 43.6727 22.1528 43.8166 22.0188 43.8265L21.9344 43.8315C22.0386 43.6528 22.0882 43.5138 22.0782 43.4196V43.4196ZM21.7954 44.2633L21.8896 44.2533L21.8946 44.3327L21.7408 44.5909L21.577 44.6057L21.572 44.5263C21.7358 44.5115 21.8102 44.4271 21.7954 44.2633V44.2633ZM21.5174 45.0227L21.4678 45.4296L21.3834 45.4346L21.3488 45.0325L21.5174 45.0227V45.0227ZM18.7332 52.9388C18.624 53.4946 18.5048 53.7775 18.3808 53.7874L18.3758 53.708C18.346 53.435 18.4652 53.177 18.7332 52.9388V52.9388ZM18.222 54.0455L18.227 54.1249C18.2368 54.2341 18.1872 54.2987 18.078 54.3035L18.0732 54.2241C18.0632 54.1299 18.1128 54.0703 18.222 54.0455ZM18.0732 56.3434L18.3312 56.3186L18.341 56.408C18.2766 56.4128 18.1922 56.4476 18.088 56.5072L17.9242 56.522C17.9142 56.4378 17.9688 56.3732 18.073 56.3434H18.0732V56.3434ZM25.4184 54.0753C23.9692 54.7899 23.1155 55.2763 22.8625 55.5294C21.2942 56.0754 20.5149 56.4128 20.5298 56.5468C19.1352 57.0978 18.217 57.5048 17.7753 57.7579C17.6711 57.7679 17.5222 57.7281 17.3237 57.6387C17.2989 57.3559 17.4279 57.1276 17.7008 56.944C17.944 56.9241 18.1772 56.9588 18.4006 57.0531C18.6588 56.9191 19.1104 56.7702 19.7507 56.6114L19.7357 56.4426L19.2196 56.4874C19.2841 56.398 19.7803 56.1648 20.7134 55.7876L20.9715 55.7628L20.9765 55.8422C20.5347 55.8818 20.2915 56.0109 20.2369 56.2442C20.2469 56.3484 20.3065 56.393 20.4157 56.3832C20.7482 56.1746 20.912 56.0506 20.907 56.0158C21.5374 55.8968 23.2793 54.9835 26.1331 53.2812L26.148 53.435C26.153 53.5095 25.9098 53.7179 25.4184 54.0753V54.0753ZM21.041 55.5146C21.458 55.4798 21.8152 55.3111 22.113 55.0183C22.2321 55.0083 22.2966 55.053 22.3016 55.1572C22.0981 55.1771 21.706 55.3458 21.1353 55.6734L21.051 55.6784L21.041 55.5146ZM28.1034 50.0899L25.9147 51.8221C24.2868 52.8892 23.4133 53.4251 23.2893 53.435C20.6985 54.8595 19.0856 55.599 18.4602 55.6536L18.366 55.6634C18.4454 55.3707 19.5967 53.0132 21.8302 48.5762C22.8129 48.4918 24.3613 48.0353 26.4707 47.2014L26.9867 47.1567C28.0538 47.0625 28.8528 47.2709 29.379 47.7673L29.4087 48.0897C29.0117 49.2314 28.575 49.8964 28.1034 50.0899V50.0899ZM23.8253 47.6829L24.1777 47.6531L24.1826 47.7325L23.8303 47.7623L23.8253 47.6829V47.6829ZM28.7734 46.8441L29.0316 46.8192C29.2698 46.9334 29.3939 47.0327 29.4038 47.122L29.4087 47.2014C29.1804 47.2213 28.967 47.1022 28.7734 46.8441V46.8441ZM29.4733 42.8588C29.245 43.1316 28.6196 43.5982 27.5972 44.2533C27.2597 44.2831 26.0041 44.7695 23.8303 45.7224C23.7216 45.6727 23.6019 45.6522 23.4829 45.6629L23.4679 45.509C23.4431 45.1963 23.5821 44.8043 23.8898 44.3279C24.0585 43.4344 24.2422 42.9232 24.4457 42.7992L26.2572 38.7245C26.2373 38.4714 26.6245 38.2778 27.4185 38.1438L27.6766 38.1189L27.6965 38.3523C28.4756 38.2331 28.962 38.1637 29.1507 38.1487C30.5899 38.0247 31.3394 38.3175 31.399 39.0174L31.5628 39.0024L31.528 38.5905L31.7066 38.5756C32.1285 38.8089 32.3568 39.0918 32.3866 39.4242C32.4064 39.6526 32.2824 39.9354 32.0193 40.273C31.9102 40.2829 31.8456 40.2035 31.8356 40.0446L31.657 40.0596L31.6174 40.5559C30.8877 41.6477 30.3567 42.2086 30.0291 42.2384C29.7313 42.6504 29.5477 42.8538 29.4733 42.8588ZM30.585 45.7125C30.4361 45.6132 30.3169 45.5686 30.2277 45.5736L30.2077 45.3303L30.3715 45.3155L30.7339 45.5289C30.7488 45.643 30.6991 45.7026 30.585 45.7125V45.7125ZM31.7364 47.0773C31.8952 47.1419 31.9896 47.2113 32.0094 47.2759L31.93 47.2957L31.935 47.3007C31.92 47.3007 31.9002 47.3057 31.8852 47.3106L31.7662 47.4049L31.7364 47.0773V47.0773ZM31.8456 47.7623L31.8308 47.6977L32.0392 47.6481L32.054 47.7127L31.8456 47.7623ZM32.3469 48.3231C32.5603 48.2883 32.6645 48.2735 33.0615 48.1841L33.0765 48.2487L32.322 48.4223C32.332 48.3876 32.3419 48.3529 32.3469 48.3231ZM33.0815 48.6357C32.7638 48.6655 32.8333 48.6258 32.327 48.74L32.3121 48.6755L32.9425 48.4719L33.2453 48.4025L33.2749 48.5216C33.1409 48.5514 33.2403 48.5514 33.0815 48.6357ZM33.7515 48.4769C33.6769 48.4968 33.6175 48.4621 33.5827 48.3777L33.7763 48.333C33.8606 48.3131 33.9152 48.3479 33.9351 48.4323L33.7515 48.4769V48.4769ZM35.5679 46.5214L35.553 46.457L35.8657 46.3826L35.8955 46.5016L35.5679 46.5214ZM37.5085 58.4229C37.5283 58.3335 37.5333 58.2691 37.5234 58.2243L37.5929 58.2095C37.6772 58.1897 37.7268 58.2195 37.7467 58.2989L37.7616 58.3633L37.5085 58.4229V58.4229ZM38.8684 47.0327L38.7294 47.0079C38.506 47.0972 38.3174 47.1617 38.1636 47.1965L38.0346 47.2263C37.9602 47.2461 37.9006 47.2163 37.8708 47.1369L38.779 46.9284L39.0768 46.7895L39.1761 46.9036C39.0321 46.9334 38.9279 46.9781 38.8684 47.0327V47.0327ZM39.5681 46.8093L39.5533 46.7448C39.5979 46.7349 39.6575 46.7002 39.7221 46.6356L40.3671 46.4868L40.3821 46.5512C40.0397 46.6356 39.7667 46.72 39.5681 46.8093ZM39.6675 45.504C39.6227 45.514 39.5632 45.5537 39.4887 45.6132C39.4788 45.5686 39.3895 45.5686 39.2207 45.6083C39.191 45.4842 39.6675 45.3105 40.6551 45.0822L40.794 45.0524L40.8238 45.1715C40.1289 45.375 39.7419 45.4892 39.6675 45.504V45.504ZM41.4045 43.628C41.335 44.4171 41.0571 44.8639 40.5657 44.9779L40.5509 44.9135L40.1141 45.0822L39.9205 45.1269C39.8213 45.1517 39.7319 45.1467 39.6525 45.1219L39.6129 44.9481C39.5979 44.8837 40.2283 44.0101 41.5088 42.3326L41.6576 42.3575C41.7122 42.5858 41.6278 43.0076 41.4045 43.628ZM44.4766 40.9975L44.4171 41.0025L44.4072 40.8785L44.6652 40.8537L44.6702 40.9181C44.6256 40.9281 44.561 40.9529 44.4766 40.9975V40.9975ZM43.2111 53.708C43.0621 53.6385 42.9281 53.6088 42.814 53.6187L42.7991 53.43C42.7941 53.3656 42.8339 53.3208 42.9183 53.296C43.0026 53.2862 43.0523 53.3457 43.0621 53.4748C43.2755 53.2018 43.3947 53.0628 43.4195 53.0628L43.5535 53.1174C43.5039 53.4946 43.3897 53.6931 43.2111 53.708V53.708ZM56.7801 39.5136C56.7155 39.5186 56.5915 39.32 56.3979 38.918L56.388 38.794C56.5121 38.784 56.6411 38.9776 56.7701 39.3746L56.7801 39.5136V39.5136ZM56.6015 38.0941L56.5419 38.2232L54.7056 37.4539C55.9314 37.4937 56.5667 37.7071 56.6015 38.0941ZM48.8144 44.7795L48.5562 44.8043L48.5464 44.6801L48.8044 44.6603L48.8144 44.7795V44.7795ZM48.601 40.7643L48.6704 40.7593L48.6852 40.9479C48.6208 40.9529 48.5414 41.0423 48.447 41.2159L48.4372 41.0919C48.5514 40.9479 48.6058 40.8387 48.601 40.7643ZM48.06 42.0547L48.0798 42.2979L48.0104 42.3029L47.9904 42.0597L48.06 42.0547ZM47.7672 42.5163L47.8962 42.5064C47.8813 42.7148 47.8267 42.824 47.7324 42.834L47.6629 42.8388C47.7374 42.7 47.7721 42.5908 47.7672 42.5163ZM47.5587 43.1516L47.6183 43.1466L47.6232 43.2111L47.5091 43.4096L47.38 43.4196L47.3751 43.355C47.5091 43.3451 47.5686 43.2756 47.5587 43.1516ZM47.3503 43.7273L47.3055 44.0449L47.246 44.0499L47.2212 43.7372L47.3503 43.7273ZM45.231 49.7474C45.1466 50.1644 45.0574 50.3778 44.963 50.3877L44.958 50.3331C44.9432 50.1246 45.0324 49.9262 45.231 49.7474ZM44.839 50.5863L44.8438 50.6409C44.8538 50.7301 44.8142 50.7798 44.7248 50.7847L44.7198 50.7203C44.7148 50.6557 44.7546 50.6111 44.839 50.5863V50.5863ZM44.7298 52.3332L44.9282 52.3184L44.9332 52.3828C44.8886 52.3878 44.819 52.4126 44.7396 52.4574L44.6106 52.4672C44.6056 52.3978 44.6454 52.3531 44.7298 52.3332V52.3332ZM50.3033 50.6111C49.2114 51.1521 48.5612 51.5193 48.3578 51.7079C47.1666 52.1248 46.5761 52.3829 46.5859 52.4871C45.5288 52.909 44.834 53.2116 44.5064 53.4052C44.427 53.4102 44.3128 53.3804 44.1639 53.311C44.1441 53.0976 44.2434 52.9238 44.4518 52.7948C44.6404 52.78 44.819 52.8048 44.9828 52.8742C45.1814 52.775 45.5238 52.6658 46.0102 52.5417L46.0003 52.4176L45.5933 52.4474C45.643 52.3779 46.0251 52.1992 46.7349 51.9114L46.9333 51.8965L46.9383 51.9511C46.6009 51.9809 46.4123 52.0801 46.3725 52.2588C46.3775 52.3382 46.4271 52.3779 46.5115 52.368C46.7597 52.2042 46.8787 52.1099 46.8787 52.0801C47.3552 51.9957 48.6754 51.3009 50.8443 50.0006L50.8542 50.1246C50.8591 50.1792 50.6755 50.3381 50.3033 50.6111V50.6111ZM46.9781 51.7029C47.3006 51.6731 47.5736 51.5491 47.8019 51.3307C47.8862 51.3207 47.9359 51.3605 47.9408 51.4399C47.792 51.4547 47.4991 51.5789 47.0574 51.8171L46.9879 51.8221L46.9781 51.7029V51.7029ZM52.348 47.5787L50.6953 48.9087C49.4595 49.7176 48.7896 50.1246 48.6852 50.1346C46.7199 51.2165 45.499 51.7773 45.0176 51.8171L44.9482 51.8221C45.0076 51.5987 45.8862 49.807 47.5835 46.442C48.323 46.3776 49.4943 46.0252 51.1023 45.3899L51.5044 45.3552C52.3133 45.2857 52.9188 45.4445 53.3159 45.8266L53.3357 46.0698C53.0329 46.9235 52.7054 47.4247 52.348 47.5787V47.5787ZM49.1022 45.7522L49.3603 45.7274L49.3653 45.792L49.1072 45.8168L49.1022 45.7522ZM52.8593 45.1119L53.0578 45.0971C53.2415 45.1864 53.3357 45.2659 53.3407 45.3303L53.3457 45.3849C53.1719 45.3998 53.0081 45.3105 52.8593 45.1119V45.1119ZM53.3803 42.0895C53.2067 42.2979 52.7352 42.6552 51.966 43.1516C51.7078 43.1764 50.7549 43.5436 49.1072 44.2583C49.0278 44.2285 48.9384 44.2187 48.8441 44.2236L48.8342 44.0995C48.8144 43.8613 48.9186 43.5635 49.1469 43.2012C49.2759 42.5163 49.4199 42.1341 49.5687 42.0448L50.9534 38.9478C50.9385 38.7642 51.2314 38.6153 51.827 38.5011L52.0254 38.4863L52.0404 38.6749C52.626 38.5806 52.9933 38.526 53.1421 38.5111C54.234 38.4168 54.8048 38.6352 54.8494 39.1712L54.9784 39.1612L54.9536 38.8634L55.0828 38.8536C55.4004 39.0272 55.569 39.2358 55.589 39.4838C55.6038 39.6626 55.5144 39.8808 55.3258 40.134C55.2416 40.1439 55.192 40.0844 55.182 39.9554L55.053 39.9652L55.0132 40.3375C54.4623 41.1763 54.0603 41.6081 53.8071 41.6279C53.5839 41.9307 53.4449 42.0845 53.3803 42.0895V42.0895ZM53.9611 44.1541L53.9461 43.9655L54.0752 43.9556L54.3531 44.1243C54.3581 44.2037 54.3184 44.2485 54.234 44.2583C54.1149 44.1839 54.0255 44.1491 53.9611 44.1541ZM30.858 56.2094L30.7289 56.2392L30.6197 56.3334C30.6396 56.4128 30.6892 56.4426 30.7736 56.4228C30.858 56.403 30.8927 56.3534 30.8729 56.274L30.858 56.2094V56.2094ZM30.3667 55.2317L30.3815 55.2962C30.4659 55.2763 30.5006 55.2267 30.4807 55.1473L30.4659 55.0827C30.3865 55.1027 30.3517 55.1523 30.3667 55.2317V55.2317ZM33.8606 46.9185L34.0095 46.8838L33.9797 46.7548L33.8309 46.7895L33.8606 46.9185ZM78.8956 50.7004C77.3867 51.0379 77.1981 50.9783 76.8805 51.0031L76.8905 51.1273L77.0295 51.1173L77.1039 51.1123L77.0841 51.0975L77.2477 51.0329C78.7416 50.8691 78.9154 50.9287 78.9004 50.7599L78.8956 50.7004V50.7004ZM70.7709 51.7773L70.7809 51.9015H70.8007L70.7909 51.7773H70.7709V51.7773ZM69.8379 48.5067L69.7039 48.4621C69.5947 48.7549 69.5401 48.9286 69.5451 48.9782L69.5501 49.0328C69.6543 49.0278 69.7486 48.8492 69.8379 48.5067ZM79.2032 50.6756L79.2132 50.7997L79.4315 50.8393L79.4216 50.7153L79.2032 50.6756V50.6756ZM68.9346 51.9312L68.5972 51.8915L68.5376 52.0206L68.5426 52.0851L70.5525 51.9163L70.5427 51.7923L68.9346 51.9312ZM68.0214 47.529L68.0165 47.4645L67.947 47.4695L67.8229 47.5489L67.8924 47.6679C67.9867 47.6581 68.0314 47.6133 68.0214 47.529V47.529ZM80.1561 49.7624L80.2505 49.7524C80.3051 49.7474 80.3299 49.7028 80.3249 49.6234L80.2703 49.5042C79.9279 49.534 79.7691 49.549 79.4911 49.7028L79.4861 49.6384L79.0742 49.678C79.0642 49.554 79.0296 49.4894 78.975 49.4944L78.7616 49.5142C78.5134 49.534 78.3942 49.5242 78.2702 49.6184C78.2652 49.5738 78.2504 49.554 78.2256 49.554L77.9873 49.5738L77.8483 49.6532C77.8434 49.6086 77.8285 49.5886 77.8036 49.5886L77.7193 49.6632L77.7143 49.5986L77.3817 49.5738L77.3023 49.5788L77.3123 49.7028L77.4811 49.7474L77.6399 49.7376C77.6945 49.7724 77.754 49.7822 77.8235 49.7772L77.9625 49.7078L77.9674 49.7624C77.1883 49.956 77.1931 49.9212 76.6571 50.0106C76.5977 49.9708 76.5529 49.951 76.5231 49.956L76.5133 49.9658C76.4537 49.9608 76.4189 49.9212 76.414 49.8566L76.6919 49.822C76.7117 49.822 76.7267 49.8418 76.8805 49.8716C77.1039 49.7624 77.1137 49.7176 77.2329 49.7078L77.2229 49.5836C76.4587 49.7326 76.7663 49.6334 75.8085 49.7176L75.7638 49.7226L75.7539 49.5986C76.9847 49.4498 76.5729 49.534 76.9947 49.415C76.9997 49.4596 77.0145 49.4794 77.0393 49.4794C77.0845 49.4332 77.144 49.4035 77.2081 49.3952L77.2925 49.3902C77.7242 49.3554 77.8682 49.4398 78.7218 49.2016L78.7268 49.2562L78.8658 49.1866L78.9948 49.1768C78.9848 49.0526 79.1734 49.0328 79.238 49.0278L79.228 48.8938C77.7292 49.1966 77.3371 49.1122 76.9203 49.2314L76.9153 49.1768C76.5232 49.2462 76.5083 49.2164 76.4091 49.2214C76.3793 49.2264 76.3346 49.2512 76.2849 49.3008C76.28 49.2562 76.2651 49.2362 76.2353 49.2362C76.2204 49.2362 76.2155 49.2412 76.2105 49.2412L74.94 49.4496C74.935 49.415 74.9202 49.3952 74.8904 49.4C74.2303 49.539 74.4089 49.5638 73.5255 49.6432C73.4857 49.6482 73.4313 49.668 73.3617 49.7128C73.3567 49.678 73.3369 49.6582 73.2923 49.663L72.7512 49.7078L72.389 49.797C72.384 49.7624 72.3642 49.7426 72.3194 49.7474C72.116 49.802 71.9374 49.8368 71.7934 49.8468H71.7834C71.6942 49.8566 71.8282 49.822 71.7586 49.7922L71.6494 49.8566C71.4906 49.8716 71.575 49.8468 71.0291 49.8516C70.0713 49.9708 70.1755 49.9857 70.0713 49.9906L69.7139 49.9658C69.7188 50.0006 69.699 50.0254 69.6593 50.0254C69.2523 49.9708 69.0438 49.9062 69.0388 49.8318C69.0934 49.4448 69.1878 49.2462 69.3218 49.2362L69.3912 49.2314L69.3317 49.3604L69.4012 49.3554C69.5302 49.286 69.5898 49.2214 69.5848 49.1618L69.5749 49.0278L69.4458 49.0378L69.4359 48.9137C69.426 48.8194 69.4409 48.735 69.4756 48.6655L69.7685 48.1941L69.7784 48.3181L69.9173 48.3081L69.9075 48.1841L69.828 48.0699C69.9323 47.9807 70.0117 47.9309 70.0761 47.9261L70.0713 47.8615L69.8826 47.8765L69.8677 47.6879C70.2449 46.9036 70.4235 46.447 70.4137 46.318L70.5477 46.3726C70.6321 46.3676 70.6717 46.318 70.6667 46.2286L70.5377 46.2386L70.5327 46.184C70.5237 46.0934 70.5409 46.0021 70.5823 45.921C70.7859 45.7076 70.8801 45.4941 70.8603 45.2708C70.9001 45.2658 70.9199 45.2857 70.9249 45.3303C71.0985 45.2311 71.2326 44.9681 71.3318 44.5313C71.6396 43.9755 72.0762 42.8638 72.647 41.2011C73.7389 38.2629 73.6943 37.9503 73.8481 37.2555L73.7191 37.2653C73.7289 37.3547 73.7091 37.4391 73.6695 37.5185C73.5801 37.4837 73.5107 37.4639 73.461 37.4689L73.4561 37.4143C73.4361 37.1611 73.5405 36.8584 73.7787 36.501L73.8381 36.496L73.9473 36.9229L74.0763 36.913C74.0715 36.8832 74.1061 36.7144 74.1757 36.4018C74.1707 36.3372 74.1211 36.2976 74.0217 36.2926L73.8977 36.372C73.8879 36.2826 73.8927 36.0494 73.9077 35.6772L73.8431 35.6822C73.7339 35.573 73.6793 35.4836 73.6743 35.4092L72.9647 35.4786C72.9597 35.429 72.9349 35.3546 72.8853 35.2603C72.8803 35.1957 73.0391 35.1312 73.3667 35.0667L73.5107 35.1213L73.6447 35.0419C73.6495 35.0865 73.6743 35.1064 73.7239 35.1015L73.8579 35.0221C73.8629 35.0667 73.8877 35.0865 73.9375 35.0816L74.0019 35.0767L73.992 34.9327C73.8927 34.9427 73.6297 34.9427 73.2129 34.9277L73.0788 35.0171L73.0739 34.9377C69.7437 35.2106 67.8527 35.3645 67.4011 35.4092C67.3415 35.4141 67.1083 35.4092 66.6963 35.3992C66.7013 35.4538 66.6517 35.4836 66.5524 35.4936L66.4085 35.429L65.922 35.5531C65.8079 35.563 65.6144 35.558 65.3464 35.5283C65.272 35.5878 65.1826 35.6226 65.0734 35.6325C65.0138 35.6374 65.7831 35.5928 66.4977 35.5432C66.4233 35.6028 66.3092 35.6374 66.1504 35.6524C66.0412 35.6623 65.9469 35.6474 65.8674 35.6028C65.7582 35.6524 65.406 35.7318 64.8153 35.8508L64.6714 35.7963L62.3486 36.1536C62.2593 36.109 62.155 36.094 62.036 36.104C61.9118 36.114 61.7034 36.1586 61.4156 36.238L60.2939 36.7045L60.3783 36.8435C60.4329 36.8385 60.5123 36.8088 60.6066 36.7542L61.0037 36.7889L60.954 37.1611C60.5867 37.3249 60.3733 37.5681 60.3137 37.8759C59.7629 38.1189 59.4899 38.2927 59.4899 38.3969L59.4949 38.4615L59.5793 38.4565L59.7281 38.3771L59.9019 38.5855L59.9267 38.8734C59.9365 38.9628 59.0085 40.9133 57.1523 44.7249C55.5442 48.3975 54.7006 50.4076 54.6212 50.7699C54.0703 50.9237 53.7525 51.1471 53.6583 51.4449C53.6683 51.5391 53.832 51.6037 54.1496 51.6285L54.1645 51.7724L54.0206 52.0106L54.0454 52.2985C54.0603 52.4474 54.4623 52.5616 55.2514 52.641C55.2464 52.5914 55.2714 52.5616 55.3258 52.5566C55.3408 52.7352 55.2912 53.0826 55.177 53.5988L55.2614 53.5938C55.5889 53.1472 55.7428 52.8394 55.7279 52.6708L55.7974 52.6658C55.8768 52.6608 55.9612 52.7502 56.0604 52.9436C55.9612 52.9834 55.6138 53.7725 55.0182 55.3161L55.1026 55.455L55.187 55.4501C55.9165 53.6038 56.3731 52.5814 56.5617 52.3878C57.5196 52.3034 59.1772 52.1347 61.5298 51.8816L61.6786 51.7923C61.6836 51.8419 61.7134 51.8667 61.768 51.8617L61.9218 51.8469L62.0708 51.7575C62.0756 51.8071 62.1054 51.8319 62.16 51.827L63.9417 51.6731C64.4133 51.6335 64.6366 51.4895 64.6168 51.2463C64.6118 51.1819 64.8898 51.1073 65.4506 51.0279C65.5052 51.0229 65.5846 51.0379 65.6938 51.0727C65.6888 51.0279 65.9717 50.9833 66.5375 50.9337C66.5524 50.6359 66.6467 50.4771 66.8155 50.4622L66.8005 50.3182C66.6417 50.3331 66.4631 50.3728 66.2546 50.4423C65.8824 50.4225 65.6442 50.3927 65.5448 50.3579C65.4456 50.4125 65.3712 50.4423 65.3166 50.4473L64.0758 50.487L63.9269 50.5664C63.9219 50.5217 63.8921 50.5019 63.8375 50.5068L63.7681 50.5118L63.6093 50.5912C63.6043 50.5465 63.4753 50.5118 63.2171 50.4771L63.0584 50.5713L62.7507 50.5961L62.7457 50.5167C64.3438 50.343 65.133 50.1246 65.113 49.8666C65.2174 49.8566 65.272 49.9062 65.2818 50.0106L65.7484 49.8914L65.7334 49.7474L61.907 49.8516C61.9118 49.9014 61.887 49.9311 61.8326 49.936L61.366 49.8964C61.2468 49.9062 61.1476 49.941 61.0682 50.0006L60.8945 49.936C60.4131 49.9758 60.0557 50.0354 59.8175 50.1098C59.4899 50.085 59.1276 50.0899 58.7256 50.1246L57.867 50.1991L57.4699 50.1544C57.4501 49.9014 57.9414 48.6556 58.9539 46.4222C59.2468 45.6678 59.5147 45.1963 59.7729 45.0177C59.8275 45.0127 59.9069 45.0325 60.0161 45.0772L60.6265 44.8687L60.9391 44.9184C61.4652 44.8737 62.0756 44.7249 62.7755 44.4667C62.9492 44.4519 63.0783 44.4619 63.1725 44.5015L63.6391 44.3923L65.0288 44.2733C65.6193 44.2236 66.2595 44.0945 66.9543 43.8811L66.9395 43.7372C66.6815 43.762 66.5475 43.7174 66.5375 43.6131C66.5226 43.4196 66.334 43.3402 65.9717 43.3699L65.9568 43.226L66.339 43.1168L67.3415 43.0324L67.3266 42.8886C67.2869 42.8934 67.0835 42.8886 66.7063 42.8736L66.6913 42.7198L67.0785 42.685C67.1827 42.6752 67.2273 42.6254 67.2175 42.5262C66.6963 42.5412 66.4333 42.5163 66.4283 42.4468C62.7953 42.6254 60.9739 42.6602 60.9639 42.546C60.9093 42.551 60.8349 42.5858 60.7357 42.6454L60.6413 42.4964C61.6042 40.4517 62.17 39.4194 62.3338 39.4044C62.3387 39.4838 62.299 39.6128 62.2096 39.7866L62.2146 39.8511L62.3685 39.8362C62.7507 38.923 63.0733 38.4515 63.3413 38.4317C64.4828 38.3324 63.1825 38.2579 65.6242 37.8759C65.7236 37.9205 65.793 37.9403 65.8426 37.9353C66.8005 37.7419 68.1356 37.5383 69.8479 37.3299L69.8379 37.1859L68.9247 37.2703L68.9148 37.1264C69.024 37.1165 69.1133 37.0817 69.1878 37.0222L69.1927 37.1016C69.2424 37.0966 69.3118 37.0619 69.4012 37.0023C69.56 36.9874 69.6791 37.0023 69.7635 37.047C70.0811 36.9626 70.3391 36.913 70.5277 36.8931L71.0985 36.8385C71.2375 36.7492 71.302 36.6698 71.2971 36.5954L71.2921 36.5308C71.1482 36.5457 70.9844 36.5358 70.7909 36.501C70.7859 36.4216 70.8255 36.367 70.9199 36.3422L71.982 36.243L72.4684 36.1188C72.4733 36.1734 72.4982 36.1934 72.5378 36.1934C72.5874 36.1884 72.657 36.1536 72.7463 36.094C72.7711 36.099 72.8009 36.099 72.8257 36.104C72.7612 36.238 72.6867 36.4316 72.6123 36.6846L72.4733 36.6946C72.4634 36.6003 72.4386 36.516 72.3939 36.4414L72.3244 36.4464C71.034 40.0397 70.4583 41.7123 69.2672 44.4717C69.0488 45.1765 68.8652 45.5686 68.7064 45.653C68.7114 45.7324 68.761 45.772 68.8454 45.7622C68.875 46.1096 68.7956 46.452 68.6022 46.7895C68.0512 48.3777 67.6839 49.2462 67.4953 49.405L67.6194 50.1544C67.6244 50.2338 67.5847 50.2785 67.5003 50.2884L67.3713 50.2984C67.3514 50.0899 67.2769 49.9906 67.1429 50.0056L67.0735 50.0106C66.9047 50.2736 66.7757 50.5763 66.6913 50.9287L66.8203 50.9187C66.9941 50.8047 67.0735 50.6706 67.0585 50.5167L67.3167 50.4919L67.4655 50.5465C67.3465 50.7351 67.2919 50.8841 67.3017 50.9981L67.3713 51.1173L67.2025 51.5143L67.2075 51.5789C67.3563 51.5639 67.5201 51.6135 67.6939 51.7178C67.813 51.7079 67.942 51.6533 68.086 51.5589C68.2348 51.5441 68.7906 51.5391 69.7486 51.5391L70.2299 51.3753C70.8157 51.3703 70.9099 51.3853 71.4162 51.3407L71.6246 51.3207L71.7338 51.2463L71.7388 51.3109C72.2698 51.2661 72.3046 51.3009 72.7215 51.3505L72.7264 51.4151L72.4336 51.4399L72.4435 51.5639C72.5328 51.5541 72.6123 51.5292 72.6768 51.4747C72.7512 51.4697 72.7959 51.5093 72.8009 51.5987C72.6818 51.6087 72.5478 51.6384 72.3988 51.6881L72.2698 51.6433C72.0664 51.6979 72.111 51.7129 71.972 51.7227L71.7686 51.6831C71.7736 51.7178 71.7536 51.7426 71.719 51.7426C71.7238 51.8221 71.7686 51.8617 71.843 51.8568L72.0514 51.8369L73.1383 51.7426L73.5503 51.6533C73.5553 51.6881 73.5701 51.7079 73.6049 51.7029L73.8033 51.6285L74.1757 51.5987C74.4635 51.5739 74.4585 51.5541 75.0838 51.4547C75.079 51.4151 75.0938 51.4001 75.1236 51.3953L75.1286 51.4497C76.146 51.2761 76.2105 51.2661 76.3743 51.2115L76.3891 51.2413C76.6423 51.1819 76.4983 51.1967 76.5679 51.1471C76.5729 51.1917 76.5877 51.2115 76.6125 51.2115L76.7911 51.1967L76.7813 51.0627L76.4189 51.0577L76.414 51.0479C76.3991 51.0527 76.3891 51.0527 76.3743 51.0577H76.3247V51.0677C76.0815 51.1173 76.0765 51.0825 75.9177 51.0975L75.0094 51.1471L75.0044 51.0825L75.5107 51.0131L75.6943 50.9981L75.7986 50.9237L75.8035 50.9883C76.5183 50.9287 76.7713 51.1073 80.0767 50.4026C80.2553 50.3877 80.2405 50.2388 80.3547 49.9311C80.2941 49.9352 80.2337 49.9214 80.1809 49.8914C79.908 49.9956 79.7641 49.946 79.238 50.0304C79.1933 50.0354 79.1586 49.9956 79.1436 49.9162L79.1387 49.8616L79.6449 49.8765C79.7393 49.8666 79.9229 49.8516 80.1959 49.6978C80.1959 49.7426 80.0965 49.7674 80.1561 49.7624V49.7624ZM55.718 50.1544L55.4847 50.1743C55.4748 50.08 55.5988 49.7226 55.8569 49.1122L56.0108 49.0974C56.0158 49.2412 55.9215 49.5936 55.718 50.1544ZM56.0009 49.0229L55.9959 48.9584C55.9909 48.879 56.0406 48.8244 56.1498 48.7995L56.1547 48.864C56.1597 48.9584 56.1101 49.013 56.0009 49.0229V49.0229ZM59.1028 51.4201L59.1078 51.4845L58.7206 51.5193L58.7156 51.4547L59.1028 51.4201ZM58.6362 51.3803C58.6412 51.4597 58.5222 51.5491 58.264 51.6384L57.7876 51.6037L57.6337 51.6185L57.6189 51.4747L58.6362 51.3803V51.3803ZM61.773 36.9428L61.5396 36.9626L61.5348 36.8832C61.5298 36.8038 61.5744 36.7492 61.6736 36.7244L61.758 36.7194L61.9168 36.7839C61.9218 36.8782 61.8772 36.9328 61.773 36.9428V36.9428ZM65.3216 36.248L65.396 36.243L65.4058 36.3868L65.1924 36.4068C65.1876 36.3274 65.2272 36.2728 65.3216 36.248ZM64.4282 36.5606L64.0758 36.5208L64.0708 36.4564C64.5324 36.4166 64.6862 36.367 64.9692 36.2876C64.9742 36.3422 65.0238 36.362 65.113 36.3522L65.123 36.496L64.984 36.511C64.8748 36.5208 64.7806 36.506 64.7012 36.4614C64.6168 36.516 64.5274 36.5506 64.4282 36.5606V36.5606ZM64.8699 37.8461L64.865 37.7815L65.4356 37.7269L65.4406 37.7915L64.8699 37.8461ZM65.4804 37.3497L65.4754 37.2703L65.7533 37.2455L65.7582 37.3249L65.4804 37.3497ZM65.5448 36.377L65.4704 36.382L65.535 36.228L66.1702 36.1686L66.1752 36.248C66.0114 36.2628 65.798 36.3074 65.5448 36.377V36.377ZM65.8674 37.7467L65.8575 37.6029L66.1355 37.5781C66.2298 37.5681 66.2794 37.6127 66.2844 37.7121L65.8674 37.7467V37.7467ZM67.5499 35.4538L67.1925 35.5531L67.1281 35.558C66.9593 35.573 66.7409 35.568 66.4829 35.5432C66.9445 35.5134 67.3861 35.4786 67.5499 35.4538V35.4538ZM67.1677 37.042L67.1727 37.1065L66.6815 37.1512L66.6765 37.0867L67.1677 37.042ZM67.9718 37.4241C67.9668 37.3647 67.8726 37.3249 67.679 37.3051L67.1877 37.4441L66.8105 37.4589C66.7261 37.3993 66.6815 37.3597 66.6765 37.3299L67.1133 37.3547L68.0959 37.1959L68.5972 37.2157L68.6022 37.2951C68.354 37.3199 68.1456 37.3647 67.9718 37.4241ZM73.0292 36.1188C73.0887 36.1238 73.1285 36.1238 73.1433 36.1238C73.3171 35.9552 73.5107 35.8212 73.7339 35.7268C73.5553 36.511 73.2773 37.0917 72.8952 37.4689L72.6172 37.3001C72.8505 36.7095 72.9895 36.3174 73.0292 36.1188V36.1188ZM72.1756 37.5831L72.245 37.5781C72.1506 37.7567 72.0664 37.8509 71.9968 37.8559L71.982 37.6673C72.0266 37.6673 72.0912 37.6375 72.1756 37.5831ZM71.6246 38.8982C71.7586 38.3622 71.8876 38.0595 72.0068 37.9801L72.0118 38.0445C71.9422 38.5409 71.833 38.8039 71.6892 38.8238L71.714 39.1364C71.5948 39.3052 71.5402 39.4342 71.5452 39.5334L71.4758 39.5384L71.436 39.1066C71.5154 39.0968 71.58 39.0272 71.6246 38.8982V38.8982ZM71.4112 39.6128C71.4162 39.6874 71.3666 39.861 71.2673 40.129L71.1978 40.134L71.1829 39.9454C71.2772 39.727 71.3566 39.6178 71.4112 39.6128ZM67.4061 51.2363L67.4011 51.1819L67.5301 51.1719L67.545 51.3605C67.4755 51.3655 67.4259 51.3257 67.4061 51.2363ZM73.1285 51.3853C73.1235 51.3407 73.1037 51.3207 73.059 51.3257L72.7364 51.3555L72.7314 51.2909H72.7612L73.5255 51.2265L73.5305 51.2909C73.3071 51.3009 73.1731 51.3357 73.1285 51.3853V51.3853ZM72.7463 51.2265C72.7761 51.2413 72.7612 51.2563 72.7463 51.2661C72.7314 51.2613 72.7116 51.2463 72.7463 51.2265ZM72.786 50.3331L72.3592 50.3679L72.3542 50.3033L72.7413 50.2686L73.0788 50.1842C73.0838 50.2239 73.1037 50.2388 73.1483 50.2338C73.5503 50.1644 73.5107 50.1446 73.7041 50.1296C73.7687 50.1246 73.8085 50.1644 73.8133 50.2438L72.786 50.3331V50.3331ZM74.2799 50.2041C74.0417 50.1792 74.0267 50.1594 73.8581 50.1743L73.8531 50.1197L74.2352 50.085L74.2401 50.1396C74.2005 50.1446 74.3444 50.1544 74.2799 50.2041ZM74.3097 50.1346L74.3047 50.08L74.5131 50.0602L74.5181 50.1148L74.3097 50.1346ZM74.7712 50.0949L74.7663 50.0403C74.801 50.0354 74.8506 50.0106 74.9152 49.9608C75.0194 49.951 75.074 50.0204 75.084 50.0998L74.7712 50.0949V50.0949ZM75.3618 50.0204L75.3568 49.956L75.61 49.936L75.615 50.0006L75.3618 50.0204ZM75.7142 49.9906C75.7092 49.9162 75.739 49.8716 75.8036 49.8616L75.8879 49.9708C75.883 49.936 75.8978 49.9162 75.9276 49.9112L75.9922 50.0304L75.7142 49.9906ZM71.9672 51.6087L71.9572 51.4845L71.9174 51.4895L71.9274 51.6135L71.9672 51.6087ZM80.6873 49.3504C80.7269 49.3256 80.7467 49.3008 80.6525 49.286C80.6077 49.3356 80.7021 49.3504 80.6029 49.3554L80.6077 49.4C80.6177 49.3902 80.6425 49.3752 80.6623 49.3604L80.6077 49.405V49.41L80.5035 49.544L80.712 49.4696H80.7369L80.7269 49.3454L80.6873 49.3504ZM81.0495 49.6334L81.0098 49.6384L81.0197 49.7624L81.3126 49.7376C81.3076 49.6582 81.114 49.6334 81.0495 49.6334ZM80.5979 49.415L80.6029 49.41V49.405C80.6029 49.405 80.5979 49.41 80.5979 49.415Z" fill="black"/>
<path d="M61.5444 40.2269L61.5493 40.3063L61.7131 40.2914C61.7082 40.2418 61.728 40.1624 61.7628 40.0631L61.7479 39.9192C61.6784 39.9242 61.6089 40.0284 61.5444 40.2269V40.2269ZM59.976 36.455L59.9612 36.311L59.7279 36.3308L59.7428 36.4748L59.976 36.455V36.455ZM55.425 44.9765C55.415 44.8425 54.9981 44.3215 54.1743 43.4032C54.1593 43.2346 54.4423 42.9814 55.0229 42.6489L56.6806 41.2047C57.0528 40.7331 57.2711 39.9688 57.3357 38.9067L57.3159 38.6635C57.2513 37.9289 56.7203 37.3384 55.7128 36.8868C55.1172 36.4848 54.0451 36.2614 52.4968 36.2216C51.2163 36.3308 49.5436 36.7875 47.4841 37.5965C46.9182 38.0035 46.273 38.4104 45.5484 38.8174L45.5584 38.9415C45.603 38.9365 45.6724 38.9117 45.752 38.8571C45.8362 38.8472 45.886 38.8869 45.8908 38.9663L46.015 38.9018L46.0744 38.8968L46.0794 38.9514C46.0844 39.0159 45.6378 39.3682 44.7345 39.9986L44.8039 40.1276L44.7443 40.1326L44.5955 40.078C44.6005 40.1226 44.5359 40.1524 44.4119 40.1624L44.4169 40.217L44.5607 40.3956C44.5161 40.4006 44.4467 40.3808 44.3523 40.346C44.1439 40.3659 43.9403 40.4751 43.7369 40.6835L43.8213 40.3162C44.1241 39.011 44.3325 37.8545 44.4417 36.852L44.4267 36.7875C44.2183 36.6534 44.0149 36.4648 43.8263 36.2266C43.8312 36.0728 43.8312 35.9834 43.8263 35.9636L43.8113 35.909L43.7518 35.924C43.0966 36.9066 41.836 38.5841 39.965 40.9565C38.5406 42.644 37.8059 43.5819 37.7613 43.7705C37.1807 44.3711 36.9027 44.7333 36.9325 44.8575C36.7787 44.9567 36.7141 45.0559 36.739 45.1651C36.6943 45.1751 36.6645 45.1602 36.6546 45.1155C36.4064 45.5175 36.0392 45.7756 35.5478 45.8898L35.0316 46.0088C34.9622 46.0238 34.9274 46.0734 34.9324 46.1578L34.9473 46.2222L35.1408 46.1776L35.1557 46.2322L34.719 46.401L33.9447 46.5796L33.5378 46.6044C33.4782 46.664 33.8603 46.5994 33.7115 46.6342L33.2052 46.7534C32.8976 46.8228 32.7288 46.798 32.699 46.674L32.6394 46.6888C32.6494 46.7434 32.6544 46.7831 32.6444 46.8178L32.6146 46.6938L32.2076 46.788C32.178 46.5994 31.627 45.9146 30.5599 44.7333C30.5401 44.5051 30.9173 44.1725 31.6865 43.7408L33.8603 41.8299C34.3467 41.2047 34.6346 40.2021 34.7289 38.8224L34.6991 38.4997C34.6147 37.527 33.9101 36.7428 32.5848 36.1374C31.8007 35.6063 30.3912 35.3234 28.3563 35.2787C26.6689 35.4226 24.4653 36.0232 21.7554 37.0704C21.0109 37.6113 20.1623 38.1473 19.2094 38.6784L19.2242 38.8472C19.2888 38.8422 19.3732 38.8075 19.4774 38.7479C19.5866 38.738 19.6462 38.7876 19.656 38.8869L19.8248 38.7926L19.9092 38.7876L19.9141 38.867C19.9191 38.9464 19.3284 39.408 18.1324 40.2517L18.2267 40.4006L18.1423 40.4056L17.9587 40.341C17.9637 40.3907 17.8793 40.4254 17.7055 40.4403L17.7155 40.5297L17.914 40.7481C17.8495 40.753 17.7601 40.7331 17.6461 40.6935C17.2589 40.7281 16.8817 41.0061 16.5095 41.5321L16.6038 41.6811C16.9264 41.3833 17.1149 41.2345 17.1695 41.2295L17.1895 41.4727C17.1349 41.4775 17.0505 41.5123 16.9363 41.5719L17.1398 41.8796C17.5242 41.4642 17.9594 41.099 18.4352 40.7927C18.6684 40.8523 18.7925 40.9267 18.7974 41.0061L18.9762 40.9913C20.2566 40.0432 21.5222 39.3584 22.7778 38.9365L22.7928 39.1052C22.5594 39.4526 22.4006 39.6314 22.3162 39.6412C22.3262 39.7604 22.366 39.8646 22.4404 39.954C22.4602 40.1674 21.8894 41.6067 20.7331 44.2669C18.1076 50.4508 15.904 55.0267 14.1123 57.9847C14.1173 58.0443 14.1521 58.1237 14.2165 58.2229C14.6583 58.1187 14.9362 58.0097 15.0553 57.9053L15.1496 57.8955L15.1645 58.0641L15.3282 58.0493L15.497 57.9551C15.502 58.0047 15.5566 58.0295 15.6708 58.0195L15.6856 58.1883C15.7004 58.3521 15.6062 58.6001 15.4076 58.9426C15.229 59.1461 15.0354 59.573 14.8319 60.2232L14.8369 60.3025L15.0007 60.2876C15.7154 59.4886 16.2564 58.7044 16.6286 57.9401C18.7131 57.3296 20.3013 56.729 21.4031 56.1386C22.5098 56.0442 23.3535 55.7514 23.9293 55.2699L23.9193 55.1807L23.5025 55.3047L23.4081 55.3147L23.3982 55.2253C24.2121 55.1013 24.773 54.9225 25.0857 54.6745C26.6689 53.4534 27.8649 52.59 28.674 52.0787C30.3366 50.8578 31.4185 49.6666 31.9099 48.5103C31.9992 48.4904 32.0886 48.4705 32.1878 48.4457C32.421 48.4359 32.5502 48.4309 32.5848 48.4209C32.575 48.3763 32.5948 48.3515 32.6394 48.3415C33.0116 48.3019 32.833 48.3663 33.0712 48.3117L33.6966 48.1679L33.8009 48.1429L33.7512 48.1727C33.8207 48.1827 33.8951 48.1777 33.9795 48.1579L34.0241 48.3415L31.1803 52.8628L30.5501 53.652L30.2423 54.6843L30.3019 54.6695L30.6095 54.5405L30.5103 54.9425L30.5401 55.0615L30.6245 55.1657C30.5847 55.1757 30.5699 55.2005 30.5797 55.2451L30.5947 55.3097L30.7237 55.2799C30.9123 55.1161 30.9917 54.9673 30.9619 54.8333C31.1654 54.8679 31.2994 54.8829 31.3689 54.8631L31.3838 54.9275C31.2597 54.9573 31.1951 55.0565 31.1853 55.2253L31.2001 55.2898L31.2697 55.2749C32.302 54.1483 34.8331 50.292 36.8631 47.6765C36.7985 47.3936 37.8557 47.0015 40.0394 46.4952L40.1089 46.4804C40.1883 46.8228 40.0196 47.6517 39.6026 48.9669C39.3346 49.761 39.2056 50.1977 39.2254 50.2672C38.878 51.3243 38.7142 51.8951 38.7342 51.9844L37.9599 54.5205C37.4585 55.8209 37.0765 57.1857 36.8085 58.625C36.8531 58.6151 36.9226 58.6201 37.0219 58.6449L37.1311 58.5505C37.1409 58.5953 37.1707 58.6101 37.2155 58.6001L37.1707 58.4165L37.5083 58.4067C37.6075 58.3819 37.6919 58.2577 37.7613 58.0295C37.7465 57.687 37.8159 57.5034 37.9697 57.4637C38.1782 56.6498 38.3073 56.2428 38.3519 56.2278C38.5455 55.4189 38.6894 54.9573 38.7838 54.8431C39.0766 53.791 39.29 53.25 39.429 53.2152L39.4588 53.3442L39.2454 53.8952C38.873 55.5479 38.4959 56.8532 38.1137 57.8111L38.2229 58.2875L38.2924 58.2727C39.2156 56.2874 40.5457 52.3566 42.2778 46.4804C42.3274 45.9642 42.5756 45.5622 43.0172 45.2793L42.918 45.1751L42.903 45.1205C43.1016 45.0758 43.2406 44.9965 43.32 44.8873C43.3101 44.8425 43.1364 44.7781 42.7988 44.6887L43.6625 40.9863C43.8511 40.8175 43.9603 40.7282 43.9949 40.7282L44.0099 40.9167C43.9653 40.9217 43.8957 40.9465 43.8163 41.0011L43.9801 41.2345C44.2779 40.9119 44.6005 40.6339 44.9528 40.4006C45.1315 40.4502 45.2208 40.5098 45.2308 40.5693L45.3598 40.5594C46.3425 39.8398 47.3053 39.3236 48.2533 39.011L48.2632 39.135C48.0895 39.398 47.9703 39.532 47.9059 39.537C47.9157 39.6264 47.9405 39.7058 47.9853 39.7752C48.0001 39.939 47.5733 41.0309 46.6998 43.0558C44.7047 47.7459 43.0321 51.2151 41.6722 53.4684C41.6772 53.513 41.707 53.5726 41.7616 53.652C42.0941 53.5726 42.3076 53.4882 42.392 53.4088L42.4514 53.4038L42.4614 53.5279L42.6004 53.518L42.7244 53.4534C42.7294 53.4882 42.774 53.5031 42.8584 53.4982L42.8684 53.6322C42.8782 53.7513 42.8088 53.9399 42.655 54.1979C42.511 54.3519 42.3622 54.6745 42.2033 55.1657L42.2082 55.2303L42.3374 55.2203C42.8782 54.6149 43.2902 54.0193 43.5731 53.4336C45.1563 52.9672 46.3624 52.5154 47.1961 52.0688C48.0449 51.9943 48.685 51.7759 49.1218 51.4087L49.1168 51.3441L48.7942 51.4385L48.7248 51.4435L48.7198 51.3789C49.3352 51.2895 49.767 51.1507 50.0003 50.967C51.2013 50.0438 52.1096 49.3838 52.725 48.9966C54.6407 47.6021 55.5342 46.262 55.425 44.9765V44.9765ZM55.0974 45.0609L55.142 45.5622C55.0825 45.6863 55.0179 45.7508 54.9584 45.7558L54.8839 44.9021C55.0229 44.9517 55.0924 45.0013 55.0974 45.0609V45.0609ZM17.5169 41.0211L17.4327 41.0259L17.4177 40.8721L17.7601 40.8423L17.7651 40.9217C17.7105 40.9267 17.6261 40.9565 17.5169 41.0211V41.0211ZM15.8444 57.7515C15.646 57.6621 15.4672 57.6275 15.3134 57.6423L15.2936 57.3991C15.2836 57.3048 15.3382 57.2403 15.4574 57.2155C15.5664 57.2056 15.631 57.285 15.641 57.4438C15.9288 57.0914 16.0876 56.9128 16.1174 56.9078L16.301 56.9822C16.2414 57.4785 16.0876 57.7317 15.8444 57.7515V57.7515ZM33.7165 39.0556C33.6321 39.0656 33.4633 38.8025 33.2202 38.2813L33.2052 38.1275C33.3641 38.1127 33.5279 38.3707 33.7015 38.9018L33.7165 39.0556V39.0556ZM33.4782 37.2044L33.4087 37.3682L30.9817 36.3556C32.5998 36.4102 33.4336 36.6932 33.4782 37.2044ZM23.2295 46.004L22.887 46.0338L22.8722 45.8798L23.2146 45.85L23.2295 46.004ZM22.9515 40.7183L23.0359 40.7133L23.0558 40.9565C22.9764 40.9615 22.8722 41.0805 22.743 41.3089L22.7282 41.1401C22.882 40.9565 22.9614 40.8175 22.9515 40.7183V40.7183ZM22.2318 42.4156L22.2616 42.7382L22.1774 42.7432L22.1476 42.4206L22.2318 42.4156ZM21.8547 43.0212L22.0185 43.0062C22.0036 43.2742 21.9292 43.4182 21.7952 43.428L21.7108 43.433C21.815 43.2544 21.8646 43.1154 21.8547 43.0212V43.0212ZM21.5718 43.8648L21.6661 43.8549L21.671 43.9343L21.5172 44.1924L21.3534 44.2073L21.3485 44.1279C21.5123 44.113 21.5867 44.0286 21.5718 43.8648V43.8648ZM21.2939 44.6243L21.2443 45.0311L21.1599 45.0361L21.1251 44.6341L21.2939 44.6243V44.6243ZM18.5096 52.5403C18.4004 53.0962 18.2813 53.379 18.1572 53.389L18.1523 53.3096C18.1225 53.0366 18.2416 52.7786 18.5096 52.5403V52.5403ZM17.9984 53.647L18.0033 53.7264C18.0133 53.8356 17.9637 53.9002 17.8545 53.9051L17.8495 53.8257C17.8395 53.7314 17.8892 53.6718 17.9984 53.647ZM17.8495 55.945L18.1076 55.9202L18.1175 56.0095C18.053 56.0144 17.9686 56.0492 17.8643 56.1088L17.7005 56.1236C17.6907 56.0392 17.7453 55.9748 17.8495 55.945V55.945ZM25.1948 53.6768C23.7457 54.3915 22.892 54.8779 22.6388 55.1309C21.0705 55.6769 20.2913 56.0144 20.3063 56.1484C18.9116 56.6994 17.9934 57.1063 17.5517 57.3594C17.4475 57.3693 17.2987 57.3296 17.1001 57.2403C17.0753 56.9574 17.2043 56.7291 17.4773 56.5454C17.7205 56.5256 17.9537 56.5604 18.1771 56.6546C18.4352 56.5206 18.8868 56.3718 19.527 56.213L19.5122 56.0442L18.996 56.0888C19.0604 55.9996 19.5568 55.7663 20.4899 55.3891L20.7479 55.3643L20.7529 55.4437C20.3112 55.4834 20.068 55.6124 20.0134 55.8457C20.0233 55.9499 20.0829 55.9946 20.1921 55.9846C20.5247 55.7762 20.6883 55.6521 20.6835 55.6174C21.3137 55.4983 23.0558 54.5851 25.9096 52.8828L25.9244 53.0366C25.9294 53.111 25.6862 53.3194 25.1948 53.6768V53.6768ZM20.8175 55.1161C21.2343 55.0813 21.5917 54.9127 21.8894 54.6199C22.0086 54.6099 22.0731 54.6545 22.078 54.7587C21.8746 54.7787 21.4825 54.9473 20.9117 55.2749L20.8273 55.2799L20.8175 55.1161ZM27.8799 49.6914L25.6912 51.4285C24.0633 52.4956 23.1898 53.0316 23.0607 53.0416C20.4701 54.4659 18.857 55.2055 18.2317 55.2601L18.1373 55.2699C18.2168 54.9771 19.3682 52.6197 21.6016 48.1827C22.5842 48.0983 24.1327 47.6417 26.242 46.808L26.7582 46.7632C27.8253 46.669 28.6244 46.8774 29.1504 47.3737L29.1802 47.6963C28.7882 48.8329 28.3514 49.498 27.8799 49.6914V49.6914ZM23.6017 47.2844L23.9541 47.2546L23.9591 47.334L23.6067 47.3638L23.6017 47.2844ZM28.5499 46.4456L28.808 46.4208C29.0462 46.535 29.1702 46.6342 29.1802 46.7236L29.1852 46.803C28.9568 46.8228 28.7434 46.7037 28.5499 46.4456V46.4456ZM29.2496 42.4603C29.0214 42.7332 28.396 43.1998 27.3737 43.8549C27.0361 43.8847 25.7804 44.3711 23.6067 45.324C23.498 45.2743 23.3783 45.2538 23.2592 45.2644L23.2444 45.1105C23.2196 44.7979 23.3585 44.4059 23.6663 43.9294C23.8349 43.036 24.0187 42.5248 24.2221 42.4008L26.0336 38.3261C26.0138 38.0729 26.4008 37.8793 27.1949 37.7453L27.4531 37.7205L27.4729 37.9539C28.2521 37.8347 28.7384 37.7653 28.927 37.7503C30.3664 37.6263 31.1157 37.9191 31.1753 38.6189L31.3391 38.604L31.3043 38.1921L31.4831 38.1771C31.9049 38.4104 32.1332 38.6933 32.163 39.0258C32.1828 39.2542 32.0588 39.537 31.7958 39.8746C31.6866 39.8844 31.622 39.805 31.6121 39.6462L31.4334 39.6612L31.3937 40.1574C30.6641 41.2493 30.1331 41.8101 29.8056 41.8399C29.5078 42.2518 29.3242 42.4554 29.2496 42.4603ZM30.3614 45.3141C30.2125 45.2148 30.0934 45.1701 30.0041 45.1751L29.9842 44.9319L30.148 44.9169L30.5103 45.1305C30.5252 45.2445 30.4755 45.3041 30.3614 45.3141V45.3141ZM31.5129 46.6788C31.6717 46.7434 31.766 46.8129 31.7858 46.8774L31.7064 46.8972L31.7114 46.9022C31.6965 46.9022 31.6766 46.9072 31.6617 46.9122L31.5426 47.0064L31.5129 46.6788V46.6788ZM31.622 47.3638L31.6071 47.2993L31.8156 47.2497L31.8305 47.3142L31.622 47.3638ZM32.1234 47.9247C32.3368 47.8899 32.441 47.8751 32.838 47.7857L32.8528 47.8501L32.0985 48.0239C32.1084 47.9891 32.1184 47.9545 32.1234 47.9247ZM32.8578 48.2373C32.5402 48.2671 32.6096 48.2273 32.1034 48.3415L32.0886 48.2769L32.7238 48.0735L33.0266 48.0041L33.0564 48.1231C32.9174 48.1529 33.0166 48.1529 32.8578 48.2373ZM33.5279 48.0785C33.4534 48.0983 33.3938 48.0637 33.3591 47.9793L33.5527 47.9345C33.6371 47.9147 33.6917 47.9495 33.7115 48.0339L33.5279 48.0785V48.0785ZM35.3444 46.123L35.3294 46.0586L35.6422 45.984L35.672 46.1032L35.3444 46.123ZM37.2849 58.0245C37.3047 57.9351 37.3097 57.8707 37.2997 57.8259L37.3693 57.8111C37.4537 57.7913 37.5033 57.821 37.5231 57.9005L37.5381 57.9649L37.2849 58.0245V58.0245ZM38.6448 46.6342L38.5058 46.6094C38.2825 46.6988 38.0939 46.7632 37.94 46.798L37.8109 46.8278C37.7365 46.8476 37.6769 46.8178 37.6471 46.7384L38.5554 46.53L38.8532 46.391L38.9526 46.5052C38.8086 46.535 38.7044 46.5796 38.6448 46.6342V46.6342ZM39.3446 46.4108L39.3296 46.3464C39.3744 46.3364 39.4338 46.3018 39.4984 46.2372L40.1436 46.0882L40.1585 46.1528C39.816 46.2372 39.543 46.3216 39.3446 46.4108ZM39.4438 45.1056C39.3992 45.1155 39.3396 45.1552 39.2652 45.2148C39.2552 45.1701 39.166 45.1701 38.9972 45.2098C38.9674 45.0857 39.4438 44.9121 40.4315 44.6837L40.5705 44.6539L40.6003 44.7731C39.9054 44.9765 39.5182 45.0907 39.4438 45.1056ZM41.1809 43.2296C41.1115 44.0187 40.8335 44.4653 40.3421 44.5795L40.3273 44.5151L39.8905 44.6837L39.697 44.7285C39.5976 44.7533 39.5084 44.7483 39.429 44.7235L39.3892 44.5497C39.3744 44.4853 40.0047 43.6117 41.2851 41.9342L41.434 41.959C41.4886 42.1873 41.4043 42.6092 41.1809 43.2296ZM44.2531 40.5991L44.1935 40.6041L44.1835 40.48L44.4417 40.4552L44.4465 40.5197C44.4019 40.5297 44.3375 40.5545 44.2531 40.5991V40.5991ZM42.9874 53.3096C42.8386 53.24 42.7046 53.2102 42.5904 53.2202L42.5756 53.0316C42.5706 52.9672 42.6102 52.9224 42.6946 52.8976C42.779 52.8878 42.8286 52.9472 42.8386 53.0762C43.052 52.8034 43.1711 52.6644 43.1959 52.6644L43.3299 52.719C43.2803 53.0962 43.1662 53.2946 42.9874 53.3096V53.3096ZM56.5565 39.1152C56.492 39.1202 56.3679 38.9216 56.1744 38.5196L56.1644 38.3955C56.2884 38.3856 56.4176 38.5791 56.5466 38.9762L56.5565 39.1152V39.1152ZM56.3778 37.6957L56.3182 37.8247L54.4819 37.0555C55.7078 37.0952 56.343 37.3086 56.3778 37.6957ZM48.5908 44.3811L48.3327 44.4059L48.3228 44.2817L48.5808 44.2569L48.5908 44.3811ZM48.3773 40.3659L48.4468 40.3609L48.4617 40.5495C48.3972 40.5545 48.3178 40.6438 48.2235 40.8175L48.2136 40.6935C48.3277 40.5495 48.3823 40.4403 48.3773 40.3659V40.3659ZM47.8363 41.6563L47.8563 41.8995L47.7867 41.9045L47.7669 41.6613L47.8363 41.6563ZM47.5435 42.1178L47.6725 42.1079C47.6577 42.3164 47.6031 42.4256 47.5089 42.4354L47.4393 42.4404C47.5137 42.3015 47.5485 42.1923 47.5435 42.1178V42.1178ZM47.3351 42.7532L47.3947 42.7482L47.3997 42.8126L47.2855 43.0112L47.1565 43.0212L47.1515 42.9566C47.2855 42.9466 47.3451 42.8772 47.3351 42.7532V42.7532ZM47.1267 43.3288L47.082 43.6464L47.0225 43.6514L46.9976 43.3388L47.1267 43.3288ZM45.0074 49.349C44.9231 49.766 44.8337 49.9794 44.7394 49.9892L44.7345 49.9346C44.7195 49.7262 44.8089 49.5276 45.0074 49.349ZM44.6153 50.1878L44.6203 50.2424C44.6303 50.3317 44.5905 50.3813 44.5011 50.3863L44.4963 50.3218C44.4913 50.2572 44.5309 50.2126 44.6153 50.1878V50.1878ZM44.5061 51.9348L44.7047 51.9199L44.7096 51.9844C44.6649 51.9893 44.5955 52.0142 44.5161 52.0589L44.3871 52.0688C44.3821 51.9993 44.4217 51.9547 44.5061 51.9348V51.9348ZM50.0797 50.2126C48.9878 50.7536 48.3376 51.1209 48.1341 51.3095C46.943 51.7263 46.3524 51.9844 46.3624 52.0886C45.3052 52.5105 44.6103 52.8132 44.2829 53.0068C44.2035 53.0118 44.0893 52.982 43.9403 52.9126C43.9205 52.6992 44.0197 52.5254 44.2283 52.3964C44.4169 52.3815 44.5955 52.4063 44.7593 52.4758C44.9578 52.3765 45.3002 52.2673 45.7866 52.1432L45.7768 52.0191L45.3747 52.0539C45.4244 51.9844 45.8064 51.8057 46.5162 51.5179L46.7147 51.5029L46.7197 51.5575C46.3822 51.5873 46.1936 51.6867 46.1538 51.8653C46.1588 51.9447 46.2084 51.9844 46.2928 51.9745C46.541 51.8107 46.6601 51.7164 46.6601 51.6867C47.1366 51.6023 48.4568 50.9075 50.6257 49.6072L50.6355 49.7312C50.6355 49.7808 50.4519 49.9396 50.0797 50.2126V50.2126ZM46.7544 51.3045C47.0771 51.2747 47.3501 51.1507 47.5783 50.9323C47.6627 50.9273 47.7123 50.9621 47.7173 51.0415C47.5683 51.0563 47.2755 51.1805 46.8339 51.4187L46.7644 51.4235L46.7544 51.3045V51.3045ZM52.1245 47.1802L50.4718 48.5103C49.236 49.3192 48.566 49.7262 48.4617 49.7362C46.4964 50.8181 45.2754 51.3789 44.794 51.4187L44.7245 51.4235C44.7841 51.2003 45.6626 49.4086 47.3599 46.0436C48.0994 45.9792 49.2708 45.6267 50.8787 44.9915L51.2807 44.9567C52.0898 44.8873 52.6952 45.0461 53.0922 45.4282L53.1122 45.6714C52.8094 46.525 52.4818 47.0263 52.1245 47.1802V47.1802ZM48.8786 45.3537L49.1368 45.3289L49.1416 45.3935L48.8836 45.4183L48.8786 45.3537V45.3537ZM52.6356 44.7135L52.8342 44.6987C53.0178 44.7879 53.1122 44.8673 53.117 44.9319L53.122 44.9865C52.9484 45.0013 52.7846 44.9121 52.6356 44.7135V44.7135ZM53.1568 41.691C52.983 41.8995 52.5116 42.2568 51.7423 42.7532C51.4843 42.778 50.5313 43.1452 48.8836 43.8599C48.8042 43.8301 48.7148 43.8202 48.6206 43.8251L48.6106 43.701C48.5908 43.4628 48.695 43.165 48.9233 42.8028C49.0524 42.1178 49.1962 41.7357 49.3452 41.6463L50.7299 38.5494C50.7149 38.3657 51.0077 38.2169 51.6033 38.1027L51.8019 38.0879L51.8168 38.2764C52.4024 38.1821 52.7696 38.1275 52.9186 38.1127C54.0105 38.0183 54.5811 38.2367 54.6259 38.7727L54.7549 38.7628L54.7301 38.465L54.8591 38.4551C55.1768 38.6288 55.3455 38.8372 55.3654 39.0854C55.3802 39.264 55.2909 39.4824 55.1023 39.7356C55.0179 39.7454 54.9683 39.686 54.9584 39.5568L54.8293 39.5668L54.7897 39.939C54.2387 40.7778 53.8367 41.2095 53.5836 41.2295C53.3603 41.5321 53.2213 41.6861 53.1568 41.691V41.691ZM53.7375 43.7556L53.7226 43.567L53.8517 43.5572L54.1295 43.7259C54.1345 43.8053 54.0949 43.85 54.0105 43.8599C53.8913 43.7854 53.802 43.7507 53.7375 43.7556V43.7556ZM30.6343 55.811L30.5053 55.8407L30.3961 55.935C30.416 56.0144 30.4657 56.0442 30.5501 56.0244C30.6343 56.0046 30.6691 55.9549 30.6493 55.8755L30.6343 55.811V55.811ZM30.143 54.8333L30.1579 54.8977C30.2423 54.8779 30.2771 54.8283 30.2572 54.7489L30.2423 54.6843C30.1629 54.7041 30.1281 54.7539 30.143 54.8333V54.8333ZM33.6569 48.2323L33.7512 48.1727C33.7313 48.1727 33.7165 48.1677 33.7015 48.1629C33.6669 48.1727 33.6519 48.1975 33.6569 48.2323ZM33.6371 46.52L33.7859 46.4854L33.7561 46.3562L33.6073 46.391L33.6371 46.52V46.52ZM68.7111 51.5327L68.3736 51.4931L68.314 51.6221L68.319 51.6867L70.329 51.5179L70.3191 51.3939L68.7111 51.5327ZM70.5474 51.3789L70.5573 51.5029H70.5771L70.5673 51.3789H70.5474ZM78.9796 50.2771L78.9896 50.4012L79.208 50.4409L79.198 50.3168L78.9796 50.2771V50.2771ZM78.672 50.3019C77.1632 50.6394 76.9746 50.5799 76.657 50.6047L76.6668 50.7287L76.8058 50.7189L76.8803 50.7139L76.8604 50.699L77.0242 50.6345C78.5181 50.4707 78.6918 50.5302 78.6769 50.3615L78.672 50.3019ZM69.6144 48.1083L69.4804 48.0637C69.3712 48.3564 69.3166 48.5301 69.3216 48.5797L69.3264 48.6343C69.4308 48.6294 69.525 48.4507 69.6144 48.1083ZM67.7979 47.1306L67.7929 47.066L67.7235 47.071L67.5993 47.1504L67.6689 47.2695C67.7631 47.2596 67.8077 47.2149 67.7979 47.1306V47.1306ZM71.7435 51.2101L71.7336 51.0861L71.6939 51.0911L71.7038 51.2151L71.7435 51.2101V51.2101ZM79.9326 49.364L80.0268 49.354C80.0814 49.349 80.1063 49.3044 80.1013 49.225L80.0467 49.1058C79.7042 49.1356 79.5454 49.1505 79.2676 49.3044L79.2626 49.2398L78.8506 49.2796C78.8407 49.1554 78.806 49.091 78.7514 49.0959L78.5379 49.1158C78.2898 49.1356 78.1707 49.1257 78.0465 49.22C78.0417 49.1754 78.0267 49.1554 78.0019 49.1554L77.7637 49.1754L77.6247 49.2548C77.6197 49.21 77.6049 49.1902 77.5801 49.1902L77.4957 49.2646L77.4907 49.2002L77.1582 49.1754L77.0788 49.1803L77.0887 49.3044L77.2575 49.349L77.4163 49.3392C77.4709 49.3738 77.5305 49.3838 77.5999 49.3788L77.7389 49.3094L77.7439 49.364C76.9647 49.5574 76.9696 49.5228 76.4336 49.612C76.374 49.5724 76.3294 49.5526 76.2996 49.5574L76.2896 49.5674C76.2302 49.5624 76.1954 49.5228 76.1904 49.4582L76.4684 49.4234C76.4882 49.4234 76.503 49.4434 76.6569 49.4732C76.8803 49.364 76.8902 49.3192 77.0093 49.3094L76.9994 49.1852C76.235 49.3342 76.5428 49.2348 75.585 49.3192L75.5402 49.3242L75.5304 49.2002C76.7612 49.0512 76.3492 49.1356 76.7711 49.0165C76.776 49.0612 76.791 49.081 76.8158 49.081C76.861 49.0348 76.9204 49.0051 76.9845 48.9966L77.0689 48.9917C77.5007 48.957 77.6447 49.0413 78.4983 48.8031L78.5032 48.8577L78.6422 48.7882L78.7712 48.7783C78.7613 48.6542 78.9499 48.6343 79.0144 48.6294L79.0045 48.4953C77.5057 48.7981 77.1135 48.7137 76.6966 48.8329L76.6917 48.7783C76.2996 48.8478 76.2848 48.818 76.1854 48.8229C76.1556 48.8279 76.111 48.8527 76.0614 48.9024C76.0564 48.8577 76.0416 48.8378 76.0118 48.8378C75.9968 48.8378 75.992 48.8428 75.987 48.8428L74.7163 49.0512C74.7115 49.0165 74.6965 48.9966 74.6667 49.0016C74.0067 49.1406 74.1853 49.1654 73.3019 49.2448C73.2622 49.2498 73.2076 49.2696 73.1382 49.3142C73.1332 49.2796 73.1133 49.2597 73.0686 49.2646L72.5276 49.3094L72.1654 49.3986C72.1604 49.364 72.1406 49.344 72.0959 49.349C71.8924 49.4036 71.7137 49.4384 71.5698 49.4482H71.5599C71.4705 49.4582 71.6045 49.4234 71.5351 49.3938L71.4259 49.4582C71.2671 49.4732 71.3515 49.4482 70.8055 49.4532C69.8476 49.5724 69.9518 49.5872 69.8476 49.5922L69.4902 49.5674C69.4952 49.6022 69.4754 49.627 69.4356 49.627C69.0288 49.5724 68.8203 49.5078 68.8153 49.4334C68.8699 49.0463 68.9642 48.8478 69.0982 48.8378L69.1677 48.8329L69.1082 48.9619L69.1776 48.957C69.3066 48.8874 69.3662 48.8229 69.3612 48.7634L69.3514 48.6294L69.2222 48.6393L69.2124 48.5152C69.2024 48.4209 69.2174 48.3365 69.252 48.2671L69.5448 47.7955L69.5548 47.9197L69.6938 47.9097L69.6838 47.7857L69.6044 47.6715C69.7086 47.5821 69.788 47.5325 69.8526 47.5275L69.8476 47.4631L69.659 47.4779L69.6442 47.2893C70.0214 46.5052 70.2 46.0486 70.1901 45.9196L70.3241 45.9742C70.4085 45.9692 70.4481 45.9196 70.4432 45.8302L70.3141 45.8402L70.3092 45.7856C70.3 45.6949 70.3173 45.6036 70.3588 45.5225C70.5623 45.3091 70.6566 45.0957 70.6367 44.8723C70.6765 44.8673 70.6963 44.8873 70.7013 44.9319C70.875 44.8327 71.0091 44.5695 71.1083 44.1329C71.4159 43.577 71.8527 42.4652 72.4234 40.8027C73.5154 37.8645 73.4706 37.5519 73.6245 36.857L73.4955 36.8669C73.5054 36.9562 73.4856 37.0406 73.4458 37.12C73.3565 37.0853 73.287 37.0654 73.2374 37.0704L73.2324 37.0158C73.2126 36.7626 73.3168 36.46 73.555 36.1026L73.6146 36.0976L73.7238 36.5244L73.8528 36.5146C73.8479 36.4848 73.8826 36.316 73.9521 36.0034C73.9471 35.9388 73.8975 35.8992 73.7982 35.8942L73.6742 35.9736C73.6642 35.8842 73.6692 35.651 73.6841 35.2787L73.6195 35.2837C73.5104 35.1745 73.4558 35.0851 73.4508 35.0107L72.741 35.0802C72.7362 35.0305 72.7114 34.9561 72.6616 34.8618C72.6568 34.7973 72.8156 34.7327 73.143 34.6683L73.287 34.7229L73.421 34.6435C73.426 34.6881 73.4508 34.7079 73.5004 34.7029L73.6344 34.6235C73.6394 34.6683 73.6642 34.6881 73.7139 34.6831L73.7784 34.6781L73.7685 34.5343C73.6692 34.5441 73.4062 34.5441 72.9892 34.5293L72.8552 34.6187L72.8502 34.5393C69.52 34.8121 67.6291 34.9661 67.1775 35.0107C67.1179 35.0157 66.8847 35.0107 66.4728 35.0007C66.4776 35.0553 66.428 35.0851 66.3288 35.0951L66.1848 35.0305L65.6985 35.1547C65.5844 35.1645 65.3908 35.1596 65.1228 35.1298C65.0483 35.1894 64.959 35.2241 64.8498 35.2341C64.7903 35.239 65.5596 35.1943 66.2742 35.1447C66.1998 35.2043 66.0856 35.239 65.9268 35.2539C65.8176 35.2638 65.7234 35.2489 65.6439 35.2043C65.5347 35.2539 65.1823 35.3333 64.5917 35.4524L64.4479 35.3978L62.1251 35.7552C62.0358 35.7105 61.9315 35.6956 61.8124 35.7056C61.6883 35.7154 61.4799 35.7602 61.1921 35.8396L60.0704 36.306L60.1547 36.445C60.2093 36.44 60.2887 36.4102 60.3831 36.3556L60.7801 36.3904L60.7305 36.7626C60.3632 36.9264 60.1498 37.1697 60.0902 37.4773C59.5394 37.7205 59.2664 37.8943 59.2664 37.9985L59.2714 38.0629L59.3556 38.0581L59.5046 37.9787L59.6782 38.1871L59.703 38.4749C59.713 38.5643 58.785 40.5147 56.9287 44.3265C55.3207 47.9991 54.4769 50.0092 54.3975 50.3714C53.8467 50.5253 53.529 50.7486 53.4347 51.0465C53.4447 51.1407 53.6084 51.2053 53.9261 51.2301L53.9409 51.3739L53.7971 51.6121L53.8219 51.9001C53.8367 52.0489 54.2387 52.1631 55.0279 52.2425C55.0229 52.1929 55.0477 52.1631 55.1023 52.1581C55.1172 52.3368 55.0676 52.6842 54.9534 53.2004L55.0378 53.1954C55.3654 52.7488 55.5192 52.441 55.5044 52.2723L55.5738 52.2673C55.6532 52.2624 55.7376 52.3517 55.8368 52.5452C55.7376 52.585 55.3902 53.374 54.7946 54.9175L54.879 55.0565L54.9633 55.0515C55.693 53.2054 56.1496 52.1829 56.3381 51.9894C57.2961 51.905 58.9536 51.7363 61.3061 51.4831L61.4551 51.3937C61.46 51.4435 61.4898 51.4683 61.5444 51.4633L61.6983 51.4483L61.8471 51.3591C61.8521 51.4087 61.8819 51.4335 61.9365 51.4285L63.7182 51.2747C64.1897 51.2349 64.4131 51.0911 64.3931 50.8479C64.3883 50.7833 64.6661 50.7089 65.227 50.6295C65.2816 50.6245 65.361 50.6394 65.4702 50.6741C65.4652 50.6295 65.7482 50.5848 66.314 50.5352C66.3288 50.2374 66.423 50.0786 66.5918 50.0637L66.577 49.9198C66.4182 49.9346 66.2394 49.9744 66.031 50.0438C65.6588 50.024 65.4206 49.9942 65.3213 49.9594C65.222 50.014 65.1476 50.0438 65.093 50.0488L63.8523 50.0885L63.7033 50.1679C63.6983 50.1232 63.6686 50.1034 63.614 50.1084L63.5445 50.1133L63.3857 50.1928C63.3807 50.148 63.2516 50.1133 62.9936 50.0786L62.8348 50.1729L62.5272 50.1977L62.5222 50.1183C64.1203 49.9446 64.9093 49.7262 64.8895 49.4682C64.9937 49.4582 65.0483 49.5078 65.0582 49.612L65.5248 49.493L65.5099 49.349L61.6833 49.4532C61.6883 49.5028 61.6635 49.5326 61.6089 49.5376L61.1423 49.498C61.0233 49.5078 60.9241 49.5426 60.8447 49.6022L60.6709 49.5376C60.1895 49.5774 59.8321 49.6368 59.5938 49.7114C59.2664 49.6866 58.904 49.6914 58.502 49.7262L57.6435 49.8006L57.2464 49.756C57.2265 49.5028 57.7179 48.2571 58.7304 46.0238C59.0232 45.2694 59.2912 44.7979 59.5492 44.6193C59.6038 44.6143 59.6832 44.6341 59.7924 44.6787L60.4029 44.4703L60.7155 44.5199C61.2417 44.4753 61.8521 44.3265 62.552 44.0683C62.7256 44.0535 62.8546 44.0634 62.949 44.1031L63.4155 43.9939L64.8051 43.8747C65.3958 43.8251 66.036 43.6961 66.7308 43.4826L66.7159 43.3388C66.4578 43.3636 66.3238 43.3188 66.314 43.2146C66.299 43.0212 66.1104 42.9416 65.7482 42.9714L65.7332 42.8276L66.1154 42.7184L67.1179 42.634L67.1031 42.4901C67.0633 42.495 66.8598 42.4901 66.4826 42.4752L66.4678 42.3213L66.8549 42.2866C66.9591 42.2767 67.0038 42.227 66.9939 42.1278C66.4728 42.1426 66.2096 42.1178 66.2048 42.0483C62.5718 42.227 60.7503 42.2618 60.7404 42.1476C60.6858 42.1526 60.6113 42.1873 60.5121 42.2469L60.4178 42.098C61.3805 40.0532 61.9464 39.0208 62.1102 39.006C62.1152 39.0854 62.0754 39.2144 61.991 39.3882L61.996 39.4526L62.1499 39.4378C62.532 38.5245 62.8546 38.0531 63.1226 38.0333C64.2641 37.9339 62.9638 37.8595 65.4057 37.4773C65.505 37.5221 65.5744 37.5419 65.624 37.5369C66.5819 37.3433 67.9169 37.1399 69.6292 36.9314L69.6192 36.7875L68.7061 36.8718L68.6962 36.7279C68.8054 36.718 68.8947 36.6832 68.9692 36.6237L68.9742 36.7031C69.0238 36.6982 69.0932 36.6634 69.1826 36.6038C69.3414 36.589 69.4604 36.6038 69.5448 36.6485C69.8625 36.5642 70.1206 36.5145 70.3092 36.4946L70.8799 36.44C71.0189 36.3508 71.0835 36.2714 71.0785 36.1968L71.0735 36.1324C70.9295 36.1472 70.7658 36.1374 70.5723 36.1026C70.5673 36.0232 70.6069 35.9686 70.7013 35.9438L71.7633 35.8446L72.2498 35.7204C72.2547 35.775 72.2796 35.7948 72.3192 35.7948C72.3688 35.79 72.4384 35.7552 72.5276 35.6956C72.5526 35.7006 72.5822 35.7006 72.607 35.7056C72.5426 35.8396 72.4682 36.0332 72.3936 36.2862L72.2547 36.2962C72.2448 36.2018 72.22 36.1174 72.1753 36.043L72.1058 36.048C70.8155 39.6412 70.2397 41.3139 69.0486 44.0733C68.8302 44.7781 68.6466 45.1701 68.4877 45.2545C68.4927 45.3339 68.5423 45.3736 68.6267 45.3637C68.6565 45.7111 68.5771 46.0536 68.3835 46.391C67.8325 47.9793 67.4653 48.8478 67.2767 49.0066L67.4009 49.756C67.4057 49.8354 67.3661 49.88 67.2817 49.89L67.1527 49.9C67.1328 49.6914 67.0583 49.5922 66.9244 49.6072L66.8549 49.612C66.6861 49.875 66.5571 50.1778 66.4728 50.5302L66.6018 50.5203C66.7755 50.4062 66.8549 50.2722 66.84 50.1183L67.0981 50.0934L67.2469 50.148C67.1279 50.3367 67.0733 50.4856 67.0832 50.5997L67.1527 50.7189L66.9839 51.1159L66.9889 51.1805C67.1378 51.1655 67.3015 51.2151 67.4753 51.3193C67.5943 51.3095 67.7235 51.2549 67.8673 51.1605C68.0163 51.1457 68.5721 51.1407 69.53 51.1407L70.0114 50.9769C70.5971 50.9719 70.6913 50.9869 71.1975 50.9421L71.406 50.9223L71.5152 50.8479L71.5201 50.9124C72.0512 50.8677 72.086 50.9025 72.5028 50.9521L72.5078 51.0167L72.215 51.0415L72.225 51.1655C72.3142 51.1555 72.3936 51.1307 72.4582 51.0761C72.5326 51.0713 72.5772 51.1109 72.5822 51.2003C72.4632 51.2101 72.3292 51.2399 72.1802 51.2895L72.0512 51.2449C71.8477 51.2995 71.8924 51.3143 71.7534 51.3243L71.5499 51.2847C71.5549 51.3193 71.5351 51.3441 71.5003 51.3441C71.5053 51.4235 71.5499 51.4633 71.6244 51.4583L71.8328 51.4385L72.9198 51.3441L73.3317 51.2549C73.3366 51.2895 73.3515 51.3095 73.3863 51.3045L73.5848 51.2301L73.9571 51.2003C74.2449 51.1755 74.2399 51.1555 74.8653 51.0563C74.8603 51.0167 74.8752 51.0017 74.9049 50.9967L74.9099 51.0513C75.9274 50.8777 75.9918 50.8677 76.1556 50.8131L76.1706 50.8429C76.4236 50.7833 76.2798 50.7983 76.3492 50.7486C76.3542 50.7933 76.369 50.8131 76.3938 50.8131L76.5726 50.7983L76.5626 50.6643L76.2004 50.6593L76.1954 50.6493C76.1804 50.6543 76.1706 50.6543 76.1556 50.6593H76.106V50.6692C75.8628 50.7189 75.8578 50.6841 75.699 50.699L74.7908 50.7486L74.7859 50.6841L75.2921 50.6146L75.4758 50.5997L75.58 50.5253L75.585 50.5898C76.2996 50.5302 76.5527 50.7089 79.8581 50.0042C80.0368 49.9892 80.0219 49.8404 80.136 49.5326C80.0755 49.5368 80.0151 49.523 79.9624 49.493C79.6894 49.5972 79.5454 49.5476 79.0194 49.632C78.9747 49.637 78.94 49.5972 78.925 49.5178L78.92 49.4632L79.4262 49.478C79.5206 49.4682 79.7042 49.4532 79.9772 49.2994C79.9772 49.344 79.873 49.3688 79.9325 49.364H79.9326V49.364ZM55.4944 49.756L55.2612 49.7758C55.2512 49.6816 55.3753 49.3242 55.6334 48.7137L55.7872 48.6989C55.7922 48.8428 55.6978 49.1952 55.4944 49.756V49.756ZM55.7774 48.6244L55.7724 48.5599C55.7674 48.4805 55.817 48.4259 55.9262 48.4011L55.9312 48.4656C55.9362 48.5599 55.8864 48.6145 55.7774 48.6244ZM58.8792 51.0215L58.8842 51.0861L58.4971 51.1209L58.4921 51.0563L58.8792 51.0215ZM58.4127 50.9819C58.4177 51.0613 58.2985 51.1507 58.0405 51.2399L57.5639 51.2053L57.4101 51.2201L57.3953 51.0761L58.4127 50.9819ZM61.5493 36.5442L61.3161 36.5642L61.3111 36.4848C61.3061 36.4054 61.3509 36.3508 61.4501 36.326L61.5345 36.321L61.6933 36.3854C61.6982 36.4798 61.6536 36.5344 61.5493 36.5442ZM65.0979 35.8494L65.1724 35.8446L65.1823 35.9884L64.9689 36.0082C64.9639 35.9288 65.0036 35.8743 65.0979 35.8494V35.8494ZM64.2045 36.1622L63.8523 36.1224L63.8473 36.058C64.3089 36.0182 64.4627 35.9686 64.7455 35.8892C64.7505 35.9438 64.8001 35.9636 64.8895 35.9538L64.8994 36.0976L64.7605 36.1126C64.6513 36.1224 64.5569 36.1076 64.4775 36.0628C64.3931 36.1174 64.3039 36.1522 64.2045 36.1622V36.1622ZM64.6463 37.4476L64.6413 37.3831L65.2121 37.3285L65.2171 37.393L64.6463 37.4476ZM65.2568 36.9513L65.2518 36.8718L65.5298 36.847L65.5347 36.9264L65.2568 36.9513ZM65.3213 35.9786L65.2468 35.9834L65.3114 35.8296L65.9466 35.77L65.9516 35.8494C65.7878 35.8644 65.5744 35.909 65.3213 35.9786ZM65.6439 37.3483L65.634 37.2044L65.912 37.1796C66.0062 37.1697 66.0558 37.2143 66.0608 37.3136L65.6439 37.3483ZM67.3263 35.0553L66.969 35.1547L66.9045 35.1596C66.7358 35.1745 66.5174 35.1695 66.2592 35.1447C66.7209 35.1149 67.1626 35.0802 67.3263 35.0553V35.0553ZM66.9442 36.6436L66.9492 36.708L66.4578 36.7528L66.4528 36.6882L66.9442 36.6436ZM67.7483 37.0257C67.7433 36.9662 67.6489 36.9264 67.4555 36.9066L66.9641 37.0456L66.5868 37.0605C66.5025 37.0009 66.4578 36.9612 66.4528 36.9314L66.8896 36.9562L67.8723 36.7974L68.3736 36.8172L68.3785 36.8967C68.1303 36.9215 67.9219 36.9662 67.7483 37.0257V37.0257ZM72.8056 35.7204C72.8652 35.7254 72.9048 35.7254 72.9198 35.7254C73.0934 35.5566 73.287 35.4226 73.5104 35.3283C73.3317 36.1126 73.0538 36.6932 72.6716 37.0704L72.3936 36.9016C72.627 36.311 72.766 35.919 72.8056 35.7204ZM71.952 37.1845L72.0214 37.1796C71.9271 37.3583 71.8428 37.4525 71.7733 37.4575L71.7584 37.2689C71.8031 37.2689 71.8676 37.2391 71.952 37.1845V37.1845ZM71.4011 38.4997C71.5351 37.9637 71.6641 37.6611 71.7832 37.5816L71.7882 37.6461C71.7187 38.1423 71.6095 38.4055 71.4655 38.4253L71.4903 38.738C71.3713 38.9067 71.3167 39.0358 71.3216 39.135L71.2521 39.14L71.2125 38.7082C71.2919 38.6983 71.3563 38.6288 71.4011 38.4997V38.4997ZM71.1877 39.2144C71.1925 39.2888 71.1429 39.4626 71.0437 39.7306L70.9743 39.7356L70.9593 39.547C71.0537 39.3286 71.1331 39.2194 71.1876 39.2144H71.1877ZM67.1825 50.8379L67.1775 50.7833L67.3065 50.7735L67.3215 50.9621C67.2519 50.967 67.2023 50.9273 67.1825 50.8379V50.8379ZM72.9048 50.9869C72.8998 50.9421 72.88 50.9223 72.8354 50.9273L72.5128 50.9571L72.5078 50.8925H72.5376L73.3019 50.8281L73.3068 50.8925C73.0836 50.9025 72.9496 50.9373 72.9048 50.9869V50.9869ZM72.5228 50.8281C72.5526 50.8429 72.5376 50.8578 72.5228 50.8677C72.5078 50.8627 72.488 50.8479 72.5228 50.8281ZM72.5624 49.9346L72.1356 49.9694L72.1306 49.9048L72.5178 49.8702L72.8552 49.7858C72.8602 49.8254 72.88 49.8404 72.9248 49.8354C73.3268 49.766 73.287 49.746 73.4806 49.7312C73.5451 49.7262 73.5848 49.766 73.5898 49.8454L72.5624 49.9346V49.9346ZM74.0563 49.8056C73.8181 49.7808 73.8032 49.761 73.6344 49.7758L73.6295 49.7212L74.0117 49.6866L74.0166 49.7412C73.9769 49.746 74.1209 49.756 74.0563 49.8056ZM74.0861 49.7362L74.0811 49.6816L74.2895 49.6616L74.2945 49.7162L74.0861 49.7362ZM74.5477 49.6964L74.5427 49.6418C74.5775 49.637 74.6271 49.612 74.6915 49.5624C74.7957 49.5526 74.8503 49.622 74.8603 49.7014L74.5477 49.6964ZM75.1383 49.622L75.1333 49.5574L75.3864 49.5376L75.3914 49.6022L75.1383 49.622ZM75.4906 49.5922C75.4857 49.5178 75.5154 49.4732 75.58 49.4632L75.6644 49.5724C75.6594 49.5376 75.6742 49.5178 75.704 49.5128L75.7686 49.632L75.4906 49.5922ZM80.3743 49.0165L80.3793 49.0116V49.0066C80.3793 49.0066 80.3743 49.0116 80.3743 49.0165ZM80.4636 48.952C80.5033 48.9272 80.5232 48.9024 80.4289 48.8875C80.3842 48.9371 80.4785 48.952 80.3793 48.957L80.3842 49.0016C80.3941 48.9917 80.419 48.9768 80.4388 48.9619L80.3842 49.0066V49.0116L80.28 49.1456L80.4885 49.0711H80.5133L80.5033 48.947L80.4636 48.952V48.952ZM80.8259 49.2349L80.7863 49.2398L80.7961 49.364L81.0889 49.3392C81.0841 49.2597 80.8905 49.2349 80.8259 49.2349V49.2349Z" fill="#F9DC3E"/>
<defs>
<radialGradient id="paint0_radial_1024_11455" cx="0" cy="0" r="1" gradientUnits="userSpaceOnUse" gradientTransform="translate(47.7119 47.2978) rotate(90) scale(47.04)">
<stop stop-color="#333944"/>
<stop offset="1" stop-color="#222428"/>
</radialGradient>
</defs>
</svg>
