<svg width="95" height="95" viewBox="0 0 95 95" fill="none" xmlns="http://www.w3.org/2000/svg">
<rect x="1.51184" y="1.19934" width="92.736" height="92.736" rx="13.44" fill="url(#paint0_radial_1024_11570)"/>
<rect x="1.51184" y="1.19934" width="92.736" height="92.736" rx="13.44" stroke="#6886C3" stroke-width="1.344"/>
<g clip-path="url(#clip0_1024_11570)">
<path d="M21.5387 54.8263C21.5387 57.3923 22.102 59.3623 22.838 60.5541C23.8032 62.1152 25.2425 62.7764 26.7102 62.7764C28.6031 62.7764 30.3348 62.3065 33.6717 57.6913C36.3452 53.9921 39.4955 48.7993 41.6149 45.5441L45.2046 40.0289C47.6981 36.1988 50.584 31.9411 53.8934 29.0549C56.5942 26.6992 59.5085 25.3906 62.4411 25.3906C67.3651 25.3906 72.0552 28.244 75.6449 33.5956C79.5732 39.4564 81.4803 46.8387 81.4803 54.457C81.4803 58.9859 80.5878 62.3136 79.0687 64.9428C77.601 67.4854 74.7406 70.0256 69.929 70.0256V62.7764C74.0489 62.7764 75.0771 58.9906 75.0771 54.6581C75.0771 48.4841 73.6376 41.632 70.4666 36.7364C68.2159 33.2635 65.2995 31.1417 62.091 31.1417C58.6207 31.1417 55.828 33.7589 52.6895 38.4261C51.0211 40.9054 49.308 43.9271 47.3849 47.3364L45.2676 51.0873C41.0143 58.6284 39.937 60.3459 37.8105 63.1807C34.083 68.1445 30.9005 70.0256 26.7102 70.0256C21.7397 70.0256 18.5963 67.8731 16.6499 64.6297C15.0607 61.9865 14.2803 58.5187 14.2803 54.567L21.5387 54.8263Z" fill="#0081FB"/>
<path d="M20.0039 34.1072C23.3319 28.978 28.1341 25.3906 33.6421 25.3906C36.8323 25.3906 40.0033 26.3348 43.3147 29.0386C46.9367 31.9946 50.7973 36.8624 55.6136 44.8852L57.3409 47.764C61.5096 54.7095 63.8816 58.2824 65.2697 59.9677C67.0552 62.1314 68.3055 62.7764 69.9296 62.7764C74.0495 62.7764 75.0777 58.9906 75.0777 54.6581L81.4809 54.457C81.4809 58.9859 80.5884 62.3136 79.0693 64.9428C77.6017 67.4854 74.7412 70.0256 69.9296 70.0256C66.9384 70.0256 64.2884 69.3759 61.3579 66.6113C59.1051 64.4895 56.4715 60.72 54.4452 57.3314L48.4182 47.264C45.3945 42.2116 42.6204 38.4448 41.0152 36.7385C39.2885 34.9042 37.0682 32.6887 33.5255 32.6887C30.6583 32.6887 28.223 34.701 26.1853 37.7785L20.0039 34.1072Z" fill="url(#paint1_linear_1024_11570)"/>
<path d="M33.5247 32.6887C30.6574 32.6887 28.2222 34.701 26.1844 37.7785C23.3032 42.1276 21.5387 48.6053 21.5387 54.8263C21.5387 57.3923 22.102 59.3623 22.838 60.5541L16.6499 64.6297C15.0607 61.9865 14.2803 58.5187 14.2803 54.567C14.2803 47.3808 16.2527 39.8911 20.0033 34.1072C23.3313 28.978 28.1334 25.3906 33.6415 25.3906L33.5247 32.6887Z" fill="url(#paint2_linear_1024_11570)"/>
</g>
<defs>
<radialGradient id="paint0_radial_1024_11570" cx="0" cy="0" r="1" gradientUnits="userSpaceOnUse" gradientTransform="translate(47.8798 47.5673) rotate(90) scale(47.04)">
<stop stop-color="#333944"/>
<stop offset="1" stop-color="#222428"/>
</radialGradient>
<linearGradient id="paint1_linear_1024_11570" x1="873.181" y1="2522" x2="5494.74" y2="2755.42" gradientUnits="userSpaceOnUse">
<stop stop-color="#0064E1"/>
<stop offset="0.4" stop-color="#0064E1"/>
<stop offset="0.83" stop-color="#0073EE"/>
<stop offset="1" stop-color="#0082FB"/>
</linearGradient>
<linearGradient id="paint2_linear_1024_11570" x1="1065.88" y1="3273.68" x2="1065.88" y2="1567.76" gradientUnits="userSpaceOnUse">
<stop stop-color="#0082FB"/>
<stop offset="1" stop-color="#0064E0"/>
</linearGradient>
<clipPath id="clip0_1024_11570">
<rect width="67.2" height="44.8875" fill="white" transform="translate(14.2803 25.3906)"/>
</clipPath>
</defs>
</svg>
