<svg width="96" height="95" viewBox="0 0 96 95" fill="none" xmlns="http://www.w3.org/2000/svg">
<rect x="1.63196" y="0.912234" width="92.736" height="92.736" rx="13.44" fill="url(#paint0_radial_1024_11601)"/>
<rect x="1.63196" y="0.912234" width="92.736" height="92.736" rx="13.44" stroke="#6886C3" stroke-width="1.344"/>
<path d="M74.5933 26.743C70.5313 21.483 65.0007 17.5458 58.701 15.4292C52.4012 13.3127 45.6152 13.1119 39.2014 14.8522C32.7875 16.5926 27.0337 20.1959 22.6678 25.2064C18.3019 30.217 15.52 36.4098 14.6739 43.0015C13.8277 49.5932 14.9554 56.2878 17.9142 62.2386C20.8731 68.1894 25.5302 73.1291 31.2966 76.433C37.063 79.7369 43.6796 81.2565 50.3097 80.7997C56.9398 80.3428 63.2855 77.9301 68.5443 73.8666C83.2232 62.5225 85.9321 41.4271 74.5922 26.743H74.5933Z" fill="#FF6C37"/>
<path d="M59.3322 35.0876L45.1647 49.3675L41.1611 45.2516C55.1049 31.3077 56.5046 32.5677 59.3332 35.0876H59.3322Z" fill="white"/>
<path d="M45.1648 49.759C45.0393 49.7559 44.9195 49.7062 44.8288 49.6194L40.7968 45.5874C40.706 45.4935 40.6553 45.3679 40.6553 45.2372C40.6553 45.1066 40.706 44.981 40.7968 44.8871C54.5443 31.1396 56.4207 31.7832 59.6683 34.7232C59.7227 34.7667 59.7661 34.8223 59.7953 34.8855C59.8245 34.9487 59.8385 35.0179 59.8363 35.0875C59.8573 35.224 59.8048 35.3637 59.6966 35.4519L45.5291 49.6204C45.4298 49.7115 45.2995 49.7614 45.1648 49.7601V49.759ZM41.8604 45.2514L45.1648 48.5557L58.6046 35.1159C58.1406 34.5343 57.4784 34.1443 56.7448 34.0203C56.0113 33.8963 55.2577 34.0471 54.6283 34.4439C52.1923 35.5359 48.2727 38.8675 41.8604 45.2514V45.2514Z" fill="#FF6C37"/>
<path d="M49.2243 53.3156L45.3604 49.3677L59.5279 35.3672C63.3363 39.0915 57.68 45.3074 49.2243 53.3146V53.3156Z" fill="white"/>
<path d="M49.2258 53.8213C49.1019 53.8114 48.9843 53.7625 48.8898 53.6816L44.9419 49.8177C44.8827 49.6741 44.8827 49.5129 44.9419 49.3693C44.8999 49.2515 44.8999 49.1228 44.9419 49.005L59.1094 34.8375C59.2079 34.7449 59.338 34.6934 59.4732 34.6934C59.6084 34.6934 59.7385 34.7449 59.8371 34.8375C60.2959 35.2598 60.6584 35.7759 60.8999 36.3508C61.1414 36.9257 61.2563 37.5458 61.2367 38.1691C61.2367 41.949 56.9244 46.7086 49.5891 53.6533C49.4911 53.7502 49.3622 53.8097 49.2248 53.8213H49.2258ZM46.0895 49.3693L49.2531 52.5319C54.8527 47.2399 60.2014 41.78 60.2287 38.084C60.2592 37.3005 60.0001 36.5332 59.5011 35.9284L46.0895 49.3693Z" fill="#FF6C37"/>
<path d="M41.272 45.3369L44.0723 48.1372C44.0902 48.153 44.1045 48.1724 44.1143 48.1941C44.1241 48.2158 44.1292 48.2394 44.1292 48.2632C44.1292 48.2871 44.1241 48.3106 44.1143 48.3323C44.1045 48.3541 44.0902 48.3735 44.0723 48.3892L38.164 49.6492C38.0448 49.6749 37.9204 49.661 37.8098 49.6095C37.6991 49.558 37.6084 49.4718 37.5513 49.3639C37.4943 49.2561 37.474 49.1326 37.4936 49.0121C37.5132 48.8917 37.5717 48.781 37.66 48.6969L41.104 45.2812C41.104 45.2812 41.2164 45.2813 41.272 45.3369Z" fill="white"/>
<path d="M38.0255 50.208C37.8389 50.2057 37.6559 50.1555 37.4942 50.0623C37.3324 49.9691 37.1972 49.836 37.1016 49.6757C36.9939 49.4726 36.9548 49.2402 36.9902 49.0131C37.0256 48.786 37.1336 48.5764 37.2979 48.4157L40.7135 44.9717C40.8367 44.8616 40.9961 44.8008 41.1613 44.8008C41.3265 44.8008 41.486 44.8616 41.6092 44.9717L44.4095 47.7721C44.5754 47.9296 44.6405 48.1679 44.5775 48.3884C44.5145 48.6089 44.3297 48.7843 44.1018 48.8368L38.1935 50.0967L38.0255 50.208ZM41.1619 45.9524L37.9983 49.1161L43.2345 47.9957L41.1619 45.9524Z" fill="#FF6C37"/>
<path d="M66.8653 27.2202C64.8388 25.2651 61.6551 25.1832 59.5299 27.028C57.4047 28.8728 57.0414 32.0396 58.6962 34.3181C60.351 36.5966 63.4706 37.235 65.8856 35.7881L62.0773 31.9798L66.8653 27.2202Z" fill="white"/>
<path d="M63.0844 37.0761C61.9201 37.0612 60.786 36.704 59.8233 36.049C58.8606 35.394 58.1119 34.4702 57.6706 33.3927C57.2296 32.3161 57.1139 31.1337 57.3378 29.992C57.5618 28.8502 58.1155 27.7992 58.9306 26.9689C60.0516 25.8685 61.5597 25.252 63.1306 25.252C64.7015 25.252 66.2096 25.8685 67.3306 26.9689C67.4377 27.0592 67.4986 27.1925 67.4986 27.3332C67.4983 27.4025 67.4832 27.4708 67.4542 27.5337C67.4252 27.5965 67.3831 27.6524 67.3306 27.6976L62.7946 31.9816L66.2386 35.3699C66.2944 35.4232 66.3363 35.4893 66.3606 35.5625C66.385 35.6357 66.391 35.7138 66.3783 35.7899C66.37 35.8633 66.3456 35.934 66.307 35.9969C66.2683 36.0599 66.2163 36.1136 66.1546 36.1542C65.2294 36.7325 64.1657 37.0517 63.075 37.0782L63.0844 37.0761ZM63.0844 26.2118C61.0894 26.2223 59.3044 27.4225 58.5558 29.2568C57.8071 31.0912 58.2145 33.2027 59.6131 34.6118C60.3088 35.3115 61.1995 35.7848 62.1687 35.9697C63.1379 36.1546 64.1403 36.0425 65.0448 35.6481L61.7404 32.3438C61.6879 32.3018 61.6455 32.2485 61.6163 32.1879C61.5872 32.1273 61.572 32.0609 61.572 31.9936C61.572 31.9264 61.5872 31.86 61.6163 31.7994C61.6455 31.7387 61.6879 31.6855 61.7404 31.6435L66.1084 27.2471C65.2401 26.5817 64.1783 26.2178 63.0844 26.2108V26.2118Z" fill="#FF6C37"/>
<path d="M66.949 27.3027L62.1611 32.0623L65.9694 35.8706C66.3527 35.6506 66.7096 35.3874 67.033 35.0863C68.0311 34.0313 68.5803 32.6298 68.5646 31.1775C68.549 29.7253 67.9697 28.3359 66.949 27.3027V27.3027Z" fill="white"/>
<path d="M65.884 36.2915C65.8211 36.2949 65.7582 36.2842 65.7001 36.26C65.6419 36.2358 65.5899 36.1989 65.548 36.1519L61.7396 32.3436C61.6871 32.3016 61.6447 32.2483 61.6156 32.1877C61.5864 32.127 61.5713 32.0606 61.5713 31.9934C61.5713 31.9261 61.5864 31.8597 61.6156 31.7991C61.6447 31.7385 61.6871 31.6852 61.7396 31.6432L66.4993 26.9676C66.5452 26.8983 66.6076 26.8414 66.6809 26.8021C66.7542 26.7628 66.8361 26.7422 66.9193 26.7422C67.0024 26.7422 67.0843 26.7628 67.1576 26.8021C67.2309 26.8414 67.2933 26.8983 67.3392 26.9676C67.898 27.5151 68.3419 28.1685 68.645 28.8897C68.948 29.6109 69.1041 30.3853 69.1041 31.1676C69.1041 31.9498 68.948 32.7242 68.645 33.4454C68.3419 34.1666 67.898 34.8201 67.3392 35.3675C67.0096 35.7171 66.6325 36.0186 66.2189 36.2632C66.1148 36.3157 65.9944 36.3258 65.8829 36.2915H65.884ZM62.8043 31.9803L65.968 35.1439C66.1856 34.9914 66.3916 34.8229 66.5843 34.6399C67.5143 33.7124 68.0381 32.4537 68.0406 31.1403C68.0428 29.9648 67.6144 28.8293 66.8363 27.9483L62.8043 31.9803Z" fill="#FF6C37"/>
<path d="M59.9207 35.6774C59.5415 35.3213 59.0408 35.123 58.5205 35.123C58.0003 35.123 57.4996 35.3213 57.1204 35.6774L44.4375 48.3319L46.5375 50.4603L59.949 38.7003C60.1536 38.5043 60.3158 38.2685 60.4258 38.0074C60.5357 37.7463 60.5911 37.4655 60.5884 37.1822C60.5858 36.8989 60.5252 36.6192 60.4103 36.3602C60.2955 36.1012 60.1289 35.8685 59.9207 35.6764V35.6774Z" fill="white"/>
<path d="M46.4242 50.9634C46.2987 50.9604 46.1789 50.9106 46.0882 50.8238L43.9599 48.6955C43.8691 48.6015 43.8184 48.4759 43.8184 48.3453C43.8184 48.2146 43.8691 48.0891 43.9599 47.9951L56.6438 35.3669C57.0091 35.002 57.4756 34.7553 57.9829 34.6587C58.4901 34.5622 59.0147 34.6203 59.4885 34.8254C59.9624 35.0306 60.3636 35.3734 60.6403 35.8094C60.9169 36.2454 61.0562 36.7544 61.0401 37.2705C61.0255 37.6208 60.9412 37.9647 60.7921 38.282C60.643 38.5993 60.4321 38.8837 60.1717 39.1185L46.7602 50.8784C46.6627 50.9474 46.5428 50.9774 46.4242 50.9624V50.9634ZM44.9406 48.3301L46.3402 49.7581L59.4997 38.3058C59.8252 38.0223 60.0195 37.617 60.0321 37.1855C60.0447 36.7539 59.8746 36.3318 59.5564 36.0378C59.2626 35.7453 58.8649 35.581 58.4503 35.581C58.0356 35.581 57.6379 35.7453 57.3441 36.0378L44.9406 48.3301Z" fill="#FF6C37"/>
<path d="M34.6092 62.7523C34.5734 62.8009 34.5541 62.8598 34.5541 62.9203C34.5541 62.9807 34.5734 63.0396 34.6092 63.0882L35.1689 65.5242C35.1913 65.6676 35.17 65.8144 35.1079 65.9455C35.0457 66.0766 34.9455 66.1859 34.8203 66.2592C34.6955 66.3322 34.5508 66.3637 34.407 66.3492C34.2633 66.3346 34.1278 66.2748 34.0202 66.1784L30.1846 62.4824L42.1408 50.4316H46.2851L49.0854 53.232C44.7171 57.0512 39.8465 60.2544 34.6092 62.7523V62.7523Z" fill="white"/>
<path d="M34.3576 66.8687C34.0405 66.8624 33.7276 66.7322 33.5176 66.5044L29.85 62.8368C29.7975 62.7947 29.7551 62.7415 29.7259 62.6808C29.6968 62.6202 29.6816 62.5538 29.6816 62.4866C29.6816 62.4193 29.6968 62.3529 29.7259 62.2923C29.7551 62.2317 29.7975 62.1784 29.85 62.1364L41.8892 50.0689C41.9566 49.9972 42.0447 49.9484 42.1412 49.9292H46.3128C46.4215 49.8908 46.5401 49.8908 46.6488 49.9292L49.4491 52.7295C49.5024 52.7786 49.5429 52.8399 49.5672 52.9081C49.5915 52.9764 49.5989 53.0495 49.5888 53.1212C49.5907 53.1908 49.5766 53.2598 49.5475 53.323C49.5183 53.3863 49.475 53.4419 49.4208 53.4855L49.1971 53.6819C44.8112 57.3383 39.9859 60.4327 34.8333 62.8935L35.3656 65.1614C35.4067 65.3364 35.4083 65.5183 35.3702 65.694C35.3321 65.8696 35.2552 66.0345 35.1453 66.1767C35.0353 66.3189 34.895 66.4347 34.7346 66.5157C34.5741 66.5967 34.3976 66.6409 34.218 66.6451L34.3576 66.8687ZM30.942 62.4724L34.2453 65.804C34.276 65.8315 34.3158 65.8466 34.3571 65.8466C34.3983 65.8466 34.4381 65.8315 34.4689 65.804C34.4895 65.7754 34.5006 65.7411 34.5006 65.7059C34.5006 65.6706 34.4895 65.6363 34.4689 65.6077L33.9093 63.1717C33.8652 62.9969 33.8829 62.8122 33.9594 62.6489C34.036 62.4857 34.1666 62.3539 34.3293 62.2761C39.3434 59.8482 44.0443 56.8206 48.3288 53.2598L46.0325 50.9635H42.2808L30.942 62.4724Z" fill="#FF6C37"/>
<path d="M27.3019 65.355L30.1022 62.5547L34.4145 66.867L27.555 66.3913C27.4372 66.3821 27.3253 66.3359 27.2354 66.2593C27.1454 66.1828 27.0819 66.0797 27.054 65.965C27.0261 65.8502 27.0351 65.7295 27.0798 65.6202C27.1245 65.5108 27.2026 65.4184 27.303 65.356L27.3019 65.355Z" fill="white"/>
<path d="M34.4958 67.288L27.6636 66.8123C27.2583 66.7745 26.9097 66.4973 26.7669 66.1267C26.6241 65.756 26.7112 65.3161 26.9916 65.02L29.7919 62.2196C29.8859 62.1289 30.0114 62.0781 30.1421 62.0781C30.2727 62.0781 30.3983 62.1289 30.4922 62.2196L34.7762 66.5036C34.8355 66.5849 34.8674 66.6829 34.8674 66.7834C34.8674 66.884 34.8355 66.982 34.7762 67.0633C34.7114 67.168 34.6123 67.247 34.4958 67.2869V67.288ZM27.6636 65.7203L33.2631 66.0847L30.1835 63.2003L27.6636 65.7203Z" fill="#FF6C37"/>
<path d="M46.6768 50.7699L41.0205 51.6382L44.2964 48.3906L46.6768 50.7699Z" fill="white"/>
<path d="M41.0206 52.1664C40.9266 52.1688 40.8339 52.1436 40.7542 52.0937C40.6745 52.0439 40.6112 51.9716 40.5722 51.886C40.5126 51.8049 40.4805 51.7069 40.4805 51.6062C40.4805 51.5055 40.5126 51.4075 40.5722 51.3264L43.8198 48.0504C43.9183 47.9578 44.0484 47.9062 44.1836 47.9062C44.3188 47.9062 44.4489 47.9578 44.5475 48.0504L46.9288 50.4297C46.9764 50.5051 47.0016 50.5925 47.0016 50.6817C47.0016 50.7709 46.9764 50.8582 46.9288 50.9337C46.9055 51.0256 46.8561 51.1089 46.7866 51.1735C46.7172 51.2381 46.6306 51.2814 46.5372 51.298L40.9376 52.1664H41.0206ZM44.2965 49.114L42.4769 50.9337L45.6132 50.458L44.2965 49.114Z" fill="#FF6C37"/>
<path d="M46.6767 50.7651L42.7288 51.2691C42.6232 51.2931 42.5126 51.2824 42.4135 51.2386C42.3144 51.1948 42.2321 51.1202 42.1787 51.026C42.1253 50.9317 42.1037 50.8227 42.1172 50.7152C42.1306 50.6077 42.1783 50.5074 42.2532 50.4291L44.2975 48.3848L46.6767 50.7651Z" fill="white"/>
<path d="M42.6171 51.8052C42.4341 51.8035 42.2548 51.7533 42.0975 51.6598C41.9402 51.5663 41.8105 51.4328 41.7215 51.2729C41.6145 51.0812 41.5731 50.8599 41.6034 50.6425C41.6337 50.4252 41.7342 50.2236 41.8895 50.0685L43.9338 48.0242C44.0323 47.9316 44.1624 47.8801 44.2976 47.8801C44.4328 47.8801 44.5629 47.9316 44.6614 48.0242L47.0418 50.4045C47.1126 50.4716 47.1624 50.5578 47.1852 50.6526C47.208 50.7474 47.2028 50.8468 47.1702 50.9387C47.1376 51.0306 47.0791 51.1111 47.0017 51.1704C46.9243 51.2298 46.8314 51.2653 46.7341 51.2729L42.8145 51.7769L42.6171 51.8052ZM42.6171 50.7689L45.5854 50.4045L44.2698 49.0889L42.5898 50.7689H42.6171ZM66.9769 30.525C66.9242 30.4367 66.8408 30.3708 66.7427 30.3398C66.6445 30.3088 66.5385 30.315 66.4446 30.357C66.3982 30.3805 66.357 30.4131 66.3235 30.4527C66.29 30.4924 66.2647 30.5384 66.2493 30.588C66.2181 30.6881 66.2279 30.7965 66.2766 30.8894C66.4729 31.302 66.4183 31.7903 66.1369 32.1494C66.102 32.184 66.0746 32.2254 66.0565 32.2712C66.0384 32.3169 66.0301 32.3659 66.0319 32.415C66.0329 32.5135 66.0703 32.6081 66.1369 32.6807C66.2088 32.709 66.2887 32.709 66.3606 32.6807C66.4258 32.697 66.4942 32.6952 66.5584 32.6754C66.6227 32.6556 66.6803 32.6186 66.7249 32.5683C66.9555 32.286 67.1015 31.9443 67.1461 31.5825C67.1907 31.2208 67.132 30.8538 66.9769 30.524V30.525Z" fill="#FF6C37"/>
<defs>
<radialGradient id="paint0_radial_1024_11601" cx="0" cy="0" r="1" gradientUnits="userSpaceOnUse" gradientTransform="translate(48 47.2802) rotate(90) scale(47.04)">
<stop stop-color="#333944"/>
<stop offset="1" stop-color="#222428"/>
</radialGradient>
</defs>
</svg>
