<svg width="95" height="95" viewBox="0 0 95 95" fill="none" xmlns="http://www.w3.org/2000/svg">
<rect x="1.49622" y="1.33606" width="92.736" height="92.736" rx="13.44" fill="url(#paint0_radial_1024_11640)"/>
<rect x="1.49622" y="1.33606" width="92.736" height="92.736" rx="13.44" stroke="#6886C3" stroke-width="1.344"/>
<path d="M81.4653 29.3702C81.4653 29.3702 59.0653 12.8872 41.737 16.691L40.4691 17.1136C37.9332 17.9589 35.82 19.2268 34.5521 20.9174L33.7068 22.1853L27.3672 33.174L38.3559 35.2872C43.0049 38.2457 48.9219 39.5136 54.4162 38.2457L73.8578 42.0495L81.4653 29.3702Z" fill="#76B3E1"/>
<path opacity="0.3" d="M81.4653 29.3702C81.4653 29.3702 59.0653 12.8872 41.737 16.691L40.4691 17.1136C37.9332 17.9589 35.82 19.2268 34.5521 20.9174L33.7068 22.1853L27.3672 33.174L38.3559 35.2872C43.0049 38.2457 48.9219 39.5136 54.4162 38.2457L73.8578 42.0495L81.4653 29.3702Z" fill="url(#paint1_linear_1024_11640)"/>
<path d="M34.5519 29.3687L32.8613 29.7914C25.6764 31.9046 23.5632 38.6668 27.367 44.5838C31.5934 50.0782 40.4688 53.0366 47.6537 50.9234L73.8575 42.048C73.8575 42.048 51.4575 25.5649 34.5519 29.3687Z" fill="#518AC8"/>
<path opacity="0.3" d="M34.5519 29.3687L32.8613 29.7914C25.6764 31.9046 23.5632 38.6668 27.367 44.5838C31.5934 50.0782 40.4688 53.0366 47.6537 50.9234L73.8575 42.048C73.8575 42.048 51.4575 25.5649 34.5519 29.3687Z" fill="url(#paint2_linear_1024_11640)"/>
<path d="M69.2081 48.3878C66.8418 45.4316 63.6471 43.2491 60.0329 42.1196C56.4187 40.9902 52.5497 40.9653 48.9213 42.0481L22.7175 50.501L14.2646 65.2934L61.6005 73.3236L70.0533 58.1085C71.7439 55.15 71.3213 51.7689 69.2081 48.3878Z" fill="url(#paint3_linear_1024_11640)"/>
<path d="M60.7552 63.1807C58.389 60.2246 55.1942 58.042 51.58 56.9126C47.9659 55.7832 44.0968 55.7583 40.4684 56.8411L14.2646 65.2939C14.2646 65.2939 36.6647 82.1996 53.993 77.9732L55.2609 77.5505C62.4458 75.4373 64.9816 68.6751 60.7552 63.1807Z" fill="url(#paint4_linear_1024_11640)"/>
<defs>
<radialGradient id="paint0_radial_1024_11640" cx="0" cy="0" r="1" gradientUnits="userSpaceOnUse" gradientTransform="translate(47.8642 47.7041) rotate(90) scale(47.04)">
<stop stop-color="#333944"/>
<stop offset="1" stop-color="#222428"/>
</radialGradient>
<linearGradient id="paint1_linear_1024_11640" x1="24.1974" y1="15.8457" x2="76.8163" y2="41.4155" gradientUnits="userSpaceOnUse">
<stop offset="0.1" stop-color="#76B3E1"/>
<stop offset="0.3" stop-color="#DCF2FD"/>
<stop offset="1" stop-color="#76B3E1"/>
</linearGradient>
<linearGradient id="paint2_linear_1024_11640" x1="53.0636" y1="28.3544" x2="43.85" y2="59.0382" gradientUnits="userSpaceOnUse">
<stop stop-color="#76B3E1"/>
<stop offset="0.5" stop-color="#4377BB"/>
<stop offset="1" stop-color="#1F3B77"/>
</linearGradient>
<linearGradient id="paint3_linear_1024_11640" x1="20.3507" y1="41.71" x2="73.5613" y2="77.8882" gradientUnits="userSpaceOnUse">
<stop stop-color="#315AA9"/>
<stop offset="0.5" stop-color="#518AC8"/>
<stop offset="1" stop-color="#315AA9"/>
</linearGradient>
<linearGradient id="paint4_linear_1024_11640" x1="44.3567" y1="46.0638" x2="22.8865" y2="124.802" gradientUnits="userSpaceOnUse">
<stop stop-color="#4377BB"/>
<stop offset="0.5" stop-color="#1A336B"/>
<stop offset="1" stop-color="#1A336B"/>
</linearGradient>
</defs>
</svg>
