<svg width="95" height="95" viewBox="0 0 95 95" fill="none" xmlns="http://www.w3.org/2000/svg">
<rect x="1.51184" y="1.04895" width="92.736" height="92.736" rx="13.44" fill="url(#paint0_radial_1024_11654)"/>
<rect x="1.51184" y="1.04895" width="92.736" height="92.736" rx="13.44" stroke="#6886C3" stroke-width="1.344"/>
<path d="M47.8803 27.2559C38.92 27.2559 33.3201 31.7347 31.0799 40.6916C34.4403 36.2128 38.3603 34.5338 42.8401 35.6531C45.3963 36.2918 47.2231 38.1463 49.2458 40.1984C52.5398 43.5411 56.3523 47.4099 64.6807 47.4099C73.6401 47.4099 79.2408 42.9311 81.4803 33.9733C78.1207 38.4522 74.2006 40.132 69.7201 39.0127C67.1647 38.374 65.3378 36.5195 63.3152 34.4674C60.0211 31.1247 56.2078 27.2559 47.8803 27.2559V27.2559ZM31.0799 47.4099C22.1204 47.4099 16.5197 51.8888 14.2803 60.8466C17.6399 56.3677 21.5599 54.6879 26.0405 55.808C28.5959 56.4475 30.4227 58.3012 32.4454 60.3525C35.7394 63.6952 39.5528 67.5649 47.8803 67.5649C56.8406 67.5649 62.4404 63.086 64.6807 54.1283C61.3203 58.6071 57.4002 60.2869 52.9205 59.1668C50.3642 58.529 48.5374 56.6736 46.5148 54.6224C43.2207 51.2796 39.4082 47.4099 31.0799 47.4099V47.4099Z" fill="#06B6D4"/>
<defs>
<radialGradient id="paint0_radial_1024_11654" cx="0" cy="0" r="1" gradientUnits="userSpaceOnUse" gradientTransform="translate(47.8798 47.417) rotate(90) scale(47.04)">
<stop stop-color="#333944"/>
<stop offset="1" stop-color="#222428"/>
</radialGradient>
</defs>
</svg>
