<svg width="95" height="95" viewBox="0 0 95 95" fill="none" xmlns="http://www.w3.org/2000/svg">
<rect x="1.05579" y="1.19934" width="92.736" height="92.736" rx="13.44" fill="url(#paint0_radial_1024_11582)"/>
<rect x="1.05579" y="1.19934" width="92.736" height="92.736" rx="13.44" stroke="#6886C3" stroke-width="1.344"/>
<g clip-path="url(#clip0_1024_11582)">
<path d="M58.4961 40.8516H70.2012V43.012H65.5579V54.3779H63.2361V43.012H58.4961V40.8516Z" fill="white"/>
<path d="M39.246 40.8516V43.012H29.8636V46.4875H37.409V48.648H29.8636V52.2174H39.246V54.3779H27.542V43.012H27.541V40.8516H39.246Z" fill="white"/>
<path d="M45.0901 40.8574H42.0518L52.9344 54.3837H55.9816L50.5396 47.6252L55.9729 40.8677L52.9344 40.8724L49.0184 45.736L45.0901 40.8574Z" fill="white"/>
<path d="M48.2088 50.5207L46.6872 48.6289L42.0439 54.3954H45.091L48.2088 50.5207Z" fill="white"/>
<path fill-rule="evenodd" clip-rule="evenodd" d="M27.6236 54.3776L16.7263 40.8457H13.8242V54.372H16.1459V43.7369L24.707 54.3776H27.6236Z" fill="white"/>
<path d="M70.7227 54.2958C70.5526 54.2958 70.408 54.2369 70.2869 54.1191C70.1658 54.0013 70.1059 53.8587 70.1075 53.6897C70.1059 53.5254 70.1658 53.3844 70.2869 53.2666C70.408 53.1488 70.5526 53.0898 70.7227 53.0898C70.8862 53.0898 71.0293 53.1488 71.1504 53.2666C71.2732 53.3844 71.3344 53.5254 71.3362 53.6897C71.3344 53.8013 71.3061 53.9036 71.2495 53.9951C71.1914 54.0881 71.1175 54.161 71.0245 54.2137C70.9333 54.2679 70.8327 54.2958 70.7227 54.2958Z" fill="white"/>
<path d="M74.6867 48.5977H75.7155V52.5613C75.7139 52.9256 75.6351 53.2372 75.4811 53.4991C75.3254 53.7611 75.1098 53.9611 74.833 54.1021C74.5577 54.2416 74.2352 54.3129 73.8687 54.3129C73.5335 54.3129 73.2332 54.2525 72.9657 54.1347C72.6983 54.0169 72.4859 53.8402 72.3302 53.6076C72.1728 53.3751 72.0957 53.0853 72.0957 52.738H73.1262C73.1278 52.8899 73.1624 53.0217 73.2284 53.1317C73.2944 53.2418 73.3856 53.3255 73.5021 53.3844C73.62 53.4433 73.7554 53.4728 73.9079 53.4728C74.0732 53.4728 74.2147 53.4387 74.3295 53.3689C74.4443 53.3007 74.5325 53.1984 74.5939 53.062C74.6536 52.9271 74.6851 52.7597 74.6867 52.5613V48.5977Z" fill="white"/>
<path d="M79.9473 50.1476C79.9222 49.9073 79.812 49.7197 79.6201 49.5864C79.4266 49.4516 79.1765 49.3849 78.8697 49.3849C78.6543 49.3849 78.4687 49.4175 78.3145 49.481C78.1603 49.5461 78.0408 49.6329 77.9589 49.743C77.8772 49.853 77.8363 49.9786 77.833 50.1197C77.833 50.2375 77.8613 50.3398 77.9164 50.425C77.9715 50.5118 78.0454 50.5847 78.1414 50.6436C78.2357 50.7041 78.3411 50.7537 78.4561 50.794C78.5724 50.8343 78.6889 50.8684 78.8052 50.8963L79.3416 51.028C79.5572 51.0776 79.7665 51.1443 79.9662 51.2295C80.1659 51.3133 80.3469 51.4202 80.5057 51.5489C80.6646 51.6775 80.7905 51.8325 80.8833 52.0139C80.9761 52.1953 81.0233 52.4076 81.0233 52.6525C81.0233 52.9827 80.9384 53.2726 80.7668 53.5237C80.5954 53.7733 80.3484 53.9686 80.0244 54.1097C79.7018 54.2492 79.3118 54.3205 78.8525 54.3205C78.4088 54.3205 78.0218 54.2523 77.6962 54.1159C77.3691 53.981 77.1141 53.7826 76.9301 53.5222C76.7461 53.2617 76.647 52.944 76.6328 52.5704H77.6522C77.6664 52.7657 77.7293 52.9285 77.8363 53.0602C77.9447 53.1904 78.0863 53.2865 78.2594 53.3516C78.4341 53.4152 78.629 53.4478 78.8446 53.4478C79.0696 53.4478 79.2678 53.4136 79.4392 53.347C79.6091 53.2803 79.7428 53.1873 79.8388 53.0664C79.9364 52.9471 79.9851 52.806 79.9867 52.6448C79.9851 52.4975 79.941 52.3751 79.856 52.279C79.7696 52.1829 79.65 52.1023 79.4973 52.0372C79.3433 51.9721 79.1639 51.9131 78.9594 51.862L78.3082 51.6977C77.8378 51.5783 77.465 51.397 77.1928 51.1536C76.9192 50.9102 76.7838 50.5878 76.7838 50.1832C76.7838 49.8515 76.875 49.5601 77.0592 49.3105C77.2415 49.0609 77.4917 48.8672 77.808 48.7292C78.1257 48.5897 78.4844 48.5215 78.8838 48.5215C79.2898 48.5215 79.6452 48.5897 79.952 48.7292C80.2587 48.8672 80.4995 49.0594 80.674 49.3043C80.8487 49.5492 80.9399 49.8298 80.9447 50.1476H79.9473Z" fill="white"/>
</g>
<defs>
<radialGradient id="paint0_radial_1024_11582" cx="0" cy="0" r="1" gradientUnits="userSpaceOnUse" gradientTransform="translate(47.4238 47.5673) rotate(90) scale(47.04)">
<stop stop-color="#333944"/>
<stop offset="1" stop-color="#222428"/>
</radialGradient>
<clipPath id="clip0_1024_11582">
<rect width="67.2" height="13.6447" fill="white" transform="translate(13.8242 40.8457)"/>
</clipPath>
</defs>
</svg>
