<svg width="95" height="95" viewBox="0 0 95 95" fill="none" xmlns="http://www.w3.org/2000/svg">
<rect x="1.49622" y="1.19934" width="92.736" height="92.736" rx="13.44" fill="url(#paint0_radial_1024_11577)"/>
<rect x="1.49622" y="1.19934" width="92.736" height="92.736" rx="13.44" stroke="#6886C3" stroke-width="1.344"/>
<path d="M76.1628 65.7554C72.5066 65.6628 69.6729 66.034 67.2962 67.0545C66.6106 67.3326 65.5135 67.3329 65.4221 68.2145C65.7878 68.5857 65.8335 69.1889 66.1535 69.699C66.7025 70.6267 67.6616 71.8795 68.5301 72.5293C69.4898 73.2714 70.4499 74.0136 71.455 74.6631C73.2377 75.7767 75.2489 76.426 76.9856 77.5396C77.9915 78.1886 78.9963 79.0244 80.0019 79.7201C80.5047 80.0907 80.8245 80.6945 81.4646 80.9262V80.7872C81.1444 80.3694 81.053 79.7665 80.7333 79.3025C80.2767 78.8385 79.8191 78.4209 79.362 77.9569C78.0367 76.1479 76.3914 74.5703 74.609 73.2714C73.1465 72.2507 69.9469 70.859 69.3529 69.1422C69.3529 69.1422 69.3069 69.0961 69.2615 69.0497C70.2668 68.9569 71.455 68.5857 72.4152 68.3073C73.969 67.8894 75.3858 67.9825 76.9856 67.5649C77.7167 67.3793 78.4481 67.1473 79.1792 66.9153V66.498C78.3569 65.6628 77.7627 64.5495 76.8942 63.7607C74.5633 61.7189 72.0035 59.7243 69.3529 58.0542C67.9359 57.1262 66.1075 56.5231 64.5993 55.7345C64.0514 55.4559 63.1369 55.3169 62.8172 54.853C61.9942 53.8325 61.5371 52.4872 60.9431 51.2808C59.618 48.7288 58.3379 45.899 57.1952 43.2084C56.3729 41.3989 55.8701 39.5893 54.8645 37.9195C50.1569 30.0325 45.038 25.254 37.1769 20.5679C35.4857 19.5938 33.4747 19.1762 31.3266 18.6661C30.1844 18.6195 29.0414 18.5269 27.8989 18.4803C27.1676 18.1555 26.4362 17.2742 25.7963 16.8566C23.1916 15.1862 16.4725 11.5679 14.553 16.3464C13.3188 19.3618 16.3814 22.3308 17.4322 23.8623C18.2098 24.9292 19.2149 26.1353 19.7634 27.3416C20.0833 28.1299 20.1745 28.9656 20.4945 29.8005C21.2261 31.8413 21.9112 34.1151 22.8714 36.0174C23.3742 36.9915 23.9224 38.012 24.5624 38.8936C24.928 39.4037 25.5677 39.636 25.7051 40.4709C25.0654 41.3989 25.0195 42.7909 24.6535 43.9506C23.0082 49.1931 23.6484 55.6881 25.9791 59.5387C26.7102 60.6981 28.4472 63.2506 30.7781 62.276C32.835 61.4411 32.3779 58.7966 32.9716 56.4769C33.1093 55.9196 33.0179 55.5489 33.2919 55.1778V55.2708C33.9318 56.5694 34.5715 57.8225 35.1657 59.1214C36.5827 61.3944 39.0505 63.7607 41.1072 65.3383C42.2045 66.1729 43.0727 67.6113 44.444 68.1217V67.9822H44.3523C44.078 67.5646 43.6667 67.3793 43.3012 67.0543C42.4787 66.2196 41.5643 65.1988 40.9246 64.2709C39.0053 61.6725 37.3138 58.7963 35.8056 55.8271C35.0746 54.3892 34.4344 52.8117 33.8404 51.3736C33.5659 50.8163 33.5659 49.9816 33.109 49.7035C32.4234 50.724 31.418 51.6056 30.9152 52.8581C30.0473 54.853 29.9556 57.3118 29.6356 59.8632C29.4528 59.9102 29.5439 59.8632 29.4525 59.9566C27.9903 59.5848 27.4875 58.0542 26.9388 56.755C25.5675 53.4613 25.3389 48.1723 26.5276 44.3682C26.8476 43.3938 28.2189 40.332 27.6704 39.404C27.3961 38.5224 26.4817 38.012 25.9791 37.3163C25.3851 36.4348 24.7449 35.3217 24.3338 34.3471C23.2368 31.749 22.6883 28.8725 21.5001 26.2745C20.9516 25.0681 19.9922 23.8159 19.2149 22.7023C18.3466 21.4498 17.3867 20.5679 16.7011 19.0834C16.4728 18.5733 16.1526 17.7381 16.5183 17.1814C16.6097 16.8102 16.7922 16.6712 17.1582 16.5784C17.7524 16.0678 19.4437 16.7174 20.0374 16.9958C21.7286 17.6912 23.1454 18.3413 24.5624 19.3154C25.202 19.7794 25.8877 20.661 26.7102 20.893H27.6701C29.1328 21.2175 30.7778 20.9858 32.1491 21.4031C34.5717 22.1916 36.7653 23.3516 38.7308 24.6044C44.7182 28.4549 49.6538 33.9295 52.9907 40.4709C53.5392 41.5376 53.7675 42.5125 54.2703 43.6255C55.2304 45.899 56.4186 48.2187 57.378 50.4456C58.3379 52.6258 59.2518 54.853 60.6231 56.6625C61.3088 57.6364 64.0508 58.147 65.285 58.6574C66.1992 59.0747 67.6162 59.4462 68.4387 59.9563C69.9926 60.9301 71.5464 62.0442 73.0091 63.1109C73.7405 63.6677 76.0255 64.8276 76.1628 65.7554V65.7554Z" fill="#00546B"/>
<path d="M29.5445 25.4375C28.7677 25.4375 28.2194 25.5308 27.6709 25.6698V25.7626H27.7623C28.1283 26.5049 28.7677 27.0153 29.2245 27.6646C29.5904 28.4068 29.9101 29.1494 30.2761 29.8918C30.3215 29.8451 30.3672 29.799 30.3672 29.799C31.0074 29.3347 31.3271 28.5926 31.3271 27.479C31.0529 27.1545 31.0072 26.8297 30.7786 26.5049C30.5046 26.0407 29.9101 25.809 29.5445 25.4375V25.4375Z" fill="#00546B"/>
<defs>
<radialGradient id="paint0_radial_1024_11577" cx="0" cy="0" r="1" gradientUnits="userSpaceOnUse" gradientTransform="translate(47.8642 47.5673) rotate(90) scale(47.04)">
<stop stop-color="#333944"/>
<stop offset="1" stop-color="#222428"/>
</radialGradient>
</defs>
</svg>
