<svg width="95" height="96" viewBox="0 0 95 96" fill="none" xmlns="http://www.w3.org/2000/svg">
<rect x="1.20813" y="1.64075" width="92.736" height="92.736" rx="13.44" fill="url(#paint0_radial_1024_11473)"/>
<rect x="1.20813" y="1.64075" width="92.736" height="92.736" rx="13.44" stroke="#6886C3" stroke-width="1.344"/>
<path fill-rule="evenodd" clip-rule="evenodd" d="M47.1764 14.4082C31.5228 14.4082 18.3866 25.1544 14.6895 39.6829C14.6645 39.7887 14.6475 39.8964 14.6475 40.0089C14.6475 40.8924 15.3626 41.6086 16.2446 41.6086H29.7603C30.4039 41.6086 30.9547 41.2237 31.2088 40.6742C33.9857 34.6172 40.0876 30.4072 47.1764 30.4072C56.8747 30.4072 64.741 38.2891 64.741 48.0086C64.741 57.7285 56.8747 65.6101 47.1764 65.6101C40.0876 65.6101 33.9881 61.3995 31.2112 55.3408L31.2088 55.3443C30.9547 54.7938 30.4039 54.4094 29.7603 54.4094H16.2446C15.3626 54.4094 14.6475 55.1237 14.6475 56.0096C14.6475 56.1189 14.6645 56.2234 14.6872 56.3282C18.3833 70.8576 31.5198 81.6082 47.1764 81.6082C65.6947 81.6082 80.7098 66.563 80.7098 48.0086C80.7098 29.4521 65.6947 14.4082 47.1764 14.4082ZM39.1914 48.0086C39.1914 43.5915 42.7674 40.0089 47.1764 40.0089C51.5852 40.0089 55.1596 43.5915 55.1596 48.0086C55.1596 52.426 51.5852 56.0096 47.1764 56.0096C42.7674 56.0096 39.1914 52.426 39.1914 48.0086Z" fill="white"/>
<defs>
<radialGradient id="paint0_radial_1024_11473" cx="0" cy="0" r="1" gradientUnits="userSpaceOnUse" gradientTransform="translate(47.5761 48.0088) rotate(90) scale(47.04)">
<stop stop-color="#333944"/>
<stop offset="1" stop-color="#222428"/>
</radialGradient>
</defs>
</svg>
