<svg width="96" height="96" viewBox="0 0 96 96" fill="none" xmlns="http://www.w3.org/2000/svg">
<rect x="1.61536" y="1.64075" width="92.736" height="92.736" rx="13.44" fill="url(#paint0_radial_1024_11482)"/>
<rect x="1.61536" y="1.64075" width="92.736" height="92.736" rx="13.44" stroke="#6886C3" stroke-width="1.344"/>
<path d="M47.9838 81.6082C66.5406 81.6082 81.5838 66.565 81.5838 48.0082C81.5838 29.4514 66.5406 14.4082 47.9838 14.4082C29.427 14.4082 14.3838 29.4514 14.3838 48.0082C14.3838 66.565 29.427 81.6082 47.9838 81.6082Z" fill="white" fill-opacity="0.965067" stroke="#FFFFFE" stroke-width="0.253984" stroke-linecap="round"/>
<path d="M70.1742 54.0151L53.9677 70.1892C53.9028 70.2541 53.8056 70.2865 53.7408 70.2541L31.6026 64.3225C31.5054 64.2901 31.4406 64.2252 31.4406 64.1604L25.4766 42.0547C25.4442 41.9575 25.4766 41.8927 25.5414 41.8278L41.7479 25.6537C41.8128 25.5889 41.91 25.5565 41.9748 25.5889L64.1129 31.5205C64.2102 31.5529 64.275 31.6177 64.275 31.6825L70.2066 53.7882C70.2714 53.8855 70.239 53.9503 70.1742 54.0151ZM48.4574 36.4148L26.7083 42.2168C26.6759 42.2168 26.6435 42.2816 26.6759 42.314L42.5907 58.1964C42.6231 58.2288 42.6879 58.2288 42.6879 58.164L48.5223 36.4473C48.5547 36.4473 48.4898 36.3824 48.4574 36.4148Z" fill="black"/>
<defs>
<radialGradient id="paint0_radial_1024_11482" cx="0" cy="0" r="1" gradientUnits="userSpaceOnUse" gradientTransform="translate(47.9834 48.0088) rotate(90) scale(47.04)">
<stop stop-color="#333944"/>
<stop offset="1" stop-color="#222428"/>
</radialGradient>
</defs>
</svg>
