<svg width="95" height="95" viewBox="0 0 95 95" fill="none" xmlns="http://www.w3.org/2000/svg">
<rect x="0.76868" y="1.33606" width="92.736" height="92.736" rx="13.44" fill="url(#paint0_radial_1024_11646)"/>
<rect x="0.76868" y="1.33606" width="92.736" height="92.736" rx="13.44" stroke="#6886C3" stroke-width="1.344"/>
<path d="M47.1884 52.039L35.447 45.8325L15.0655 35.0604C15.0467 35.0418 15.0097 35.0418 14.9909 35.0418C14.2468 34.6882 13.4839 35.4325 13.763 36.1767L24.1482 62.6642L24.15 62.6698C24.1612 62.6959 24.1705 62.7218 24.1817 62.7479C24.6079 63.7358 25.538 64.346 26.5502 64.586C26.6357 64.6047 26.6969 64.6215 26.7996 64.642C26.9021 64.6648 27.0452 64.6958 27.168 64.7052C27.1881 64.707 27.2068 64.707 27.2273 64.7088H27.2423C27.257 64.7108 27.272 64.7108 27.287 64.7125H27.3073C27.3204 64.7143 27.3352 64.7143 27.3484 64.7143H27.3725C27.3874 64.7163 27.4022 64.7163 27.4171 64.7163C40.5695 66.1503 53.8388 66.1503 66.9912 64.7163C67.1493 64.7163 67.3038 64.7088 67.4525 64.694L67.594 64.6773C67.5996 64.6753 67.607 64.6753 67.6125 64.6735C67.6442 64.6697 67.6757 64.6641 67.7074 64.6585C67.7539 64.6529 67.8005 64.6438 67.847 64.6344C67.9401 64.6139 67.9823 64.5991 68.1086 64.5556C68.2348 64.5123 68.4444 64.4364 68.5754 64.3732C68.7067 64.31 68.7976 64.2493 68.9074 64.1805C69.0431 64.0954 69.1752 64.0049 69.3035 63.909C69.36 63.8657 69.3986 63.8381 69.4394 63.799L69.4171 63.786L47.1884 52.039Z" fill="#FF4B4B"/>
<path d="M79.3451 35.0594H79.3266L58.9375 45.8315L70.2715 62.7117L80.6306 36.1757V36.1384C80.8911 35.357 80.0912 34.6502 79.3451 35.0594Z" fill="#7D353B"/>
<path d="M48.2753 29.9399C47.7542 29.1789 46.6194 29.1789 46.1171 29.9399L35.4473 45.834L47.1887 52.0405L69.44 63.8003C69.5797 63.6634 69.6918 63.5301 69.8101 63.3892C69.9834 63.178 70.1378 62.952 70.2716 62.7139L58.9376 45.834L48.2753 29.9399Z" fill="#BD4043"/>
<defs>
<radialGradient id="paint0_radial_1024_11646" cx="0" cy="0" r="1" gradientUnits="userSpaceOnUse" gradientTransform="translate(47.1367 47.7041) rotate(90) scale(47.04)">
<stop stop-color="#333944"/>
<stop offset="1" stop-color="#222428"/>
</radialGradient>
</defs>
</svg>
