<svg width="95" height="95" viewBox="0 0 95 95" fill="none" xmlns="http://www.w3.org/2000/svg">
<rect x="1.36048" y="1.06458" width="92.736" height="92.736" rx="13.44" fill="url(#paint0_radial_1024_11511)"/>
<rect x="1.36048" y="1.06458" width="92.736" height="92.736" rx="13.44" stroke="#6886C3" stroke-width="1.344"/>
<path fill-rule="evenodd" clip-rule="evenodd" d="M74.8371 13.832C76.8589 13.832 78.7304 14.9261 79.6786 16.7046C80.587 18.4081 80.5485 20.4156 79.5778 22.0819L79.5448 22.1379L71.0375 36.3691C70.0755 37.9783 68.3387 38.9827 66.4824 39.0042L66.4219 39.0045L56.7072 39.0044L60.745 48.2484L60.761 48.2755L60.7859 48.3191C61.7368 50.0378 61.7136 52.0812 60.7275 53.7742L60.6942 53.8305L52.187 68.0617C51.2249 69.671 49.4882 70.6754 47.632 70.6968L47.5715 70.6972L35.6479 70.6971L27.0762 79.7379L27.06 79.7547C26.2534 80.5746 25.1636 81.032 24.0273 81.032C23.7432 81.032 23.459 81.0033 23.1778 80.946C21.7918 80.663 20.6402 79.7119 20.0858 78.4002L20.0702 78.3627L15.5594 68.0077L15.5356 67.968L15.511 67.9253C15.5069 67.918 15.5027 67.9105 15.4984 67.9026C14.5475 66.1841 14.5705 64.1407 15.5565 62.4476L15.5897 62.3913L23.8409 48.5885L17.761 34.6695L17.8724 34.6128L17.8708 34.6044C17.6135 33.3241 17.8206 31.9889 18.4813 30.8194L18.5177 30.7558L18.5515 30.6987L27.0588 16.4674C28.0209 14.8582 29.7577 13.8538 31.6138 13.832H31.6744H74.8371ZM30.1671 70.5889L21.1281 70.5888L23.783 76.7301L23.7895 76.7464C23.8335 76.8564 23.9047 76.9166 24.0106 76.9384C24.1051 76.9579 24.1816 76.9379 24.2539 76.8719L24.2666 76.8596L30.1671 70.5889ZM56.0069 49.4753H28.6841C28.6539 49.4753 28.6237 49.4763 28.5936 49.4784L28.5853 49.479L36.077 66.6158H47.5701C48.0425 66.6158 48.4976 66.3629 48.7564 65.9567L48.777 65.9234L57.2965 51.6834C57.5507 51.2587 57.5788 50.7658 57.3774 50.3223C57.1452 49.8109 56.6063 49.4753 56.0069 49.4753ZM25.8438 52.9942L19.0821 64.3911C18.813 64.8447 18.7974 65.3759 19.0384 65.8434L19.0639 65.8909L19.0776 65.9142L19.1049 65.9589L19.1589 66.0393L19.2193 66.1178L19.2771 66.1838L19.2871 66.1945L19.3261 66.234L19.3601 66.2663C19.5728 66.4594 19.8357 66.5772 20.1257 66.6075L20.1908 66.613L20.2286 66.615L20.2764 66.6158H31.749L25.8438 52.9942ZM24.0658 39.032L27.0355 45.8428L27.0933 45.8231C27.6062 45.6515 28.1424 45.5585 28.6844 45.55L28.7658 45.5494L55.2505 45.5493L52.4089 39.0321L24.0658 39.032ZM74.7616 17.805H47.3413L54.8353 34.9455H66.3242C66.7975 34.9455 67.253 34.6925 67.5119 34.286L67.5325 34.2527L76.0526 20.013C76.3067 19.5884 76.3347 19.0959 76.1336 18.6528C75.9061 18.1519 75.3846 17.8194 74.7999 17.8055L74.7616 17.805ZM43.1437 17.805H31.7183C31.2485 17.805 30.7953 18.0575 30.5375 18.4633L30.517 18.4966L22.0193 32.7365C21.7656 33.1615 21.7376 33.6551 21.9388 34.0992C22.1653 34.5997 22.6841 34.9312 23.2653 34.9451L23.3033 34.9455H50.618L43.1437 17.805Z" fill="#4B39EF"/>
<defs>
<radialGradient id="paint0_radial_1024_11511" cx="0" cy="0" r="1" gradientUnits="userSpaceOnUse" gradientTransform="translate(47.7285 47.4326) rotate(90) scale(47.04)">
<stop stop-color="#333944"/>
<stop offset="1" stop-color="#222428"/>
</radialGradient>
</defs>
</svg>
