<svg width="95" height="95" viewBox="0 0 95 95" fill="none" xmlns="http://www.w3.org/2000/svg">
<rect x="0.935672" y="0.929812" width="92.736" height="92.736" rx="13.44" fill="url(#paint0_radial_1024_11446)"/>
<rect x="0.935672" y="0.929812" width="92.736" height="92.736" rx="13.44" stroke="#6886C3" stroke-width="1.344"/>
<path d="M33.618 44.7417C33.3096 44.3391 32.8543 44.0751 32.3518 44.0074C31.8492 43.9397 31.3403 44.0738 30.9364 44.3805C30.6988 44.5679 30.5071 44.8071 30.376 45.0798L13.9116 78.018C13.6784 78.4847 13.6401 79.025 13.8051 79.52C13.9701 80.0151 14.3249 80.4243 14.7916 80.6578C15.0643 80.7958 15.3659 80.8672 15.6715 80.8662H38.6105C38.978 80.8756 39.3401 80.7777 39.6527 80.5844C39.9653 80.3911 40.2147 80.1108 40.3705 79.7779C45.3214 69.5518 42.3203 54.0044 33.618 44.7417Z" fill="url(#paint1_linear_1024_11446)"/>
<path d="M45.7204 14.7661C41.616 21.0821 39.2239 28.3566 38.779 35.8759C38.3341 43.3952 39.8515 50.901 43.1824 57.657L54.2421 79.7763C54.4055 80.1032 54.6566 80.3782 54.9675 80.5704C55.2783 80.7626 55.6365 80.8645 56.002 80.8647H78.9365C79.1951 80.8653 79.4513 80.8148 79.6904 80.7161C79.9295 80.6174 80.1467 80.4724 80.3296 80.2895C80.5125 80.1066 80.6575 79.8894 80.7562 79.6503C80.8549 79.4112 80.9054 79.155 80.9048 78.8963C80.905 78.5913 80.8353 78.2903 80.701 78.0164L49.0689 14.7568C48.9187 14.4398 48.6817 14.172 48.3853 13.9844C48.0889 13.7968 47.7454 13.6973 47.3946 13.6973C47.0439 13.6973 46.7003 13.7968 46.4039 13.9844C46.1076 14.172 45.8705 14.4398 45.7204 14.7568V14.7661Z" fill="white"/>
<defs>
<radialGradient id="paint0_radial_1024_11446" cx="0" cy="0" r="1" gradientUnits="userSpaceOnUse" gradientTransform="translate(47.3037 47.2978) rotate(90) scale(47.04)">
<stop stop-color="#333944"/>
<stop offset="1" stop-color="#222428"/>
</radialGradient>
<linearGradient id="paint1_linear_1024_11446" x1="42.6776" y1="49.8571" x2="25.3268" y2="79.9594" gradientUnits="userSpaceOnUse">
<stop stop-color="white" stop-opacity="0.4"/>
<stop offset="0.9228" stop-color="white"/>
</linearGradient>
</defs>
</svg>
