<svg width="95" height="95" viewBox="0 0 95 95" fill="none" xmlns="http://www.w3.org/2000/svg">
<rect x="1.47962" y="1.33606" width="92.736" height="92.736" rx="13.44" fill="url(#paint0_radial_1024_11647)"/>
<rect x="1.47962" y="1.33606" width="92.736" height="92.736" rx="13.44" stroke="#6886C3" stroke-width="1.344"/>
<path fill-rule="evenodd" clip-rule="evenodd" d="M48.3044 79.8193C55.656 53.3678 55.4432 53.2496 60.7548 34.3931L62.0313 35.1354C62.7263 35.5372 63.2936 35.2063 63.2936 34.4026V25.4129C64.7024 20.444 65.8087 16.6051 66.1302 15.4492H71.8862L81.448 24.3657L75.1696 29.8262L79.9209 34.9935L48.6188 79.8193C48.4651 80.0722 48.2524 80.0155 48.2997 79.8193H48.3044Z" fill="white"/>
<path fill-rule="evenodd" clip-rule="evenodd" d="M51.7259 22.8161C52.0096 22.8161 52.2388 22.9721 52.2388 23.1706V27.7801C52.2388 27.9693 52.0261 28.13 51.7424 28.13H44.0126C43.729 28.13 43.4926 27.9716 43.4926 27.7754V23.1659C43.4926 22.9721 43.729 22.8161 44.0126 22.8161H51.7424H51.7259ZM61.2664 17.7101L52.7613 22.6506C52.8605 22.8042 52.9196 22.9815 52.9196 23.1706V27.7801C52.9196 28.0165 52.8251 28.2293 52.6596 28.4066L61.2404 33.3943C61.8077 33.7371 62.3041 33.4581 62.3041 32.7797V18.3318C62.3041 17.651 61.8077 17.3721 61.2404 17.7125L61.2664 17.7101ZM42.7976 27.7801V23.1706C42.7976 22.9815 42.8567 22.8042 42.9536 22.6506L34.4485 17.7101C33.8646 17.3721 33.3848 17.651 33.3848 18.3295V32.7726C33.3848 33.4581 33.8623 33.7181 34.4485 33.3872L43.0411 28.3995C42.8874 28.2104 42.7953 27.9976 42.7953 27.7612L42.7976 27.7801Z" fill="white"/>
<path fill-rule="evenodd" clip-rule="evenodd" d="M47.0725 79.822H47.3892C40.0377 53.3705 40.2504 53.2523 34.9412 34.3959L33.6647 35.1381C32.9698 35.54 32.4001 35.2091 32.4001 34.4054V25.4156C30.9841 20.4444 29.8731 16.6056 29.5422 15.4473H23.798L14.248 24.3661L20.5241 29.8266L15.7727 34.994L47.0701 79.8126L47.0725 79.822Z" fill="white"/>
<path d="M47.6143 37.7491C48.8963 37.7491 49.9356 36.7035 49.9356 35.4136C49.9356 34.1238 48.8963 33.0781 47.6143 33.0781C46.3323 33.0781 45.293 34.1238 45.293 35.4136C45.293 36.7035 46.3323 37.7491 47.6143 37.7491Z" fill="white"/>
<path d="M47.6143 51.6417C48.8963 51.6417 49.9356 50.596 49.9356 49.3062C49.9356 48.0163 48.8963 46.9707 47.6143 46.9707C46.3323 46.9707 45.293 48.0163 45.293 49.3062C45.293 50.596 46.3323 51.6417 47.6143 51.6417Z" fill="white"/>
<path d="M47.6143 65.5323C48.8963 65.5323 49.9356 64.4867 49.9356 63.1968C49.9356 61.907 48.8963 60.8613 47.6143 60.8613C46.3323 60.8613 45.293 61.907 45.293 63.1968C45.293 64.4867 46.3323 65.5323 47.6143 65.5323Z" fill="white"/>
<defs>
<radialGradient id="paint0_radial_1024_11647" cx="0" cy="0" r="1" gradientUnits="userSpaceOnUse" gradientTransform="translate(47.8476 47.7041) rotate(90) scale(47.04)">
<stop stop-color="#333944"/>
<stop offset="1" stop-color="#222428"/>
</radialGradient>
</defs>
</svg>
