<svg width="95" height="95" viewBox="0 0 95 95" fill="none" xmlns="http://www.w3.org/2000/svg">
<rect x="0.76868" y="0.929812" width="92.736" height="92.736" rx="13.44" fill="url(#paint0_radial_1024_11457)"/>
<rect x="0.76868" y="0.929812" width="92.736" height="92.736" rx="13.44" stroke="#6886C3" stroke-width="1.344"/>
<path fill-rule="evenodd" clip-rule="evenodd" d="M72.2892 27.4114L51.0687 14.8156C49.8358 14.0836 48.4285 13.6973 46.9947 13.6973C45.5609 13.6973 44.1535 14.0836 42.9207 14.8156L21.696 27.4114C20.4345 28.1641 19.3907 29.2321 18.6672 30.5105C17.9437 31.7889 17.5654 33.2336 17.5695 34.7026V59.8942C17.5617 61.3597 17.9346 62.8021 18.6517 64.0802C19.3687 65.3583 20.4054 66.4283 21.6603 67.1854L42.8808 79.7812C44.1136 80.5132 45.521 80.8995 46.9548 80.8995C48.3886 80.8995 49.7959 80.5132 51.0288 79.7812L72.2535 67.1854C73.5083 66.4283 74.545 65.3583 75.2621 64.0802C75.9792 62.8021 76.3521 61.3597 76.3443 59.8942V34.7026C76.356 33.2407 75.9888 31.8007 75.2785 30.5229C74.5682 29.2451 73.5391 28.1731 72.2913 27.4114H72.2892ZM55.8525 66.7486V68.5546C55.8511 68.6659 55.822 68.7751 55.7677 68.8723C55.7135 68.9695 55.6357 69.0516 55.5417 69.1111L54.4665 69.7264C54.2985 69.8146 54.1557 69.7264 54.1557 69.4891V67.7104C53.3966 68.0834 52.5279 68.1677 51.7113 67.9477C51.5811 67.8595 51.5307 67.6915 51.5937 67.5277L51.978 65.8897C52.01 65.7511 52.085 65.6262 52.1922 65.5327C52.2227 65.5024 52.2582 65.4775 52.2972 65.4592C52.3512 65.4381 52.4111 65.4381 52.4652 65.4592C53.2147 65.6604 54.0133 65.5594 54.6891 65.1778C55.1691 64.9433 55.5768 64.5833 55.8688 64.136C56.1609 63.6886 56.3265 63.1706 56.3481 62.6368C56.3481 61.717 55.8441 61.3348 54.6261 61.3243C53.0847 61.3243 51.6861 61.0303 51.6231 58.7539C51.6407 57.7821 51.8731 56.8262 52.3037 55.9548C52.7343 55.0835 53.3524 54.3182 54.1137 53.7139V51.8827C54.1179 51.7711 54.1482 51.662 54.2021 51.5643C54.2561 51.4666 54.3323 51.3828 54.4245 51.3199L55.4619 50.6605C55.6299 50.5723 55.7727 50.6605 55.7727 50.9041V52.7353C56.4082 52.4464 57.1175 52.3613 57.8034 52.4917C57.9504 52.5757 58.0092 52.7605 57.9378 52.9117L57.5745 54.535C57.5333 54.7033 57.4297 54.8497 57.2847 54.9445C57.2427 54.9697 57.1797 54.9613 57.1293 54.9445C56.4607 54.7981 55.7615 54.9122 55.1742 55.2637C54.7458 55.4484 54.3789 55.7514 54.1163 56.137C53.8538 56.5226 53.7064 56.9751 53.6916 57.4414C53.6916 58.2709 54.1284 58.5229 55.5963 58.5544C57.5598 58.5544 58.404 59.4427 58.4271 61.4146C58.4085 62.4342 58.1683 63.4377 57.7229 64.3551C57.2776 65.2726 56.6379 66.0822 55.8483 66.7276L55.8525 66.7486ZM66.9678 63.7036C66.9805 63.78 66.9719 63.8584 66.943 63.9302C66.9141 64.0021 66.866 64.0646 66.804 64.111L61.4595 67.3702C61.4091 67.4122 61.3335 67.4185 61.2768 67.3849C61.2201 67.3513 61.1928 67.2799 61.2075 67.2169V65.8309C61.2111 65.7568 61.236 65.6853 61.2792 65.6249C61.3224 65.5646 61.3821 65.518 61.4511 65.4907L66.7347 62.326C66.7851 62.284 66.8607 62.2777 66.9174 62.3113C66.9741 62.3449 67.0014 62.4163 66.9867 62.4793V63.7015L66.9678 63.7036ZM70.6743 32.7244L50.5941 45.127C48.0888 46.6096 46.2471 48.2308 46.2471 51.2464V75.9802C46.2471 77.7862 46.9884 78.9202 48.0993 79.2982C47.7321 79.3667 47.3597 79.404 46.9863 79.4095C45.8069 79.4068 44.65 79.087 43.6368 78.4834L22.4163 65.8897C21.383 65.2697 20.5293 64.391 19.9393 63.3403C19.3494 62.2897 19.0435 61.1033 19.0521 59.8984V34.7026C19.0425 33.496 19.3478 32.3078 19.9378 31.2553C20.5278 30.2028 21.382 29.3223 22.4163 28.7008L43.6368 16.105C45.6948 14.887 48.2484 14.887 50.3064 16.105L71.5269 28.7008C73.2762 29.7592 74.4669 31.5358 74.7861 33.5308C74.0973 32.0335 72.5118 31.6408 70.6659 32.7013H70.6722L70.6743 32.7244Z" fill="white"/>
<defs>
<radialGradient id="paint0_radial_1024_11457" cx="0" cy="0" r="1" gradientUnits="userSpaceOnUse" gradientTransform="translate(47.1367 47.2978) rotate(90) scale(47.04)">
<stop stop-color="#333944"/>
<stop offset="1" stop-color="#222428"/>
</radialGradient>
</defs>
</svg>
