<svg width="96" height="95" viewBox="0 0 96 95" fill="none" xmlns="http://www.w3.org/2000/svg">
<rect x="1.63196" y="1.06458" width="92.736" height="92.736" rx="13.44" fill="url(#paint0_radial_1024_11517)"/>
<rect x="1.63196" y="1.06458" width="92.736" height="92.736" rx="13.44" stroke="#6886C3" stroke-width="1.344"/>
<path d="M48.0005 14.5039C29.4461 14.5039 14.4004 29.547 14.4004 48.104C14.4004 62.9497 24.0278 75.5444 37.3783 79.9873C39.0574 80.2983 39.6741 79.2584 39.6741 78.3709C39.6741 77.5698 39.6427 74.9227 39.6285 72.1152C30.2806 74.1477 28.3082 68.1508 28.3082 68.1508C26.7798 64.267 24.5775 63.2346 24.5775 63.2346C21.5291 61.1491 24.8073 61.1918 24.8073 61.1918C28.1814 61.4289 29.9581 64.6544 29.9581 64.6544C32.9548 69.7912 37.8184 68.306 39.7357 67.4477C40.0372 65.2758 40.9081 63.7938 41.8689 62.9547C34.406 62.1049 26.5605 59.2238 26.5605 46.3493C26.5605 42.6811 27.8731 39.6835 30.0227 37.3305C29.6738 36.4841 28.5238 33.0668 30.3481 28.4386C30.3481 28.4386 33.1696 27.5355 39.5905 31.8828C42.2705 31.1381 45.145 30.7649 48.0005 30.7523C50.856 30.7649 53.7326 31.1381 56.4179 31.8828C62.8312 27.5355 65.6487 28.4386 65.6487 28.4386C67.4776 33.0668 66.327 36.4841 65.9781 37.3305C68.1324 39.6835 69.436 42.6808 69.436 46.3493C69.436 59.2544 61.5758 62.0962 54.0939 62.9278C55.299 63.9706 56.3728 66.0155 56.3728 69.1501C56.3728 73.6457 56.3338 77.2641 56.3338 78.3709C56.3338 79.265 56.9386 80.3128 58.642 79.9829C71.9851 75.5349 81.6004 62.9447 81.6004 48.104C81.6004 29.547 66.5568 14.5039 48.0005 14.5039Z" fill="white"/>
<path d="M26.9839 62.3666C26.9101 62.5335 26.6471 62.5835 26.4081 62.4692C26.1644 62.3595 26.0273 62.1318 26.1064 61.9642C26.1789 61.7924 26.4419 61.7445 26.6851 61.8599C26.9294 61.9693 27.0685 62.199 26.9839 62.3666V62.3666ZM28.6367 63.8413C28.4765 63.9899 28.1632 63.9209 27.9505 63.6861C27.7307 63.4518 27.6896 63.1388 27.8522 62.9878C28.0174 62.8394 28.3213 62.9087 28.5416 63.1432C28.7614 63.3801 28.8041 63.6914 28.6365 63.8416L28.6367 63.8413ZM29.7707 65.7281C29.5646 65.8712 29.2278 65.7371 29.0199 65.4382C28.8141 65.1397 28.8141 64.7813 29.0244 64.6377C29.2331 64.494 29.5646 64.6232 29.7754 64.9196C29.9809 65.2235 29.9809 65.5819 29.7704 65.7284L29.7707 65.7281ZM31.688 67.9135C31.5038 68.1164 31.1117 68.0621 30.8245 67.7849C30.5309 67.514 30.449 67.1295 30.6337 66.9263C30.82 66.7229 31.2145 66.7801 31.5038 67.0549C31.7955 67.3253 31.8846 67.7127 31.6883 67.9135H31.688ZM34.1662 68.6513C34.0853 68.9143 33.7074 69.034 33.3269 68.9222C32.9469 68.8071 32.6981 68.4988 32.7748 68.2329C32.8538 67.968 33.2333 67.8434 33.6167 67.963C33.9962 68.0777 34.2455 68.3836 34.1664 68.6513H34.1662ZM36.9869 68.9641C36.9964 69.2414 36.6736 69.4712 36.2741 69.4762C35.8722 69.4849 35.5473 69.2606 35.5431 68.9881C35.5431 68.7083 35.8585 68.4806 36.2601 68.474C36.6596 68.4661 36.9869 68.6888 36.9869 68.9641V68.9641ZM39.7576 68.8579C39.8055 69.1283 39.5278 69.4061 39.1312 69.4798C38.7412 69.551 38.3801 69.3842 38.3303 69.1162C38.2818 68.839 38.5649 68.5615 38.9541 68.4895C39.3515 68.4205 39.707 68.5831 39.7576 68.8579" fill="white"/>
<defs>
<radialGradient id="paint0_radial_1024_11517" cx="0" cy="0" r="1" gradientUnits="userSpaceOnUse" gradientTransform="translate(48 47.4326) rotate(90) scale(47.04)">
<stop stop-color="#333944"/>
<stop offset="1" stop-color="#222428"/>
</radialGradient>
</defs>
</svg>
