<svg width="95" height="95" viewBox="0 0 95 95" fill="none" xmlns="http://www.w3.org/2000/svg">
<rect x="1.47962" y="1.21497" width="92.736" height="92.736" rx="13.44" fill="url(#paint0_radial_1024_11437)"/>
<rect x="1.47962" y="1.21497" width="92.736" height="92.736" rx="13.44" stroke="#6886C3" stroke-width="1.344"/>
<path d="M78.312 72.7726C78.3369 77.3864 74.616 81.1432 70.005 81.1681C69.6622 81.1708 69.3167 81.1515 68.9766 81.11C64.6974 80.477 61.5626 76.7533 61.6676 72.4298V22.7201C61.5653 18.3911 64.7084 14.6674 68.9905 14.0399C73.5711 13.5036 77.7204 16.7822 78.2567 21.3628C78.2954 21.7001 78.3147 22.0373 78.312 22.3773V72.7726Z" fill="#F9AB00"/>
<path d="M25.932 64.5327C30.5292 64.5327 34.2557 68.2591 34.2557 72.8563C34.2557 77.4536 30.5292 81.18 25.932 81.18C21.3348 81.18 17.6084 77.4536 17.6084 72.8563C17.6084 68.2591 21.3348 64.5327 25.932 64.5327ZM47.8317 39.3075C43.2123 39.5618 39.6297 43.4347 39.7375 48.0596V70.4154C39.7375 76.4833 42.4079 80.1655 46.3195 80.9505C50.8338 81.8656 55.232 78.9491 56.147 74.4348C56.2604 73.8819 56.3156 73.3208 56.3129 72.7568V47.6726C56.3212 43.0588 52.5892 39.313 47.9754 39.3047C47.9284 39.3047 47.8787 39.3047 47.8317 39.3075Z" fill="#E37400"/>
<defs>
<radialGradient id="paint0_radial_1024_11437" cx="0" cy="0" r="1" gradientUnits="userSpaceOnUse" gradientTransform="translate(47.8476 47.583) rotate(90) scale(47.04)">
<stop stop-color="#333944"/>
<stop offset="1" stop-color="#222428"/>
</radialGradient>
</defs>
</svg>
