<svg width="95" height="95" viewBox="0 0 95 95" fill="none" xmlns="http://www.w3.org/2000/svg">
<rect x="1.04016" y="1.19934" width="92.736" height="92.736" rx="13.44" fill="url(#paint0_radial_1024_11589)"/>
<rect x="1.04016" y="1.19934" width="92.736" height="92.736" rx="13.44" stroke="#6886C3" stroke-width="1.344"/>
<path d="M51.5084 70.1906H76.4895C77.2829 70.1907 78.0624 69.9838 78.7496 69.5905C79.4367 69.1973 80.0072 68.6317 80.4038 67.9505C80.8004 67.2694 81.0089 66.4968 81.0086 65.7104C81.0083 64.9241 80.7989 64.1516 80.4018 63.4708L63.6252 34.6708C63.2287 33.9899 62.6583 33.4244 61.9713 33.0312C61.2843 32.638 60.505 32.431 59.7117 32.431C58.9184 32.431 58.1391 32.638 57.4521 33.0312C56.7651 33.4244 56.1947 33.9899 55.7981 34.6708L51.5084 42.0398L43.1213 27.6301C42.7244 26.9492 42.1538 26.3838 41.4665 25.9907C40.7794 25.5976 40 25.3906 39.2065 25.3906C38.4131 25.3906 37.6337 25.5976 36.9464 25.9907C36.2593 26.3838 35.6886 26.9492 35.2918 27.6301L14.4154 63.4708C14.0182 64.1516 13.8089 64.9241 13.8086 65.7104C13.8083 66.4968 14.0168 67.2694 14.4134 67.9505C14.81 68.6317 15.3805 69.1973 16.0676 69.5905C16.7548 69.9838 17.5343 70.1907 18.3277 70.1906H34.0088C40.2218 70.1906 44.8036 67.4858 47.9564 62.2088L55.6107 49.0708L59.7104 42.0398L72.0148 63.1595H55.6107L51.5084 70.1906ZM33.7531 63.1523L22.8098 63.1499L39.2139 34.9917L47.3989 49.0708L41.9187 58.481C39.825 61.9049 37.4463 63.1523 33.7531 63.1523Z" fill="#00DC82"/>
<defs>
<radialGradient id="paint0_radial_1024_11589" cx="0" cy="0" r="1" gradientUnits="userSpaceOnUse" gradientTransform="translate(47.4082 47.5673) rotate(90) scale(47.04)">
<stop stop-color="#333944"/>
<stop offset="1" stop-color="#222428"/>
</radialGradient>
</defs>
</svg>
