<svg width="95" height="95" viewBox="0 0 95 95" fill="none" xmlns="http://www.w3.org/2000/svg">
<rect x="0.752078" y="1.35169" width="92.736" height="92.736" rx="13.44" fill="url(#paint0_radial_1024_11506)"/>
<rect x="0.752078" y="1.35169" width="92.736" height="92.736" rx="13.44" stroke="#6886C3" stroke-width="1.344"/>
<path d="M35.9207 81.3179C42.1031 81.3179 47.1207 76.3003 47.1207 70.1179V58.918H35.9207C29.7383 58.918 24.7207 63.9356 24.7207 70.1179C24.7207 76.3003 29.7383 81.3179 35.9207 81.3179Z" fill="#0ACF83"/>
<path d="M24.7207 47.7195C24.7207 41.5371 29.7383 36.5195 35.9207 36.5195H47.1207V58.9195H35.9207C29.7383 58.9195 24.7207 53.9019 24.7207 47.7195Z" fill="#A259FF"/>
<path d="M24.7207 25.3191C24.7207 19.1367 29.7383 14.1191 35.9207 14.1191H47.1207V36.5191H35.9207C29.7383 36.5191 24.7207 31.5015 24.7207 25.3191Z" fill="#F24E1E"/>
<path d="M47.1201 14.1191H58.3201C64.5025 14.1191 69.5202 19.1367 69.5202 25.3191C69.5202 31.5015 64.5025 36.5191 58.3201 36.5191H47.1201V14.1191Z" fill="#FF7262"/>
<path d="M69.5202 47.7195C69.5202 53.9019 64.5025 58.9195 58.3201 58.9195C52.1377 58.9195 47.1201 53.9019 47.1201 47.7195C47.1201 41.5371 52.1377 36.5195 58.3201 36.5195C64.5025 36.5195 69.5202 41.5371 69.5202 47.7195Z" fill="#1ABCFE"/>
<defs>
<radialGradient id="paint0_radial_1024_11506" cx="0" cy="0" r="1" gradientUnits="userSpaceOnUse" gradientTransform="translate(47.1201 47.7197) rotate(90) scale(47.04)">
<stop stop-color="#333944"/>
<stop offset="1" stop-color="#222428"/>
</radialGradient>
</defs>
</svg>
