<svg width="96" height="96" viewBox="0 0 96 96" fill="none" xmlns="http://www.w3.org/2000/svg">
<rect x="1.64856" y="1.62512" width="92.736" height="92.736" rx="13.44" fill="url(#paint0_radial_1024_11615)"/>
<rect x="1.64856" y="1.62512" width="92.736" height="92.736" rx="13.44" stroke="#6886C3" stroke-width="1.344"/>
<path d="M72.9091 56.4501V59.5224H78.4596C79.5969 59.5224 81.5489 58.6906 81.6168 56.3652V55.177C81.6168 53.1911 79.9873 52.0199 78.4596 52.0199H75.6928V50.5941H81.1754V47.5048H75.9135C74.5556 47.5048 72.7394 48.6251 72.7394 50.7129V51.7822C72.7394 53.87 74.5386 54.9394 75.9135 54.9394C79.7327 54.9564 74.9969 54.9394 78.5275 54.9394V56.4331L72.9091 56.4501ZM43.1707 55.7032C43.1707 55.7032 46.1411 55.4486 46.1411 51.6125C46.1411 47.7764 42.5427 47.4199 42.5427 47.4199H36.0586V59.5224H39.3176V56.6028L42.1353 59.5224H46.9559L43.1707 55.7032V55.7032ZM41.9146 53.225H39.3176V50.4583H41.9316C41.9316 50.4583 42.6615 50.7298 42.6615 51.8332C42.6615 52.9365 41.9146 53.225 41.9146 53.225V53.225ZM54.1868 47.5048H50.8769C48.5175 47.5048 47.7197 49.6435 47.7197 50.662V59.5224H51.0296V57.4006H54.1359V59.5224H57.344V50.662C57.344 48.0819 55.0016 47.5048 54.1868 47.5048V47.5048ZM54.1359 53.9719H51.0127V51.0354C51.0127 51.0354 51.0127 50.3734 52.0481 50.3734H53.1853C54.1019 50.3734 54.1189 51.0354 54.1189 51.0354V53.9719H54.1359V53.9719ZM58.8547 47.5048H62.3004V59.5224H58.8547V47.5048ZM67.138 56.4161V47.5048H63.7092V59.5224H71.7719V56.4161H67.138Z" fill="#CC0000"/>
<path d="M15.6055 59.5238H29.0149C29.0149 59.5238 26.4518 47.8288 34.9388 43.093C36.789 42.1934 42.679 38.8326 52.3202 45.9616C52.6257 45.707 52.9143 45.5033 52.9143 45.5033C52.9143 45.5033 44.0878 36.6938 34.2599 37.6783C29.3204 38.1197 23.2438 42.6178 19.6792 48.5587C16.1147 54.4995 15.6055 59.5238 15.6055 59.5238Z" fill="#CC0000"/>
<path d="M15.6055 59.5238H29.0149C29.0149 59.5238 26.4518 47.8288 34.9388 43.093C36.789 42.1934 42.679 38.8326 52.3202 45.9616C52.6257 45.707 52.9143 45.5033 52.9143 45.5033C52.9143 45.5033 44.0878 36.6938 34.2599 37.6783C29.3204 38.1197 23.2438 42.6178 19.6792 48.5587C16.1147 54.4995 15.6055 59.5238 15.6055 59.5238Z" fill="#CC0000"/>
<path d="M15.6055 59.5228H29.0149C29.0149 59.5228 26.4518 47.8277 34.9388 43.092C36.789 42.1924 42.679 38.8315 52.3202 45.9606C52.6257 45.706 52.9143 45.5023 52.9143 45.5023C52.9143 45.5023 44.0878 36.6928 34.2599 37.6773C29.3035 38.1186 23.2268 42.6167 19.6623 48.5576C16.0977 54.4985 15.6055 59.5228 15.6055 59.5228ZM43.5446 38.6278L43.6125 37.4906C43.4598 37.4057 43.0354 37.202 41.9661 36.8965L41.8982 38.0168C42.4583 38.2035 43.0015 38.4072 43.5446 38.6278Z" fill="#CC0000"/>
<path d="M41.9318 42.2258L41.8639 43.2952C42.4241 43.3122 42.9842 43.3801 43.5444 43.4989L43.6122 42.4465C43.0351 42.3277 42.475 42.2598 41.9318 42.2258ZM35.6514 36.9299H35.8212L35.4817 35.8945C34.9555 35.8945 34.4123 35.9285 33.8522 35.9964L34.1747 36.9978C34.667 36.9469 35.1592 36.9299 35.6514 36.9299V36.9299ZM36.4662 43.1764L36.8566 44.3476C37.3488 44.1099 37.8411 43.9063 38.3333 43.7535L37.9599 42.6332C37.3828 42.8029 36.8905 42.9897 36.4662 43.1764ZM28.76 38.7122L27.9962 37.541C27.5718 37.7617 27.1305 37.9993 26.6722 38.2709L27.453 39.4591C27.8943 39.1875 28.3187 38.9329 28.76 38.7122ZM32.2397 46.3505L33.0544 47.5726C33.343 47.1483 33.6825 46.7579 34.0559 46.3675L33.2921 45.2132C32.9017 45.5697 32.5452 45.9601 32.2397 46.3505ZM29.7784 51.8161L31.1533 52.9025C31.2212 52.2405 31.3401 51.5785 31.5098 50.9165L30.2877 49.949C30.067 50.577 29.9142 51.2051 29.7784 51.8161V51.8161ZM22.3438 43.7535L21.1387 42.7011C20.6974 43.1254 20.273 43.5498 19.8826 43.9741L21.1896 45.0944C21.5461 44.6361 21.9365 44.1778 22.3438 43.7535ZM17.2177 51.3409L15.2657 50.628C14.9432 51.3578 14.5867 52.2065 14.417 52.6648L16.369 53.3777C16.5897 52.8006 16.9461 51.9689 17.2177 51.3409ZM29.5238 56.1275C29.5578 57.0271 29.6427 57.757 29.7275 58.2662L31.7644 58.9961C31.6116 58.3341 31.4589 57.5873 31.357 56.7895L29.5238 56.1275Z" fill="#CC0000"/>
<defs>
<radialGradient id="paint0_radial_1024_11615" cx="0" cy="0" r="1" gradientUnits="userSpaceOnUse" gradientTransform="translate(48.0166 47.9931) rotate(90) scale(47.04)">
<stop stop-color="#333944"/>
<stop offset="1" stop-color="#222428"/>
</radialGradient>
</defs>
</svg>
