<svg width="96" height="95" viewBox="0 0 96 95" fill="none" xmlns="http://www.w3.org/2000/svg">
<rect x="1.61536" y="0.912234" width="92.736" height="92.736" rx="13.44" fill="url(#paint0_radial_1024_11608)"/>
<rect x="1.61536" y="0.912234" width="92.736" height="92.736" rx="13.44" stroke="#6886C3" stroke-width="1.344"/>
<path d="M70.6159 39.3498C70.511 37.042 70.8257 34.9965 69.7767 33.2657C67.2591 28.9648 60.9653 26.4473 48.3775 26.4473V26.8144H48.1152H48.3775V26.4473C35.7897 26.4473 29.1811 28.9648 26.6636 33.3181C25.667 35.1014 25.7719 37.0944 25.6146 39.4022C25.5097 41.2379 24.6705 43.1785 25.0376 45.2765C25.4572 48.0039 25.6146 50.7312 26.0342 53.2488C26.3489 55.2943 29.1811 57.0251 29.4434 58.9657C30.1777 64.3155 35.7373 66.7806 48.325 66.7806V67.2002H48.0103H48.3775V66.7806C60.9653 66.7806 66.3151 64.3155 66.9969 58.9657C67.2591 56.9727 69.8816 55.2943 70.1963 53.2488C70.6159 50.7312 70.7732 48.0039 71.1928 45.2765C71.56 43.1785 70.7208 41.1855 70.6159 39.3498V39.3498Z" fill="#EFCCA3"/>
<path d="M48.1664 41.2402C50.4217 41.2927 51.9952 42.7088 53.4638 44.02C55.1946 45.5411 58.1318 46.59 59.3381 47.9013C60.5444 49.2125 62.1179 50.5237 62.6948 52.5692C63.2718 54.6148 63.4291 57.2372 63.4291 57.9191C63.4291 58.6009 63.7963 58.4436 64.8452 57.9191C67.3104 56.7127 70.0377 53.4609 70.0377 53.4609C69.723 55.5064 67.0481 57.3421 66.7859 59.2827C66.1565 64.6326 60.964 67.2026 48.114 67.2026H48.0615H48.3762" fill="#CCAC8D"/>
<path d="M56.4549 37.1458C56.927 38.7717 58.6054 44.2789 55.3535 42.4432C55.3535 42.4432 56.7172 43.2299 57.5564 46.2195C58.448 49.2091 60.5984 49.5762 60.5984 49.5762C60.5984 49.5762 64.1125 50.2581 66.735 48.0028C68.9378 46.1146 69.305 42.7579 68.3609 40.1878C67.4168 37.6703 65.7384 36.8835 63.2733 36.3591C60.8082 35.7821 55.878 35.3101 56.4549 37.1458V37.1458Z" fill="#CCAC8D"/>
<path d="M62.6956 47.7408C65.2447 47.7408 67.3111 45.6744 67.3111 43.1253C67.3111 40.5762 65.2447 38.5098 62.6956 38.5098C60.1465 38.5098 58.0801 40.5762 58.0801 43.1253C58.0801 45.6744 60.1465 47.7408 62.6956 47.7408Z" fill="black"/>
<path d="M61.4896 42.2876C62.1558 42.2876 62.6959 41.7476 62.6959 41.0813C62.6959 40.4151 62.1558 39.875 61.4896 39.875C60.8233 39.875 60.2832 40.4151 60.2832 41.0813C60.2832 41.7476 60.8233 42.2876 61.4896 42.2876Z" fill="white"/>
<path d="M55.6684 42.918C55.6684 42.918 59.8118 45.7502 62.0671 48.53C64.3224 51.3098 64.27 51.8343 64.27 51.8343L62.6441 52.5686C62.6441 52.5686 60.3363 48.2153 57.5041 46.5894C54.6194 44.9635 54.3047 43.5998 54.3047 43.5998L55.6684 42.918V42.918Z" fill="#EFCCA3"/>
<path d="M48.3244 41.2402C46.0691 41.2927 44.3907 42.7088 42.8697 44.02C41.1388 45.5411 38.0968 46.59 36.8905 47.9013C35.6841 49.2125 34.0582 50.5237 33.4813 52.5692C32.9043 54.6148 32.6945 57.2372 32.6945 57.9191C32.6945 58.6009 32.7994 58.6533 31.2784 57.9191C28.8133 56.7652 26.0859 53.4609 26.0859 53.4609C26.4006 55.5064 29.0755 57.3421 29.3378 59.2827C30.0721 64.6326 35.2645 67.2026 48.1146 67.2026H48.3768" fill="#CCAC8D"/>
<path d="M60.493 50.1022C57.9755 47.0077 53.9369 44.123 48.3248 44.123H48.2724C42.6603 44.123 38.6217 47.0077 36.1042 50.1022C33.4817 53.3016 33.6915 54.5604 33.6915 57.6024C33.6915 68.6167 37.5727 65.4698 40.1427 66.8335C42.7652 68.1447 45.4926 67.7251 48.2724 67.7251H48.3248C51.1571 67.7251 53.832 68.0923 56.4544 66.781C59.0245 65.4698 62.9057 68.7216 62.9057 57.7073C62.9581 54.6653 63.1155 53.3016 60.493 50.1022V50.1022Z" fill="#56332B"/>
<path d="M48.0624 46.8516C48.0624 46.8516 47.6952 51.9392 46.9609 52.9357L48.3246 52.621L48.0624 46.8516Z" fill="#442823"/>
<path d="M48.4302 46.8516C48.4302 46.8516 48.7973 51.9392 49.5316 52.9357L48.168 52.621L48.4302 46.8516Z" fill="#442823"/>
<path d="M44.0238 45.6447C43.4993 44.4384 45.3875 42.4978 48.3771 42.4453C51.3667 42.4453 53.2549 44.3859 52.7304 45.6447C52.2059 46.9035 50.3177 47.2706 48.3771 47.3231C46.4889 47.2706 44.5483 46.9035 44.0238 45.6447V45.6447Z" fill="#56332B"/>
<path d="M48.3781 46.85C48.3781 46.6402 50.1613 46.5878 51.1054 45.9584C51.1054 45.9584 49.1648 46.5878 48.7452 46.3255C48.3256 46.1157 48.2207 45.4863 48.2207 45.4863C48.2207 45.4863 48.0634 46.1157 47.7487 46.3255C47.3816 46.5353 45.1787 45.9584 45.1787 45.9584C45.1787 45.9584 48.1158 46.6927 48.1158 46.85C48.1158 47.0074 48.0634 47.5318 48.0634 47.899C48.0634 49.2102 48.0634 52.4621 48.2732 52.7243C48.5879 53.1964 48.483 49.2102 48.483 47.899C48.4305 47.4794 48.4305 47.0598 48.3781 46.85V46.85Z" fill="black"/>
<path d="M48.4822 53.8776C49.3738 53.8776 50.9473 54.507 52.3634 55.5035C50.9997 53.9825 49.3738 52.9336 48.4822 52.9336C47.5381 52.9336 45.545 54.0874 44.1289 55.7658C45.5975 54.6119 47.4856 53.8776 48.4822 53.8776Z" fill="#7F4A41"/>
<path d="M48.1149 63.1625C46.1218 63.1625 44.1812 62.5331 42.398 62.061C42.0308 61.9561 41.6637 62.2184 41.2965 62.1135C37.9922 61.0645 35.3173 59.2812 33.6914 57.0259V57.5504C33.6914 68.5647 37.5726 65.4702 40.1426 66.7815C42.7651 68.0927 45.4925 67.6731 48.2723 67.6731H48.3247C51.157 67.6731 53.8319 68.0403 56.4543 66.729C59.0243 65.4178 62.9056 68.6172 62.9056 57.6028C62.9056 57.1832 62.9056 56.7636 62.958 56.3965C61.437 58.8616 58.6572 60.8022 55.1955 61.9561C54.8809 62.061 54.1466 61.7988 53.8319 61.8512C51.9437 62.4806 50.2653 63.1625 48.1149 63.1625V63.1625Z" fill="#442823"/>
<path d="M43.1328 57.2363C43.1328 57.2363 41.8215 61.17 42.7132 62.9009L41.5068 62.3764C41.5068 62.3764 42.3985 58.3902 43.1328 57.2363V57.2363ZM53.5177 57.2363C53.5177 57.2363 54.8289 61.17 53.9373 62.9009L55.1436 62.3764C55.1436 62.3764 54.1995 58.3902 53.5177 57.2363Z" fill="#442823"/>
<path d="M39.7754 37.1458C39.3034 38.7717 37.625 44.2789 40.8769 42.4432C40.8769 42.4432 39.5132 43.2299 38.674 46.2195C37.8348 49.2091 35.632 49.5762 35.632 49.5762C35.632 49.5762 32.1179 50.2581 29.4954 48.0028C27.2925 46.1146 26.9254 42.7579 27.8695 40.1878C28.8136 37.6178 30.4919 36.8835 32.9571 36.3591C35.4222 35.7821 40.2999 35.3101 39.7754 37.1458V37.1458Z" fill="#CCAC8D"/>
<path d="M48.3255 52.9352C49.7416 52.9352 54.1473 55.9772 54.1998 59.7011V59.4913C54.1998 55.6101 50.6332 52.5156 48.3255 52.5156C46.0177 52.5156 42.4512 55.6626 42.4512 59.4913V59.7011C42.5036 55.9772 46.9093 52.9352 48.3255 52.9352Z" fill="black"/>
<path d="M49.4693 45.6707C49.6936 45.6129 49.7876 45.2249 49.679 44.8041C49.5705 44.3834 49.3006 44.0893 49.0762 44.1471C48.8518 44.205 48.7579 44.593 48.8664 45.0138C48.975 45.4345 49.2449 45.7286 49.4693 45.6707Z" fill="#331712"/>
<path d="M46.7744 45.6642C46.9957 45.7329 47.2795 45.4521 47.4083 45.0371C47.537 44.6222 47.4619 44.2301 47.2406 44.1614C47.0193 44.0928 46.7355 44.3735 46.6067 44.7885C46.478 45.2035 46.5531 45.5956 46.7744 45.6642Z" fill="#331712"/>
<path d="M33.7972 47.7408C36.3462 47.7408 38.4127 45.6744 38.4127 43.1253C38.4127 40.5762 36.3462 38.5098 33.7972 38.5098C31.2481 38.5098 29.1816 40.5762 29.1816 43.1253C29.1816 45.6744 31.2481 47.7408 33.7972 47.7408Z" fill="black"/>
<path d="M35.0032 42.2876C35.6694 42.2876 36.2095 41.7476 36.2095 41.0813C36.2095 40.4151 35.6694 39.875 35.0032 39.875C34.337 39.875 33.7969 40.4151 33.7969 41.0813C33.7969 41.7476 34.337 42.2876 35.0032 42.2876Z" fill="white"/>
<path d="M49.6885 43.1791C49.6885 43.1267 48.4822 43.7036 48.1675 43.7561C47.8528 43.7036 46.6465 43.1267 46.6465 43.1791H49.6885Z" fill="#7F4A41"/>
<path d="M40.5109 42.918C40.5109 42.918 36.3675 45.7502 34.1121 48.53C31.8568 51.3098 31.9093 51.8343 31.9093 51.8343L33.5352 52.5686C33.5352 52.5686 35.843 48.2153 38.6752 46.5894C41.5075 44.9635 41.8746 43.5998 41.8746 43.5998L40.5109 42.918Z" fill="#EFCCA3"/>
<path d="M31.4361 34.5232C31.4361 34.5232 30.02 38.4045 26.873 40.0304C26.873 40.0304 31.8033 39.4534 31.4361 34.5232ZM64.5315 34.5232C64.5315 34.5232 65.9477 38.4045 69.0946 40.0304C69.0946 40.0304 64.1644 39.4534 64.5315 34.5232ZM55.5627 41.7612C55.5627 41.7612 52.4682 38.5094 48.3247 38.4045H48.3772H48.4296C44.2337 38.5094 41.1917 41.7612 41.1917 41.7612C44.8107 39.2436 47.9052 39.2961 48.4296 39.2961C48.3772 39.2961 51.9437 39.2436 55.5627 41.7612V41.7612ZM51.9437 34.9428C51.9437 34.9428 50.3703 32.7399 48.2723 32.6875H48.3772C46.8037 32.7399 44.7582 34.9428 44.7582 34.9428C46.5415 33.212 48.3772 33.2644 48.3772 33.2644C48.3772 33.2644 50.108 33.212 51.9437 34.9428ZM33.7963 51.0447C33.7963 51.0447 31.3312 52.251 29.548 51.5167H29.4955C27.922 50.6251 27.1353 47.9502 27.1353 47.9502C27.1353 47.9502 28.7088 52.6706 33.7963 51.0447V51.0447ZM62.5385 51.0447C62.5385 51.0447 65.0036 52.251 66.7868 51.5167C68.8848 50.6251 69.1995 47.9502 69.1995 47.9502C69.1995 47.9502 67.626 52.6706 62.5385 51.0447V51.0447Z" fill="#CCAC8D"/>
<path d="M36.6286 34.2637C37.9923 34.0015 40.2476 33.949 42.0309 34.526C44.2862 35.3127 42.4505 38.1974 42.9225 38.3548C43.3945 38.5121 44.0239 36.3617 48.2199 36.5715C52.4682 36.7813 52.9403 38.6695 53.5172 38.3548C54.0942 38.0401 52.9403 33.1099 59.2866 34.2637C59.2866 34.2637 52.6256 32.4805 52.9403 37.3058C52.9403 37.3058 49.1115 34.3686 43.7617 36.9911C43.8141 36.9911 45.1778 32.4805 36.6286 34.2637V34.2637ZM59.8636 34.2637C59.9685 34.2637 60.0209 34.3162 60.0734 34.3162C60.1258 34.3162 60.0209 34.2637 59.8636 34.2637ZM34.7929 27.8125C34.7929 27.8125 29.1284 34.9456 28.2892 37.6729C27.45 40.4527 26.8206 51.8342 26.0863 53.4601L23.4639 42.236L28.2892 30.5399L34.7929 27.8125V27.8125ZM61.437 27.8125C61.437 27.8125 67.1015 34.9456 67.9407 37.6729C68.7799 40.4527 69.4093 51.8342 70.1436 53.4601L72.7661 42.236L67.9407 30.5399L61.437 27.8125V27.8125Z" fill="#CCAC8D"/>
<path d="M61.1755 27.8122C61.1755 27.8122 67.2596 32.8997 69.0429 38.774C70.8262 44.6483 70.0919 51.7814 71.4556 52.6731C73.3962 53.9318 75.5991 46.4316 76.3334 45.6449C77.4873 44.3861 81.3161 41.1867 81.5783 40.6098C81.8406 40.0328 73.8158 31.2738 70.3017 29.543C66.0533 27.5499 60.8083 27.3926 61.1755 27.8122V27.8122Z" fill="#56332B"/>
<path d="M66.3672 30.959C66.3672 30.959 73.5527 40.1376 73.4478 51.5714L76.3325 45.6972C76.2801 45.6972 73.7625 38.1969 66.3672 30.959V30.959Z" fill="#442823"/>
<path d="M34.7928 27.8122C34.7928 27.8122 28.7087 32.8997 26.9254 38.774C25.1421 44.6483 25.8764 51.7814 24.5127 52.6731C22.5721 53.9318 20.3693 46.4316 19.635 45.6449C18.4811 44.3861 14.6523 41.1867 14.3901 40.6098C14.1278 40.0328 22.1525 31.2738 25.6666 29.543C29.915 27.5499 35.1599 27.3926 34.7928 27.8122V27.8122Z" fill="#56332B"/>
<path d="M29.6004 30.959C29.6004 30.959 22.4149 40.1376 22.5198 51.5714L19.6875 45.6972C19.6875 45.6972 22.2051 38.1969 29.6004 30.959Z" fill="#442823"/>
<path d="M25.7197 51.7817C25.7197 51.7817 26.2442 54.6139 27.0834 55.5056C27.9226 56.3972 27.3456 54.8237 27.3456 54.8237C27.3456 54.8237 26.454 54.3517 26.6114 50.7327C26.7687 47.1137 25.7197 51.7817 25.7197 51.7817V51.7817ZM70.4588 51.7817C70.4588 51.7817 69.9343 54.6139 69.0952 55.5056C68.256 56.3972 68.8329 54.8237 68.8329 54.8237C68.8329 54.8237 69.7246 54.3517 69.5672 50.7327C69.4099 47.1137 70.4588 51.7817 70.4588 51.7817V51.7817Z" fill="#CCAC8D"/>
<path d="M42.8698 50.0522C43.1015 50.0522 43.2894 49.8643 43.2894 49.6325C43.2894 49.4008 43.1015 49.2129 42.8698 49.2129C42.638 49.2129 42.4502 49.4008 42.4502 49.6325C42.4502 49.8643 42.638 50.0522 42.8698 50.0522Z" fill="#442823"/>
<path d="M40.4567 52.5677C40.6885 52.5677 40.8763 52.3798 40.8763 52.1481C40.8763 51.9164 40.6885 51.7285 40.4567 51.7285C40.225 51.7285 40.0371 51.9164 40.0371 52.1481C40.0371 52.3798 40.225 52.5677 40.4567 52.5677Z" fill="#442823"/>
<path d="M39.6706 50.0522C39.9023 50.0522 40.0902 49.8643 40.0902 49.6325C40.0902 49.4008 39.9023 49.2129 39.6706 49.2129C39.4388 49.2129 39.251 49.4008 39.251 49.6325C39.251 49.8643 39.4388 50.0522 39.6706 50.0522Z" fill="#442823"/>
<path d="M53.0974 50.0522C53.3291 50.0522 53.517 49.8643 53.517 49.6325C53.517 49.4008 53.3291 49.2129 53.0974 49.2129C52.8656 49.2129 52.6777 49.4008 52.6777 49.6325C52.6777 49.8643 52.8656 50.0522 53.0974 50.0522Z" fill="#442823"/>
<path d="M55.5104 52.5677C55.7421 52.5677 55.93 52.3798 55.93 52.1481C55.93 51.9164 55.7421 51.7285 55.5104 51.7285C55.2787 51.7285 55.0908 51.9164 55.0908 52.1481C55.0908 52.3798 55.2787 52.5677 55.5104 52.5677Z" fill="#442823"/>
<path d="M56.2965 50.0522C56.5283 50.0522 56.7161 49.8643 56.7161 49.6325C56.7161 49.4008 56.5283 49.2129 56.2965 49.2129C56.0648 49.2129 55.877 49.4008 55.877 49.6325C55.877 49.8643 56.0648 50.0522 56.2965 50.0522Z" fill="#442823"/>
<defs>
<radialGradient id="paint0_radial_1024_11608" cx="0" cy="0" r="1" gradientUnits="userSpaceOnUse" gradientTransform="translate(47.9834 47.2802) rotate(90) scale(47.04)">
<stop stop-color="#333944"/>
<stop offset="1" stop-color="#222428"/>
</radialGradient>
</defs>
</svg>
