<svg width="95" height="95" viewBox="0 0 95 95" fill="none" xmlns="http://www.w3.org/2000/svg">
<rect x="1.04016" y="1.04895" width="92.736" height="92.736" rx="13.44" fill="url(#paint0_radial_1024_11673)"/>
<rect x="1.04016" y="1.04895" width="92.736" height="92.736" rx="13.44" stroke="#6886C3" stroke-width="1.344"/>
<path d="M76.4527 34.9785L65.8253 23.8848H29.4931L18.3418 34.9785L46.3702 68.7279L76.4527 34.9785Z" fill="#142641"/>
<path fill-rule="evenodd" clip-rule="evenodd" d="M51.5356 22.4426L49.5658 23.5802L49.0861 22.7494L47.9391 23.4114L47.379 22.4426L45.637 23.4482L45.0568 22.4426L44.8497 22.5618L44.2153 21.4631L43.9211 21.6326L43.3811 20.6973L17.5088 35.634L18.3429 37.0785L18.6364 36.909L19.1771 37.8443L19.3834 37.7251L20.0186 38.8245L20.2718 38.6778L20.6752 39.3766L20.7723 39.3203L21.1549 39.9829L21.989 41.4274L52.3697 23.8871L51.5356 22.4426ZM62.5138 51.7748H51.2124V52.893H36.9335L73.427 31.823L69.3682 24.7928L68.5535 25.2631L67.994 24.2943L58.8654 29.5651L59.4249 30.5333L28.9973 48.1004L33.0567 55.1313L33.2198 55.0371V57.1997H36.1832V60.7688H57.304V57.1997H60.4844V52.9875H62.5138V51.7748Z" fill="#274D82"/>
<path fill-rule="evenodd" clip-rule="evenodd" d="M67.255 20.5371H28.1102L13.8086 34.7657L46.2783 73.8683L48.8692 70.9619L81.0086 34.899L67.255 20.5371ZM65.8253 23.8871L76.4527 34.9808L46.3701 68.7302L18.3417 34.9808L29.4931 23.8871H65.8253Z" fill="#3068B7"/>
<defs>
<radialGradient id="paint0_radial_1024_11673" cx="0" cy="0" r="1" gradientUnits="userSpaceOnUse" gradientTransform="translate(47.4082 47.417) rotate(90) scale(47.04)">
<stop stop-color="#333944"/>
<stop offset="1" stop-color="#222428"/>
</radialGradient>
</defs>
</svg>
