<svg width="96" height="96" viewBox="0 0 96 96" fill="none" xmlns="http://www.w3.org/2000/svg">
<rect x="1.63196" y="1.64075" width="92.736" height="92.736" rx="13.44" fill="url(#paint0_radial_1024_11475)"/>
<rect x="1.63196" y="1.64075" width="92.736" height="92.736" rx="13.44" stroke="#6886C3" stroke-width="1.344"/>
<path d="M48.0001 14.4082C29.4739 14.4082 14.4004 29.4817 14.4004 48.0085C14.4004 66.5368 29.4739 81.6095 48.0001 81.6095C66.5269 81.6095 81.6004 66.5368 81.6004 48.0085C81.6004 29.4817 66.5269 14.4082 48.0001 14.4082Z" fill="white"/>
<path d="M46.771 48.6133C46.4691 49.2674 46.136 50.0024 45.7911 50.7847C44.5717 53.5472 43.2214 56.9088 42.7282 59.0624C42.551 59.8294 42.4413 60.7799 42.4434 61.8338C42.4434 62.2507 42.4657 62.6888 42.5011 63.135C44.225 63.7685 46.0869 64.1168 48.0312 64.1202C49.8013 64.1168 51.5017 63.8244 53.0933 63.2952C52.7192 62.9531 52.3622 62.5885 52.0372 62.1777C49.8795 59.4262 48.6757 55.3937 46.771 48.6133Z" fill="#91DC47"/>
<path d="M38.8054 34.9434C34.6844 37.8477 31.9878 42.6378 31.9775 48.0663C31.9878 53.4136 34.6033 58.1418 38.6206 61.0582C39.6061 56.9535 42.0762 53.195 45.7803 45.6612C45.5603 45.057 45.3097 44.3955 45.029 43.7006C44.0029 41.1265 42.5219 38.1372 41.2002 36.7835C40.5264 36.0763 39.7087 35.4652 38.8054 34.9434Z" fill="#91DC47"/>
<path d="M62.0164 66.4814C59.8901 66.215 58.1353 65.8934 56.6002 65.3519C54.0183 66.6339 51.1106 67.3582 48.0317 67.3582C37.3784 67.3582 28.7424 58.7235 28.7411 48.0671C28.7411 42.285 31.2884 37.1016 35.3183 33.5666C34.2405 33.3062 33.1165 33.1542 31.9683 33.1563C26.3083 33.2096 20.3335 36.342 17.846 44.8016C17.6135 46.0329 17.6689 46.964 17.6689 48.0676C17.6689 64.8374 31.264 78.4325 48.0325 78.4325C58.302 78.4325 67.374 73.3298 72.8679 65.5257C69.8964 66.2662 67.0388 66.6203 64.5918 66.6279C63.6746 66.6279 62.8136 66.5788 62.0164 66.4814Z" fill="#63B132"/>
<path d="M56.31 60.5977C56.4974 60.6906 56.9224 60.8424 57.5138 61.0101C61.4925 58.0893 64.0782 53.3845 64.0884 48.067H64.0868C64.0719 39.2021 56.898 32.0293 48.031 32.0117C46.2686 32.0151 44.5755 32.306 42.9902 32.8312C46.2502 36.5472 47.8179 41.8576 49.3343 47.6664C49.3351 47.6691 49.3364 47.6712 49.337 47.6733C49.3398 47.678 49.8221 49.2863 50.65 51.4202C51.4721 53.5512 52.6434 56.1893 53.9207 58.1118C54.7594 59.4002 55.6818 60.326 56.31 60.5977Z" fill="#90B4FE"/>
<path d="M48.0326 17.7031C37.8623 17.7031 28.8659 22.7098 23.3555 30.3866C26.2233 28.5906 29.1515 27.9427 31.7069 27.9658C35.2365 27.9761 38.0114 29.0704 39.3428 29.8191C39.6643 30.0044 39.9696 30.2039 40.2686 30.4089C42.6442 29.3626 45.2692 28.7775 48.0318 28.7775C58.6864 28.7788 67.3237 37.4135 67.3253 48.0681H67.3237C67.3237 53.4399 65.1266 58.2969 61.5847 61.7945C62.4541 61.8918 63.3812 61.9525 64.328 61.9478C67.6909 61.9493 71.3258 61.2072 74.0508 58.9154C75.8276 57.4186 77.3163 55.227 78.1418 51.941C78.3033 50.6718 78.3962 49.3816 78.3962 48.0686C78.3962 31.2996 64.8024 17.7031 48.0326 17.7031Z" fill="#5881D8"/>
<defs>
<radialGradient id="paint0_radial_1024_11475" cx="0" cy="0" r="1" gradientUnits="userSpaceOnUse" gradientTransform="translate(48 48.0088) rotate(90) scale(47.04)">
<stop stop-color="#333944"/>
<stop offset="1" stop-color="#222428"/>
</radialGradient>
</defs>
</svg>
