<svg width="95" height="95" viewBox="0 0 95 95" fill="none" xmlns="http://www.w3.org/2000/svg">
<rect x="1.20813" y="0.777469" width="92.736" height="92.736" rx="13.44" fill="url(#paint0_radial_1024_11536)"/>
<rect x="1.20813" y="0.777469" width="92.736" height="92.736" rx="13.44" stroke="#6886C3" stroke-width="1.344"/>
<g clip-path="url(#clip0_1024_11536)">
<path d="M80.3446 58.59V60.9153L80.3126 62.8887C80.2929 64.315 80.1645 65.7378 79.9286 67.1447C79.5806 69.2785 78.7296 71.2989 77.4461 73.0387C76.1626 74.7785 74.4833 76.1878 72.5472 77.15C71.2591 77.7969 69.8825 78.2498 68.4619 78.494C67.0326 78.7393 65.5819 78.8247 64.1526 78.8673C61.3792 78.8993 60.6006 78.8993 59.8112 78.8993H34.5099C31.5019 78.8993 30.8406 78.8887 30.1792 78.8673C28.7392 78.8247 27.2886 78.7393 25.8699 78.494C24.442 78.2518 23.058 77.7989 21.7632 77.15C19.8366 76.1751 18.1665 74.7604 16.8879 73.0204C15.6093 71.2804 14.7581 69.2639 14.4032 67.134C14.1668 65.7236 14.0384 64.2973 14.0192 62.8673C14.0048 62.2168 13.9977 61.5661 13.9979 60.9153L13.9766 58.59V35.1873V32.862L14.0086 30.8993C14.0512 29.4807 14.1366 28.0513 14.3926 26.6327C14.7402 24.5015 15.5899 22.4836 16.8716 20.7457C18.1532 19.0078 19.8299 17.5998 21.7632 16.638C23.0553 15.9938 24.4356 15.5445 25.8592 15.3047C27.2779 15.0593 28.7286 14.974 30.1686 14.9313C32.9419 14.8887 33.7312 14.8887 34.5099 14.8887H59.1712H49.6246H59.8112C62.8299 14.8887 63.4912 14.8993 64.1526 14.9207C65.5819 14.9633 67.0326 15.0487 68.4619 15.294C69.9019 15.55 71.2459 15.9767 72.5579 16.638C74.4857 17.6099 76.1576 19.0222 77.4381 20.7604C78.7186 22.4987 79.5718 24.514 79.9286 26.6433C80.1846 28.0513 80.2699 29.4807 80.3126 30.91C80.3339 31.55 80.3339 32.2113 80.3446 32.862V58.59Z" fill="black"/>
<mask id="mask0_1024_11536" style="mask-type:luminance" maskUnits="userSpaceOnUse" x="13" y="14" width="68" height="65">
<path d="M80.3436 58.5881V60.9134L80.3116 62.8867C80.2919 64.3131 80.1635 65.7359 79.9276 67.1427C79.5796 69.2766 78.7286 71.2969 77.4451 73.0367C76.1616 74.7765 74.4823 76.1858 72.5463 77.1481C71.2582 77.7949 69.8815 78.2478 68.4609 78.4921C67.0316 78.7374 65.5809 78.8227 64.1516 78.8654C61.3783 78.8974 60.5996 78.8974 59.8103 78.8974H34.5089C31.5009 78.8974 30.8396 78.8867 30.1783 78.8654C28.7383 78.8227 27.2876 78.7374 25.8689 78.4921C24.441 78.2499 23.057 77.7969 21.7623 77.1481C19.8356 76.1731 18.1655 74.7584 16.8869 73.0184C15.6083 71.2784 14.7571 69.262 14.4023 67.1321C14.1658 65.7217 14.0374 64.2953 14.0183 62.8654C14.0038 62.2148 13.9967 61.5641 13.9969 60.9134L13.9756 58.5881V35.1854V32.8601L14.0076 30.8974C14.0503 29.4787 14.1356 28.0494 14.3916 26.6307C14.7392 24.4995 15.589 22.4817 16.8706 20.7438C18.1522 19.0059 19.8289 17.5979 21.7623 16.6361C23.0543 15.9919 24.4346 15.5425 25.8583 15.3027C27.2769 15.0574 28.7276 14.9721 30.1676 14.9294C32.9409 14.8867 33.7303 14.8867 34.5089 14.8867H59.1703H49.6236H59.8103C62.8289 14.8867 63.4903 14.8974 64.1516 14.9187C65.5809 14.9614 67.0316 15.0467 68.4609 15.2921C69.9009 15.5481 71.2449 15.9747 72.5569 16.6361C74.4848 17.608 76.1566 19.0202 77.4371 20.7585C78.7177 22.4967 79.5708 24.5121 79.9276 26.6414C80.1836 28.0494 80.2689 29.4787 80.3116 30.9081C80.3329 31.5481 80.3329 32.2094 80.3436 32.8601V58.5881Z" fill="white"/>
</mask>
<g mask="url(#mask0_1024_11536)">
<path d="M78.5835 71.197L75.2662 69.4903L78.5729 71.197H78.5835ZM76.0449 74.6423L78.6689 77.309L76.0555 74.621L76.0449 74.6423ZM68.4609 78.493L67.8102 74.813L68.4502 78.493H68.4609ZM64.1515 78.8663L64.1942 82.5996H64.2475L64.1409 78.8663H64.1515ZM34.5089 78.8876L34.4982 82.621H34.5089V78.8876ZM18.2742 74.6316L15.6502 77.2983L18.2742 74.621V74.6316ZM14.0182 62.8663L17.7515 62.7703L14.0182 62.877V62.8663ZM13.9969 32.861L17.7302 32.893V32.8823L13.9755 32.861H13.9969ZM14.4022 26.6316L10.7222 25.9703L14.4022 26.6423V26.6316ZM18.2849 19.1436L20.9089 21.7996L18.2849 19.133V19.1436ZM30.1782 14.9196L30.1355 11.1863H30.0715L30.1782 14.9196ZM59.1702 14.8876V18.621V11.1543V14.8876ZM49.6235 14.8876V11.1543V18.621V14.8876ZM59.8102 14.8876L59.8209 11.1543V14.8876H59.8102ZM68.4609 15.293L67.8102 18.973L68.4502 15.293H68.4609ZM76.0449 19.1436L73.4209 21.789L76.0555 19.1543L76.0449 19.1436ZM78.5835 22.589L75.2662 24.2956L78.5729 22.589H78.5835ZM80.3115 30.909L76.5782 31.005L80.3115 30.8983V30.909ZM76.6102 58.589V60.893L84.0769 60.9356V58.589H76.6102ZM76.6102 60.893C76.6102 61.533 76.5995 62.1516 76.5782 62.7703L84.0449 62.9836L84.0769 60.9356L76.6102 60.893ZM76.5782 62.7703C76.5462 64.125 76.4715 65.341 76.2582 66.461L83.6075 67.805C83.9169 66.1196 84.0022 64.4556 84.0342 62.973L76.5782 62.7703ZM76.2582 66.4716C76.0816 67.5187 75.7471 68.5329 75.2662 69.4796L81.9009 72.893C82.7542 71.229 83.2875 69.5436 83.6075 67.805L76.2582 66.4716ZM75.2662 69.4796C74.7873 70.4074 74.1644 71.2534 73.4209 71.9863L78.6689 77.2876C79.9702 76.0076 81.0689 74.5143 81.9009 72.893L75.2662 69.4796ZM73.4209 71.9863C72.6742 72.7223 71.8209 73.341 70.8822 73.7996L74.2315 80.477C75.8684 79.6526 77.3657 78.5764 78.6689 77.2876L73.4209 71.9863ZM70.8715 73.7996C69.9329 74.2903 68.9409 74.5996 67.8102 74.8023L69.1115 82.1623C70.8919 81.8557 72.6171 81.2878 74.2315 80.477L70.8715 73.8103V73.7996ZM67.8102 74.8023C66.6582 75.0156 65.4209 75.0903 64.0449 75.1223L64.2475 82.589C65.7409 82.5463 67.4155 82.461 69.1115 82.1623L67.8102 74.8023ZM64.0982 75.1223C61.3462 75.1543 60.5782 75.1543 59.8102 75.1543V82.621C60.6102 82.621 61.4102 82.621 64.1835 82.589L64.0982 75.1223ZM59.8102 75.1543H43.5222V82.621H59.8209V75.1543H59.8102ZM43.5115 75.1543H34.5089V82.621H43.5115V75.1543ZM34.5195 75.1543C31.4902 75.1543 30.8822 75.1436 30.2742 75.1223L30.0715 82.589C30.7862 82.6103 31.5009 82.6103 34.4982 82.621L34.5195 75.1543ZM30.2742 75.1223C28.8982 75.0903 27.6609 75.0156 26.5195 74.8023L25.2075 82.1623C26.9142 82.461 28.5782 82.5463 30.0715 82.589L30.2849 75.1223H30.2742ZM26.5195 74.8023C25.452 74.6259 24.4166 74.2916 23.4475 73.8103L20.0875 80.477C21.7025 81.2841 23.4278 81.8484 25.2075 82.1516L26.5195 74.8023ZM23.4475 73.8103C22.5074 73.3397 21.6471 72.7242 20.8982 71.9863L15.6502 77.2876C16.9523 78.5804 18.4497 79.6603 20.0875 80.4876L23.4475 73.8103ZM20.8982 71.9863C20.155 71.2531 19.5322 70.4071 19.0529 69.4796L12.4182 72.893C13.2576 74.5188 14.3483 76.0019 15.6502 77.2876L20.8982 71.9863ZM19.0635 69.4796C18.5788 68.5298 18.2407 67.512 18.0609 66.461L10.7115 67.805C11.0315 69.5436 11.5649 71.229 12.4182 72.893L19.0635 69.4796ZM18.0609 66.461C17.8582 65.341 17.7835 64.1356 17.7409 62.7703L10.2742 62.9836C10.3169 64.4556 10.4129 66.1196 10.7115 67.805L18.0715 66.461H18.0609ZM17.7409 62.7703L17.7195 60.893L10.2529 60.9356C10.2529 61.6076 10.2529 62.2903 10.2742 62.973L17.7409 62.7596V62.7703ZM17.7195 60.8823L17.7089 58.589H10.2422V60.9356L17.7089 60.8823H17.7195ZM17.7089 58.589V50.877H10.2422V58.589H17.7089ZM17.7089 50.877V42.8983H10.2422V50.877H17.7089ZM17.7089 42.8983V35.1863H10.2422V42.8983H17.7089ZM17.7089 35.1863V32.893L10.2422 32.829V35.1863H17.7089ZM17.7089 32.8823C17.7089 32.2423 17.7302 31.6236 17.7409 31.005L10.2742 30.7916L10.2529 32.8396L17.7195 32.8823H17.7089ZM17.7409 31.005C17.7835 29.6396 17.8582 28.4343 18.0609 27.3036L10.7115 25.9703C10.4462 27.5677 10.3036 29.1831 10.2849 30.8023L17.7515 31.005H17.7409ZM18.0609 27.3143C18.2407 26.2632 18.5788 25.2455 19.0635 24.2956L12.4182 20.8823C11.5649 22.5463 11.0315 24.2316 10.7115 25.9703L18.0715 27.3143H18.0609ZM19.0635 24.2956C19.54 23.3723 20.1592 22.53 20.8982 21.7996L15.6502 16.477C14.3469 17.7654 13.256 19.2523 12.4182 20.8823L19.0635 24.2956ZM20.8982 21.789C21.6449 21.053 22.4982 20.445 23.4475 19.9756L20.0875 13.2876C18.4495 14.1145 16.952 15.1944 15.6502 16.4876L20.8982 21.789ZM23.4475 19.9756C24.3969 19.485 25.3782 19.1756 26.5195 18.973L25.2075 11.613C23.4582 11.933 21.7622 12.4556 20.0875 13.2983L23.4475 19.965V19.9756ZM26.5195 18.973C27.6609 18.7596 28.8982 18.685 30.2742 18.653L30.0715 11.1863C28.5782 11.229 26.9035 11.3143 25.2075 11.613L26.5195 18.973ZM30.2209 18.653C32.9729 18.621 33.7409 18.621 34.5089 18.621V11.1543C33.7089 11.1543 32.9089 11.1543 30.1355 11.1863L30.2209 18.653ZM34.5089 18.621H43.5115V11.1543H34.5089V18.621ZM43.5115 18.621H59.1702V11.1543H43.5222V18.621H43.5115ZM59.1702 11.1543H49.6235V18.621H59.1702V11.1543ZM49.6235 18.621H59.8102V11.1543H49.6235V18.621ZM59.7995 18.621C62.8289 18.621 63.4369 18.6316 64.0449 18.653L64.2582 11.1863C63.5329 11.165 62.8182 11.165 59.8209 11.1543L59.7995 18.621ZM64.0449 18.653C65.4315 18.685 66.6582 18.7596 67.8102 18.973L69.1115 11.613C67.5031 11.3498 65.8772 11.2072 64.2475 11.1863L64.0449 18.653ZM67.8102 18.973C68.9409 19.1756 69.9329 19.485 70.8715 19.965L74.2315 13.2983C72.6166 12.4912 70.8913 11.9269 69.1115 11.6236L67.8102 18.973ZM70.8822 19.965C71.8187 20.4364 72.6753 21.0518 73.4209 21.789L78.6689 16.4876C77.3668 15.1947 75.8694 14.1148 74.2315 13.2876L70.8822 19.965ZM73.4209 21.7996C74.1675 22.525 74.7862 23.3783 75.2662 24.2956L81.9009 20.8823C81.0635 19.252 79.9726 17.7651 78.6689 16.477L73.4209 21.7996ZM75.2662 24.2956C75.7462 25.2236 76.0555 26.1943 76.2582 27.3036L83.6075 25.9703C83.2875 24.2316 82.7542 22.5463 81.9009 20.8823L75.2662 24.2956ZM76.2582 27.3036C76.4715 28.4343 76.5462 29.6503 76.5782 31.005L84.0449 30.7916C84.0022 29.3196 83.9169 27.6556 83.6075 25.9703L76.2582 27.3036ZM76.5782 31.005C76.5995 31.6236 76.5995 32.2423 76.6102 32.8823L84.0769 32.8396L84.0449 30.8023L76.5782 31.0156V31.005ZM76.6102 32.8823V35.1863H84.0769V32.8396L76.6102 32.8823ZM76.6102 35.1863V42.8983H84.0769V35.1863H76.6102ZM76.6102 42.8983V50.877H84.0769V42.8983H76.6102ZM76.6102 50.877V58.589H84.0769V50.877H76.6102Z" fill="url(#paint1_linear_1024_11536)"/>
</g>
<path fill-rule="evenodd" clip-rule="evenodd" d="M40.0883 42.4396C40.0883 42.1516 40.3229 41.9063 40.6216 41.9063H50.4349C50.7336 41.9063 50.9683 42.1516 50.9683 42.4396V43.5063C50.9683 43.6477 50.9121 43.7834 50.812 43.8834C50.712 43.9834 50.5764 44.0396 50.4349 44.0396H40.6216C40.4801 44.0396 40.3445 43.9834 40.2445 43.8834C40.1444 43.7834 40.0883 43.6477 40.0883 43.5063V42.4396ZM36.4296 36.4236C36.4679 36.3885 36.4971 36.3445 36.5146 36.2955C36.5321 36.2466 36.5374 36.1941 36.53 36.1426C36.5226 36.0911 36.5029 36.0422 36.4724 36.0001C36.4418 35.958 36.4015 35.924 36.3549 35.9009L32.5469 33.8743C32.4759 33.8376 32.4212 33.7756 32.3935 33.7006C32.3659 33.6256 32.3674 33.543 32.3976 33.4689L35.0216 26.9409C35.1389 26.6316 34.7549 26.3649 34.5096 26.5889L26.2429 34.0556C26.2049 34.0878 26.175 34.1285 26.1555 34.1743C26.1359 34.2202 26.1274 34.2699 26.1305 34.3196C26.1336 34.3694 26.1483 34.4177 26.1734 34.4607C26.1984 34.5038 26.2332 34.5404 26.2749 34.5676L29.9443 37.0529C30.0047 37.094 30.0493 37.1544 30.0706 37.2243C30.092 37.2941 30.0888 37.3692 30.0616 37.4369L27.6723 43.5276C27.5443 43.8476 27.9283 44.1036 28.1843 43.8796L36.4296 36.4129V36.4236Z" fill="white"/>
</g>
<defs>
<radialGradient id="paint0_radial_1024_11536" cx="0" cy="0" r="1" gradientUnits="userSpaceOnUse" gradientTransform="translate(47.5761 47.1455) rotate(90) scale(47.04)">
<stop stop-color="#333944"/>
<stop offset="1" stop-color="#222428"/>
</radialGradient>
<linearGradient id="paint1_linear_1024_11536" x1="48.3435" y1="14.8876" x2="48.3435" y2="82.4396" gradientUnits="userSpaceOnUse">
<stop stop-color="#F743B6"/>
<stop offset="1" stop-color="#FCC043"/>
</linearGradient>
<clipPath id="clip0_1024_11536">
<rect width="67.2" height="64" fill="white" transform="translate(13.9766 14.8887)"/>
</clipPath>
</defs>
</svg>
