<svg width="96" height="95" viewBox="0 0 96 95" fill="none" xmlns="http://www.w3.org/2000/svg">
<rect x="1.63196" y="1.21497" width="92.736" height="92.736" rx="13.44" fill="url(#paint0_radial_1024_11433)"/>
<rect x="1.63196" y="1.21497" width="92.736" height="92.736" rx="13.44" stroke="#6886C3" stroke-width="1.344"/>
<g clip-path="url(#clip0_1024_11433)">
<g filter="url(#filter0_d_1024_11433)">
<path d="M48 76.9824C65.397 76.9824 79.5 62.8794 79.5 45.4824C79.5 28.0855 65.397 13.9824 48 13.9824C30.603 13.9824 16.5 28.0855 16.5 45.4824C16.5 62.8794 30.603 76.9824 48 76.9824Z" fill="black"/>
</g>
<path d="M48 76.9824C65.397 76.9824 79.5 62.8794 79.5 45.4824C79.5 28.0855 65.397 13.9824 48 13.9824C30.603 13.9824 16.5 28.0855 16.5 45.4824C16.5 62.8794 30.603 76.9824 48 76.9824Z" fill="#E5E5E5"/>
<path style="mix-blend-mode:soft-light" d="M48 76.9824C65.397 76.9824 79.5 62.8794 79.5 45.4824C79.5 28.0855 65.397 13.9824 48 13.9824C30.603 13.9824 16.5 28.0855 16.5 45.4824C16.5 62.8794 30.603 76.9824 48 76.9824Z" fill="url(#paint1_linear_1024_11433)"/>
<path d="M47.9998 75.9313C64.8169 75.9313 78.4498 62.2983 78.4498 45.4813C78.4498 28.6642 64.8169 15.0312 47.9998 15.0312C31.1827 15.0312 17.5498 28.6642 17.5498 45.4813C17.5498 62.2983 31.1827 75.9313 47.9998 75.9313Z" stroke="black" stroke-opacity="0.097" stroke-width="2.1"/>
<path d="M36.0973 62.2816L51.2619 35.8179L53.3433 42.6569L41.7469 62.2816H47.6938L55.1274 49.4958L58.3982 62.2816H63.7504L58.6955 43.2516L62.2637 37.0073H56.9115L54.83 28.6816H49.7752L30.1504 62.2816H36.0973Z" fill="black"/>
</g>
<defs>
<filter id="filter0_d_1024_11433" x="14.4" y="12.9324" width="67.2" height="67.2" filterUnits="userSpaceOnUse" color-interpolation-filters="sRGB">
<feFlood flood-opacity="0" result="BackgroundImageFix"/>
<feColorMatrix in="SourceAlpha" type="matrix" values="0 0 0 0 0 0 0 0 0 0 0 0 0 0 0 0 0 0 127 0" result="hardAlpha"/>
<feOffset dy="1.05"/>
<feGaussianBlur stdDeviation="1.05"/>
<feComposite in2="hardAlpha" operator="out"/>
<feColorMatrix type="matrix" values="0 0 0 0 0 0 0 0 0 0 0 0 0 0 0 0 0 0 0.199474 0"/>
<feBlend mode="normal" in2="BackgroundImageFix" result="effect1_dropShadow_1024_11433"/>
<feBlend mode="normal" in="SourceGraphic" in2="effect1_dropShadow_1024_11433" result="shape"/>
</filter>
<radialGradient id="paint0_radial_1024_11433" cx="0" cy="0" r="1" gradientUnits="userSpaceOnUse" gradientTransform="translate(48 47.583) rotate(90) scale(47.04)">
<stop stop-color="#333944"/>
<stop offset="1" stop-color="#222428"/>
</radialGradient>
<linearGradient id="paint1_linear_1024_11433" x1="48" y1="13.9824" x2="48" y2="76.9824" gradientUnits="userSpaceOnUse">
<stop stop-color="white" stop-opacity="0.5"/>
<stop offset="1" stop-opacity="0.5"/>
</linearGradient>
<clipPath id="clip0_1024_11433">
<rect width="67.2" height="67.2" fill="white" transform="translate(14.4004 13.9824)"/>
</clipPath>
</defs>
</svg>
