<svg width="95" height="96" viewBox="0 0 95 96" fill="none" xmlns="http://www.w3.org/2000/svg">
<rect x="1.19251" y="1.64075" width="92.736" height="92.736" rx="13.44" fill="url(#paint0_radial_1024_11480)"/>
<rect x="1.19251" y="1.64075" width="92.736" height="92.736" rx="13.44" stroke="#6886C3" stroke-width="1.344"/>
<path d="M37.7608 55.3911C37.7608 53.8822 38.9841 52.6589 40.493 52.6589C42.0019 52.6589 43.2252 53.8822 43.2252 55.3911V60.4267C43.2252 61.9357 42.0019 63.1589 40.493 63.1589C38.9841 63.1589 37.7608 61.9357 37.7608 60.4267V55.3911Z" fill="white"/>
<path d="M54.4931 52.6589C52.9842 52.6589 51.7609 53.8822 51.7609 55.3911V60.4267C51.7609 61.9357 52.9842 63.1589 54.4931 63.1589C56.002 63.1589 57.2253 61.9357 57.2253 60.4267V55.3911C57.2253 53.8822 56.002 52.6589 54.4931 52.6589Z" fill="white"/>
<path fill-rule="evenodd" clip-rule="evenodd" d="M81.1609 60.3296V52.799C81.1609 51.8078 80.8459 50.8544 80.2579 50.0564L78.2125 47.2844C77.1176 45.7927 75.4956 45.407 73.7563 45.407C73.1011 37.931 71.5471 32.597 67.8469 28.691C60.7909 21.215 51.4249 20.459 47.5609 20.459C43.6969 20.459 34.3309 21.215 27.2749 28.691C23.5705 32.597 22.0207 37.931 21.3655 45.407C19.6297 45.407 18.0006 45.7994 16.9051 47.2844L14.8597 50.0522C14.2759 50.8502 13.9609 51.8078 13.9609 52.799V60.3296C13.9628 61.302 14.4448 62.2499 15.2293 62.8244C21.786 67.6372 34.6812 75.059 47.5609 75.059C59.2027 75.059 70.6308 69.6048 79.8925 62.8244C80.6771 62.2499 81.1588 61.302 81.1609 60.3296ZM65.4109 46.5116C66.86 46.9877 68.2528 47.6608 68.3425 49.376H68.3383C68.5688 54.2061 68.6358 59.0606 68.5525 63.8954C68.546 64.8348 67.9798 65.7075 67.1245 66.0962C60.1777 69.263 53.6047 70.859 47.5651 70.859C41.5171 70.859 34.9441 69.263 27.9931 66.0962C27.1379 65.7075 26.5714 64.8348 26.5651 63.8954C26.5888 62.332 26.5956 60.7695 26.6023 59.2073L26.603 59.0423C26.6164 55.8202 26.6298 52.5996 26.7835 49.376C26.8754 47.6706 28.2624 46.9862 29.7067 46.5116C31.2336 47.4744 33.104 47.8472 34.8895 47.8472C36.7879 47.8472 40.3327 47.3936 43.2727 44.4536C44.0161 43.7144 44.5243 42.5552 44.8687 41.27C45.8473 41.1734 46.7671 41.1272 47.5651 41.1272C48.4629 41.1315 49.3599 41.1791 50.2531 41.27C50.5975 42.5552 51.1057 43.7144 51.8491 44.4536C54.7933 47.3936 58.3339 47.8472 60.2323 47.8472C62.0175 47.8472 63.883 47.4702 65.4109 46.5116ZM33.6589 44.525C31.3489 44.525 29.2069 43.769 28.0729 42.635C26.5189 41.039 25.9309 33.479 28.6609 30.497C29.9209 29.153 32.3989 28.187 35.3389 27.893C38.1109 27.641 40.5889 28.061 41.6809 29.027C42.6889 29.867 43.3609 31.841 43.4449 34.235C43.5289 37.217 42.7729 40.157 41.5549 41.333C38.7829 44.147 35.4229 44.525 33.6589 44.525ZM45.3769 36.797C45.3349 36.251 45.2929 35.747 45.2089 35.285C46.0909 35.201 46.8889 35.159 47.5609 35.159C48.2329 35.159 49.0309 35.201 49.9129 35.285C49.8289 35.747 49.7869 36.2511 49.7449 36.7971C49.7449 37.1751 49.7449 37.553 49.7869 37.973C48.9469 37.889 48.2329 37.889 47.5609 37.889C46.8889 37.889 46.1749 37.889 45.3349 37.973C45.3769 37.553 45.3769 37.175 45.3769 36.797ZM53.5669 41.333C52.3489 40.157 51.5929 37.217 51.6769 34.235C51.7609 31.841 52.4329 29.867 53.4409 29.027C54.5329 28.061 57.0109 27.641 59.7829 27.893C62.7229 28.187 65.2009 29.153 66.4609 30.497C69.1909 33.479 68.6029 41.039 67.0489 42.635C65.9149 43.769 63.7729 44.525 61.4629 44.525C59.6989 44.525 56.3389 44.147 53.5669 41.333Z" fill="white"/>
<defs>
<radialGradient id="paint0_radial_1024_11480" cx="0" cy="0" r="1" gradientUnits="userSpaceOnUse" gradientTransform="translate(47.5605 48.0088) rotate(90) scale(47.04)">
<stop stop-color="#333944"/>
<stop offset="1" stop-color="#222428"/>
</radialGradient>
</defs>
</svg>
