<svg width="95" height="95" viewBox="0 0 95 95" fill="none" xmlns="http://www.w3.org/2000/svg">
<rect x="1.20813" y="1.33606" width="92.736" height="92.736" rx="13.44" fill="url(#paint0_radial_1024_11641)"/>
<rect x="1.20813" y="1.33606" width="92.736" height="92.736" rx="13.44" stroke="#6886C3" stroke-width="1.344"/>
<path d="M75.1681 17.9654C74.2026 20.3126 72.9542 22.3933 71.5725 24.2577C65.48 18.0487 56.9571 14.1035 47.552 14.1035C29.0747 14.1035 13.9766 29.1184 13.9766 47.6623C13.9766 57.3504 18.1215 66.0731 24.6967 72.2322L25.9452 73.3475C31.7547 78.2581 39.3121 81.2378 47.5354 81.2378C65.1804 81.2378 79.7125 67.4713 80.961 50.0927C81.9598 41.653 79.3962 30.8496 75.1681 17.9654ZM29.5574 72.5151C28.592 73.7636 26.7942 73.8968 25.5457 72.9313C24.2972 71.9658 24.1641 70.168 25.1295 68.9196C26.095 67.6711 27.8928 67.5379 29.1413 68.5034C30.3232 69.4689 30.5229 71.2667 29.5574 72.5151ZM74.9683 62.4775C66.7285 73.4806 49.0169 69.7519 37.7307 70.3012C37.7307 70.3012 35.7165 70.4344 33.719 70.7174C33.719 70.7174 34.4847 70.3678 35.4502 70.0182C43.4071 67.2549 47.1525 66.689 51.9965 64.2087C61.0687 59.5644 70.1243 49.3935 71.9387 38.8731C68.4763 48.9774 57.9559 57.7 48.401 61.229C41.8257 63.6593 29.9902 66.0065 29.9902 66.0065L29.5075 65.7235C21.484 61.7783 21.201 44.3331 35.883 38.7233C42.3251 36.2264 48.4176 37.608 55.409 35.96C62.8166 34.2288 71.4061 28.6856 74.8518 21.4279C78.6971 33.1302 83.408 51.2579 74.9683 62.4775Z" fill="#6CB52D"/>
<path d="M29.557 72.5139C28.5915 73.7623 26.7937 73.8955 25.5452 72.93C24.2968 71.9645 24.1636 70.1667 25.1291 68.9183C26.0946 67.6698 27.8923 67.5366 29.1408 68.5021C30.3227 69.4676 30.5225 71.2654 29.557 72.5139Z" fill="#6CB52D"/>
<defs>
<radialGradient id="paint0_radial_1024_11641" cx="0" cy="0" r="1" gradientUnits="userSpaceOnUse" gradientTransform="translate(47.5761 47.7041) rotate(90) scale(47.04)">
<stop stop-color="#333944"/>
<stop offset="1" stop-color="#222428"/>
</radialGradient>
</defs>
</svg>
