<svg width="95" height="96" viewBox="0 0 95 96" fill="none" xmlns="http://www.w3.org/2000/svg">
<rect x="1.05579" y="1.64075" width="92.736" height="92.736" rx="13.44" fill="url(#paint0_radial_1024_11477)"/>
<rect x="1.05579" y="1.64075" width="92.736" height="92.736" rx="13.44" stroke="#6886C3" stroke-width="1.344"/>
<path d="M68.3323 41.4822C66.8921 36.9661 64.0611 33.021 60.2439 30.2106C56.4268 27.4002 51.8189 25.8685 47.0789 25.8343C43.0713 25.8114 39.1333 26.8808 35.6879 28.9276C32.2424 30.9745 29.4198 33.9215 27.5233 37.4519C24.0377 38.0766 20.8424 39.7973 18.4026 42.3637C15.9627 44.9301 14.4055 48.2082 13.9578 51.7209C13.51 55.2336 14.1949 58.7975 15.9129 61.8939C17.631 64.9904 20.2923 67.4577 23.5097 68.9368L23.9272 69.1261H23.9551V64.3944C21.7479 63.0396 20.02 61.0281 19.0136 58.6418C18.0071 56.2556 17.7726 53.6142 18.3427 51.088C18.9129 48.5617 20.2593 46.2772 22.1931 44.5546C24.127 42.832 26.5514 41.7576 29.1265 41.4822L30.2955 41.3597L30.8076 40.3076C32.2617 37.2259 34.5653 34.6235 37.4477 32.8061C40.3301 30.9887 43.6714 30.0319 47.0789 30.0483C51.139 30.0769 55.0731 31.4622 58.2554 33.9839C61.4377 36.5055 63.6856 40.0187 64.6416 43.9649L65.0424 45.5569H66.7124C69.4045 45.6121 71.9684 46.7179 73.8562 48.638C75.7441 50.5581 76.8062 53.1403 76.8158 55.8329C76.8158 59.7574 74.5502 62.9694 70.6925 64.5948V69.0815L70.9709 68.9925C77.1721 66.9607 81.0242 61.9173 81.0242 55.8329C80.9987 52.3114 79.6994 48.9181 77.3663 46.2802C75.0333 43.6422 71.8243 41.9379 68.3323 41.4822Z" fill="#3448C5"/>
<path d="M38.9185 68.5802L39.8425 69.5043C39.8675 69.5299 39.8844 69.5623 39.8912 69.5975C39.898 69.6326 39.8944 69.669 39.8808 69.7021C39.8672 69.7352 39.8442 69.7637 39.8146 69.7839C39.7851 69.8041 39.7503 69.8153 39.7145 69.816H32.4222C31.5364 69.816 30.6869 69.4641 30.0605 68.8377C29.4341 68.2114 29.0822 67.3618 29.0822 66.476V52.3145C29.0822 52.2658 29.0629 52.219 29.0284 52.1846C28.994 52.1501 28.9473 52.1308 28.8985 52.1308H27.3399C27.3036 52.1312 27.268 52.1208 27.2377 52.101C27.2073 52.0812 27.1834 52.0528 27.1692 52.0195C27.1549 51.9861 27.1508 51.9493 27.1574 51.9136C27.164 51.878 27.181 51.8451 27.2063 51.8191L33.3964 45.629C33.4135 45.6116 33.4338 45.5979 33.4563 45.5885C33.4787 45.5791 33.5028 45.5742 33.5272 45.5742C33.5515 45.5742 33.5756 45.5791 33.5981 45.5885C33.6205 45.5979 33.6409 45.6116 33.658 45.629L39.8425 51.8191C39.8675 51.8447 39.8844 51.8771 39.8912 51.9123C39.898 51.9474 39.8944 51.9838 39.8808 52.0169C39.8672 52.05 39.8442 52.0784 39.8146 52.0987C39.7851 52.1189 39.7503 52.1301 39.7145 52.1308H38.1336C38.0843 52.1308 38.037 52.1499 38.0017 52.1842C37.9663 52.2185 37.9458 52.2653 37.9443 52.3145V66.2311C37.9466 67.1119 38.2967 67.9562 38.9185 68.5802ZM52.5957 68.5802L53.5253 69.5043C53.5506 69.5303 53.5676 69.5632 53.5742 69.5988C53.5808 69.6345 53.5767 69.6713 53.5625 69.7047C53.5482 69.738 53.5243 69.7664 53.4939 69.7862C53.4636 69.806 53.428 69.8164 53.3917 69.816H46.1161C45.2303 69.816 44.3808 69.4641 43.7544 68.8377C43.128 68.2114 42.7762 67.3618 42.7762 66.476V55.8938C42.7762 55.8446 42.757 55.7973 42.7227 55.7619C42.6884 55.7266 42.6417 55.706 42.5925 55.7046H41.0171C40.9813 55.7038 40.9465 55.6927 40.917 55.6725C40.8874 55.6522 40.8644 55.6238 40.8508 55.5907C40.8372 55.5576 40.8336 55.5212 40.8404 55.486C40.8472 55.4509 40.8641 55.4185 40.8891 55.3928L47.0736 49.2139C47.0907 49.1965 47.1111 49.1828 47.1335 49.1734C47.156 49.164 47.1801 49.1591 47.2044 49.1591C47.2288 49.1591 47.2529 49.164 47.2753 49.1734C47.2978 49.1828 47.3181 49.1965 47.3352 49.2139L53.5253 55.3817C53.5506 55.4077 53.5676 55.4406 53.5742 55.4763C53.5808 55.5119 53.5767 55.5488 53.5625 55.5821C53.5482 55.6154 53.5243 55.6438 53.4939 55.6636C53.4636 55.6834 53.428 55.6938 53.3917 55.6934H51.8108C51.7616 55.6949 51.7149 55.7155 51.6806 55.7508C51.6463 55.7861 51.6271 55.8334 51.6271 55.8827V66.2311C51.6279 67.1111 51.976 67.9553 52.5957 68.5802ZM66.2785 68.5802L67.2025 69.5043C67.2275 69.5299 67.2444 69.5623 67.2512 69.5975C67.258 69.6326 67.2544 69.669 67.2408 69.7021C67.2272 69.7352 67.2042 69.7637 67.1747 69.7839C67.1451 69.8041 67.1103 69.8153 67.0745 69.816H59.7767C58.8908 69.816 58.0413 69.4641 57.4149 68.8377C56.7886 68.2114 56.4367 67.3618 56.4367 66.476V59.4453C56.4367 59.3966 56.4173 59.3499 56.3829 59.3154C56.3484 59.281 56.3017 59.2616 56.253 59.2616H54.6943C54.6574 59.262 54.6212 59.2513 54.5904 59.2308C54.5597 59.2103 54.5358 59.181 54.522 59.1467C54.5082 59.1124 54.505 59.0748 54.5129 59.0387C54.5208 59.0026 54.5394 58.9697 54.5663 58.9443L60.7564 52.7598C60.773 52.7426 60.7929 52.729 60.8149 52.7197C60.8369 52.7103 60.8605 52.7055 60.8844 52.7055C60.9083 52.7055 60.932 52.7103 60.9539 52.7197C60.9759 52.729 60.9958 52.7426 61.0125 52.7598L67.2025 58.9443C67.2294 58.9697 67.248 59.0026 67.2559 59.0387C67.2638 59.0748 67.2607 59.1124 67.2468 59.1467C67.233 59.181 67.2092 59.2103 67.1784 59.2308C67.1477 59.2513 67.1115 59.262 67.0745 59.2616H65.488C65.4393 59.2616 65.3926 59.281 65.3581 59.3154C65.3237 59.3499 65.3043 59.3966 65.3043 59.4453V66.2311C65.3066 67.1119 65.6567 67.9562 66.2785 68.5802Z" fill="#3448C5"/>
<defs>
<radialGradient id="paint0_radial_1024_11477" cx="0" cy="0" r="1" gradientUnits="userSpaceOnUse" gradientTransform="translate(47.4238 48.0088) rotate(90) scale(47.04)">
<stop stop-color="#333944"/>
<stop offset="1" stop-color="#222428"/>
</radialGradient>
</defs>
</svg>
