<svg width="95" height="95" viewBox="0 0 95 95" fill="none" xmlns="http://www.w3.org/2000/svg">
<rect x="1.07239" y="1.21497" width="92.736" height="92.736" rx="13.44" fill="url(#paint0_radial_1024_11428)"/>
<rect x="1.07239" y="1.21497" width="92.736" height="92.736" rx="13.44" stroke="#6886C3" stroke-width="1.344"/>
<g clip-path="url(#clip0_1024_11428)">
<path fill-rule="evenodd" clip-rule="evenodd" d="M81.0408 20.5449C81.0408 16.9229 78.1003 13.9824 74.4783 13.9824H20.4033C16.7813 13.9824 13.8408 16.9229 13.8408 20.5449V74.6199C13.8408 78.2419 16.7813 81.1824 20.4033 81.1824H74.4783C78.1003 81.1824 81.0408 78.2419 81.0408 74.6199V20.5449Z" fill="#891B26"/>
<path fill-rule="evenodd" clip-rule="evenodd" d="M44.2125 76.0398L27.2944 46.7483L18.5439 61.8982V73.4148C18.5439 74.8637 19.7199 76.0398 21.1689 76.0398H44.2125ZM56.5493 76.0398H46.7949C46.7949 76.0398 34.1588 54.1548 29.9253 46.833C29.0964 45.3991 29.0958 43.6259 29.9246 42.1917C31.4557 39.5426 33.4631 36.0682 33.4631 36.0682L56.5493 76.0398ZM68.8862 76.0398H59.1317L34.897 33.5852L39.6312 25.3893L68.8862 76.0398ZM75.9002 66.8247V73.4148C75.9002 74.8637 74.7242 76.0398 73.2752 76.0398H71.4686L40.9221 23.154L43.5044 18.6836H48.0949L75.9002 66.8247ZM73.2752 18.6836H50.6766L75.9002 62.3541V21.3086C75.9002 19.8598 74.7242 18.6836 73.2752 18.6836Z" fill="url(#paint1_radial_1024_11428)"/>
</g>
<defs>
<radialGradient id="paint0_radial_1024_11428" cx="0" cy="0" r="1" gradientUnits="userSpaceOnUse" gradientTransform="translate(47.4404 47.583) rotate(90) scale(47.04)">
<stop stop-color="#333944"/>
<stop offset="1" stop-color="#222428"/>
</radialGradient>
<radialGradient id="paint1_radial_1024_11428" cx="0" cy="0" r="1" gradientUnits="userSpaceOnUse" gradientTransform="translate(62.3782 7.90403) scale(68.1358)">
<stop stop-color="#FFAE71"/>
<stop offset="1" stop-color="#FF9350"/>
</radialGradient>
<clipPath id="clip0_1024_11428">
<rect width="67.2" height="67.2" fill="white" transform="translate(13.8408 13.9824)"/>
</clipPath>
</defs>
</svg>
