<svg width="95" height="96" viewBox="0 0 95 96" fill="none" xmlns="http://www.w3.org/2000/svg">
<rect x="1.20813" y="1.62512" width="92.736" height="92.736" rx="13.44" fill="url(#paint0_radial_1024_11620)"/>
<rect x="1.20813" y="1.62512" width="92.736" height="92.736" rx="13.44" stroke="#6886C3" stroke-width="1.344"/>
<path d="M58.8013 51.7553C63.2177 51.7553 69.6076 50.8445 69.6076 45.5913C69.6208 45.1859 69.5841 44.7804 69.4982 44.384L66.8681 32.9598C66.2609 30.4462 65.7278 29.3059 61.3149 27.0994C57.8904 25.3484 50.4308 22.457 48.2244 22.457C46.1697 22.457 45.5731 25.1048 43.123 25.1048C40.7648 25.1048 39.0137 23.1278 36.8073 23.1278C34.6891 23.1278 33.3087 24.5717 32.2425 27.5407C32.2425 27.5407 29.2735 35.9147 28.8922 37.1291C28.8316 37.3521 28.8055 37.5831 28.8146 37.814C28.8146 41.069 41.6297 51.7412 58.8013 51.7412M70.2855 47.7237C70.8962 50.615 70.8962 50.9186 70.8962 51.2999C70.8962 56.2424 65.3395 58.9855 58.0352 58.9855C41.5273 58.996 27.0671 49.3229 27.0671 42.9295C27.0661 42.0395 27.2475 41.1588 27.6001 40.3417C21.6621 40.6383 13.9766 41.6974 13.9766 48.4827C13.9766 59.5962 40.3094 73.2939 61.1595 73.2939C77.1449 73.2939 81.1766 66.0638 81.1766 60.3552C81.1766 55.8646 77.2932 50.7668 70.2925 47.7237" fill="#EE0000"/>
<path d="M70.2848 47.723C70.8956 50.6144 70.8956 50.918 70.8956 51.2992C70.8956 56.2417 65.3388 58.9848 58.0345 58.9848C41.5267 58.9954 27.0664 49.3223 27.0664 42.9288C27.0655 42.0389 27.2469 41.1582 27.5995 40.3411L28.8916 37.1426C28.8324 37.361 28.8062 37.5871 28.8139 37.8133C28.8139 41.0683 41.6291 51.7405 58.8006 51.7405C63.2171 51.7405 69.607 50.8297 69.607 45.5766C69.6202 45.1711 69.5834 44.7656 69.4975 44.3692L70.2848 47.723Z" fill="black"/>
<defs>
<radialGradient id="paint0_radial_1024_11620" cx="0" cy="0" r="1" gradientUnits="userSpaceOnUse" gradientTransform="translate(47.5761 47.9931) rotate(90) scale(47.04)">
<stop stop-color="#333944"/>
<stop offset="1" stop-color="#222428"/>
</radialGradient>
</defs>
</svg>
