<svg width="95" height="95" viewBox="0 0 95 95" fill="none" xmlns="http://www.w3.org/2000/svg">
<rect x="0.752078" y="1.33606" width="92.736" height="92.736" rx="13.44" fill="url(#paint0_radial_1024_11653)"/>
<rect x="0.752078" y="1.33606" width="92.736" height="92.736" rx="13.44" stroke="#6886C3" stroke-width="1.344"/>
<path d="M61.033 14.1035H33.208C22.3349 14.1035 13.5205 22.9179 13.5205 33.791V61.616C13.5205 72.4893 22.3349 81.3035 33.208 81.3035H61.033C71.9063 81.3035 80.7205 72.4893 80.7205 61.616V33.791C80.7205 22.9179 71.9063 14.1035 61.033 14.1035Z" fill="#398CCB"/>
<path fill-rule="evenodd" clip-rule="evenodd" d="M47.0473 23.9473L56.3762 29.3296V32.289L67.6675 38.8098V49.9642L70.6968 51.7127V62.4833L61.3738 67.8656L57.2348 65.4719L47.1715 71.2823L37.1684 65.5055L33.0875 67.8656L23.7646 62.4741V51.7127L26.6754 50.0323V38.8098L37.7246 32.431L37.7307 32.4307V29.3296L47.0473 23.9473ZM56.3762 35.0877V40.0941L47.0534 45.4764L37.7307 40.0941V35.2264L37.7246 35.2266L29.0984 40.2091V48.6333L33.0875 46.3304L42.4102 51.7127V62.4741L39.5897 64.1052L47.1715 68.4835L54.8137 64.072L52.051 62.4741V51.7127L61.3738 46.3304L65.2446 48.5652V40.2091L56.3762 35.0877ZM54.4741 61.087V54.5174L60.1622 57.8007V64.3703L54.4741 61.087ZM68.2734 54.5083L62.5854 57.7917V64.3703L68.2734 61.0779V54.5083ZM26.1877 61.0779V54.5083L31.8759 57.7917V64.3611L26.1877 61.0779ZM39.9872 54.5083L34.2989 57.7917V64.3611L39.9872 61.0779V54.5083ZM55.6857 52.4184L61.3738 49.1352L67.0617 52.4184L61.3738 55.7048L55.6857 52.4184ZM33.0875 49.126L27.3992 52.4184L33.0875 55.6956L38.7756 52.4184L33.0875 49.126ZM40.1537 38.6948V32.1252L45.8358 35.4114V41.978L40.1537 38.6948ZM53.9471 32.1252L48.2649 35.4114V41.975L53.9471 38.6948V32.1252ZM41.3653 30.0291L47.0473 26.7459L52.7356 30.0291L47.0473 33.3125L41.3653 30.0291Z" fill="white"/>
<defs>
<radialGradient id="paint0_radial_1024_11653" cx="0" cy="0" r="1" gradientUnits="userSpaceOnUse" gradientTransform="translate(47.1201 47.7041) rotate(90) scale(47.04)">
<stop stop-color="#333944"/>
<stop offset="1" stop-color="#222428"/>
</radialGradient>
</defs>
</svg>
