<svg width="95" height="96" viewBox="0 0 95 96" fill="none" xmlns="http://www.w3.org/2000/svg">
<rect x="1.36048" y="1.62512" width="92.736" height="92.736" rx="13.44" fill="url(#paint0_radial_1024_11616)"/>
<rect x="1.36048" y="1.62512" width="92.736" height="92.736" rx="13.44" stroke="#6886C3" stroke-width="1.344"/>
<g clip-path="url(#clip0_1024_11616)">
<path d="M14.44 43.1472C14.28 44.2692 14.1758 45.3984 14.1279 46.5308H65.171C64.9927 46.1826 64.7533 45.8686 64.5118 45.5614C55.7856 34.2876 51.0916 35.2651 44.3768 34.9787C42.1381 34.8866 40.6198 34.8496 31.7087 34.8496C26.9393 34.8496 21.7542 34.8618 16.705 34.8752C16.0514 36.6395 15.421 38.3495 15.1141 39.7406H41.2703V43.1472H14.44ZM65.5733 49.9407H14.1541C14.2079 50.8497 14.2927 51.7465 14.4152 52.6313H61.8876C64.0039 52.6313 65.1886 51.4306 65.5733 49.9407ZM17.0822 61.9245C17.0822 61.9245 24.9522 81.2487 47.6925 81.5919C61.2842 81.5919 72.9628 73.5197 78.2676 61.9245H17.0822Z" fill="white"/>
<path d="M47.6925 14.3926C35.1253 14.3926 24.1894 21.2937 18.4143 31.4952C22.9274 31.4858 31.7168 31.4804 31.7168 31.4804H31.7188V31.4771C42.1078 31.4771 42.494 31.5235 44.5234 31.6082L45.7801 31.6545C50.1573 31.8005 55.5374 32.2703 59.7707 35.4732C62.0685 37.2104 65.3863 41.0445 67.364 43.7761C69.1924 46.3026 69.7184 49.207 68.4752 51.9896C67.331 54.547 64.869 56.0725 61.8876 56.0725H15.2236C15.2236 56.0725 15.5014 57.25 15.9179 58.5499H79.6157C80.7468 55.1498 81.3251 51.5902 81.3283 48.0069C81.329 29.444 66.2695 14.3926 47.6925 14.3926Z" fill="white"/>
</g>
<defs>
<radialGradient id="paint0_radial_1024_11616" cx="0" cy="0" r="1" gradientUnits="userSpaceOnUse" gradientTransform="translate(47.7285 47.9931) rotate(90) scale(47.04)">
<stop stop-color="#333944"/>
<stop offset="1" stop-color="#222428"/>
</radialGradient>
<clipPath id="clip0_1024_11616">
<rect width="67.2" height="67.2" fill="white" transform="translate(14.1279 14.3926)"/>
</clipPath>
</defs>
</svg>
