<svg width="95" height="96" viewBox="0 0 95 96" fill="none" xmlns="http://www.w3.org/2000/svg">
<rect x="1.07239" y="1.62512" width="92.736" height="92.736" rx="13.44" fill="url(#paint0_radial_1024_11617)"/>
<rect x="1.07239" y="1.62512" width="92.736" height="92.736" rx="13.44" stroke="#6886C3" stroke-width="1.344"/>
<path d="M47.6472 53.9154C50.9192 53.9154 53.5717 51.2629 53.5717 47.9909C53.5717 44.7189 50.9192 42.0664 47.6472 42.0664C44.3751 42.0664 41.7227 44.7189 41.7227 47.9909C41.7227 51.2629 44.3751 53.9154 47.6472 53.9154Z" fill="#61DAFB"/>
<path d="M47.6475 60.1296C65.2046 60.1296 79.4375 54.6952 79.4375 47.9915C79.4375 41.2879 65.2046 35.8535 47.6475 35.8535C30.0903 35.8535 15.8574 41.2879 15.8574 47.9915C15.8574 54.6952 30.0903 60.1296 47.6475 60.1296Z" stroke="#61DAFB" stroke-width="3.36"/>
<path d="M37.135 54.0616C45.9136 69.2665 57.7364 78.8754 63.5419 75.5236C69.3474 72.1717 66.9373 57.1285 58.1587 41.9236C49.3801 26.7186 37.5574 17.1098 31.7518 20.4616C25.9463 23.8134 28.3565 38.8566 37.135 54.0616Z" stroke="#61DAFB" stroke-width="3.36"/>
<path d="M37.135 41.9223C28.3564 57.1272 25.9463 72.1704 31.7518 75.5223C37.5574 78.8741 49.3801 69.2652 58.1587 54.0603C66.9373 38.8553 69.3474 23.8121 63.5419 20.4603C57.7364 17.1085 45.9136 26.7173 37.135 41.9223Z" stroke="#61DAFB" stroke-width="3.36"/>
<defs>
<radialGradient id="paint0_radial_1024_11617" cx="0" cy="0" r="1" gradientUnits="userSpaceOnUse" gradientTransform="translate(47.4404 47.9931) rotate(90) scale(47.04)">
<stop stop-color="#333944"/>
<stop offset="1" stop-color="#222428"/>
</radialGradient>
</defs>
</svg>
