<svg width="96" height="95" viewBox="0 0 96 95" fill="none" xmlns="http://www.w3.org/2000/svg">
<rect x="1.63196" y="1.19934" width="92.736" height="92.736" rx="13.44" fill="url(#paint0_radial_1024_11580)"/>
<rect x="1.63196" y="1.19934" width="92.736" height="92.736" rx="13.44" stroke="#6886C3" stroke-width="1.344"/>
<path d="M54.5869 57.4569L38.1061 54.0129C38.0371 54.1464 37.9603 54.2756 37.8762 54.4001L52.8797 76.2865L53.7847 75.3824L56.3373 59.5093C55.9058 59.3271 55.5229 59.0466 55.2191 58.6902C54.9152 58.3338 54.6987 57.9114 54.5869 57.4566V57.4569ZM48.5747 35.9128C47.9573 36.8599 46.8916 37.4867 45.6778 37.4867C45.4909 37.4867 45.3093 37.4678 45.1308 37.4394L37.6147 49.1995L57.6952 40.5582C57.6889 40.4773 57.671 40.4017 57.671 40.3188C57.671 40.1497 57.6941 39.9859 57.7214 39.8242L48.5747 35.913V35.9128ZM49.1207 33.7697L58.8501 37.9298C59.1602 37.6874 59.5148 37.5084 59.8938 37.4027L61.4929 27.4593L55.4007 21.3671L48.5432 32.0974C48.8793 32.5945 49.0785 33.1714 49.1207 33.77V33.7697ZM69.5075 35.4739L63.4018 29.3672L62.0746 37.6116C62.4111 37.7808 62.7133 38.0108 62.9661 38.2899L69.5075 35.4739V35.4739ZM54.8788 55.2852C55.1178 54.8515 55.461 54.4841 55.8776 54.2162C56.2941 53.9484 56.7708 53.7886 57.2647 53.7512L59.0181 42.845C58.8806 42.7537 58.7577 42.6445 58.637 42.5321L38.4411 51.2239C38.4925 51.4349 38.5282 51.6502 38.545 51.8738L54.8788 55.2852V55.2852ZM71.1706 37.1381L64.1064 40.1778L81.5363 47.6298L81.5993 47.5668L71.1706 37.1381ZM58.5467 59.5421L56.4236 72.7415L68.7515 60.4136L59.8718 58.5593C59.5312 59.005 59.072 59.3456 58.5467 59.5421V59.5421ZM34.5845 56.1486C34.1382 56.1486 33.7109 56.0719 33.3109 55.9362L29.2159 62.3445L27.6336 60.7632L31.5122 54.6943C31.4163 54.5753 31.3269 54.4511 31.2445 54.3224L24.218 57.3477L22.5525 55.6821L30.2436 52.3715L16.3389 49.4694L14.4371 47.5668L15.0388 46.9652L31.0733 50.3125C31.2577 49.9627 31.4938 49.6427 31.7737 49.3633L23.9912 38.0117L25.563 36.4399L33.6938 48.3007C33.9858 48.2329 34.2845 48.1981 34.5842 48.1968C34.9276 48.1968 35.2604 48.2451 35.5786 48.327L43.187 36.422C42.5676 35.7794 42.2217 34.9216 42.2221 34.0291C42.2221 33.7561 42.2567 33.4915 42.3166 33.2374L32.8247 29.1792L34.4897 27.5139L43.4828 31.36C43.9389 30.9842 44.4839 30.732 45.0656 30.6277C45.6473 30.5235 46.246 30.5706 46.8042 30.7647L53.8191 19.7858L48.0004 13.9668L14.4004 47.5668L48.0004 81.1668L51.3068 77.8604L36.191 55.8081C35.6851 56.0324 35.1379 56.1483 34.5845 56.1486V56.1486ZM61.1569 43.3151L59.373 54.4022C59.6848 54.6527 59.9429 54.9634 60.1322 55.3157C60.3214 55.668 60.4378 56.0548 60.4745 56.4531L70.5995 58.5667L79.8708 49.2953L63.1362 42.1405C62.6573 42.778 61.9459 43.2003 61.1569 43.3154V43.3151Z" fill="#32E6E2"/>
<defs>
<radialGradient id="paint0_radial_1024_11580" cx="0" cy="0" r="1" gradientUnits="userSpaceOnUse" gradientTransform="translate(48 47.5673) rotate(90) scale(47.04)">
<stop stop-color="#333944"/>
<stop offset="1" stop-color="#222428"/>
</radialGradient>
</defs>
</svg>
