<svg width="96" height="95" viewBox="0 0 96 95" fill="none" xmlns="http://www.w3.org/2000/svg">
<rect x="1.63196" y="1.04895" width="92.736" height="92.736" rx="13.44" fill="url(#paint0_radial_1024_11664)"/>
<rect x="1.63196" y="1.04895" width="92.736" height="92.736" rx="13.44" stroke="#6886C3" stroke-width="1.344"/>
<path d="M64.8299 35.0911L48.7647 58.3192C48.5944 58.5655 48.3481 58.7499 48.0632 58.8446C47.7782 58.9393 47.4702 58.9384 47.1858 58.8433C46.9014 58.7477 46.6562 58.5624 46.4874 58.3156C46.3186 58.0685 46.2353 57.7733 46.2504 57.475L46.8933 44.6507L36.5135 42.4493C36.2917 42.4024 36.085 42.3016 35.9118 42.156C35.7385 42.0104 35.6041 41.8245 35.5203 41.6147C35.4365 41.405 35.4061 41.1778 35.4316 40.9533C35.4571 40.7289 35.5378 40.5141 35.6666 40.328L51.7319 17.0999C51.9023 16.8535 52.1486 16.669 52.4335 16.5745C52.7185 16.4799 53.0266 16.4804 53.311 16.5759C53.5954 16.6714 53.8406 16.8567 54.0094 17.1037C54.1782 17.3506 54.2614 17.6458 54.2463 17.9443L53.6034 30.7688L63.9831 32.9699C64.2049 33.0169 64.4116 33.1177 64.585 33.2632C64.7583 33.4088 64.8926 33.5947 64.9762 33.8045C65.0602 34.0143 65.0904 34.2415 65.0651 34.4659C65.0397 34.6903 64.9588 34.905 64.8299 35.0911Z" fill="#FCC72B"/>
<path d="M48.0067 77.8079C47.5794 77.8084 47.1562 77.7248 46.7615 77.5612C46.3667 77.3976 46.0081 77.1576 45.7064 76.8553L30.5266 61.6765C29.9194 61.0662 29.579 60.2397 29.5801 59.3786C29.5812 58.5176 29.9238 57.6916 30.5328 57.083C31.1417 56.474 31.9672 56.1312 32.8284 56.1299C33.6896 56.129 34.5161 56.4691 35.1267 57.0763L48.0067 69.9549L76.066 41.897C76.6777 41.2951 77.5024 40.9594 78.3603 40.9629C79.2188 40.9664 80.0407 41.3088 80.6471 41.9156C81.2539 42.5224 81.5967 43.3443 81.6002 44.2024C81.6033 45.0606 81.2677 45.8853 80.6658 46.497L50.3064 76.8553C50.0047 77.158 49.6463 77.3976 49.2516 77.5612C48.857 77.7248 48.4339 77.8084 48.0067 77.8079Z" fill="#729B1B"/>
<path d="M47.9937 77.8079C48.421 77.8084 48.8442 77.7248 49.239 77.5612C49.6337 77.3976 49.9923 77.1576 50.294 76.8553L65.4738 61.6765C66.0811 61.0662 66.4216 60.2397 66.4203 59.3786C66.4194 58.5176 66.0766 57.6916 65.4676 57.083C64.8586 56.474 64.033 56.1312 63.1719 56.1299C62.3108 56.129 61.4844 56.4691 60.8736 57.0763L47.9937 69.9549L19.9345 41.897C19.3228 41.2951 18.498 40.9594 17.64 40.9629C16.7819 40.9664 15.9599 41.3088 15.3531 41.9156C14.7463 42.5224 14.4039 43.3443 14.4004 44.2024C14.3969 45.0606 14.7326 45.8853 15.3345 46.497L45.694 76.8553C45.9957 77.158 46.3542 77.3976 46.7488 77.5612C47.1435 77.7248 47.5666 77.8084 47.9937 77.8079Z" fill="#729B1B" fill-opacity="0.5"/>
<defs>
<radialGradient id="paint0_radial_1024_11664" cx="0" cy="0" r="1" gradientUnits="userSpaceOnUse" gradientTransform="translate(48 47.417) rotate(90) scale(47.04)">
<stop stop-color="#333944"/>
<stop offset="1" stop-color="#222428"/>
</radialGradient>
</defs>
</svg>
