<svg width="95" height="95" viewBox="0 0 95 95" fill="none" xmlns="http://www.w3.org/2000/svg">
<rect x="1.05579" y="1.06458" width="92.736" height="92.736" rx="13.44" fill="url(#paint0_radial_1024_11519)"/>
<rect x="1.05579" y="1.06458" width="92.736" height="92.736" rx="13.44" stroke="#6886C3" stroke-width="1.344"/>
<path d="M18.8956 42.266C18.7647 42.266 18.732 42.2006 18.7975 42.1024L19.4845 41.219C19.55 41.1209 19.7136 41.0554 19.8444 41.0554H31.525C31.6559 41.0554 31.6886 41.1536 31.6232 41.2517L31.0669 42.1024C31.0015 42.2006 30.8379 42.2987 30.7398 42.2987L18.8956 42.266ZM13.9551 45.2761C13.8242 45.2761 13.7915 45.2107 13.8569 45.1125L14.544 44.2291C14.6095 44.131 14.7731 44.0655 14.9039 44.0655H29.8236C29.9545 44.0655 30.0199 44.1637 29.9872 44.2618L29.7255 45.0471C29.6928 45.178 29.5619 45.2434 29.431 45.2434L13.9551 45.2761ZM21.873 48.2862C21.7421 48.2862 21.7094 48.1881 21.7748 48.0899L22.2329 47.272C22.2983 47.1738 22.4292 47.0757 22.5601 47.0757H29.1038C29.2347 47.0757 29.3001 47.1738 29.3001 47.3047L29.2347 48.0899C29.2347 48.2208 29.1038 48.319 29.0057 48.319L21.873 48.2862ZM55.8349 41.6771C53.7737 42.2006 52.3668 42.5932 50.3382 43.1167C49.8474 43.2476 49.8147 43.2803 49.3894 42.7895C48.8986 42.2333 48.5387 41.8734 47.8516 41.5462C45.7903 40.5319 43.7945 40.8264 41.9295 42.037C39.7047 43.4766 38.5595 45.6033 38.5922 48.2535C38.6249 50.871 40.4245 53.0304 43.0092 53.3903C45.2341 53.6848 47.0991 52.8996 48.5714 51.2309C48.8659 50.871 49.1276 50.4784 49.4548 50.0203H43.1401C42.453 50.0203 42.2894 49.595 42.5185 49.0388C42.9438 48.0245 43.729 46.3231 44.1871 45.4724C44.2853 45.2761 44.5143 44.9489 45.0051 44.9489H56.9147C56.8492 45.8323 56.8492 46.7157 56.7183 47.5991C56.3584 49.9549 55.475 52.1143 54.0354 54.012C51.6797 57.1203 48.6041 59.0507 44.7106 59.5742C41.5042 59.9995 38.5268 59.3778 35.9093 57.4147C33.4881 55.5825 32.1139 53.1613 31.754 50.1512C31.3287 46.5849 32.3757 43.3784 34.5351 40.5646C36.8581 37.5218 39.9337 35.5914 43.6963 34.9043C46.7719 34.3481 49.7166 34.708 52.3668 36.5075C54.1009 37.6527 55.3442 39.2232 56.1621 41.1209C56.3584 41.4153 56.2276 41.5789 55.8349 41.6771Z" fill="#00ACD7"/>
<path d="M66.6651 59.7702C63.6877 59.7048 60.9721 58.8541 58.6818 56.891C56.7514 55.2224 55.5408 53.0956 55.1482 50.5763C54.5592 46.8791 55.5735 43.6072 57.7984 40.6953C60.1868 37.5543 63.0661 35.9184 66.9596 35.2313C70.2969 34.6423 73.4379 34.9695 76.2844 36.8999C78.8691 38.6667 80.4724 41.0552 80.8977 44.1962C81.4539 48.6132 80.1779 52.2122 77.1351 55.2878C74.9756 57.4799 72.3254 58.8541 69.2826 59.4758C68.3992 59.6394 67.5158 59.6721 66.6651 59.7702V59.7702ZM74.4521 46.5519C74.4194 46.1266 74.4194 45.7994 74.354 45.4722C73.765 42.2331 70.7877 40.4008 67.6794 41.1206C64.6366 41.8077 62.6735 43.7381 61.9536 46.8137C61.3647 49.3657 62.608 51.9505 64.9638 52.9975C66.7633 53.7827 68.5628 53.6846 70.2969 52.8012C72.8816 51.4597 74.2885 49.3657 74.4521 46.5519V46.5519Z" fill="#00ACD7"/>
<defs>
<radialGradient id="paint0_radial_1024_11519" cx="0" cy="0" r="1" gradientUnits="userSpaceOnUse" gradientTransform="translate(47.4238 47.4326) rotate(90) scale(47.04)">
<stop stop-color="#333944"/>
<stop offset="1" stop-color="#222428"/>
</radialGradient>
</defs>
</svg>
