<svg width="95" height="95" viewBox="0 0 95 95" fill="none" xmlns="http://www.w3.org/2000/svg">
<rect x="1.22473" y="0.929812" width="92.736" height="92.736" rx="13.44" fill="url(#paint0_radial_1024_11445)"/>
<rect x="1.22473" y="0.929812" width="92.736" height="92.736" rx="13.44" stroke="#6886C3" stroke-width="1.344"/>
<path d="M37.9804 70.9358C34.955 68.1606 34.0718 62.3297 35.3323 58.1055C37.5179 60.7688 40.5462 61.6124 43.683 62.0886C48.5254 62.8236 53.2812 62.5487 57.7796 60.3278C58.2941 60.0735 58.7696 59.7355 59.3319 59.393C59.7541 60.6217 59.8639 61.8624 59.7165 63.1249C59.3581 66.2 57.8331 68.5753 55.4074 70.3758C54.4375 71.0959 53.4111 71.7397 52.4094 72.4189C49.3321 74.5061 48.4994 76.9533 49.6557 80.5134C49.6833 80.6001 49.7079 80.6867 49.77 80.8984C48.1986 80.1928 47.0511 79.1656 46.1766 77.8146C45.2528 76.3888 44.8133 74.8117 44.7902 73.1052C44.7786 72.2748 44.7786 71.4369 44.6672 70.6184C44.3955 68.6223 43.4619 67.7285 41.7026 67.677C39.8972 67.6241 38.469 68.7442 38.0903 70.5079C38.0614 70.6432 38.0195 70.777 37.9776 70.9342L37.9804 70.9358Z" fill="#FF5D01"/>
<path d="M20.7129 57.4004C20.7129 57.4004 29.6717 53.021 38.6556 53.021L45.4291 31.986C45.6827 30.9688 46.4232 30.2775 47.259 30.2775C48.0949 30.2775 48.8355 30.9688 49.0891 31.986L55.8626 53.021C66.5026 53.021 73.8053 57.4004 73.8053 57.4004C73.8053 57.4004 58.588 15.8027 58.5582 15.7192C58.1214 14.4893 57.3842 13.6973 56.3901 13.6973H38.1296C37.1356 13.6973 36.428 14.4893 35.9615 15.7192C35.9287 15.8011 20.7129 57.4004 20.7129 57.4004Z" fill="white"/>
<defs>
<radialGradient id="paint0_radial_1024_11445" cx="0" cy="0" r="1" gradientUnits="userSpaceOnUse" gradientTransform="translate(47.5927 47.2978) rotate(90) scale(47.04)">
<stop stop-color="#333944"/>
<stop offset="1" stop-color="#222428"/>
</radialGradient>
</defs>
</svg>
