<svg width="96" height="95" viewBox="0 0 96 95" fill="none" xmlns="http://www.w3.org/2000/svg">
<rect x="1.63196" y="0.777469" width="92.736" height="92.736" rx="13.44" fill="url(#paint0_radial_1024_11538)"/>
<rect x="1.63196" y="0.777469" width="92.736" height="92.736" rx="13.44" stroke="#6886C3" stroke-width="1.344"/>
<path d="M56.5434 20.5098V33.1569L70.7555 69.659C70.7555 69.659 75.0943 78.5738 62.6848 80.7461H34.3751C34.3751 80.7461 22.8088 79.5392 25.5817 70.3809L40.517 33.1574V20.5098H56.5434Z" fill="#009688"/>
<path d="M56.8428 19.038H39.794C38.4132 19.038 37.29 17.8097 37.29 16.292C37.29 14.7733 38.4127 13.5449 39.794 13.5449H56.8428C58.2299 13.5449 59.3512 14.7733 59.3512 16.292C59.3512 17.8097 58.2295 19.038 56.8428 19.038Z" fill="#004D40"/>
<path d="M52.3457 41.1582C54.1751 41.1582 55.667 42.9457 55.667 45.1594C55.667 47.3634 54.1742 49.1553 52.3457 49.1553C50.5119 49.1553 49.0244 47.3634 49.0244 45.1594C49.0244 42.9448 50.5119 41.1582 52.3457 41.1582Z" fill="white"/>
<path d="M42.1493 51.5378C43.6955 51.5378 44.9489 50.0271 44.9489 48.1635C44.9489 46.2998 43.6955 44.7891 42.1493 44.7891C40.6031 44.7891 39.3496 46.2998 39.3496 48.1635C39.3496 50.0271 40.6031 51.5378 42.1493 51.5378Z" fill="white"/>
<path d="M57.8066 32.3181V26.3029C57.8066 26.3029 65.4346 24.621 69.2468 33.4934C69.2468 33.4934 63.3056 37.822 57.8066 32.3181Z" fill="#004D40"/>
<path d="M39.1238 32.3181V26.3029C39.1238 26.3029 31.4949 24.621 27.6846 33.4934C27.6846 33.4934 33.6199 37.822 39.1238 32.3181Z" fill="#004D40"/>
<path d="M62.3936 57.2119C49.9895 53.3641 39.5609 55.4298 34.4638 56.9913L29.3238 69.3632C27.0097 76.7491 36.6721 77.7198 36.6721 77.7198H60.3167C70.681 75.9688 67.0587 68.7836 67.0587 68.7836L62.3936 57.2119Z" fill="white"/>
<path d="M44.5167 61.8094C44.5167 63.1435 42.7238 64.2286 40.5154 64.2286C38.3071 64.2286 36.5195 63.143 36.5195 61.8094C36.5195 60.47 38.3071 59.3887 40.5154 59.3887C42.7247 59.3896 44.5167 60.47 44.5167 61.8094Z" fill="#004D40"/>
<path d="M58.7461 61.8094C58.7461 63.1435 56.9533 64.2286 54.7503 64.2286C52.5356 64.2286 50.749 63.143 50.749 61.8094C50.749 60.47 52.5356 59.3887 54.7503 59.3887C56.9542 59.3896 58.7461 60.47 58.7461 61.8094Z" fill="#004D40"/>
<defs>
<radialGradient id="paint0_radial_1024_11538" cx="0" cy="0" r="1" gradientUnits="userSpaceOnUse" gradientTransform="translate(48 47.1455) rotate(90) scale(47.04)">
<stop stop-color="#333944"/>
<stop offset="1" stop-color="#222428"/>
</radialGradient>
</defs>
</svg>
