<svg width="95" height="95" viewBox="0 0 95 95" fill="none" xmlns="http://www.w3.org/2000/svg">
<rect x="1.20813" y="0.912234" width="92.736" height="92.736" rx="13.44" fill="url(#paint0_radial_1024_11599)"/>
<rect x="1.20813" y="0.912234" width="92.736" height="92.736" rx="13.44" stroke="#6886C3" stroke-width="1.344"/>
<path d="M37.7947 50.322C35.6298 50.9364 34.2095 52.0136 33.2739 53.0899C34.1701 52.3057 35.3704 51.586 36.9896 51.127C38.6457 50.6576 40.0586 50.661 41.2261 50.8863V49.9734C40.2302 49.8823 39.0884 49.9549 37.7947 50.322ZM33.175 42.6477L25.1351 44.7659C25.1351 44.7659 25.2816 44.9729 25.5529 45.249L32.3698 43.4528C32.3698 43.4528 32.2732 44.6975 31.4343 45.811C33.0211 44.6105 33.175 42.6477 33.175 42.6477ZM39.9049 61.5429C28.5906 64.5902 22.6046 51.4782 20.7923 44.6725C19.955 41.531 19.5895 39.1518 19.4921 37.6165C19.4816 37.457 19.4864 37.3226 19.4977 37.1995C18.9108 37.2349 18.6298 37.54 18.687 38.4217C18.7844 39.9562 19.1499 42.3353 19.9872 45.4777C21.7987 52.2824 27.7855 65.3944 39.0998 62.3471C41.5626 61.6836 43.4127 60.4752 44.8016 58.9326C43.5214 60.0888 41.9192 60.9994 39.9049 61.5429ZM42.0311 34.623V35.4283H46.469C46.3779 35.1432 46.2862 34.8863 46.1952 34.623H42.0311Z" fill="#2D4552"/>
<path d="M47.4611 41.2534C49.4569 41.8203 50.5125 43.2195 51.0704 44.4579L53.2957 45.0899C53.2957 45.0899 52.9922 40.756 49.072 39.6425C45.4048 38.6006 43.148 41.6802 42.8735 42.0787C43.9403 41.3186 45.4982 40.6964 47.4611 41.2534ZM65.1752 44.4779C61.5046 43.4312 59.2486 46.5172 58.9782 46.9102C60.0458 46.151 61.6028 45.5285 63.5649 46.0881C65.5576 46.6558 66.6123 48.0534 67.1719 49.2926L69.4004 49.9269C69.4004 49.9269 69.0919 45.5922 65.1752 44.4779ZM62.9643 55.9049L44.4524 50.7296C44.4524 50.7296 44.6528 51.7457 45.4217 53.0613L61.0079 57.4186C62.2911 56.6762 62.9643 55.9049 62.9643 55.9049ZM50.1299 67.0445C35.4721 63.1146 37.2442 44.4386 39.616 35.5886C40.5926 31.9415 41.5966 29.2307 42.4292 27.4136C41.9324 27.3113 41.521 27.573 41.1144 28.3999C40.2304 30.1928 39.0999 33.1122 38.0059 37.1989C35.6347 46.0487 33.8627 64.724 48.5198 68.6539C55.4285 70.5048 60.8105 67.6918 64.8226 63.274C61.0143 66.7232 56.1522 68.6571 50.1299 67.0445Z" fill="#2D4552"/>
<path d="M42.0308 57.1675V53.3987L31.5596 56.368C31.5596 56.368 32.3333 51.8723 37.7943 50.3232C39.4505 49.8538 40.8635 49.857 42.0308 50.0824V34.6242H47.2737C46.7029 32.8602 46.1506 31.5021 45.6868 30.5585C44.9195 28.9966 44.133 30.032 42.3473 31.5255C41.0896 32.5762 37.9111 34.8176 33.128 36.1065C28.3448 37.3962 24.4778 37.0542 22.8644 36.7748C20.577 36.3802 19.3806 35.8779 19.4925 37.6177C19.59 39.1522 19.9555 41.5314 20.7928 44.6737C22.6043 51.4785 28.5911 64.5906 39.9054 61.5432C42.8609 60.7469 44.9469 59.1729 46.3929 57.1666H42.0308V57.1675ZM25.134 44.7671L33.1747 42.6489C33.1747 42.6489 32.9403 45.7421 29.926 46.5368C26.9108 47.3306 25.134 44.7671 25.134 44.7671Z" fill="#E2574C"/>
<path d="M72.2925 34.8024C70.2024 35.1689 65.1881 35.6253 58.9912 33.9643C52.7927 32.3043 48.6801 29.401 47.0506 28.0363C44.7408 26.1016 43.7247 24.7571 42.7248 26.7908C41.8408 28.5846 40.7103 31.5039 39.6161 35.5907C37.2451 44.4404 35.4731 63.1158 50.1301 67.0457C64.784 70.9722 72.5855 53.9118 74.9566 45.0612C76.0508 40.9753 76.5306 37.8812 76.6626 35.8862C76.8132 33.6263 75.2609 34.2823 72.2925 34.8024ZM42.8439 42.1242C42.8439 42.1242 45.1537 38.5317 49.0713 39.6452C52.9914 40.7587 53.295 45.0926 53.295 45.0926L42.8439 42.1242ZM52.407 58.245C45.5161 56.2265 44.4533 50.7315 44.4533 50.7315L62.9644 55.9069C62.9644 55.9061 59.2279 60.2383 52.407 58.245ZM58.9518 46.9524C58.9518 46.9524 61.2584 43.3624 65.1753 44.4791C69.0921 45.5943 69.4005 49.9282 69.4005 49.9282L58.9518 46.9524Z" fill="#2EAD33"/>
<path d="M38.3724 54.4332L31.5604 56.3639C31.5604 56.3639 32.3003 52.1484 37.3185 50.4778L33.4612 36.002L33.1279 36.1033C28.3448 37.3932 24.4778 37.0509 22.8644 36.7716C20.577 36.3771 19.3806 35.8746 19.4925 37.6146C19.59 39.1491 19.9555 41.5281 20.7928 44.6706C22.6043 51.4753 28.5911 64.5873 39.9054 61.54L40.2387 61.4353L38.3724 54.4332ZM25.1348 44.764L33.1755 42.6457C33.1755 42.6457 32.9411 45.7389 29.9268 46.5335C26.9117 47.3273 25.1348 44.764 25.1348 44.764Z" fill="#D65348"/>
<path d="M52.7178 58.3206L52.4061 58.2448C45.5153 56.2265 44.4525 50.7315 44.4525 50.7315L53.9979 53.3997L59.0515 33.9804L58.9904 33.9643C52.7919 32.3043 48.6794 29.401 47.0498 28.0363C44.74 26.1016 43.7239 24.7571 42.724 26.7908C41.8408 28.5846 40.7103 31.5039 39.6161 35.5907C37.2451 44.4404 35.4731 63.1158 50.1301 67.0455L50.4305 67.1132L52.7178 58.3206ZM42.8439 42.1242C42.8439 42.1242 45.1537 38.5317 49.0713 39.6452C52.9914 40.7587 53.295 45.0926 53.295 45.0926L42.8439 42.1242Z" fill="#1D8D22"/>
<path d="M38.7194 54.3369L36.8926 54.8554C37.3242 57.2884 38.0849 59.6232 39.2789 61.6859C39.4867 61.6401 39.6928 61.6006 39.9045 61.5426C40.4592 61.3929 40.9737 61.2076 41.4689 61.0055C40.1348 59.0258 39.2523 56.7457 38.7194 54.3369ZM38.0061 37.2009C37.0673 40.7048 36.2275 45.7479 36.4587 50.8064C36.8724 50.6268 37.3096 50.4595 37.7951 50.3217L38.1333 50.2461C37.721 44.8429 38.6123 39.3369 39.6162 35.5907C39.8707 34.643 40.1259 33.7615 40.3803 32.9395C39.9705 33.2002 39.5294 33.4675 39.0269 33.7428C38.688 34.7888 38.3458 35.932 38.0061 37.2009Z" fill="#C04B41"/>
<defs>
<radialGradient id="paint0_radial_1024_11599" cx="0" cy="0" r="1" gradientUnits="userSpaceOnUse" gradientTransform="translate(47.5761 47.2802) rotate(90) scale(47.04)">
<stop stop-color="#333944"/>
<stop offset="1" stop-color="#222428"/>
</radialGradient>
</defs>
</svg>
