<svg width="95" height="95" viewBox="0 0 95 95" fill="none" xmlns="http://www.w3.org/2000/svg">
<rect x="0.752078" y="0.777469" width="92.736" height="92.736" rx="13.44" fill="url(#paint0_radial_1024_11548)"/>
<rect x="0.752078" y="0.777469" width="92.736" height="92.736" rx="13.44" stroke="#6886C3" stroke-width="1.344"/>
<path d="M77.9137 13.5449H45.5537C45.5537 17.4192 47.0927 21.1347 49.8322 23.8742C52.5717 26.6137 56.2873 28.1528 60.1615 28.1528H66.1226V33.9083C66.1279 41.9687 72.6606 48.5017 80.7209 48.5069V16.3522C80.7209 14.8022 79.4645 13.5449 77.9137 13.5449Z" fill="white"/>
<path d="M61.9008 29.6699H29.541C29.546 37.7302 36.0788 44.2633 44.1394 44.2685H50.1005V50.0425C50.1108 58.1028 56.648 64.6313 64.7083 64.6313V32.4777C64.7083 30.9272 63.4513 29.6702 61.9008 29.6702V29.6699Z" fill="url(#paint1_linear_1024_11548)"/>
<path d="M45.8805 45.7852H13.5205C13.5205 53.8529 20.0609 60.393 28.1283 60.393H34.1081V66.1483C34.1134 74.2013 40.6348 80.7314 48.688 80.7467V48.5927C48.688 47.0422 47.431 45.7852 45.8805 45.7852Z" fill="url(#paint2_linear_1024_11548)"/>
<defs>
<radialGradient id="paint0_radial_1024_11548" cx="0" cy="0" r="1" gradientUnits="userSpaceOnUse" gradientTransform="translate(47.1201 47.1455) rotate(90) scale(47.04)">
<stop stop-color="#333944"/>
<stop offset="1" stop-color="#222428"/>
</radialGradient>
<linearGradient id="paint1_linear_1024_11548" x1="63.9906" y1="29.738" x2="50.24" y2="43.9263" gradientUnits="userSpaceOnUse">
<stop offset="0.15" stop-color="white" stop-opacity="0.4"/>
<stop offset="0.29" stop-color="white" stop-opacity="0.47"/>
<stop offset="0.56" stop-color="white" stop-opacity="0.66"/>
<stop offset="0.95" stop-color="white" stop-opacity="0.96"/>
<stop offset="1" stop-color="white"/>
</linearGradient>
<linearGradient id="paint2_linear_1024_11548" x1="48.9622" y1="45.9702" x2="33.0184" y2="61.4889" gradientUnits="userSpaceOnUse">
<stop offset="0.15" stop-color="white" stop-opacity="0.4"/>
<stop offset="0.29" stop-color="white" stop-opacity="0.47"/>
<stop offset="0.56" stop-color="white" stop-opacity="0.66"/>
<stop offset="0.95" stop-color="white" stop-opacity="0.96"/>
<stop offset="1" stop-color="white"/>
</linearGradient>
</defs>
</svg>
