<svg width="95" height="95" viewBox="0 0 95 95" fill="none" xmlns="http://www.w3.org/2000/svg">
<rect x="1.36048" y="1.19934" width="92.736" height="92.736" rx="13.44" fill="url(#paint0_radial_1024_11574)"/>
<rect x="1.36048" y="1.19934" width="92.736" height="92.736" rx="13.44" stroke="#6886C3" stroke-width="1.344"/>
<path d="M47.8266 14.1484L49.6198 17.5166C50.023 18.1381 50.4598 18.6883 50.9742 19.2007C52.4825 20.6901 53.8884 22.2798 55.1823 23.9589C58.2208 27.9486 60.2703 32.3793 61.7339 37.1711C62.6116 40.0983 63.0883 43.1011 63.124 46.1375C63.271 55.2151 60.159 63.0097 53.8846 69.4877C52.864 70.515 51.7615 71.4574 50.5879 72.3057C49.9663 72.3057 49.6723 71.829 49.4162 71.3902C48.9496 70.5764 48.6391 69.6826 48.5006 68.7549C48.2801 67.6566 48.1352 66.5584 48.2066 65.4245V64.9122C48.1562 64.803 47.6082 14.4067 47.8266 14.1484V14.1484Z" fill="#599636"/>
<path d="M47.8261 14.039C47.7526 13.892 47.6791 14.0033 47.6056 14.0747C47.6413 14.8097 47.3852 15.4648 46.9841 16.0906C46.5431 16.7121 45.9594 17.1888 45.3735 17.7012C42.1187 20.5192 39.5569 23.923 37.5054 27.73C34.7756 32.8536 33.3687 38.3447 32.9697 44.1256C32.787 46.2108 33.629 53.5686 34.2863 55.6916C36.0796 61.3275 39.3007 66.0501 43.4731 70.149C44.4979 71.1359 45.594 72.0515 46.7279 72.9313C47.0576 72.9313 47.0933 72.6373 47.1689 72.4189C47.3134 71.9516 47.4236 71.4744 47.4985 70.991L48.2335 65.502L47.8261 14.039Z" fill="#6CAC48"/>
<path d="M49.62 74.537C49.6935 73.6971 50.0967 72.9999 50.5355 72.3049C50.0946 72.1222 49.767 71.7589 49.5108 71.3537C49.2899 70.97 49.1071 70.5656 48.9649 70.1463C48.4525 68.6092 48.3433 66.9965 48.1963 65.4258V64.4746C48.0136 64.6216 47.9758 65.8647 47.9758 66.0495C47.869 67.7096 47.6487 69.3604 47.3165 70.9904C47.2073 71.6497 47.1338 72.307 46.7285 72.8928C46.7285 72.9663 46.7285 73.0398 46.7642 73.149C47.4236 75.0893 47.6042 77.0652 47.7154 79.079V79.8139C47.7154 80.6916 47.6797 80.5068 48.4084 80.8008C48.7024 80.91 49.03 80.9478 49.3239 81.1662C49.5444 81.1662 49.5801 80.9835 49.5801 80.8365L49.4709 79.6291V76.261C49.4352 75.673 49.5444 75.0893 49.6179 74.5391L49.62 74.537Z" fill="#C2BFBF"/>
<defs>
<radialGradient id="paint0_radial_1024_11574" cx="0" cy="0" r="1" gradientUnits="userSpaceOnUse" gradientTransform="translate(47.7285 47.5673) rotate(90) scale(47.04)">
<stop stop-color="#333944"/>
<stop offset="1" stop-color="#222428"/>
</radialGradient>
</defs>
</svg>
