<svg width="95" height="95" viewBox="0 0 95 95" fill="none" xmlns="http://www.w3.org/2000/svg">
<rect x="0.903445" y="1.35169" width="92.736" height="92.736" rx="13.44" fill="url(#paint0_radial_1024_11502)"/>
<rect x="0.903445" y="1.35169" width="92.736" height="92.736" rx="13.44" stroke="#6886C3" stroke-width="1.344"/>
<path d="M24.2094 60.6842C18.9938 55.1571 15.9421 47.5217 15.9498 38.4118C15.9428 30.3551 18.4741 23.43 22.8257 18.1604L22.8189 18.163H13.6719V60.6851H24.2031L24.2094 60.6842ZM72.3829 60.6879C74.6298 58.2813 76.643 55.4472 78.4673 52.206L68.3431 47.144C64.7873 52.9245 59.5875 58.2452 52.3973 58.2806C41.9325 58.2452 37.821 49.2967 37.8436 37.7789H76.9487C77.0009 36.4785 77.0009 35.8739 76.9487 35.248C77.2039 28.3956 75.3879 22.6358 72.0843 18.1504L72.0672 18.163H80.8719V60.6851H72.3638L72.3829 60.6879ZM38.4764 27.9077C38.9093 22.693 43.0207 19.1862 47.8414 19.1755C52.6949 19.1862 56.2016 22.693 56.3205 27.9077H38.4764Z" fill="#A90432"/>
<path d="M19.2406 67.8982V66.1267H13.7988V76.6304H19.2406V74.8587H15.8237V72.0747H19.1141V70.3028H15.8237V67.8982H19.2406ZM28.4791 72.2011C29.8356 71.9996 30.5805 70.6555 30.6305 69.2905C30.5805 67.0572 29.1329 66.1332 27.087 66.1267H24.3028V76.6304H26.3276V72.4543L28.8587 76.6304H31.3898L28.4791 72.2011ZM26.3276 67.7717H26.5807C27.6855 67.8133 28.5146 68.0654 28.4791 69.4169C28.5146 70.6555 27.7136 70.9914 26.5807 70.9355H26.3276V67.7717ZM37.7175 66.1267H35.6926V76.6304H40.6282V74.8587H37.7175V66.1267ZM51.0056 74.479L51.8915 76.6304H54.0429L50.1197 65.8734H48.4745L44.2983 76.6304H46.4497L47.3356 74.479H51.0056ZM50.4994 72.834H47.9683L49.1073 68.9108L50.4994 72.834ZM57.8395 76.6304H59.9909V69.5434L65.5593 76.8835H67.0779V66.1267H64.9265V73.2137L59.3581 65.8734H57.8395V76.6304ZM75.9367 71.0621V72.7073H78.2146C78.1672 74.0296 77.0852 75.1498 75.8101 75.1118C73.7965 75.1498 72.7987 73.2036 72.7728 71.4417C72.7987 69.7034 73.7825 67.6733 75.8101 67.6453C76.8742 67.6733 77.7738 68.4013 78.2146 69.2905L79.9864 68.4045C79.2072 66.7633 77.6332 65.8532 75.8101 65.8734C72.6721 65.8532 70.6626 68.4433 70.6214 71.4417C70.6626 74.3657 72.6161 76.9699 75.6836 77.0101C78.9965 76.9699 80.5283 74.3236 80.4926 71.3152V71.0621H75.9367Z" fill="#231F20"/>
<defs>
<radialGradient id="paint0_radial_1024_11502" cx="0" cy="0" r="1" gradientUnits="userSpaceOnUse" gradientTransform="translate(47.2714 47.7197) rotate(90) scale(47.04)">
<stop stop-color="#333944"/>
<stop offset="1" stop-color="#222428"/>
</radialGradient>
</defs>
</svg>
