<svg width="95" height="95" viewBox="0 0 95 95" fill="none" xmlns="http://www.w3.org/2000/svg">
<rect x="1.36048" y="0.912234" width="92.736" height="92.736" rx="13.44" fill="url(#paint0_radial_1024_11595)"/>
<rect x="1.36048" y="0.912234" width="92.736" height="92.736" rx="13.44" stroke="#6886C3" stroke-width="1.344"/>
<path d="M14.8008 21.3797C14.8008 17.1271 18.2482 13.6797 22.5008 13.6797H73.6008C77.8533 13.6797 81.3007 17.1271 81.3007 21.3797V73.1796C81.3007 77.4323 77.8533 80.8797 73.6008 80.8797H22.5008C18.2482 80.8797 14.8008 77.4323 14.8008 73.1796V21.3797Z" fill="#F6E458"/>
<path d="M57.4172 28.7006C53.7483 27.6467 50.0059 27.5035 46.1923 27.8446C44.0581 28.0663 42.0064 28.49 40.0273 29.2333C35.7497 30.8401 32.538 33.6229 30.6228 37.813C29.2498 40.8169 28.7536 44.0078 28.7019 47.2819C28.6472 50.7418 29.0808 54.154 29.7698 57.537C30.3943 60.6032 31.226 63.6095 32.4137 66.5116C32.5266 66.7873 32.6671 66.8802 32.9683 66.8796C36.7248 66.8716 40.4815 66.8716 44.2382 66.8716C45.3502 66.8716 46.4623 66.8716 47.5745 66.8714C47.6596 66.8714 47.7447 66.8668 47.8427 66.8613C47.8926 66.8587 47.946 66.8557 48.0043 66.8531C47.9818 66.7994 47.9617 66.7501 47.9425 66.7038C47.9055 66.6128 47.8731 66.5337 47.8369 66.4563C47.5652 65.8751 47.288 65.2966 47.0107 64.7179C46.4092 63.4626 45.8079 62.2074 45.264 60.9276C43.6142 57.0466 42.3509 53.0504 41.9653 48.8205C41.7953 46.9541 41.8189 45.0984 42.3368 43.2797C42.9286 41.2009 44.1987 39.7333 46.3046 39.1198C48.2383 38.5566 50.1991 38.5602 52.1222 39.1822C53.8386 39.7372 54.9577 40.9097 55.4338 42.6652C55.7994 44.0134 55.7992 45.3761 55.5227 46.7354C55.3096 47.7817 54.881 48.7368 54.1093 49.5006C52.7249 50.871 50.9961 51.1861 49.141 51.081C48.811 51.0623 48.482 51.0263 48.143 50.9889C47.9842 50.9716 47.8232 50.9539 47.6588 50.9376C47.6634 50.9901 47.6661 51.0384 47.6687 51.0837C47.6733 51.1728 47.6775 51.2501 47.6958 51.3239C47.7749 51.6417 47.8504 51.9606 47.9256 52.2795C48.1071 53.0478 48.2886 53.8161 48.5219 54.5683C48.9803 56.0453 49.5129 57.4868 50.117 58.8942C54.4228 58.5582 58.3885 57.4879 62.5978 54.9611C62.661 54.9212 62.7185 54.8852 62.7761 54.8494C64.5841 53.7237 66.0474 52.2636 67.0565 50.3782C68.6909 47.3248 69.0094 44.0595 68.5239 40.6892C68.0228 37.2108 66.4619 34.2912 63.7747 32.0011C61.9112 30.4127 59.7561 29.3725 57.4172 28.7006Z" fill="black"/>
<defs>
<radialGradient id="paint0_radial_1024_11595" cx="0" cy="0" r="1" gradientUnits="userSpaceOnUse" gradientTransform="translate(47.7285 47.2802) rotate(90) scale(47.04)">
<stop stop-color="#333944"/>
<stop offset="1" stop-color="#222428"/>
</radialGradient>
</defs>
</svg>
