<svg width="95" height="95" viewBox="0 0 95 95" fill="none" xmlns="http://www.w3.org/2000/svg">
<rect x="1.34387" y="1.19934" width="92.736" height="92.736" rx="13.44" fill="url(#paint0_radial_1024_11581)"/>
<rect x="1.34387" y="1.19934" width="92.736" height="92.736" rx="13.44" stroke="#6886C3" stroke-width="1.344"/>
<path d="M56.3504 57.1628H51.7429L51.358 56.7781V45.9924C51.358 44.0734 50.604 42.586 48.2898 42.5341C47.0989 42.5028 45.7363 42.5341 44.2803 42.5912L44.0618 42.8149V47.1728V56.7729L43.677 57.1577H39.0694L38.6846 56.7729V38.3477L39.0694 37.9629H49.4391C53.4694 37.9629 56.7353 41.2288 56.7353 45.2591V56.7781L56.3504 57.1628Z" fill="white"/>
<path d="M32.2732 67.3716H31.6387L28.4717 64.2045V63.5701L33.3133 58.7285H36.6676L37.1148 59.1757V62.53L32.2732 67.3716Z" fill="#32E6E2"/>
<path d="M28.4717 31.5496V30.9151L31.6387 27.748H32.2732L37.1148 32.5896V35.9439L36.6676 36.3912H33.3133L28.4717 31.5496Z" fill="#32E6E2"/>
<path d="M32.9275 50.2548H14.4971L14.1123 49.87V45.252L14.4971 44.8672H32.9275L33.3123 45.252V49.87L32.9275 50.2548Z" fill="#32E6E2"/>
<path d="M80.9286 50.2548H62.4981L62.1133 49.87V45.252L62.4981 44.8672H80.9286L81.3134 45.252V49.87L80.9286 50.2548Z" fill="#32E6E2"/>
<path d="M45.0557 32.2056V18.3829L45.4405 17.998H50.0585L50.4433 18.3829V32.2056L50.0585 32.5904H45.4405L45.0557 32.2056Z" fill="#32E6E2"/>
<path d="M45.0557 76.7427V62.92L45.4405 62.5352H50.0585L50.4433 62.92V76.7427L50.0585 77.1274H45.4405L45.0557 76.7427Z" fill="#32E6E2"/>
<defs>
<radialGradient id="paint0_radial_1024_11581" cx="0" cy="0" r="1" gradientUnits="userSpaceOnUse" gradientTransform="translate(47.7119 47.5673) rotate(90) scale(47.04)">
<stop stop-color="#333944"/>
<stop offset="1" stop-color="#222428"/>
</radialGradient>
</defs>
</svg>
