<svg width="95" height="95" viewBox="0 0 95 95" fill="none" xmlns="http://www.w3.org/2000/svg">
<rect x="0.76868" y="0.912234" width="92.736" height="92.736" rx="13.44" fill="url(#paint0_radial_1024_11604)"/>
<rect x="0.76868" y="0.912234" width="92.736" height="92.736" rx="13.44" stroke="#6886C3" stroke-width="1.344"/>
<path d="M52.2375 24.7989C53.4187 23.6177 53.4187 21.7026 52.2375 20.5214C51.0563 19.3402 49.1412 19.3402 47.96 20.5214C46.7788 21.7026 46.7788 23.6177 47.96 24.7989C49.1412 25.9801 51.0563 25.9801 52.2375 24.7989Z" fill="white"/>
<path d="M60.7897 33.3528C62.1021 32.0404 62.1021 29.9127 60.7897 28.6004C59.4774 27.288 57.3497 27.288 56.0373 28.6004C54.725 29.9127 54.725 32.0404 56.0373 33.3528C57.3497 34.6651 59.4774 34.6651 60.7897 33.3528Z" fill="white"/>
<path d="M69.341 41.9024C70.7843 40.4591 70.7843 38.119 69.341 36.6757C67.8977 35.2324 65.5576 35.2324 64.1143 36.6757C62.671 38.119 62.671 40.4591 64.1143 41.9024C65.5576 43.3457 67.8977 43.3457 69.341 41.9024Z" fill="white"/>
<path d="M77.8854 50.4484C79.4598 48.874 79.4598 46.3213 77.8854 44.7469C76.3109 43.1724 73.7582 43.1724 72.1838 44.7469C70.6094 46.3213 70.6094 48.874 72.1838 50.4484C73.7582 52.0229 76.3109 52.0229 77.8854 50.4484Z" fill="white"/>
<path d="M35.3796 24.5618C36.4298 23.5115 36.4298 21.8088 35.3796 20.7586C34.3294 19.7083 32.6266 19.7083 31.5764 20.7586C30.5262 21.8088 30.5262 23.5115 31.5764 24.5618C32.6266 25.612 34.3294 25.612 35.3796 24.5618Z" fill="white"/>
<path d="M43.9289 33.1153C45.1101 31.9341 45.1101 30.019 43.9289 28.8378C42.7477 27.6566 40.8326 27.6566 39.6514 28.8378C38.4702 30.019 38.4702 31.9341 39.6514 33.1153C40.8326 34.2965 42.7477 34.2965 43.9289 33.1153Z" fill="white"/>
<path d="M52.4753 41.6574C53.7876 40.3451 53.7876 38.2174 52.4753 36.9051C51.1629 35.5927 49.0352 35.5927 47.7229 36.9051C46.4105 38.2174 46.4105 40.3451 47.7229 41.6574C49.0352 42.9698 51.1629 42.9698 52.4753 41.6574Z" fill="white"/>
<path d="M61.0236 50.2051C62.4669 48.7618 62.4669 46.4218 61.0236 44.9785C59.5803 43.5352 57.2402 43.5352 55.7969 44.9785C54.3536 46.4218 54.3536 48.7618 55.7969 50.2051C57.2402 51.6484 59.5803 51.6484 61.0236 50.2051Z" fill="white"/>
<path d="M69.5787 58.7649C71.1532 57.1904 71.1532 54.6377 69.5787 53.0633C68.0043 51.4888 65.4516 51.4888 63.8772 53.0633C62.3027 54.6377 62.3027 57.1904 63.8772 58.7649C65.4516 60.3393 68.0043 60.3393 69.5787 58.7649Z" fill="white"/>
<path d="M18.5295 24.3321C19.4486 23.413 19.4486 21.9229 18.5295 21.0038C17.6104 20.0848 16.1203 20.0848 15.2012 21.0038C14.2822 21.9229 14.2822 23.413 15.2012 24.3321C16.1203 25.2512 17.6104 25.2512 18.5295 24.3321Z" fill="white"/>
<path d="M27.07 32.8723C28.1202 31.8221 28.1202 30.1193 27.07 29.0691C26.0198 28.0189 24.3171 28.0189 23.2668 29.0691C22.2166 30.1193 22.2166 31.8221 23.2668 32.8723C24.3171 33.9225 26.0198 33.9225 27.07 32.8723Z" fill="white"/>
<path d="M35.6242 41.4278C36.8054 40.2466 36.8054 38.3315 35.6242 37.1503C34.443 35.9691 32.5279 35.9691 31.3467 37.1503C30.1656 38.3315 30.1656 40.2466 31.3467 41.4278C32.5279 42.609 34.443 42.609 35.6242 41.4278Z" fill="white"/>
<path d="M44.1725 49.9778C45.4849 48.6654 45.4849 46.5377 44.1725 45.2254C42.8602 43.913 40.7325 43.913 39.4201 45.2254C38.1078 46.5377 38.1078 48.6654 39.4201 49.9778C40.7325 51.2901 42.8602 51.2901 44.1725 49.9778Z" fill="white"/>
<path d="M52.7199 58.5274C54.1632 57.0841 54.1632 54.744 52.7199 53.3007C51.2766 51.8574 48.9365 51.8574 47.4932 53.3007C46.0499 54.744 46.0499 57.0841 47.4932 58.5274C48.9365 59.9707 51.2766 59.9707 52.7199 58.5274Z" fill="white"/>
<path d="M61.2623 67.0656C62.8368 65.4912 62.8368 62.9385 61.2623 61.3641C59.6879 59.7896 57.1352 59.7896 55.5608 61.3641C53.9863 62.9385 53.9863 65.4912 55.5608 67.0656C57.1352 68.6401 59.6879 68.6401 61.2623 67.0656Z" fill="white"/>
<path d="M35.3796 57.8C36.4298 56.7498 36.4298 55.0471 35.3796 53.9968C34.3294 52.9466 32.6266 52.9466 31.5764 53.9968C30.5262 55.0471 30.5262 56.7498 31.5764 57.8C32.6266 58.8503 34.3294 58.8503 35.3796 57.8Z" fill="white"/>
<path d="M25.1688 66.9C26.654 66.9 27.858 65.696 27.858 64.2107C27.858 62.7255 26.654 61.5215 25.1688 61.5215C23.6835 61.5215 22.4795 62.7255 22.4795 64.2107C22.4795 65.696 23.6835 66.9 25.1688 66.9Z" fill="white"/>
<path d="M16.8602 75.2164C18.3454 75.2164 19.5494 74.0124 19.5494 72.5272C19.5494 71.0419 18.3454 69.8379 16.8602 69.8379C15.3749 69.8379 14.1709 71.0419 14.1709 72.5272C14.1709 74.0124 15.3749 75.2164 16.8602 75.2164Z" fill="white"/>
<path d="M33.4803 75.2125C34.9655 75.2125 36.1695 74.0085 36.1695 72.5232C36.1695 71.038 34.9655 69.834 33.4803 69.834C31.995 69.834 30.791 71.038 30.791 72.5232C30.791 74.0085 31.995 75.2125 33.4803 75.2125Z" fill="white"/>
<path d="M52.0046 74.4309C53.0548 73.3807 53.0548 71.6779 52.0046 70.6277C50.9544 69.5775 49.2516 69.5775 48.2014 70.6277C47.1512 71.6779 47.1512 73.3807 48.2014 74.4309C49.2516 75.4811 50.9544 75.4811 52.0046 74.4309Z" fill="white"/>
<path d="M43.6901 66.1125C44.7404 65.0623 44.7404 63.3596 43.6901 62.3093C42.6399 61.2591 40.9372 61.2591 39.8869 62.3093C38.8367 63.3596 38.8367 65.0623 39.8869 66.1125C40.9372 67.1628 42.6399 67.1628 43.6901 66.1125Z" fill="white"/>
<defs>
<radialGradient id="paint0_radial_1024_11604" cx="0" cy="0" r="1" gradientUnits="userSpaceOnUse" gradientTransform="translate(47.1367 47.2802) rotate(90) scale(47.04)">
<stop stop-color="#333944"/>
<stop offset="1" stop-color="#222428"/>
</radialGradient>
</defs>
</svg>
