<svg width="95" height="96" viewBox="0 0 95 96" fill="none" xmlns="http://www.w3.org/2000/svg">
<rect x="0.752078" y="1.64075" width="92.736" height="92.736" rx="13.44" fill="url(#paint0_radial_1024_11485)"/>
<rect x="0.752078" y="1.64075" width="92.736" height="92.736" rx="13.44" stroke="#6886C3" stroke-width="1.344"/>
<path d="M16.7318 56.9107C15.9395 54.0254 15.5361 51.0286 15.5361 48.0102C15.5361 34.2312 24.1899 21.6324 37.0715 16.6641L38.7604 21.0352C27.6723 25.3127 20.2249 36.1523 20.2249 48.0102C20.2249 50.6112 20.5706 53.1871 21.2513 55.6694L16.7318 56.9107Z" fill="#69D3A7"/>
<path d="M74.9671 34.6988C69.9542 25.0752 60.0867 19.0959 49.2219 19.0959C45.3722 19.0959 41.6305 19.837 38.1086 21.294L36.3115 16.9661C40.4061 15.2716 44.7492 14.4082 49.2219 14.4082C61.8442 14.4082 73.3033 21.3516 79.1265 32.533L74.9671 34.6988Z" fill="url(#paint1_linear_1024_11485)"/>
<path d="M39.163 41.0789C41.8818 41.0789 44.0966 42.5287 45.2346 45.0578L45.3247 45.2558L49.8909 43.7051L49.7937 43.4713C48.0255 39.1649 43.9525 36.4883 39.163 36.4883C35.7957 36.4883 33.0588 37.5677 30.7973 39.7837C28.5501 41.9855 27.4121 44.7557 27.4121 48.0187C27.4121 51.253 28.5501 54.0087 30.7973 56.2105C33.0588 58.4267 35.7957 59.506 39.163 59.506C43.9525 59.506 48.0255 56.8293 49.7937 52.5265L49.8909 52.2927L45.3174 50.7385L45.231 50.9436C44.2118 53.4295 41.9431 54.9154 39.163 54.9154C37.2686 54.9154 35.6697 54.2534 34.402 52.951C33.12 51.6307 32.4718 49.9722 32.4718 48.0223C32.4718 46.058 33.1056 44.4319 34.402 43.0504C35.6661 41.7409 37.2686 41.0789 39.163 41.0789Z" fill="white"/>
<path d="M67.7642 36.9121L61.2569 53.3783L54.7063 36.9121H49.3477L58.5343 59.3864L51.9981 75.2375L56.6834 76.1694L72.8276 36.9121H67.7642Z" fill="white"/>
<path d="M52.8369 73.1937L51.6953 75.9568C51.4684 76.5036 50.9498 76.8741 50.3664 76.8993C49.9812 76.9137 49.5922 76.9245 49.1997 76.9245C35.7635 76.9173 23.8758 67.4448 20.93 54.3926L16.3564 55.4251C18.0094 62.7462 22.158 69.3911 28.0388 74.14C33.9881 78.9427 41.4822 81.5942 49.1493 81.6086C49.1601 81.6086 49.2176 81.6086 49.2176 81.6086C49.6678 81.6086 50.1143 81.5978 50.5609 81.5799C52.9665 81.4791 55.1165 79.9717 56.0348 77.7376L57.5256 74.1256L52.8369 73.1937Z" fill="url(#paint2_linear_1024_11485)"/>
<defs>
<radialGradient id="paint0_radial_1024_11485" cx="0" cy="0" r="1" gradientUnits="userSpaceOnUse" gradientTransform="translate(47.1201 48.0088) rotate(90) scale(47.04)">
<stop stop-color="#333944"/>
<stop offset="1" stop-color="#222428"/>
</radialGradient>
<linearGradient id="paint1_linear_1024_11485" x1="45.7167" y1="12.239" x2="71.2876" y2="39.5694" gradientUnits="userSpaceOnUse">
<stop offset="0.0939" stop-color="#58D09E"/>
<stop offset="0.9883" stop-color="#58D09E" stop-opacity="0"/>
</linearGradient>
<linearGradient id="paint2_linear_1024_11485" x1="15.1771" y1="63.2987" x2="64.0293" y2="76.3015" gradientUnits="userSpaceOnUse">
<stop offset="0.0774" stop-color="#58D09E"/>
<stop offset="0.7617" stop-color="#1B1E2E"/>
</linearGradient>
</defs>
</svg>
