<svg width="95" height="95" viewBox="0 0 95 95" fill="none" xmlns="http://www.w3.org/2000/svg">
<rect x="1.22473" y="0.912234" width="92.736" height="92.736" rx="13.44" fill="url(#paint0_radial_1024_11592)"/>
<rect x="1.22473" y="0.912234" width="92.736" height="92.736" rx="13.44" stroke="#6886C3" stroke-width="1.344"/>
<path d="M76.5294 41.1897C77.3694 38.8797 77.5794 36.5697 77.3694 34.2597C77.1594 31.9497 76.3194 29.6397 75.2694 27.5397C73.3794 24.3897 70.6494 21.8697 67.4994 20.3997C64.1394 18.9297 60.5694 18.5097 56.9994 19.3497C55.3194 17.6697 53.4294 16.1997 51.3294 15.1497C49.2294 14.0997 46.7094 13.6797 44.3994 13.6797C40.8294 13.6797 37.2594 14.7297 34.3194 16.8297C31.3794 18.9297 29.2794 21.8697 28.2294 25.2297C25.7094 25.8597 23.6094 26.9097 21.5094 28.1697C19.6194 29.6397 18.1494 31.5297 16.8894 33.4197C14.9994 36.5697 14.3694 40.1397 14.7894 43.7097C15.2094 47.2797 16.6794 50.6397 18.9894 53.3697C18.1494 55.6797 17.9394 57.9897 18.1494 60.2997C18.3594 62.6097 19.1994 64.9197 20.2494 67.0197C22.1394 70.1697 24.8694 72.6897 28.0194 74.1597C31.3794 75.6297 34.9494 76.0497 38.5194 75.2097C40.1994 76.8897 42.0894 78.3597 44.1894 79.4097C46.2894 80.4597 48.8094 80.8797 51.1194 80.8797C54.6894 80.8797 58.2594 79.8297 61.1994 77.7297C64.1394 75.6297 66.2394 72.6897 67.2894 69.3297C69.5994 68.9097 71.9094 67.8597 73.7994 66.3897C75.6894 64.9197 77.3694 63.2397 78.4194 61.1397C80.3094 57.9897 80.9394 54.4197 80.5194 50.8497C80.0994 47.2797 78.8394 43.9197 76.5294 41.1897ZM51.3294 76.4697C47.9694 76.4697 45.4494 75.4197 43.1394 73.5297C43.1394 73.5297 43.3494 73.3197 43.5594 73.3197L56.9994 65.5497C57.4194 65.3397 57.6294 65.1297 57.8394 64.7097C58.0494 64.2897 58.0494 64.0797 58.0494 63.6597V44.7597L63.7194 48.1197V63.6597C63.9294 71.0097 58.0494 76.4697 51.3294 76.4697ZM24.2394 64.9197C22.7694 62.3997 22.1394 59.4597 22.7694 56.5197C22.7694 56.5197 22.9794 56.7297 23.1894 56.7297L36.6294 64.4997C37.0494 64.7097 37.2594 64.7097 37.6794 64.7097C38.0994 64.7097 38.5194 64.7097 38.7294 64.4997L55.1094 55.0497V61.5597L41.4594 69.5397C38.5194 71.2197 35.1594 71.6397 32.0094 70.7997C28.6494 69.9597 25.9194 67.8597 24.2394 64.9197ZM20.6694 35.7297C22.1394 33.2097 24.4494 31.3197 27.1794 30.2697V30.6897V46.2297C27.1794 46.6497 27.1794 47.0697 27.3894 47.2797C27.5994 47.6997 27.8094 47.9097 28.2294 48.1197L44.6094 57.5697L38.9394 60.9297L25.4994 53.1597C22.5594 51.4797 20.4594 48.7497 19.6194 45.5997C18.7794 42.4497 18.9894 38.6697 20.6694 35.7297ZM67.0794 46.4397L50.6994 36.9897L56.3694 33.6297L69.8094 41.3997C71.9094 42.6597 73.5894 44.3397 74.6394 46.4397C75.6894 48.5397 76.3194 50.8497 76.1094 53.3697C75.8994 55.6797 75.0594 57.9897 73.5894 59.8797C72.1194 61.7697 70.2294 63.2397 67.9194 64.0797V48.1197C67.9194 47.6997 67.9194 47.2797 67.7094 47.0697C67.7094 47.0697 67.4994 46.6497 67.0794 46.4397ZM72.7494 38.0397C72.7494 38.0397 72.5394 37.8297 72.3294 37.8297L58.8894 30.0597C58.4694 29.8497 58.2594 29.8497 57.8394 29.8497C57.4194 29.8497 56.9994 29.8497 56.7894 30.0597L40.4094 39.5097V32.9997L54.0594 25.0197C56.1594 23.7597 58.4694 23.3397 60.9894 23.3397C63.2994 23.3397 65.6094 24.1797 67.7094 25.6497C69.5994 27.1197 71.2794 29.0097 72.1194 31.1097C72.9594 33.2097 73.1694 35.7297 72.7494 38.0397ZM37.4694 49.7997L31.7994 46.4397V30.6897C31.7994 28.3797 32.4294 25.8597 33.6894 23.9697C34.9494 21.8697 36.8394 20.3997 38.9394 19.3497C41.0394 18.2997 43.5594 17.8797 45.8694 18.2997C48.1794 18.5097 50.4894 19.5597 52.3794 21.0297C52.3794 21.0297 52.1694 21.2397 51.9594 21.2397L38.5194 29.0097C38.0994 29.2197 37.8894 29.4297 37.6794 29.8497C37.4694 30.2697 37.4694 30.4797 37.4694 30.8997V49.7997ZM40.4094 43.0797L47.7594 38.8797L55.1094 43.0797V51.4797L47.7594 55.6797L40.4094 51.4797V43.0797Z" fill="white"/>
<defs>
<radialGradient id="paint0_radial_1024_11592" cx="0" cy="0" r="1" gradientUnits="userSpaceOnUse" gradientTransform="translate(47.5927 47.2802) rotate(90) scale(47.04)">
<stop stop-color="#333944"/>
<stop offset="1" stop-color="#222428"/>
</radialGradient>
</defs>
</svg>
