<svg width="95" height="96" viewBox="0 0 95 96" fill="none" xmlns="http://www.w3.org/2000/svg">
<rect x="1.22473" y="1.64075" width="92.736" height="92.736" rx="13.44" fill="url(#paint0_radial_1024_11466)"/>
<rect x="1.22473" y="1.64075" width="92.736" height="92.736" rx="13.44" stroke="#6886C3" stroke-width="1.344"/>
<path d="M77.6512 34.1118C77.6508 32.9849 77.4097 31.9891 76.9224 31.1345C76.4436 30.2941 75.7266 29.5898 74.7649 29.0328C66.8266 24.4555 58.8805 19.8922 50.9447 15.3103C48.8052 14.0751 46.7309 14.1202 44.6073 15.373C41.4476 17.2365 25.628 26.2999 20.914 29.0303C18.9726 30.1541 18.0279 31.8741 18.0274 34.1097C18.0244 43.3149 18.0274 52.5199 18.0244 61.7254C18.0249 62.8275 18.2556 63.8039 18.7215 64.6457C19.2005 65.5115 19.9275 66.2353 20.9114 66.8048C25.6257 69.5352 41.4473 78.5979 44.6064 80.4618C46.7309 81.7154 48.8052 81.7602 50.9454 80.5245C58.8814 75.9423 66.828 71.3793 74.7675 66.802C75.7514 66.2327 76.4784 65.5085 76.9574 64.6434C77.4226 63.8016 77.6538 62.8252 77.6543 61.7228C77.6543 61.7228 77.6543 43.3172 77.6512 34.1118" fill="#5C8DBC"/>
<path d="M47.9307 47.8301L18.7217 64.648C19.2007 65.5138 19.9277 66.2375 20.9115 66.807C25.6258 69.5375 41.4475 78.6002 44.6065 80.4641C46.731 81.7177 48.8054 81.7625 50.9456 80.5268C58.8816 75.9446 66.8281 71.3816 74.7677 66.8042C75.7516 66.235 76.4786 65.5108 76.9575 64.6457L47.9307 47.8301" fill="#1A4674"/>
<path d="M39.2803 52.8117C40.9799 55.7789 44.1751 57.7802 47.8404 57.7802C51.5283 57.7802 54.7417 55.7535 56.4328 52.7545L47.9316 47.8301L39.2803 52.8117" fill="#1A4674"/>
<path d="M77.6513 34.114C77.6509 32.9871 77.4098 31.9913 76.9225 31.1367L47.9307 47.8301L76.9575 64.6457C77.4227 63.8039 77.6539 62.8275 77.6544 61.7251C77.6544 61.7251 77.6544 43.3195 77.6513 34.114" fill="#1B598E"/>
<path d="M76.0557 49.0323H73.7875V51.301H71.5188V49.0323H69.2508V46.7643H71.5188V44.4961H73.7875V46.7643H76.0557V49.0323ZM67.7791 49.0323H65.5111V51.301H63.2428V49.0323H60.9746V46.7643H63.2428V44.4961H65.5111V46.7643H67.7791V49.0323Z" fill="white"/>
<path d="M56.4326 52.756C54.7416 55.7549 51.5282 57.7817 47.8403 57.7817C44.175 57.7817 40.9798 55.7804 39.2801 52.8131C38.4263 51.3242 37.9779 49.6374 37.9797 47.9211C37.9797 42.4754 42.3946 38.0607 47.8403 38.0607C51.482 38.0607 54.6604 40.0371 56.3685 42.974L64.9872 38.011C61.5615 32.0975 55.1658 28.1191 47.8403 28.1191C36.9036 28.1191 28.0381 36.9849 28.0381 47.9211C28.0381 51.5089 28.9926 54.8735 30.6607 57.7756C34.0778 63.7204 40.4917 67.7233 47.8403 67.7233C55.2024 67.7233 61.6263 63.7043 65.0385 57.742L56.4326 52.756Z" fill="white"/>
<defs>
<radialGradient id="paint0_radial_1024_11466" cx="0" cy="0" r="1" gradientUnits="userSpaceOnUse" gradientTransform="translate(47.5927 48.0088) rotate(90) scale(47.04)">
<stop stop-color="#333944"/>
<stop offset="1" stop-color="#222428"/>
</radialGradient>
</defs>
</svg>
