<svg width="96" height="96" viewBox="0 0 96 96" fill="none" xmlns="http://www.w3.org/2000/svg">
<rect x="1.61536" y="1.62512" width="92.736" height="92.736" rx="13.44" fill="url(#paint0_radial_1024_11629)"/>
<rect x="1.61536" y="1.62512" width="92.736" height="92.736" rx="13.44" stroke="#6886C3" stroke-width="1.344"/>
<path d="M81.1247 47.1691L78.3036 45.4227C78.2798 45.1485 78.253 44.8746 78.2233 44.6011L80.6477 42.3396C80.7689 42.227 80.8593 42.0852 80.9101 41.9277C80.9608 41.7702 80.9704 41.6023 80.9378 41.44C80.9059 41.2777 80.833 41.1262 80.7259 41.0001C80.6188 40.874 80.4812 40.7775 80.3261 40.7197L77.2268 39.5608C77.149 39.2932 77.068 39.0265 76.984 38.7607L78.9173 36.0756C79.0141 35.9414 79.0751 35.7846 79.0943 35.6202C79.1135 35.4558 79.0903 35.2892 79.027 35.1363C78.9637 34.9834 78.8623 34.8492 78.7325 34.7465C78.6027 34.6437 78.4488 34.5759 78.2855 34.5494L75.0173 34.0178C74.8903 33.77 74.758 33.5259 74.6246 33.2839L75.9978 30.2696C76.0669 30.1192 76.0963 29.9536 76.083 29.7885C76.0698 29.6235 76.0144 29.4647 75.9222 29.3272C75.8307 29.1893 75.7053 29.0773 75.558 29.0018C75.4107 28.9263 75.2465 28.8899 75.0811 28.8962L71.7642 29.0117C71.5929 28.7971 71.4182 28.5853 71.2402 28.3762L72.0025 25.1453C72.0407 24.9842 72.0369 24.816 71.9916 24.6567C71.9463 24.4975 71.8609 24.3525 71.7437 24.2355C71.6268 24.1185 71.4818 24.0332 71.3227 23.9879C71.1635 23.9426 70.9955 23.9388 70.8344 23.9767L67.6043 24.7382C67.3947 24.5604 67.1824 24.3858 66.9675 24.2143L67.0835 20.8976C67.0898 20.7322 67.0534 20.568 66.9781 20.4207C66.9027 20.2734 66.7908 20.1479 66.653 20.0563C66.5155 19.9642 66.3567 19.9088 66.1918 19.8955C66.0268 19.8822 65.8612 19.9113 65.7107 19.9801L62.6972 21.3541C62.4541 21.2199 62.2094 21.0886 61.9632 20.9603L61.4303 17.6917C61.4037 17.5284 61.3358 17.3747 61.2331 17.2451C61.1303 17.1155 60.9962 17.0142 60.8434 16.951C60.6906 16.8877 60.5242 16.8645 60.3599 16.8835C60.1957 16.9026 60.039 16.9632 59.9047 17.0598L57.2177 18.9931C56.9534 18.9091 56.6875 18.828 56.4192 18.7511L55.2603 15.6512C55.2026 15.4959 55.1061 15.358 54.98 15.2507C54.8538 15.1433 54.7022 15.0701 54.5397 15.038C54.3776 15.0061 54.21 15.016 54.0527 15.0668C53.8955 15.1176 53.7538 15.2076 53.6409 15.3284L51.3795 17.7547C51.106 17.724 50.8321 17.6972 50.5579 17.6743L48.8114 14.8525C48.7244 14.7118 48.6029 14.5958 48.4585 14.5153C48.314 14.4348 48.1514 14.3926 47.986 14.3926C47.8207 14.3926 47.658 14.4348 47.5136 14.5153C47.3691 14.5958 47.2476 14.7118 47.1606 14.8525L45.4142 17.6743C45.1397 17.6972 44.8655 17.724 44.5918 17.7547L42.3298 15.3284C42.2171 15.2072 42.0752 15.1169 41.9177 15.066C41.7602 15.0152 41.5923 15.0054 41.43 15.0378C41.2677 15.0702 41.1164 15.1435 40.9904 15.2509C40.8645 15.3583 40.7681 15.4961 40.7104 15.6512L39.5518 18.7511C39.2832 18.828 39.0176 18.9097 38.7524 18.9931L36.066 17.0598C35.9318 16.9628 35.775 16.9018 35.6105 16.8828C35.446 16.8637 35.2794 16.8871 35.1265 16.9509C34.9738 17.0143 34.8398 17.1156 34.7372 17.2452C34.6345 17.3748 34.5666 17.5285 34.5398 17.6917L34.007 20.9603C33.7602 21.0881 33.5164 21.2197 33.273 21.3541L30.2593 19.9799C30.1088 19.911 29.9433 19.8819 29.7784 19.8953C29.6135 19.9086 29.4548 19.9641 29.3174 20.0563C29.1796 20.1479 29.0676 20.2733 28.9921 20.4207C28.9166 20.568 28.8802 20.7322 28.8864 20.8976L29.0019 24.2143C28.7873 24.3861 28.575 24.5607 28.3651 24.7382L25.135 23.977C24.9739 23.9392 24.8058 23.9431 24.6466 23.9884C24.4874 24.0336 24.3424 24.1187 24.2252 24.2355C24.1079 24.3525 24.0226 24.4975 23.9773 24.6567C23.932 24.816 23.9282 24.9842 23.9664 25.1453L24.7273 28.3762C24.5507 28.5854 24.3761 28.7972 24.2047 29.0117L20.8878 28.8962C20.7226 28.891 20.5588 28.9278 20.4117 29.0031C20.2646 29.0785 20.139 29.1899 20.0467 29.327C19.9547 29.4645 19.8993 29.6233 19.8859 29.7882C19.8726 29.9532 19.9016 30.1188 19.9703 30.2693L21.3442 33.2839C21.2106 33.5259 21.0786 33.77 20.9505 34.0178L17.6826 34.5494C17.5193 34.576 17.3655 34.6439 17.2358 34.7467C17.1061 34.8494 17.0048 34.9836 16.9415 35.1365C16.8783 35.2894 16.8551 35.4559 16.8742 35.6202C16.8933 35.7846 16.9541 35.9413 17.0508 36.0756L18.9841 38.761C18.9001 39.0261 18.8185 39.2923 18.7413 39.5608L15.6417 40.7197C15.4869 40.7779 15.3495 40.8746 15.2425 41.0007C15.1355 41.1267 15.0625 41.278 15.0303 41.4402C14.9981 41.6024 15.0078 41.7701 15.0585 41.9275C15.1092 42.0849 15.1993 42.2268 15.3201 42.3396L17.7448 44.6008C17.7147 44.8738 17.6879 45.1486 17.6648 45.4227L14.8432 47.1691C14.7026 47.2561 14.5866 47.3777 14.5062 47.5222C14.4258 47.6667 14.3836 47.8293 14.3838 47.9947C14.3838 48.3317 14.5578 48.6438 14.8434 48.8197L17.6648 50.5661C17.6879 50.841 17.7147 51.1153 17.7448 51.388L15.3199 53.65C15.1988 53.7627 15.1086 53.9045 15.0577 54.0619C15.0069 54.2193 14.9971 54.3871 15.0294 54.5494C15.0616 54.7116 15.1348 54.8629 15.242 54.9889C15.3491 55.1149 15.4867 55.2115 15.6417 55.2693L18.7413 56.4283C18.8185 56.6965 18.9001 56.963 18.9841 57.2281L17.0508 59.9137C16.9539 60.048 16.893 60.2048 16.8738 60.3692C16.8547 60.5336 16.8779 60.7002 16.9413 60.8531C17.0047 61.006 17.1062 61.1402 17.2361 61.2428C17.366 61.3454 17.52 61.4131 17.6834 61.4394L20.9508 61.971C21.0786 62.2188 21.2096 62.4629 21.3445 62.706L19.9703 65.7195C19.9015 65.87 19.8724 66.0356 19.8858 66.2006C19.8991 66.3656 19.9545 66.5244 20.0467 66.6618C20.1383 66.7996 20.2638 66.9115 20.411 66.9869C20.5583 67.0624 20.7224 67.0987 20.8878 67.0926L24.2031 66.9766C24.3761 67.1921 24.5501 67.4034 24.7273 67.6134L23.9664 70.8448C23.9282 71.0056 23.932 71.1736 23.9773 71.3325C24.0227 71.4915 24.108 71.6362 24.2252 71.7528C24.342 71.8701 24.4871 71.9554 24.6464 72.0006C24.8057 72.0458 24.9739 72.0493 25.135 72.0108L28.3651 71.2501C28.5751 71.4286 28.7877 71.6018 29.0021 71.7725L28.8866 75.0902C28.8807 75.2555 28.9171 75.4196 28.9925 75.5669C29.0678 75.7141 29.1796 75.8397 29.3172 75.9315C29.4547 76.0234 29.6135 76.0785 29.7784 76.0917C29.9433 76.1049 30.1088 76.0757 30.2593 76.0068L33.273 74.6337C33.5157 74.7685 33.7604 74.8997 34.007 75.0272L34.5398 78.294C34.5662 78.4574 34.6339 78.6114 34.7366 78.7412C34.8393 78.871 34.9736 78.9723 35.1265 79.0356C35.2794 79.0989 35.4459 79.1222 35.6103 79.1032C35.7747 79.0842 35.9316 79.0236 36.066 78.9272L38.7511 76.9925C39.0163 77.0765 39.2827 77.1587 39.551 77.2359L40.7099 80.3344C40.7676 80.4895 40.8641 80.6272 40.9902 80.7343C41.1164 80.8414 41.2678 80.9144 41.4302 80.9463C41.5924 80.979 41.7603 80.9695 41.9177 80.9187C42.0751 80.8678 42.2169 80.7774 42.3293 80.656L44.5912 78.231C44.8642 78.2625 45.1388 78.2888 45.4136 78.3132L47.1601 81.1345C47.2472 81.2749 47.3687 81.3908 47.513 81.4712C47.6574 81.5515 47.8199 81.5938 47.9851 81.5939C48.1504 81.5938 48.313 81.5516 48.4574 81.4712C48.6019 81.3909 48.7235 81.275 48.8107 81.1345L50.5571 78.3132C50.8319 78.2888 51.1062 78.2625 51.379 78.231L53.6404 80.656C53.7528 80.7773 53.8945 80.8676 54.0519 80.9185C54.2093 80.9693 54.3771 80.9789 54.5392 80.9463C54.7015 80.9143 54.8529 80.8413 54.979 80.7342C55.1051 80.6271 55.2017 80.4894 55.2595 80.3344L56.4184 77.2359C56.6867 77.1587 56.9534 77.0765 57.2185 76.9925L59.9042 78.9272C60.0385 79.0237 60.1953 79.0844 60.3597 79.1034C60.5241 79.1224 60.6906 79.099 60.8434 79.0356C60.9962 78.9722 61.1303 78.8708 61.2329 78.741C61.3356 78.6112 61.4033 78.4573 61.4298 78.294L61.9627 75.0272C62.2092 74.8994 62.453 74.7665 62.6964 74.6334L65.7101 76.0068C65.8606 76.0759 66.0262 76.1053 66.1911 76.0922C66.3561 76.0791 66.515 76.024 66.6527 75.9321C66.7903 75.8402 66.9022 75.7146 66.9775 75.5672C67.0528 75.4198 67.0891 75.2556 67.083 75.0902L66.9675 71.7727C67.1823 71.6019 67.3943 71.4276 67.6036 71.2501L70.8339 72.0108C71.162 72.088 71.5059 71.9924 71.7429 71.7528C71.8601 71.6362 71.9454 71.4915 71.9907 71.3325C72.0361 71.1736 72.0398 71.0056 72.0017 70.8448L71.241 67.6134C71.4182 67.4034 71.5928 67.1921 71.7634 66.9766L75.0803 67.0926C75.2457 67.0988 75.4098 67.0625 75.5571 66.9872C75.7043 66.9118 75.8298 66.7999 75.9214 66.6621C76.0137 66.5246 76.0692 66.3657 76.0824 66.2006C76.0957 66.0355 76.0664 65.8697 75.9973 65.7192L74.6239 62.7062C74.758 62.4629 74.8898 62.2188 75.0168 61.9712L78.2849 61.4394C78.4483 61.4132 78.6023 61.3454 78.732 61.2426C78.8617 61.1399 78.9628 61.0055 79.0257 60.8524C79.0891 60.6997 79.1123 60.5332 79.0933 60.3689C79.0742 60.2046 79.0134 60.048 78.9168 59.9137L76.9835 57.2284C77.0669 56.963 77.1486 56.6965 77.2263 56.4283L80.3254 55.2693C80.4805 55.2116 80.6182 55.1151 80.7253 54.9889C80.8325 54.8627 80.9054 54.7112 80.9372 54.5488C80.9699 54.3866 80.9604 54.2188 80.9095 54.0614C80.8587 53.904 80.7683 53.7624 80.6469 53.65L78.2227 51.388C78.2521 51.115 78.2792 50.8404 78.3028 50.5664L81.1241 48.8197C81.2648 48.7328 81.3809 48.6114 81.4613 48.467C81.5418 48.3226 81.5839 48.16 81.5838 47.9947C81.5838 47.6584 81.4105 47.3458 81.1247 47.1691V47.1691ZM62.2425 70.5726C61.1652 70.3403 60.4801 69.2784 60.7114 68.1977C60.9418 67.1183 62.0029 66.4314 63.0799 66.6637C64.1572 66.8944 64.8434 67.9581 64.6124 69.0367C64.3814 70.1156 63.3193 70.8033 62.2425 70.5726ZM61.2839 64.0891C61.0501 64.0389 60.8087 64.0354 60.5736 64.0786C60.3385 64.1218 60.1142 64.211 59.9135 64.341C59.7129 64.471 59.5398 64.6393 59.4042 64.8362C59.2687 65.0332 59.1733 65.2549 59.1235 65.4887L58.1218 70.1631C55.0309 71.5659 51.5987 72.3452 47.9838 72.3452C44.2862 72.3452 40.7792 71.5273 37.6334 70.0646L36.6322 65.3905C36.4217 64.407 35.4547 63.7804 34.4724 63.9914L30.3459 64.8776C29.579 64.0883 28.8662 63.2481 28.2123 62.3629H48.2909C48.518 62.3629 48.6694 62.3217 48.6694 62.1148V55.0123C48.6694 54.8058 48.518 54.7645 48.2906 54.7645H42.4188V50.2627H48.77C49.3496 50.2627 51.8698 50.428 52.6754 53.6494C52.928 54.6401 53.4818 57.8626 53.8609 58.8942C54.2384 60.0513 55.7753 62.3626 57.4133 62.3626H67.4185C67.5322 62.3626 67.6534 62.3497 67.7813 62.3266C67.0871 63.2694 66.3266 64.1616 65.5057 64.9963L61.2841 64.0891H61.2839ZM33.514 70.4749C32.4364 70.7075 31.3757 70.0205 31.1439 68.9411C30.9134 67.8599 31.5985 66.7986 32.6758 66.5663C33.7534 66.3358 34.8147 67.0228 35.0457 68.1019C35.2762 69.1808 34.5905 70.2439 33.5137 70.4749H33.514ZM25.897 39.5891C26.3441 40.5977 25.8892 41.7797 24.8819 42.226C23.8747 42.6735 22.6959 42.2181 22.2491 41.2088C21.802 40.1995 22.2567 39.0195 23.2642 38.572C23.5038 38.4657 23.762 38.4077 24.0241 38.4013C24.2861 38.3949 24.5469 38.4402 24.7914 38.5346C25.0359 38.6291 25.2594 38.7708 25.4492 38.9517C25.6389 39.1326 25.7911 39.3491 25.897 39.5889V39.5891ZM23.5561 45.1384L27.8548 43.2282C28.2961 43.0319 28.6414 42.6684 28.8148 42.2176C28.9883 41.7669 28.9757 41.2657 28.7798 40.8242L27.8947 38.8224H31.3765V54.5167H24.3517C23.729 52.3247 23.414 50.0567 23.4156 47.7778C23.4156 46.8859 23.4637 46.0044 23.5561 45.1381V45.1384ZM42.4198 43.6141V38.988H50.7112C51.1396 38.988 53.7352 39.4831 53.7352 41.424C53.7352 43.0355 51.7444 43.6133 50.1071 43.6133H42.4198V43.6141ZM72.5527 47.7778C72.5527 48.3916 72.5302 48.999 72.4853 49.6017H69.9645C69.7122 49.6017 69.6106 49.7676 69.6106 50.0146V51.1722C69.6106 53.897 68.0742 54.4897 66.7279 54.6406C65.4458 54.785 64.0241 54.1038 63.849 53.3192C63.0925 49.0651 61.8322 48.1566 59.842 46.5866C62.3121 45.0182 64.882 42.7042 64.882 39.6067C64.882 36.2625 62.5893 34.1559 61.0264 33.123C58.834 31.6777 56.4064 31.3879 55.7514 31.3879H29.682C33.2171 27.4425 38.0083 24.6476 43.427 23.6307L46.4999 26.8542C46.6647 27.0272 46.8621 27.1661 47.0807 27.2627C47.2993 27.3594 47.5348 27.4119 47.7737 27.4175C48.0126 27.423 48.2503 27.3813 48.4731 27.2948C48.6959 27.2084 48.8994 27.0788 49.0721 26.9135L52.5103 23.6249C59.7146 24.9663 65.8144 29.4509 69.3295 35.6036L66.9757 40.92C66.5693 41.8401 66.9841 42.9161 67.9015 43.3237L72.4333 45.3366C72.5115 46.1411 72.5527 46.9539 72.5527 47.7778ZM46.5012 20.8884C47.2973 20.1258 48.5602 20.156 49.3225 20.9532C50.0833 21.7528 50.0544 23.017 49.2564 23.779C48.4602 24.5419 47.1973 24.5122 46.435 23.7134C46.0698 23.3297 45.8716 22.8168 45.884 22.2872C45.8964 21.7576 46.1184 21.2545 46.5012 20.8884V20.8884ZM69.8592 39.686C69.9651 39.4463 70.1173 39.2298 70.307 39.0489C70.4966 38.868 70.7201 38.7263 70.9646 38.6319C71.2091 38.5375 71.4698 38.4922 71.7318 38.4987C71.9939 38.5052 72.252 38.5633 72.4916 38.6696C73.499 39.1164 73.9537 40.2979 73.5067 41.3064C73.4008 41.5463 73.2487 41.7629 73.059 41.9439C72.8693 42.1249 72.6458 42.2667 72.4012 42.3611C72.1566 42.4556 71.8959 42.5009 71.6338 42.4945C71.3717 42.4881 71.1134 42.43 70.8738 42.3236C69.8676 41.8766 69.413 40.6961 69.8592 39.686V39.686Z" fill="white"/>
<defs>
<radialGradient id="paint0_radial_1024_11629" cx="0" cy="0" r="1" gradientUnits="userSpaceOnUse" gradientTransform="translate(47.9834 47.9931) rotate(90) scale(47.04)">
<stop stop-color="#333944"/>
<stop offset="1" stop-color="#222428"/>
</radialGradient>
</defs>
</svg>
