<svg width="95" height="95" viewBox="0 0 95 95" fill="none" xmlns="http://www.w3.org/2000/svg">
<rect x="1.19251" y="1.04895" width="92.736" height="92.736" rx="13.44" fill="url(#paint0_radial_1024_11669)"/>
<rect x="1.19251" y="1.04895" width="92.736" height="92.736" rx="13.44" stroke="#6886C3" stroke-width="1.344"/>
<path d="M18.7363 47.4149C18.7363 58.8247 25.3668 68.684 34.9814 73.3569L21.2319 35.6843C19.5836 39.3752 18.7332 43.3726 18.7363 47.4149V47.4149ZM67.0191 45.9604C67.0191 42.3981 65.7395 39.9311 64.642 38.0109C63.1809 35.6365 61.8119 33.6259 61.8119 31.2515C61.8119 28.6019 63.821 26.1354 66.6516 26.1354C66.7794 26.1354 66.9006 26.1513 67.0257 26.1585C61.8969 21.4603 55.0647 18.5918 47.5605 18.5918C37.4907 18.5918 28.6313 23.7584 23.4773 31.5839C24.1536 31.6042 24.7914 31.6179 25.3322 31.6179C28.3471 31.6179 33.0141 31.2521 33.0141 31.2521C34.5679 31.1605 34.7511 33.4427 33.1994 33.6264C33.1994 33.6264 31.6374 33.8101 29.8999 33.9012L40.3964 65.1228L46.7049 46.2044L42.2135 33.9006C40.6614 33.8096 39.1909 33.6259 39.1909 33.6259C37.6376 33.5348 37.8197 31.1599 39.373 31.2515C39.373 31.2515 44.1332 31.6174 46.9654 31.6174C49.9798 31.6174 54.6473 31.2515 54.6473 31.2515C56.2022 31.1599 56.3848 33.4421 54.8321 33.6259C54.8321 33.6259 53.2673 33.8096 51.5331 33.9006L61.9496 64.8858L64.8241 55.2783C66.0708 51.2915 67.0191 48.4279 67.0191 45.9604V45.9604Z" fill="white"/>
<path d="M48.0672 49.9363L39.4189 75.066C42.0629 75.8452 44.8051 76.2409 47.5615 76.2408C50.9181 76.2408 54.1371 75.66 57.1334 74.6069C57.053 74.4811 56.9844 74.3482 56.9283 74.2099L48.0672 49.9363ZM72.8536 33.5859C72.9776 34.5041 73.0478 35.4902 73.0478 36.5499C73.0478 39.4748 72.5015 42.7629 70.8561 46.8742L62.0515 72.3303C70.6208 67.3332 76.3847 58.0493 76.3847 47.415C76.3924 42.5813 75.1777 37.8242 72.8536 33.5859V33.5859Z" fill="white"/>
<path d="M47.5613 13.8164C29.0345 13.8164 13.9609 28.8889 13.9609 47.4156C13.9609 65.9445 29.034 81.0169 47.5613 81.0169C66.0875 81.0169 81.1632 65.945 81.1632 47.4156C81.1627 28.8889 66.0875 13.8164 47.5613 13.8164ZM47.5613 79.4763C29.8841 79.4763 15.5016 65.0938 15.5016 47.4156C15.5016 29.739 29.8835 15.3576 47.5613 15.3576C65.2379 15.3576 79.6193 29.739 79.6193 47.4156C79.6193 65.0938 65.2373 79.4763 47.5613 79.4763Z" fill="white"/>
<defs>
<radialGradient id="paint0_radial_1024_11669" cx="0" cy="0" r="1" gradientUnits="userSpaceOnUse" gradientTransform="translate(47.5605 47.417) rotate(90) scale(47.04)">
<stop stop-color="#333944"/>
<stop offset="1" stop-color="#222428"/>
</radialGradient>
</defs>
</svg>
