<svg width="95" height="95" viewBox="0 0 95 95" fill="none" xmlns="http://www.w3.org/2000/svg">
<rect x="1.34387" y="1.35169" width="92.736" height="92.736" rx="13.44" fill="url(#paint0_radial_1024_11497)"/>
<rect x="1.34387" y="1.35169" width="92.736" height="92.736" rx="13.44" stroke="#6886C3" stroke-width="1.344"/>
<path d="M81.3123 49.196C81.3123 43.5724 77.8188 38.6304 72.5643 36.7275C72.7916 35.5345 72.9052 34.3416 72.9052 33.1203C72.9052 22.6399 64.3846 14.1191 53.9325 14.1191C47.7976 14.1191 42.117 17.0446 38.5383 21.9866C36.7773 20.6233 34.6189 19.8848 32.3751 19.8848C26.8082 19.8848 22.2922 24.4008 22.2922 29.9677C22.2922 31.189 22.5194 32.3819 22.917 33.4895C17.691 35.3642 14.1123 40.3913 14.1123 45.9866C14.1123 51.6387 17.6342 56.5807 22.8886 58.4837C22.6614 59.6482 22.5478 60.8695 22.5478 62.0907C22.5478 72.5429 31.0402 81.0352 41.4922 81.0352C47.6272 81.0352 53.3076 78.0814 56.8578 73.1392C58.6188 74.531 60.7774 75.2978 63.0212 75.2978C68.588 75.2978 73.1041 70.7819 73.1041 65.215C73.1041 63.9938 72.8768 62.8008 72.4792 61.6931C77.7052 59.8186 81.3123 54.7914 81.3123 49.196Z" fill="white"/>
<path d="M40.5268 42.9477L55.2392 49.6507L70.0653 36.6424C70.2924 35.5631 70.3776 34.5122 70.3776 33.376C70.3776 24.2305 62.9363 16.7891 53.7906 16.7891C48.3091 16.7891 43.225 19.4873 40.1291 24.0033L37.6582 36.8128L40.5268 42.9477Z" fill="#FED10A"/>
<path d="M25.3046 58.5105C25.0774 59.5898 24.9922 60.6974 24.9922 61.8335C24.9922 71.0075 32.4621 78.4489 41.636 78.4489C47.146 78.4489 52.2868 75.7223 55.3828 71.1779L57.8253 58.4253L54.5591 52.1767L39.7898 45.4453L25.3046 58.5105Z" fill="#24BBB1"/>
<path d="M25.2182 33.0621L35.3011 35.4479L37.5164 24.0018C36.1531 22.9509 34.449 22.3828 32.6881 22.3828C28.3141 22.3828 24.7354 25.9331 24.7354 30.3355C24.7354 31.2727 24.9058 32.2101 25.2182 33.0621Z" fill="#EF5098"/>
<path d="M24.3385 35.4746C19.8509 36.9514 16.6982 41.2686 16.6982 46.0118C16.6982 50.6414 19.5669 54.7598 23.8556 56.4071L38.0001 43.6261L35.4154 38.0876L24.3385 35.4746Z" fill="#1BA9F5"/>
<path d="M57.9375 71.1776C59.3293 72.2285 61.0051 72.825 62.7376 72.825C67.1116 72.825 70.6902 69.2746 70.6902 64.8723C70.6902 63.9066 70.5199 62.9692 70.2074 62.1172L60.153 59.7598L57.9375 71.1776Z" fill="#93C83E"/>
<path d="M59.9821 57.1195L71.0591 59.704C75.5751 58.227 78.6993 53.91 78.6993 49.1383C78.6993 44.5372 75.8307 40.3904 71.5419 38.7715L57.0566 51.4673L59.9821 57.1195Z" fill="#0077CC"/>
<defs>
<radialGradient id="paint0_radial_1024_11497" cx="0" cy="0" r="1" gradientUnits="userSpaceOnUse" gradientTransform="translate(47.7119 47.7197) rotate(90) scale(47.04)">
<stop stop-color="#333944"/>
<stop offset="1" stop-color="#222428"/>
</radialGradient>
</defs>
</svg>
