<svg width="95" height="95" viewBox="0 0 95 95" fill="none" xmlns="http://www.w3.org/2000/svg">
<rect x="1.20813" y="1.19934" width="92.736" height="92.736" rx="13.44" fill="url(#paint0_radial_1024_11578)"/>
<rect x="1.20813" y="1.19934" width="92.736" height="92.736" rx="13.44" stroke="#6886C3" stroke-width="1.344"/>
<path fill-rule="evenodd" clip-rule="evenodd" d="M20.0234 28.4156L34.3345 13.9668V81.149L20.0234 66.8671V28.4156Z" fill="url(#paint1_linear_1024_11578)"/>
<path fill-rule="evenodd" clip-rule="evenodd" d="M75.3219 28.5521L60.8148 13.9746L61.1088 81.1491L75.4199 66.8671L75.3219 28.5521Z" fill="url(#paint2_linear_1024_11578)"/>
<path fill-rule="evenodd" clip-rule="evenodd" d="M34.3257 13.9785L71.5331 70.7555L61.1213 81.167L23.8945 24.5157L34.3257 13.9785Z" fill="url(#paint3_linear_1024_11578)"/>
<path fill-rule="evenodd" clip-rule="evenodd" d="M34.3378 40.3133L34.318 42.5496L22.8301 25.5895L23.8938 24.5059L34.3378 40.3133Z" fill="black" fill-opacity="0.13"/>
<defs>
<radialGradient id="paint0_radial_1024_11578" cx="0" cy="0" r="1" gradientUnits="userSpaceOnUse" gradientTransform="translate(47.5761 47.5673) rotate(90) scale(47.04)">
<stop stop-color="#333944"/>
<stop offset="1" stop-color="#222428"/>
</radialGradient>
<linearGradient id="paint1_linear_1024_11578" x1="735.578" y1="13.9668" x2="735.578" y2="6732.19" gradientUnits="userSpaceOnUse">
<stop stop-color="#16B0ED" stop-opacity="0.800236"/>
<stop offset="1" stop-color="#0F59B2" stop-opacity="0.837"/>
</linearGradient>
<linearGradient id="paint2_linear_1024_11578" x1="-654.838" y1="13.9746" x2="-654.838" y2="6731.42" gradientUnits="userSpaceOnUse">
<stop stop-color="#7DB643"/>
<stop offset="1" stop-color="#367533"/>
</linearGradient>
<linearGradient id="paint3_linear_1024_11578" x1="2405.82" y1="13.9785" x2="2405.82" y2="6732.83" gradientUnits="userSpaceOnUse">
<stop stop-color="#88C649" stop-opacity="0.8"/>
<stop offset="1" stop-color="#439240" stop-opacity="0.84"/>
</linearGradient>
</defs>
</svg>
