<svg width="95" height="95" viewBox="0 0 95 95" fill="none" xmlns="http://www.w3.org/2000/svg">
<rect x="0.752078" y="0.912234" width="92.736" height="92.736" rx="13.44" fill="url(#paint0_radial_1024_11611)"/>
<rect x="0.752078" y="0.912234" width="92.736" height="92.736" rx="13.44" stroke="#6886C3" stroke-width="1.344"/>
<path d="M64.2568 35.0485L59.8216 39.4838C67.0792 46.7414 67.0792 58.4341 59.8216 65.5573C52.564 72.8149 40.8712 72.8149 33.748 65.5573C26.4904 58.2997 26.4904 46.607 33.748 39.4838L45.2392 27.9925L46.852 26.3798V17.7109L29.5144 35.0485C19.8376 44.7253 19.8376 60.3157 29.5144 69.9925C39.1912 79.6693 54.7816 79.6693 64.2568 69.9925C73.9336 60.2485 73.9336 44.7253 64.2568 35.0485Z" fill="white"/>
<path d="M55.5879 33.9727C57.3694 33.9727 58.8135 32.5286 58.8135 30.7471C58.8135 28.9657 57.3694 27.5215 55.5879 27.5215C53.8065 27.5215 52.3623 28.9657 52.3623 30.7471C52.3623 32.5286 53.8065 33.9727 55.5879 33.9727Z" fill="white"/>
<defs>
<radialGradient id="paint0_radial_1024_11611" cx="0" cy="0" r="1" gradientUnits="userSpaceOnUse" gradientTransform="translate(47.1201 47.2802) rotate(90) scale(47.04)">
<stop stop-color="#333944"/>
<stop offset="1" stop-color="#222428"/>
</radialGradient>
</defs>
</svg>
