<svg width="95" height="95" viewBox="0 0 95 95" fill="none" xmlns="http://www.w3.org/2000/svg">
<rect x="1.04016" y="1.48841" width="92.736" height="92.736" rx="13.44" fill="url(#paint0_radial_1024_11568)"/>
<rect x="1.04016" y="1.48841" width="92.736" height="92.736" rx="13.44" stroke="#6886C3" stroke-width="1.344"/>
<path d="M17.2025 27.6953H77.6146C78.5148 27.6953 79.378 28.0529 80.0145 28.6894C80.651 29.3259 81.0086 30.1891 81.0086 31.0893V64.3499C81.0086 65.25 80.651 66.1132 80.0145 66.7497C79.378 67.3862 78.5148 67.7438 77.6146 67.7438H17.2025C16.3024 67.7438 15.4391 67.3862 14.8027 66.7497C14.1662 66.1132 13.8086 65.25 13.8086 64.3499V31.0893C13.8086 30.1891 14.1662 29.3259 14.8027 28.6894C15.4391 28.0529 16.3024 27.6953 17.2025 27.6953Z" stroke="white" stroke-width="3.39394"/>
<path d="M22.2939 59.2604V36.1816H29.0818L35.8697 44.6665L42.6576 36.1816H49.4455V59.2604H42.6576V46.0241L35.8697 54.5089L29.0818 46.0241V59.2604H22.2939ZM64.7182 59.2604L54.5364 48.0604H61.3242V36.1816H68.1121V48.0604H74.9L64.7182 59.2604Z" fill="white"/>
<defs>
<radialGradient id="paint0_radial_1024_11568" cx="0" cy="0" r="1" gradientUnits="userSpaceOnUse" gradientTransform="translate(47.4082 47.8564) rotate(90) scale(47.04)">
<stop stop-color="#333944"/>
<stop offset="1" stop-color="#222428"/>
</radialGradient>
</defs>
</svg>
