<svg width="95" height="95" viewBox="0 0 95 95" fill="none" xmlns="http://www.w3.org/2000/svg">
<rect x="1.49622" y="1.35169" width="92.736" height="92.736" rx="13.44" fill="url(#paint0_radial_1024_11493)"/>
<rect x="1.49622" y="1.35169" width="92.736" height="92.736" rx="13.44" stroke="#6886C3" stroke-width="1.344"/>
<path fill-rule="evenodd" clip-rule="evenodd" d="M47.3477 30.8027H76.2953V42.5197H47.3477V30.8027Z" fill="white"/>
<path fill-rule="evenodd" clip-rule="evenodd" d="M21.157 69.0575C18.6075 69.0575 16.3864 67.6697 15.1941 65.6113C14.5853 66.6578 14.2646 67.8468 14.2646 69.0575C14.2646 72.8641 17.3503 75.9498 21.157 75.9498H28.0493V69.0575H21.157Z" fill="#3ECC5F"/>
<path fill-rule="evenodd" clip-rule="evenodd" d="M52.1662 32.6565L76.2962 31.1485V27.7023C76.2962 23.8957 73.2105 20.81 69.4038 20.81H38.3885L37.5269 19.3179C37.1437 18.6545 36.1867 18.6545 35.8038 19.3179L34.9423 20.81L34.0808 19.3179C33.6979 18.6545 32.7406 18.6545 32.3577 19.3179L31.4962 20.81L30.6346 19.3179C30.2517 18.6545 29.2944 18.6545 28.9115 19.3179L28.05 20.81C28.0424 20.81 28.0355 20.8111 28.0276 20.8111L26.6002 19.384C26.0592 18.8426 25.1349 19.0901 24.9364 19.8299L24.4646 21.5889L22.6754 21.1092C21.9351 20.911 21.2587 21.5878 21.4572 22.3277L21.9362 24.1173L20.178 24.5884C19.4377 24.7869 19.1899 25.7115 19.7313 26.2529L21.1587 27.6803C21.1587 27.6875 21.1577 27.6948 21.1577 27.7023L19.6655 28.5639C19.0021 28.9467 19.0021 29.9041 19.6655 30.287L21.1577 31.1485L19.6655 32.01C19.0021 32.3929 19.0021 33.3502 19.6655 33.7331L21.1577 34.5947L19.6655 35.4562C19.0021 35.8391 19.0021 36.7964 19.6655 37.1793L21.1577 38.0408L19.6655 38.9023C19.0021 39.2852 19.0021 40.2426 19.6655 40.6254L21.1577 41.487L19.6655 42.3485C19.0021 42.7314 19.0021 43.6887 19.6655 44.0716L21.1577 44.9331L19.6655 45.7947C19.0021 46.1775 19.0021 47.1349 19.6655 47.5177L21.1577 48.3793L19.6655 49.2408C19.0021 49.6237 19.0021 50.581 19.6655 50.9639L21.1577 51.8254L19.6655 52.687C19.0021 53.0698 19.0021 54.0272 19.6655 54.41L21.1577 55.2716L19.6655 56.1331C19.0021 56.516 19.0021 57.4733 19.6655 57.8562L21.1577 58.7177L19.6655 59.5793C19.0021 59.9621 19.0021 60.9195 19.6655 61.3023L21.1577 62.1639L19.6655 63.0254C19.0021 63.4083 19.0021 64.3656 19.6655 64.7485L21.1577 65.61L19.6655 66.4716C19.0021 66.8544 19.0021 67.8118 19.6655 68.1947L21.1577 69.0562C21.1577 72.8628 24.2434 75.9485 28.05 75.9485H69.4038C73.2105 75.9485 76.2962 72.8628 76.2962 69.0562V41.487L52.1662 39.9789C51.2348 39.9206 50.3606 39.5095 49.7216 38.8293C49.0826 38.1491 48.7269 37.251 48.7269 36.3177C48.7269 34.3806 50.2329 32.7775 52.1662 32.6565Z" fill="#3ECC5F"/>
<path fill-rule="evenodd" clip-rule="evenodd" d="M62.5117 75.9506H72.8502V62.166H62.5117V75.9506Z" fill="#3ECC5F"/>
<path fill-rule="evenodd" clip-rule="evenodd" d="M79.7426 67.3337C79.6672 67.3337 79.5951 67.3465 79.5224 67.3558C79.5093 67.3041 79.4969 67.252 79.4824 67.2004C79.8497 67.0468 80.1524 66.7709 80.3392 66.4194C80.5261 66.0679 80.5854 65.6626 80.5073 65.2723C80.4291 64.882 80.2183 64.5308 79.9105 64.2784C79.6027 64.026 79.2171 63.8879 78.8191 63.8876C78.4427 63.8889 78.0774 64.0144 77.7797 64.2446C77.7416 64.2056 77.7031 64.167 77.6642 64.1288C77.8894 63.8328 78.0117 63.4713 78.0127 63.0994C78.0124 62.7024 77.8751 62.3177 77.6239 62.0102C77.3727 61.7028 77.0231 61.4915 76.6341 61.4122C76.2451 61.3328 75.8407 61.3901 75.4891 61.5746C75.1376 61.759 74.8605 62.0592 74.7047 62.4243C74.6537 62.4098 74.6023 62.3978 74.5513 62.3847C74.5606 62.312 74.5734 62.24 74.5734 62.1645C74.5734 61.7075 74.3919 61.2692 74.0687 60.9461C73.7456 60.6229 73.3073 60.4414 72.8503 60.4414C72.3933 60.4414 71.9551 60.6229 71.6319 60.9461C71.3088 61.2692 71.1272 61.7075 71.1272 62.1645C71.1272 62.24 71.14 62.312 71.1493 62.3847C71.0983 62.3978 71.0469 62.4098 70.9959 62.4243C70.8407 62.0585 70.5637 61.7576 70.212 61.5726C69.8602 61.3876 69.4553 61.33 69.066 61.4094C68.6766 61.4889 68.3266 61.7006 68.0755 62.0086C67.8243 62.3166 67.6874 62.702 67.688 63.0994C67.688 63.4871 67.8203 63.8407 68.0364 64.1288C66.7554 65.3804 65.958 67.1245 65.958 69.0568C65.958 72.8634 69.0437 75.9491 72.8503 75.9491C76.0687 75.9491 78.7639 73.7401 79.5224 70.7578C79.5951 70.7671 79.6672 70.7799 79.7426 70.7799C80.1996 70.7799 80.6379 70.5983 80.961 70.2752C81.2842 69.9521 81.4657 69.5138 81.4657 69.0568C81.4657 68.5998 81.2842 68.1615 80.961 67.8384C80.6379 67.5153 80.1996 67.3337 79.7426 67.3337Z" fill="#44D860"/>
<path fill-rule="evenodd" clip-rule="evenodd" d="M65.958 55.2712H76.2965V48.3789H65.958V55.2712Z" fill="#3ECC5F"/>
<path fill-rule="evenodd" clip-rule="evenodd" d="M79.7419 52.686C79.9704 52.686 80.1895 52.5953 80.3511 52.4337C80.5127 52.2721 80.6035 52.053 80.6035 51.8245C80.6035 51.596 80.5127 51.3769 80.3511 51.2153C80.1895 51.0537 79.9704 50.963 79.7419 50.963C79.7044 50.963 79.6682 50.9695 79.632 50.974C79.6251 50.9481 79.6192 50.9223 79.612 50.8964C79.7954 50.8195 79.9465 50.6814 80.0397 50.5057C80.1329 50.33 80.1625 50.1275 80.1234 49.9325C80.0844 49.7374 79.9791 49.5619 79.8254 49.4357C79.6717 49.3095 79.479 49.2403 79.2801 49.2399C79.084 49.2399 78.9052 49.3078 78.7605 49.4184C78.7415 49.3987 78.7222 49.3794 78.7026 49.3605C78.8108 49.2168 78.8769 49.0397 78.8769 48.8456C78.8769 48.6471 78.8082 48.4546 78.6826 48.3009C78.557 48.1471 78.3821 48.0414 78.1876 48.0018C77.993 47.9621 77.7907 47.9908 77.6149 48.0831C77.4391 48.1754 77.3006 48.3256 77.2228 48.5083C76.9211 48.4229 76.6092 48.3792 76.2958 48.3783C74.3928 48.3783 72.8496 49.9215 72.8496 51.8245C72.8496 53.7275 74.3928 55.2706 76.2958 55.2706C76.6176 55.2706 76.9274 55.2231 77.2228 55.1407C77.3006 55.3234 77.4391 55.4736 77.6149 55.5659C77.7907 55.6582 77.993 55.6869 78.1876 55.6472C78.3821 55.6076 78.557 55.5019 78.6826 55.3481C78.8082 55.1944 78.8769 55.0019 78.8769 54.8034C78.8769 54.6093 78.8108 54.4322 78.7026 54.2885C78.7222 54.2695 78.7415 54.2502 78.7605 54.2306C78.9052 54.3412 79.084 54.4091 79.2801 54.4091C79.4792 54.4091 79.6722 54.3401 79.8262 54.2139C79.9802 54.0877 80.0857 53.912 80.1248 53.7168C80.1639 53.5216 80.1342 53.3188 80.0407 53.143C79.9472 52.9672 79.7957 52.8293 79.612 52.7525C79.6192 52.727 79.6251 52.7009 79.632 52.675C79.6682 52.6795 79.7044 52.686 79.7419 52.686Z" fill="#44D860"/>
<path fill-rule="evenodd" clip-rule="evenodd" d="M34.9413 32.011C34.7129 32.011 34.4937 31.9203 34.3321 31.7587C34.1706 31.5971 34.0798 31.378 34.0798 31.1495C34.0798 29.7242 32.9205 28.5649 31.4952 28.5649C30.0699 28.5649 28.9106 29.7242 28.9106 31.1495C28.9106 31.378 28.8198 31.5971 28.6582 31.7587C28.4967 31.9203 28.2775 32.011 28.049 32.011C27.8205 32.011 27.6014 31.9203 27.4398 31.7587C27.2783 31.5971 27.1875 31.378 27.1875 31.1495C27.1875 28.7741 29.1198 26.8418 31.4952 26.8418C33.8706 26.8418 35.8029 28.7741 35.8029 31.1495C35.8029 31.378 35.7121 31.5971 35.5505 31.7587C35.389 31.9203 35.1698 32.011 34.9413 32.011Z" fill="black"/>
<path fill-rule="evenodd" clip-rule="evenodd" d="M48.7266 75.947H69.4035C73.2101 75.947 76.2958 72.8613 76.2958 69.0547V44.9316H55.6189C51.8122 44.9316 48.7266 48.0173 48.7266 51.8239V75.947Z" fill="#FFFF50"/>
<path fill-rule="evenodd" clip-rule="evenodd" d="M71.1347 55.6172H53.8901C53.7987 55.6172 53.7111 55.5809 53.6464 55.5163C53.5818 55.4516 53.5455 55.364 53.5455 55.2726C53.5455 55.1812 53.5818 55.0935 53.6464 55.0289C53.7111 54.9643 53.7987 54.928 53.8901 54.928H71.1347C71.2261 54.928 71.3137 54.9643 71.3784 55.0289C71.443 55.0935 71.4793 55.1812 71.4793 55.2726C71.4793 55.364 71.443 55.4516 71.3784 55.5163C71.3137 55.5809 71.2261 55.6172 71.1347 55.6172ZM71.1347 62.5095H53.8901C53.7987 62.5095 53.7111 62.4732 53.6464 62.4086C53.5818 62.3439 53.5455 62.2563 53.5455 62.1649C53.5455 62.0735 53.5818 61.9858 53.6464 61.9212C53.7111 61.8566 53.7987 61.8203 53.8901 61.8203H71.1347C71.2261 61.8203 71.3137 61.8566 71.3784 61.9212C71.443 61.9858 71.4793 62.0735 71.4793 62.1649C71.4793 62.2563 71.443 62.3439 71.3784 62.4086C71.3137 62.4732 71.2261 62.5095 71.1347 62.5095ZM71.1347 69.4018H53.8901C53.7987 69.4018 53.7111 69.3655 53.6464 69.3009C53.5818 69.2363 53.5455 69.1486 53.5455 69.0572C53.5455 68.9658 53.5818 68.8781 53.6464 68.8135C53.7111 68.7489 53.7987 68.7126 53.8901 68.7126H71.1347C71.2261 68.7126 71.3137 68.7489 71.3784 68.8135C71.443 68.8781 71.4793 68.9658 71.4793 69.0572C71.4793 69.1486 71.443 69.2363 71.3784 69.3009C71.3137 69.3655 71.2261 69.4018 71.1347 69.4018ZM71.1347 52.2351H53.8901C53.7987 52.2351 53.7111 52.1988 53.6464 52.1342C53.5818 52.0696 53.5455 51.9819 53.5455 51.8905C53.5455 51.7991 53.5818 51.7115 53.6464 51.6469C53.7111 51.5822 53.7987 51.5459 53.8901 51.5459H71.1347C71.2261 51.5459 71.3137 51.5822 71.3784 51.6469C71.443 51.7115 71.4793 51.7991 71.4793 51.8905C71.4793 51.9819 71.443 52.0696 71.3784 52.1342C71.3137 52.1988 71.2261 52.2351 71.1347 52.2351ZM71.1347 59.0634H53.8901C53.7987 59.0634 53.7111 59.027 53.6464 58.9624C53.5818 58.8978 53.5455 58.8101 53.5455 58.7187C53.5455 58.6273 53.5818 58.5397 53.6464 58.4751C53.7111 58.4104 53.7987 58.3741 53.8901 58.3741H71.1347C71.2261 58.3741 71.3137 58.4104 71.3784 58.4751C71.443 58.5397 71.4793 58.6273 71.4793 58.7187C71.4793 58.8101 71.443 58.8978 71.3784 58.9624C71.3137 59.027 71.2261 59.0634 71.1347 59.0634ZM71.1347 65.9557H53.8901C53.7987 65.9557 53.7111 65.9194 53.6464 65.8547C53.5818 65.7901 53.5455 65.7024 53.5455 65.611C53.5455 65.5196 53.5818 65.432 53.6464 65.3674C53.7111 65.3027 53.7987 65.2664 53.8901 65.2664H71.1347C71.2261 65.2664 71.3137 65.3027 71.3784 65.3674C71.443 65.432 71.4793 65.5196 71.4793 65.611C71.4793 65.7024 71.443 65.7901 71.3784 65.8547C71.3137 65.9194 71.2261 65.9557 71.1347 65.9557ZM76.297 34.117C76.2929 34.117 76.2894 34.1149 76.2853 34.1153C75.2204 34.1515 74.7166 35.2167 74.2721 36.1564C73.8082 37.1386 73.4495 37.7772 72.8615 37.7579C72.2106 37.7344 71.8384 36.999 71.4441 36.2209C70.9913 35.3269 70.4744 34.3131 69.3892 34.351C68.3395 34.3868 67.834 35.3138 67.388 36.1316C66.9135 37.0028 66.5906 37.5325 65.9679 37.508C65.3038 37.4839 64.9509 36.886 64.5425 36.194C64.0873 35.4234 63.5611 34.5571 62.4969 34.5867C61.4651 34.6222 60.9582 35.4086 60.5109 36.103C60.0377 36.837 59.7062 37.2844 59.0755 37.2578C58.3956 37.2337 58.0445 36.7375 57.6382 36.163C57.1819 35.5175 56.6677 34.7869 55.6067 34.8224C54.5976 34.8569 54.0907 35.5013 53.6437 36.0692C53.2192 36.6082 52.8876 37.0349 52.1863 37.008C52.0949 37.0047 52.006 37.0378 51.939 37.1001C51.8721 37.1624 51.8326 37.2488 51.8293 37.3402C51.826 37.4316 51.8592 37.5205 51.9215 37.5875C51.9838 37.6545 52.0701 37.6939 52.1615 37.6972C53.2012 37.732 53.7278 37.0769 54.1851 36.4955C54.5907 35.98 54.9409 35.5351 55.6301 35.5117C56.2938 35.4834 56.605 35.8959 57.0757 36.561C57.5227 37.193 58.03 37.9098 59.0507 37.9467C60.1201 37.9825 60.6346 37.1834 61.0902 36.4762C61.4975 35.8442 61.849 35.2987 62.5203 35.2756C63.1382 35.2525 63.4746 35.7408 63.9488 36.5441C64.3957 37.3012 64.902 38.159 65.943 38.1969C67.02 38.2341 67.54 37.294 67.9932 36.4618C68.3857 35.7422 68.7561 35.0626 69.4126 35.0399C70.0305 35.0254 70.3527 35.5895 70.8293 36.5321C71.2746 37.4119 71.7795 38.4085 72.8367 38.4467L72.895 38.4478C73.9509 38.4478 74.4519 37.3881 74.8955 36.4511C75.288 35.6206 75.6595 34.8383 76.297 34.8062V34.117Z" fill="black"/>
<path fill-rule="evenodd" clip-rule="evenodd" d="M41.833 75.9506H55.6176V62.166H41.833V75.9506Z" fill="#3ECC5F"/>
<path d="M76.2135 40.1845L49.4099 47.3665C49.0422 47.4651 48.824 47.843 48.9225 48.2107L51.5419 57.9861C51.6404 58.3538 52.0183 58.572 52.386 58.4735L79.1896 51.2915C79.5573 51.193 79.7755 50.8151 79.6769 50.4474L77.0576 40.6719C76.9591 40.3042 76.5812 40.086 76.2135 40.1845Z" fill="#D8D8D8"/>
<path d="M57.4986 52.7201L56.5389 52.9772C56.3551 53.0265 56.246 53.2154 56.2952 53.3993L56.5524 54.359C56.6017 54.5428 56.7906 54.6519 56.9745 54.6026L57.9341 54.3455C58.118 54.2962 58.2271 54.1073 58.1778 53.9234L57.9207 52.9637C57.8714 52.7799 57.6824 52.6708 57.4986 52.7201Z" fill="#4A4A4A"/>
<path d="M59.4254 52.2025L58.4657 52.4596C58.2818 52.5089 58.1727 52.6979 58.222 52.8817L58.4791 53.8414C58.5284 54.0252 58.7174 54.1343 58.9012 54.0851L59.8609 53.8279C60.0447 53.7786 60.1538 53.5897 60.1046 53.4058L59.8474 52.4462C59.7982 52.2623 59.6092 52.1532 59.4254 52.2025Z" fill="#4A4A4A"/>
<path d="M61.3521 51.6869L60.3924 51.944C60.2086 51.9933 60.0995 52.1822 60.1488 52.3661L60.4059 53.3257C60.4552 53.5096 60.6441 53.6187 60.828 53.5694L61.7876 53.3123C61.9715 53.263 62.0806 53.0741 62.0313 52.8902L61.7742 51.9305C61.7249 51.7467 61.536 51.6376 61.3521 51.6869Z" fill="#4A4A4A"/>
<path d="M63.2779 51.1712L62.3182 51.4284C62.1344 51.4776 62.0253 51.6666 62.0745 51.8505L62.3317 52.8101C62.3809 52.994 62.5699 53.1031 62.7538 53.0538L63.7134 52.7967C63.8973 52.7474 64.0064 52.5584 63.9571 52.3746L63.7 51.4149C63.6507 51.2311 63.4617 51.122 63.2779 51.1712Z" fill="#4A4A4A"/>
<path d="M65.2047 50.6537L64.245 50.9108C64.0611 50.9601 63.952 51.149 64.0013 51.3329L64.2584 52.2925C64.3077 52.4764 64.4967 52.5855 64.6805 52.5362L65.6402 52.2791C65.824 52.2298 65.9331 52.0409 65.8839 51.857L65.6267 50.8973C65.5775 50.7135 65.3885 50.6044 65.2047 50.6537Z" fill="#4A4A4A"/>
<path d="M67.1304 50.14L66.1708 50.3971C65.9869 50.4464 65.8778 50.6354 65.9271 50.8192L66.1842 51.7789C66.2335 51.9627 66.4225 52.0718 66.6063 52.0226L67.566 51.7654C67.7498 51.7161 67.8589 51.5272 67.8096 51.3433L67.5525 50.3837C67.5032 50.1998 67.3143 50.0907 67.1304 50.14Z" fill="#4A4A4A"/>
<path d="M69.0572 49.6224L68.0975 49.8796C67.9137 49.9288 67.8046 50.1178 67.8538 50.3016L68.111 51.2613C68.1602 51.4451 68.3492 51.5542 68.5331 51.505L69.4927 51.2478C69.6766 51.1986 69.7857 51.0096 69.7364 50.8258L69.4793 49.8661C69.43 49.6823 69.241 49.5732 69.0572 49.6224Z" fill="#4A4A4A"/>
<path d="M70.983 49.1048L70.0233 49.362C69.8395 49.4112 69.7304 49.6002 69.7796 49.784L70.0368 50.7437C70.086 50.9276 70.275 51.0367 70.4588 50.9874L71.4185 50.7303C71.6023 50.681 71.7114 50.492 71.6622 50.3082L71.405 49.3485C71.3558 49.1647 71.1668 49.0556 70.983 49.1048Z" fill="#4A4A4A"/>
<path d="M72.9097 48.5892L71.9501 48.8464C71.7662 48.8956 71.6571 49.0846 71.7064 49.2684L71.9635 50.2281C72.0128 50.4119 72.2017 50.521 72.3856 50.4718L73.3453 50.2146C73.5291 50.1654 73.6382 49.9764 73.5889 49.7926L73.3318 48.8329C73.2825 48.649 73.0936 48.54 72.9097 48.5892Z" fill="#4A4A4A"/>
<path fill-rule="evenodd" clip-rule="evenodd" d="M51.4228 54.3467L55.5125 53.2509C55.6008 53.2272 55.6948 53.2396 55.774 53.2853C55.8531 53.331 55.9109 53.4063 55.9345 53.4945L56.1916 54.4539C56.2153 54.5422 56.2029 54.6362 56.1572 54.7154C56.1115 54.7945 56.0362 54.8523 55.9479 54.8759L51.8582 55.9718C51.77 55.9954 51.6759 55.983 51.5967 55.9373C51.5176 55.8916 51.4598 55.8164 51.4362 55.7281L51.179 54.7684C51.1554 54.6801 51.1678 54.5861 51.2135 54.5069C51.2592 54.4278 51.3344 54.37 51.4227 54.3464L51.4228 54.3467ZM73.9363 48.3142L78.0263 47.2183C78.1146 47.1946 78.2087 47.207 78.2878 47.2527C78.367 47.2984 78.4248 47.3737 78.4484 47.462L78.7055 48.4213C78.7291 48.5096 78.7167 48.6037 78.671 48.6828C78.6253 48.762 78.5501 48.8197 78.4618 48.8434L74.3714 49.9394C74.2832 49.963 74.1891 49.9507 74.1099 49.905C74.0308 49.8593 73.973 49.784 73.9494 49.6957L73.6922 48.736C73.6686 48.6477 73.681 48.5537 73.7267 48.4745C73.7724 48.3954 73.8476 48.3376 73.9359 48.314L73.9363 48.3142Z" fill="#4A4A4A"/>
<path fill-rule="evenodd" clip-rule="evenodd" d="M50.3807 50.4538L51.9419 50.0355C52.0302 50.0118 52.1242 50.0242 52.2034 50.0699C52.2826 50.1156 52.3403 50.1909 52.364 50.2791L52.621 51.2385C52.6447 51.3268 52.6323 51.4208 52.5866 51.5C52.5409 51.5791 52.4656 51.6369 52.3773 51.6605L50.8162 52.0789C50.7279 52.1025 50.6338 52.0901 50.5547 52.0444C50.4755 51.9987 50.4178 51.9235 50.3941 51.8352L50.137 50.8758C50.1134 50.7876 50.1258 50.6935 50.1715 50.6143C50.2172 50.5352 50.2924 50.4774 50.3807 50.4538Z" fill="#4A4A4A"/>
<path d="M53.8697 49.5209L52.91 49.778C52.7262 49.8273 52.6171 50.0162 52.6663 50.2001L52.9235 51.1597C52.9727 51.3436 53.1617 51.4527 53.3456 51.4034L54.3052 51.1463C54.4891 51.097 54.5982 50.908 54.5489 50.7242L54.2918 49.7645C54.2425 49.5807 54.0535 49.4716 53.8697 49.5209Z" fill="#4A4A4A"/>
<path d="M55.7945 49.0052L54.8348 49.2624C54.651 49.3116 54.5419 49.5006 54.5911 49.6844L54.8483 50.6441C54.8975 50.8279 55.0865 50.937 55.2704 50.8878L56.23 50.6306C56.4139 50.5814 56.523 50.3924 56.4737 50.2086L56.2166 49.2489C56.1673 49.0651 55.9783 48.956 55.7945 49.0052Z" fill="#4A4A4A"/>
<path d="M57.7213 48.4896L56.7616 48.7467C56.5777 48.796 56.4686 48.985 56.5179 49.1688L56.775 50.1285C56.8243 50.3123 57.0133 50.4214 57.1971 50.3722L58.1568 50.115C58.3406 50.0658 58.4497 49.8768 58.4005 49.693L58.1433 48.7333C58.0941 48.5494 57.9051 48.4403 57.7213 48.4896Z" fill="#4A4A4A"/>
<path d="M59.648 47.972L58.6883 48.2292C58.5045 48.2784 58.3954 48.4674 58.4447 48.6512L58.7018 49.6109C58.7511 49.7947 58.94 49.9038 59.1239 49.8546L60.0835 49.5974C60.2674 49.5482 60.3765 49.3592 60.3272 49.1754L60.0701 48.2157C60.0208 48.0319 59.8319 47.9228 59.648 47.972Z" fill="#4A4A4A"/>
<path d="M61.5738 47.4564L60.6141 47.7135C60.4303 47.7628 60.3212 47.9518 60.3704 48.1356L60.6276 49.0953C60.6768 49.2791 60.8658 49.3882 61.0497 49.339L62.0093 49.0818C62.1932 49.0326 62.3023 48.8436 62.253 48.6598L61.9959 47.7001C61.9466 47.5162 61.7576 47.4071 61.5738 47.4564Z" fill="#4A4A4A"/>
<path d="M63.5006 46.9408L62.5409 47.1979C62.357 47.2472 62.2479 47.4361 62.2972 47.62L62.5543 48.5797C62.6036 48.7635 62.7926 48.8726 62.9764 48.8233L63.9361 48.5662C64.1199 48.5169 64.229 48.328 64.1798 48.1441L63.9226 47.1845C63.8734 47.0006 63.6844 46.8915 63.5006 46.9408Z" fill="#4A4A4A"/>
<path d="M65.4273 46.4212L64.4676 46.6784C64.2838 46.7276 64.1747 46.9166 64.224 47.1005L64.4811 48.0601C64.5304 48.244 64.7193 48.3531 64.9032 48.3038L65.8628 48.0467C66.0467 47.9974 66.1558 47.8084 66.1065 47.6246L65.8494 46.6649C65.8001 46.4811 65.6112 46.372 65.4273 46.4212Z" fill="#4A4A4A"/>
<path d="M67.3531 45.9076L66.3934 46.1647C66.2096 46.214 66.1005 46.4029 66.1497 46.5868L66.4069 47.5465C66.4561 47.7303 66.6451 47.8394 66.8289 47.7901L67.7886 47.533C67.9725 47.4837 68.0816 47.2948 68.0323 47.1109L67.7752 46.1512C67.7259 45.9674 67.5369 45.8583 67.3531 45.9076Z" fill="#4A4A4A"/>
<path d="M69.2799 45.3919L68.3202 45.6491C68.1363 45.6983 68.0272 45.8873 68.0765 46.0712L68.3336 47.0308C68.3829 47.2147 68.5719 47.3238 68.7557 47.2745L69.7154 47.0174C69.8992 46.9681 70.0083 46.7791 69.9591 46.5953L69.7019 45.6356C69.6527 45.4518 69.4637 45.3427 69.2799 45.3919Z" fill="#4A4A4A"/>
<path d="M71.2056 44.8763L70.246 45.1335C70.0621 45.1827 69.953 45.3717 70.0023 45.5555L70.2594 46.5152C70.3087 46.699 70.4976 46.8081 70.6815 46.7589L71.6412 46.5017C71.825 46.4525 71.9341 46.2635 71.8848 46.0797L71.6277 45.12C71.5784 44.9362 71.3895 44.8271 71.2056 44.8763Z" fill="#4A4A4A"/>
<path d="M73.1324 44.3587L72.1727 44.6159C71.9889 44.6651 71.8798 44.8541 71.929 45.038L72.1862 45.9976C72.2354 46.1815 72.4244 46.2906 72.6082 46.2413L73.5679 45.9842C73.7518 45.9349 73.8609 45.7459 73.8116 45.5621L73.5545 44.6024C73.5052 44.4186 73.3162 44.3095 73.1324 44.3587Z" fill="#4A4A4A"/>
<path d="M75.0591 43.8451L74.0995 44.1022C73.9156 44.1515 73.8065 44.3404 73.8558 44.5243L74.1129 45.484C74.1622 45.6678 74.3512 45.7769 74.535 45.7276L75.4947 45.4705C75.6785 45.4212 75.7876 45.2323 75.7384 45.0484L75.4812 44.0887C75.432 43.9049 75.243 43.7958 75.0591 43.8451Z" fill="#4A4A4A"/>
<path d="M76.9849 43.3275L76.0253 43.5846C75.8414 43.6339 75.7323 43.8229 75.7816 44.0067L76.0387 44.9664C76.088 45.1502 76.2769 45.2593 76.4608 45.2101L77.4205 44.9529C77.6043 44.9037 77.7134 44.7147 77.6641 44.5308L77.407 43.5712C77.3577 43.3873 77.1688 43.2782 76.9849 43.3275Z" fill="#4A4A4A"/>
<path fill-rule="evenodd" clip-rule="evenodd" d="M76.9249 43.1107L75.3634 43.5291C75.2751 43.5527 75.1811 43.5404 75.1019 43.4947C75.0228 43.449 74.965 43.3737 74.9414 43.2854L74.6842 42.3257C74.6606 42.2374 74.673 42.1434 74.7187 42.0642C74.7643 41.9851 74.8396 41.9273 74.9279 41.9037L76.4894 41.4853C76.5777 41.4616 76.6718 41.474 76.7509 41.5197C76.8301 41.5654 76.8878 41.6407 76.9115 41.7289L77.1686 42.6886C77.1923 42.7769 77.1799 42.871 77.1342 42.9501C77.0885 43.0293 77.0132 43.087 76.9249 43.1107Z" fill="#4A4A4A"/>
<path d="M73.4369 44.0436L74.3966 43.7865C74.5805 43.7372 74.6896 43.5482 74.6403 43.3644L74.3832 42.4047C74.3339 42.2209 74.1449 42.1118 73.9611 42.161L73.0014 42.4182C72.8176 42.4674 72.7085 42.6564 72.7577 42.8402L73.0149 43.7999C73.0641 43.9838 73.2531 44.0929 73.4369 44.0436Z" fill="#4A4A4A"/>
<path d="M71.5102 44.5612L72.4699 44.304C72.6537 44.2548 72.7628 44.0658 72.7135 43.882L72.4564 42.9223C72.4071 42.7385 72.2182 42.6294 72.0343 42.6786L71.0747 42.9358C70.8908 42.985 70.7817 43.174 70.831 43.3578L71.0881 44.3175C71.1374 44.5013 71.3263 44.6104 71.5102 44.5612Z" fill="#4A4A4A"/>
<path d="M69.5844 45.0768L70.5441 44.8197C70.7279 44.7704 70.837 44.5814 70.7878 44.3976L70.5306 43.4379C70.4814 43.2541 70.2924 43.145 70.1086 43.1942L69.1489 43.4514C68.965 43.5006 68.8559 43.6896 68.9052 43.8735L69.1623 44.8331C69.2116 45.017 69.4006 45.1261 69.5844 45.0768Z" fill="#4A4A4A"/>
<path d="M67.6576 45.5924L68.6173 45.3353C68.8012 45.286 68.9103 45.0971 68.861 44.9132L68.6039 43.9535C68.5546 43.7697 68.3656 43.6606 68.1818 43.7099L67.2221 43.967C67.0383 44.0163 66.9292 44.2052 66.9784 44.3891L67.2356 45.3488C67.2848 45.5326 67.4738 45.6417 67.6576 45.5924Z" fill="#4A4A4A"/>
<path d="M65.7309 46.11L66.6906 45.8529C66.8744 45.8036 66.9835 45.6146 66.9342 45.4308L66.6771 44.4711C66.6278 44.2873 66.4389 44.1782 66.255 44.2274L65.2954 44.4846C65.1115 44.5338 65.0024 44.7228 65.0517 44.9067L65.3088 45.8663C65.3581 46.0502 65.5471 46.1593 65.7309 46.11Z" fill="#4A4A4A"/>
<path d="M63.8051 46.6237L64.7648 46.3665C64.9486 46.3173 65.0577 46.1283 65.0085 45.9445L64.7513 44.9848C64.7021 44.801 64.5131 44.6919 64.3293 44.7411L63.3696 44.9983C63.1857 45.0475 63.0766 45.2365 63.1259 45.4203L63.383 46.38C63.4323 46.5638 63.6213 46.6729 63.8051 46.6237Z" fill="#4A4A4A"/>
<path d="M61.8784 47.1413L62.838 46.8841C63.0219 46.8349 63.131 46.6459 63.0817 46.462L62.8246 45.5024C62.7753 45.3185 62.5863 45.2094 62.4025 45.2587L61.4428 45.5158C61.259 45.5651 61.1499 45.7541 61.1991 45.9379L61.4563 46.8976C61.5055 47.0814 61.6945 47.1905 61.8784 47.1413Z" fill="#4A4A4A"/>
<path d="M59.9526 47.6588L60.9122 47.4017C61.0961 47.3524 61.2052 47.1635 61.1559 46.9796L60.8988 46.02C60.8495 45.8361 60.6606 45.727 60.4767 45.7763L59.517 46.0334C59.3332 46.0827 59.2241 46.2716 59.2734 46.4555L59.5305 47.4152C59.5798 47.599 59.7687 47.7081 59.9526 47.6588Z" fill="#4A4A4A"/>
<path d="M58.0268 48.1725L58.9865 47.9154C59.1703 47.8661 59.2794 47.6771 59.2301 47.4933L58.973 46.5336C58.9237 46.3498 58.7348 46.2407 58.5509 46.2899L57.5913 46.5471C57.4074 46.5963 57.2983 46.7853 57.3476 46.9692L57.6047 47.9288C57.654 48.1127 57.843 48.2218 58.0268 48.1725Z" fill="#4A4A4A"/>
<path d="M56.0991 48.6901L57.0587 48.4329C57.2426 48.3837 57.3517 48.1947 57.3024 48.0109L57.0453 47.0512C56.996 46.8674 56.807 46.7583 56.6232 46.8075L55.6635 47.0647C55.4797 47.1139 55.3706 47.3029 55.4198 47.4867L55.677 48.4464C55.7263 48.6302 55.9152 48.7393 56.0991 48.6901Z" fill="#4A4A4A"/>
<path d="M54.1733 49.2057L55.1329 48.9486C55.3168 48.8993 55.4259 48.7103 55.3766 48.5265L55.1195 47.5668C55.0702 47.383 54.8813 47.2739 54.6974 47.3231L53.7377 47.5803C53.5539 47.6296 53.4448 47.8185 53.4941 48.0024L53.7512 48.962C53.8005 49.1459 53.9894 49.255 54.1733 49.2057Z" fill="#4A4A4A"/>
<path d="M52.2465 49.7213L53.2062 49.4642C53.39 49.4149 53.4991 49.226 53.4499 49.0421L53.1927 48.0825C53.1435 47.8986 52.9545 47.7895 52.7707 47.8388L51.811 48.0959C51.6271 48.1452 51.518 48.3341 51.5673 48.518L51.8245 49.4777C51.8737 49.6615 52.0627 49.7706 52.2465 49.7213Z" fill="#4A4A4A"/>
<path d="M50.3217 50.237L51.2814 49.9798C51.4652 49.9306 51.5743 49.7416 51.5251 49.5578L51.2679 48.5981C51.2187 48.4142 51.0297 48.3051 50.8459 48.3544L49.8862 48.6115C49.7023 48.6608 49.5932 48.8498 49.6425 49.0336L49.8996 49.9933C49.9489 50.1771 50.1379 50.2862 50.3217 50.237Z" fill="#4A4A4A"/>
<path d="M73.4369 44.0436L74.3966 43.7865C74.5805 43.7372 74.6896 43.5482 74.6403 43.3644L74.3832 42.4047C74.3339 42.2209 74.1449 42.1118 73.9611 42.161L73.0014 42.4182C72.8176 42.4674 72.7085 42.6564 72.7577 42.8402L73.0149 43.7999C73.0641 43.9838 73.2531 44.0929 73.4369 44.0436Z" fill="#4A4A4A"/>
<path d="M71.5102 44.5612L72.4699 44.304C72.6537 44.2548 72.7628 44.0658 72.7135 43.882L72.4564 42.9223C72.4071 42.7385 72.2182 42.6294 72.0343 42.6786L71.0747 42.9358C70.8908 42.985 70.7817 43.174 70.831 43.3578L71.0881 44.3175C71.1374 44.5013 71.3263 44.6104 71.5102 44.5612Z" fill="#4A4A4A"/>
<path d="M69.5844 45.0768L70.5441 44.8197C70.7279 44.7704 70.837 44.5814 70.7878 44.3976L70.5306 43.4379C70.4814 43.2541 70.2924 43.145 70.1086 43.1942L69.1489 43.4514C68.965 43.5006 68.8559 43.6896 68.9052 43.8735L69.1623 44.8331C69.2116 45.017 69.4006 45.1261 69.5844 45.0768Z" fill="#4A4A4A"/>
<path d="M67.6576 45.5924L68.6173 45.3353C68.8012 45.286 68.9103 45.0971 68.861 44.9132L68.6039 43.9535C68.5546 43.7697 68.3656 43.6606 68.1818 43.7099L67.2221 43.967C67.0383 44.0163 66.9292 44.2052 66.9784 44.3891L67.2356 45.3488C67.2848 45.5326 67.4738 45.6417 67.6576 45.5924Z" fill="#4A4A4A"/>
<path d="M65.7309 46.11L66.6906 45.8529C66.8744 45.8036 66.9835 45.6146 66.9342 45.4308L66.6771 44.4711C66.6278 44.2873 66.4389 44.1782 66.255 44.2274L65.2954 44.4846C65.1115 44.5338 65.0024 44.7228 65.0517 44.9067L65.3088 45.8663C65.3581 46.0502 65.5471 46.1593 65.7309 46.11Z" fill="#4A4A4A"/>
<path d="M63.8051 46.6237L64.7648 46.3665C64.9486 46.3173 65.0577 46.1283 65.0085 45.9445L64.7513 44.9848C64.7021 44.801 64.5131 44.6919 64.3293 44.7411L63.3696 44.9983C63.1857 45.0475 63.0766 45.2365 63.1259 45.4203L63.383 46.38C63.4323 46.5638 63.6213 46.6729 63.8051 46.6237Z" fill="#4A4A4A"/>
<path d="M61.8784 47.1413L62.838 46.8841C63.0219 46.8349 63.131 46.6459 63.0817 46.462L62.8246 45.5024C62.7753 45.3185 62.5863 45.2094 62.4025 45.2587L61.4428 45.5158C61.259 45.5651 61.1499 45.7541 61.1991 45.9379L61.4563 46.8976C61.5055 47.0814 61.6945 47.1905 61.8784 47.1413Z" fill="#4A4A4A"/>
<path d="M59.9526 47.6588L60.9122 47.4017C61.0961 47.3524 61.2052 47.1635 61.1559 46.9796L60.8988 46.02C60.8495 45.8361 60.6606 45.727 60.4767 45.7763L59.517 46.0334C59.3332 46.0827 59.2241 46.2716 59.2734 46.4555L59.5305 47.4152C59.5798 47.599 59.7687 47.7081 59.9526 47.6588Z" fill="#4A4A4A"/>
<path d="M58.0268 48.1725L58.9865 47.9154C59.1703 47.8661 59.2794 47.6771 59.2301 47.4933L58.973 46.5336C58.9237 46.3498 58.7348 46.2407 58.5509 46.2899L57.5913 46.5471C57.4074 46.5963 57.2983 46.7853 57.3476 46.9692L57.6047 47.9288C57.654 48.1127 57.843 48.2218 58.0268 48.1725Z" fill="#4A4A4A"/>
<path d="M56.0991 48.6901L57.0587 48.4329C57.2426 48.3837 57.3517 48.1947 57.3024 48.0109L57.0453 47.0512C56.996 46.8674 56.807 46.7583 56.6232 46.8075L55.6635 47.0647C55.4797 47.1139 55.3706 47.3029 55.4198 47.4867L55.677 48.4464C55.7263 48.6302 55.9152 48.7393 56.0991 48.6901Z" fill="#4A4A4A"/>
<path d="M54.1733 49.2057L55.1329 48.9486C55.3168 48.8993 55.4259 48.7103 55.3766 48.5265L55.1195 47.5668C55.0702 47.383 54.8813 47.2739 54.6974 47.3231L53.7377 47.5803C53.5539 47.6296 53.4448 47.8185 53.4941 48.0024L53.7512 48.962C53.8005 49.1459 53.9894 49.255 54.1733 49.2057Z" fill="#4A4A4A"/>
<path d="M52.2465 49.7213L53.2062 49.4642C53.39 49.4149 53.4991 49.226 53.4499 49.0421L53.1927 48.0825C53.1435 47.8986 52.9545 47.7895 52.7707 47.8388L51.811 48.0959C51.6271 48.1452 51.518 48.3341 51.5673 48.518L51.8245 49.4777C51.8737 49.6615 52.0627 49.7706 52.2465 49.7213Z" fill="#4A4A4A"/>
<path d="M50.3217 50.237L51.2814 49.9798C51.4652 49.9306 51.5743 49.7416 51.5251 49.5578L51.2679 48.5981C51.2187 48.4142 51.0297 48.3051 50.8459 48.3544L49.8862 48.6115C49.7023 48.6608 49.5932 48.8498 49.6425 49.0336L49.8996 49.9933C49.9489 50.1771 50.1379 50.2862 50.3217 50.237Z" fill="#4A4A4A"/>
<path fill-rule="evenodd" clip-rule="evenodd" d="M50.8963 52.3815L53.1199 51.7857C53.2082 51.762 53.3023 51.7744 53.3814 51.8201C53.4606 51.8658 53.5184 51.9411 53.542 52.0294L53.7991 52.9891C53.8228 53.0773 53.8104 53.1714 53.7647 53.2506C53.719 53.3297 53.6438 53.3875 53.5555 53.4111L51.3319 54.0069C51.2436 54.0306 51.1495 54.0182 51.0704 53.9725C50.9912 53.9268 50.9335 53.8515 50.9098 53.7632L50.6528 52.8039C50.6291 52.7156 50.6415 52.6216 50.6872 52.5424C50.7329 52.4633 50.8082 52.4055 50.8964 52.3818L50.8963 52.3815Z" fill="#4A4A4A"/>
<path d="M55.107 51.2513L54.1473 51.5085C53.9635 51.5577 53.8544 51.7467 53.9036 51.9305L54.1608 52.8902C54.21 53.074 54.399 53.1831 54.5829 53.1339L55.5425 52.8767C55.7264 52.8275 55.8355 52.6385 55.7862 52.4547L55.5291 51.495C55.4798 51.3112 55.2908 51.2021 55.107 51.2513Z" fill="#4A4A4A"/>
<path d="M57.0328 50.7357L56.0731 50.9928C55.8893 51.0421 55.7802 51.2311 55.8294 51.4149L56.0866 52.3746C56.1358 52.5584 56.3248 52.6675 56.5086 52.6183L57.4683 52.3611C57.6522 52.3119 57.7612 52.1229 57.712 51.939L57.4548 50.9794C57.4056 50.7955 57.2166 50.6864 57.0328 50.7357Z" fill="#4A4A4A"/>
<path d="M58.9605 50.2201L58.0008 50.4772C57.817 50.5265 57.7079 50.7154 57.7572 50.8993L58.0143 51.859C58.0636 52.0428 58.2525 52.1519 58.4364 52.1026L59.396 51.8455C59.5799 51.7962 59.689 51.6073 59.6397 51.4234L59.3826 50.4637C59.3333 50.2799 59.1444 50.1708 58.9605 50.2201Z" fill="#4A4A4A"/>
<path d="M60.8863 49.7025L59.9266 49.9596C59.7428 50.0089 59.6337 50.1979 59.6829 50.3817L59.9401 51.3414C59.9893 51.5252 60.1783 51.6343 60.3622 51.5851L61.3218 51.3279C61.5057 51.2787 61.6148 51.0897 61.5655 50.9058L61.3084 49.9462C61.2591 49.7623 61.0701 49.6532 60.8863 49.7025Z" fill="#4A4A4A"/>
<path d="M62.8131 49.1888L61.8534 49.446C61.6695 49.4952 61.5604 49.6842 61.6097 49.868L61.8668 50.8277C61.9161 51.0115 62.1051 51.1206 62.2889 51.0714L63.2486 50.8142C63.4324 50.765 63.5415 50.576 63.4923 50.3922L63.2351 49.4325C63.1859 49.2487 62.9969 49.1396 62.8131 49.1888Z" fill="#4A4A4A"/>
<path d="M64.7398 48.6712L63.7801 48.9284C63.5963 48.9776 63.4872 49.1666 63.5365 49.3505L63.7936 50.3101C63.8429 50.494 64.0318 50.6031 64.2157 50.5538L65.1753 50.2967C65.3592 50.2474 65.4683 50.0584 65.419 49.8746L65.1619 48.9149C65.1126 48.7311 64.9237 48.622 64.7398 48.6712Z" fill="#4A4A4A"/>
<path d="M66.6656 48.1576L65.7059 48.4147C65.5221 48.464 65.413 48.6529 65.4622 48.8368L65.7194 49.7965C65.7686 49.9803 65.9576 50.0894 66.1414 50.0401L67.1011 49.783C67.285 49.7337 67.3941 49.5448 67.3448 49.3609L67.0877 48.4012C67.0384 48.2174 66.8494 48.1083 66.6656 48.1576Z" fill="#4A4A4A"/>
<path d="M68.5914 47.64L67.6317 47.8971C67.4479 47.9464 67.3388 48.1354 67.388 48.3192L67.6452 49.2789C67.6944 49.4627 67.8834 49.5718 68.0672 49.5226L69.0269 49.2654C69.2107 49.2162 69.3198 49.0272 69.2706 48.8433L69.0134 47.8837C68.9642 47.6998 68.7752 47.5907 68.5914 47.64Z" fill="#4A4A4A"/>
<path d="M70.5172 47.1224L69.5575 47.3796C69.3736 47.4288 69.2645 47.6178 69.3138 47.8016L69.5709 48.7613C69.6202 48.9451 69.8092 49.0542 69.993 49.005L70.9527 48.7478C71.1365 48.6986 71.2456 48.5096 71.1964 48.3258L70.9392 47.3661C70.89 47.1823 70.701 47.0732 70.5172 47.1224Z" fill="#4A4A4A"/>
<path d="M72.4429 46.6068L71.4833 46.8639C71.2994 46.9132 71.1903 47.1022 71.2396 47.286L71.4967 48.2457C71.546 48.4295 71.735 48.5386 71.9188 48.4894L72.8785 48.2322C73.0623 48.1829 73.1714 47.994 73.1221 47.8101L72.865 46.8505C72.8157 46.6666 72.6268 46.5575 72.4429 46.6068Z" fill="#4A4A4A"/>
<path d="M74.3697 46.0912L73.41 46.3483C73.2262 46.3976 73.1171 46.5865 73.1663 46.7704L73.4235 47.73C73.4727 47.9139 73.6617 48.023 73.8456 47.9737L74.8052 47.7166C74.9891 47.6673 75.0982 47.4784 75.0489 47.2945L74.7918 46.3348C74.7425 46.151 74.5535 46.0419 74.3697 46.0912Z" fill="#4A4A4A"/>
<path fill-rule="evenodd" clip-rule="evenodd" d="M75.3977 45.817L77.5007 45.2534C77.589 45.2298 77.6831 45.2422 77.7622 45.2879C77.8414 45.3336 77.8992 45.4088 77.9228 45.4971L78.18 46.4568C78.2036 46.5451 78.1912 46.6391 78.1455 46.7183C78.0998 46.7975 78.0246 46.8552 77.9363 46.8789L75.8329 47.4425C75.7446 47.4661 75.6505 47.4537 75.5714 47.408C75.4922 47.3623 75.4344 47.2871 75.4108 47.1988L75.1537 46.2395C75.1301 46.1512 75.1425 46.0571 75.1882 45.978C75.2339 45.8988 75.3091 45.841 75.3974 45.8174L75.3977 45.817Z" fill="#4A4A4A"/>
<path d="M52.9195 56.099L51.9598 56.3561C51.776 56.4054 51.6669 56.5943 51.7161 56.7782L51.9733 57.7379C52.0225 57.9217 52.2115 58.0308 52.3954 57.9815L53.355 57.7244C53.5389 57.6751 53.648 57.4862 53.5987 57.3023L53.3416 56.3427C53.2923 56.1588 53.1033 56.0497 52.9195 56.099Z" fill="#4A4A4A"/>
<path d="M54.8463 55.5834L53.8866 55.8405C53.7027 55.8898 53.5936 56.0787 53.6429 56.2626L53.9 57.2222C53.9493 57.4061 54.1383 57.5152 54.3221 57.4659L55.2818 57.2088C55.4656 57.1595 55.5747 56.9705 55.5255 56.7867L55.2683 55.827C55.2191 55.6432 55.0301 55.5341 54.8463 55.5834Z" fill="#4A4A4A"/>
<path d="M56.773 55.0677L55.8133 55.3249C55.6295 55.3741 55.5204 55.5631 55.5697 55.7469L55.8268 56.7066C55.8761 56.8904 56.065 56.9995 56.2489 56.9503L57.2085 56.6931C57.3924 56.6439 57.5015 56.4549 57.4522 56.2711L57.1951 55.3114C57.1458 55.1276 56.9569 55.0185 56.773 55.0677Z" fill="#4A4A4A"/>
<path d="M58.6988 54.5501L57.7391 54.8073C57.5553 54.8566 57.4462 55.0455 57.4954 55.2294L57.7526 56.189C57.8018 56.3729 57.9908 56.482 58.1747 56.4327L59.1343 56.1756C59.3182 56.1263 59.4273 55.9373 59.378 55.7535L59.1209 54.7938C59.0716 54.61 58.8826 54.5009 58.6988 54.5501Z" fill="#4A4A4A"/>
<path fill-rule="evenodd" clip-rule="evenodd" d="M59.6659 54.2936L68.9331 51.8105C69.0213 51.7868 69.1154 51.7992 69.1946 51.8449C69.2737 51.8906 69.3315 51.9659 69.3551 52.0542L69.6124 53.0142C69.636 53.1025 69.6236 53.1965 69.5779 53.2757C69.5322 53.3548 69.457 53.4126 69.3687 53.4362L60.1015 55.9194C60.0132 55.943 59.9192 55.9306 59.84 55.8849C59.7608 55.8392 59.7031 55.764 59.6794 55.6757L59.4222 54.7157C59.3985 54.6274 59.4109 54.5333 59.4566 54.4542C59.5023 54.375 59.5776 54.3173 59.6659 54.2936ZM69.8994 51.5516L71.1001 51.2298C71.1883 51.2062 71.2824 51.2186 71.3616 51.2643C71.4407 51.31 71.4985 51.3852 71.5221 51.4735L71.7794 52.4335C71.803 52.5218 71.7906 52.6159 71.7449 52.695C71.6992 52.7742 71.624 52.8319 71.5357 52.8556L70.335 53.1773C70.2467 53.201 70.1527 53.1886 70.0735 53.1429C69.9944 53.0972 69.9366 53.0219 69.9129 52.9336L69.6557 51.9736C69.6321 51.8853 69.6444 51.7913 69.6901 51.7121C69.7358 51.633 69.8111 51.5752 69.8994 51.5516Z" fill="#4A4A4A"/>
<path d="M73.0259 50.7123L72.0663 50.9694C71.8824 51.0187 71.7733 51.2076 71.8226 51.3915L72.0797 52.3511C72.129 52.535 72.318 52.6441 72.5018 52.5948L73.4615 52.3377C73.6453 52.2884 73.7544 52.0995 73.7052 51.9156L73.448 50.9559C73.3988 50.7721 73.2098 50.663 73.0259 50.7123Z" fill="#4A4A4A"/>
<path d="M74.9517 50.1966L73.9921 50.4538C73.8082 50.503 73.6991 50.692 73.7484 50.8758L74.0055 51.8355C74.0548 52.0194 74.2437 52.1285 74.4276 52.0792L75.3873 51.8221C75.5711 51.7728 75.6802 51.5838 75.6309 51.4L75.3738 50.4403C75.3245 50.2565 75.1356 50.1474 74.9517 50.1966Z" fill="#4A4A4A"/>
<path d="M78.5631 49.2279L77.6034 49.485C77.4195 49.5343 77.3104 49.7233 77.3597 49.9071L77.6168 50.8668C77.6661 51.0506 77.8551 51.1597 78.0389 51.1104L78.9986 50.8533C79.1824 50.804 79.2915 50.6151 79.2423 50.4312L78.9851 49.4716C78.9359 49.2877 78.7469 49.1786 78.5631 49.2279Z" fill="#4A4A4A"/>
<path d="M75.6509 50.7519L75.5546 50.3924C75.531 50.3041 75.5433 50.2101 75.589 50.1309C75.6347 50.0518 75.71 49.994 75.7983 49.9704L76.758 49.7132C76.8463 49.6896 76.9403 49.702 77.0195 49.7477C77.0986 49.7933 77.1564 49.8686 77.18 49.9569L77.2764 50.3164L75.6509 50.7519Z" fill="#4A4A4A"/>
<path d="M77.3412 50.5547L77.4376 50.9142C77.4612 51.0025 77.4488 51.0966 77.4031 51.1757C77.3574 51.2549 77.2822 51.3126 77.1939 51.3363L76.2342 51.5934C76.1459 51.6171 76.0519 51.6047 75.9727 51.559C75.8936 51.5133 75.8358 51.438 75.8121 51.3497L75.7158 50.9902L77.3412 50.5547Z" fill="#4A4A4A"/>
<path d="M76.1535 40.5844L49.7869 47.6493C49.5875 47.7028 49.4691 47.9078 49.5226 48.1073C49.576 48.3067 49.781 48.4251 49.9805 48.3717L76.347 41.3068C76.5465 41.2533 76.6649 41.0483 76.6114 40.8488C76.558 40.6494 76.3529 40.531 76.1535 40.5844Z" fill="#4A4A4A"/>
<path opacity="0.136" d="M51.3983 47.343L50.3608 47.6211C50.2279 47.6567 50.149 47.7933 50.1846 47.9262L50.1847 47.9265C50.2203 48.0595 50.3569 48.1383 50.4898 48.1027L51.5274 47.8247C51.6603 47.7891 51.7392 47.6525 51.7036 47.5196L51.7035 47.5192C51.6679 47.3863 51.5313 47.3074 51.3983 47.343Z" fill="#D8D8D8"/>
<path opacity="0.136" d="M53.4784 46.7884L52.4409 47.0664C52.3079 47.102 52.2291 47.2386 52.2647 47.3715L52.2648 47.3719C52.3004 47.5048 52.437 47.5837 52.5699 47.548L53.6075 47.27C53.7404 47.2344 53.8193 47.0978 53.7837 46.9649L53.7836 46.9645C53.748 46.8316 53.6113 46.7527 53.4784 46.7884Z" fill="#D8D8D8"/>
<path opacity="0.136" d="M55.0771 46.3587L54.0395 46.6367C53.9066 46.6723 53.8277 46.8089 53.8633 46.9418L53.8634 46.9422C53.899 47.0751 54.0356 47.154 54.1686 47.1184L55.2061 46.8403C55.339 46.8047 55.4179 46.6681 55.3823 46.5352L55.3822 46.5349C55.3466 46.4019 55.21 46.3231 55.0771 46.3587Z" fill="#D8D8D8"/>
<path opacity="0.136" d="M56.6747 45.9309L55.6372 46.209C55.5042 46.2446 55.4254 46.3812 55.461 46.5141L55.4611 46.5144C55.4967 46.6474 55.6333 46.7262 55.7662 46.6906L56.8038 46.4126C56.9367 46.377 57.0156 46.2404 56.98 46.1074L56.9799 46.1071C56.9443 45.9742 56.8076 45.8953 56.6747 45.9309Z" fill="#D8D8D8"/>
<path opacity="0.136" d="M58.2743 45.5032L57.2368 45.7812C57.1038 45.8168 57.025 45.9535 57.0606 46.0864L57.0607 46.0867C57.0963 46.2196 57.2329 46.2985 57.3658 46.2629L58.4034 45.9849C58.5363 45.9493 58.6152 45.8126 58.5796 45.6797L58.5795 45.6794C58.5439 45.5465 58.4072 45.4676 58.2743 45.5032Z" fill="#D8D8D8"/>
<path opacity="0.136" d="M60.2733 44.9661L59.2358 45.2441C59.1029 45.2797 59.024 45.4163 59.0596 45.5493L59.0597 45.5496C59.0953 45.6825 59.2319 45.7614 59.3648 45.7258L60.4024 45.4478C60.5353 45.4121 60.6142 45.2755 60.5786 45.1426L60.5785 45.1423C60.5429 45.0094 60.4063 44.9305 60.2733 44.9661Z" fill="#D8D8D8"/>
<path opacity="0.136" d="M61.872 44.5403L60.8344 44.8183C60.7015 44.8539 60.6226 44.9906 60.6582 45.1235L60.6583 45.1238C60.6939 45.2567 60.8306 45.3356 60.9635 45.3L62.001 45.022C62.134 44.9864 62.2128 44.8497 62.1772 44.7168L62.1771 44.7165C62.1415 44.5836 62.0049 44.5047 61.872 44.5403Z" fill="#D8D8D8"/>
<path opacity="0.136" d="M63.4706 44.1106L62.433 44.3886C62.3001 44.4243 62.2213 44.5609 62.2569 44.6938L62.257 44.6941C62.2926 44.827 62.4292 44.9059 62.5621 44.8703L63.5997 44.5923C63.7326 44.5567 63.8115 44.4201 63.7759 44.2871L63.7758 44.2868C63.7402 44.1539 63.6035 44.075 63.4706 44.1106Z" fill="#D8D8D8"/>
<path opacity="0.136" d="M65.0692 43.6809L64.0317 43.959C63.8988 43.9946 63.8199 44.1312 63.8555 44.2641L63.8556 44.2644C63.8912 44.3974 64.0278 44.4762 64.1607 44.4406L65.1983 44.1626C65.3312 44.127 65.4101 43.9904 65.3745 43.8574L65.3744 43.8571C65.3388 43.7242 65.2022 43.6453 65.0692 43.6809Z" fill="#D8D8D8"/>
<path opacity="0.136" d="M67.0683 43.1458L66.0307 43.4238C65.8978 43.4594 65.8189 43.596 65.8545 43.7289L65.8546 43.7293C65.8902 43.8622 66.0269 43.9411 66.1598 43.9055L67.1973 43.6274C67.3303 43.5918 67.4091 43.4552 67.3735 43.3223L67.3734 43.322C67.3378 43.189 67.2012 43.1102 67.0683 43.1458Z" fill="#D8D8D8"/>
<path opacity="0.136" d="M68.6679 42.718L67.6303 42.9961C67.4974 43.0317 67.4185 43.1683 67.4541 43.3012L67.4542 43.3015C67.4898 43.4345 67.6265 43.5133 67.7594 43.4777L68.7969 43.1997C68.9299 43.1641 69.0087 43.0275 68.9731 42.8946L68.973 42.8942C68.9374 42.7613 68.8008 42.6824 68.6679 42.718Z" fill="#D8D8D8"/>
<path opacity="0.136" d="M70.2655 42.2903L69.228 42.5683C69.0951 42.6039 69.0162 42.7406 69.0518 42.8735L69.0519 42.8738C69.0875 43.0067 69.2241 43.0856 69.357 43.05L70.3946 42.772C70.5275 42.7364 70.6064 42.5997 70.5708 42.4668L70.5707 42.4665C70.5351 42.3336 70.3985 42.2547 70.2655 42.2903Z" fill="#D8D8D8"/>
<path opacity="0.136" d="M72.2655 41.7532L71.228 42.0312C71.0951 42.0668 71.0162 42.2035 71.0518 42.3364L71.0519 42.3367C71.0875 42.4696 71.2241 42.5485 71.357 42.5129L72.3946 42.2349C72.5275 42.1993 72.6064 42.0626 72.5708 41.9297L72.5707 41.9294C72.5351 41.7965 72.3985 41.7176 72.2655 41.7532Z" fill="#D8D8D8"/>
<path opacity="0.136" d="M73.8642 41.3255L72.8266 41.6035C72.6937 41.6391 72.6148 41.7757 72.6504 41.9086L72.6505 41.909C72.6861 42.0419 72.8228 42.1208 72.9557 42.0851L73.9932 41.8071C74.1261 41.7715 74.205 41.6349 74.1694 41.502L74.1693 41.5016C74.1337 41.3687 73.9971 41.2899 73.8642 41.3255Z" fill="#D8D8D8"/>
<path opacity="0.136" d="M75.4638 40.8977L74.4262 41.1757C74.2933 41.2114 74.2144 41.348 74.25 41.4809L74.2501 41.4812C74.2857 41.6142 74.4224 41.693 74.5553 41.6574L75.5928 41.3794C75.7258 41.3438 75.8046 41.2072 75.769 41.0742L75.7689 41.0739C75.7333 40.941 75.5967 40.8621 75.4638 40.8977Z" fill="#D8D8D8"/>
<path fill-rule="evenodd" clip-rule="evenodd" d="M62.5112 67.3337C62.4357 67.3337 62.3637 67.3465 62.291 67.3558C62.2779 67.3041 62.2655 67.252 62.251 67.2004C62.6182 67.0468 62.921 66.7709 63.1078 66.4194C63.2946 66.0679 63.354 65.6626 63.2758 65.2723C63.1977 64.882 62.9868 64.5308 62.6791 64.2784C62.3713 64.026 61.9857 63.8879 61.5876 63.8876C61.2113 63.8889 60.846 64.0144 60.5482 64.2446C60.5101 64.2056 60.4716 64.167 60.4328 64.1288C60.6579 63.8328 60.7803 63.4713 60.7812 63.0994C60.781 62.7024 60.6437 62.3177 60.3925 62.0102C60.1413 61.7028 59.7917 61.4915 59.4027 61.4122C59.0137 61.3328 58.6092 61.3901 58.2577 61.5746C57.9061 61.759 57.629 62.0592 57.4732 62.4243C57.4222 62.4098 57.3709 62.3978 57.3199 62.3847C57.3292 62.312 57.3419 62.24 57.3419 62.1645C57.3419 61.7075 57.1604 61.2692 56.8373 60.9461C56.5141 60.6229 56.0759 60.4414 55.6189 60.4414C55.1619 60.4414 54.7236 60.6229 54.4005 60.9461C54.0773 61.2692 53.8958 61.7075 53.8958 62.1645C53.8958 62.24 53.9085 62.312 53.9178 62.3847C53.8668 62.3978 53.8155 62.4098 53.7645 62.4243C53.6093 62.0585 53.3323 61.7576 52.9806 61.5726C52.6288 61.3876 52.2239 61.33 51.8345 61.4094C51.4451 61.4889 51.0952 61.7006 50.844 62.0086C50.5929 62.3166 50.456 62.702 50.4565 63.0994C50.4565 63.4871 50.5889 63.8407 50.8049 64.1288C49.524 65.3804 48.7266 67.1245 48.7266 69.0568C48.7266 72.8634 51.8122 75.9491 55.6189 75.9491C58.8372 75.9491 61.5325 73.7401 62.291 70.7578C62.3637 70.7671 62.4357 70.7799 62.5112 70.7799C62.9682 70.7799 63.4064 70.5983 63.7296 70.2752C64.0527 69.9521 64.2343 69.5138 64.2343 69.0568C64.2343 68.5998 64.0527 68.1615 63.7296 67.8384C63.4064 67.5153 62.9682 67.3337 62.5112 67.3337Z" fill="#44D860"/>
<path fill-rule="evenodd" clip-rule="evenodd" d="M41.833 55.2712H55.6176V48.3789H41.833V55.2712Z" fill="#3ECC5F"/>
<path fill-rule="evenodd" clip-rule="evenodd" d="M59.0661 52.686C59.2946 52.686 59.5138 52.5953 59.6753 52.4337C59.8369 52.2721 59.9277 52.053 59.9277 51.8245C59.9277 51.596 59.8369 51.3769 59.6753 51.2153C59.5138 51.0537 59.2946 50.963 59.0661 50.963C59.0286 50.963 58.9924 50.9695 58.9562 50.974C58.9493 50.9481 58.9435 50.9223 58.9362 50.8964C59.1196 50.8195 59.2707 50.6814 59.3639 50.5057C59.4572 50.33 59.4867 50.1275 59.4477 49.9325C59.4086 49.7374 59.3033 49.5619 59.1496 49.4357C58.9959 49.3095 58.8032 49.2403 58.6044 49.2399C58.4083 49.2399 58.2294 49.3078 58.0847 49.4184C58.0657 49.3987 58.0464 49.3794 58.0268 49.3605C58.135 49.2168 58.2012 49.0397 58.2012 48.8456C58.2011 48.6471 58.1324 48.4546 58.0068 48.3009C57.8812 48.1471 57.7063 48.0414 57.5118 48.0018C57.3172 47.9621 57.1149 47.9908 56.9391 48.0831C56.7633 48.1754 56.6248 48.3256 56.547 48.5083C56.2454 48.4229 55.9335 48.3792 55.62 48.3783C53.717 48.3783 52.1738 49.9215 52.1738 51.8245C52.1738 53.7275 53.717 55.2706 55.62 55.2706C55.9419 55.2706 56.2517 55.2231 56.547 55.1407C56.6248 55.3234 56.7633 55.4736 56.9391 55.5659C57.1149 55.6582 57.3172 55.6869 57.5118 55.6472C57.7063 55.6076 57.8812 55.5019 58.0068 55.3481C58.1324 55.1944 58.2011 55.0019 58.2012 54.8034C58.2012 54.6093 58.135 54.4322 58.0268 54.2885C58.0464 54.2695 58.0657 54.2502 58.0847 54.2306C58.2294 54.3412 58.4083 54.4091 58.6044 54.4091C58.8035 54.4091 58.9964 54.3401 59.1504 54.2139C59.3044 54.0877 59.4099 53.912 59.449 53.7168C59.4881 53.5216 59.4584 53.3188 59.3649 53.143C59.2714 52.9672 59.12 52.8293 58.9362 52.7525C58.9435 52.727 58.9493 52.7009 58.9562 52.675C58.9924 52.6795 59.0286 52.686 59.0661 52.686Z" fill="#44D860"/>
<path fill-rule="evenodd" clip-rule="evenodd" d="M62.511 27.2719C62.4558 27.2719 62.3972 27.265 62.3421 27.2547C62.2867 27.2439 62.2324 27.2277 62.1801 27.2064C62.1284 27.1857 62.0802 27.1582 62.0316 27.1272C61.9868 27.0961 61.9423 27.0582 61.9006 27.0203C61.8631 26.979 61.8252 26.9376 61.7942 26.8894C61.7631 26.8411 61.7356 26.7929 61.7145 26.7412C61.6722 26.636 61.6502 26.5237 61.6494 26.4104C61.6494 26.3552 61.6563 26.2966 61.6666 26.2415C61.677 26.1864 61.6942 26.1347 61.7145 26.0795C61.7356 26.0278 61.7631 25.9796 61.7942 25.9313C61.8252 25.8865 61.8631 25.8417 61.9006 25.8004C61.9423 25.7625 61.9868 25.7246 62.0316 25.6936C62.0802 25.6625 62.1284 25.635 62.1801 25.6143C62.2315 25.5936 62.287 25.5764 62.3421 25.566C62.4524 25.5419 62.5661 25.5419 62.6798 25.566C62.7346 25.5764 62.7901 25.5936 62.8418 25.6143C62.8931 25.635 62.9417 25.6625 62.99 25.6936C63.0348 25.7246 63.0792 25.7625 63.1209 25.8004C63.1588 25.8417 63.1967 25.8865 63.2278 25.9313C63.2588 25.9796 63.2863 26.0278 63.307 26.0795C63.3277 26.1347 63.3449 26.1864 63.3553 26.2415C63.3653 26.2966 63.3725 26.3552 63.3725 26.4104C63.3725 26.6378 63.2791 26.8618 63.1209 27.0203C63.0792 27.0582 63.0348 27.0961 62.99 27.1272C62.9417 27.1582 62.8931 27.1857 62.8418 27.2064C62.7367 27.2493 62.6244 27.2715 62.511 27.2719ZM69.4033 26.8411C69.1758 26.8411 68.9553 26.7481 68.7929 26.5896C68.7547 26.5482 68.7191 26.5045 68.6865 26.4586C68.6554 26.4104 68.6279 26.3621 68.6069 26.3104C68.5646 26.2052 68.5425 26.093 68.5417 25.9796C68.5417 25.7521 68.6348 25.5316 68.7929 25.3696C68.8346 25.3317 68.8791 25.2938 68.9239 25.2628C68.9725 25.2318 69.0207 25.2042 69.0724 25.1835C69.1238 25.1628 69.1793 25.1456 69.2344 25.1353C69.3447 25.1112 69.4618 25.1112 69.5721 25.1353C69.6269 25.1456 69.6824 25.1628 69.7341 25.1835C69.7854 25.2042 69.834 25.2318 69.8823 25.2628C69.9271 25.2938 69.9715 25.3317 70.0132 25.3696C70.1714 25.5316 70.2648 25.7521 70.2648 25.9796C70.2648 26.0347 70.2576 26.0933 70.2476 26.1484C70.2372 26.2036 70.22 26.2587 70.1993 26.3104C70.1752 26.3621 70.1511 26.4104 70.1201 26.4586C70.089 26.5034 70.0511 26.5482 70.0132 26.5896C69.9715 26.6275 69.9271 26.6654 69.8823 26.6964C69.834 26.7274 69.7854 26.755 69.7341 26.7756C69.629 26.8185 69.5167 26.8407 69.4033 26.8411Z" fill="black"/>
<defs>
<radialGradient id="paint0_radial_1024_11493" cx="0" cy="0" r="1" gradientUnits="userSpaceOnUse" gradientTransform="translate(47.8642 47.7197) rotate(90) scale(47.04)">
<stop stop-color="#333944"/>
<stop offset="1" stop-color="#222428"/>
</radialGradient>
</defs>
</svg>
