<svg width="95" height="95" viewBox="0 0 95 95" fill="none" xmlns="http://www.w3.org/2000/svg">
<rect x="0.920047" y="1.04895" width="92.736" height="92.736" rx="13.44" fill="url(#paint0_radial_1024_11663)"/>
<rect x="0.920047" y="1.04895" width="92.736" height="92.736" rx="13.44" stroke="#6886C3" stroke-width="1.344"/>
<path d="M80.1142 23.7633L49.1238 80.1399C48.4839 81.3039 46.84 81.3108 46.1906 80.1525L14.5858 23.7686C13.8781 22.5065 14.9391 20.9775 16.3451 21.2334L47.3688 26.8745C47.5667 26.9105 47.7694 26.9101 47.9672 26.8735L78.342 21.2413C79.7434 20.9815 80.8092 22.4986 80.1142 23.7633V23.7633Z" fill="url(#paint1_linear_1024_11663)"/>
<path d="M62.1466 13.833L39.213 18.4047C39.0298 18.4412 38.8637 18.5386 38.7408 18.6817C38.6179 18.8247 38.5453 19.0052 38.5342 19.1949L37.1236 43.4341C37.1158 43.5671 37.1386 43.7 37.1902 43.8224C37.2417 43.9448 37.3207 44.0533 37.4206 44.1393C37.5206 44.2253 37.6389 44.2863 37.7661 44.3176C37.8934 44.349 38.026 44.3497 38.1536 44.3198L44.5387 42.8207C45.1361 42.6804 45.676 43.2158 45.5531 43.8269L43.6561 53.2773C43.5285 53.9134 44.1153 54.4571 44.7258 54.2684L48.6697 53.0495C49.281 52.8608 49.8686 53.4061 49.7392 54.0426L46.7246 68.887C46.5359 69.8156 47.75 70.3219 48.2561 69.5259L48.5945 68.9942L67.2822 31.0529C67.5953 30.4176 67.0554 29.6932 66.3699 29.828L59.7971 31.1184C59.1797 31.2395 58.6542 30.6544 58.8284 30.0398L63.1182 14.9113C63.2926 14.2952 62.7651 13.7097 62.1469 13.833H62.1466Z" fill="url(#paint2_linear_1024_11663)"/>
<defs>
<radialGradient id="paint0_radial_1024_11663" cx="0" cy="0" r="1" gradientUnits="userSpaceOnUse" gradientTransform="translate(47.288 47.417) rotate(90) scale(47.04)">
<stop stop-color="#333944"/>
<stop offset="1" stop-color="#222428"/>
</radialGradient>
<linearGradient id="paint1_linear_1024_11663" x1="13.8141" y1="25.7819" x2="47.9856" y2="71.3991" gradientUnits="userSpaceOnUse">
<stop stop-color="#41D1FF"/>
<stop offset="1" stop-color="#BD34FE"/>
</linearGradient>
<linearGradient id="paint2_linear_1024_11663" x1="50.2439" y1="15.0743" x2="57.3549" y2="63.023" gradientUnits="userSpaceOnUse">
<stop stop-color="#FFEA83"/>
<stop offset="0.083" stop-color="#FFDD35"/>
<stop offset="1" stop-color="#FFA800"/>
</linearGradient>
</defs>
</svg>
