<svg width="95" height="95" viewBox="0 0 95 95" fill="none" xmlns="http://www.w3.org/2000/svg">
<rect x="1.32825" y="0.777469" width="92.736" height="92.736" rx="13.44" fill="url(#paint0_radial_1024_11546)"/>
<rect x="1.32825" y="0.777469" width="92.736" height="92.736" rx="13.44" stroke="#6886C3" stroke-width="1.344"/>
<path d="M38.7936 65.5155C38.7936 65.5155 36.2257 67.0088 40.6212 67.5141C45.9463 68.1216 48.6678 68.0346 54.5361 66.9238C54.5361 66.9238 56.0791 67.8912 58.2335 68.7292C45.0786 74.3672 28.4609 68.4025 38.7936 65.5155V65.5155ZM37.1861 58.1582C37.1861 58.1582 34.3059 60.2903 38.7047 60.7452C44.3931 61.332 48.8853 61.38 56.6587 59.8832C56.6587 59.8832 57.7339 60.9732 59.4245 61.5693C43.5191 66.2203 25.8035 61.9361 37.1861 58.1582" fill="#5382A1"/>
<path d="M50.7387 45.6798C53.9802 49.4116 49.8871 52.7698 49.8871 52.7698C49.8871 52.7698 58.1175 48.521 54.3376 43.2004C50.8074 38.2389 48.1 35.7733 62.7562 27.2734C62.7562 27.2734 39.7509 33.019 50.7387 45.6796" fill="#E76F00"/>
<path d="M68.1366 70.9582C68.1366 70.9582 70.0369 72.5239 66.0436 73.7353C58.4504 76.0357 34.4396 76.7303 27.7694 73.827C25.3718 72.7841 29.8682 71.3365 31.2825 71.0326C32.7576 70.7127 33.6006 70.7724 33.6006 70.7724C30.9341 68.8939 16.3652 74.4609 26.2004 76.055C53.0222 80.4047 75.0938 74.0964 68.1366 70.9582ZM40.0286 50.5359C40.0286 50.5359 27.8153 53.437 35.7037 54.4902C39.0343 54.9361 45.6739 54.8353 51.8587 54.317C56.9131 53.8909 61.9884 52.9842 61.9884 52.9842C61.9884 52.9842 60.2062 53.7475 58.9168 54.6279C46.5143 57.8898 22.5548 56.3724 29.4524 53.0358C35.2858 50.2161 40.0288 50.5359 40.0288 50.5359H40.0286ZM61.9381 62.7825C74.546 56.231 68.7166 49.9351 64.6478 50.7834C63.6504 50.9908 63.2059 51.1706 63.2059 51.1706C63.2059 51.1706 63.5761 50.5908 64.2832 50.3398C72.3325 47.5098 78.523 58.6862 61.6847 63.1127C61.6847 63.1128 61.8799 62.9385 61.9381 62.7825" fill="#5382A1"/>
<path d="M54.3376 13.5451C54.3376 13.5451 61.3201 20.5301 47.7151 31.2704C36.8055 39.8863 45.2274 44.7987 47.7106 50.4114C41.3424 44.6658 36.6689 39.6079 39.8044 34.9005C44.4061 27.99 57.1548 24.6398 54.3376 13.5449" fill="#E76F00"/>
<path d="M41.2681 80.533C53.3701 81.3078 71.9539 80.1032 72.394 74.377C72.394 74.377 71.548 76.5479 62.3924 78.2718C52.0632 80.2155 39.3236 79.9886 31.7676 78.7428C31.7678 78.7428 33.3144 80.0231 41.2683 80.533" fill="#5382A1"/>
<defs>
<radialGradient id="paint0_radial_1024_11546" cx="0" cy="0" r="1" gradientUnits="userSpaceOnUse" gradientTransform="translate(47.6963 47.1455) rotate(90) scale(47.04)">
<stop stop-color="#333944"/>
<stop offset="1" stop-color="#222428"/>
</radialGradient>
</defs>
</svg>
