<svg width="95" height="95" viewBox="0 0 95 95" fill="none" xmlns="http://www.w3.org/2000/svg">
<rect x="0.920047" y="1.06458" width="92.736" height="92.736" rx="13.44" fill="url(#paint0_radial_1024_11516)"/>
<rect x="0.920047" y="1.06458" width="92.736" height="92.736" rx="13.44" stroke="#6886C3" stroke-width="1.344"/>
<path d="M79.6211 44.4379L50.281 15.0993C48.5923 13.4096 45.8518 13.4096 44.161 15.0993L38.0684 21.1919L45.7972 28.9207C47.5932 28.3138 49.6528 28.721 51.0845 30.1526C52.523 31.5935 52.9272 33.6707 52.3056 35.4725L59.7541 42.9212C61.5561 42.3004 63.6354 42.702 65.0747 44.1436C67.0862 46.1544 67.0862 49.4133 65.0747 51.4254C63.0626 53.4377 59.8037 53.4377 57.7906 51.4254C56.2775 49.9108 55.9037 47.6887 56.6697 45.8247L49.7234 38.8784L49.7226 57.1581C50.2262 57.4071 50.6861 57.736 51.0845 58.132C53.096 60.1427 53.096 63.4019 51.0845 65.4156C49.0724 67.4269 45.8119 67.4269 43.8027 65.4156C41.7912 63.4019 41.7912 60.143 43.8027 58.1323C44.2848 57.65 44.8577 57.268 45.4882 57.0085V38.5584C44.8568 38.3006 44.2835 37.9185 43.8027 37.4347C42.2787 35.9127 41.9122 33.6764 42.6931 31.8051L35.0743 24.1855L14.9564 44.3022C13.2659 45.9935 13.2659 48.7342 14.9564 50.4242L44.297 79.7633C45.9862 81.4533 48.7262 81.4533 50.4175 79.7633L79.6209 50.5604C81.3108 48.8699 81.3111 46.1276 79.6211 44.4379Z" fill="#DE4C36"/>
<defs>
<radialGradient id="paint0_radial_1024_11516" cx="0" cy="0" r="1" gradientUnits="userSpaceOnUse" gradientTransform="translate(47.288 47.4326) rotate(90) scale(47.04)">
<stop stop-color="#333944"/>
<stop offset="1" stop-color="#222428"/>
</radialGradient>
</defs>
</svg>
