<svg width="95" height="95" viewBox="0 0 95 95" fill="none" xmlns="http://www.w3.org/2000/svg">
<rect x="0.920047" y="0.912234" width="92.736" height="92.736" rx="13.44" fill="url(#paint0_radial_1024_11600)"/>
<rect x="0.920047" y="0.912234" width="92.736" height="92.736" rx="13.44" stroke="#6886C3" stroke-width="1.344"/>
<path d="M79.8611 53.9339C79.4704 52.7474 78.447 51.921 77.1235 51.7227C76.4994 51.6293 75.7848 51.6691 74.939 51.8439C73.4648 52.1489 72.3711 52.265 71.573 52.2875C74.5857 47.1869 77.0355 41.3703 78.4458 35.895C80.7263 27.0415 79.5076 23.0082 78.0836 21.1839C74.3149 16.3551 68.8165 13.761 62.1832 13.6816C58.6446 13.6382 55.5382 14.3388 53.9177 14.8426C52.4089 14.5757 50.7866 14.4266 49.0844 14.399C45.8934 14.348 43.0741 15.0455 40.6651 16.4791C39.3314 16.0269 37.1909 15.3893 34.719 14.9825C28.9053 14.0254 24.2196 14.7712 20.7922 17.1991C16.642 20.1388 14.7181 25.2463 15.0739 32.3798C15.1869 34.6447 16.4503 41.5357 18.4397 48.0709C19.583 51.8273 20.8021 54.9467 22.0633 57.3432C23.8518 60.7415 25.7655 62.7427 27.9139 63.4614C29.118 63.8637 31.3059 64.1454 33.607 62.2236C33.8987 62.5779 34.2879 62.9298 34.8043 63.2568C35.4602 63.6715 36.2622 64.0104 37.0631 64.2113C39.9496 64.9348 42.6534 64.7539 44.9601 63.7396C44.9744 64.1511 44.9853 64.5441 44.9945 64.8835C45.0098 65.4341 45.025 65.9739 45.0451 66.4787C45.1818 69.8921 45.4134 72.5461 46.0996 74.4031C46.1373 74.5052 46.1879 74.6609 46.2414 74.826C46.5837 75.877 47.1561 77.6366 48.6125 79.0145C50.1205 80.442 51.9447 80.8797 53.6153 80.8797C54.4532 80.8797 55.2526 80.7694 55.9538 80.6188C58.4532 80.0816 61.2919 79.2634 63.3454 76.3313C65.2868 73.5596 66.2306 69.3849 66.4014 62.807C66.4235 62.621 66.4439 62.4434 66.4635 62.2741L66.5042 61.9265L66.9616 61.9669L67.0794 61.9748C69.6251 62.0911 72.7379 61.5498 74.6496 60.6593C76.1602 59.9565 81.0009 57.3938 79.8611 53.9339" fill="black"/>
<path d="M75.5081 54.6077C67.9386 56.1735 67.4181 53.6037 67.4181 53.6037C75.4101 41.712 78.7512 26.6173 75.8682 22.923C68.0025 12.8455 54.387 17.6115 54.1597 17.735L54.0866 17.7483C52.5911 17.4369 50.9176 17.2516 49.0365 17.2208C45.6116 17.1646 43.0135 18.1212 41.042 19.6204C41.042 19.6204 16.7531 9.5865 17.883 32.2397C18.1232 37.0588 24.7713 68.7043 32.7006 59.1459C35.5988 55.6506 38.3993 52.6954 38.3993 52.6954C39.79 53.6218 41.4551 54.0945 43.2006 53.9248L43.3362 53.8094C43.294 54.2433 43.3133 54.6677 43.3904 55.1703C41.3477 57.4588 41.9481 57.8606 37.8646 58.7036C33.7324 59.5576 36.1598 61.0777 37.7447 61.4753C39.666 61.9569 44.111 62.6394 47.1143 58.4233L46.9947 58.9044C47.7949 59.5473 48.3569 63.0858 48.2627 66.2937C48.1685 69.5013 48.1057 71.7037 48.7361 73.4239C49.3671 75.1441 49.9955 79.0145 55.3638 77.8612C59.8492 76.8972 62.1738 74.3993 62.4973 70.2326C62.7266 67.2704 63.246 67.7084 63.2786 65.0599L63.6953 63.8063C64.1756 59.7908 63.7716 58.4953 66.535 59.0979L67.2069 59.1571C69.2405 59.2498 71.9028 58.8289 73.4653 58.1007C76.8295 56.5352 78.825 53.9209 75.5076 54.6077H75.5081" fill="#336791"/>
<path d="M42.4639 34.3948C41.7818 34.2996 41.164 34.3877 40.8515 34.625C40.6759 34.7585 40.6214 34.9132 40.6066 35.0196C40.5674 35.3016 40.7644 35.6135 40.8856 35.7743C41.2282 36.2296 41.7286 36.5425 42.2239 36.6114C42.2956 36.6216 42.3672 36.6262 42.4382 36.6262C43.2641 36.6262 44.0152 35.9813 44.0813 35.5053C44.1641 34.9091 43.301 34.5117 42.4639 34.3951V34.3948ZM65.0612 34.4137C64.996 33.9464 64.1668 33.8132 63.3798 33.9229C62.5939 34.0327 61.8318 34.3884 61.8954 34.8568C61.9464 35.221 62.6023 35.8427 63.3785 35.8427C63.4442 35.8427 63.5104 35.8383 63.5771 35.8289C64.0953 35.7569 64.4755 35.4269 64.6562 35.2368C64.9311 34.9469 65.0904 34.6237 65.0612 34.4137" fill="white"/>
<path d="M78.0262 54.4307C77.7376 53.5556 76.8086 53.2741 75.2652 53.5936C70.6825 54.542 69.0414 53.8851 68.5026 53.4872C72.0646 48.0458 74.9949 41.4681 76.5757 35.3313C77.3245 32.4243 77.7381 29.7245 77.7719 27.524C77.8093 25.1088 77.3991 23.334 76.553 22.2498C73.1419 17.8791 68.1355 15.5346 62.0754 15.4703C57.9092 15.4233 54.3891 16.4924 53.7068 16.7931C52.2698 16.4347 50.7032 16.2147 48.9976 16.1867C45.8701 16.1359 43.1666 16.8867 40.9283 18.4173C39.9561 18.0544 37.4434 17.1894 34.3706 16.693C29.0583 15.8355 24.8368 16.4853 21.8243 18.6253C18.2297 21.1791 16.5702 25.744 16.8917 32.193C16.9999 34.3627 18.2328 41.0373 20.1783 47.4294C22.7393 55.8426 25.5232 60.6054 28.4523 61.5852C28.7951 61.6998 29.1904 61.7799 29.6264 61.7799C30.6948 61.7799 32.0048 61.297 33.3678 59.6539C35.0302 57.6541 36.7499 55.7029 38.5246 53.8026C39.6761 54.4223 40.9411 54.7684 42.2348 54.8031C42.2373 54.837 42.2406 54.871 42.2437 54.9047C42.021 55.171 41.8029 55.4411 41.5896 55.715C40.6932 56.8561 40.5066 57.0937 37.6211 57.6894C36.8003 57.8594 34.6203 58.3099 34.5882 59.8422C34.5536 61.5165 37.1652 62.2197 37.4628 62.2942C38.4997 62.5545 39.4987 62.6829 40.4514 62.6829C42.7683 62.6829 44.8072 61.9193 46.4367 60.4418C46.3865 66.4104 46.6347 72.2918 47.3494 74.0838C47.9348 75.5508 49.3647 79.1359 53.8814 79.1357C54.5441 79.1357 55.2736 79.0583 56.0761 78.8858C60.7901 77.8726 62.8372 75.7833 63.629 71.1773C64.0528 68.7156 64.7799 62.8376 65.122 59.6845C65.8438 59.9104 66.7731 60.0138 67.7777 60.0135C69.8729 60.0135 72.2906 59.5671 73.8068 58.8614C75.51 58.0682 78.5836 56.1218 78.0262 54.4307V54.4307ZM66.8003 33.1246C66.7848 34.0554 66.657 34.9005 66.5216 35.7825C66.3758 36.7312 66.2251 37.712 66.1872 38.9026C66.1498 40.0614 66.2941 41.266 66.4336 42.4311C66.7156 44.7843 67.005 47.2069 65.8848 49.5973C65.6987 49.2667 65.533 48.925 65.3885 48.5741C65.2493 48.2357 64.9469 47.692 64.5282 46.9396C62.8995 44.0107 59.0856 37.1518 61.038 34.353C61.6196 33.52 63.0955 32.6634 66.8003 33.1246V33.1246ZM62.3096 17.3551C67.7395 17.4753 72.0348 19.5122 75.0758 23.409C77.4082 26.3979 74.8399 39.9981 67.4046 51.731C67.3298 51.6356 67.2546 51.5406 67.179 51.4459L67.0849 51.328C69.0062 48.1461 68.6306 44.9979 68.2961 42.2068C68.1587 41.0613 68.0289 39.9794 68.062 38.9631C68.0961 37.8861 68.2381 36.9622 68.3755 36.0689C68.5443 34.9681 68.7161 33.829 68.6688 32.4863C68.7041 32.3454 68.7184 32.179 68.6998 31.9815C68.5789 30.6939 67.1129 26.8402 64.1248 23.3523C62.4903 21.4445 60.1067 19.3096 56.8521 17.8696C58.252 17.5787 60.1662 17.3074 62.3096 17.3551V17.3551ZM31.9254 58.4513C30.4238 60.2618 29.3869 59.9147 29.0458 59.8009C26.8238 59.0577 24.2455 54.3483 21.9724 46.8804C20.0055 40.4187 18.8561 33.9209 18.765 32.0989C18.4779 26.3364 19.8708 22.3205 22.9055 20.1623C27.8442 16.6504 35.9639 18.7524 39.2266 19.8185C39.1798 19.865 39.1309 19.9083 39.0846 19.9556C33.7305 25.3775 33.8575 34.6412 33.8707 35.2075C33.8702 35.426 33.8886 35.7353 33.9135 36.1608C34.0056 37.7189 34.1772 40.6188 33.719 43.9027C33.2935 46.9544 34.2316 49.9413 36.2925 52.0977C36.504 52.3186 36.7263 52.5288 36.9586 52.7276C36.0413 53.7128 34.0476 55.8914 31.9254 58.4513V58.4513ZM37.6468 50.7963C35.9858 49.0583 35.2314 46.6408 35.5768 44.1631C36.0604 40.6941 35.882 37.6727 35.786 36.0495C35.7725 35.8223 35.7605 35.6233 35.7537 35.4663C36.5358 34.7708 40.1604 32.8235 42.7453 33.4174C43.9248 33.6882 44.6436 34.4936 44.9424 35.879C46.4888 43.0516 45.147 46.041 44.0689 48.4434C43.8467 48.9383 43.6367 49.4061 43.4575 49.89L43.3185 50.2642C42.9668 51.2101 42.6395 52.0896 42.4366 52.9246C40.6708 52.9195 38.953 52.1631 37.6468 50.7961V50.7963ZM37.9179 60.4693C37.4022 60.3402 36.9385 60.1158 36.6664 59.9298C36.8937 59.8226 37.2981 59.6766 37.9996 59.5316C41.3941 58.831 41.9184 58.3364 43.0632 56.8788C43.3257 56.5445 43.6232 56.1657 44.0353 55.7043L44.0358 55.7038C44.6494 55.0147 44.9302 55.1316 45.4392 55.3434C45.8518 55.5144 46.2537 56.033 46.4166 56.6037C46.4937 56.8732 46.5802 57.3847 46.2969 57.7828C43.9055 61.1406 40.4206 61.0974 37.9179 60.4693V60.4693ZM55.6831 77.0467C51.5304 77.9389 50.06 75.8142 49.0911 73.3852C48.4657 71.8171 48.1582 64.7459 48.3764 56.9368C48.3792 56.8329 48.3644 56.7326 48.3359 56.6382C48.3104 56.4517 48.2716 56.2673 48.2198 56.0864C47.8956 54.9501 47.1053 53.9997 46.1572 53.6056C45.7805 53.4491 45.0892 53.162 44.2585 53.3751C44.4356 52.6431 44.7428 51.8165 45.076 50.9214L45.2157 50.5449C45.373 50.1205 45.5705 49.6808 45.7792 49.2152C46.9075 46.7018 48.4527 43.2591 46.7757 35.4816C46.1475 32.5685 44.0498 31.1459 40.8698 31.4764C38.9634 31.6742 37.2192 32.4455 36.3493 32.8878C36.1622 32.9827 35.9911 33.0746 35.8313 33.1639C36.0741 30.2288 36.9914 24.7436 40.4229 21.273C42.5835 19.0883 45.4608 18.0092 48.9666 18.0674C55.8743 18.1807 60.3039 21.7355 62.8038 24.6979C64.9581 27.2504 66.1246 29.8218 66.5901 31.2086C63.0892 30.8516 60.7081 31.5445 59.5012 33.2749C56.8753 37.039 60.9377 44.3445 62.8901 47.8556C63.2482 48.4991 63.5572 49.0552 63.6544 49.2915C64.2902 50.8367 65.1134 51.8683 65.7143 52.6212C65.8986 52.8519 66.0772 53.0757 66.2131 53.2712C65.1528 53.5778 63.2482 54.286 63.4218 57.8262C63.2818 59.6026 62.2864 67.9193 61.7807 70.8577C61.1131 74.7397 59.6885 76.1855 55.6831 77.0469V77.0467ZM73.017 57.1555C71.9327 57.6601 70.1182 58.0386 68.3946 58.12C66.4908 58.2093 65.5216 57.9061 65.2936 57.7195C65.1867 55.5134 66.0055 55.2829 66.8721 55.0389C67.0083 55.0006 67.1411 54.9631 67.2694 54.9182C67.3491 54.9833 67.4364 55.0479 67.5321 55.1112C69.0622 56.1239 71.7915 56.2331 75.6446 55.4355L75.6869 55.4271C75.1672 55.9143 74.2779 56.5682 73.017 57.1555Z" fill="white"/>
<defs>
<radialGradient id="paint0_radial_1024_11600" cx="0" cy="0" r="1" gradientUnits="userSpaceOnUse" gradientTransform="translate(47.288 47.2802) rotate(90) scale(47.04)">
<stop stop-color="#333944"/>
<stop offset="1" stop-color="#222428"/>
</radialGradient>
</defs>
</svg>
