<svg width="95" height="95" viewBox="0 0 95 95" fill="none" xmlns="http://www.w3.org/2000/svg">
<rect x="1.32825" y="1.06458" width="92.736" height="92.736" rx="13.44" fill="url(#paint0_radial_1024_11525)"/>
<rect x="1.32825" y="1.06458" width="92.736" height="92.736" rx="13.44" stroke="#6886C3" stroke-width="1.344"/>
<g clip-path="url(#clip0_1024_11525)">
<path d="M26.2102 30.1142C26.2102 30.1142 27.3576 34.5393 27.5213 36.0146C27.6853 37.4895 24.5713 40.7674 24.5713 42.4064C24.5713 44.0455 25.2259 46.9955 28.8321 48.4708C32.4384 49.9459 32.9295 53.7152 32.9295 56.0104C32.9295 58.3048 31.6185 62.7295 31.6185 62.7295C31.6185 62.7295 30.7994 73.7104 35.2241 75.6771C39.6488 77.6436 38.6659 77.6436 39.6488 77.6436C40.632 77.6436 47.8436 80.5945 52.1047 79.447C56.3661 78.2998 57.5125 76.9887 57.5125 76.9887C57.5125 76.9887 61.7742 77.3162 63.0852 73.5462C64.3969 69.7769 65.216 61.9102 64.724 58.3044C64.2322 54.6981 63.577 49.9461 66.5266 48.307C69.4776 46.6678 72.5911 44.7017 72.0993 43.0624C71.6075 41.4232 68.986 39.1286 68.986 39.1286C68.986 39.1286 68.3302 35.0316 68.8216 34.0481C69.313 33.0648 72.2634 30.6057 70.6242 28.8033C68.9862 27.0007 66.0352 27.0007 66.0352 27.0007L62.2659 27.328C62.2659 27.328 55.8742 21.5921 47.5155 21.9198C39.1573 22.2475 33.9123 27.328 33.9123 27.328C33.9123 27.328 31.1263 26.3447 28.6677 27.328C26.2091 28.3117 25.7189 27.3278 26.2102 30.1142Z" fill="#FBA919"/>
<path d="M41.1867 54.5177C41.1867 54.5177 37.941 59.4803 35.5603 63.0021C35.192 63.547 37.941 63.5847 37.941 63.5847L41.1867 54.5175V54.5177ZM42.7319 44.2287C42.7319 44.2287 41.7535 46.6696 41.2176 47.9634C40.636 49.3702 38.4178 50.0699 38.4178 50.0699C38.4178 50.0699 39.5675 48.8639 39.5675 45.8089C39.5675 44.5273 41.2223 44.0176 41.2223 44.0176L42.7319 44.2287Z" fill="#E78724"/>
<path d="M41.7427 45.6091C41.7427 45.6091 39.7381 47.9952 36.0165 46.6588C32.2938 45.3229 31.9122 40.5502 31.9122 39.214C31.9122 37.8777 38.9751 40.5502 39.9299 41.123C40.8845 41.6958 42.6971 43.9861 41.7427 45.6091ZM27.6836 20.1126C27.6836 20.1126 31.1195 19.4439 33.4098 21.2577C35.7012 23.071 36.3686 24.503 36.3686 24.503L32.5077 27.5633C32.5077 27.5633 30.6422 26.6985 30.0696 24.2167C29.497 21.735 29.8788 20.59 27.6836 20.1126Z" fill="#E78724"/>
<path d="M40.7412 38.7174C39.262 36.6175 36.8241 35.7016 34.8775 35.5498C31.5586 35.2903 29.9829 36.4636 29.9829 36.4636C29.9829 36.4636 35.4185 36.6937 36.9852 38.7514C39.9018 42.5812 44.1568 42.8923 44.8373 42.0512C44.0504 42.0904 43.185 41.7006 42.2585 40.8247C41.6798 40.2767 41.2107 39.384 40.7412 38.7174ZM31.5653 46.1423C31.5653 46.1423 25.5344 44.069 26.6806 41.9697C27.8257 39.8697 26.9142 38.7254 26.9142 38.7254C26.9142 38.7254 23.5466 41.2393 24.4046 43.9118C24.9321 45.5519 25.8168 46.7396 30.6751 49.0164C33.0054 53.3448 31.1563 61.1357 31.267 61.1722C31.4516 61.2335 34.5389 59.6463 34.3282 52.3574C34.2637 50.1192 34.0848 47.0636 31.5653 46.1425V46.1423ZM39.4683 23.8479C36.9395 25.1325 33.4751 26.9217 33.4751 26.9217L34.8387 27.6039C34.7084 27.8146 34.6457 27.9404 34.6457 27.9404L36.0452 28.5767C36.0452 28.5767 39.4616 31.0515 41.5547 32.6428C40.8569 30.4933 38.8082 27.1172 38.8082 27.1172C38.8082 27.1172 38.2277 25.5661 39.4683 23.8479ZM47.8693 76.2164C40.0964 76.2164 37.4637 72.2705 37.4637 72.2705L38.6785 75.2286C39.1374 76.5082 44.0356 80.4903 47.8576 80.4903" fill="#E78724"/>
<path d="M38.3142 69.6022C38.3142 69.6022 39.0294 73.9726 41.8929 73.9726C44.3261 73.9726 45.043 70.2808 45.043 69.5178L38.3142 69.6022ZM33.5491 63.0108C33.8035 62.3104 34.6943 59.479 34.9804 56.9022C35.3234 53.8159 35.1984 49.3021 35.1984 49.3021C35.1984 49.3021 34.4343 52.2609 33.7662 52.739C33.0985 53.2159 31.8574 56.4608 31.8574 56.4608C31.8574 56.4608 31.1926 61.2918 30.8762 62.9155C31.7519 63.0907 32.489 62.5749 33.5491 63.0108ZM26.6343 43.862C26.6343 43.862 28.2564 43.2888 28.7341 39.7578C29.2112 36.2262 28.1611 33.1719 28.1611 33.1719C28.1611 33.1719 28.2564 38.0395 27.684 38.9944C27.111 39.9484 26.6343 40.2349 25.9657 41.476C25.2972 42.7174 26.2519 43.48 26.6343 43.862Z" fill="#E78724"/>
<path d="M28.5723 20.9461L28.241 20.7363C27.2645 20.7693 28.5723 20.9461 28.5723 20.9461Z" fill="#FDC168"/>
<path d="M40.7873 22.8014C40.7873 22.8014 39.2608 22.5471 38.4968 21.4019C37.7328 20.2564 35.5698 17.9654 32.1214 17.94C28.6732 17.9142 25.2617 18.8565 25.2617 18.8565L28.2397 20.7382C28.5547 20.7279 29.1054 20.7322 30.0161 20.7626C33.7536 20.8869 34.3289 24.5835 34.3289 24.5835L47.5003 22.7697" fill="#FBA919"/>
<path d="M42.0619 43.219C42.0619 43.219 40.28 45.0007 37.5435 44.4277C34.8071 43.8553 33.1523 42.6462 33.0252 40.5461C32.8981 38.4462 33.5984 37.6191 33.5984 37.6191C33.5984 37.6191 36.6523 38.5742 38.1167 39.8469C39.5802 41.1193 40.662 43.1555 42.0619 43.219Z" fill="white"/>
<path d="M39.9042 42.5803C39.9042 42.5803 38.3588 43.2861 36.6315 42.7111C34.3706 41.9569 34.22 39.6055 34.22 39.6055C34.22 39.6055 32.8328 43.6761 36.7218 44.4596C39.8409 45.0879 41.6857 43.2804 41.6857 43.2804L39.9042 42.5801V42.5803Z" fill="#C9C9C9"/>
<path d="M41.0022 21.937C40.836 18.4462 43.6978 15.6659 44.6895 15.5474C44.7442 16.1389 44.634 18.4464 45.6254 19.1559C45.914 17.2713 46.8899 15.1933 50.7438 13.832C49.9184 16.0211 50.6334 17.8548 50.9742 18.7048C53.6057 16.3162 55.3788 16.7108 55.3788 16.7108C55.3788 16.7108 53.5502 19.866 54.2656 21.9364C48.9828 21.5222 41.028 22.4975 41.0022 21.937ZM29.8025 27.2546C28.5419 26.2088 29.4815 25.2383 29.3819 24.0501C29.3278 23.4179 29.2778 22.8215 29.0694 22.4924C27.9093 20.6609 25.173 20.1051 25.1456 20.0992L23.8613 19.8477L24.7115 18.8532C24.8216 18.7243 28.3128 15.3931 33.7158 17.1375C37.4952 18.3564 40.2931 22.4897 40.3972 22.6567L38.5022 23.5478C38.4799 23.5127 36.268 19.6274 33.0256 18.5819C30.4047 17.7363 27.9888 18.5409 26.9543 19.0682C28.0542 19.5073 29.4922 20.307 30.3588 21.6751C30.7675 22.3213 30.8367 23.1348 30.9033 23.9226C30.9911 24.9655 31.0732 25.95 31.8407 26.5877L29.8025 27.2546ZM26.436 42.5202C26.436 42.5202 28.024 40.5508 28.4944 36.719C28.6792 35.2096 28.3509 32.2326 27.8257 31.0874C27.9212 33.903 27.2055 36.719 27.2055 36.719C27.2055 36.719 26.7229 41.9474 26.436 42.5202Z" fill="#463014"/>
<path d="M34.8101 25.2665C34.8091 25.2624 34.3004 23.0391 32.8899 21.9167C30.9002 20.334 28.4709 21.1759 28.4474 21.1834L28.0947 20.0936C28.2123 20.0555 30.9891 19.1806 33.5481 20.9795C36.1225 22.7885 36.4315 24.4285 36.4583 24.6095L34.8101 25.2665ZM31.4238 41.1087C31.4238 41.1087 30.5907 39.916 30.7405 38.6043C30.8151 37.9565 31.1154 37.2915 31.6511 37.0556C32.6472 36.6181 33.0885 37.747 33.0885 37.747C33.0885 37.747 31.6869 38.0928 31.4238 41.1087Z" fill="#463014"/>
<path d="M40.5732 42.9256C40.6079 42.9904 40.6259 43.0269 40.6259 43.0269C40.6259 43.0269 38.027 44.9772 35.3639 42.998C33.9382 41.9376 34.073 39.3149 34.5097 38.2026C35.6455 38.46 36.6088 38.9239 37.4138 39.4656C36.3963 38.5575 35.5057 37.889 35.508 37.8736L34.3515 37.5462L32.1036 36.7754C32.0749 36.9469 31.255 40.79 33.6216 43.4086C34.6704 44.5698 39.5881 47.17 41.9231 42.7238L40.5732 42.9254V42.9256Z" fill="#463014"/>
<path d="M40.3286 43.2114C41.7916 45.4382 45.4832 44.1656 45.4197 41.8115C45.4197 41.8115 42.9531 43.1727 40.7737 40.6662C39.5013 39.2031 35.4245 35.1684 29.8955 36.5091C33.7136 37.3489 38.7688 40.8369 40.3286 43.2114Z" fill="#463014"/>
<path d="M29.3799 49.4956C29.7318 49.6989 30.9731 50.9845 30.9739 52.9071C30.9739 53.8713 30.878 58.7147 30.4007 61.6737C31.1184 62.1401 31.6184 62.2393 32.3332 62.7146C32.691 59.2877 32.9476 54.3208 32.8281 52.3157C32.6914 50.0301 31.4674 48.4962 30.3325 47.8421C29.9771 47.6377 29.6058 47.4367 29.2318 47.2346C27.288 46.1842 25.2778 45.0976 25.2778 43.2424C25.2778 41.791 25.8422 41.3371 26.4394 40.8559L26.5039 40.8037C26.9003 40.4834 27.3487 40.1202 27.6145 39.5239C28.3397 37.8936 28.4582 33.7401 27.6145 32.6859C27.1939 32.1605 26.067 30.3939 26.391 29.2066C26.5144 28.7535 26.7998 28.4176 27.2644 28.1797C27.7559 27.9278 28.4202 27.8003 29.2377 27.8003C30.8434 27.8003 32.6246 28.2891 33.5435 28.5801C36.827 29.6209 40.7893 32.6214 41.925 33.5163C41.9576 33.5413 41.9767 33.556 41.9802 33.5583L42.7069 34.0637L42.2525 33.3032C42.2244 33.2558 39.3458 28.5225 34.1987 26.7871C33.1974 26.4494 31.2301 25.8828 29.2967 25.8828C28.1458 25.8828 27.1689 26.084 26.3957 26.4798C25.453 26.962 24.8147 27.7313 24.5495 28.7039C23.8996 31.0879 26.0164 33.7423 26.0885 33.8272C26.3353 34.2678 26.44 37.4682 25.8697 38.749C25.7916 38.9259 25.5764 39.0995 25.3043 39.3193C25.219 39.3882 25.1237 39.4599 25.0227 39.5364C24.2183 40.1436 23.002 41.0609 23.002 43.1755C23.002 46.0686 25.9342 47.6373 28.2907 48.8985C28.6774 49.1065 29.0463 49.3034 29.3799 49.4956Z" fill="#463014"/>
<path d="M29.8026 27.2542C28.5419 26.2084 29.4815 25.2379 29.3819 24.0497C29.3278 23.4175 29.2778 22.8211 29.0694 22.492C27.9093 20.6605 25.173 20.1046 25.1456 20.0988L23.8613 19.8472L24.7115 18.8528C24.8216 18.7239 28.3128 15.3926 33.7158 17.1371C37.4952 18.3559 40.2931 22.4893 40.3972 22.6562L38.5022 23.5474C38.4799 23.5122 36.268 19.6269 33.0256 18.5815C30.4047 17.7359 27.9888 18.5405 26.9543 19.0678C28.0542 19.5068 29.4922 20.3066 30.3588 21.6747C30.7675 22.3209 30.8367 23.1343 30.9033 23.9222C30.9911 24.9651 31.0732 25.9496 31.8407 26.5872L29.8026 27.2542Z" fill="#463014"/>
<path d="M29.7621 27.4698L29.6807 27.4022C28.746 26.6265 28.9118 25.8625 29.0723 25.1231C29.1453 24.7819 29.2223 24.4292 29.191 24.0673C29.1401 23.4589 29.091 22.8849 28.9079 22.5953C27.8034 20.8513 25.1341 20.2927 25.1077 20.2873L23.5039 19.9726L24.5671 18.7295C24.5866 18.7061 26.8283 16.4434 30.6247 16.4434C31.6598 16.4434 32.7201 16.6156 33.7749 16.9564C37.7196 18.2282 40.5335 22.5139 40.56 22.5562L40.6739 22.7383L38.4322 23.7925L38.3424 23.6499C38.101 23.2386 35.9756 19.7334 32.9687 18.7635C32.2303 18.5253 31.4522 18.4048 30.657 18.4048C29.2164 18.4048 28.0483 18.7973 27.4267 19.061C28.4655 19.5287 29.7254 20.316 30.5222 21.5731C30.9558 22.2578 31.0261 23.0947 31.0948 23.9034C31.1792 24.9088 31.2589 25.8545 31.9643 26.44L32.2305 26.6607L29.7621 27.4698Z" fill="#463014"/>
<path d="M34.8101 25.2665C34.8091 25.2624 34.3004 23.0391 32.8899 21.9167C30.9002 20.334 28.4709 21.1759 28.4474 21.1834L28.0947 20.0936C28.2123 20.0555 30.9891 19.1806 33.5481 20.9795C36.1225 22.7885 36.4315 24.4285 36.4583 24.6095L34.8101 25.2665Z" fill="#463014"/>
<path d="M34.6734 25.5262L34.6238 25.3075C34.6187 25.286 34.1197 23.1388 32.7708 22.0663C32.0019 21.4542 31.0748 21.1433 30.0167 21.1433C29.1907 21.1433 28.5769 21.3405 28.5099 21.3638L28.3277 21.4243L27.8545 19.9707L28.0359 19.9121C28.1172 19.8861 28.8542 19.6562 29.8967 19.6562C31.272 19.6562 32.5724 20.0599 33.6586 20.8228C36.2977 22.6772 36.6199 24.3921 36.6473 24.5813L36.6705 24.7309L34.6734 25.5262ZM30.0169 20.7622C31.1473 20.7622 32.1827 21.1099 33.0089 21.7669C34.2066 22.7209 34.7701 24.405 34.9404 25.0088L36.2387 24.4913C36.1212 24.0329 35.6036 22.6572 33.4389 21.1355C32.4032 20.4076 31.2119 20.0388 29.8969 20.0388C29.1753 20.0388 28.6148 20.1537 28.3379 20.2236L28.572 20.9474C28.8435 20.8743 29.3661 20.7622 30.0169 20.7622ZM41.7735 72.9253C41.2095 72.9253 40.6339 72.7206 40.2351 72.3753C39.9297 72.1121 38.897 71.1635 38.4415 70.0015C38.2716 69.5669 38.3097 69.2193 38.5563 68.9691C38.7263 68.7976 39.0792 68.5928 39.7953 68.5928L40.3049 68.592C40.9121 68.5912 41.9343 68.5912 42.808 68.5912H43.6459C44.1908 68.5912 44.5814 68.7092 44.8058 68.9388C45.0942 69.2351 45.0018 69.612 44.921 69.8105C44.7808 70.1581 44.1997 71.2891 43.2162 72.3406C42.8641 72.7175 42.3516 72.9253 41.7735 72.9253ZM42.3647 43.343L40.3285 43.2122C40.3285 43.2122 40.849 44.1297 41.1863 45.3163C41.5671 46.6586 40.838 48.6204 40.838 48.6204C40.838 48.6204 43.5531 45.5464 42.3647 43.343ZM39.8229 78.3019C32.5755 77.7449 30.0256 70.8967 30.0256 69.4705L31.9183 69.4712L30.9721 69.4705H31.9183C31.9279 70.087 33.8537 75.945 39.9678 76.4153L39.8229 78.3019Z" fill="#463014"/>
<path d="M37.7868 66.0314C37.6736 65.3769 37.6618 64.7561 37.7999 64.1461C37.2492 63.7321 36.2609 63.5784 35.5194 63.338C34.913 62.9542 31.8099 63.7313 29.5588 61.0069C26.7381 57.5954 27.3316 55.5586 27.3316 55.5586C26.6084 56.3621 25.9075 56.0558 24.8052 59.8025C23.7012 63.5499 25.3234 66.1622 28.3466 68.7849C29.7748 70.0237 31.7939 70.5342 33.5307 70.7295C32.9489 70.1455 34.5243 70.087 35.6102 69.6807C35.5237 68.8038 35.6688 67.9527 36.3225 67.2674C36.7166 66.8542 37.2238 66.6073 37.7501 66.4104C37.7794 66.3425 37.8042 66.2796 37.8321 66.2144C37.8136 66.1543 37.7985 66.0932 37.7868 66.0314Z" fill="white"/>
<path d="M35.5955 69.6579C35.5327 69.4737 35.4852 69.2862 35.4387 69.0974C35.3885 68.8913 35.1385 68.307 35.4465 68.9741C35.3674 68.8032 35.3157 68.6273 35.2776 68.4499C30.3814 68.4437 26.1219 65.082 26.9449 58.0147C26.3039 57.1638 25.4063 59.7306 25.4063 59.7306C25.4063 59.7306 22.9551 66.8477 29.2856 69.6061C31.3948 70.526 33.259 71.1855 33.6988 70.9193C34.6149 71.1054 35.4418 70.4668 35.752 70.0467C35.694 69.9178 35.6408 69.7885 35.5955 69.6579Z" fill="#C9C9C9"/>
<path d="M37.6984 65.007C37.706 64.4106 37.8279 63.8327 38.1164 63.2571C38.1365 63.2175 38.1597 63.1794 38.1814 63.1407C36.2973 63.1245 34.1276 62.9442 32.2798 62.2046C30.2489 61.3922 27.7084 58.6131 27.2719 55.3477C27.2719 55.3477 23.4472 58.299 24.5709 64.6164C25.626 70.5482 30.5899 72.4821 36.2511 72.8092C36.2542 72.771 35.6144 71.4496 35.8165 70.6404C32.6019 70.874 29.0072 69.6321 27.2719 66.7768C25.6832 64.1633 26.1289 59.7015 26.7817 59.0476C28.3744 64.0731 34.1053 65.0947 37.6984 65.007Z" fill="#463014"/>
<path d="M38.2918 61.4085C37.2731 64.3979 35.1924 66.8175 35.1924 66.8175C35.1924 66.8175 38.0547 66.6872 38.2127 66.1808C38.3297 65.8074 40.7973 60.0308 41.7445 53.2637C40.8535 54.7274 38.3791 61.1524 38.2918 61.4085Z" fill="#463014"/>
<path d="M54.5085 54.5177C54.5085 54.5177 57.7534 59.4803 60.1349 63.0021C60.5032 63.547 57.7534 63.5847 57.7534 63.5847L54.5085 54.5175V54.5177ZM52.9629 44.2287C52.9629 44.2287 53.9413 46.6696 54.4765 47.9634C55.0585 49.3702 57.2763 50.0699 57.2763 50.0699C57.2763 50.0699 56.1267 48.8639 56.1267 45.8089C56.1267 44.5273 54.4722 44.0176 54.4722 44.0176L52.9629 44.2287Z" fill="#E78724"/>
<path d="M53.9511 45.6091C53.9511 45.6091 55.9555 47.9952 59.6783 46.6588C63.4011 45.3226 63.7823 40.5502 63.7823 39.214C63.7823 37.8777 56.7195 40.5502 55.7647 41.123C54.8101 41.6958 52.9969 43.9861 53.9511 45.6091ZM68.0104 20.1126C68.0104 20.1126 64.5745 19.4439 62.2832 21.2577C59.9929 23.071 59.3244 24.503 59.3244 24.503L63.1855 27.5633C63.1855 27.5633 65.0518 26.6982 65.6244 24.2165C66.1968 21.735 65.8152 20.5898 68.0104 20.1126Z" fill="#E78724"/>
<path d="M54.9538 38.7172C56.433 36.6173 58.8702 35.7014 60.8175 35.5496C64.1367 35.2901 65.7116 36.4635 65.7116 36.4635C65.7116 36.4635 60.276 36.6935 58.7089 38.7512C55.7921 42.581 51.5386 42.8921 50.8582 42.051C51.6449 42.0902 52.5108 41.7004 53.4366 40.8245C54.015 40.2765 54.4845 39.3838 54.9538 38.7172ZM64.1298 46.1421C64.1298 46.1421 70.1601 44.0688 69.0147 41.9695C67.8696 39.8695 68.7803 38.7252 68.7803 38.7252C68.7803 38.7252 72.1486 41.2391 71.2899 43.9114C70.7624 45.5515 69.8777 46.7392 65.0194 49.016C62.6891 53.3444 64.5382 61.1353 64.428 61.1718C64.2433 61.2332 61.1564 59.646 61.3671 52.357C61.4312 50.1188 61.6103 47.0632 64.1298 46.1421ZM56.227 23.8477C58.755 25.1323 62.22 26.9215 62.22 26.9215L60.8568 27.6037C60.9869 27.8144 61.0497 27.9402 61.0497 27.9402L59.6502 28.5765C59.6502 28.5765 56.2336 31.0513 54.1404 32.6426C54.8376 30.4933 56.8863 27.1172 56.8863 27.1172C56.8863 27.1172 57.4679 25.5659 56.227 23.8477ZM47.8262 76.2162C55.5977 76.2162 58.2306 72.2703 58.2306 72.2703L57.0166 75.2284C56.5576 76.508 51.6589 80.4901 47.8381 80.4901" fill="#E78724"/>
<path d="M57.3791 69.6022C57.3791 69.6022 56.6631 73.9726 53.8004 73.9726C51.3677 73.9726 50.6504 70.2808 50.6504 69.5178L57.3791 69.6022ZM62.1442 63.0108C61.8897 62.3104 60.9989 59.479 60.7121 56.9022C60.3691 53.8159 60.4949 49.3021 60.4949 49.3021C60.4949 49.3021 61.2585 52.2609 61.926 52.739C62.5947 53.2159 63.8351 56.4608 63.8351 56.4608C63.8351 56.4608 64.4997 61.2918 64.8161 62.9155C63.9408 63.0907 63.2045 62.5749 62.1442 63.0108ZM69.0596 43.862C69.0596 43.862 67.4366 43.2888 66.9597 39.7578C66.4826 36.2262 67.5325 33.1719 67.5325 33.1719C67.5325 33.1719 67.4366 38.0395 68.0096 38.9944C68.5826 39.9488 69.0596 40.2349 69.7279 41.476C70.3954 42.717 69.441 43.48 69.0596 43.862Z" fill="#E78724"/>
<path d="M67.123 20.9461L67.4549 20.7363C68.4316 20.7693 67.123 20.9461 67.123 20.9461Z" fill="#FDC168"/>
<path d="M54.9064 22.8016C54.9064 22.8016 56.4338 22.5473 57.1971 21.4021C57.9607 20.2566 60.1246 17.9656 63.5732 17.94C67.0215 17.9142 70.433 18.8565 70.433 18.8565L67.4548 20.7382C67.1398 20.7279 66.5891 20.7322 65.6776 20.7626C61.9407 20.8869 61.3654 24.5835 61.3654 24.5835L48.1943 22.7697" fill="#FBA919"/>
<path d="M53.6328 43.219C53.6328 43.219 55.4147 45.0007 58.1507 44.4277C60.8872 43.8553 62.5418 42.6462 62.6691 40.5461C62.7961 38.4462 62.0965 37.6191 62.0965 37.6191C62.0965 37.6191 59.0416 38.5742 57.5783 39.8469C56.1147 41.1197 55.0331 43.1555 53.6328 43.219Z" fill="white"/>
<path d="M55.7893 42.5803C55.7893 42.5803 57.3353 43.2861 59.062 42.7111C61.3236 41.9569 61.4741 39.6055 61.4741 39.6055C61.4741 39.6055 62.8606 43.6761 58.9716 44.4596C55.853 45.0879 54.0078 43.2804 54.0078 43.2804L55.7893 42.5801V42.5803Z" fill="#C9C9C9"/>
<path d="M65.8917 27.2542C67.1524 26.2084 66.2136 25.2379 66.3132 24.0497C66.3663 23.4175 66.4163 22.8211 66.6249 22.492C67.7849 20.6605 70.5213 20.1046 70.5494 20.0988L71.8341 19.8472L70.9836 18.8528C70.8734 18.7239 67.3822 15.3926 61.9783 17.1371C58.1996 18.3559 55.4019 22.4893 55.2979 22.6562L57.1923 23.5474C57.2151 23.5122 59.4273 19.6269 62.6696 18.5815C65.2906 17.7359 67.706 18.5405 68.7402 19.0678C67.6408 19.5068 66.2022 20.3066 65.3357 21.6747C64.9269 22.3209 64.8584 23.1343 64.792 23.9222C64.7041 24.9651 64.6213 25.9496 63.8536 26.5872L65.8917 27.2542ZM69.2577 42.5198C69.2577 42.5198 67.6705 40.5504 67.2 36.7186C67.0153 35.2091 67.343 32.2322 67.8679 31.0869C67.7724 33.9026 68.489 36.7186 68.489 36.7186C68.489 36.7186 68.9716 41.947 69.2577 42.5198Z" fill="#463014"/>
<path d="M60.8841 25.2665C60.8849 25.2624 61.3936 23.0391 62.8043 21.9167C64.7938 20.334 67.2233 21.1759 67.246 21.1834L67.5997 20.0936C67.4817 20.0555 64.7053 19.1806 62.1455 20.9795C59.5711 22.7885 59.2629 24.4285 59.2354 24.6095L60.8841 25.2665ZM64.2702 41.1087C64.2702 41.1087 65.1033 39.916 64.9528 38.6043C64.8789 37.9565 64.5788 37.2915 64.0427 37.0556C63.0468 36.6181 62.6053 37.747 62.6053 37.747C62.6053 37.747 64.0071 38.0928 64.2702 41.1087Z" fill="#463014"/>
<path d="M55.1232 42.9252C55.0884 42.99 55.0704 43.0266 55.0704 43.0266C55.0704 43.0266 57.6681 44.9768 60.3314 42.9976C61.7579 41.9372 61.6231 39.3145 61.1857 38.2023C60.0504 38.4597 59.0874 38.9235 58.2817 39.4653C59.2995 38.5571 60.1902 37.8886 60.1871 37.8732L61.3444 37.5458L63.592 36.7754C63.6209 36.9469 64.4405 40.79 62.0731 43.4088C61.0243 44.5698 56.1067 47.17 53.7725 42.7238L55.1232 42.925V42.9252Z" fill="#463014"/>
<path d="M55.3642 43.2114C53.9012 45.4382 50.2106 44.1656 50.2743 41.8115C50.2743 41.8115 52.7401 43.1727 54.9195 40.6662C56.1916 39.2031 60.2695 35.1684 65.7981 36.5091C61.9801 37.3489 56.925 40.8369 55.3642 43.2114Z" fill="#463014"/>
<path d="M66.3161 49.4956C65.9638 49.6989 64.7219 50.9845 64.7219 52.9071C64.7211 53.8713 64.8172 58.7147 65.2951 61.6737C64.5772 62.1401 64.0772 62.2393 63.3624 62.7146C63.0046 59.2877 62.7472 54.3208 62.8677 52.3157C63.0042 50.0301 64.2276 48.4962 65.3623 47.8421C65.7177 47.6377 66.0892 47.4367 66.464 47.2346C68.4078 46.1842 70.418 45.0976 70.418 43.2424C70.418 41.791 69.8532 41.3371 69.256 40.8559L69.1923 40.8037C68.7959 40.4834 68.3465 40.1202 68.0815 39.5239C67.3561 37.8936 67.2372 33.7401 68.0807 32.6859C68.5014 32.1605 69.629 30.3939 69.305 29.2066C69.1808 28.7535 68.8953 28.4176 68.4308 28.1797C67.9391 27.9278 67.276 27.8003 66.4575 27.8003C64.8528 27.8003 63.0706 28.2891 62.1525 28.5801C58.869 29.6209 54.9069 32.6214 53.7703 33.5163C53.7378 33.5413 53.7191 33.556 53.7156 33.5583L52.9883 34.0637L53.4427 33.3032C53.4716 33.2558 56.3496 28.5225 61.4965 26.7871C62.498 26.4494 64.4651 25.8828 66.3986 25.8828C67.5497 25.8828 68.5254 26.084 69.2995 26.4798C70.2424 26.962 70.8803 27.7313 71.1459 28.7039C71.7959 31.0879 69.6788 33.7423 69.6066 33.8272C69.3599 34.2678 69.2554 37.4682 69.8247 38.749C69.9032 38.9259 70.1182 39.0995 70.3911 39.3193C70.4762 39.3882 70.5707 39.4599 70.6725 39.5364C71.4771 40.1436 72.6929 41.0609 72.6929 43.1755C72.6929 46.0686 69.7606 47.6373 67.4049 48.8985C67.018 49.1065 66.6487 49.3034 66.3161 49.4956Z" fill="#463014"/>
<path d="M62.8174 26.9145C62.351 26.1245 61.1581 24.5992 58.4093 23.2588C55.3413 21.7636 51.7908 21.0047 47.8545 21.0029V21.002H47.8393V21.0023C43.9024 21.0043 40.3511 21.7634 37.2841 23.2584C34.535 24.599 33.3429 26.1241 32.8762 26.9141L32.6758 27.1791L35.0299 27.7031L35.1045 27.6088L35.144 27.5224C35.1803 27.3668 35.4959 26.5268 38.1204 25.247C40.9262 23.8785 44.1989 23.1846 47.8463 23.1835C51.4945 23.1846 54.7658 23.8785 57.5713 25.247C60.1961 26.5268 60.5127 27.3668 60.5486 27.5222L60.5879 27.6088L60.6617 27.7031L63.0164 27.1791L62.8174 26.9145Z" fill="#463014"/>
<path d="M65.8917 27.2542C67.1524 26.2084 66.2136 25.2379 66.3132 24.0497C66.3663 23.4175 66.4163 22.8211 66.6249 22.492C67.7849 20.6605 70.5213 20.1046 70.5494 20.0988L71.8341 19.8472L70.9836 18.8528C70.8734 18.7239 67.3822 15.3926 61.9783 17.1371C58.1996 18.3559 55.4019 22.4893 55.2979 22.6562L57.1923 23.5474C57.2151 23.5122 59.4273 19.6269 62.6696 18.5815C65.2906 17.7359 67.706 18.5405 68.7402 19.0678C67.6408 19.5068 66.2022 20.3066 65.3357 21.6747C64.9269 22.3209 64.8584 23.1343 64.792 23.9222C64.7041 24.9651 64.6213 25.9496 63.8536 26.5872L65.8917 27.2542Z" fill="#463014"/>
<path d="M63.4641 26.6626L63.7293 26.4417C64.4353 25.8562 64.5144 24.9106 64.5998 23.9052C64.6681 23.0963 64.7386 22.2592 65.172 21.5749C65.9684 20.3181 67.2291 19.5307 68.2675 19.0623C67.6459 18.7991 66.4776 18.4065 65.0369 18.4065C64.2412 18.4065 63.4647 18.5268 62.7259 18.7653C59.7183 19.7351 57.593 23.2404 57.3524 23.6517L57.2622 23.7943L55.0205 22.74L55.1346 22.558C55.1609 22.5156 57.9742 18.2302 61.9189 16.9582C62.9737 16.6174 64.034 16.4453 65.0699 16.4453C68.8663 16.4453 71.1081 18.7086 71.1273 18.7315L72.1907 19.9746L70.5863 20.289C70.5597 20.2945 67.8906 20.8528 66.7854 22.5973C66.6022 22.8871 66.5541 23.4605 66.5022 24.0692C66.4719 24.4313 66.5479 24.784 66.6219 25.125C66.7823 25.8644 66.9481 26.6292 66.0128 27.4042L65.9315 27.4718L63.4641 26.6626Z" fill="#463014"/>
<path d="M60.8841 25.2665C60.8849 25.2624 61.3936 23.0391 62.8043 21.9167C64.7938 20.334 67.2233 21.1759 67.246 21.1834L67.5997 20.0936C67.4817 20.0555 64.7053 19.1806 62.1455 20.9795C59.5711 22.7885 59.2629 24.4285 59.2354 24.6095L60.8841 25.2665Z" fill="#463014"/>
<path d="M59.0235 24.7307L59.0457 24.5811C59.0737 24.3919 59.3961 22.6773 62.0346 20.8226C63.1201 20.0597 64.4208 19.6562 65.7961 19.6562C66.8392 19.6562 67.5762 19.8855 67.6579 19.9119L67.8389 19.9705L67.3661 21.4241L67.1835 21.3636C67.1151 21.3405 66.5017 21.1431 65.6762 21.1431C64.6182 21.1431 63.6917 21.4536 62.9228 22.0661C61.5737 23.139 61.0745 25.2862 61.0698 25.3073L61.0202 25.5256L59.0235 24.7307ZM67.121 20.9472L67.3559 20.2234C67.0788 20.1531 66.5177 20.0386 65.7961 20.0386C64.4813 20.0386 63.2896 20.4078 62.2545 21.1353C60.089 22.6574 59.5715 24.0327 59.4541 24.4911L60.7534 25.0086C60.9233 24.4044 61.4862 22.7203 62.6845 21.7667C63.5115 21.1095 64.5458 20.762 65.676 20.762C66.3259 20.762 66.8495 20.8741 67.1212 20.9472H67.121ZM52.4774 72.3404C51.4941 71.2891 50.9123 70.1577 50.7716 69.8103C50.6912 69.6122 50.5998 69.2349 50.888 68.9384C51.1128 68.709 51.5025 68.591 52.0471 68.591H52.8856C53.7593 68.591 54.781 68.591 55.3885 68.5918L55.8983 68.5926C56.6138 68.5926 56.9666 68.7972 57.1363 68.9689C57.3831 69.2187 57.4216 69.5661 57.2515 70.0013C56.7964 71.1635 55.7633 72.1121 55.4581 72.3751C55.0581 72.7204 54.4839 72.9251 53.9199 72.9251C53.3418 72.9251 52.8295 72.7173 52.4774 72.3404ZM53.3285 43.3428L55.3635 43.212C55.3635 43.212 54.8438 44.1295 54.5066 45.3161C54.1257 46.6584 54.8548 48.6202 54.8548 48.6202C54.8548 48.6202 52.1395 45.5462 53.3285 43.3428Z" fill="#463014"/>
<path d="M47.8474 36.073C46.5496 36.073 44.8575 36.0374 43.5879 35.125C43.5879 35.125 45.2503 38.0391 47.8452 38.0391L47.8474 37.6703L47.8495 38.0391C50.4447 38.0391 52.1067 35.1252 52.1067 35.1252C50.8372 36.0372 49.144 36.073 47.8474 36.073Z" fill="#E78724"/>
<path d="M51.4199 36.0605C50.1182 36.8484 48.9556 37.1214 47.8466 37.1456C46.7373 37.1214 45.5753 36.8484 44.2734 36.0605C44.2734 36.0605 46.1692 38.3739 47.8371 38.3916V38.393C47.84 38.393 47.8429 38.3922 47.8465 38.3922C47.8494 38.3922 47.8523 38.393 47.8558 38.393V38.3916C49.5233 38.3739 51.4199 36.0605 51.4199 36.0605ZM55.8705 78.3032L55.7254 76.4162C61.8379 75.9461 63.764 70.0881 63.7739 69.4713H65.6668C65.6676 70.8976 63.117 77.7462 55.8705 78.3032Z" fill="#463014"/>
<path d="M57.907 66.0314C58.0209 65.3769 58.032 64.7561 57.8939 64.1461C58.4455 63.7321 59.4329 63.5784 60.1745 63.338C60.7809 62.9542 63.8848 63.7313 66.136 61.0069C68.9565 57.5954 68.3622 55.5586 68.3622 55.5586C69.086 56.3621 69.7863 56.0558 70.8894 59.8025C71.9934 63.5499 70.3705 66.1622 67.3472 68.7849C65.9192 70.0237 63.9 70.5342 62.1632 70.7295C62.745 70.1455 61.1695 70.087 60.0842 69.6807C60.1709 68.8038 60.0253 67.9527 59.3716 67.2674C58.9782 66.8542 58.4703 66.6073 57.9445 66.4104C57.9148 66.3425 57.8895 66.2796 57.8623 66.2144C57.8797 66.1548 57.8959 66.0946 57.907 66.0314Z" fill="white"/>
<path d="M60.0976 69.6579C60.1613 69.4737 60.2078 69.2862 60.2545 69.0974C60.3054 68.8913 60.5554 68.307 60.2469 68.9741C60.3261 68.8032 60.3777 68.6273 60.416 68.4499C65.3122 68.4437 69.5716 65.082 68.7479 58.0147C69.3888 57.1638 70.287 59.7306 70.287 59.7306C70.287 59.7306 72.7382 66.8477 66.4078 69.6061C64.2985 70.526 62.4348 71.1855 61.9948 70.9193C61.0779 71.1054 60.2508 70.4668 59.9414 70.0467C59.9992 69.9178 60.0535 69.7885 60.0976 69.6579Z" fill="#C9C9C9"/>
<path d="M57.9949 65.007C57.9881 64.4106 57.8654 63.8327 57.5779 63.2571C57.5574 63.2175 57.5342 63.1794 57.5127 63.1407C59.3966 63.1245 61.5665 62.9442 63.4143 62.2046C65.445 61.3922 67.9855 58.6131 68.4222 55.3477C68.4222 55.3477 72.2469 58.299 71.1232 64.6164C70.0674 70.5482 65.104 72.4821 59.443 72.8092C59.4399 72.771 60.0799 71.4496 59.8776 70.6404C63.0912 70.874 66.6861 69.6321 68.4223 66.7768C70.0101 64.1633 69.5649 59.7015 68.9118 59.0476C67.3197 64.0731 61.5882 65.0947 57.9949 65.007Z" fill="#463014"/>
<path d="M60.2817 66.496C59.6054 65.7648 58.3619 64.8934 55.4947 64.8934L47.8575 64.8887H47.8388C45.6377 64.8902 40.2006 64.8934 40.2006 64.8934C37.334 64.8934 36.0905 65.765 35.4138 66.496C34.4281 67.5602 34.2734 69.0404 34.9554 70.8906C36.7674 75.8155 39.3139 80.8191 47.8384 80.8261V80.8269C47.8415 80.8269 47.8442 80.8261 47.8477 80.8261C47.8507 80.8261 47.8536 80.8269 47.8571 80.8269V80.8261C56.3808 80.8187 58.9273 75.8155 60.7399 70.8906C61.4219 69.0404 61.2668 67.5602 60.2817 66.496ZM58.9546 70.5453C58.0914 73.0184 55.7711 79.0044 47.8475 79.0147C39.9231 79.0044 37.6037 73.0186 36.7402 70.5453C36.2625 69.1732 36.2989 68.1578 36.852 67.5272C37.2299 67.096 38.0978 66.5813 40.0758 66.5813L42.1422 66.5806C43.6668 66.5792 45.5809 66.5776 47.8477 66.5767C50.1138 66.5776 52.0289 66.5792 53.553 66.5806L55.6187 66.5813C57.5973 66.5813 58.465 67.0958 58.8431 67.5272C59.3956 68.1584 59.4323 69.1732 58.9544 70.5453H58.9546Z" fill="#463014"/>
<path d="M57.4023 61.4085C58.421 64.3979 60.5017 66.8175 60.5017 66.8175C60.5017 66.8175 57.6394 66.6872 57.4812 66.1808C57.365 65.8074 54.8974 60.0308 53.9502 53.2637C54.8404 54.7274 57.3148 61.1524 57.4023 61.4085Z" fill="#463014"/>
</g>
<defs>
<radialGradient id="paint0_radial_1024_11525" cx="0" cy="0" r="1" gradientUnits="userSpaceOnUse" gradientTransform="translate(47.6963 47.4326) rotate(90) scale(47.04)">
<stop stop-color="#333944"/>
<stop offset="1" stop-color="#222428"/>
</radialGradient>
<clipPath id="clip0_1024_11525">
<rect width="49.9968" height="67.2" fill="white" transform="translate(22.832 13.832)"/>
</clipPath>
</defs>
</svg>
