<svg width="96" height="95" viewBox="0 0 96 95" fill="none" xmlns="http://www.w3.org/2000/svg">
<rect x="1.63196" y="1.35169" width="92.736" height="92.736" rx="13.44" fill="url(#paint0_radial_1024_11496)"/>
<rect x="1.63196" y="1.35169" width="92.736" height="92.736" rx="13.44" stroke="#6886C3" stroke-width="1.344"/>
<path d="M75.0482 64.1297C74.1523 64.5982 73.2284 65.0111 72.2817 65.3659C69.2684 66.4934 66.0764 67.0678 62.8591 67.0615C50.439 67.0615 39.62 58.5181 39.62 47.5548C39.6359 46.0843 40.044 44.6448 40.802 43.3847C41.5601 42.1246 42.6407 41.0897 43.9324 40.3867C32.6987 40.8592 29.8115 52.5653 29.8115 59.4236C29.8115 78.8149 47.6831 80.7808 51.5335 80.7808C53.6096 80.7808 56.7409 80.1771 58.6202 79.5839L58.964 79.4684C66.1957 76.9684 72.3608 72.0808 76.4445 65.61C76.5696 65.413 76.6254 65.1799 76.6032 64.9475C76.581 64.7152 76.482 64.4968 76.3218 64.327C76.1617 64.1573 75.9495 64.0457 75.7188 64.0099C75.4882 63.9742 75.2522 64.0163 75.0482 64.1297V64.1297Z" fill="url(#paint1_linear_1024_11496)"/>
<path opacity="0.35" d="M75.0482 64.1297C74.1523 64.5982 73.2284 65.0111 72.2817 65.3659C69.2684 66.4934 66.0764 67.0678 62.8591 67.0615C50.439 67.0615 39.62 58.5181 39.62 47.5548C39.6359 46.0843 40.044 44.6448 40.802 43.3847C41.5601 42.1246 42.6407 41.0897 43.9324 40.3867C32.6987 40.8592 29.8115 52.5653 29.8115 59.4236C29.8115 78.8149 47.6831 80.7808 51.5335 80.7808C53.6096 80.7808 56.7409 80.1771 58.6202 79.5839L58.964 79.4684C66.1957 76.9684 72.3608 72.0808 76.4445 65.61C76.5696 65.413 76.6254 65.1799 76.6032 64.9475C76.581 64.7152 76.482 64.4968 76.3218 64.327C76.1617 64.1573 75.9495 64.0457 75.7188 64.0099C75.4882 63.9742 75.2522 64.0163 75.0482 64.1297V64.1297Z" fill="url(#paint2_radial_1024_11496)"/>
<path d="M42.1512 77.4842C39.8101 76.0311 37.7813 74.1272 36.1826 71.8831C34.3605 69.3867 33.1067 66.5218 32.509 63.4895C31.9113 60.4572 31.9843 57.3309 32.7228 54.3298C33.4613 51.3287 34.8475 48.5255 36.7841 46.1168C38.7207 43.7082 41.1608 41.7524 43.9333 40.3866C44.7523 40.0008 46.1512 39.3026 48.0121 39.3367C49.3232 39.3463 50.6142 39.6593 51.7841 40.2513C52.9539 40.8433 53.9708 41.6981 54.755 42.7488C55.8149 44.164 56.3993 45.8786 56.4243 47.6465C56.4243 47.5914 62.8443 26.7539 35.4267 26.7539C23.9043 26.7539 14.4291 37.6884 14.4291 47.2817C14.3837 52.3564 15.4695 57.3775 17.6076 61.9801C21.1019 69.4357 27.2126 75.3485 34.7792 78.5957C42.3457 81.8429 50.8413 82.1983 58.6527 79.5944C55.9176 80.4568 53.028 80.7156 50.1833 80.3531C47.3385 79.9906 44.6062 79.0154 42.1748 77.4947L42.1512 77.4842Z" fill="url(#paint3_linear_1024_11496)"/>
<path opacity="0.41" d="M42.1512 77.4842C39.8101 76.0311 37.7813 74.1272 36.1826 71.8831C34.3605 69.3867 33.1067 66.5218 32.509 63.4895C31.9113 60.4572 31.9843 57.3309 32.7228 54.3298C33.4613 51.3287 34.8475 48.5255 36.7841 46.1168C38.7207 43.7082 41.1608 41.7524 43.9333 40.3866C44.7523 40.0008 46.1512 39.3026 48.0121 39.3367C49.3232 39.3463 50.6142 39.6593 51.7841 40.2513C52.9539 40.8433 53.9708 41.6981 54.755 42.7488C55.8149 44.164 56.3993 45.8786 56.4243 47.6465C56.4243 47.5914 62.8443 26.7539 35.4267 26.7539C23.9043 26.7539 14.4291 37.6884 14.4291 47.2817C14.3837 52.3564 15.4695 57.3775 17.6076 61.9801C21.1019 69.4357 27.2126 75.3485 34.7792 78.5957C42.3457 81.8429 50.8413 82.1983 58.6527 79.5944C55.9176 80.4568 53.028 80.7156 50.1833 80.3531C47.3385 79.9906 44.6062 79.0154 42.1748 77.4947L42.1512 77.4842Z" fill="url(#paint4_radial_1024_11496)"/>
<path d="M54.3824 53.1904C54.1698 53.466 53.5163 53.8466 53.5163 54.676C53.5163 55.361 53.9625 56.0198 54.7551 56.5736C58.5295 59.1983 65.645 58.8519 65.6634 58.8519C68.4601 58.8451 71.2037 58.0883 73.6083 56.6602C76.0341 55.2438 78.0474 53.2178 79.4484 50.7832C80.8494 48.3485 81.5896 45.5898 81.5953 42.7808C81.6636 36.8989 79.4955 32.9881 78.6189 31.2558C73.0572 20.3764 61.0518 14.1191 47.9965 14.1191C39.1675 14.1183 30.6931 17.5929 24.406 23.7916C18.1189 29.9903 14.5245 38.4147 14.4004 47.2428C14.5264 37.6522 24.0593 29.9067 35.398 29.9067C36.3166 29.9067 41.5555 29.9959 46.4217 32.5498C50.7105 34.8018 52.9572 37.5209 54.5189 40.2165C56.141 43.0171 56.4297 46.5551 56.4297 47.9646C56.4297 49.3741 55.7105 51.4633 54.3824 53.1904V53.1904Z" fill="url(#paint5_radial_1024_11496)"/>
<path d="M54.3824 53.1904C54.1698 53.466 53.5163 53.8466 53.5163 54.676C53.5163 55.361 53.9625 56.0198 54.7551 56.5736C58.5295 59.1983 65.645 58.8519 65.6634 58.8519C68.4601 58.8451 71.2037 58.0883 73.6083 56.6602C76.0341 55.2438 78.0474 53.2178 79.4484 50.7832C80.8494 48.3485 81.5896 45.5898 81.5953 42.7808C81.6636 36.8989 79.4955 32.9881 78.6189 31.2558C73.0572 20.3764 61.0518 14.1191 47.9965 14.1191C39.1675 14.1183 30.6931 17.5929 24.406 23.7916C18.1189 29.9903 14.5245 38.4147 14.4004 47.2428C14.5264 37.6522 24.0593 29.9067 35.398 29.9067C36.3166 29.9067 41.5555 29.9959 46.4217 32.5498C50.7105 34.8018 52.9572 37.5209 54.5189 40.2165C56.141 43.0171 56.4297 46.5551 56.4297 47.9646C56.4297 49.3741 55.7105 51.4633 54.3824 53.1904V53.1904Z" fill="url(#paint6_radial_1024_11496)"/>
<defs>
<radialGradient id="paint0_radial_1024_11496" cx="0" cy="0" r="1" gradientUnits="userSpaceOnUse" gradientTransform="translate(48 47.7197) rotate(90) scale(47.04)">
<stop stop-color="#333944"/>
<stop offset="1" stop-color="#222428"/>
</radialGradient>
<linearGradient id="paint1_linear_1024_11496" x1="29.8115" y1="60.589" x2="76.6203" y2="60.589" gradientUnits="userSpaceOnUse">
<stop stop-color="#0C59A4"/>
<stop offset="1" stop-color="#114A8B"/>
</linearGradient>
<radialGradient id="paint2_radial_1024_11496" cx="0" cy="0" r="1" gradientUnits="userSpaceOnUse" gradientTransform="translate(55.6648 60.9579) scale(25.0343 23.7826)">
<stop offset="0.72" stop-opacity="0"/>
<stop offset="0.95" stop-opacity="0.53"/>
<stop offset="1"/>
</radialGradient>
<linearGradient id="paint3_linear_1024_11496" x1="54.4899" y1="40.2843" x2="25.2533" y2="72.1297" gradientUnits="userSpaceOnUse">
<stop stop-color="#1B9DE2"/>
<stop offset="0.16" stop-color="#1595DF"/>
<stop offset="0.67" stop-color="#0680D7"/>
<stop offset="1" stop-color="#0078D4"/>
</linearGradient>
<radialGradient id="paint4_radial_1024_11496" cx="0" cy="0" r="1" gradientUnits="userSpaceOnUse" gradientTransform="translate(32.9292 66.3524) rotate(-81.3844) scale(37.6451 30.4134)">
<stop offset="0.76" stop-opacity="0"/>
<stop offset="0.95" stop-opacity="0.5"/>
<stop offset="1"/>
</radialGradient>
<radialGradient id="paint5_radial_1024_11496" cx="0" cy="0" r="1" gradientUnits="userSpaceOnUse" gradientTransform="translate(21.1885 26.5541) rotate(92.2906) scale(53.1742 113.25)">
<stop stop-color="#35C1F1"/>
<stop offset="0.11" stop-color="#34C1ED"/>
<stop offset="0.23" stop-color="#2FC2DF"/>
<stop offset="0.31" stop-color="#2BC3D2"/>
<stop offset="0.67" stop-color="#36C752"/>
</radialGradient>
<radialGradient id="paint6_radial_1024_11496" cx="0" cy="0" r="1" gradientUnits="userSpaceOnUse" gradientTransform="translate(77.4121 34.4359) rotate(73.7398) scale(25.5488 20.7763)">
<stop stop-color="#66EB6E"/>
<stop offset="1" stop-color="#66EB6E" stop-opacity="0"/>
</radialGradient>
</defs>
</svg>
