<svg width="95" height="96" viewBox="0 0 95 96" fill="none" xmlns="http://www.w3.org/2000/svg">
<rect x="1.47962" y="1.64075" width="92.736" height="92.736" rx="13.44" fill="url(#paint0_radial_1024_11479)"/>
<rect x="1.47962" y="1.64075" width="92.736" height="92.736" rx="13.44" stroke="#6886C3" stroke-width="1.344"/>
<path d="M37.6264 81.6037C37.6259 81.6034 37.6253 81.6032 37.6247 81.603C29.6387 79.7646 22.567 74.5672 20.3606 66.4029C18.1526 58.2323 21.1572 49.9953 26.0649 43.446C28.5188 40.1738 31.3889 37.2371 34.3743 34.4492C37.1534 31.8535 40.2151 29.4683 42.7325 26.6115C45.3288 23.6644 48.5739 18.3928 46.1108 14.4082C50.583 17.7495 54.1899 23.3332 53.5869 29.0848C53.1052 33.674 49.662 38.3466 53.0346 42.6803C55.1325 45.3745 59.3793 44.8095 60.948 42.2076L60.8326 42.3317C61.1014 41.9042 61.2981 41.4355 61.4148 40.9442C61.423 40.5455 61.3523 40.1001 61.1365 39.5765L61.5473 39.8007C69.4104 43.8776 75.758 50.9987 75.5801 60.2517C75.3655 71.4989 64.8867 79.3699 54.7453 81.6082C59.5445 79.7176 63.8231 75.9728 64.4058 70.5884C64.9436 65.6207 62.2806 61.3376 58.6745 58.1698C55.2462 55.1557 51.1553 53.2125 47.4268 50.6413C45.2773 49.1593 42.015 46.184 43.1631 43.1671C41.6695 44.4527 40.4905 46.2513 40.0254 48.1714C39.0963 52.0018 41.4576 54.9852 43.8986 57.6265C46.3674 60.2937 46.1763 64.8717 42.0119 65.7833C40.2297 66.171 38.3422 65.4566 37.2646 63.9864C36.1053 62.4051 36.3605 60.788 36.8284 59.0201C32.9361 61.7754 29.8067 65.9679 29.8177 70.906C29.8267 75.4347 33.5961 79.8607 37.6247 81.603C37.6254 81.6031 37.626 81.6033 37.6267 81.6034L37.6264 81.6037Z" fill="#EE4323"/>
<defs>
<radialGradient id="paint0_radial_1024_11479" cx="0" cy="0" r="1" gradientUnits="userSpaceOnUse" gradientTransform="translate(47.8476 48.0088) rotate(90) scale(47.04)">
<stop stop-color="#333944"/>
<stop offset="1" stop-color="#222428"/>
</radialGradient>
</defs>
</svg>
