<svg width="95" height="95" viewBox="0 0 95 95" fill="none" xmlns="http://www.w3.org/2000/svg">
<rect x="1.32825" y="1.35169" width="92.736" height="92.736" rx="13.44" fill="url(#paint0_radial_1024_11504)"/>
<rect x="1.32825" y="1.35169" width="92.736" height="92.736" rx="13.44" stroke="#6886C3" stroke-width="1.344"/>
<path d="M34.5627 39.3001L47.3123 31.939C47.4692 31.8485 47.6471 31.8008 47.8282 31.8008C48.0092 31.8008 48.1871 31.8485 48.344 31.939L61.0936 39.3001C61.2504 39.3906 61.3806 39.5209 61.4711 39.6776C61.5617 39.8344 61.6094 40.0123 61.6094 40.1933V54.9154C61.6094 55.2837 61.4126 55.6241 61.0936 55.8087L48.344 63.1697C48.1871 63.2603 48.0092 63.308 47.8282 63.308C47.6471 63.308 47.4692 63.2603 47.3123 63.1697L34.5627 55.8087C34.4059 55.7181 34.2757 55.5879 34.1852 55.4311C34.0946 55.2743 34.0469 55.0965 34.0469 54.9154V40.1931C34.0471 39.8245 34.2437 39.4843 34.5627 39.2998" fill="#8080F2"/>
<path d="M80.8811 46.3474L65.6314 19.8173C65.0776 18.8581 64.0543 18.1504 62.9466 18.1504H32.4469C31.3392 18.1504 30.3154 18.8581 29.7615 19.8173L14.5121 46.2889C13.9582 47.2483 13.9582 48.4592 14.5121 49.4187L29.7615 75.7315C30.3154 76.6906 31.3392 77.181 32.4469 77.181H62.9463C64.0541 77.181 65.0776 76.7053 65.6312 75.7459L80.8809 49.3903C81.4353 48.4314 81.4353 47.3066 80.8809 46.3474H80.8811ZM68.2535 59.1049C68.2535 59.4947 68.0189 59.8557 67.6808 60.051L48.256 71.2579C48.0887 71.3538 47.8993 71.4042 47.7066 71.4042C47.5138 71.4042 47.3244 71.3538 47.1572 71.2579L27.7174 60.051C27.3796 59.8557 27.1431 59.495 27.1431 59.1047V36.6903C27.1431 36.2999 27.3762 35.9395 27.7143 35.7442L47.138 24.537C47.3052 24.441 47.4945 24.3905 47.6873 24.3905C47.88 24.3905 48.0694 24.441 48.2366 24.537L67.6774 35.7442C68.0157 35.9395 68.2535 36.2999 68.2535 36.6903V59.1047V59.1049Z" fill="#4B32C3"/>
<defs>
<radialGradient id="paint0_radial_1024_11504" cx="0" cy="0" r="1" gradientUnits="userSpaceOnUse" gradientTransform="translate(47.6963 47.7197) rotate(90) scale(47.04)">
<stop stop-color="#333944"/>
<stop offset="1" stop-color="#222428"/>
</radialGradient>
</defs>
</svg>
