<svg width="95" height="95" viewBox="0 0 95 95" fill="none" xmlns="http://www.w3.org/2000/svg">
<rect x="1.22473" y="1.48841" width="92.736" height="92.736" rx="13.44" fill="url(#paint0_radial_1024_11550)"/>
<rect x="1.22473" y="1.48841" width="92.736" height="92.736" rx="13.44" stroke="#6886C3" stroke-width="1.344"/>
<path d="M81.1932 14.2559H13.9932V81.4559H81.1932V14.2559Z" fill="#F7DF1E"/>
<path d="M59.135 66.7553C60.4886 68.9655 62.2496 70.59 65.3643 70.59C67.9808 70.59 69.6523 69.2823 69.6523 67.4753C69.6523 65.31 67.935 64.5431 65.055 63.2833L63.4763 62.606C58.9195 60.6647 55.8923 58.2327 55.8923 53.0913C55.8923 48.3553 59.5008 44.75 65.1403 44.75C69.1552 44.75 72.0416 46.1473 74.1216 49.806L69.2043 52.9633C68.1216 51.022 66.9536 50.2572 65.1403 50.2572C63.2907 50.2572 62.1184 51.4305 62.1184 52.9633C62.1184 54.8577 63.2918 55.6247 66.0011 56.798L67.5798 57.4743C72.9451 59.7751 75.9744 62.1207 75.9744 67.3943C75.9744 73.0796 71.5083 76.1943 65.5104 76.1943C59.6459 76.1943 55.8571 73.3996 54.0032 69.7367L59.135 66.7553ZM36.8278 67.3025C37.8198 69.0625 38.7222 70.5505 40.8918 70.5505C42.9664 70.5505 44.2752 69.7388 44.2752 66.5825V45.1105H50.5899V66.6679C50.5899 73.2065 46.7563 76.1825 41.1606 76.1825C36.1046 76.1825 33.1766 73.566 31.6875 70.4145L36.8278 67.3025Z" fill="black"/>
<defs>
<radialGradient id="paint0_radial_1024_11550" cx="0" cy="0" r="1" gradientUnits="userSpaceOnUse" gradientTransform="translate(47.5927 47.8564) rotate(90) scale(47.04)">
<stop stop-color="#333944"/>
<stop offset="1" stop-color="#222428"/>
</radialGradient>
</defs>
</svg>
