<svg width="95" height="95" viewBox="0 0 95 95" fill="none" xmlns="http://www.w3.org/2000/svg">
<rect x="1.47962" y="0.777469" width="92.736" height="92.736" rx="13.44" fill="url(#paint0_radial_1024_11542)"/>
<rect x="1.47962" y="0.777469" width="92.736" height="92.736" rx="13.44" stroke="#6886C3" stroke-width="1.344"/>
<path d="M47.8475 79.0389C65.4609 79.0389 79.7392 64.7606 79.7392 47.1473C79.7392 29.5342 65.4609 15.2559 47.8475 15.2559C30.2344 15.2559 15.9561 29.5342 15.9561 47.1473C15.9561 64.7606 30.2344 79.0389 47.8475 79.0389Z" fill="white"/>
<path d="M47.848 13.5449C29.2913 13.5449 14.248 28.5881 14.248 47.1449C14.248 65.7018 29.2913 80.7449 47.848 80.7449C66.4049 80.7449 81.448 65.7018 81.448 47.1449C81.448 28.5881 66.4049 13.5449 47.848 13.5449ZM47.848 16.9619C64.5176 16.9619 78.0311 30.4753 78.0311 47.1449C78.0311 63.8145 64.5176 77.328 47.848 77.328C31.1784 77.328 17.665 63.8145 17.665 47.1449C17.665 30.4753 31.1784 16.9619 47.848 16.9619Z" fill="#4000BF"/>
<path fill-rule="evenodd" clip-rule="evenodd" d="M48.2271 23.2266C61.4372 23.2266 72.1459 33.9352 72.1459 47.1453C72.1459 60.3551 61.4372 71.0639 48.2271 71.0639C35.0173 71.0639 24.3086 60.3551 24.3086 47.1453C24.3086 43.9167 24.9482 40.8377 26.1076 38.0279C27.8005 40.3333 30.5306 41.83 33.6103 41.83C38.7475 41.83 42.912 37.6655 42.912 32.5282C42.912 29.4486 41.4154 26.7185 39.1098 25.0256C41.9198 23.8662 44.9988 23.2266 48.2271 23.2266Z" fill="url(#paint1_linear_1024_11542)"/>
<defs>
<radialGradient id="paint0_radial_1024_11542" cx="0" cy="0" r="1" gradientUnits="userSpaceOnUse" gradientTransform="translate(47.8476 47.1455) rotate(90) scale(47.04)">
<stop stop-color="#333944"/>
<stop offset="1" stop-color="#222428"/>
</radialGradient>
<linearGradient id="paint1_linear_1024_11542" x1="48.2271" y1="71.0639" x2="48.2271" y2="23.2266" gradientUnits="userSpaceOnUse">
<stop stop-color="#7400E1"/>
<stop offset="1" stop-color="#4000BF"/>
</linearGradient>
</defs>
</svg>
