<svg width="95" height="95" viewBox="0 0 95 95" fill="none" xmlns="http://www.w3.org/2000/svg">
<rect x="1.04016" y="1.06458" width="92.736" height="92.736" rx="13.44" fill="url(#paint0_radial_1024_11526)"/>
<rect x="1.04016" y="1.06458" width="92.736" height="92.736" rx="13.44" stroke="#6886C3" stroke-width="1.344"/>
<path d="M47.5501 43.5312C47.6201 43.4635 47.661 43.3713 47.6642 43.2738H47.6656C47.7128 41.4191 47.2836 39.9704 46.3908 38.9674C45.448 37.9089 44.004 37.3653 42.0986 37.3516C40.1966 37.3516 38.5583 37.9458 37.3601 39.0701C36.227 40.134 35.5875 41.6068 35.5588 43.217C35.5102 45.9934 37.0787 47.759 38.828 49.468C40.1823 50.8612 40.4308 51.5501 40.4171 52.336C40.4007 53.2453 39.968 53.767 39.2292 53.767C38.9245 53.767 38.6801 53.6724 38.5049 53.4862C38.231 53.1987 38.1098 52.679 38.1543 51.9835C38.1617 51.937 38.1591 51.8894 38.1466 51.8441C38.1412 51.8247 38.1342 51.806 38.1254 51.7879C38.1137 51.7638 38.099 51.7413 38.0817 51.7206C38.0471 51.6769 38.0032 51.6415 37.9533 51.6169C37.9033 51.5922 37.8485 51.579 37.7928 51.5781H33.7944C33.6969 51.5778 33.6031 51.6156 33.5329 51.6834C33.4628 51.7511 33.4217 51.8436 33.4185 51.941C33.3247 53.869 33.7738 55.3628 34.7536 56.381C35.719 57.3834 37.1704 57.8914 39.0704 57.8914C42.7908 57.8914 45.2358 55.5669 45.2994 51.9711C45.3384 49.7473 44.5271 48.0651 42.5026 46.1659C40.9648 44.6747 40.4246 43.8065 40.4418 42.8514C40.4568 41.9949 40.9717 41.5047 41.77 41.5047C42.5683 41.5047 42.9586 42.0538 42.9586 43.1814C42.9586 43.4313 43.1701 43.6367 43.4235 43.6367H47.289C47.3865 43.6369 47.4801 43.5989 47.5501 43.5312Z" fill="#0AE448"/>
<path d="M35.4875 46.9538V46.945H35.4855C35.4889 46.7588 35.3595 46.5883 35.176 46.5644C35.1603 46.5609 35.1432 46.5609 35.1267 46.5609H28.0542V46.5691C27.8714 46.591 27.7228 46.715 27.6865 46.8786L26.9498 50.0786C26.94 50.1217 26.9403 50.1665 26.9507 50.2095C26.961 50.2524 26.9811 50.2926 27.0094 50.3265C27.0463 50.37 27.0922 50.4049 27.144 50.4288C27.1958 50.4527 27.2522 50.4649 27.3093 50.4647H28.3869C28.4492 50.4647 28.5307 50.4738 28.5601 50.512C28.5882 50.549 28.5862 50.6319 28.5567 50.7387C28.3472 51.5076 27.8488 52.3504 27.2298 52.8378C26.6102 53.3246 25.5874 53.6162 24.8705 53.1768C24.062 52.6804 23.925 51.4829 23.8915 50.6312C23.8209 48.8017 24.179 46.9649 24.8822 45.2738C25.3854 44.0633 26.3343 41.8792 27.9433 41.8792C28.8552 41.8792 29.3139 42.6323 29.3482 44.1796C29.349 44.2142 29.3561 44.2481 29.3688 44.2799C29.383 44.3153 29.4042 44.3479 29.4316 44.3755C29.4834 44.4277 29.5533 44.4581 29.6269 44.4603H33.8238C33.9219 44.4603 34.0161 44.4218 34.0863 44.3533C34.1565 44.2847 34.1972 44.1915 34.1997 44.0934C34.197 41.8558 33.6862 40.147 32.6797 39.0119C31.7281 37.9389 30.3601 37.4015 28.6177 37.4166C22.8898 37.4166 19.915 43.2039 19.285 48.9395C18.9359 51.9944 19.5124 54.5302 20.9077 56.0791C21.9635 57.2512 23.2082 57.8447 25.054 57.8447C27.1087 57.8447 28.6464 57.3887 29.8939 56.411C31.3604 55.2629 32.4709 53.3506 33.2912 50.5682C33.3003 50.5374 33.319 50.5105 33.3447 50.4913C33.3703 50.4719 33.4015 50.4616 33.4336 50.4614H34.3229C34.5311 50.4614 34.7118 50.3292 34.7515 50.1485L35.4875 46.9538Z" fill="#0AE448"/>
<path fill-rule="evenodd" clip-rule="evenodd" d="M59.6458 57.2149L59.6711 38.0902C59.6718 38.0424 59.663 37.9948 59.6451 37.9503C59.637 37.9304 59.6272 37.9112 59.6158 37.8931C59.6018 37.8709 59.5854 37.8503 59.5668 37.8316C59.5512 37.8157 59.5342 37.8015 59.516 37.789C59.4949 37.7745 59.4724 37.7621 59.4486 37.7524C59.4043 37.7342 59.3568 37.725 59.3089 37.7253H53.3264C53.1251 37.7253 53.0368 37.8985 52.9792 38.0128L44.3169 57.0977V57.1012L44.3135 57.1061C44.2176 57.3407 44.3998 57.5921 44.6538 57.5921H48.8357C49.0616 57.5921 49.2116 57.5236 49.2848 57.3812L50.1153 55.3854C50.2173 55.1191 50.2365 55.0944 50.5268 55.0944H54.5225C54.8004 55.0944 54.8059 55.0999 54.8018 55.3717L54.7121 57.2273C54.7118 57.2476 54.7132 57.268 54.7164 57.2881C54.7206 57.315 54.7278 57.3414 54.7381 57.3668C54.7559 57.4113 54.7825 57.4516 54.8161 57.4857C54.8498 57.5196 54.8899 57.5465 54.9342 57.5647C54.9784 57.5831 55.0258 57.5923 55.0736 57.5921H59.2986C59.3509 57.5928 59.4027 57.582 59.4504 57.5604C59.4981 57.5388 59.5405 57.5072 59.5746 57.4675C59.604 57.433 59.6256 57.3926 59.6379 57.3489C59.6502 57.3053 59.6529 57.2597 59.6458 57.2149ZM52.2446 50.8298C52.2131 50.8298 52.1815 50.8288 52.1501 50.8263C52.1355 50.8251 52.1213 50.8206 52.1085 50.8134C52.0957 50.8061 52.0847 50.796 52.0762 50.784C52.0722 50.7783 52.0687 50.7721 52.0659 50.7658C52.0629 50.7588 52.0607 50.7514 52.0594 50.7439C52.0579 50.7357 52.0574 50.7275 52.058 50.7193C52.0584 50.7128 52.0595 50.7064 52.0611 50.7003C52.0658 50.6845 52.0717 50.6655 52.0791 50.6433C52.0845 50.6269 52.0908 50.6088 52.0981 50.5894L55.0941 43.1758C55.1211 43.1028 55.1522 43.0313 55.1873 42.9616C55.2359 42.8616 55.2947 42.8547 55.3132 42.9288C55.329 42.9903 54.9695 50.5408 54.9695 50.5408C54.9415 50.8236 54.9285 50.8351 54.6498 50.8585L52.2473 50.8311H52.2419L52.2446 50.8298Z" fill="#0AE448"/>
<path fill-rule="evenodd" clip-rule="evenodd" d="M64.9923 37.7253H68.1684L68.1718 37.7233C72.8563 37.7233 75.1951 39.8465 75.1211 44.0365C75.0348 48.9463 72.0429 52.5545 67.5378 53.3862C66.8977 53.5041 66.2466 53.5499 65.5961 53.5465L63.421 53.5368C63.3853 53.5367 63.351 53.5505 63.3254 53.5753C63.2998 53.6002 63.2849 53.6341 63.284 53.6697C63.2836 53.6938 63.29 53.7175 63.3024 53.7381C63.3149 53.7587 63.333 53.7754 63.3546 53.7861L63.6195 53.9238L64.3042 54.2812L64.9923 54.6392C65.0633 54.6763 65.1346 54.7134 65.2059 54.75C65.3579 54.8296 65.4167 54.961 65.3825 55.1308L64.9005 57.306C64.8608 57.4873 64.715 57.5921 64.5014 57.5921H60.5317C60.4748 57.5921 60.4186 57.5798 60.3669 57.5559C60.3152 57.532 60.2694 57.4972 60.2325 57.4539C60.2041 57.4198 60.1839 57.3797 60.1735 57.3366C60.163 57.2934 60.1626 57.2486 60.1723 57.2054L64.5924 38.0143C64.6362 37.8144 64.8245 37.7253 64.9923 37.7253ZM67.0024 49.1456H67.0873C69.1721 49.0613 70.3087 46.5978 70.3504 44.2077C70.3744 42.8268 69.8705 42.0181 68.9667 41.9907H66.0631C66.0279 41.9907 65.9941 42.0044 65.9689 42.029C65.9437 42.0536 65.9291 42.087 65.9282 42.1223C65.9276 42.1464 65.9338 42.1703 65.946 42.191C65.9582 42.2119 65.976 42.2288 65.9974 42.24C65.9974 42.24 67.8336 43.2081 67.9596 43.278C68.0582 43.332 68.0595 43.4237 68.0274 43.5834C68.027 43.5869 67.746 44.8221 67.45 46.1246C67.1196 47.5782 66.7706 49.1156 66.7724 49.1181C66.7779 49.125 66.8114 49.1456 67.0024 49.1456Z" fill="#0AE448"/>
<defs>
<radialGradient id="paint0_radial_1024_11526" cx="0" cy="0" r="1" gradientUnits="userSpaceOnUse" gradientTransform="translate(47.4082 47.4326) rotate(90) scale(47.04)">
<stop stop-color="#333944"/>
<stop offset="1" stop-color="#222428"/>
</radialGradient>
</defs>
</svg>
