<svg width="95" height="95" viewBox="0 0 95 95" fill="none" xmlns="http://www.w3.org/2000/svg">
<rect x="0.752078" y="1.06458" width="92.736" height="92.736" rx="13.44" fill="url(#paint0_radial_1024_11527)"/>
<rect x="0.752078" y="1.06458" width="92.736" height="92.736" rx="13.44" stroke="#6886C3" stroke-width="1.344"/>
<path d="M13.5205 13.832H80.7205V81.032H13.5205V13.832Z" fill="#CF4547"/>
<path d="M36.7717 47.8796C36.7401 47.9257 36.6848 48.0691 36.6032 48.3126C36.5216 48.5562 36.4229 48.8602 36.307 49.2261C36.1912 49.592 36.0649 50.0027 35.9306 50.4555C35.795 50.9083 35.6555 51.3716 35.5133 51.8428C35.3699 52.3154 35.233 52.7774 35.1014 53.2315C34.9697 53.6843 34.8513 54.0949 34.7473 54.4609C34.6433 54.8268 34.5564 55.1335 34.4867 55.3822C34.4169 55.6297 34.3748 55.7758 34.359 55.8219C34.3208 55.968 34.259 56.1312 34.1734 56.3102C34.0878 56.4892 33.9878 56.6577 33.872 56.8183C33.7561 56.9789 33.6285 57.1118 33.4889 57.2171C33.3494 57.3224 33.206 57.3751 33.0598 57.3751C32.8124 57.3751 32.6321 57.2921 32.5202 57.1276C32.4083 56.9631 32.3517 56.6603 32.3517 56.2207V56.0285C32.3517 55.964 32.3557 55.8956 32.3635 55.8232C32.3714 55.6771 32.4294 55.402 32.5373 54.9979C32.6452 54.5951 32.7755 54.1397 32.9256 53.6303C33.0756 53.1209 33.2389 52.5957 33.4126 52.0495C33.5863 51.5046 33.743 51.0162 33.8825 50.5858C33.4718 51.0439 33.0283 51.4993 32.5478 51.9534C32.0687 52.4075 31.5764 52.8142 31.0749 53.1762C30.5721 53.5382 30.0654 53.8343 29.5547 54.062C29.044 54.2911 28.553 54.4056 28.0818 54.4056C27.5408 54.4056 27.0748 54.2858 26.6839 54.0489C26.293 53.8106 25.9705 53.4987 25.7152 53.1143C25.4598 52.73 25.2703 52.2943 25.1465 51.8086C25.0228 51.3229 24.9609 50.8372 24.9609 50.3515V50.1725C24.9609 50.1172 24.9649 50.0633 24.9728 50.008C25.0189 49.1287 25.1452 48.2258 25.3492 47.3004C25.5546 46.3751 25.8231 45.4537 26.1561 44.5389C26.4891 43.6228 26.8735 42.7278 27.3104 41.8525C27.7474 40.9772 28.2226 40.1506 28.7373 39.3726C29.2519 38.5947 29.7982 37.8774 30.3786 37.2219C30.9591 36.5664 31.5541 36.003 32.1648 35.5318C32.7755 35.0606 33.3929 34.6921 34.0154 34.4262C34.638 34.1603 35.2554 34.0273 35.8661 34.0273C36.5703 34.0273 37.2508 34.2195 37.9076 34.6039C38.5644 34.9882 39.1791 35.6121 39.7517 36.4729C39.8833 36.6651 39.9662 36.8599 40.0005 37.0574C40.0347 37.2548 40.0531 37.4404 40.0531 37.6141C40.0531 38.0261 39.9544 38.3512 39.7569 38.5895C39.5595 38.8277 39.3252 38.9462 39.0554 38.9462C38.8079 38.9462 38.5776 38.8159 38.3657 38.5539C38.1524 38.2933 37.9155 37.9195 37.6523 37.4338C37.4048 36.9942 37.1323 36.6756 36.8349 36.4782C36.5374 36.2808 36.2136 36.1834 35.8661 36.1834C35.3251 36.1834 34.746 36.4084 34.1313 36.8573C33.5166 37.3061 32.9072 37.8998 32.3043 38.6369C31.7015 39.374 31.1223 40.2164 30.5695 41.1654C30.0167 42.1131 29.527 43.0845 29.1019 44.0783C28.6767 45.072 28.3384 46.0526 28.087 47.0188C27.8356 47.9849 27.7106 48.8536 27.7106 49.6236C27.7106 49.8803 27.7277 50.1436 27.7632 50.4134C27.7988 50.6832 27.8633 50.9294 27.9607 51.1492C28.0568 51.369 28.1884 51.5506 28.3556 51.6915C28.5214 51.8336 28.732 51.9047 28.9874 51.9047C29.273 51.9047 29.5981 51.8086 29.9614 51.6164C30.3247 51.4243 30.7024 51.1729 31.092 50.8609C31.483 50.549 31.8752 50.1962 32.2701 49.8026C32.665 49.4091 33.0322 49.0103 33.3718 48.6075C33.7114 48.2047 34.0141 47.8177 34.2761 47.4465C34.5393 47.0754 34.7368 46.7529 34.8671 46.4778L35.9464 43.249C36.078 42.9015 36.2504 42.6541 36.4624 42.5066C36.6756 42.3605 36.8941 42.2868 37.1179 42.2868C37.2258 42.2868 37.3337 42.3053 37.443 42.3421C37.5509 42.379 37.6483 42.4356 37.7325 42.5145C37.8181 42.5922 37.8852 42.6936 37.9353 42.8173C37.9853 42.941 38.0103 43.0858 38.0103 43.2503C38.0103 43.69 37.9721 44.1019 37.8944 44.4876C37.8168 44.8733 37.7181 45.2484 37.5983 45.6143C37.4785 45.9802 37.3456 46.3501 37.1981 46.72C37.0534 47.0885 36.9099 47.4755 36.7717 47.8796V47.8796ZM51.4005 50.5727C51.0596 51.0307 50.6634 51.4769 50.212 51.9126C49.7592 52.3483 49.2932 52.7353 48.8141 53.0735C48.335 53.4118 47.8624 53.6843 47.3991 53.8909C46.9345 54.0976 46.5172 54.2002 46.146 54.2002C45.7749 54.2002 45.4734 54.0765 45.2405 53.8291C45.0088 53.5816 44.893 53.1604 44.893 52.5641C44.893 52.1429 44.9548 51.652 45.0786 51.0939C44.8772 51.4519 44.6258 51.8139 44.3243 52.1798C44.0229 52.5457 43.6781 52.88 43.2911 53.1828C42.9041 53.4855 42.4711 53.7303 41.9919 53.9173C41.5128 54.1055 40.9903 54.1989 40.4256 54.1989C40.1702 54.1989 39.9241 54.1673 39.6885 54.1028C39.4529 54.0383 39.2462 53.9291 39.0685 53.7738C38.8909 53.6185 38.7474 53.4105 38.6394 53.1486C38.5315 52.8879 38.4775 52.5602 38.4775 52.1666C38.4775 52.1574 38.4933 52.0179 38.5236 51.7481C38.5539 51.4782 38.6526 51.0518 38.8198 50.47C38.9856 49.8882 39.2436 49.1353 39.5911 48.21C39.9399 47.2847 40.4309 46.1632 41.064 44.843C41.2259 44.4955 41.4141 44.2454 41.626 44.0941C41.8393 43.9427 42.0683 43.8677 42.3157 43.8677C42.4237 43.8677 42.5356 43.8835 42.6527 43.915C42.7685 43.9479 42.8765 43.998 42.9778 44.0664C43.0779 44.1349 43.1595 44.2217 43.2213 44.327C43.2832 44.4323 43.3148 44.5534 43.3148 44.6916C43.3148 44.7838 43.3029 44.8706 43.2792 44.9522C43.2411 45.1089 43.1581 45.3116 43.0292 45.5643C42.9015 45.817 42.7527 46.1053 42.5829 46.4304C42.4131 46.7555 42.2328 47.1056 42.0433 47.4821C41.8537 47.8572 41.6774 48.2468 41.5155 48.6496C41.3536 49.0524 41.214 49.4631 41.0982 49.879C40.9824 50.2962 40.9166 50.7016 40.9008 51.0952C40.9008 51.2597 40.9389 51.4111 41.0166 51.5493C41.0943 51.6862 41.2219 51.756 41.3996 51.756C41.9024 51.756 42.3816 51.5914 42.8383 51.2611C43.295 50.932 43.7162 50.5213 44.1032 50.0317C44.4902 49.542 44.8403 49.0155 45.1536 48.4509C45.4669 47.8875 45.7288 47.3728 45.9368 46.9056C46.0842 46.5936 46.2132 46.2593 46.3251 45.9026C46.4369 45.5459 46.5593 45.2155 46.691 44.9128C46.8226 44.61 46.9726 44.3586 47.1438 44.1572C47.3136 43.9558 47.5268 43.8545 47.7821 43.8545C48.0599 43.8545 48.281 43.9598 48.4429 44.1704C48.6048 44.381 48.6864 44.6337 48.6864 44.9259C48.6864 45.0905 48.6351 45.3182 48.5298 45.6064C48.4245 45.8947 48.2942 46.2251 48.1349 46.5962C47.977 46.9674 47.8045 47.3636 47.6189 47.7848C47.4333 48.206 47.2609 48.6351 47.103 49.0695C46.9437 49.5052 46.8134 49.9303 46.7081 50.3476C46.6041 50.7648 46.5514 51.1518 46.5514 51.5085C46.5514 51.8389 46.7212 52.0034 47.0622 52.0034C47.3017 52.0034 47.5992 51.9205 47.9559 51.756C48.3126 51.5914 48.6851 51.3598 49.076 51.0623C49.467 50.7648 49.8566 50.4147 50.2475 50.0106C50.6384 49.6078 50.9846 49.1722 51.286 48.7049L51.4005 50.5727V50.5727Z" fill="white" stroke="white" stroke-width="0.177465" stroke-miterlimit="10"/>
<path d="M51.7615 49.8854C51.6759 50.096 51.593 50.3408 51.5114 50.6212C51.4298 50.9002 51.3903 51.1503 51.3903 51.3701C51.3903 51.507 51.414 51.6176 51.46 51.7005C51.5061 51.7834 51.5956 51.8242 51.7272 51.8242C51.8891 51.8242 52.0918 51.7676 52.3367 51.6518C52.5802 51.5373 52.8434 51.3859 53.1251 51.1977C53.4081 51.0108 53.7016 50.7949 54.007 50.5514C54.3124 50.3092 54.6164 50.0565 54.9178 49.7959C55.2193 49.5339 55.5075 49.2733 55.7826 49.0127C56.0577 48.7508 56.3025 48.5112 56.5197 48.2914C56.5816 48.2269 56.6553 48.1808 56.7395 48.1545C56.8238 48.1269 56.8975 48.1137 56.9593 48.1137C57.1133 48.1137 57.2423 48.1782 57.3424 48.3059C57.4424 48.4335 57.4924 48.6033 57.4924 48.8139C57.4924 49.0061 57.4385 49.222 57.3305 49.4602C57.2226 49.6985 57.033 49.9328 56.7619 50.1605C56.267 50.7014 55.7681 51.2135 55.2653 51.6992C54.7625 52.1849 54.2623 52.6126 53.7635 52.9838C53.2646 53.355 52.7697 53.6499 52.2787 53.871C51.7878 54.0908 51.31 54.2 50.8453 54.2C50.5281 54.2 50.2636 54.15 50.0503 54.0487C49.8371 53.9473 49.6673 53.8104 49.5396 53.6367C49.4119 53.463 49.3211 53.2563 49.2672 53.0181C49.2132 52.7798 49.1855 52.5284 49.1855 52.2625C49.1855 51.8137 49.2421 51.353 49.354 50.8818C49.4659 50.4106 49.5988 49.9775 49.7542 49.584C50.0253 48.8692 50.2991 48.1598 50.5781 47.4543C50.8559 46.7487 51.1112 46.1025 51.3442 45.5167L54.8586 36.6531C54.9981 36.2964 55.185 36.0437 55.422 35.8975C55.6576 35.7514 55.8958 35.6777 56.1354 35.6777C56.3749 35.6777 56.5934 35.7554 56.7909 35.9107C56.9883 36.066 57.087 36.3188 57.087 36.6662C57.087 36.8308 57.0541 37.0058 56.9883 37.1888C56.9225 37.3718 56.8396 37.5692 56.7395 37.7798C56.546 38.2102 56.3157 38.7367 56.0498 39.3593C55.7826 39.9819 55.497 40.6598 55.1916 41.3929C54.8862 42.1261 54.573 42.8882 54.2518 43.6806C53.9306 44.4729 53.6174 45.2443 53.312 45.9958C53.0066 46.7474 52.721 47.4595 52.4538 48.1321C52.184 48.806 51.9536 49.3905 51.7615 49.8854V49.8854Z" fill="white" stroke="white" stroke-width="0.177465" stroke-miterlimit="10"/>
<path d="M68.1994 47.3961C68.3074 47.3224 68.4087 47.2632 68.5008 47.2171C68.593 47.171 68.6825 47.1487 68.768 47.1487C68.9378 47.1487 69.0655 47.225 69.1511 47.375C69.2366 47.5264 69.2788 47.712 69.2788 47.9318C69.2788 48.1701 69.2274 48.4123 69.1221 48.6597C69.0181 48.9072 68.8615 49.1125 68.6522 49.2784C67.8243 50.0115 67.0859 50.6802 66.437 51.2843C65.7867 51.8885 65.1747 52.4084 64.5982 52.8441C64.0216 53.2798 63.4596 53.6154 62.9107 53.8536C62.3618 54.0919 61.7735 54.2104 61.1469 54.2104C60.5586 54.2104 60.1045 54.0814 59.7833 53.826C59.4621 53.5693 59.3016 53.2166 59.3016 52.7677V52.6651C59.3016 52.6335 59.3055 52.594 59.3134 52.5479C59.3437 52.2728 59.4648 51.9569 59.6727 51.6002C59.882 51.2435 60.1334 50.8723 60.4269 50.4867C60.7205 50.101 61.0337 49.7127 61.3668 49.3192C61.6998 48.9256 62.0065 48.5518 62.2894 48.199C62.5711 47.8463 62.8054 47.5238 62.991 47.2303C63.1766 46.9367 63.2701 46.6998 63.2701 46.5155C63.2701 46.405 63.2306 46.3181 63.1542 46.2549C63.0766 46.1904 62.9489 46.1588 62.7712 46.1588C62.4619 46.1588 62.1433 46.2391 61.8143 46.3997C61.4852 46.5603 61.1601 46.7748 60.8403 47.0447C60.5191 47.3145 60.2058 47.6238 59.9004 47.9726C59.5951 48.3214 59.3095 48.6821 59.0423 49.0585C58.7751 49.435 58.5315 49.8114 58.3117 50.1918C58.0919 50.5722 57.9037 50.9223 57.7497 51.2435C57.7036 51.3449 57.6378 51.487 57.5523 51.67C57.4667 51.8529 57.3746 52.0596 57.2745 52.2886C57.1732 52.5176 57.0679 52.7533 56.9547 52.9954C56.8428 53.239 56.7401 53.468 56.648 53.6825C56.5545 53.8984 56.4716 54.0893 56.3979 54.2604C56.3242 54.4302 56.2715 54.546 56.2413 54.6105C56.2018 54.6934 56.1386 54.8487 56.0491 55.0778C55.9596 55.3068 55.8582 55.574 55.7411 55.882C55.6253 56.1887 55.5028 56.5112 55.3765 56.8508C55.2488 57.1903 55.129 57.5102 55.0171 57.8129C54.9053 58.1157 54.8065 58.3802 54.721 58.6093C54.6354 58.8383 54.5815 58.9936 54.5578 59.0765C54.4801 59.3148 54.3893 59.5385 54.2853 59.7505C54.1813 59.9611 54.0616 60.1467 53.926 60.3072C53.7904 60.4678 53.6364 60.5955 53.4613 60.6916C53.2876 60.7877 53.0915 60.8351 52.8756 60.8351C52.5966 60.8351 52.3675 60.7679 52.1846 60.6363C52.0029 60.5034 51.9121 60.2493 51.9121 59.8742C51.9121 59.6912 51.9358 59.503 51.9819 59.3108C52.0279 59.1187 52.0872 58.9278 52.1556 58.7409C52.2254 58.5527 52.2965 58.3697 52.3702 58.192C52.4439 58.013 52.511 57.8419 52.5729 57.676C52.9901 56.7599 53.4166 55.8412 53.8496 54.9211C54.2827 53.9998 54.6986 53.0889 55.0961 52.186C55.4949 51.2843 55.8635 50.3972 56.2044 49.5271C56.544 48.6571 56.827 47.8226 57.0508 47.0262C57.1126 46.8617 57.1982 46.6274 57.3061 46.3247C57.414 46.0219 57.5378 45.7245 57.6773 45.4309C57.8168 45.1374 57.9735 44.8834 58.1472 44.6688C58.3209 44.453 58.5092 44.3463 58.7092 44.3463C59.0186 44.3463 59.2423 44.4174 59.3818 44.5596C59.5214 44.7017 59.5911 44.9097 59.5911 45.1848C59.5911 45.2401 59.5832 45.327 59.5674 45.4454C59.5516 45.5639 59.5319 45.6902 59.5095 45.8232C59.4858 45.9561 59.4608 46.0825 59.4345 46.2009C59.4069 46.3194 59.3818 46.4063 59.3595 46.4616C59.6451 46.1496 59.9544 45.8416 60.2874 45.5336C60.6204 45.2269 60.964 44.9492 61.3207 44.7017C61.6761 44.4543 62.0394 44.2529 62.4105 44.0963C62.7817 43.9409 63.1529 43.8633 63.5241 43.8633C63.7794 43.8633 64.0322 43.9001 64.2836 43.9738C64.535 44.0476 64.7587 44.1542 64.9562 44.2963C65.1536 44.4385 65.3142 44.6175 65.4379 44.832C65.5617 45.0479 65.6235 45.2967 65.6235 45.581C65.6235 45.9574 65.5287 46.3576 65.3392 46.784C65.1497 47.2105 64.9114 47.6383 64.6258 48.0687C64.3389 48.4991 64.0295 48.919 63.6978 49.3257C63.3648 49.7338 63.0542 50.105 62.7633 50.4393C62.4737 50.7736 62.2302 51.0579 62.0328 51.2909C61.8353 51.5252 61.7327 51.6831 61.7248 51.7648C61.7248 51.8753 61.7603 51.9635 61.8288 52.0333C61.8972 52.103 62.0144 52.1359 62.1776 52.1359C62.3092 52.1359 62.5027 52.0622 62.758 51.9161C63.0134 51.77 63.3714 51.516 63.8308 51.154C64.2902 50.792 64.8746 50.3063 65.5827 49.6969C66.2909 49.0888 67.1635 48.3214 68.1994 47.3961V47.3961Z" fill="white" stroke="white" stroke-width="0.177465" stroke-miterlimit="10"/>
<defs>
<radialGradient id="paint0_radial_1024_11527" cx="0" cy="0" r="1" gradientUnits="userSpaceOnUse" gradientTransform="translate(47.1201 47.4326) rotate(90) scale(47.04)">
<stop stop-color="#333944"/>
<stop offset="1" stop-color="#222428"/>
</radialGradient>
</defs>
</svg>
