<svg width="95" height="95" viewBox="0 0 95 95" fill="none" xmlns="http://www.w3.org/2000/svg">
<rect x="1.07239" y="1.35169" width="92.736" height="92.736" rx="13.44" fill="url(#paint0_radial_1024_11491)"/>
<rect x="1.07239" y="1.35169" width="92.736" height="92.736" rx="13.44" stroke="#6886C3" stroke-width="1.344"/>
<path d="M63.6844 51.2284C70.2465 51.2284 75.5661 46.3521 75.5661 40.3369C75.5661 34.3216 70.2465 29.4453 63.6844 29.4453C57.1223 29.4453 51.8027 34.3216 51.8027 40.3369C51.8027 46.3521 57.1223 51.2284 63.6844 51.2284Z" fill="#B03931"/>
<path d="M77.223 31.8703C79.3315 31.8703 81.0407 30.3035 81.0407 28.3707C81.0407 26.4379 79.3315 24.8711 77.223 24.8711C75.1145 24.8711 73.4053 26.4379 73.4053 28.3707C73.4053 30.3035 75.1145 31.8703 77.223 31.8703Z" fill="#B03931"/>
<path d="M15.3192 26.0642C14.4919 26.1665 13.8436 26.8268 13.8408 27.626L13.893 68.4343C13.893 69.0523 14.0602 70.3268 15.7988 70.3268L31.4272 70.2645C35.8944 70.2565 38.8866 70.1801 40.6685 69.9548C40.6789 69.9549 40.7004 69.9548 40.7108 69.9547C42.4161 69.7179 44.2224 69.2814 46.1865 68.6437C49.6008 67.5762 52.6285 65.9989 55.2318 63.8922C57.7806 61.8514 59.7558 59.4351 61.1441 56.717C62.5322 53.9989 63.232 51.1249 63.2268 48.1455C63.2194 43.9983 61.9648 40.115 59.4477 36.6213C56.9302 33.1274 53.494 30.4518 49.2653 28.6798C44.9662 26.8572 39.3609 26.0268 32.4068 26.0392L15.5307 26.0639C15.4581 26.0643 15.3893 26.0555 15.3192 26.0642ZM24.4025 34.4613L31.6774 34.4507C35.0773 34.4446 37.4961 34.5479 38.8681 34.7363C40.259 34.9274 41.7822 35.3306 43.3954 35.9538C44.9942 36.5629 46.388 37.3091 47.5856 38.2378C50.8805 40.7995 52.4337 43.8313 52.4408 47.8454C52.4481 51.9556 50.9471 55.1572 47.7376 57.8421C46.7503 58.6571 45.6524 59.3481 44.4412 59.92C43.2963 60.4531 41.803 60.9126 39.9172 61.3086C38.1388 61.6643 35.4388 61.8668 31.924 61.873L24.4376 61.884L24.4025 34.4613Z" fill="#B03931"/>
<defs>
<radialGradient id="paint0_radial_1024_11491" cx="0" cy="0" r="1" gradientUnits="userSpaceOnUse" gradientTransform="translate(47.4404 47.7197) rotate(90) scale(47.04)">
<stop stop-color="#333944"/>
<stop offset="1" stop-color="#222428"/>
</radialGradient>
</defs>
</svg>
