<svg width="96" height="95" viewBox="0 0 96 95" fill="none" xmlns="http://www.w3.org/2000/svg">
<rect x="1.64856" y="0.929812" width="92.736" height="92.736" rx="13.44" fill="url(#paint0_radial_1024_11447)"/>
<rect x="1.64856" y="0.929812" width="92.736" height="92.736" rx="13.44" stroke="#6886C3" stroke-width="1.344"/>
<g clip-path="url(#clip0_1024_11447)">
<path d="M48.0175 80.8983C66.5746 80.8983 81.618 65.8548 81.618 47.2978C81.618 28.7407 66.5746 13.6973 48.0175 13.6973C29.4605 13.6973 14.417 28.7407 14.417 47.2978C14.417 65.8548 29.4605 80.8983 48.0175 80.8983Z" fill="#60B57D"/>
<path d="M45.3451 29.2218C45.536 29.3805 45.6569 29.6078 45.6817 29.8548C45.7066 30.1018 45.6334 30.3487 45.4779 30.5422C45.3224 30.7357 45.0971 30.8604 44.8506 30.8894C44.6041 30.9183 44.356 30.8493 44.1599 30.697C41.6932 28.7159 39.6386 28.0615 38.3715 28.7086C36.8968 29.4607 36.3248 31.8804 36.6225 35.2569L36.6671 35.7129C36.6923 35.9436 36.7212 36.1783 36.7537 36.4169L36.8243 36.8996C36.912 37.464 37.0199 38.0483 37.1485 38.6505C38.9249 38.3749 40.8367 38.1951 42.8443 38.1203C43.6844 37.0385 44.567 35.9904 45.49 34.9784L45.9357 34.498C47.0503 33.3134 48.1683 32.2529 49.2684 31.3352L49.7076 30.9755C53.7225 27.7507 57.4595 26.4747 59.8763 28.0439C61.9815 29.4097 62.5459 32.5036 61.7637 36.6495C61.7426 36.7734 61.697 36.8918 61.6296 36.9979C61.5622 37.104 61.4744 37.1956 61.3712 37.2674C61.2681 37.3391 61.1516 37.3896 61.0287 37.4159C60.9058 37.4422 60.7789 37.4437 60.6554 37.4204C60.5319 37.3971 60.4143 37.3495 60.3094 37.2803C60.2046 37.211 60.1145 37.1216 60.0446 37.0172C59.9746 36.9127 59.9262 36.7954 59.9021 36.6721C59.878 36.5488 59.8787 36.4218 59.9041 36.2988C60.5591 32.8267 60.1278 30.4629 58.8462 29.6313C57.1799 28.5498 54.084 29.7948 50.5933 32.7028L50.2037 33.0328C50.0051 33.2039 49.8086 33.3773 49.6141 33.553L49.2178 33.9161C48.8095 34.2965 48.4095 34.6856 48.0179 35.0831L47.6149 35.4971C47.5477 35.5669 47.4805 35.6375 47.4131 35.7084L47.0088 36.1408L46.6046 36.5846L46.2001 37.0403C46.0651 37.1942 45.9302 37.3498 45.7958 37.5076L45.3916 37.9859L45.3131 38.0812C46.2544 38.0861 47.2123 38.1134 48.1827 38.1638L48.5594 38.1848L49.3081 38.2326C49.9294 38.2762 50.5436 38.3287 51.15 38.3899L51.874 38.4673C51.994 38.4809 52.1137 38.4949 52.2331 38.509L52.9447 38.5985C53.5346 38.6765 54.1155 38.7626 54.6864 38.8568L55.3668 38.9734L56.0375 39.0976L56.6977 39.2291C58.8817 39.6795 60.8898 40.2497 62.6591 40.918L63.183 41.1214C67.8303 42.9784 70.6942 45.5346 70.5472 48.3601C70.4254 50.6959 68.3317 52.6242 64.8221 54.0057C64.7059 54.0539 64.5814 54.0784 64.4556 54.0779C64.3299 54.0774 64.2056 54.0518 64.0898 54.0027C63.9741 53.9536 63.8693 53.8819 63.7816 53.7919C63.6939 53.7018 63.625 53.5951 63.579 53.4782C63.5329 53.3612 63.5106 53.2362 63.5135 53.1105C63.5163 52.9848 63.5441 52.8609 63.5953 52.7461C63.6465 52.6313 63.7201 52.5278 63.8117 52.4418C63.9034 52.3557 64.0113 52.2888 64.1291 52.2449C67.0229 51.1056 68.5839 49.6679 68.6572 48.2617C68.7512 46.4615 66.5971 44.5996 63.0116 43.0978L62.5653 42.9156C62.2635 42.7954 61.9519 42.6778 61.6316 42.5631L61.1444 42.3927C60.9801 42.3368 60.8134 42.2814 60.6446 42.2268L60.1317 42.0654L59.6067 41.9084C59.5182 41.8827 59.4293 41.8572 59.3397 41.8318L58.7969 41.6821C58.7055 41.6577 58.6137 41.6333 58.5213 41.6092L57.9614 41.4674C57.3825 41.325 56.801 41.1939 56.2171 41.0742L55.6151 40.9545L55.3106 40.8967L54.6943 40.7865L54.069 40.682L53.753 40.6321L53.1146 40.5376C52.9004 40.5072 52.6849 40.478 52.468 40.45L51.8131 40.3688L51.1508 40.2948C50.8154 40.2595 50.4796 40.2271 50.1436 40.1977L49.4637 40.1418C49.2359 40.1245 49.007 40.1087 48.777 40.094L48.0843 40.0536L47.3913 40.0218L46.7035 39.9982C45.9168 39.9759 45.1298 39.97 44.3429 39.9803L43.8021 39.9903L43.5895 40.2722C43.4567 40.4504 43.3251 40.6293 43.1944 40.8091L42.8017 41.3556C42.2044 42.1977 41.6297 43.0556 41.0782 43.9283L40.7138 44.5121C40.3315 45.133 39.9611 45.7611 39.6029 46.3961C39.6352 46.4754 39.668 46.5549 39.7013 46.6345L39.9586 47.2419C40.0022 47.3435 40.0463 47.4451 40.0909 47.5469L40.3628 48.1588L40.6448 48.7736L40.9367 49.3902L41.2385 50.0086L41.5499 50.6287L41.8688 51.245L42.1925 51.8524L42.5203 52.4509L42.6857 52.7465L43.0196 53.3311C43.1314 53.5243 43.244 53.7159 43.3569 53.906L43.6976 54.4709C43.8118 54.6572 43.9263 54.8423 44.0415 55.0255L44.388 55.5702L44.7369 56.1041C45.0239 56.5378 45.3176 56.9669 45.6178 57.3914L45.973 57.8865C46.2066 58.2081 46.4443 58.5266 46.6862 58.842L47.0437 59.3014L47.4015 59.749C47.4611 59.8225 47.521 59.8954 47.5805 59.9679L47.9381 60.3963L48.2951 60.8118C48.6412 61.2091 48.9965 61.5982 49.3608 61.9789L49.7131 62.3404L50.0633 62.6879C50.2347 62.8551 50.4084 63.02 50.5843 63.1825L50.9282 63.4938C51.0961 63.6428 51.2663 63.7892 51.4388 63.9329L51.7748 64.2065C54.0593 66.0243 56.0834 66.7585 57.4274 66.0728C58.6893 65.4297 59.2917 63.5507 59.2471 60.8866L59.2358 60.4811C59.2302 60.342 59.2231 60.2031 59.2145 60.0642L59.1836 59.6363C59.1715 59.4899 59.158 59.3436 59.1431 59.1974L59.0927 58.748C59.0835 58.6719 59.074 58.5957 59.0641 58.5197L58.9995 58.0553L58.925 57.5815L58.841 57.0985C58.765 56.6816 58.6811 56.2661 58.5893 55.8524L58.4717 55.3395L58.3446 54.8189C58.3226 54.7315 58.3 54.6439 58.2774 54.5559L58.1359 54.0244L57.985 53.4857L57.9057 53.214L57.7403 52.6659L57.5655 52.1118C57.4757 51.833 57.3823 51.5524 57.2854 51.2697L57.0867 50.7019L56.8786 50.1291C56.7349 49.7411 56.5867 49.3547 56.4339 48.9702L56.1971 48.3848L55.9511 47.796L55.8246 47.5004L55.5645 46.9069L55.2946 46.3105C55.249 46.211 55.2028 46.1113 55.1563 46.0115L54.8728 45.412C54.8245 45.3117 54.776 45.2115 54.7271 45.1114C54.6702 44.9995 54.6361 44.8773 54.6269 44.752C54.6177 44.6268 54.6335 44.5009 54.6735 44.3818C54.7134 44.2628 54.7766 44.1528 54.8595 44.0584C54.9423 43.964 55.0431 43.8871 55.156 43.832C55.2689 43.777 55.3916 43.745 55.517 43.7379C55.6424 43.7307 55.768 43.7486 55.8864 43.7905C56.0048 43.8324 56.1137 43.8975 56.2067 43.9819C56.2997 44.0663 56.375 44.1684 56.4281 44.2822L56.7421 44.9358C56.845 45.1532 56.9463 45.3705 57.0455 45.5873L57.339 46.2368C57.6229 46.8754 57.8953 47.5192 58.1559 48.1677L58.4071 48.8045C58.4483 48.9103 58.4887 49.0161 58.5289 49.1216L58.7641 49.7524C58.8024 49.8572 58.8402 49.9616 58.8777 50.0661L59.0969 50.6898C59.2376 51.0987 59.3728 51.5095 59.5025 51.922L59.6889 52.5297C61.9201 59.987 61.634 66.0524 58.2871 67.7589C55.58 69.1396 51.7414 67.2218 47.8777 63.1767L47.4779 62.7509C47.2066 62.4565 46.9402 62.1577 46.6789 61.8545L46.2804 61.3846C45.2183 60.113 44.1659 58.6921 43.1467 57.146L42.766 56.5604C41.7839 55.0244 40.8731 53.4439 40.0366 51.8241L39.8641 51.4883C39.75 51.2647 39.6373 51.0403 39.526 50.8153L39.1987 50.1436C38.9436 49.6124 38.6963 49.0775 38.4568 48.5392L38.3041 48.8413C38.2568 48.9358 38.2103 49.0303 38.1641 49.1248L37.8917 49.6884L37.63 50.248L37.3785 50.803C37.3375 50.8951 37.2971 50.9872 37.2569 51.0788L37.0217 51.6267C36.9834 51.7175 36.9456 51.8078 36.9081 51.8984L36.6886 52.4381C36.6529 52.5273 36.6178 52.6166 36.5831 52.7056L36.3799 53.2358C36.3471 53.3237 36.3146 53.4114 36.2828 53.4988L36.0959 54.0194L35.92 54.5328C35.8347 54.7874 35.7539 55.0397 35.677 55.2888L35.5286 55.7831L35.3916 56.269C35.3698 56.3493 35.3483 56.4291 35.3273 56.5087L35.2071 56.9812C35.1143 57.3592 35.0306 57.7394 34.9561 58.1215L34.8755 58.5598C34.34 61.6652 34.6892 63.9553 36.0161 64.8165C37.3528 65.6836 39.831 65.0239 42.8891 62.8163C42.9897 62.7413 43.1043 62.6871 43.226 62.6568C43.3478 62.6265 43.4743 62.6207 43.5983 62.6398C43.7223 62.6589 43.8413 62.7024 43.9483 62.7679C44.0554 62.8334 44.1483 62.9195 44.2218 63.0212C44.2952 63.1229 44.3477 63.2382 44.3761 63.3604C44.4046 63.4826 44.4085 63.6092 44.3876 63.733C44.3666 63.8567 44.3213 63.975 44.2543 64.081C44.1872 64.187 44.0997 64.2787 43.9969 64.3506C40.3726 66.9672 37.1685 67.8198 34.9861 66.4039C32.349 64.6926 32.1637 60.1676 33.9187 54.5383L34.1009 53.9719C34.2264 53.5918 34.3605 53.2072 34.5031 52.8182L34.723 52.232C35.0347 51.4225 35.3695 50.6222 35.7271 49.832L36.0085 49.2203L36.3017 48.6045C36.6839 47.8165 37.0849 47.0378 37.5045 46.2691C37.4478 46.1242 37.3916 45.9795 37.3362 45.8351L37.0913 45.1855C36.7799 44.3436 36.4913 43.4934 36.2261 42.6358L36.0387 42.0126C35.9246 41.6234 35.8161 41.2326 35.7132 40.8403C35.5964 40.8637 35.4809 40.8875 35.3662 40.9117L34.8517 41.0248L34.3495 41.1437C34.2668 41.164 34.1849 41.1844 34.1033 41.2052L33.6203 41.332L33.1512 41.4643C32.9968 41.5091 32.8448 41.5551 32.6955 41.6015L32.2537 41.7438C32.1088 41.7921 31.9663 41.8412 31.8263 41.8911L31.4137 42.0431C28.5779 43.1227 26.8507 44.5394 26.7701 46.0824C26.6968 47.4889 28.1004 49.081 30.8609 50.5142C30.9732 50.5702 31.0734 50.6481 31.1554 50.7432C31.2374 50.8383 31.2996 50.9488 31.3385 51.0682C31.3773 51.1876 31.3921 51.3136 31.3818 51.4387C31.3715 51.5639 31.3364 51.6857 31.2785 51.7972C31.2206 51.9086 31.1412 52.0074 31.0447 52.0879C30.9483 52.1683 30.8368 52.2287 30.7167 52.2656C30.5967 52.3025 30.4705 52.3152 30.3456 52.3028C30.2206 52.2905 30.0993 52.2534 29.9888 52.1937C26.6412 50.4554 24.7585 48.32 24.8806 45.9842C25.0499 42.7277 29.1607 40.2421 35.2748 38.987C34.0374 33.0742 34.6671 28.4737 37.5113 27.0231C39.6137 25.95 42.3602 26.8244 45.3448 29.222L45.3451 29.2218ZM50.5303 46.8227C50.8442 48.2759 49.9207 49.7075 48.4678 50.022C47.0146 50.336 45.5829 49.4125 45.2684 47.9593C44.955 46.5064 45.878 45.0747 47.3312 44.7602C48.7841 44.4463 50.2158 45.3697 50.5303 46.8227ZM41.3695 40.1011L41.1989 40.1129C41.0684 40.1224 40.9385 40.1321 40.8094 40.1426L40.1938 40.1956L39.5874 40.2554C39.4871 40.2659 39.3874 40.277 39.2879 40.288L38.6957 40.3581L38.4035 40.3956L37.8266 40.4754L37.5977 40.5103L37.6785 40.8125C37.8079 41.2821 37.9451 41.7496 38.0901 42.2147L38.2723 42.787L38.3673 43.0757L38.5647 43.6567C38.6191 43.8134 38.6744 43.9706 38.7309 44.1286C39.0336 43.6251 39.3434 43.1259 39.6601 42.6311L39.8649 42.314C40.3504 41.5655 40.852 40.8278 41.3695 40.1011Z" fill="white"/>
</g>
<defs>
<radialGradient id="paint0_radial_1024_11447" cx="0" cy="0" r="1" gradientUnits="userSpaceOnUse" gradientTransform="translate(48.0166 47.2978) rotate(90) scale(47.04)">
<stop stop-color="#333944"/>
<stop offset="1" stop-color="#222428"/>
</radialGradient>
<clipPath id="clip0_1024_11447">
<rect width="67.2" height="67.2" fill="white" transform="translate(14.417 13.6973)"/>
</clipPath>
</defs>
</svg>
