<svg width="95" height="95" viewBox="0 0 95 95" fill="none" xmlns="http://www.w3.org/2000/svg">
<rect x="1.22473" y="1.35169" width="92.736" height="92.736" rx="13.44" fill="url(#paint0_radial_1024_11487)"/>
<rect x="1.22473" y="1.35169" width="92.736" height="92.736" rx="13.44" stroke="#6886C3" stroke-width="1.344"/>
<g clip-path="url(#clip0_1024_11487)">
<path fill-rule="evenodd" clip-rule="evenodd" d="M68.5905 61.8213L62.9986 58.1425L58.3388 65.9171L52.9186 64.3475L48.1362 71.6315L48.3814 73.9124L74.3294 69.1299L72.8334 52.9431L68.5905 61.8213ZM44.3838 54.8315L48.5531 54.2675C49.2153 54.5618 49.6813 54.6844 50.5151 54.8806C51.3117 55.1431 52.1537 55.2393 52.9889 55.1634C53.8242 55.0874 54.635 54.8409 55.3712 54.4391C55.8617 54.1939 56.9163 53.2129 57.3332 52.6978L74.403 49.5831L76.1198 70.675L46.9344 75.9235L44.3838 54.8315ZM76.0708 47.2286L74.3785 47.572L71.1411 14.1191L16.0322 20.4958L22.8258 75.6783L29.2515 74.6972C28.7365 73.9615 27.9271 73.0786 26.5537 71.9504C24.6652 70.3562 25.3274 67.6829 26.4556 65.9907C27.9271 63.1212 35.5791 59.4914 35.1376 54.9051C34.9905 53.2619 34.7207 51.0791 33.1756 49.6076C33.1265 50.2207 33.2246 50.8339 33.2246 50.8339C33.2246 50.8339 32.587 50 32.2681 48.8964C31.9738 48.4794 31.7286 48.3568 31.3852 47.7927C31.14 48.4304 31.189 49.1907 31.189 49.1907C31.189 49.1907 30.6495 47.9644 30.5759 46.9343C30.3579 47.3539 30.2246 47.8122 30.1835 48.2832C30.1835 48.2832 29.5213 46.3212 29.693 45.3156C29.3741 44.4082 28.4667 42.6178 28.7119 38.5221C30.4042 39.6993 34.1076 39.4295 35.53 37.2958C36.0205 36.5845 36.3394 34.6715 35.2848 30.8701C34.6226 28.4421 32.9549 24.8368 32.3172 23.4634L32.2436 23.5124C32.7108 25.0149 33.1442 26.5277 33.5435 28.0497C34.4019 31.4832 34.6471 32.6605 34.2302 34.2301C33.9113 35.6035 33.1265 36.4864 31.14 37.492C29.1534 38.473 26.5046 36.045 26.333 35.9223C24.6276 34.5728 23.3777 32.7322 22.7522 30.6494C22.5805 29.3005 23.5125 28.5156 23.9785 27.412C23.4936 27.5622 23.0186 27.7424 22.556 27.9515C22.556 27.9515 23.4635 27.0196 24.5671 26.2348C25.0576 25.9159 25.3029 25.7197 25.7934 25.3028H24.5181C24.5181 25.3028 25.6953 24.6897 26.9216 24.2237C26.0141 24.1746 25.1557 24.2237 25.1557 24.2237C25.1557 24.2237 27.78 23.0464 29.8646 22.188C31.2871 21.5994 32.6851 21.7711 33.4699 22.8993C34.4754 24.3708 35.5546 25.1802 37.86 25.6707C39.2579 25.0575 39.6749 24.7387 41.4407 24.2482C42.9858 22.5314 44.2121 22.3352 44.2121 22.3352C44.2121 22.3352 43.5989 22.8748 43.4518 23.7577C44.3347 23.071 45.2912 22.4824 45.2912 22.4824C45.2912 22.4824 44.9233 22.9483 44.5554 23.6841L44.6535 23.8067C45.373 23.3914 46.1185 23.0227 46.8854 22.7031L46.1496 23.6841C46.9099 23.6841 48.4795 23.7332 49.0927 23.8067C52.6979 23.8803 53.4337 19.9562 54.8071 19.4657C56.5239 18.8526 57.3087 18.4847 60.2518 21.3787C62.7779 23.8313 64.7645 28.2949 63.7835 29.3005C62.9496 30.1098 61.3309 28.9816 59.5405 26.7253C58.5141 25.4621 57.8224 23.9607 57.5294 22.3597C57.2597 20.8637 56.156 19.9807 56.156 19.9807C56.156 19.9807 56.7937 21.4032 56.7937 22.6786C56.7937 23.3653 56.8673 25.9159 57.9709 27.3629C57.8728 27.5837 57.8238 28.4175 57.7011 28.5892C56.4258 27.0196 53.6544 25.8914 53.213 25.5971C54.7335 26.8234 58.2162 29.6929 59.5896 32.4397C60.8404 35.0394 60.0801 37.4184 60.7423 38.0315C60.914 38.2032 63.4646 41.367 63.9551 42.9857C64.8135 45.7571 64.0042 48.6756 62.876 50.4905L59.7613 50.981C59.2953 50.8584 59.001 50.7848 58.584 50.5396C58.8712 50.0352 59.1015 49.5006 59.2708 48.9454L59.0991 48.6266C58.0201 50.0407 56.6692 51.2248 55.1259 52.1092C54.34 52.5217 53.4796 52.7733 52.5953 52.8491C51.7109 52.9249 50.8203 52.8234 49.9756 52.5507C47.0254 51.5405 44.2588 50.0579 41.784 48.1606C41.784 48.1606 41.784 48.7002 41.9312 48.8228C42.8632 49.9019 45.0459 51.8394 47.1551 53.1883L42.667 53.6788L44.8007 70.2091C43.8442 70.3562 43.697 70.4298 42.667 70.5769C42.0149 67.9154 40.398 65.5906 38.1297 64.0532C36.2534 62.9935 34.0472 62.6784 31.9493 63.1702L31.8267 63.3174C33.3473 63.1702 35.1622 63.391 37.0261 64.5682C38.8655 65.7209 40.337 68.7375 40.8766 70.5034C41.5878 72.8088 42.0538 75.2613 40.1899 77.861C38.8655 79.725 34.9659 80.755 31.8512 78.5477C32.6605 79.8967 33.8132 81.0003 35.3338 81.1965C37.5902 81.5153 39.7484 81.1229 41.22 79.6023C42.4953 78.3025 43.1575 75.5802 42.9858 72.7352L44.9724 72.4409L45.7081 77.5667L78.8176 73.5691L76.0953 47.2532L76.0708 47.2286ZM55.9598 33.2981C55.8372 33.5188 55.7146 33.6415 55.9108 34.3282V34.3772L55.9598 34.4753L56.0579 34.6715C56.4503 35.4809 56.8918 36.2412 57.603 36.6336C57.7992 36.5845 57.9709 36.56 58.1916 36.56C58.8538 36.5355 59.2953 36.6336 59.5651 36.7807V36.1431C59.516 35.1375 59.7613 33.3962 57.8238 32.4888C57.088 32.1454 56.0334 32.2435 55.69 32.685L55.8617 32.734C56.3767 32.9057 56.0334 33.0774 55.9353 33.2981H55.9598ZM61.429 42.7895C59.359 42.5728 57.2695 42.938 55.3957 43.8441C54.709 44.3837 55.0278 45.3156 55.5429 45.6835C56.9654 46.7626 58.2407 47.4739 59.5405 47.3022C60.3499 47.2041 61.0611 45.9042 61.5762 44.7515C61.9195 43.9422 61.9195 43.0838 61.4045 42.7895H61.429ZM47.2042 34.5734C47.6702 34.132 44.9478 33.5679 42.8632 34.9904C41.3181 36.045 41.269 38.3259 42.7405 39.6012L43.133 39.8955C44.3623 39.304 45.6791 38.9147 47.0325 38.7428C47.3513 38.3994 47.7192 37.7618 47.6211 36.6581C47.4985 35.1375 46.3458 35.3828 47.2042 34.5734Z" fill="white"/>
</g>
<defs>
<radialGradient id="paint0_radial_1024_11487" cx="0" cy="0" r="1" gradientUnits="userSpaceOnUse" gradientTransform="translate(47.5927 47.7197) rotate(90) scale(47.04)">
<stop stop-color="#333944"/>
<stop offset="1" stop-color="#222428"/>
</radialGradient>
<clipPath id="clip0_1024_11487">
<rect width="67.2" height="67.2" fill="white" transform="translate(13.9932 14.1191)"/>
</clipPath>
</defs>
</svg>
