<svg width="95" height="95" viewBox="0 0 95 95" fill="none" xmlns="http://www.w3.org/2000/svg">
<rect x="1.47962" y="1.06458" width="92.736" height="92.736" rx="13.44" fill="url(#paint0_radial_1024_11521)"/>
<rect x="1.47962" y="1.06458" width="92.736" height="92.736" rx="13.44" stroke="#6886C3" stroke-width="1.344"/>
<path fill-rule="evenodd" clip-rule="evenodd" d="M50.1854 15.2967C50.3412 15.6079 50.4341 15.9468 50.4588 16.294C50.4836 16.6411 50.4397 16.9897 50.3297 17.3199C50.2196 17.6501 50.0456 17.9554 49.8176 18.2183C49.5895 18.4812 49.3119 18.6966 49.0006 18.8522L22.8235 31.9407L47.848 44.4529L72.8678 31.9426L63.3082 27.1728L49.0158 34.3114C48.7037 34.474 48.3624 34.5728 48.0118 34.6021C47.6612 34.6314 47.3082 34.5906 46.9735 34.482C46.6388 34.3734 46.329 34.1993 46.0624 33.9698C45.7957 33.7403 45.5773 33.4599 45.4201 33.1451C45.2629 32.8303 45.17 32.4874 45.1467 32.1363C45.1234 31.7852 45.1703 31.433 45.2846 31.1002C45.3989 30.7674 45.5783 30.4607 45.8124 30.198C46.0465 29.9353 46.3305 29.7218 46.648 29.5701L62.1233 21.84C62.4908 21.6565 62.896 21.561 63.3067 21.561C63.7175 21.561 64.1226 21.6565 64.4902 21.84L79.9816 29.5691C80.4221 29.789 80.7925 30.1272 81.0516 30.5458C81.3106 30.9644 81.4478 31.4469 81.448 31.9392C81.4482 32.4314 81.3113 32.914 81.0527 33.3328C80.794 33.7517 80.4238 34.0902 79.9835 34.3104L49.0671 49.7686C48.6754 49.9645 48.2588 50.0539 47.85 50.0491C47.4268 50.055 47.0084 49.9591 46.6299 49.7696L15.7125 34.3104C15.2725 34.0902 14.9024 33.7519 14.6437 33.3333C14.385 32.9147 14.248 32.4323 14.248 31.9402C14.248 31.4481 14.385 30.9658 14.6437 30.5472C14.9024 30.1285 15.2725 29.7902 15.7125 29.5701L46.6299 14.1118C47.2585 13.7975 47.9863 13.7458 48.653 13.968C49.3198 14.1902 49.871 14.6681 50.1854 15.2967ZM14.5695 61.6618C14.7251 61.3505 14.9405 61.0729 15.2034 60.8448C15.4663 60.6167 15.7715 60.4426 16.1017 60.3325C16.4319 60.2224 16.7805 60.1784 17.1276 60.203C17.4748 60.2276 17.8137 60.3204 18.125 60.476L47.8566 75.3427L77.5882 60.476C78.2169 60.1616 78.9448 60.1099 79.6117 60.3322C80.2785 60.5545 80.8298 61.0326 81.1442 61.6613C81.4585 62.2901 81.5102 63.0179 81.288 63.6848C81.0657 64.3517 80.5876 64.9029 79.9588 65.2173L49.0415 80.6755C48.6736 80.8595 48.2679 80.9552 47.8566 80.9552C47.4453 80.9552 47.0396 80.8595 46.6718 80.6755L15.7544 65.2173C15.443 65.0616 15.1654 64.8461 14.9373 64.5831C14.7093 64.3202 14.5352 64.0148 14.4252 63.6845C14.3152 63.3543 14.2713 63.0056 14.2961 62.6583C14.3208 62.3111 14.4138 61.9731 14.5695 61.6618Z" fill="white"/>
<path fill-rule="evenodd" clip-rule="evenodd" d="M14.5698 46.199C14.8843 45.5705 15.4355 45.0925 16.1022 44.8703C16.769 44.6481 17.4967 44.6999 18.1254 45.0142L47.8569 59.88L77.5885 45.0142C78.216 44.7095 78.9383 44.6644 79.5987 44.8888C80.2592 45.1131 80.8046 45.5889 81.1166 46.2127C81.4286 46.8366 81.4821 47.5583 81.2654 48.2214C81.0487 48.8844 80.5794 49.4353 79.9591 49.7545L49.0418 65.2127C48.6738 65.3965 48.2682 65.4921 47.8569 65.4921C47.4456 65.4921 47.04 65.3965 46.6721 65.2127L15.7547 49.7545C15.1261 49.4401 14.6482 48.8889 14.426 48.2222C14.2038 47.5554 14.2555 46.8277 14.5698 46.199Z" fill="white"/>
<defs>
<radialGradient id="paint0_radial_1024_11521" cx="0" cy="0" r="1" gradientUnits="userSpaceOnUse" gradientTransform="translate(47.8476 47.4326) rotate(90) scale(47.04)">
<stop stop-color="#333944"/>
<stop offset="1" stop-color="#222428"/>
</radialGradient>
</defs>
</svg>
