<svg width="95" height="96" viewBox="0 0 95 96" fill="none" xmlns="http://www.w3.org/2000/svg">
<rect x="1.04016" y="1.62512" width="92.736" height="92.736" rx="13.44" fill="url(#paint0_radial_1024_11631)"/>
<rect x="1.04016" y="1.62512" width="92.736" height="92.736" rx="13.44" stroke="#6886C3" stroke-width="1.344"/>
<path d="M71.6721 52.0976C69.3277 52.1099 67.2901 52.6745 65.584 53.5092C64.958 52.2695 64.332 51.1648 64.2216 50.3547C64.0988 49.4096 63.9515 48.8327 64.0988 47.7034C64.2461 46.5742 64.9089 44.9662 64.8966 44.8435C64.8844 44.7208 64.7493 44.1439 63.3992 44.1316C62.049 44.1193 60.8829 44.3893 60.7479 44.7453C60.6129 45.1013 60.3551 45.9114 60.1833 46.746C59.9501 47.9735 57.4829 52.3554 56.0714 54.6507C55.6172 53.7547 55.2245 52.9691 55.1385 52.3431C55.0158 51.398 54.8685 50.8211 55.0158 49.6919C55.1631 48.5626 55.8259 46.9547 55.8136 46.8319C55.8014 46.7092 55.6663 46.1323 54.3162 46.12C52.966 46.1078 51.7999 46.3778 51.6649 46.7337C51.5299 47.0897 51.3826 47.9244 51.1003 48.7345C50.818 49.5446 47.5407 56.8601 46.6815 58.7503C46.2396 59.72 45.8591 60.4933 45.5891 61.0211C45.5891 61.0211 45.5768 61.0579 45.54 61.1193C45.3068 61.5734 45.1718 61.8189 45.1718 61.8189C45.1718 61.8189 45.1718 61.8189 45.1718 61.8312C44.9877 62.1626 44.7913 62.4695 44.6931 62.4695C44.6194 62.4695 44.4844 61.5857 44.7176 60.3828C45.2086 57.842 46.3747 53.8897 46.3624 53.7547C46.3624 53.681 46.5833 52.9937 45.6014 52.6377C44.644 52.2817 44.3003 52.8709 44.2144 52.8709C44.1285 52.8709 44.0671 53.0796 44.0671 53.0796C44.0671 53.0796 45.135 48.6363 42.0295 48.6363C40.0902 48.6363 37.4144 50.7597 36.0888 52.6745C35.2541 53.1287 33.4743 54.0983 31.5718 55.1417C30.8476 55.5467 30.0989 55.9518 29.3992 56.3323C29.3502 56.2832 29.3011 56.2218 29.252 56.1727C25.496 52.159 18.5487 49.3236 18.8433 43.9352C18.9538 41.9713 19.6289 36.8161 32.1855 30.5562C42.5205 25.4623 50.7443 26.8739 52.1681 30.0038C54.2057 34.4717 47.7617 42.7691 37.083 43.972C33.0079 44.4262 30.8722 42.8551 30.3321 42.2659C29.7675 41.6522 29.6816 41.6153 29.4729 41.7381C29.1292 41.9222 29.3502 42.4746 29.4729 42.7937C29.792 43.6283 31.1054 45.1013 33.327 45.8254C35.2909 46.4637 40.0656 46.8197 45.8469 44.5857C52.3154 42.0818 57.3725 35.1222 55.8873 29.2919C54.4021 23.3757 44.5826 21.4241 35.2909 24.7259C29.7675 26.6897 23.7776 29.7829 19.4693 33.8089C14.3509 38.5959 13.5408 42.7569 13.8722 44.4998C15.0628 50.6861 23.5935 54.7121 27.0058 57.6947C26.8339 57.7929 26.6743 57.8788 26.5393 57.9525C24.8332 58.7994 18.3278 62.1994 16.7076 65.7958C14.8664 69.8709 17.0022 72.7922 18.4137 73.1849C22.7957 74.4001 27.3003 72.2153 29.7184 68.6066C32.1364 64.998 31.8418 60.3092 30.7249 58.1612C30.7126 58.1366 30.7003 58.1121 30.6758 58.0875C31.1177 57.8297 31.5718 57.5597 32.0137 57.302C32.8852 56.7864 33.7444 56.3077 34.4808 55.915C34.0635 57.0565 33.7566 58.4189 33.6093 60.3828C33.4252 62.6904 34.3704 65.6853 35.6101 66.8637C36.1624 67.3792 36.8129 67.3915 37.2303 67.3915C38.6786 67.3915 39.3292 66.1886 40.0534 64.7648C40.9371 63.0218 41.735 60.9965 41.735 60.9965C41.735 60.9965 40.7407 66.4709 43.4411 66.4709C44.423 66.4709 45.4173 65.1944 45.8591 64.5438C45.8591 64.5561 45.8591 64.5561 45.8591 64.5561C45.8591 64.5561 45.8837 64.5193 45.9328 64.4333C46.031 64.2738 46.0924 64.1756 46.0924 64.1756C46.0924 64.1756 46.0924 64.1633 46.0924 64.151C46.4851 63.4637 47.3689 61.9048 48.6822 59.3149C50.3761 55.9763 52.0086 51.8031 52.0086 51.8031C52.0086 51.8031 52.1559 52.8218 52.6591 54.5157C52.9537 55.5099 53.5674 56.6023 54.0584 57.6579C53.6656 58.2103 53.4201 58.5171 53.4201 58.5171C53.4201 58.5171 53.4201 58.5171 53.4324 58.5294C53.1133 58.9467 52.7696 59.4009 52.3891 59.8427C51.0512 61.4384 49.4555 63.2673 49.2346 63.7951C48.9768 64.4211 49.0382 64.8752 49.5292 65.2435C49.8851 65.5135 50.5234 65.5503 51.1739 65.5135C52.3768 65.4276 53.2237 65.133 53.6411 64.9489C54.2916 64.7157 55.0526 64.3597 55.7645 63.8319C57.0779 62.8622 57.8757 61.4752 57.8021 59.6464C57.7652 58.6399 57.4338 57.6334 57.0288 56.6882C57.1515 56.5164 57.262 56.3446 57.3847 56.1727C59.4591 53.141 61.067 49.8146 61.067 49.8146C61.067 49.8146 61.2143 50.8334 61.7176 52.5272C61.9631 53.3864 62.4663 54.3193 62.9082 55.2276C60.9566 56.811 59.7537 58.6521 59.3241 59.855C58.5508 62.0889 59.1522 63.0954 60.2938 63.3287C60.8093 63.4391 61.5457 63.1936 62.0858 62.9604C62.7732 62.7395 63.5833 62.359 64.3566 61.7944C65.6699 60.8247 66.9342 59.4745 66.8605 57.6456C66.8237 56.811 66.6028 55.9886 66.2959 55.1908C67.953 54.5034 70.0887 54.1229 72.8136 54.442C78.6562 55.1294 79.81 58.7749 79.589 60.3092C79.3681 61.8435 78.1407 62.6781 77.7356 62.9359C77.3305 63.1936 77.1955 63.2796 77.2324 63.4637C77.2815 63.7337 77.4778 63.7214 77.8215 63.6723C78.3002 63.5864 80.8901 62.4326 81.0006 59.6095C81.1847 56.0009 77.7479 52.0608 71.6721 52.0976ZM26.6007 67.2933C24.6614 69.4045 21.961 70.2023 20.7949 69.5272C19.543 68.803 20.0339 65.6853 22.4151 63.4514C23.8635 62.0889 25.7292 60.8247 26.9689 60.0514C27.2512 59.8796 27.6686 59.6341 28.1718 59.3272C28.2577 59.2781 28.3068 59.2536 28.3068 59.2536C28.405 59.1922 28.5032 59.1308 28.6014 59.0695C29.4729 62.2608 28.6382 65.0716 26.6007 67.2933ZM40.7162 57.6947C40.0411 59.3395 38.6296 63.5496 37.7703 63.3164C37.0339 63.12 36.5797 59.9287 37.6231 56.7742C38.1509 55.1908 39.2678 53.3005 39.9184 52.5641C40.9739 51.3857 42.14 50.9929 42.4223 51.4716C42.7783 52.0976 41.1335 56.6637 40.7162 57.6947ZM52.3645 63.2673C52.0822 63.4146 51.8122 63.5128 51.6895 63.4391C51.6035 63.39 51.8122 63.1936 51.8122 63.1936C51.8122 63.1936 53.2728 61.6225 53.8497 60.9106C54.1811 60.4933 54.5739 60.0023 54.9912 59.45C54.9912 59.4991 54.9912 59.5604 54.9912 59.6095C54.9912 61.4875 53.1746 62.7518 52.3645 63.2673ZM61.3494 61.2175C61.1407 61.0702 61.1775 60.5792 61.8771 59.0449C62.1472 58.4435 62.7855 57.437 63.8779 56.4673C64.0006 56.8601 64.0865 57.2406 64.0743 57.5965C64.062 59.9655 62.3681 60.8492 61.3494 61.2175Z" fill="#CD6799"/>
<defs>
<radialGradient id="paint0_radial_1024_11631" cx="0" cy="0" r="1" gradientUnits="userSpaceOnUse" gradientTransform="translate(47.4082 47.9931) rotate(90) scale(47.04)">
<stop stop-color="#333944"/>
<stop offset="1" stop-color="#222428"/>
</radialGradient>
</defs>
</svg>
