<svg width="96" height="95" viewBox="0 0 96 95" fill="none" xmlns="http://www.w3.org/2000/svg">
<rect x="1.64856" y="1.04895" width="92.736" height="92.736" rx="13.44" fill="url(#paint0_radial_1024_11657)"/>
<rect x="1.64856" y="1.04895" width="92.736" height="92.736" rx="13.44" stroke="#6886C3" stroke-width="1.344"/>
<path d="M14.417 13.8164H81.617V81.0164H14.417V13.8164Z" fill="#017ACB"/>
<path d="M46.6833 38.7025H49.9068V44.2675H41.1918V69.0265L40.9608 69.0895C40.6458 69.1735 36.4983 69.1735 35.6058 69.079L34.8918 69.016V44.2675H26.1768V38.7025L28.9383 38.671C30.4503 38.65 34.3353 38.65 37.5693 38.671C40.8033 38.692 44.8983 38.7025 46.6833 38.7025V38.7025ZM71.2848 66.4015C70.0038 67.756 68.6283 68.512 66.3393 69.1315C65.3418 69.4045 65.1738 69.415 62.9268 69.4045C60.6798 69.394 60.5013 69.394 59.4093 69.1105C56.5848 68.386 54.3063 66.9685 52.7523 64.963C52.3113 64.396 51.5868 63.22 51.5868 63.073C51.5868 63.031 51.6918 62.9365 51.8283 62.8735C51.9648 62.8105 52.2483 62.632 52.4793 62.4955C52.7103 62.359 53.1303 62.107 53.4138 61.96C53.6973 61.813 54.5163 61.33 55.2303 60.8995C55.9443 60.469 56.5953 60.1225 56.6688 60.1225C56.7423 60.1225 56.8788 60.2695 56.9838 60.448C57.6138 61.5085 59.0838 62.863 60.1233 63.325C60.7638 63.598 62.1813 63.9025 62.8638 63.9025C63.4938 63.9025 64.6488 63.6295 65.2683 63.346C65.9298 63.0415 66.2658 62.737 66.6648 62.128C66.9378 61.6975 66.9693 61.582 66.9588 60.763C66.9588 60.007 66.9168 59.797 66.7068 59.4505C66.1188 58.4845 65.3208 57.9805 62.0868 56.5525C58.7478 55.072 57.2463 54.19 56.0283 53.0035C55.1253 52.1215 54.9468 51.88 54.3798 50.7775C53.6448 49.36 53.5503 48.898 53.5398 46.7875C53.5293 45.307 53.5608 44.824 53.7183 44.32C53.9388 43.564 54.6528 42.1045 54.9783 41.737C55.6503 40.9495 55.8918 40.708 56.3643 40.3195C57.7923 39.1435 60.0183 38.3665 62.1498 38.293C62.3913 38.293 63.1893 38.335 63.9348 38.3875C66.0768 38.566 67.5363 39.091 68.9433 40.2145C70.0038 41.0545 71.6103 43.0285 71.4528 43.291C71.3478 43.4485 67.1583 46.2415 66.8853 46.3255C66.7173 46.378 66.6018 46.315 66.3708 46.042C64.9428 44.3305 64.3653 43.963 62.9793 43.879C61.9923 43.816 61.4673 43.9315 60.8058 44.3725C60.1128 44.8345 59.7768 45.538 59.7768 46.5145C59.7873 47.9425 60.3333 48.6145 62.3493 49.612C63.6513 50.2525 64.7643 50.7775 64.8483 50.7775C64.9743 50.7775 67.6728 52.1215 68.3763 52.5415C71.6523 54.463 72.9858 56.437 73.3323 59.839C73.5843 62.401 72.8598 64.7425 71.2848 66.4015V66.4015Z" fill="white"/>
<defs>
<radialGradient id="paint0_radial_1024_11657" cx="0" cy="0" r="1" gradientUnits="userSpaceOnUse" gradientTransform="translate(48.0166 47.417) rotate(90) scale(47.04)">
<stop stop-color="#333944"/>
<stop offset="1" stop-color="#222428"/>
</radialGradient>
</defs>
</svg>
