<svg width="96" height="96" viewBox="0 0 96 96" fill="none" xmlns="http://www.w3.org/2000/svg">
<rect x="1.63196" y="1.62512" width="92.736" height="92.736" rx="13.44" fill="url(#paint0_radial_1024_11622)"/>
<rect x="1.63196" y="1.62512" width="92.736" height="92.736" rx="13.44" stroke="#6886C3" stroke-width="1.344"/>
<path d="M60.9629 60.9612C63.4428 60.7044 65.3241 58.5666 65.2386 56.001C65.1532 53.4355 63.0152 51.3831 60.4498 51.3831H60.2789C57.6276 51.4686 55.5754 53.692 55.661 56.343C55.7465 57.6258 56.2595 58.7375 57.0291 59.5072C54.1217 65.237 49.6749 69.4273 43.0048 72.9335C38.4725 75.328 33.7692 76.1833 29.066 75.5848C25.2178 75.0716 22.2247 73.3614 20.3431 70.539C17.6068 66.3487 17.3504 61.8161 19.6593 57.2838C21.2842 54.034 23.8493 51.6395 25.4742 50.4423C25.1322 49.3306 24.619 47.4492 24.3625 46.0811C11.9628 55.0604 13.2456 67.2039 17.0083 72.9335C19.8302 77.2096 25.5598 79.8606 31.8879 79.8606C33.5981 79.8606 35.3083 79.6895 37.0187 79.2621C47.9647 77.1241 56.2597 70.6246 60.9629 60.9612V60.9612ZM76.0137 50.3569C69.5144 42.7458 59.9368 38.5555 48.9908 38.5555H47.6227C46.853 37.0162 45.2282 35.9898 43.4324 35.9898H43.2612C40.6105 36.0754 38.5583 38.2987 38.6436 40.95C38.7292 43.5154 40.867 45.5679 43.4324 45.5679H43.6033C45.4846 45.4823 47.1095 44.2851 47.7936 42.6602H49.3329C55.8321 42.6602 61.9891 44.5415 67.5478 48.2189C71.8234 51.041 74.902 54.7184 76.6122 59.1651C78.0659 62.7569 77.9803 66.2631 76.441 69.2564C74.0468 73.7887 70.0276 76.2688 64.7256 76.2688C61.305 76.2688 58.0555 75.2425 56.345 74.4728C55.4045 75.328 53.6941 76.6962 52.4968 77.5517C56.1742 79.2619 59.9368 80.2027 63.5284 80.2027C71.7378 80.2027 77.8094 75.6701 80.1184 71.1378C82.5982 66.1776 82.4271 57.6258 76.0137 50.3569V50.3569ZM32.572 62.4146C32.6575 64.9803 34.7953 67.0325 37.3608 67.0325H37.5319C40.1829 66.9472 42.2351 64.7236 42.1496 62.0726C42.0642 59.5069 39.9262 57.4547 37.3608 57.4547H37.1899C37.0187 57.4547 36.762 57.4547 36.5914 57.54C33.0852 51.7248 31.6314 45.3967 32.1446 38.5552C32.4864 33.4241 34.1968 28.9771 37.1899 25.2997C39.6697 22.1356 44.4585 20.5963 47.7083 20.511C56.7727 20.3398 60.6206 31.6281 60.8774 36.1607C61.9891 36.4171 63.8704 37.0159 65.1532 37.4435C64.1269 23.5898 55.5754 16.4062 47.3662 16.4062C39.6697 16.4062 32.572 21.9649 29.7498 30.1746C25.8163 41.1209 28.3817 51.6395 33.1705 59.9348C32.7431 60.5333 32.4864 61.4741 32.572 62.4149V62.4146Z" fill="#764ABC"/>
<defs>
<radialGradient id="paint0_radial_1024_11622" cx="0" cy="0" r="1" gradientUnits="userSpaceOnUse" gradientTransform="translate(48 47.9931) rotate(90) scale(47.04)">
<stop stop-color="#333944"/>
<stop offset="1" stop-color="#222428"/>
</radialGradient>
</defs>
</svg>
