<svg width="95" height="95" viewBox="0 0 95 95" fill="none" xmlns="http://www.w3.org/2000/svg">
<rect x="1.36048" y="1.04895" width="92.736" height="92.736" rx="13.44" fill="url(#paint0_radial_1024_11658)"/>
<rect x="1.36048" y="1.04895" width="92.736" height="92.736" rx="13.44" stroke="#6886C3" stroke-width="1.344"/>
<path d="M22.0099 53.9594C25.6204 53.9594 28.5472 51.0326 28.5472 47.4221C28.5472 43.8116 25.6204 40.8848 22.0099 40.8848C18.3995 40.8848 15.4727 43.8116 15.4727 47.4221C15.4727 51.0326 18.3995 53.9594 22.0099 53.9594Z" fill="#FF6309"/>
<path d="M68.8863 81.015C72.497 81.015 75.424 78.0879 75.424 74.4772C75.424 70.8665 72.497 67.9395 68.8863 67.9395C65.2757 67.9395 62.3486 70.8665 62.3486 74.4772C62.3486 78.0879 65.2757 81.015 68.8863 81.015Z" fill="#FFB515"/>
<path d="M68.882 26.891C72.4924 26.891 75.4192 23.9641 75.4192 20.3537C75.4192 16.7433 72.4924 13.8164 68.882 13.8164C65.2716 13.8164 62.3447 16.7433 62.3447 20.3537C62.3447 23.9641 65.2716 26.891 68.882 26.891Z" fill="#C90016"/>
<path d="M53.2605 31.2436C61.4009 31.2436 68.1545 37.288 69.2731 45.1242H80.473C79.9636 38.9667 77.4116 33.2274 73.1431 28.7014C70.4095 30.0934 67.048 30.1201 64.1928 28.4721C61.3354 26.8219 59.6776 23.8959 59.5186 20.8291C57.4666 20.3513 55.3666 20.1104 53.2596 20.1113C49.1728 20.1113 45.2235 21.0032 41.6318 22.6949L47.2402 32.4071C49.1539 31.6369 51.1977 31.2419 53.2605 31.2436V31.2436Z" fill="#FF6309"/>
<path d="M37.0851 47.4207C37.0851 42.2669 39.5074 37.6693 43.2728 34.705L37.6666 24.9941C36.3386 25.9221 35.0946 26.9648 33.9489 28.1103C30.7045 31.3547 28.3779 35.2719 27.0977 39.5471C29.6772 41.2178 31.3854 44.1185 31.3854 47.4207C31.3854 50.7221 29.6772 53.6232 27.0977 55.2935C28.3779 59.5687 30.7045 63.4855 33.9489 66.7307C35.0937 67.8756 36.3367 68.918 37.6635 69.846L43.2706 60.1338C39.5061 57.1699 37.0851 52.5727 37.0851 47.4207V47.4207Z" fill="#FFB515"/>
<path d="M69.2735 49.709C68.158 57.5478 61.403 63.5961 53.2604 63.5961C51.1328 63.5961 49.0996 63.182 47.2379 62.4317L41.6299 72.1443C45.2207 73.8368 49.1722 74.7292 53.26 74.7292C55.3956 74.7292 57.4942 74.4829 59.5234 74.0105C59.6797 70.9398 61.3375 68.0085 64.1972 66.3574C67.0533 64.7085 70.4161 64.7343 73.1497 66.1294C77.4143 61.6026 79.9644 55.8642 80.4716 49.709H69.2735V49.709Z" fill="#C90016"/>
<defs>
<radialGradient id="paint0_radial_1024_11658" cx="0" cy="0" r="1" gradientUnits="userSpaceOnUse" gradientTransform="translate(47.7285 47.417) rotate(90) scale(47.04)">
<stop stop-color="#333944"/>
<stop offset="1" stop-color="#222428"/>
</radialGradient>
</defs>
</svg>
