<svg width="95" height="95" viewBox="0 0 95 95" fill="none" xmlns="http://www.w3.org/2000/svg">
<rect x="1.07239" y="0.929812" width="92.736" height="92.736" rx="13.44" fill="url(#paint0_radial_1024_11449)"/>
<rect x="1.07239" y="0.929812" width="92.736" height="92.736" rx="13.44" stroke="#6886C3" stroke-width="1.344"/>
<path d="M29.1158 29.919C29.9325 30.4273 30.5075 31.0523 30.8492 31.7773C31.3575 32.944 31.9242 34.2107 32.5408 35.5857C33.1575 36.9607 33.7825 38.3523 34.3992 39.7607C35.0158 41.169 35.6158 42.544 36.1825 43.8773C36.7492 45.2107 37.2658 46.4357 37.7158 47.544C38.1658 48.6523 38.5242 49.594 38.7908 50.369C39.0575 51.144 39.1908 51.6607 39.1908 51.9023C39.1908 52.319 39.1325 52.719 39.0242 53.119C38.9158 53.519 38.7158 53.8857 38.4242 54.2107C38.1325 54.5357 37.7242 54.8023 37.2075 54.994C36.6825 55.1857 36.0075 55.2857 35.1825 55.2857C34.3075 55.2857 33.5992 55.169 33.0492 54.9357C32.4992 54.7023 32.0492 54.4107 31.6825 54.044C31.3158 53.6773 31.0158 53.294 30.7742 52.894C30.5325 52.494 30.2825 52.1107 30.0242 51.744C29.7658 51.3773 29.4742 51.0857 29.1492 50.8523C28.8242 50.619 28.3742 50.5023 27.8158 50.5023H25.4825C24.7992 50.5023 24.2658 50.619 23.8575 50.8523C23.4575 51.0857 23.1325 51.3773 22.8742 51.744C22.6158 52.1107 22.3825 52.494 22.1658 52.894C21.9492 53.294 21.6658 53.6773 21.3242 54.044C20.9825 54.4107 20.5408 54.7023 19.9908 54.9357C19.4408 55.169 18.7075 55.2857 17.7825 55.2857C16.4242 55.2857 15.4242 54.9857 14.7908 54.3773C14.1575 53.769 13.8408 53.0523 13.8408 52.2273C13.8408 51.9107 13.9658 51.3607 14.2242 50.569C14.4825 49.7773 14.8242 48.8357 15.2658 47.744C15.7242 46.644 16.2242 45.4357 16.7825 44.094C17.3408 42.7607 17.9325 41.3773 18.5658 39.9607C19.1992 38.5357 19.8325 37.119 20.4575 35.694C21.0908 34.269 21.6992 32.9023 22.2825 31.594C22.6242 30.844 23.1908 30.244 23.9742 29.8107C24.7658 29.3773 25.6408 29.1523 26.6158 29.1523C27.4658 29.1523 28.2992 29.4107 29.1158 29.919ZM58.5908 30.044C59.2242 30.619 59.5408 31.3523 59.5408 32.2523C59.5408 32.7607 59.4158 33.4273 59.1575 34.2607C58.8992 35.0857 58.5742 36.019 58.1742 37.069C57.7742 38.1107 57.3075 39.244 56.7908 40.4607C56.2658 41.6773 55.7408 42.9107 55.2075 44.1773C54.4825 45.9023 53.8492 47.4523 53.3325 48.8273C52.8075 50.2023 52.2742 51.369 51.7325 52.3273C51.1825 53.2857 50.5908 54.0273 49.9492 54.5523C49.3075 55.0773 48.5075 55.3357 47.5658 55.3357C46.5908 55.3357 45.7825 55.1273 45.1408 54.694C44.4992 54.269 43.9158 53.6273 43.3908 52.7607C42.8658 51.9023 42.3575 50.8107 41.8575 49.5023C41.3575 48.194 40.7742 46.6357 40.0908 44.8357C39.5825 43.4773 39.0575 42.144 38.5242 40.844C37.9908 39.544 37.5075 38.344 37.0658 37.2523C36.6325 36.1607 36.2742 35.1773 35.9908 34.319C35.7158 33.4607 35.5742 32.7857 35.5742 32.294C35.5742 31.1773 35.9492 30.3773 36.7075 29.8857C37.4575 29.4023 38.3992 29.1607 39.5158 29.1607C40.5325 29.1607 41.3325 29.2857 41.8992 29.544C42.4658 29.8023 42.9658 30.1357 43.3742 30.544C43.6658 30.8357 43.9575 31.2607 44.2492 31.819C44.5408 32.3773 44.8158 32.994 45.0658 33.6607C45.3242 34.3273 45.5742 35.0023 45.8325 35.6857C46.0908 36.369 46.3242 36.994 46.5408 37.5607C46.7575 38.1357 46.9742 38.594 47.1825 38.944C47.3908 39.294 47.5742 39.469 47.7492 39.469C47.9408 39.469 48.1408 39.294 48.3492 38.944C48.5575 38.594 48.7658 38.1357 48.9908 37.5773C49.2075 37.019 49.4325 36.4023 49.6658 35.7357C49.8992 35.069 50.1408 34.4023 50.3908 33.7523C50.6408 33.1023 50.9158 32.494 51.1908 31.9523C51.4658 31.4023 51.7575 30.9857 52.0492 30.694C52.3158 30.4273 52.5742 30.2023 52.8325 30.019C53.0908 29.8357 53.3658 29.6857 53.6742 29.5607C53.9742 29.4357 54.3242 29.3523 54.7158 29.2857C55.1075 29.2273 55.5742 29.194 56.1408 29.194C57.1325 29.194 57.9575 29.4773 58.5908 30.044ZM70.9658 29.919C71.7825 30.4273 72.3575 31.0523 72.6992 31.7773C73.2075 32.944 73.7742 34.2107 74.3908 35.5857C75.0075 36.9607 75.6325 38.3523 76.2492 39.7607C76.8658 41.169 77.4658 42.544 78.0325 43.8773C78.5992 45.2107 79.1158 46.4357 79.5658 47.544C80.0158 48.6523 80.3742 49.594 80.6408 50.369C80.9075 51.144 81.0408 51.6607 81.0408 51.9023C81.0408 52.319 80.9825 52.719 80.8742 53.119C80.7658 53.519 80.5658 53.8857 80.2742 54.2107C79.9825 54.5357 79.5742 54.8023 79.0575 54.994C78.5325 55.1857 77.8575 55.2857 77.0325 55.2857C76.1575 55.2857 75.4492 55.169 74.8992 54.9357C74.3492 54.7023 73.8992 54.4107 73.5325 54.044C73.1658 53.6773 72.8658 53.294 72.6242 52.894C72.3825 52.494 72.1325 52.1107 71.8742 51.744C71.6158 51.3773 71.3242 51.0857 70.9992 50.8523C70.6742 50.619 70.2242 50.5023 69.6658 50.5023H67.3325C66.6492 50.5023 66.1158 50.619 65.7075 50.8523C65.3075 51.0857 64.9825 51.3773 64.7242 51.744C64.4658 52.1107 64.2325 52.494 64.0158 52.894C63.7992 53.294 63.5158 53.6773 63.1742 54.044C62.8325 54.4107 62.3908 54.7023 61.8408 54.9357C61.2908 55.169 60.5575 55.2857 59.6325 55.2857C58.2742 55.2857 57.2742 54.9857 56.6408 54.3773C56.0075 53.769 55.6908 53.0523 55.6908 52.2273C55.6908 51.9107 55.8158 51.3607 56.0742 50.569C56.3325 49.7773 56.6742 48.8357 57.1158 47.744C57.5492 46.6523 58.0492 45.4357 58.6075 44.1023C59.1658 42.769 59.7575 41.3857 60.3908 39.969C61.0242 38.544 61.6575 37.1273 62.2825 35.7023C62.9158 34.2773 63.5242 32.9107 64.1075 31.6023C64.4492 30.8523 65.0158 30.2523 65.7992 29.819C66.5908 29.3857 67.4658 29.1607 68.4408 29.1607C69.3158 29.1523 70.1492 29.4107 70.9658 29.919Z" fill="#4B4B77"/>
<path d="M26.5329 65.8117C26.7329 65.8117 26.9246 65.7034 27.0163 65.5201C27.0163 65.5117 27.8079 64.0534 28.5913 62.3284C28.9829 61.4617 29.3829 60.5367 29.6829 59.6784C29.8329 59.2451 29.9579 58.8367 30.0496 58.4617C30.1413 58.0784 30.1996 57.7284 30.1996 57.4117C30.1996 56.1701 29.7413 55.0617 28.9746 54.2951C28.3329 53.6534 27.4663 53.2617 26.5246 53.2617C25.5829 53.2617 24.7163 53.6534 24.0746 54.2951C23.3163 55.0534 22.8496 56.1617 22.8496 57.4117C22.8496 57.7367 22.9079 58.0867 22.9996 58.4617C23.1579 59.1284 23.4329 59.8867 23.7413 60.6701C24.6829 63.0117 26.0329 65.5117 26.0329 65.5284C26.1413 65.695 26.3246 65.8117 26.5329 65.8117ZM68.3829 65.8117C68.5829 65.8117 68.7746 65.7034 68.8663 65.5201C68.8663 65.5117 69.6579 64.0534 70.4413 62.3284C70.8329 61.4617 71.2329 60.5367 71.5329 59.6784C71.6829 59.2451 71.8079 58.8367 71.8996 58.4617C71.9913 58.0784 72.0496 57.7284 72.0496 57.4117C72.0496 56.1701 71.5913 55.0617 70.8246 54.2951C70.1829 53.6534 69.3163 53.2617 68.3746 53.2617C67.4329 53.2617 66.5663 53.6534 65.9246 54.2951C65.1663 55.0534 64.6996 56.1617 64.6996 57.4117C64.6996 57.7367 64.7579 58.0867 64.8496 58.4617C65.0079 59.1284 65.2829 59.8867 65.5913 60.6701C66.5329 63.0117 67.8829 65.5117 67.8829 65.5284C67.9913 65.695 68.1746 65.8117 68.3829 65.8117Z" fill="#E0C7C1"/>
<defs>
<radialGradient id="paint0_radial_1024_11449" cx="0" cy="0" r="1" gradientUnits="userSpaceOnUse" gradientTransform="translate(47.4404 47.2978) rotate(90) scale(47.04)">
<stop stop-color="#333944"/>
<stop offset="1" stop-color="#222428"/>
</radialGradient>
</defs>
</svg>
