<svg width="95" height="95" viewBox="0 0 95 95" fill="none" xmlns="http://www.w3.org/2000/svg">
<rect x="1.19251" y="1.48841" width="92.736" height="92.736" rx="13.44" fill="url(#paint0_radial_1024_11564)"/>
<rect x="1.19251" y="1.48841" width="92.736" height="92.736" rx="13.44" stroke="#6886C3" stroke-width="1.344"/>
<path d="M76.5661 32.8106C80.1733 39.8903 81.0838 48.04 79.1279 55.7413C77.172 63.4425 72.4831 70.1701 65.9347 74.6706C59.3864 79.1711 51.4253 81.1376 43.5346 80.2036C35.644 79.2697 28.3619 75.4991 23.0452 69.5942C17.7284 63.6894 14.7396 56.053 14.6356 48.108C14.5316 40.1629 17.3195 32.4509 22.4798 26.4089C27.6402 20.3669 34.821 16.4069 42.6846 15.2668C50.5481 14.1266 58.5579 15.884 65.2218 20.2115" stroke="#808080" stroke-width="0.759966" stroke-dasharray="2.86 2.86"/>
<path d="M47.3846 73.0113C61.3749 73.0113 72.7164 61.6699 72.7164 47.6795C72.7164 33.6891 61.3749 22.3477 47.3846 22.3477C33.3942 22.3477 22.0527 33.6891 22.0527 47.6795C22.0527 61.6699 33.3942 73.0113 47.3846 73.0113Z" fill="#000080"/>
<path d="M57.8775 44.6067C61.9752 44.6067 65.2971 41.2848 65.2971 37.1871C65.2971 33.0894 61.9752 29.7676 57.8775 29.7676C53.7798 29.7676 50.458 33.0894 50.458 37.1871C50.458 41.2848 53.7798 44.6067 57.8775 44.6067Z" fill="white"/>
<path d="M72.7175 29.767C76.8152 29.767 80.1371 26.4451 80.1371 22.3473C80.1371 18.2496 76.8152 14.9277 72.7175 14.9277C68.6197 14.9277 65.2979 18.2496 65.2979 22.3473C65.2979 26.4451 68.6197 29.767 72.7175 29.767Z" fill="#000080"/>
<path d="M40.5222 60.345V58.4755H32.3146V43.7246H30.1943V60.345H40.5222Z" fill="white"/>
<path d="M51.9163 60.3451V48.3984H50.024V54.9873C50.024 57.4268 48.7473 59.0227 46.7638 59.0227C45.259 59.0227 44.3015 58.1108 44.3015 56.6744V48.3984H42.4092V57.4268C42.4092 59.4103 43.8911 60.687 46.2166 60.687C47.9721 60.687 49.0893 60.0715 50.2064 58.4984V60.3451H51.9163Z" fill="white"/>
<path d="M65.816 60.2977V58.8614C65.6108 58.907 65.5196 58.907 65.4056 58.907C64.7445 58.907 64.3797 58.565 64.3797 57.9722V51.3149C64.3797 49.1946 62.8294 48.0547 59.8883 48.0547C56.9929 48.0547 55.2145 49.1718 55.1005 51.9305H57.0157C57.1752 50.4714 58.0416 49.8102 59.8199 49.8102C61.5298 49.8102 62.4874 50.4486 62.4874 51.5885V52.0901C62.4874 52.8881 62.0086 53.23 60.5039 53.4124C57.8136 53.7544 57.4032 53.8456 56.6737 54.142C55.2829 54.712 54.5762 55.7835 54.5762 57.2426C54.5762 59.4085 56.0809 60.6853 58.4976 60.6853C60.0251 60.6853 61.507 60.0469 62.5558 58.9298C62.761 59.8417 63.5817 60.5029 64.5165 60.5029C64.9041 60.5029 65.2005 60.4573 65.816 60.2977ZM62.4874 56.2167C62.4874 57.9266 60.7547 59.021 58.908 59.021C57.426 59.021 56.5597 58.4966 56.5597 57.197C56.5597 55.9431 57.4032 55.3959 59.4323 55.0995C61.4386 54.826 61.849 54.7348 62.4874 54.4384V56.2167Z" fill="white"/>
<defs>
<radialGradient id="paint0_radial_1024_11564" cx="0" cy="0" r="1" gradientUnits="userSpaceOnUse" gradientTransform="translate(47.5605 47.8564) rotate(90) scale(47.04)">
<stop stop-color="#333944"/>
<stop offset="1" stop-color="#222428"/>
</radialGradient>
</defs>
</svg>
