<svg width="95" height="95" viewBox="0 0 95 95" fill="none" xmlns="http://www.w3.org/2000/svg">
<rect x="1.34387" y="0.912234" width="92.736" height="92.736" rx="13.44" fill="url(#paint0_radial_1024_11602)"/>
<rect x="1.34387" y="0.912234" width="92.736" height="92.736" rx="13.44" stroke="#6886C3" stroke-width="1.344"/>
<path fill-rule="evenodd" clip-rule="evenodd" d="M53.5539 21.7546C61.1085 21.752 68.6633 21.729 76.2178 21.7608C80.709 21.7792 81.9752 23.2799 81.0071 27.7152C78.1719 40.7048 75.273 53.6812 72.335 66.6481C71.4059 70.7466 69.2713 72.4255 64.9598 72.4383C49.8504 72.4833 34.741 72.4882 19.6319 72.4364C14.6933 72.419 13.3942 70.7463 14.4582 66.066C17.3453 53.3552 20.2478 40.6483 23.1736 27.9464C24.2882 23.1059 25.9632 21.7769 30.8894 21.7628C38.4442 21.7415 45.9991 21.7572 53.5539 21.7546Z" fill="#E0EAF5"/>
<path fill-rule="evenodd" clip-rule="evenodd" d="M42.1386 70.9282C34.583 70.9256 27.0272 70.9604 19.472 70.9108C15.6407 70.8858 14.9441 69.9817 15.8065 66.2345C18.7304 53.526 21.7485 40.8388 24.6073 28.1158C25.3739 24.7035 27.0275 23.1953 30.6835 23.2291C45.7932 23.3693 60.9055 23.274 76.0162 23.2895C79.8058 23.2931 80.4421 24.1037 79.5914 27.9471C76.8294 40.4248 74.05 52.8989 71.2217 65.3619C70.1633 70.026 68.944 70.9161 64.0369 70.9269C56.7374 70.9423 49.4377 70.9308 42.1386 70.9282Z" fill="#2671BE"/>
<path fill-rule="evenodd" clip-rule="evenodd" d="M48.5674 46.0235C48.0608 45.4293 47.5047 44.7451 46.9157 44.0912C43.5759 40.3814 40.2656 36.644 36.8664 32.9897C35.3109 31.3173 34.8152 29.6932 36.6832 28.0425C38.5293 26.4109 40.3431 26.5553 42.0365 28.4325C46.7525 33.6588 51.463 38.8909 56.2572 44.0452C58.0471 45.9704 57.6301 47.2793 55.6587 48.7058C48.0917 54.1828 40.5673 59.7193 33.0512 65.2662C31.3618 66.5134 29.7512 66.8257 28.3864 64.9836C26.8808 62.9517 28.2738 61.7429 29.8355 60.6057C35.4209 56.5374 40.9955 52.454 46.546 48.3384C47.3192 47.7652 48.4292 47.431 48.5674 46.0235Z" fill="#FDFDFE"/>
<path fill-rule="evenodd" clip-rule="evenodd" d="M50.9595 65.6768C48.9253 65.6768 46.8882 65.7467 44.8587 65.6545C43.2395 65.5813 42.2651 64.6765 42.2855 62.9709C42.3052 61.3583 43.118 60.1459 44.7356 60.1022C49.1814 59.9831 53.6338 60.0087 58.0813 60.0957C59.4947 60.1233 60.538 61.0441 60.5295 62.5169C60.5193 64.2063 59.6302 65.5153 57.821 65.6243C55.5413 65.7621 53.2474 65.6584 50.9598 65.6584C50.9595 65.664 50.9595 65.6706 50.9595 65.6768Z" fill="#FCFDFD"/>
<defs>
<radialGradient id="paint0_radial_1024_11602" cx="0" cy="0" r="1" gradientUnits="userSpaceOnUse" gradientTransform="translate(47.7119 47.2802) rotate(90) scale(47.04)">
<stop stop-color="#333944"/>
<stop offset="1" stop-color="#222428"/>
</radialGradient>
</defs>
</svg>
