<svg width="95" height="95" viewBox="0 0 95 95" fill="none" xmlns="http://www.w3.org/2000/svg">
<rect x="0.935672" y="1.04895" width="92.736" height="92.736" rx="13.44" fill="url(#paint0_radial_1024_11656)"/>
<rect x="0.935672" y="1.04895" width="92.736" height="92.736" rx="13.44" stroke="#6886C3" stroke-width="1.344"/>
<g clip-path="url(#clip0_1024_11656)">
<path fill-rule="evenodd" clip-rule="evenodd" d="M18.706 49.4249H21.3775L23.0216 39.6977H20.35L18.706 49.4249ZM21.9255 38.4647C22.7476 38.4647 23.5011 37.8482 23.5696 37.0946C23.6381 36.3411 23.0901 35.7246 22.2681 35.7246C21.446 35.7246 20.761 36.3411 20.624 37.0946C20.5555 37.8482 21.172 38.4647 21.9255 38.4647ZM19.7335 39.6977H17.884L18.295 37.3686H15.5549L15.2124 39.6977H13.9109L13.5684 41.7527H14.8699L14.0479 46.8219C13.7054 48.6714 14.8014 49.6304 16.7879 49.5619C17.4729 49.5619 18.021 49.4249 18.295 49.2879L18.2265 47.3014H18.158L17.5414 47.3699C16.9934 47.3699 16.6509 47.1644 16.7879 46.4108L17.5414 41.7527H19.391L19.7335 39.6977ZM28.2277 41.8212C27.1317 41.8212 26.2411 42.5748 26.0356 43.8078L25.0766 49.4249H22.4051L24.0491 39.6977H26.5836L26.3096 41.4102H26.4466C27.0632 40.3142 28.2277 39.5607 29.6662 39.5607C31.6528 39.5607 32.8173 40.9992 32.4063 43.2598L31.3788 49.4249H28.7072L29.6662 43.7393C29.8032 42.5063 29.3237 41.8212 28.2277 41.8212ZM37.0644 50.4524C36.7219 51.206 36.2424 51.8225 35.6944 52.2335H62.2729L64.328 39.6977H66.9995L66.7255 41.3417H66.8625C67.3421 40.5197 68.3011 39.5607 69.9451 39.5607C72.0687 39.5607 73.5757 41.2732 73.0277 44.5613C72.4797 47.8494 70.4931 49.5619 68.2326 49.5619C66.657 49.5619 66.0405 48.6714 65.7665 47.8494H65.698L64.9445 52.2335H76.1788L73.2332 49.2879L74.9457 47.5754L80.6314 53.261L80.5629 53.398L80.6314 53.4665L74.9457 59.1521L73.2332 57.4396L76.0417 54.631H13.6369V52.2335H31.6528L32.3378 50.7264C33.2283 51.069 33.8448 51.0004 34.3928 50.1099L34.6668 49.6989L32.8173 39.6977H35.5573L36.3794 46.8904H36.4479L39.6674 39.6977H42.6815L37.0644 50.4524ZM47.0656 41.8212C45.9696 41.8212 45.0791 42.5748 44.8736 43.8078L43.983 49.4249H41.243L43.435 36.4781H46.0381L45.2161 41.4102H45.3531C45.9696 40.2457 47.0656 39.5607 48.5726 39.5607C50.5592 39.5607 51.6552 40.9307 51.3127 43.2598L50.2852 49.4249H47.5451L48.5041 43.7393C48.7096 42.5063 48.1616 41.8212 47.0656 41.8212ZM57.8888 39.6977H56.1763L56.5188 37.3686H53.8473L53.4362 39.6977H52.1347L51.7922 41.7527H53.1622L52.2717 46.8219C51.9292 48.6714 53.0937 49.6304 55.0803 49.5619C55.7653 49.5619 56.3133 49.4249 56.5873 49.2879L56.5188 47.3014H56.4503L55.8338 47.3699C55.2858 47.3699 54.9433 47.1644 55.0118 46.4108L55.8338 41.7527H58.9164L58.0944 46.8219C57.7518 48.6714 58.8479 49.6304 60.8344 49.5619C61.5194 49.5619 62.0674 49.4249 62.3414 49.2879L62.2729 47.3014H62.2044L61.5879 47.3699C61.0399 47.3699 60.6974 47.1644 60.8344 46.4108L61.5879 41.7527H63.4375L63.78 39.6977H61.9304L62.3414 37.3686H59.6014L59.2589 39.6977H57.8888ZM66.1775 44.5613C66.4515 42.8488 67.4106 41.7527 68.7121 41.7527C70.0136 41.7527 70.5616 42.9173 70.2876 44.5613C69.9451 46.2738 69.0546 47.4384 67.7531 47.4384C66.4515 47.4384 65.9035 46.2738 66.1775 44.5613Z" fill="url(#paint1_linear_1024_11656)"/>
</g>
<defs>
<radialGradient id="paint0_radial_1024_11656" cx="0" cy="0" r="1" gradientUnits="userSpaceOnUse" gradientTransform="translate(47.3037 47.417) rotate(90) scale(47.04)">
<stop stop-color="#333944"/>
<stop offset="1" stop-color="#222428"/>
</radialGradient>
<linearGradient id="paint1_linear_1024_11656" x1="47.093" y1="35.7178" x2="47.093" y2="59.1658" gradientUnits="userSpaceOnUse">
<stop stop-color="#C75975"/>
<stop offset="1" stop-color="#9A84CD"/>
</linearGradient>
<clipPath id="clip0_1024_11656">
<rect width="67.2" height="23.5645" fill="white" transform="translate(13.5 35.6543)"/>
</clipPath>
</defs>
</svg>
