<svg width="95" height="95" viewBox="0 0 95 95" fill="none" xmlns="http://www.w3.org/2000/svg">
<rect x="1.20813" y="1.04895" width="92.736" height="92.736" rx="13.44" fill="url(#paint0_radial_1024_11662)"/>
<rect x="1.20813" y="1.04895" width="92.736" height="92.736" rx="13.44" stroke="#6886C3" stroke-width="1.344"/>
<path d="M47.8383 80.3426C66.395 80.3426 81.4383 65.2993 81.4383 46.7426C81.4383 28.1858 66.395 13.1426 47.8383 13.1426C29.2815 13.1426 14.2383 28.1858 14.2383 46.7426C14.2383 65.2993 29.2815 80.3426 47.8383 80.3426Z" fill="#004E8C"/>
<path opacity="0.1" d="M24.55 22.5938C21.1343 25.6375 18.3762 29.3468 16.4447 33.4941C14.5133 37.6415 13.4492 42.1397 13.3176 46.7129C13.1861 51.2861 13.9898 55.8379 15.6797 60.0895C17.3695 64.3411 19.9099 68.2027 23.1449 71.4378C26.38 74.6729 30.2417 77.2132 34.4932 78.903C38.7448 80.5929 43.2967 81.3967 47.8699 81.2651C52.443 81.1336 56.9412 80.0695 61.0886 78.138C65.236 76.2065 68.9452 73.4484 71.989 70.0327L24.55 22.5938Z" fill="white"/>
<path d="M49.1937 33.5134L39.4392 59.9734H35.9847L26.3877 33.5134H29.8422L37.1922 54.5134C37.4457 55.2749 37.625 56.059 37.7277 56.8549H37.8012C37.9112 56.0382 38.1084 55.2357 38.3892 54.4609L45.8652 33.4609L49.1937 33.5134Z" fill="white"/>
<path d="M53.0059 59.9737V33.5137H60.5344C62.4895 33.4091 64.4178 34.0047 65.9734 35.1937C66.6239 35.719 67.1443 36.3874 67.494 37.1469C67.8437 37.9064 68.0132 38.7364 67.9894 39.5722C68.0099 40.9756 67.5711 42.3473 66.7399 43.4782C65.901 44.6044 64.7235 45.4324 63.3799 45.8407V45.9142C65.0049 46.0452 66.5272 46.7616 67.6639 47.9302C68.7629 49.1417 69.3401 50.7375 69.2704 52.3717C69.3047 53.413 69.1035 54.4487 68.6817 55.4014C68.2599 56.3541 67.6284 57.1992 66.8344 57.8737C65.116 59.3074 62.9283 60.0553 60.6919 59.9737H53.0059ZM56.1559 36.3067V44.8537H59.3059C60.7401 44.9212 62.1513 44.4743 63.2854 43.5937C63.7767 43.1657 64.1637 42.6309 64.4166 42.0304C64.6696 41.4298 64.7819 40.7793 64.7449 40.1287C64.7449 37.5597 63.0544 36.2752 59.6734 36.2752L56.1559 36.3067ZM56.1559 47.6362V57.1597H60.3559C61.8655 57.2472 63.3562 56.7888 64.5559 55.8682C65.0564 55.4295 65.4514 54.8834 65.7114 54.2707C65.9713 53.658 66.0896 52.9945 66.0574 52.3297C66.0574 49.2077 63.9294 47.6467 59.6734 47.6467L56.1559 47.6362Z" fill="white"/>
<defs>
<radialGradient id="paint0_radial_1024_11662" cx="0" cy="0" r="1" gradientUnits="userSpaceOnUse" gradientTransform="translate(47.5761 47.417) rotate(90) scale(47.04)">
<stop stop-color="#333944"/>
<stop offset="1" stop-color="#222428"/>
</radialGradient>
</defs>
</svg>
