<svg width="95" height="95" viewBox="0 0 95 95" fill="none" xmlns="http://www.w3.org/2000/svg">
<rect x="0.783328" y="1.04895" width="92.736" height="92.736" rx="13.44" fill="url(#paint0_radial_1024_11660)"/>
<rect x="0.783328" y="1.04895" width="92.736" height="92.736" rx="13.44" stroke="#6886C3" stroke-width="1.344"/>
<path d="M18.2962 46.127C18.27 46.5995 18.2568 47.7151 18.2568 48.2007C18.2568 64.5938 31.1325 77.8763 47.0137 77.8763C62.895 77.8763 75.7706 64.5938 75.7706 48.2007C75.7706 47.7151 75.7575 47.2426 75.7312 46.757L18.2962 46.127Z" fill="url(#paint1_linear_1024_11660)"/>
<path d="M49.7038 74.3061C64.1143 74.3061 75.7963 62.6241 75.7963 48.2136C75.7963 33.8031 64.1143 22.1211 49.7038 22.1211C35.2933 22.1211 23.6113 33.8031 23.6113 48.2136C23.6113 62.6241 35.2933 74.3061 49.7038 74.3061Z" fill="#007AFF"/>
<path d="M64.9279 22.292C60.1504 18.8139 53.9029 16.5039 47.6029 16.5039C31.3936 16.5039 18.2686 30.062 18.2686 46.7702H23.6629C24.1486 34.6952 34.1367 24.7727 46.4742 24.7727C51.6061 24.7727 56.3442 26.4658 60.1636 29.3139C62.0798 30.587 64.6786 30.1014 66.0042 28.1983C67.3298 26.2558 66.8573 23.6177 64.9279 22.292Z" fill="url(#paint2_linear_1024_11660)"/>
<path opacity="0.5" d="M75.4546 52.3873L63.4058 40.3386L55.7014 39.6823H48.6533L47.9446 48.8436L37.9564 38.8555L35.5283 42.3467L36.4339 57.3748L53.1158 74.0567C64.5477 72.5736 73.6302 63.688 75.4546 52.3873Z" fill="url(#paint3_linear_1024_11660)"/>
<path d="M47.2624 37.8984V51.2334H47.2493C47.2493 53.6747 45.2674 55.6566 42.8262 55.6566C40.3849 55.6566 38.403 53.6747 38.403 51.2334V40.1691C38.403 38.9484 37.4055 37.9509 36.1849 37.9509C34.9643 37.9509 33.9668 38.9353 33.9668 40.1691V51.2597C33.9668 56.1422 37.9305 60.1059 42.8262 60.1059C47.7218 60.1059 51.6855 56.1422 51.6855 51.2597V42.3872H58.3268C59.5343 42.3872 60.5187 43.3716 60.5187 44.5791C60.5187 45.7866 59.5343 46.7709 58.3268 46.7709H56.2137C54.9799 46.7709 53.9693 47.7684 53.9693 49.0022C53.9693 50.2097 54.9274 51.1941 56.1349 51.2334L60.8468 59.0297C61.2405 59.6859 61.9493 60.1322 62.7762 60.1322C64.0099 60.1322 65.0205 59.1347 65.0205 57.9009C65.0205 57.4022 64.8499 56.9297 64.5743 56.5622L61.0174 50.6822C63.3537 49.6453 64.9812 47.3091 64.9812 44.5922C64.9812 40.9041 61.9887 37.9247 58.3005 37.9247L47.2624 37.8984Z" fill="white"/>
<path d="M62.5002 27.975C63.805 27.975 64.8627 26.9173 64.8627 25.6125C64.8627 24.3077 63.805 23.25 62.5002 23.25C61.1954 23.25 60.1377 24.3077 60.1377 25.6125C60.1377 26.9173 61.1954 27.975 62.5002 27.975Z" fill="white"/>
<path d="M61.1754 27.5829C61.1754 27.5829 53.0247 20.3904 42.7085 21.7685C38.7972 22.3985 35.6604 23.5798 32.6154 25.4042C29.5704 27.2285 33.9804 24.131 35.2929 23.4223C36.6185 22.7135 42.7872 18.881 53.0379 20.4298C63.2885 21.9785 64.4172 24.2623 64.4172 24.2623L61.1754 27.5829Z" fill="white"/>
<defs>
<radialGradient id="paint0_radial_1024_11660" cx="0" cy="0" r="1" gradientUnits="userSpaceOnUse" gradientTransform="translate(47.1513 47.417) rotate(90) scale(47.04)">
<stop stop-color="#333944"/>
<stop offset="1" stop-color="#222428"/>
</radialGradient>
<linearGradient id="paint1_linear_1024_11660" x1="18.2568" y1="62.0016" x2="75.7706" y2="62.0016" gradientUnits="userSpaceOnUse">
<stop stop-color="#FF3B30"/>
<stop offset="1" stop-color="#F7951E"/>
</linearGradient>
<linearGradient id="paint2_linear_1024_11660" x1="18.2686" y1="31.637" x2="66.7549" y2="31.637" gradientUnits="userSpaceOnUse">
<stop stop-color="#FF3B30"/>
<stop offset="1" stop-color="#F7951E"/>
</linearGradient>
<linearGradient id="paint3_linear_1024_11660" x1="42.0147" y1="40.9515" x2="68.1715" y2="67.1083" gradientUnits="userSpaceOnUse">
<stop/>
<stop offset="1" stop-opacity="0"/>
</linearGradient>
</defs>
</svg>
