<svg width="95" height="95" viewBox="0 0 95 95" fill="none" xmlns="http://www.w3.org/2000/svg">
<rect x="1.04016" y="0.912234" width="92.736" height="92.736" rx="13.44" fill="url(#paint0_radial_1024_11610)"/>
<rect x="1.04016" y="0.912234" width="92.736" height="92.736" rx="13.44" stroke="#6886C3" stroke-width="1.344"/>
<path d="M47.1665 13.6797C30.1069 13.6797 31.1721 21.0777 31.1721 21.0777L31.191 28.7423H47.4707V31.0434H24.725C24.725 31.0434 13.8086 29.8054 13.8086 47.0184C13.8086 64.2318 23.3367 63.6214 23.3367 63.6214H29.0231V55.6337C29.0231 55.6337 28.7165 46.1055 38.3991 46.1055H54.5456C54.5456 46.1055 63.6172 46.2521 63.6172 37.3381V22.5994C63.6172 22.5994 64.9949 13.6797 47.1665 13.6797ZM38.1899 18.834C38.5746 18.8336 38.9556 18.9091 39.3111 19.0562C39.6666 19.2033 39.9895 19.419 40.2616 19.691C40.5336 19.963 40.7493 20.286 40.8964 20.6415C41.0434 20.997 41.1189 21.378 41.1186 21.7627C41.1189 22.1474 41.0434 22.5284 40.8964 22.8838C40.7493 23.2393 40.5336 23.5623 40.2616 23.8343C39.9895 24.1064 39.6666 24.3221 39.3111 24.4691C38.9556 24.6162 38.5746 24.6917 38.1899 24.6914C37.8052 24.6917 37.4242 24.6162 37.0687 24.4691C36.7132 24.3221 36.3903 24.1064 36.1182 23.8343C35.8462 23.5623 35.6305 23.2393 35.4834 22.8838C35.3364 22.5284 35.2609 22.1474 35.2612 21.7627C35.2609 21.378 35.3364 20.997 35.4834 20.6415C35.6305 20.286 35.8462 19.963 36.1182 19.691C36.3903 19.419 36.7132 19.2033 37.0687 19.0562C37.4242 18.9091 37.8052 18.8336 38.1899 18.834V18.834Z" fill="url(#paint1_linear_1024_11610)"/>
<path d="M47.6514 80.5304C64.711 80.5304 63.6458 73.1323 63.6458 73.1323L63.6269 65.468H47.347V63.1669H70.0926C70.0926 63.1669 81.009 64.4049 81.009 47.1914C81.009 29.9781 71.4809 30.5886 71.4809 30.5886H65.7946V38.5761C65.7946 38.5761 66.1011 48.1042 56.4185 48.1042H40.272C40.272 48.1042 31.2005 47.9577 31.2005 56.8719V71.6109C31.2005 71.6109 29.8229 80.5304 47.6511 80.5304H47.6514ZM56.628 75.3766C56.2433 75.377 55.8623 75.3015 55.5068 75.1544C55.1513 75.0073 54.8283 74.7916 54.5563 74.5196C54.2843 74.2476 54.0686 73.9246 53.9215 73.5691C53.7745 73.2136 53.699 72.8326 53.6993 72.4479C53.6989 72.0632 53.7744 71.6822 53.9215 71.3267C54.0685 70.9712 54.2842 70.6481 54.5562 70.3761C54.8283 70.104 55.1513 69.8883 55.5068 69.7412C55.8623 69.5941 56.2433 69.5186 56.628 69.519C57.0127 69.5186 57.3937 69.5941 57.7492 69.7412C58.1046 69.8883 58.4276 70.104 58.6997 70.376C58.9717 70.648 59.1874 70.971 59.3345 71.3265C59.4815 71.682 59.557 72.063 59.5567 72.4477C59.557 72.8324 59.4815 73.2134 59.3345 73.5688C59.1874 73.9243 58.9717 74.2473 58.6997 74.5193C58.4276 74.7914 58.1046 75.0071 57.7492 75.1541C57.3937 75.3012 57.0127 75.3767 56.628 75.3764V75.3766Z" fill="url(#paint2_linear_1024_11610)"/>
<defs>
<radialGradient id="paint0_radial_1024_11610" cx="0" cy="0" r="1" gradientUnits="userSpaceOnUse" gradientTransform="translate(47.4082 47.2802) rotate(90) scale(47.04)">
<stop stop-color="#333944"/>
<stop offset="1" stop-color="#222428"/>
</radialGradient>
<linearGradient id="paint1_linear_1024_11610" x1="20.2665" y1="19.6925" x2="53.5687" y2="52.6625" gradientUnits="userSpaceOnUse">
<stop stop-color="#387EB8"/>
<stop offset="1" stop-color="#366994"/>
</linearGradient>
<linearGradient id="paint2_linear_1024_11610" x1="40.7079" y1="40.864" x2="76.4707" y2="74.6717" gradientUnits="userSpaceOnUse">
<stop stop-color="#FFE052"/>
<stop offset="1" stop-color="#FFC331"/>
</linearGradient>
</defs>
</svg>
