<svg width="95" height="95" viewBox="0 0 95 95" fill="none" xmlns="http://www.w3.org/2000/svg">
<rect x="1.04016" y="0.777469" width="92.736" height="92.736" rx="13.44" fill="url(#paint0_radial_1024_11547)"/>
<rect x="1.04016" y="0.777469" width="92.736" height="92.736" rx="13.44" stroke="#6886C3" stroke-width="1.344"/>
<path d="M74.2056 46.631C74.2056 43.1767 71.4051 40.3761 67.9508 40.3761C67.7284 40.3761 67.5093 40.388 67.2931 40.4109L75.8843 15.0723H39.3749L47.9541 40.3888C47.8275 40.3808 47.7007 40.3767 47.5739 40.3764C44.1195 40.3764 41.319 43.1764 41.319 46.6313C41.319 49.4235 43.149 51.7876 45.6746 52.5919C44.3407 54.9024 42.6621 56.9836 40.7564 58.7818C38.1649 61.2263 35.1991 63.0802 31.9914 64.2224C28.1723 62.2604 26.3689 57.8972 27.9961 54.0717C28.1799 53.6395 28.3675 53.2016 28.5468 52.7657C31.3135 52.12 33.3755 49.6397 33.3755 46.676C33.3755 43.2214 30.575 40.4211 27.1204 40.4211C23.6658 40.4211 20.8655 43.2214 20.8655 46.676C20.8655 48.7944 21.9193 50.6656 23.5305 51.7971C21.9824 55.3219 19.7066 59.0111 18.9976 63.2866C18.1478 68.4105 18.9947 73.8497 23.4265 76.9214C33.7476 84.0749 44.9512 72.4868 56.7638 69.5737C61.0449 68.5182 65.7443 68.6882 69.516 66.5038C72.3485 64.8633 74.2159 62.1445 74.7457 59.0922C75.2695 56.0769 74.5061 53.0747 72.7509 50.6404C73.6925 49.5168 74.2077 48.0971 74.2056 46.631" fill="#99425B"/>
<path d="M73.2407 58.8311C72.7806 61.4812 71.1439 63.7957 68.7506 65.1822C66.5193 66.4744 63.8457 66.8601 61.0147 67.2682C59.4982 67.4868 57.9301 67.7132 56.3982 68.0908C52.3476 69.0897 48.4242 71.0385 44.6303 72.9231C37.0373 76.6946 30.48 79.9513 24.297 75.666C19.7678 72.5271 19.9769 66.7194 20.5045 63.5369C20.9936 60.5883 22.3158 57.8728 23.5941 55.2468C23.8119 54.8005 24.0279 54.3533 24.2422 53.9053C24.8866 54.1629 25.5628 54.3325 26.2525 54.4096C24.9511 58.7047 26.9978 63.3748 31.2933 65.5815L31.8814 65.8837L32.5038 65.662C35.8999 64.4524 39.0292 62.5119 41.8047 59.8931C43.5988 58.2004 45.1415 56.3277 46.4094 54.3267C46.7948 54.3849 47.1841 54.4141 47.5739 54.4141C51.5166 54.4141 54.7815 51.4667 55.2867 47.6599C56.9005 47.6009 58.6146 47.6004 60.2378 47.6595C60.7425 51.4667 64.0078 54.4144 67.9505 54.4144C69.5991 54.4144 71.1282 53.8977 72.388 53.02C73.2626 54.8103 73.589 56.8247 73.2407 58.8311V58.8311ZM27.1206 41.9491C29.7273 41.9491 31.8479 44.0699 31.8479 46.6766C31.8479 47.6128 31.5731 48.4859 31.1014 49.2212C30.3157 50.4467 28.9799 51.2867 27.4454 51.3914C27.338 51.3986 27.2297 51.4038 27.1206 51.4038C26.5397 51.4038 25.9832 51.2979 25.4687 51.1055C24.4324 50.7158 23.5647 49.9767 23.0151 49.0157C22.607 48.3037 22.3925 47.4972 22.3931 46.6766C22.3931 44.0699 24.5139 41.9491 27.1206 41.9491V41.9491ZM42.8469 46.6316C42.8469 44.2632 44.5977 42.2967 46.8725 41.9567C47.1015 41.9222 47.3358 41.9043 47.5742 41.9043C49.0897 41.9043 50.439 42.6222 51.3042 43.7346C51.521 44.012 51.7061 44.3127 51.8561 44.6311C52.15 45.257 52.302 45.9401 52.3014 46.6316C52.3014 47.0094 52.2557 47.3768 52.1716 47.7292C51.7109 49.6578 50.0664 51.1321 48.0511 51.335C47.8944 51.3507 47.7354 51.3588 47.5742 51.3588C46.6649 51.3596 45.7749 51.0965 45.0122 50.6014C43.7107 49.7583 42.8469 48.2942 42.8469 46.6316V46.6316ZM62.5771 41.01C61.5484 41.9919 60.808 43.2367 60.4363 44.6094C58.6545 44.5437 56.8709 44.5437 55.0891 44.6094C54.6891 43.1256 53.86 41.8165 52.7445 40.8222L57.6363 30.931L62.5771 41.01ZM41.5057 16.6007H73.7533L66.1367 39.0643C65.809 39.1428 65.4868 39.2426 65.1722 39.3631L57.6482 24.0144L50.1028 39.2714C49.7739 39.1585 49.4377 39.0679 49.0966 39.0002L41.5057 16.6007ZM72.6778 46.6318C72.6778 47.1056 72.6071 47.5633 72.4768 47.9954C72.1678 49.0128 71.5261 49.897 70.6546 50.5062C69.8626 51.0621 68.9182 51.3599 67.9505 51.3591C65.7679 51.3591 63.9266 49.8716 63.3852 47.8573C63.2777 47.4577 63.2233 47.0457 63.2233 46.6318C63.2233 45.9856 63.3538 45.3694 63.5895 44.808C63.7111 44.5207 63.8609 44.2462 64.0366 43.9884C64.8874 42.7327 66.3229 41.9046 67.9505 41.9046C68.0998 41.9046 68.247 41.9122 68.3929 41.926C70.793 42.1496 72.678 44.1741 72.678 46.6318H72.6778ZM75.7333 46.6318C75.7333 42.8322 72.9956 39.6619 69.3899 38.9847L78.0153 13.5449H37.2442L45.8829 39.0362C42.4024 39.8107 39.7916 42.921 39.7916 46.6316C39.7916 49.4178 41.264 51.865 43.4707 53.2403C42.4093 54.8217 41.1507 56.3099 39.7083 57.6709C37.4206 59.8288 34.8722 61.4655 32.1248 62.5424C29.3573 60.804 28.1876 57.5256 29.4023 54.6698L29.4976 54.446L29.6762 54.026C32.7157 52.9658 34.9032 50.0728 34.9032 46.6766C34.9032 42.3851 31.4119 38.8938 27.1206 38.8938C22.8293 38.8938 19.3376 42.3851 19.3376 46.6766C19.3376 48.8426 20.2281 50.804 21.661 52.2165C21.3937 52.7827 21.1225 53.347 20.8472 53.9093C19.5369 56.6001 18.0521 59.6499 17.4904 63.0369C16.3752 69.7633 18.1742 75.1403 22.5565 78.1773C25.2156 80.0201 27.9161 80.7449 30.6336 80.7449C35.7503 80.7449 40.9266 78.1742 45.9894 75.6593C49.6354 73.8486 53.4057 71.9759 57.1298 71.0573C58.5156 70.7157 59.9413 70.5099 61.4509 70.2923C64.4445 69.8604 67.5398 69.414 70.2818 67.8261C73.4602 65.9851 75.6357 62.8969 76.251 59.354C76.7791 56.3123 76.1436 53.2658 74.5935 50.6819C75.3404 49.463 75.7349 48.0611 75.7333 46.6316V46.6318Z" fill="white"/>
<defs>
<radialGradient id="paint0_radial_1024_11547" cx="0" cy="0" r="1" gradientUnits="userSpaceOnUse" gradientTransform="translate(47.4082 47.1455) rotate(90) scale(47.04)">
<stop stop-color="#333944"/>
<stop offset="1" stop-color="#222428"/>
</radialGradient>
</defs>
</svg>
