<svg width="95" height="95" viewBox="0 0 95 95" fill="none" xmlns="http://www.w3.org/2000/svg">
<rect x="0.76868" y="1.48841" width="92.736" height="92.736" rx="13.44" fill="url(#paint0_radial_1024_11562)"/>
<rect x="0.76868" y="1.48841" width="92.736" height="92.736" rx="13.44" stroke="#6886C3" stroke-width="1.344"/>
<path fill-rule="evenodd" clip-rule="evenodd" d="M39.808 21.8294C41.6923 18.8174 44.1916 16.2368 47.1406 14.2559C50.0518 16.1906 52.5188 18.7221 54.3793 21.6809C59.2912 28.4924 61.7679 36.7566 61.4136 45.1469C62.9406 46.3784 64.5138 47.5608 66.0157 48.816C68.1689 50.7354 69.1706 53.6325 68.6649 56.4709C67.9392 59.9691 67.2443 63.4743 66.478 66.9641C65.9695 68.4897 64.3178 69.3149 62.7907 68.8048C62.5245 68.7152 62.2738 68.589 62.0426 68.428C59.5782 66.4485 57.1771 64.4003 54.7212 62.4193C52.8256 64.1943 50.374 65.259 47.7836 65.4313C44.794 65.577 41.8703 64.5236 39.6609 62.5034C37.8957 63.802 36.2552 65.3627 34.5292 66.7567C33.7727 67.4992 32.9307 68.1478 32.0187 68.6899C30.5183 69.2714 28.8301 68.5275 28.2473 67.027C28.2193 66.9542 28.1941 66.8813 28.1717 66.8072C27.3829 63.3943 26.5578 59.9928 25.7943 56.576C25.2003 53.6088 26.2706 50.5519 28.5878 48.6046C29.9285 47.5229 31.286 46.461 32.6533 45.4104C33.033 45.217 32.8425 44.7827 32.8621 44.4478C32.68 36.3587 35.1218 28.4265 39.8206 21.8406M42.2386 32.4038C40.4539 34.7028 40.6682 37.9754 42.7416 40.0208C45.1274 42.3493 48.9101 42.4277 51.3897 40.1987C53.1535 38.6087 53.7601 36.0982 52.9153 33.8777C52.0593 31.7412 50.0742 30.2646 47.7808 30.0601C45.6542 29.8387 43.5626 30.7227 42.2373 32.401" fill="#754ABC"/>
<path d="M38.9557 69.6538C39.0132 68.8553 39.7066 68.2542 40.5052 68.3103C40.7153 68.3257 40.9199 68.3859 41.1048 68.4882C44.9167 70.3318 49.3634 70.3318 53.1769 68.4882C53.8858 68.1002 54.7754 68.3608 55.1633 69.071C55.2488 69.2251 55.3048 69.3932 55.3287 69.5684C55.34 71.7047 55.34 73.8412 55.3287 75.9777C55.2488 76.7721 54.54 77.3521 53.7456 77.2708C53.5032 77.247 53.272 77.1616 53.0718 77.0242C52.4315 76.4807 51.8543 75.8698 51.2393 75.2982C50.2615 77.1264 49.3451 78.9799 48.3617 80.8026C47.9149 81.4765 47.0056 81.6586 46.3318 81.2117C46.1748 81.1067 46.039 80.9735 45.9325 80.818C44.9462 78.9911 44.0342 77.1264 43.0382 75.3011C42.4315 75.8755 41.8528 76.4849 41.2113 77.0271C40.55 77.4767 39.6492 77.3044 39.1994 76.6432C39.0636 76.4428 38.9795 76.2102 38.9557 75.9678C38.9389 73.8608 38.9557 71.7524 38.9557 69.6453" fill="#754ABC"/>
<path d="M47.0944 38.8764C48.7127 38.9142 50.0533 37.6323 50.0911 36.0156V35.9973C50.0645 34.3806 48.7322 33.0903 47.1155 33.1156L47.0944 33.1169C45.4778 33.0806 44.137 34.3625 44.1021 35.9791L44.1006 35.9973C44.1287 37.6154 45.4624 38.9043 47.079 38.8764H47.0944Z" fill="#754ABC"/>
<defs>
<radialGradient id="paint0_radial_1024_11562" cx="0" cy="0" r="1" gradientUnits="userSpaceOnUse" gradientTransform="translate(47.1367 47.8564) rotate(90) scale(47.04)">
<stop stop-color="#333944"/>
<stop offset="1" stop-color="#222428"/>
</radialGradient>
</defs>
</svg>
