<svg width="95" height="95" viewBox="0 0 95 95" fill="none" xmlns="http://www.w3.org/2000/svg">
<rect x="1.19251" y="0.929812" width="92.736" height="92.736" rx="13.44" fill="url(#paint0_radial_1024_11459)"/>
<rect x="1.19251" y="0.929812" width="92.736" height="92.736" rx="13.44" stroke="#6886C3" stroke-width="1.344"/>
<g clip-path="url(#clip0_1024_11459)">
<path d="M54.7303 43.2453L47.4775 39.0586L40.2248 43.2457L40.2246 51.622L47.4775 55.8106L54.7304 51.622L54.7303 43.2453Z" fill="white"/>
<path d="M40.2138 17.2865L44.136 15.0221C45.1513 14.4325 46.304 14.1211 47.478 14.1191C48.6545 14.1214 49.8095 14.4343 50.8262 15.0263L73.9122 28.3551C75.0157 28.992 75.8542 29.8371 76.4164 30.8582C76.9649 31.8549 77.25 33.0179 77.25 34.3222V60.8378C77.25 63.3441 76.1157 65.3151 73.9643 66.5569L50.9185 79.863C48.682 81.154 46.2614 81.1478 44.012 79.8488C39.9655 77.513 35.9194 75.1769 31.8734 72.8408L31.8062 72.8019C28.2116 70.7265 24.617 68.651 21.0221 66.5758C20.0605 66.0203 19.1922 65.1662 18.5836 64.0921C18.0404 63.1319 17.7041 61.9977 17.7041 60.737V33.1471C17.7041 30.7232 18.8474 29.4994 20.9884 28.2633L30.1953 22.9464V57.4195L30.1949 57.4489L47.4776 67.4262L64.7584 57.4489V37.5582L64.7584 37.4939L47.4776 27.518L40.2138 31.7113V17.2865Z" fill="white"/>
</g>
<defs>
<radialGradient id="paint0_radial_1024_11459" cx="0" cy="0" r="1" gradientUnits="userSpaceOnUse" gradientTransform="translate(47.5605 47.2978) rotate(90) scale(47.04)">
<stop stop-color="#333944"/>
<stop offset="1" stop-color="#222428"/>
</radialGradient>
<clipPath id="clip0_1024_11459">
<rect width="60.1014" height="67.2" fill="white" transform="translate(17.3213 13.6973)"/>
</clipPath>
</defs>
</svg>
