<svg width="95" height="95" viewBox="0 0 95 95" fill="none" xmlns="http://www.w3.org/2000/svg">
<rect x="1.07239" y="1.04895" width="92.736" height="92.736" rx="13.44" fill="url(#paint0_radial_1024_11659)"/>
<rect x="1.07239" y="1.04895" width="92.736" height="92.736" rx="13.44" stroke="#6886C3" stroke-width="1.344"/>
<path d="M80.9976 13.8164H13.8408V80.9732H80.9976V13.8164Z" fill="black"/>
<path d="M80.9976 13.8164H13.8408V80.9732H80.9976V13.8164Z" fill="white"/>
<path d="M80.8179 81.0191C58.4932 81.0191 36.1931 81.0191 13.893 81.0191C13.8913 81.0131 13.8879 81.007 13.8879 81.0011C13.8877 58.6235 13.8877 36.2458 13.8877 13.8652C36.271 13.8652 58.6545 13.8652 81.0412 13.8652C81.0412 36.2455 81.0412 58.6286 81.0412 81.0191C80.9772 81.0191 80.9098 81.0191 80.8179 81.0191ZM69.271 57.7498C69.1638 57.6274 69.0625 57.4995 68.9488 57.3837C67.6877 56.1016 66.0999 55.8343 64.4093 55.987C62.943 56.1194 61.6872 56.7648 60.6015 57.7496C60.5429 57.8028 60.4788 57.85 60.3943 57.9188C60.3943 57.7815 60.3998 57.6815 60.3934 57.5821C60.3619 57.0949 60.133 56.7256 59.6996 56.5035C59.2749 56.2861 58.8407 56.3068 58.4401 56.5628C57.9946 56.8474 57.8425 57.2848 57.843 57.799C57.8462 61.6507 57.8447 65.5023 57.8447 69.354C57.8447 69.5943 57.8399 69.8347 57.8458 70.0748C57.8606 70.6931 58.1885 71.1829 58.6863 71.3397C59.5597 71.6146 60.3929 71.0091 60.3941 70.0879C60.3976 67.4452 60.3969 64.8024 60.3943 62.1597C60.3937 61.4154 60.5818 60.733 61.0566 60.152C62.1627 58.7981 63.5951 58.2262 65.3278 58.4236C66.1717 58.5198 66.8536 58.9115 67.3214 59.6347C67.7603 60.3135 67.9106 61.0796 67.9167 61.8686C67.9332 64.046 67.9269 66.2238 67.9292 68.4014C67.9299 68.9981 67.92 69.5951 67.9316 70.1916C67.9498 71.1247 68.9528 71.7022 69.7741 71.2589C70.2964 70.9771 70.482 70.516 70.4813 69.9468C70.478 67.4745 70.4853 65.0022 70.4759 62.5301C70.4737 61.943 70.4539 61.3523 70.3857 60.7698C70.2592 59.6897 69.9594 58.6631 69.271 57.7498ZM53.1949 56.3693C53.0414 56.3803 52.8817 56.3676 52.7358 56.4063C52.1274 56.5681 51.7922 57.0517 51.7918 57.754C51.7903 60.2728 51.7955 62.7918 51.787 65.3106C51.7856 65.7271 51.7638 66.1499 51.6902 66.5587C51.4963 67.6377 50.9177 68.4459 49.8796 68.8554C48.8681 69.2543 47.8267 69.268 46.7795 68.9839C45.9852 68.7683 45.3761 68.3124 44.9784 67.5883C44.6932 67.0692 44.5544 66.5032 44.5441 65.9178C44.5233 64.7324 44.5303 63.5464 44.529 62.3606C44.5273 60.8261 44.531 59.2914 44.5274 57.7569C44.5257 57.0012 44.0237 56.4076 43.3671 56.3692C42.5536 56.3217 41.98 56.8756 41.9792 57.7238C41.9764 60.3123 41.973 62.9009 41.9809 65.4896C41.9839 66.415 42.0832 67.3278 42.4356 68.1989C43.1039 69.8516 44.3512 70.8492 46.0247 71.3348C47.0779 71.6404 48.163 71.6588 49.25 71.531C50.0899 71.4322 50.8928 71.2029 51.6242 70.7778C53.3516 69.7741 54.2303 68.2131 54.2861 66.2641C54.3678 63.4066 54.3344 60.5455 54.3376 57.686C54.3384 56.9683 53.9164 56.4922 53.1949 56.3693Z" fill="#ECDC5A"/>
<path d="M69.2799 57.7644C69.9592 58.6638 70.2592 59.6904 70.3855 60.7706C70.4537 61.3531 70.4735 61.9438 70.4758 62.531C70.4852 65.0031 70.478 67.4754 70.481 69.9475C70.4818 70.5169 70.2963 70.9778 69.7739 71.2598C68.9526 71.703 67.9496 71.1255 67.9315 70.1924C67.9198 69.5959 67.9297 68.9989 67.9291 68.4021C67.9267 66.2246 67.9331 64.0469 67.9165 61.8694C67.9106 61.0805 67.7603 60.3143 67.3213 59.6355C66.8535 58.9122 66.1716 58.5206 65.3276 58.4245C63.595 58.2271 62.1625 58.7988 61.0563 60.1527C60.5818 60.7338 60.3934 61.4163 60.3942 62.1606C60.3967 64.8032 60.3974 67.4459 60.3939 70.0887C60.3927 71.0098 59.5596 71.6155 58.6863 71.3405C58.1883 71.1838 57.8606 70.694 57.8456 70.0756C57.8399 69.8355 57.8447 69.5952 57.8447 69.3549C57.8447 65.5032 57.8461 61.6514 57.8428 57.7998C57.8424 57.2856 57.9946 56.8481 58.4398 56.5636C58.8406 56.3076 59.2748 56.2869 59.6994 56.5044C60.1328 56.7264 60.3617 57.0956 60.3933 57.5828C60.3997 57.6822 60.3942 57.7824 60.3942 57.9196C60.4787 57.8509 60.5427 57.8036 60.6014 57.7504C61.6869 56.7657 62.943 56.1203 64.4091 55.9879C66.0997 55.8351 67.6876 56.1024 68.9485 57.3846C69.0623 57.5004 69.1636 57.6283 69.2799 57.7644Z" fill="#111827"/>
<path d="M53.2162 56.3712C53.9169 56.4929 54.3389 56.9691 54.338 57.6866C54.335 60.5463 54.3684 63.4073 54.2866 66.2648C54.2309 68.2139 53.3522 69.7748 51.6248 70.7785C50.8933 71.2036 50.0905 71.4329 49.2506 71.5317C48.1635 71.6596 47.0785 71.641 46.0252 71.3355C44.3518 70.8499 43.1045 69.8523 42.4362 68.1997C42.0838 67.3285 41.9844 66.4158 41.9815 65.4903C41.9736 62.9017 41.9769 60.313 41.9797 57.7245C41.9806 56.8764 42.5541 56.3224 43.3676 56.37C44.0243 56.4084 44.5263 57.002 44.528 57.7576C44.5316 59.2921 44.5278 60.8268 44.5295 62.3613C44.5309 63.5471 44.5237 64.7331 44.5447 65.9185C44.555 66.5039 44.6937 67.07 44.9789 67.589C45.3766 68.3132 45.9857 68.769 46.7801 68.9847C47.8273 69.2688 48.8687 69.2551 49.8802 68.8561C50.9183 68.4467 51.4968 67.6384 51.6908 66.5595C51.7643 66.1506 51.7861 65.7279 51.7875 65.3113C51.796 62.7925 51.7909 60.2736 51.7923 57.7548C51.7928 57.0525 52.128 56.5688 52.7363 56.4071C52.8823 56.3682 53.042 56.3811 53.2162 56.3712Z" fill="#111827"/>
<defs>
<radialGradient id="paint0_radial_1024_11659" cx="0" cy="0" r="1" gradientUnits="userSpaceOnUse" gradientTransform="translate(47.4404 47.417) rotate(90) scale(47.04)">
<stop stop-color="#333944"/>
<stop offset="1" stop-color="#222428"/>
</radialGradient>
</defs>
</svg>
