<svg width="95" height="95" viewBox="0 0 95 95" fill="none" xmlns="http://www.w3.org/2000/svg">
<rect x="0.935672" y="1.06458" width="92.736" height="92.736" rx="13.44" fill="url(#paint0_radial_1024_11509)"/>
<rect x="0.935672" y="1.06458" width="92.736" height="92.736" rx="13.44" stroke="#6886C3" stroke-width="1.344"/>
<path d="M33.7855 70.5736C31.2255 68.5599 28.4948 66.6293 26.6288 63.9112C22.7021 59.1172 19.6788 53.5671 17.6118 47.7343C16.3628 43.9419 15.9349 39.8757 14.3245 36.2295C12.64 33.5813 14.6132 30.6864 17.5141 29.8448C18.8053 29.597 21.0762 28.3789 18.3353 29.2493C15.878 31.0527 15.64 27.6129 18.1595 27.3949C19.8796 27.1664 20.5127 25.7585 19.9242 24.4912C18.0786 23.2872 24.4011 21.9643 21.2196 20.168C17.9057 16.5928 25.8554 15.9045 23.8938 19.9648C23.4245 23.0872 29.4489 19.3925 28.0511 22.9986C29.4714 24.7299 33.371 23.3923 33.2743 25.8214C35.3438 25.9638 36.0543 27.7053 37.9969 27.8389C40.0105 28.7484 43.6602 29.4648 44.3457 31.734C42.3479 33.3152 37.7224 28.4668 37.5002 32.8449C38.1034 39.3118 37.9498 45.9735 40.316 52.1318C41.435 55.8609 44.1478 58.7963 46.598 61.7007C48.9428 64.545 52.1183 66.5474 55.3549 68.2334C58.194 69.5727 61.2548 70.4607 64.3491 71.0176C65.6041 70.0579 67.8198 66.489 69.7779 67.994C69.8707 69.6849 65.892 71.5287 69.5905 71.3417C71.7624 70.6868 73.2691 73.0213 75.0573 70.9153C76.705 72.8674 81.906 69.6684 80.7337 73.658C79.1482 74.681 76.8361 74.0626 75.2482 75.4698C72.6303 74.1621 70.5457 76.6398 67.6472 76.3265C64.4285 76.9031 61.1539 77.1358 57.8902 77.1407C52.5366 76.7178 47.0695 76.5396 41.976 74.6753C39.1074 73.8418 36.3071 72.2079 33.7855 70.5736ZM38.307 72.5327C41.1087 73.7441 43.8483 75.0213 46.9186 75.4062C51.7899 76.084 56.8201 77.1259 61.709 76.1754C59.4964 75.1763 57.2089 76.5645 55.0048 75.461C52.3612 76.0298 49.5243 75.3162 46.8364 74.9647C43.7801 73.6031 40.4819 72.667 37.6197 70.9002C34.0435 69.5938 39.4695 72.5752 40.4352 72.8167C42.671 74.0858 37.9769 72.1664 37.3149 71.6387C35.4426 70.5883 35.2039 70.8077 37.1297 71.8743C37.5174 72.1014 37.9002 72.3394 38.307 72.5327ZM32.9759 68.7652C35.6908 69.7707 32.9639 66.8564 31.7202 67.0251C31.1689 66.0689 29.6144 65.465 30.7109 64.9514C28.738 65.6362 28.6442 62.3472 27.7172 62.8172C25.6301 62.158 26.9051 59.8238 24.419 58.3902C24.1919 56.8797 21.9491 55.5695 21.2341 53.2911C20.9177 52.1244 18.6995 48.7746 20.0624 51.892C21.2225 54.8935 23.2635 57.4639 24.9621 60.0309C26.2811 62.4751 27.8388 65.0298 30.2409 66.5548C31.0508 67.3317 31.8326 68.5216 32.9759 68.7652ZM25.1551 60.1785C25.6515 61.0658 25.2501 59.7683 25.1551 60.1785ZM36.2273 69.9707C36.8284 69.7014 35.3628 69.6314 36.2273 69.9707ZM37.7009 70.5085C37.5483 69.7661 37.0284 70.9234 37.7009 70.5085ZM39.5458 71.2777C40.4239 70.4414 38.1924 70.7504 39.5458 71.2777ZM42.7075 73.04C43.2412 72.2511 40.9994 72.7422 42.7075 73.04ZM36.6364 68.8074C38.0004 67.9251 34.8742 68.7955 36.6364 68.8074ZM38.0201 69.4975C37.9814 69.031 37.5269 69.7067 38.0201 69.4975ZM44.9363 73.8144C46.0482 74.5164 51.4293 75.3524 48.0597 74.1023C47.4959 74.2212 41.8122 72.4947 44.9363 73.8144ZM33.9563 65.2629C33.8484 64.7953 32.2302 64.7461 33.9563 65.2629ZM37.1764 67.1394C38.0141 66.5551 35.437 66.6887 37.1764 67.1394ZM39.8847 68.8001C41.0869 68.3466 37.9336 68.3448 39.8847 68.8001ZM32.6465 63.8363C33.9507 64.8364 37.908 63.9643 34.6443 63.2387C33.1587 62.447 29.8109 61.9049 32.0928 63.7161L32.6461 63.8359L32.6465 63.8363ZM41.719 69.3734C42.2625 68.4475 39.44 68.8447 41.719 69.3734ZM38.9619 67.1826C42.1525 68.085 36.2793 65.1648 38.1748 66.8504L38.5949 67.0402L38.9619 67.1826ZM44.4895 70.3771C47.511 70.4059 41.7605 69.9605 44.4895 70.3771ZM31.4836 62.0877C31.3655 61.5253 30.7383 62.1352 31.4836 62.0877ZM49.6005 73.2442C49.6811 72.2276 48.6145 74.0004 49.6005 73.2442ZM36.6396 65.2453C36.4568 64.7099 35.6957 65.2231 36.6396 65.2453ZM31.7701 61.7344C33.5049 61.6304 29.3954 60.9702 31.7701 61.7344ZM26.0013 58.0057C25.7855 57.1743 24.1139 56.5109 26.0013 58.0057ZM41.1457 67.6168C40.9962 67.6959 40.8279 67.2543 41.1457 67.6168ZM50.5719 73.401C50.5416 72.8473 50.0586 73.6105 50.5719 73.401ZM40.3114 66.7551C40.4812 66.0415 38.8322 66.5393 40.3114 66.7551ZM33.2891 62.3046C34.5792 62.1665 31.222 61.4321 33.2891 62.3046ZM45.168 69.6859C47.1788 68.8893 43.2081 69.2971 45.168 69.6859ZM38.989 65.4917C41.3067 65.7905 36.2315 63.915 38.4806 65.3237L38.989 65.4917ZM47.0441 70.4446C49.2079 69.1509 48.4946 73.4738 50.7153 70.8102C52.9054 69.2106 48.8236 72.7872 51.5231 71.0949C53.4756 69.7893 56.3593 71.714 58.1809 72.3418C59.4908 72.2775 60.7648 73.4748 62.1077 72.7464C64.6929 72.0504 57.0518 71.7136 59.0549 70.4783C56.689 71.1666 54.9419 69.6575 53.7776 68.1423C51.1241 67.5296 48.0559 66.173 46.7316 63.8247C46.1917 62.943 47.512 63.9488 46.2655 62.5075C44.6667 61.0855 43.868 59.4712 42.7951 57.7423C41.5127 57.0582 41.3633 55.045 41.2335 57.6749C41.2441 56.0152 39.6854 54.8977 39.3053 55.3624C39.2983 53.7636 40.9727 54.5651 39.8007 53.3822C39.5483 51.7254 38.7179 49.999 38.468 48.1284C38.0799 47.2267 38.4131 45.2954 37.1437 47.3368C36.6814 49.4942 36.9904 44.6858 37.7097 46.2716C38.6536 44.6534 37.3705 44.8436 37.3181 45.0683C37.9333 43.7032 37.7072 41.7666 37.1574 42.5055C37.4854 41.0586 37.6752 37.1804 36.667 37.8677C37.2784 36.3546 37.8261 30.9444 35.173 33.0073C34.098 33.0224 32.2362 33.3975 31.3563 33.8351C34.1159 35.3563 31.0786 34.3846 29.9554 34.1427C29.8092 35.5503 28.6966 34.9414 27.3066 34.9552C29.5265 35.2301 26.2256 37.2261 24.952 36.4506C23.298 37.2412 26.3792 39.2144 24.985 39.8243C25.1562 40.7443 22.4511 39.4925 22.6634 41.6165C21.0576 40.9412 22.4423 44.1363 23.2456 43.0557C25.977 43.795 25.1685 45.4799 25.2378 47.0808C24.7931 48.0135 23.0406 44.8883 24.8475 45.0331C23.4224 42.7175 23.2709 44.1961 22.0865 45.2718C21.8109 45.3498 25.1077 46.8024 23.0389 47.5206C24.8591 47.8015 24.9108 49.3943 25.2817 50.4022C26.3753 51.5415 26.1518 49.1437 27.4605 50.5133C26.6323 49.2934 23.073 47.0759 25.9384 47.7871C25.9233 46.5591 25.4202 45.5689 26.2984 45.5931C27.1677 44.0182 25.3879 49.4755 27.3477 47.4739C27.8901 47.2373 28.0244 45.8975 28.9999 47.6004C30.4159 48.9939 29.5114 50.0039 27.5133 48.7278C27.8708 49.9406 30.186 50.3737 29.7508 52.2703C30.2124 53.938 30.8575 53.3238 31.4199 53.2272C31.8615 54.8478 32.1118 53.656 32.1329 52.8851C34.1532 53.3175 33.68 54.512 34.3124 55.3462C35.7045 55.9748 32.3192 51.0866 34.7097 53.8768C37.2246 56.1471 35.6528 57.0948 33.3959 56.7313C34.8243 56.6153 35.2851 58.662 37.0717 58.5903C38.701 59.3651 39.8038 62.3423 36.9957 61.1027C36.022 60.2246 32.5748 59.1411 35.3902 60.8116C37.9902 62.0157 40.0552 62.7363 42.5631 64.2476C44.358 65.529 45.1332 66.9966 45.8134 67.2867C44.3053 68.0073 41.268 66.7115 43.5231 66.3143C42.1166 66.058 40.5343 65.3469 41.8814 67.0996C43.0274 68.0558 45.941 67.9549 46.4634 68.0629C46.0205 69.0387 45.2608 69.1161 46.4813 69.192C45.1195 69.9176 46.9179 70.0301 47.0441 70.4446ZM44.2596 62.5806C43.431 61.7144 43.2169 60.0913 44.1123 61.5035C44.5718 61.688 45.5838 64.1555 44.2596 62.5806ZM53.3283 68.3413C53.845 68.3079 53.3434 68.734 53.3283 68.3413ZM42.9512 60.4562C43.251 61.4666 42.9195 59.1464 42.9512 60.4562ZM42.0502 59.2434C43.3639 59.8136 41.0079 57.2298 42.0502 59.2434ZM31.1271 51.7046C31.7391 51.5415 31.4284 52.7519 31.1271 51.7046ZM39.82 56.4167C40.2619 57.6014 40.1961 55.0045 39.82 56.4167ZM33.6786 52.1462C34.5842 52.877 33.2458 51.3672 33.6786 52.1462ZM38.9492 53.836C37.9621 51.6238 39.6481 52.6278 39.1675 54.1981L38.9492 53.836ZM29.8602 47.7744C29.4186 47.0485 28.6885 44.9192 28.9237 44.2696C29.1363 45.3277 31.1749 48.8252 29.9238 45.7179C28.5408 43.1133 31.5764 46.5634 31.8889 47.213C32.0341 47.8595 31.0357 47.0365 31.7121 48.5517C30.4782 46.8267 30.9837 49.5047 29.8602 47.7744ZM27.0513 45.8388C27.6943 46.9958 27.1667 44.1514 27.0513 45.8388ZM28.3148 46.2737C29.3371 48.049 28.9177 45.0001 28.3148 46.2737ZM25.275 43.9222C24.2292 42.8831 23.4727 41.9255 25.3242 43.2775C26.0379 43.3053 23.7388 41.099 25.4958 42.5769C27.3435 42.9137 26.408 45.6058 25.275 43.9222ZM26.8717 43.8808C27.4792 43.2789 27.1941 44.4731 26.8717 43.8808ZM27.8543 44.1957C28.9715 44.9192 26.9332 42.4697 27.8543 44.1957ZM25.9011 42.3291C22.861 39.6236 29.7217 43.744 26.3978 42.8307L25.9011 42.3291ZM34.6123 47.3905C33.2965 46.6017 34.2636 41.8369 34.7121 45.0957C35.991 44.6819 34.6415 46.7785 35.5955 46.7592C35.4451 48.082 35.0183 48.5577 34.6119 47.3905H34.6123ZM37.8341 49.2948C38.1055 50.2763 37.9632 47.8588 37.8341 49.2948ZM37.2745 48.7419C37.4193 48.1284 37.2893 49.4639 37.2745 48.7419ZM26.4977 41.4404C24.5445 38.7455 32.174 44.1662 27.7485 42.1238C27.2862 42.0028 26.7297 41.9599 26.4977 41.4404ZM32.702 44.7297C33.1147 45.1059 32.5171 42.4605 32.702 44.7297ZM37.4126 47.7516C37.7772 46.459 37.4397 48.6065 37.4126 47.7516ZM26.7968 40.4114C27.9576 40.1636 31.6077 42.4503 28.2557 41.0653C27.8831 40.6526 27.0893 40.8403 26.7968 40.4114ZM36.7651 45.3804C36.8892 43.0603 37.458 43.9947 36.7693 45.7126L36.7651 45.3804ZM27.6606 39.6046C28.1334 38.911 26.4049 36.4678 27.9098 38.7282C28.5602 39.245 29.7923 39.5937 28.7043 39.811C30.4156 41.3208 28.287 40.2202 27.6606 39.6046ZM36.2723 44.6556C36.5992 42.0127 36.5605 46.2041 36.2723 44.6556ZM26.6731 37.1632C27.0345 37.0085 26.864 37.6448 26.6731 37.1632ZM28.9194 38.5001C29.9857 39.8528 29.4974 37.2873 28.9194 38.5001ZM35.2552 42.0246C35.3748 42.7024 35.2493 41.5588 35.2552 42.0246ZM34.8882 41.2122C35.7063 42.3611 34.0087 39.0425 34.8882 41.2122ZM34.3483 39.7899C34.8499 40.9162 34.2006 38.8935 34.3483 39.7899ZM35.2271 38.3612C34.6235 37.2978 35.9893 33.6752 36.1415 35.9215C35.5045 37.6726 35.9576 38.652 36.402 36.3037C37.2228 34.4556 36.2248 39.9505 35.2271 38.3612ZM36.1302 32.9732C36.3932 32.6505 36.1886 33.3627 36.1302 32.9732ZM34.6221 62.6906C34.6671 62.8893 34.2643 62.3785 34.6221 62.6906ZM37.7287 64.262C39.4569 64.7057 39.4481 63.9931 37.8862 63.7818C37.046 63 34.3954 62.1711 36.7683 63.6848C36.9251 64.0827 37.4218 64.0736 37.7287 64.262ZM31.5929 60.1866C32.5452 60.8967 35.179 62.1988 32.9491 60.4573C33.7011 59.5834 31.5103 59.1186 32.2369 58.5344C30.3885 57.4031 30.7787 57.5036 32.0738 57.5395C29.8521 56.5464 32.3944 56.6206 32.2749 56.1119C31.4182 55.9428 28.0202 54.6013 30.0194 56.2219C27.9872 55.1859 29.535 56.6079 28.9208 56.4575C26.8425 55.8911 30.7713 58.0405 28.5904 57.5068C29.7828 58.4518 31.8 59.9268 29.0949 58.5066C28.7384 59.0198 31.0304 59.7971 31.5929 60.1866ZM34.8422 62.0533C38.7935 63.3266 32.9052 60.4981 34.8422 62.0533ZM51.476 72.1302C51.527 71.3463 50.9361 72.7988 51.476 72.1302ZM53.1856 72.8498C54.0971 71.9664 53.2228 74.2567 54.6961 72.6336C54.7119 71.4714 54.6504 70.7852 53.0031 72.1966C52.5489 72.4483 52.3457 73.5195 53.1856 72.8498ZM26.0474 55.8064C25.7672 54.7061 24.0851 54.7114 26.0474 55.8064ZM27.8729 57.0024C27.1948 55.8785 25.4543 55.985 27.8729 57.0024ZM38.2585 63.2658C39.2723 64.1664 42.9157 63.9266 39.4899 63.3768C38.9826 62.6267 36.2684 62.8073 38.2585 63.2658ZM52.5352 72.0831C54.096 70.7736 51.0236 72.6673 52.5352 72.0831ZM55.781 74.3136C55.7908 73.8932 55.1085 74.4975 55.781 74.3136ZM55.7859 73.7251C57.5141 71.894 54.1115 73.8334 55.7859 73.7251ZM21.5575 52.0474C20.0845 49.9455 20.6417 49.0009 19.2215 47.2851C18.9526 45.9728 16.7846 42.9949 18.1001 46.1496C19.3052 47.9948 19.663 50.8515 21.5575 52.0474ZM55.2442 73.1433C58.4239 71.0882 53.9393 72.248 55.2442 73.1433ZM57.6712 74.0939C59.2637 72.7268 56.6644 73.8081 57.6712 74.0939ZM25.5063 53.4831C25.9619 52.8053 24.3297 53.3966 25.5063 53.4831ZM57.1646 73.4446C58.7061 72.4508 56.8096 72.6034 56.8852 73.536L57.1646 73.4446ZM36.2431 60.2576C36.1903 59.5865 35.4289 60.3149 36.2431 60.2576ZM37.536 61.0018C37.1251 60.1711 36.9043 61.1323 37.536 61.0018ZM59.6381 74.1164C61.6134 72.6916 58.4411 73.8436 59.2236 74.3864L59.6381 74.1164ZM58.8823 73.7508C60.4909 72.4026 57.1833 74.3484 58.8823 73.7508ZM62.7457 76.3241C63.8263 75.6006 61.4338 76.0899 62.7457 76.3241ZM26.4966 52.9944C27.945 53.3189 32.283 56.5605 29.7238 53.2187C28.4125 52.8306 29.1989 49.626 27.862 50.1934C28.7595 51.6927 28.6002 52.3307 26.716 51.3854C24.3477 50.2296 25.385 51.9585 25.8477 52.4348C25.2174 52.5782 26.6822 52.9825 26.4966 52.9944ZM19.9 47.7843C20.1591 46.7121 17.513 41.8854 18.6502 45.3657C19.0608 46.0948 19.0194 47.4763 19.9 47.7843ZM32.0081 55.2492C31.9729 55.161 31.2625 54.6256 32.0081 55.2492ZM33.8442 55.6763C33.8431 54.5409 31.8147 55.2151 33.8442 55.6763ZM49.7552 65.7072C49.4518 64.931 48.5558 65.6889 49.7552 65.7072ZM50.5195 66.2651C50.407 65.8309 50.0786 66.3491 50.5195 66.2651ZM56.8261 70.2375C57.4329 69.7896 56.0692 70.1802 56.8261 70.2375ZM23.195 48.6259C24.9298 47.9541 21.3364 48.1467 23.195 48.6259ZM48.3547 64.4768C48.3354 63.3533 47.2487 64.7552 48.3547 64.4768ZM22.5094 47.0285C23.6238 46.652 21.4787 46.7806 22.5094 47.0285ZM25.7443 48.5953C25.7239 48.2262 25.4023 48.7352 25.7443 48.5953ZM65.1977 72.7893C66.6309 72.4986 69.8964 73.5188 70.4244 72.4097C68.6843 72.3671 64.4032 71.1814 64.2007 72.6923L64.5818 72.7521L65.1977 72.7893ZM26.7722 48.8544C26.7972 47.7164 25.8849 48.8122 26.7722 48.8544ZM18.2674 42.9548C17.8811 40.7862 16.7983 42.6265 18.2674 42.9548ZM20.2958 43.4645C20.3204 42.7685 18.4393 42.8381 20.2958 43.4645ZM21.4545 44.034C21.1922 44.3764 21.1195 43.7623 21.4545 44.034ZM28.7472 48.712C29.0906 48.3966 27.9344 48.4782 28.7472 48.712ZM20.6828 42.7499C20.4867 41.112 18.3335 42.5045 20.6828 42.7499ZM16.5245 40.0521C16.4651 39.2963 16.1191 40.3369 16.5245 40.0521ZM17.1428 39.5849C17.0419 38.6885 16.612 39.6992 17.1428 39.5849ZM20.5598 41.6249C22.005 41.0572 17.9282 40.4508 20.2645 41.5177L20.5598 41.6249ZM66.2945 69.8744C67.2194 69.0264 65.1193 69.6121 66.2945 69.8744ZM71.8197 72.7384C72.1902 71.6419 70.8867 72.8825 71.8197 72.7384ZM20.9099 39.8338C21.0618 38.7732 19.7639 40.0444 20.9099 39.8338ZM16.0474 36.5761C15.7862 35.0789 15.8221 32.4508 18.3201 33.3391C14.9854 34.0011 20.628 37.4838 19.9154 34.734C21.3177 34.8026 22.6585 33.9055 21.9227 35.2673C24.6855 34.9622 26.6007 32.5664 29.2692 32.9022C31.3479 32.6269 33.6206 32.4184 35.8606 31.5818C37.7027 31.4489 39.4755 29.4662 38.4659 28.2907C35.9541 28.0783 33.3253 28.3926 30.5492 28.9445C27.4732 29.5836 24.6785 30.7989 21.5751 31.3202C18.5497 31.7266 22.1832 32.4399 21.317 32.5988C19.7383 33.1468 23.1995 33.5163 21.1121 34.0935C19.823 33.8485 18.4815 33.4056 19.032 32.0469C16.1339 32.423 13.5874 33.6256 15.8769 36.5747L16.0474 36.5761ZM23.0304 33.0199C23.71 30.517 26.6706 35.0796 24.1441 33.3521C23.8425 33.1264 23.3461 32.9422 23.0304 33.0199ZM23.1626 31.8061C24.1434 31.0756 23.6839 32.216 23.1626 31.8061ZM24.4078 31.8261C24.4964 30.6741 27.2588 32.4357 24.8634 32.2409L24.4078 31.8261ZM26.1113 31.1409C26.7336 30.4143 26.2899 31.7878 26.1113 31.1409ZM26.5472 30.8492C27.5829 29.6047 32.4127 30.0547 28.8772 30.7279C27.9298 30.0143 27.2039 31.1487 26.5472 30.8492ZM32.8504 29.8775C35.9815 31.0858 32.6925 26.4781 32.8504 29.8775ZM34.6386 29.868C35.2925 28.1546 37.1761 29.1804 34.941 29.5235C34.9898 29.706 34.8756 30.408 34.6386 29.868ZM20.2044 38.9543C22.1583 37.758 18.1303 37.9162 20.2044 38.9543ZM21.6492 39.3557C22.334 38.6273 20.1605 39.0604 21.6492 39.3557ZM17.3924 36.3346C18.5086 35.4768 16.0713 36.0084 17.3924 36.3346ZM75.0809 72.4244C75.1132 71.4296 74.2277 72.873 75.0809 72.4244ZM69.219 68.4239C69.3856 67.2786 68.4656 68.5241 69.219 68.4239ZM76.6927 72.8104C78.2535 72.8157 81.422 72.3253 78.0257 72.3271C77.4932 72.4104 74.9206 72.3924 76.6927 72.8104ZM22.9197 38.6537C24.1828 38.5669 24.8961 37.2602 22.6754 37.3354C19.2338 36.979 25.7116 38.5138 22.2338 38.0747C21.7663 38.3841 22.893 38.7391 22.9197 38.6537ZM24.032 39.2165C23.9001 38.4055 23.6418 39.6475 24.032 39.2165ZM25.3517 35.6976C25.9001 35.0177 24.5934 35.5159 25.3517 35.6976ZM21.1507 28.6756C23.4052 27.9085 26.4882 27.0469 27.5523 29.0531C26.4692 27.7493 27.1153 26.4658 28.1383 28.3722C29.5853 30.3011 30.3094 27.4948 29.3687 26.8479C30.4409 28.1803 31.6607 28.8099 30.0865 26.9323C31.7971 24.8747 26.6615 27.2016 25.4944 27.1784C24.9326 27.4301 19.6961 28.5135 21.1507 28.6759V28.6756ZM22.4722 26.1452C23.7578 25.175 26.9185 26.7224 24.8904 25.1809C24.6918 25.0059 20.4487 26.3498 22.4722 26.1452ZM27.1593 26.3385C28.6639 26.3772 26.5103 24.3172 28.3032 25.2509C28.0089 24.2887 26.2157 24.1084 25.339 23.7241C24.8433 24.6037 26.3483 26.3505 27.1593 26.3389V26.3385ZM23.2937 22.0842C23.8144 21.3787 22.3815 22.4421 23.2937 22.0842ZM25.2096 22.543C27.6346 22.2213 24.5916 21.4989 24.721 22.517L25.2096 22.543ZM21.6327 19.7437C19.9253 17.5149 24.8437 20.118 23.1088 17.7845C21.6489 16.622 20.2459 19.093 21.6324 19.7437H21.6327ZM43.5442 31.5456C44.3271 30.1573 40.3111 29.6743 43.0166 31.0534C43.2654 31.1371 43.2095 31.6415 43.5442 31.5456Z" fill="white"/>
<defs>
<radialGradient id="paint0_radial_1024_11509" cx="0" cy="0" r="1" gradientUnits="userSpaceOnUse" gradientTransform="translate(47.3037 47.4326) rotate(90) scale(47.04)">
<stop stop-color="#333944"/>
<stop offset="1" stop-color="#222428"/>
</radialGradient>
</defs>
</svg>
