<svg width="95" height="95" viewBox="0 0 95 95" fill="none" xmlns="http://www.w3.org/2000/svg">
<rect x="0.783328" y="0.912234" width="92.736" height="92.736" rx="13.44" fill="url(#paint0_radial_1024_11597)"/>
<rect x="0.783328" y="0.912234" width="92.736" height="92.736" rx="13.44" stroke="#6886C3" stroke-width="1.344"/>
<path fill-rule="evenodd" clip-rule="evenodd" d="M43.3336 46.7085C47.828 42.4265 46.4565 37.1304 42.3861 30.7128C38.3156 24.2953 30.1218 22.0121 28.5932 23.4686C27.0646 24.925 26.7257 35.3377 30.7962 41.7552C34.8667 48.1728 38.8392 50.9906 43.3336 46.7085Z" fill="url(#paint1_linear_1024_11597)"/>
<path fill-rule="evenodd" clip-rule="evenodd" d="M47.2195 47.301C50.5444 52.5432 54.9896 50.6265 60.4917 45.3843C65.9938 40.1421 68.2752 30.1004 67.1443 28.3174C66.0135 26.5345 57.4195 26.6239 51.9175 31.866C46.4154 37.1082 43.8945 42.0589 47.2195 47.301Z" fill="url(#paint2_linear_1024_11597)"/>
<path fill-rule="evenodd" clip-rule="evenodd" d="M45.4014 44.4177C50.9223 45.0956 53.0935 39.9951 54.1058 31.7504C55.1181 23.5057 50.9451 14.7916 49.0673 14.5611C47.1895 14.3305 40.881 21.7576 39.8686 30.0023C38.8563 38.247 39.8804 43.7398 45.4014 44.4177Z" fill="url(#paint3_linear_1024_11597)"/>
<path fill-rule="evenodd" clip-rule="evenodd" d="M44.012 80.8805C55.5874 80.8805 64.9748 77.5179 64.9748 62.2686C64.9748 47.0193 55.5874 34.5059 44.012 34.5059C32.4367 34.5059 23.0566 47.0193 23.0566 62.2686C23.0566 77.5179 32.4367 80.8805 44.012 80.8805Z" fill="url(#paint4_linear_1024_11597)"/>
<path d="M54.5996 59.1524C56.2533 59.1524 57.5938 58.5289 57.5938 57.7598C57.5938 56.9907 56.2533 56.3672 54.5996 56.3672C52.946 56.3672 51.6055 56.9907 51.6055 57.7598C51.6055 58.5289 52.946 59.1524 54.5996 59.1524Z" fill="#EAADCC"/>
<path d="M32.4263 58.3071C34.0676 58.5087 35.4742 58.0532 35.5679 57.2898C35.6616 56.5264 34.4071 55.7442 32.7658 55.5426C31.1245 55.3411 29.718 55.7966 29.6242 56.56C29.5305 57.3234 30.785 58.1056 32.4263 58.3071Z" fill="#EAADCC"/>
<path d="M45.9305 57.2672C45.0293 57.9995 43.9885 58.2983 42.8079 58.1634C41.6274 58.0285 40.7523 57.5385 40.1828 56.6934" stroke="black" stroke-width="0.835578" stroke-linecap="round" stroke-linejoin="round"/>
<path fill-rule="evenodd" clip-rule="evenodd" d="M34.3347 50.0186C35.161 49.9897 35.9208 50.2985 36.4813 50.821C37.0417 51.3436 37.4028 52.08 37.4316 52.9063C37.4605 53.7327 37.1517 54.4925 36.6291 55.0529C36.1065 55.6133 35.37 55.9744 34.5436 56.0032C33.7173 56.0321 32.9576 55.7233 32.3972 55.2007C31.8368 54.6781 31.4758 53.9417 31.447 53.1153C31.4181 52.289 31.7269 51.5292 32.2494 50.9688C32.772 50.4084 33.5084 50.0474 34.3347 50.0186Z" fill="black"/>
<path fill-rule="evenodd" clip-rule="evenodd" d="M34.492 52.5231C34.4732 51.9851 34.0216 51.5641 33.4838 51.5828C32.9457 51.6016 32.5247 52.0531 32.5435 52.5911C32.5623 53.1291 33.0138 53.5501 33.5519 53.5313C34.0897 53.5124 34.5108 53.0611 34.492 52.5231Z" fill="white"/>
<path fill-rule="evenodd" clip-rule="evenodd" d="M52.4764 50.7803C53.3028 50.7514 54.0626 51.0602 54.6229 51.5828C55.1834 52.1053 55.5444 52.8417 55.5732 53.668C55.6021 54.4944 55.2933 55.2542 54.7708 55.8146C54.2482 56.375 53.5118 56.7361 52.6854 56.7649C51.8591 56.7938 51.0993 56.485 50.5389 55.9624C49.9785 55.4398 49.6174 54.7034 49.5886 53.877C49.5597 53.0507 49.8685 52.291 50.3911 51.7306C50.9137 51.1702 51.6501 50.8091 52.4764 50.7803Z" fill="black"/>
<path d="M37.0135 52.9233C37.0632 54.3455 35.9506 55.5385 34.5285 55.5881C33.1065 55.6378 31.9136 54.5253 31.8639 53.1032C31.8142 51.6811 32.9266 50.4882 34.3486 50.4385C35.7708 50.3889 36.9638 51.5013 37.0135 52.9233ZM37.8486 52.8942C37.7828 51.0109 36.2028 49.5377 34.3195 49.6035C32.4363 49.6692 30.9631 51.2491 31.0288 53.1323C31.0946 55.0157 32.6744 56.489 34.5576 56.4232C36.441 56.3574 37.9143 54.7775 37.8486 52.8942Z" fill="white" stroke="white" stroke-width="0.417789"/>
<path d="M55.1561 53.6811C55.2057 55.1033 54.0933 56.2963 52.6712 56.3459C51.2492 56.3956 50.0561 55.2832 50.0065 53.861C49.9568 52.4389 51.0694 51.246 52.4914 51.1963C53.9135 51.1467 55.1064 52.2591 55.1561 53.6811ZM55.9911 53.652C55.9254 51.7687 54.3455 50.2955 52.4622 50.3613C50.579 50.427 49.1056 52.0069 49.1714 53.8901C49.2372 55.7735 50.8171 57.2468 52.7004 57.181C54.5837 57.1152 56.0569 55.5354 55.9911 53.652Z" fill="white" stroke="white" stroke-width="0.417789"/>
<path fill-rule="evenodd" clip-rule="evenodd" d="M52.6327 53.2828C52.6139 52.7448 52.1624 52.3238 51.6244 52.3426C51.0864 52.3614 50.6654 52.8129 50.6842 53.3509C50.7029 53.8889 51.1544 54.3099 51.6924 54.2911C52.2304 54.2723 52.6514 53.8208 52.6327 53.2828Z" fill="white"/>
<path d="M28.1396 63.6797L38.4451 74.4029" stroke="#ECB732" stroke-width="1.53189" stroke-linecap="round"/>
<path d="M37.0522 64.9336L30.5068 71.8967" stroke="#ECB732" stroke-width="1.53189" stroke-linecap="round"/>
<path d="M59.752 63.6797L49.4465 74.4029" stroke="#ECB732" stroke-width="1.53189" stroke-linecap="round"/>
<path d="M50.8404 64.9336L57.3857 71.8967" stroke="#ECB732" stroke-width="1.53189" stroke-linecap="round"/>
<path d="M48.1943 40.0059L41.3704 46.8297" stroke="#FFC73B" stroke-width="1.53189" stroke-linecap="round"/>
<path d="M46.8008 46.8281L39.9769 40.0042" stroke="#FFC73B" stroke-width="1.53189" stroke-linecap="round"/>
<defs>
<radialGradient id="paint0_radial_1024_11597" cx="0" cy="0" r="1" gradientUnits="userSpaceOnUse" gradientTransform="translate(47.1513 47.2802) rotate(90) scale(47.04)">
<stop stop-color="#333944"/>
<stop offset="1" stop-color="#222428"/>
</radialGradient>
<linearGradient id="paint1_linear_1024_11597" x1="2272.84" y1="-1729.94" x2="4134.07" y2="3477.56" gradientUnits="userSpaceOnUse">
<stop stop-color="#52CE63"/>
<stop offset="1" stop-color="#51A256"/>
</linearGradient>
<linearGradient id="paint2_linear_1024_11597" x1="1823.71" y1="2276.61" x2="-3384.25" y2="4136.93" gradientUnits="userSpaceOnUse">
<stop stop-color="#52CE63"/>
<stop offset="1" stop-color="#51A256"/>
</linearGradient>
<linearGradient id="paint3_linear_1024_11597" x1="2312.7" y1="292.501" x2="1284.3" y2="8668.16" gradientUnits="userSpaceOnUse">
<stop stop-color="#8AE99C"/>
<stop offset="1" stop-color="#52CE63"/>
</linearGradient>
<linearGradient id="paint4_linear_1024_11597" x1="6893.22" y1="3899.55" x2="5782.23" y2="22142.8" gradientUnits="userSpaceOnUse">
<stop stop-color="#FFE56C"/>
<stop offset="1" stop-color="#FFC63A"/>
</linearGradient>
</defs>
</svg>
