<svg width="95" height="96" viewBox="0 0 95 96" fill="none" xmlns="http://www.w3.org/2000/svg">
<rect x="1.36048" y="1.64075" width="92.736" height="92.736" rx="13.44" fill="url(#paint0_radial_1024_11469)"/>
<rect x="1.36048" y="1.64075" width="92.736" height="92.736" rx="13.44" stroke="#6886C3" stroke-width="1.344"/>
<path d="M67.2346 42.052C67.7112 47.6038 58.974 52.8878 47.72 53.8533C36.466 54.8188 26.9565 51.1 26.4805 45.5485C26.0039 39.9958 34.7411 34.7122 45.9951 33.7466C57.2491 32.7814 66.7586 36.4994 67.2346 42.052Z" fill="#BBE6FB"/>
<path opacity="0.4" d="M46.3254 34.3964C42.0325 34.3266 37.0091 36.031 33.2713 37.6272C32.8823 38.7482 32.6729 39.9406 32.6729 41.1766C32.6729 47.7622 38.6194 53.1016 45.9551 53.1016C53.2907 53.1016 59.2373 47.7622 59.2373 41.1766C59.2373 39.0924 58.6403 37.1343 57.5936 35.4296C54.6032 34.9647 50.4902 34.4641 46.3254 34.3964Z" fill="white"/>
<path d="M45.954 34.3949C43.5774 34.2498 39.4809 35.4898 36.0651 36.7267C35.5461 37.9515 35.2578 39.2919 35.2578 40.6985C35.2578 46.4688 40.4895 51.1465 46.0238 51.1465C51.5217 51.1465 56.386 46.4612 56.7898 40.6985C56.9209 38.822 56.275 37.0537 55.378 35.5292C51.8367 34.9055 48.0785 34.5245 45.954 34.3949Z" fill="white"/>
<path d="M39.8562 39.9418C40.1478 39.2961 40.5895 38.9799 41.0173 38.4386C40.9698 38.3105 40.8657 37.8913 40.8657 37.746C40.8657 37.0973 41.3919 36.5708 42.0409 36.5708C42.1941 36.5708 42.3403 36.6012 42.4742 36.6544C44.4193 35.172 46.9801 34.5257 49.5535 35.101C49.7885 35.154 50.019 35.2181 50.2452 35.2885C47.7019 34.9358 44.8352 35.8367 42.8852 37.4105C42.9447 37.5511 43.1099 37.9527 43.1099 38.1143C43.1099 38.7633 42.6899 38.9212 42.0409 38.9212C41.8935 38.9212 41.7527 38.893 41.6224 38.8433C41.1819 39.4348 40.6421 40.5616 40.378 41.266C41.4563 42.2306 42.4305 42.5802 43.7002 43.0547C43.6969 42.9942 43.7439 42.9382 43.7439 42.8766C43.7439 40.92 45.4664 39.3298 47.4233 39.3298C49.1768 39.3298 50.6288 40.6049 50.9123 42.2778C51.7872 41.7212 52.6333 41.2946 53.2781 40.4696C53.1276 40.286 52.9654 39.7664 52.9654 39.5107C52.9654 38.9218 53.4432 38.4444 54.0321 38.4444C54.1154 38.4444 54.1954 38.4564 54.2734 38.4744C54.6007 37.8017 54.8477 37.0886 55.0057 36.3533C51.9458 34.088 46.0254 34.397 46.0254 34.397C46.0254 34.397 41.3143 34.1511 38.125 35.7055C38.3377 37.2433 38.9512 38.7052 39.8562 39.9418Z" fill="white"/>
<path d="M54.4804 39.0598C54.6967 39.2547 54.8147 39.4259 54.9076 39.5926C55.1938 40.1071 54.6197 40.578 54.0309 40.578C53.971 40.578 53.9132 40.5699 53.8558 40.5602C53.1923 41.5971 52.0304 42.9266 50.998 43.5958C52.581 43.8551 54.0736 44.4891 55.2615 45.4688C56.1265 43.9189 56.7899 41.681 56.7899 39.7801C56.7899 38.3332 56.1512 37.2726 55.1869 36.4945C55.1363 37.2696 54.7226 38.3536 54.4804 39.0598Z" fill="white"/>
<path d="M41.6309 48.877C42.1583 47.4204 43.4557 46.2918 44.683 45.2989C44.5034 45.0531 44.2341 44.4444 44.1219 44.1562C42.625 43.701 41.3006 42.8489 40.2734 41.7209C40.2658 41.7537 40.2565 41.7856 40.2487 41.8184C40.0552 42.6852 40.0197 43.5538 40.116 44.4011C40.8327 44.5347 41.3752 45.1626 41.3752 45.9181C41.3752 46.3661 40.9825 47.0154 40.6777 47.298C41.009 48.0128 41.235 48.3576 41.6309 48.877Z" fill="white"/>
<path d="M41.538 50.0973C40.9089 49.4718 40.4738 48.2241 40.0655 47.4406C39.9891 47.4523 39.9109 47.4604 39.8308 47.4604C38.9776 47.4604 38.0836 46.7443 38.2858 45.9157C38.3978 45.4572 38.7143 45.1572 39.2297 44.9069C39.1123 43.957 39.0805 42.5916 39.301 41.6042C39.3642 41.3216 39.4981 41.1893 39.5868 40.9203C38.6454 39.5426 38.037 37.7343 38.037 35.9402C38.037 35.8746 38.0403 35.8099 38.0418 35.7449C36.4508 36.5428 35.2578 37.7999 35.2578 39.7787C35.2578 44.1559 37.7789 48.4497 41.5299 50.1328C41.5326 50.1211 41.535 50.109 41.538 50.0973Z" fill="white"/>
<path d="M50.7619 44.0489C50.2772 45.4276 48.9666 46.4177 47.4222 46.4177C46.596 46.4177 45.838 46.1328 45.2357 45.6592C43.994 46.6263 42.8675 48.325 42.2949 49.7987C42.5519 50.0752 42.7309 50.3027 43.0191 50.5479C43.8878 50.7741 45.084 50.5479 46.0243 50.5479C49.8063 50.5479 53.156 48.8654 55.0765 45.915C53.7995 45.0307 52.2934 44.1891 50.7619 44.0489Z" fill="white"/>
<path d="M39.7586 40.4535C40.0501 39.8079 40.4157 39.2103 40.8432 38.669C40.7957 38.5412 40.768 38.4031 40.768 38.2577C40.768 37.609 41.2943 37.0825 41.9433 37.0825C42.0964 37.0825 42.2426 37.1129 42.3765 37.1662C44.3217 35.6837 46.8824 35.0375 49.4558 35.6127C49.6908 35.6657 49.9213 35.7298 50.1476 35.8002C47.6043 35.4475 44.9764 36.2271 43.0264 37.8013C43.086 37.9415 43.1185 38.0962 43.1185 38.2577C43.1185 38.9067 42.5922 39.433 41.9433 39.433C41.7958 39.433 41.655 39.4047 41.5247 39.355C41.0843 39.9466 40.7241 40.6001 40.4599 41.3047C41.386 42.3027 42.5227 43.0919 43.7921 43.5664C43.7891 43.5059 43.7828 43.4461 43.7828 43.3844C43.7828 41.4278 45.3687 39.8416 47.3256 39.8416C49.0791 39.8416 50.5312 41.1167 50.8146 42.7895C51.6896 42.2329 52.467 41.518 53.1115 40.693C52.9611 40.5095 52.8678 40.2781 52.8678 40.0224C52.8678 39.4336 53.3456 38.9561 53.9344 38.9561C54.0177 38.9561 54.0978 38.9681 54.1757 38.9862C54.5031 38.3134 54.7501 37.6003 54.908 36.865C51.8481 34.5997 45.9278 34.9087 45.9278 34.9087C45.9278 34.9087 41.2166 34.6629 38.0273 36.2172C38.2401 37.755 38.8536 39.2169 39.7586 40.4535Z" fill="#1287B1"/>
<path d="M54.6455 39.2342C54.8618 39.4292 55.0005 39.7087 55.0005 40.0228C55.0005 40.6116 54.5227 41.0894 53.9339 41.0894C53.874 41.0894 53.8163 41.0813 53.7588 41.0717C53.0954 42.1085 52.2162 42.9925 51.1836 43.6616C52.7096 43.9002 54.146 44.5477 55.3336 45.5273C56.1986 43.9775 56.6929 42.1924 56.6929 40.2915C56.6929 38.8446 56.0542 37.784 55.0899 37.0059C55.0393 37.781 54.8877 38.528 54.6455 39.2342Z" fill="#1287B1"/>
<path d="M41.7941 49.2246C42.3215 47.7681 43.238 46.4611 44.4653 45.4685C44.2857 45.2223 44.1376 44.9537 44.0254 44.6654C42.5282 44.2102 41.2041 43.3581 40.1769 42.2301C40.1694 42.2629 40.1597 42.2948 40.1522 42.3276C39.9584 43.1944 39.9229 44.0631 40.0195 44.9103C40.7359 45.0439 41.2787 45.6719 41.2787 46.4274C41.2787 46.8754 41.0864 47.2782 40.7816 47.5608C41.0582 48.1469 41.3981 48.7053 41.7941 49.2246Z" fill="#1287B1"/>
<path d="M41.5343 50.0797C40.9052 49.4542 40.3771 48.7357 39.9691 47.9525C39.8924 47.9643 39.8142 47.9721 39.7345 47.9721C38.8812 47.9721 38.1895 47.2804 38.1895 46.4274C38.1895 45.816 38.5457 45.2889 39.0611 45.0385C38.9441 44.089 38.9838 43.1033 39.2046 42.1158C39.2678 41.8336 39.3448 41.558 39.4336 41.2887C38.4921 39.9113 37.9406 38.2459 37.9406 36.4518C37.9406 36.3862 37.9436 36.3215 37.9451 36.2569C36.3541 37.0545 35.1611 38.3118 35.1611 40.2904C35.1611 44.6679 37.7751 48.4321 41.5262 50.1152C41.5289 50.1035 41.5313 50.0915 41.5343 50.0797Z" fill="#1287B1"/>
<path d="M50.6641 44.5597C50.1794 45.9383 48.8688 46.9285 47.3244 46.9285C46.4982 46.9285 45.7403 46.6435 45.1379 46.1699C43.8962 47.137 42.959 48.4551 42.3867 49.9291C42.6434 50.2056 42.9178 50.4662 43.206 50.7111C44.0749 50.9373 44.9863 51.0586 45.9265 51.0586C49.7086 51.0586 53.0335 49.1059 54.954 46.1558C53.6771 45.2712 52.1956 44.6999 50.6641 44.5597Z" fill="#1287B1"/>
<path d="M50.7887 43.6446L54.0619 42.8638L50.7763 42.6962L53.4502 40.6527L50.4162 41.7403L52.4781 38.8829L49.6303 40.7757L50.6259 37.4309L48.6702 40.1878L48.6257 36.7039L47.3388 39.8072L46.2659 36.6669L46.3239 40.3662L44.4696 37.0503L45.4731 40.5711L42.4652 38.3837L44.8214 41.3444L41.0872 39.9712L44.0343 42.1516L40.2553 42.2678L44.1191 43.2649L40.252 44.101L44.0692 44.3778L40.8501 46.4391L44.1649 45.2374L41.865 48.1502L44.7711 45.8064L43.7247 49.7151L45.9683 46.5342L45.6539 50.2909L46.9275 46.8853L48.0116 50.4648L48.2751 46.8745L49.8842 49.9377L48.9335 46.434L51.8799 48.7164L49.9778 45.8064L53.2104 47.0658L50.7387 44.6369L54.0532 44.8974L50.7887 43.6446Z" fill="white"/>
<path opacity="0.3" d="M15.9424 49.9082C26.094 39.7569 34.2017 36.623 41.5599 35.1923C42.5336 35.0031 42.7177 32.8756 42.7177 32.8756C42.7177 32.8756 42.854 34.4425 43.5355 34.6468C44.2167 34.8514 45.1022 32.1941 45.1022 32.1941C45.1022 32.1941 44.2847 34.5788 45.1022 34.7151C45.9199 34.8514 47.4186 32.3987 47.4186 32.3987C47.4186 32.3987 46.8057 34.5105 47.2146 34.6468C47.6229 34.7831 49.6668 31.5812 49.6668 31.5812C49.6668 31.5812 48.4404 33.6931 49.5988 33.8977C50.7574 34.1019 52.4472 32.4562 52.4472 32.4562C52.4472 32.4562 51.1185 33.962 51.7106 34.1699C54.2317 35.056 56.2716 31.7795 56.2716 31.7795C56.2716 31.7795 55.7989 33.2162 54.5725 34.7831C57.2293 35.4643 59.2027 31.4618 59.2027 31.4618L57.2293 35.4643C58.2514 36.0098 62.3397 31.3086 62.3397 31.3086C62.3397 31.3086 60.2275 34.9877 59.0012 35.7369C59.6823 36.2821 62.1351 34.1019 62.1351 34.1019C62.1351 34.1019 60.1592 36.5544 60.9087 36.6907C61.9988 37.5765 66.0182 32.1261 66.0182 32.1261C66.0182 32.1261 64.4515 35.328 62.1351 37.8491C64.0712 38.8176 68.8801 32.603 68.8801 32.603C68.8801 32.603 68.7438 34.5788 65.269 37.7128C67.8581 37.3722 71.1966 32.4667 71.1966 32.4667C71.1966 32.4667 69.9702 36.1458 67.0403 38.7345C69.5824 38.4701 73.6487 32.1941 73.6487 32.1941C73.6487 32.1941 72.0821 36.5544 68.8801 39.0754C72.423 39.8589 77.5328 34.5788 77.5328 34.5788C77.5328 34.5788 75.5229 38.3263 72.8996 39.8589C75.8295 40.983 79.8492 36.3501 79.8492 36.3501C79.8492 36.3501 75.8295 42.5503 69.4253 42.2777C67.324 42.1883 60.968 35.9027 47.3506 36.4184C29.3642 37.0999 25.5491 44.7304 15.9424 49.9082Z" fill="white"/>
<path d="M16.3574 49.1387C26.509 38.9874 34.6164 35.8538 41.9747 34.4228C42.9486 34.2335 43.1327 32.1063 43.1327 32.1063C43.1327 32.1063 43.2687 33.6736 43.9505 33.8776C44.6317 34.0819 45.5172 31.4252 45.5172 31.4252C45.5172 31.4252 44.6997 33.8099 45.5172 33.9459C46.335 34.0819 47.8336 31.6295 47.8336 31.6295C47.8336 31.6295 47.2208 33.7413 47.629 33.8776C48.0379 34.0139 50.0818 30.8117 50.0818 30.8117C50.0818 30.8117 48.8554 32.9238 50.0138 33.1281C51.1719 33.3327 52.8622 31.6869 52.8622 31.6869C52.8622 31.6869 51.5335 33.1928 52.1256 33.4007C54.6467 34.2865 56.686 31.0102 56.686 31.0102C56.686 31.0102 56.2134 32.4469 54.9876 34.0139C57.6443 34.6954 59.6178 30.6922 59.6178 30.6922L57.6443 34.6954C58.6664 35.2403 62.7541 30.5397 62.7541 30.5397C62.7541 30.5397 60.6426 34.2182 59.4162 34.9677C60.0974 35.5129 62.5501 33.3327 62.5501 33.3327C62.5501 33.3327 60.5743 35.7855 61.3238 35.9215C62.4138 36.8075 66.4332 31.3569 66.4332 31.3569C66.4332 31.3569 64.866 34.5591 62.5501 37.0798C64.4863 38.0487 69.2952 31.8337 69.2952 31.8337C69.2952 31.8337 69.1589 33.8099 65.6841 36.9438C68.2731 36.6029 71.6116 31.6975 71.6116 31.6975C71.6116 31.6975 70.3853 35.3766 67.4553 37.9656C69.9974 37.7011 74.0638 31.4252 74.0638 31.4252C74.0638 31.4252 72.4971 35.7855 69.2952 38.3062C72.838 39.0897 77.9478 33.8099 77.9478 33.8099C77.9478 33.8099 75.9379 37.5567 73.3146 39.0897C76.2445 40.2138 80.2642 35.5809 80.2642 35.5809C80.2642 35.5809 76.2445 41.781 69.8398 41.5084C67.739 41.4188 61.383 35.1332 47.7653 35.6492C29.7792 36.3304 25.9638 43.9609 16.3574 49.1387Z" fill="white"/>
<path opacity="0.3" d="M15.6758 51.0181C21.041 53.7094 25.9468 50.6095 32.1295 52.3518C36.8301 53.6769 42.5534 55.3104 50.3199 54.186C58.0868 53.0622 64.7298 49.6897 67.8983 43.6598C68.8861 40.9691 72.9055 44.2733 72.9055 44.2733C72.9055 44.2733 69.9762 43.0469 70.0445 43.6261C70.1125 44.205 74.4388 46.2149 74.4388 46.2149C74.4388 46.2149 70.5211 44.9885 70.7597 45.9083C70.9983 46.828 75.6646 50.5072 75.6646 50.5072C75.6646 50.5072 70.3848 46.4875 69.9422 47.0323C69.499 47.5775 72.1904 49.792 72.1904 49.792C72.1904 49.792 67.7278 47.0323 66.1605 47.8462C65.0334 48.4308 70.7937 52.2107 70.7937 52.2107C70.7937 52.2107 67.0463 49.3488 66.1605 50.0983C65.275 50.8481 70.3848 56.9796 70.3848 56.9796C70.3848 56.9796 64.5932 50.7115 64.0146 51.0181C63.4351 51.3246 65.6153 54.3226 65.6153 54.3226C65.6153 54.3226 62.754 51.1883 61.9708 51.7335C61.1873 52.2787 66.0585 60.4201 66.0585 60.4201C66.0585 60.4201 60.7784 52.0744 58.5983 53.4705C62.0219 60.9822 60.7444 62.0554 60.7444 62.0554C60.7444 62.0554 60.3075 54.3921 56.0432 54.5949C53.8971 54.6972 57.065 60.3179 57.065 60.3179C57.065 60.3179 54.1492 55.1843 52.2073 55.2866C55.7863 62.0596 54.5105 64.8145 54.5105 64.8145C54.5105 64.8145 55.1024 59.0298 50.2483 55.8107C52.0876 57.4454 49.0942 64.8145 49.0942 64.8145C49.0942 64.8145 51.7274 53.9555 47.152 56.0258C46.429 56.3523 47.1008 61.4422 47.1008 61.4422C47.1008 61.4422 46.1811 55.6167 44.8019 55.9235C43.9976 56.102 39.6918 63.997 39.6918 63.997C39.6918 63.997 43.2177 55.4635 42.1448 55.8212C41.3631 56.0821 39.8964 59.6027 39.8964 59.6027C39.8964 59.6027 40.6115 56.1278 39.8964 55.9235C39.1812 55.719 35.1952 59.6027 35.1952 59.6027C35.1952 59.6027 38.1591 56.1278 37.6479 55.4124C36.8734 54.3283 35.9657 54.2775 34.8886 54.6972C33.3213 55.308 31.2097 58.1717 31.2097 58.1717C31.2097 58.1717 33.3147 55.2721 32.9467 54.186C32.3561 52.4409 26.3043 57.5585 26.3043 57.5585C26.3043 57.5585 29.8811 54.186 29.0636 53.4705C28.2461 52.7553 23.807 52.9765 22.4208 52.9725C18.3331 52.9599 16.9166 52.001 15.6758 51.0181Z" fill="white"/>
<path d="M15.4717 50.4028C20.8369 53.0942 25.7424 49.9942 31.9251 51.7369C36.6257 53.0614 42.3493 54.6951 50.1161 53.5707C57.883 52.4467 64.5254 49.0741 67.694 43.0449C68.6817 40.3538 72.7011 43.6578 72.7011 43.6578C72.7011 43.6578 69.7718 42.4317 69.8401 43.0109C69.9081 43.5898 74.2344 45.5996 74.2344 45.5996C74.2344 45.5996 70.3167 44.3736 70.5553 45.2933C70.7939 46.2128 75.4608 49.8919 75.4608 49.8919C75.4608 49.8919 70.1804 45.8719 69.7378 46.4174C69.2952 46.9623 71.9863 49.1764 71.9863 49.1764C71.9863 49.1764 67.5234 46.4174 65.9564 47.2307C64.829 47.8156 70.5893 51.5952 70.5893 51.5952C70.5893 51.5952 66.8419 48.7336 65.9564 49.483C65.0706 50.2328 70.181 56.3644 70.181 56.3644C70.181 56.3644 64.3891 50.0962 63.8102 50.4028C63.2313 50.7097 65.4115 53.707 65.4115 53.707C65.4115 53.707 62.5496 50.5731 61.7664 51.1183C60.9829 51.6632 65.8541 59.8049 65.8541 59.8049C65.8541 59.8049 60.574 51.4589 58.3939 52.8556C61.8175 60.367 60.54 61.4402 60.54 61.4402C60.54 61.4402 60.1031 53.7768 55.8388 53.9799C53.6927 54.0822 56.8606 59.7026 56.8606 59.7026C56.8606 59.7026 53.9448 54.5688 52.0032 54.6711C55.5825 61.4444 54.3061 64.1992 54.3061 64.1992C54.3061 64.1992 54.898 58.4143 50.0439 55.1952C51.8832 56.8301 48.8898 64.1992 48.8898 64.1992C48.8898 64.1992 51.5236 53.3403 46.9482 55.4106C46.2252 55.7374 46.8971 60.827 46.8971 60.827C46.8971 60.827 45.9767 55.0017 44.5978 55.3083C43.7932 55.4867 39.4874 63.3817 39.4874 63.3817C39.4874 63.3817 43.0133 54.8483 41.9404 55.2063C41.1587 55.4666 39.692 58.9871 39.692 58.9871C39.692 58.9871 40.4074 55.5126 39.692 55.3083C38.9768 55.104 34.9911 58.9871 34.9911 58.9871C34.9911 58.9871 37.955 55.5126 37.4435 54.7971C36.669 53.7131 35.7613 53.6625 34.6845 54.0822C33.1169 54.6927 31.0053 57.5565 31.0053 57.5565C31.0053 57.5565 33.1103 54.6566 32.7426 53.5707C32.1517 51.826 26.1002 56.9433 26.1002 56.9433C26.1002 56.9433 29.677 53.5707 28.8592 52.8556C28.0417 52.1401 23.6026 52.3615 22.2164 52.3573C18.1287 52.3444 16.7125 51.3858 15.4717 50.4028Z" fill="white"/>
<defs>
<radialGradient id="paint0_radial_1024_11469" cx="0" cy="0" r="1" gradientUnits="userSpaceOnUse" gradientTransform="translate(47.7285 48.0088) rotate(90) scale(47.04)">
<stop stop-color="#333944"/>
<stop offset="1" stop-color="#222428"/>
</radialGradient>
</defs>
</svg>
