<svg width="95" height="95" viewBox="0 0 95 95" fill="none" xmlns="http://www.w3.org/2000/svg">
<rect x="1.19251" y="1.35169" width="92.736" height="92.736" rx="13.44" fill="url(#paint0_radial_1024_11501)"/>
<rect x="1.19251" y="1.35169" width="92.736" height="92.736" rx="13.44" stroke="#6886C3" stroke-width="1.344"/>
<path d="M47.5609 14.1191C66.1176 14.1191 81.1609 29.1625 81.1609 47.7191C81.1609 66.2758 66.1176 81.3191 47.5609 81.3191C29.0043 81.3191 13.9609 66.2758 13.9609 47.7191C13.9609 29.1625 29.0043 14.1191 47.5609 14.1191Z" fill="#E05C43"/>
<path fill-rule="evenodd" clip-rule="evenodd" d="M48.2246 26.7836C52.5538 26.698 55.6129 27.8719 58.2453 31.6084C63.9856 45.8406 43.4681 53.1859 42.6454 53.4746L42.6197 53.483C42.6197 53.483 42.0002 57.3486 47.8844 57.2C55.1257 57.2 62.7388 51.5872 65.6347 49.2148C65.9712 48.9381 66.3999 48.7987 66.8348 48.8245C67.2697 48.8503 67.6788 49.0394 67.9804 49.3539L70.1486 51.6061C70.4533 51.9204 70.6274 52.3386 70.6357 52.7762C70.644 53.2139 70.4859 53.6384 70.1932 53.9639C68.3085 56.0623 63.8859 60.3705 57.2278 63.1535C57.2278 63.1535 46.1188 68.2975 38.6323 63.4265C34.1683 60.5233 32.9403 57.0472 32.441 53.4316C32.4436 53.4316 27.0209 53.1565 23.5386 51.7967C20.0552 50.4359 23.5643 46.3309 23.5643 46.3309C23.5643 46.3309 24.6353 44.6336 26.6723 46.3309C28.7109 48.0256 32.5156 47.2612 32.5156 47.2612C32.8547 44.5843 33.4186 41.0515 35.0797 37.323C38.5615 29.5084 43.8939 26.8676 48.2246 26.7836ZM50.7724 34.614C48.4787 32.4037 41.8558 36.82 41.6002 46.9252C41.6002 46.9252 43.5553 47.5206 47.8844 44.547C52.2157 41.575 53.0662 36.82 50.7724 34.614Z" fill="white"/>
<defs>
<radialGradient id="paint0_radial_1024_11501" cx="0" cy="0" r="1" gradientUnits="userSpaceOnUse" gradientTransform="translate(47.5605 47.7197) rotate(90) scale(47.04)">
<stop stop-color="#333944"/>
<stop offset="1" stop-color="#222428"/>
</radialGradient>
</defs>
</svg>
