<svg width="95" height="95" viewBox="0 0 95 95" fill="none" xmlns="http://www.w3.org/2000/svg">
<rect x="0.76868" y="1.21497" width="92.736" height="92.736" rx="13.44" fill="url(#paint0_radial_1024_11436)"/>
<rect x="0.76868" y="1.21497" width="92.736" height="92.736" rx="13.44" stroke="#6886C3" stroke-width="1.344"/>
<path fill-rule="evenodd" clip-rule="evenodd" d="M31.8442 74.147L23.487 71.1479V58.8987L31.8442 61.7462V74.147ZM33.3772 74.147L41.7344 71.1485V58.8987L33.3772 61.7462V74.147ZM24.3458 57.9825L32.8039 55.6013L40.647 58.1303L32.8039 60.7931L24.3458 57.9825V57.9825ZM21.8943 57.0339L13.5371 54.0359V41.7856L21.8943 44.6331V57.0339ZM23.4273 57.0339L31.7851 54.0359V41.7856L23.4273 44.6331V57.0339V57.0339ZM14.3959 40.8688L22.8546 38.4881L30.6976 41.0172L22.8546 43.68L14.3959 40.8694V40.8688ZM41.3954 57.0339L33.0376 54.0359V41.7856L41.3954 44.6331V57.0339ZM42.9284 57.0339L51.2862 54.0359V41.7856L42.9284 44.6331V57.0339V57.0339ZM33.8975 40.8688L42.3557 38.4881L50.1981 41.0172L42.3557 43.68L33.8975 40.8694V40.8688ZM51.3453 39.9197L42.9875 36.9228V24.6725L51.3453 27.5194V39.9197ZM52.8783 39.9197L61.2355 36.9228V24.6725L52.8777 27.5194V39.9197H52.8783ZM43.8469 23.7562L52.3056 21.375L60.148 23.9035L52.3056 26.5669L43.8469 23.7562ZM70.8469 39.9197L62.4891 36.9228V24.6725L70.8469 27.5194V39.9197ZM72.3794 39.9197L80.7371 36.9228V24.6725L72.3794 27.5194V39.9197ZM63.3479 23.7562L71.8066 21.375L79.6491 23.9035L71.8066 26.5663L63.3479 23.7557" fill="#FF9900"/>
<defs>
<radialGradient id="paint0_radial_1024_11436" cx="0" cy="0" r="1" gradientUnits="userSpaceOnUse" gradientTransform="translate(47.1367 47.583) rotate(90) scale(47.04)">
<stop stop-color="#333944"/>
<stop offset="1" stop-color="#222428"/>
</radialGradient>
</defs>
</svg>
