<svg width="95" height="95" viewBox="0 0 95 95" fill="none" xmlns="http://www.w3.org/2000/svg">
<rect x="0.920047" y="1.21497" width="92.736" height="92.736" rx="13.44" fill="url(#paint0_radial_1024_11432)"/>
<rect x="0.920047" y="1.21497" width="92.736" height="92.736" rx="13.44" stroke="#6886C3" stroke-width="1.344"/>
<path d="M22.5365 13.9805H72.0405C76.9125 13.9805 80.8885 17.9369 80.8885 22.8285V72.3353C80.8885 77.2073 76.9321 81.1805 72.0405 81.1805H22.5365C17.6645 81.1805 13.6885 77.2269 13.6885 72.3353V22.8061C13.6885 17.9369 17.6421 13.9805 22.5365 13.9805Z" fill="#5468FF"/>
<path d="M54.2916 28.9809V26.6765C54.291 25.9032 53.9834 25.1617 53.4363 24.6151C52.8892 24.0685 52.1474 23.7616 51.374 23.7617H44.5728C43.7995 23.7616 43.0577 24.0685 42.5106 24.6151C41.9635 25.1617 41.6558 25.9032 41.6552 26.6765V29.0425C41.6552 29.3057 41.8988 29.4905 42.1648 29.4289C44.0888 28.8734 46.0815 28.5925 48.084 28.5945C50.0244 28.5945 51.9452 28.8577 53.8016 29.3673C54.048 29.4289 54.2916 29.2469 54.2916 28.9809ZM35.652 31.9965L34.49 30.8345C34.2193 30.5636 33.8978 30.3487 33.544 30.202C33.1901 30.0554 32.8109 29.9799 32.4278 29.9799C32.0448 29.9799 31.6655 30.0554 31.3117 30.202C30.9578 30.3487 30.6364 30.5636 30.3656 30.8345L28.9768 32.2205C28.7053 32.4904 28.4899 32.8112 28.3428 33.1647C28.1958 33.5181 28.1201 33.8971 28.1201 34.2799C28.1201 34.6627 28.1958 35.0417 28.3428 35.3952C28.4899 35.7486 28.7053 36.0695 28.9768 36.3393L30.1192 37.4817C30.304 37.6637 30.57 37.6217 30.7324 37.4397C31.4064 36.5141 32.1506 35.6416 32.9584 34.8301C33.773 34.0127 34.6533 33.2636 35.5904 32.5901C35.7943 32.4669 35.8144 32.1813 35.652 31.9965ZM48.0639 39.3129V49.2809C48.0639 49.5665 48.3719 49.7709 48.6351 49.6281L57.4971 45.0417C57.6987 44.9409 57.7603 44.6945 57.6595 44.4929C55.8227 41.2701 52.4123 39.0693 48.4727 38.9265C48.2683 38.9265 48.0639 39.0889 48.0639 39.3129ZM48.0639 63.3257C40.6747 63.3257 34.6715 57.3309 34.6715 49.9529C34.6715 42.5749 40.6747 36.5829 48.0639 36.5829C55.4559 36.5829 61.4568 42.5749 61.4568 49.9529C61.4568 57.3309 55.476 63.3257 48.0639 63.3257ZM48.0639 30.9577C37.5695 30.9577 29.0575 39.4585 29.0575 49.9529C29.0575 60.4501 37.5695 68.9313 48.0639 68.9313C58.5583 68.9313 67.0703 60.4305 67.0703 49.9333C67.0703 39.4361 58.5779 30.9577 48.0639 30.9577Z" fill="white"/>
<defs>
<radialGradient id="paint0_radial_1024_11432" cx="0" cy="0" r="1" gradientUnits="userSpaceOnUse" gradientTransform="translate(47.288 47.583) rotate(90) scale(47.04)">
<stop stop-color="#333944"/>
<stop offset="1" stop-color="#222428"/>
</radialGradient>
</defs>
</svg>
