<svg width="95" height="95" viewBox="0 0 95 95" fill="none" xmlns="http://www.w3.org/2000/svg">
<rect x="0.783328" y="1.35169" width="92.736" height="92.736" rx="13.44" fill="url(#paint0_radial_1024_11492)"/>
<rect x="0.783328" y="1.35169" width="92.736" height="92.736" rx="13.44" stroke="#6886C3" stroke-width="1.344"/>
<path d="M80.089 41.7294C79.9068 41.5847 78.2054 40.3 74.6173 40.3C73.6699 40.3042 72.7244 40.3854 71.7902 40.543C71.0957 35.7832 67.1605 33.4625 66.984 33.3584L66.0205 32.8027L65.3868 33.7171C64.5933 34.9455 64.0139 36.2996 63.6739 37.7218C63.0314 40.4389 63.4221 42.991 64.8023 45.1727C63.1356 46.1016 60.462 46.3302 59.921 46.3504H15.6553C14.4991 46.352 13.5609 47.2863 13.5546 48.4425C13.5029 52.3204 14.16 56.1751 15.4933 59.817C17.0181 63.8159 19.2867 66.7616 22.2382 68.5642C25.5455 70.5897 30.9188 71.7472 37.0097 71.7472C39.7614 71.7558 42.5078 71.5068 45.213 71.0035C48.9736 70.313 52.5922 68.9986 55.9192 67.1145C58.6605 65.527 61.1278 63.5075 63.2255 61.1335C66.7324 57.1636 68.8217 52.7422 70.3754 48.8128H70.9946C74.8344 48.8128 77.1956 47.2763 78.4977 45.9887C79.363 45.1675 80.0385 44.1671 80.4769 43.0576L80.7518 42.2532L80.089 41.7294Z" fill="#2496ED"/>
<path d="M19.7591 45.0529H25.6909C25.977 45.0529 26.2088 44.821 26.2088 44.535V39.2513C26.2104 38.9652 25.9798 38.7321 25.6938 38.7305C25.6929 38.7305 25.6919 38.7305 25.6909 38.7305H19.7591C19.473 38.7305 19.2412 38.9624 19.2412 39.2484V39.2513V44.5349C19.2412 44.821 19.473 45.0529 19.7591 45.0529V45.0529Z" fill="#2496ED"/>
<path d="M27.9321 45.0529H33.8638C34.1499 45.0529 34.3818 44.821 34.3818 44.535V39.2513C34.3834 38.9652 34.1528 38.7321 33.8667 38.7305C33.8657 38.7305 33.8647 38.7305 33.8637 38.7305H27.932C27.6443 38.7305 27.4111 38.9636 27.4111 39.2513V44.5349C27.4128 44.8215 27.6455 45.0529 27.9321 45.0529" fill="#2496ED"/>
<path d="M36.2309 45.0529H42.1627C42.4488 45.0529 42.6806 44.821 42.6806 44.535V39.2513C42.6822 38.9652 42.4516 38.7321 42.1655 38.7305C42.1646 38.7305 42.1635 38.7305 42.1626 38.7305H36.2308C35.9447 38.7305 35.7129 38.9624 35.7129 39.2484V39.2513V44.5349C35.713 44.821 35.9449 45.0529 36.2309 45.0529V45.0529Z" fill="#2496ED"/>
<path d="M44.432 45.0529H50.3638C50.6503 45.0529 50.883 44.8216 50.8846 44.535V39.2513C50.8846 38.9636 50.6515 38.7305 50.3638 38.7305H44.432C44.1459 38.7305 43.9141 38.9624 43.9141 39.2484V39.2513V44.5349C43.9141 44.821 44.146 45.0529 44.432 45.0529V45.0529Z" fill="#2496ED"/>
<path d="M27.932 37.4532H33.8637C34.1502 37.4516 34.3817 37.2189 34.3817 36.9324V31.6488C34.3817 31.3627 34.1497 31.1309 33.8637 31.1309H27.932C27.6455 31.1309 27.4127 31.3622 27.4111 31.6488V36.9324C27.4127 37.2194 27.6449 37.4516 27.932 37.4532Z" fill="#2496ED"/>
<path d="M36.2308 37.4532H42.1626C42.4491 37.4516 42.6805 37.2189 42.6805 36.9324V31.6488C42.6805 31.3627 42.4486 31.1309 42.1626 31.1309H36.2308C35.9447 31.1309 35.7129 31.3628 35.7129 31.6488V36.9324C35.7129 37.2189 35.9443 37.4516 36.2308 37.4532Z" fill="#2496ED"/>
<path d="M44.432 37.4532H50.3638C50.6508 37.4516 50.883 37.2194 50.8846 36.9324V31.6488C50.883 31.3622 50.6503 31.1309 50.3638 31.1309H44.432C44.1459 31.1309 43.9141 31.3628 43.9141 31.6488V36.9324C43.9141 37.2189 44.1455 37.4516 44.432 37.4532Z" fill="#2496ED"/>
<path d="M44.432 29.8478H50.3638C50.6503 29.8478 50.883 29.6164 50.8846 29.3299V24.0433C50.883 23.7567 50.6503 23.5254 50.3638 23.5254H44.432C44.1459 23.5254 43.9141 23.7572 43.9141 24.0433V29.3298C43.9141 29.6159 44.146 29.8478 44.432 29.8478Z" fill="#2496ED"/>
<path d="M52.7044 45.0529H58.6362C58.9228 45.0529 59.1555 44.8216 59.1571 44.535V39.2513C59.1571 38.9636 58.9239 38.7305 58.6362 38.7305H52.7044C52.4184 38.7305 52.1865 38.9624 52.1865 39.2484V39.2513V44.5349C52.1865 44.821 52.4184 45.0529 52.7044 45.0529" fill="#2496ED"/>
<defs>
<radialGradient id="paint0_radial_1024_11492" cx="0" cy="0" r="1" gradientUnits="userSpaceOnUse" gradientTransform="translate(47.1513 47.7197) rotate(90) scale(47.04)">
<stop stop-color="#333944"/>
<stop offset="1" stop-color="#222428"/>
</radialGradient>
</defs>
</svg>
