<svg width="95" height="95" viewBox="0 0 95 95" fill="none" xmlns="http://www.w3.org/2000/svg">
<rect x="1.05579" y="1.35169" width="92.736" height="92.736" rx="13.44" fill="url(#paint0_radial_1024_11498)"/>
<rect x="1.05579" y="1.35169" width="92.736" height="92.736" rx="13.44" stroke="#6886C3" stroke-width="1.344"/>
<path d="M38.3842 28.561C29.6024 26.9616 22.6588 28.636 19.8915 33.4286C17.8265 37.005 18.416 41.7474 21.3222 46.8166C21.381 46.9193 21.4594 47.0094 21.5531 47.0817C21.6467 47.1541 21.7537 47.2073 21.8679 47.2383C21.9821 47.2692 22.1013 47.2774 22.2186 47.2623C22.336 47.2472 22.4492 47.2091 22.5518 47.1502C22.7591 47.0313 22.9107 46.835 22.9732 46.6043C23.0358 46.3737 23.0042 46.1277 22.8854 45.9204C20.2673 41.3546 19.757 37.2618 21.4514 34.3291C23.7499 30.3477 29.9427 28.8541 38.0608 30.333C38.2076 30.362 38.3592 30.354 38.5021 30.3098C38.645 30.2655 38.7746 30.1864 38.8793 30.0795C38.984 29.9726 39.0604 29.8413 39.1016 29.6976C39.1429 29.5538 39.1477 29.402 39.1156 29.2559C39.0768 29.0802 38.9864 28.9201 38.8558 28.7963C38.7253 28.6725 38.5608 28.5906 38.3833 28.5612L38.3842 28.561ZM25.8889 52.9776C29.4395 56.88 34.0528 60.54 39.314 63.5779C52.0523 70.9325 65.6136 72.8983 72.2969 68.341C72.4894 68.2045 72.6206 67.9979 72.6624 67.7656C72.7041 67.5334 72.6531 67.294 72.5202 67.099C72.3873 66.904 72.1831 66.769 71.9517 66.7229C71.7203 66.6769 71.48 66.7235 71.2826 66.8528C65.3007 70.9316 52.4185 69.0641 40.2146 62.018C35.1102 59.0706 30.6434 55.5269 27.2212 51.766C27.1022 51.631 26.9456 51.5347 26.7714 51.4895C26.5972 51.4443 26.4134 51.4522 26.2438 51.5123C26.1028 51.5624 25.9765 51.6469 25.8763 51.758C25.7762 51.8692 25.7053 52.0035 25.67 52.149C25.6348 52.2944 25.6364 52.4463 25.6746 52.591C25.7128 52.7357 25.7864 52.8685 25.8889 52.9776V52.9776Z" fill="#2DD0ED"/>
<path d="M70.1654 51.8833C75.9153 45.0906 77.9233 38.2582 75.162 33.4752C73.13 29.9558 68.8339 28.0976 63.1253 28.0235C62.8865 28.0204 62.6562 28.1123 62.4851 28.2789C62.3139 28.4455 62.2159 28.6732 62.2126 28.912C62.21 29.0902 62.2604 29.2651 62.3574 29.4146C62.4544 29.564 62.5936 29.6813 62.7574 29.7514C62.8661 29.7982 62.983 29.8231 63.1013 29.8247C68.2357 29.891 71.9372 31.4922 73.6023 34.3758C75.8955 38.3488 74.1055 44.4416 68.7908 50.72C68.7117 50.8098 68.6513 50.9145 68.6131 51.028C68.575 51.1415 68.5598 51.2614 68.5686 51.3808C68.5774 51.5002 68.61 51.6167 68.6643 51.7234C68.7187 51.83 68.7938 51.9248 68.8853 52.002C68.9767 52.0792 69.0826 52.1374 69.1967 52.1732C69.3109 52.2091 69.4311 52.2218 69.5502 52.2108C69.6693 52.1997 69.7851 52.1651 69.8907 52.1088C69.9963 52.0526 70.0897 51.9759 70.1654 51.8833V51.8833ZM55.388 28.862C50.1887 29.9763 44.6552 32.1541 39.3412 35.2221C26.1902 42.8147 17.6117 54.0093 18.8036 62.1275C18.8184 62.2465 18.8569 62.3613 18.9167 62.4653C18.9765 62.5692 19.0565 62.6602 19.1519 62.7328C19.2474 62.8054 19.3563 62.8583 19.4725 62.8882C19.5886 62.9181 19.7095 62.9246 19.8282 62.9071C19.9468 62.8897 20.0608 62.8487 20.1634 62.7866C20.266 62.7245 20.3552 62.6426 20.4257 62.5455C20.4962 62.4485 20.5466 62.3384 20.5739 62.2216C20.6013 62.1049 20.6051 61.9838 20.585 61.8656C19.5276 54.6583 27.6587 44.0461 40.241 36.782C45.3963 33.8054 50.7549 31.6973 55.7655 30.6226C55.9919 30.5657 56.1874 30.4231 56.3108 30.2249C56.4341 30.0267 56.4757 29.7883 56.4268 29.5601C56.3778 29.3318 56.2422 29.1314 56.0484 29.0012C55.8546 28.871 55.6178 28.8211 55.388 28.862Z" fill="#2DD0ED"/>
<path d="M34.0829 67.7552C37.0906 76.1493 42.0082 81.3184 47.5392 81.3184C51.5724 81.3184 55.304 78.5692 58.2143 73.7285C58.2795 73.627 58.3238 73.5136 58.3444 73.3948C58.365 73.276 58.3616 73.1542 58.3343 73.0368C58.3002 72.8896 58.2296 72.7534 58.1291 72.6407C58.0285 72.528 57.9012 72.4424 57.7588 72.3918C57.6165 72.3412 57.4637 72.3273 57.3146 72.3512C57.1654 72.3752 57.0247 72.4363 56.9054 72.529C56.8101 72.6029 56.7307 72.6951 56.6717 72.8003C54.056 77.1507 50.8433 79.5181 47.5392 79.5181C42.9457 79.5181 38.5583 74.9075 35.779 67.1477C35.7409 67.0341 35.6805 66.9292 35.6014 66.8391C35.5223 66.7491 35.426 66.6757 35.3182 66.6232C35.2104 66.5709 35.0932 66.5406 34.9735 66.5341C34.8538 66.5278 34.7341 66.5454 34.6213 66.5859C34.5085 66.6264 34.4049 66.6889 34.3166 66.7699C34.2283 66.8509 34.157 66.9487 34.1069 67.0576C34.0568 67.1665 34.0289 67.2842 34.0248 67.404C34.0209 67.5239 34.041 67.6433 34.0838 67.7552H34.0829ZM61.5452 66.1126C63.1015 61.1401 63.9367 55.4022 63.9367 49.423C63.9367 34.5051 58.7159 21.6444 51.2785 18.342C51.0611 18.2505 50.8166 18.248 50.5974 18.3349C50.3782 18.4217 50.2018 18.5911 50.1061 18.8066C50.0104 19.0222 50.003 19.2666 50.0856 19.4875C50.1681 19.7084 50.334 19.8881 50.5476 19.988C57.1809 22.9337 62.1364 35.1385 62.1364 49.423C62.1364 55.2229 61.3263 60.7799 59.8268 65.575C59.788 65.6887 59.7723 65.809 59.7808 65.9288C59.7893 66.0487 59.8218 66.1656 59.8762 66.2727C59.9581 66.434 60.0868 66.5669 60.2454 66.6541C60.4039 66.7413 60.5851 66.7787 60.7652 66.7614C60.9454 66.7441 61.1161 66.673 61.2552 66.5572C61.3944 66.4415 61.4954 66.2866 61.5452 66.1126V66.1126ZM78.5046 65.231C78.5082 64.6627 78.3994 64.0993 78.1844 63.5732C77.9695 63.0471 77.6526 62.5688 77.252 62.1656C76.8514 61.7625 76.3751 61.4426 75.8504 61.2243C75.3257 61.006 74.763 60.8936 74.1947 60.8936C73.6264 60.8936 73.0637 61.006 72.539 61.2243C72.0143 61.4427 71.538 61.7626 71.1374 62.1658C70.7369 62.5689 70.42 63.0473 70.2051 63.5734C69.9901 64.0995 69.8814 64.6629 69.885 65.2312C69.8923 66.3694 70.3496 67.4586 71.1571 68.2608C71.9645 69.0631 73.0566 69.5134 74.1949 69.5134C75.3332 69.5134 76.4252 69.063 77.2326 68.2607C78.0401 67.4584 78.4973 66.3692 78.5046 65.231ZM76.7034 65.231C76.7033 65.8963 76.4389 66.5343 75.9685 67.0048C75.498 67.4752 74.86 67.7396 74.1947 67.7397C73.6986 67.7397 73.2136 67.5925 72.8011 67.3169C72.3886 67.0412 72.0671 66.6494 71.8773 66.1911C71.6874 65.7327 71.6377 65.2283 71.7345 64.7417C71.8313 64.2551 72.0703 63.8082 72.4211 63.4573C72.7719 63.1065 73.2189 62.8676 73.7054 62.7708C74.192 62.674 74.6964 62.7237 75.1548 62.9135C75.6132 63.1034 76.0049 63.4249 76.2806 63.8374C76.5563 64.2499 76.7034 64.7349 76.7034 65.231V65.231ZM20.8216 69.5409C21.3876 69.5409 21.9481 69.4295 22.471 69.2129C22.9939 68.9964 23.4691 68.6789 23.8693 68.2787C24.2695 67.8785 24.587 67.4033 24.8036 66.8804C25.0201 66.3575 25.1316 65.797 25.1315 65.231C25.1315 64.665 25.0201 64.1045 24.8035 63.5816C24.5869 63.0586 24.2694 62.5835 23.8692 62.1833C23.469 61.783 22.9938 61.4656 22.4709 61.249C21.9479 61.0325 21.3874 60.921 20.8214 60.9211C20.2554 60.9211 19.695 61.0325 19.1721 61.2491C18.6492 61.4657 18.1741 61.7832 17.7739 62.1834C17.3737 62.5836 17.0562 63.0587 16.8397 63.5816C16.6231 64.1046 16.5117 64.665 16.5117 65.231C16.5117 65.797 16.6231 66.3574 16.8397 66.8804C17.0563 67.4033 17.3737 67.8784 17.774 68.2786C18.1742 68.6789 18.6493 68.9963 19.1722 69.2129C19.6951 69.4295 20.2556 69.5409 20.8216 69.5409V69.5409ZM20.8216 67.7397C20.1561 67.7397 19.5179 67.4753 19.0473 67.0048C18.5767 66.5342 18.3123 65.896 18.3123 65.2305C18.3123 64.565 18.5767 63.9267 19.0473 63.4561C19.5179 62.9856 20.1561 62.7212 20.8216 62.7212C21.4871 62.7212 22.1253 62.9856 22.5959 63.4561C23.0665 63.9267 23.3309 64.565 23.3309 65.2305C23.3309 65.896 23.0665 66.5342 22.5959 67.0048C22.1253 67.4753 21.4871 67.7397 20.8216 67.7397V67.7397Z" fill="#2DD0ED"/>
<path d="M47.5398 22.7389C48.3922 22.739 49.2255 22.4862 49.9343 22.0126C50.6431 21.539 51.1954 20.8658 51.5215 20.0782C51.7926 19.4234 51.898 18.7119 51.8285 18.0066C51.7589 17.3013 51.5166 16.6241 51.1228 16.0348C50.7291 15.4455 50.1962 14.9625 49.5712 14.6283C48.9462 14.2942 48.2485 14.1193 47.5398 14.1191C46.6873 14.119 45.8539 14.3717 45.1451 14.8452C44.4363 15.3187 43.8838 15.9919 43.5576 16.7794C43.2313 17.567 43.146 18.4336 43.3124 19.2697C43.4787 20.1058 43.8893 20.8737 44.4922 21.4764C44.8924 21.8766 45.3675 22.1941 45.8904 22.4107C46.4133 22.6273 46.9738 22.7387 47.5398 22.7387V22.7389ZM47.5398 20.9376C47.0436 20.9375 46.5586 20.7904 46.1461 20.5147C45.7335 20.2391 45.412 19.8473 45.222 19.389C45.0958 19.0846 45.0308 18.7584 45.0308 18.4289C45.0308 18.0995 45.0958 17.7732 45.222 17.4689C45.348 17.1645 45.5328 16.8879 45.7657 16.655C45.9987 16.422 46.2752 16.2373 46.5796 16.1113C46.9224 15.9693 47.2924 15.9051 47.6629 15.9233C48.0335 15.9415 48.3954 16.0417 48.7226 16.2166C49.0497 16.3915 49.3341 16.6367 49.5551 16.9347C49.7761 17.2327 49.9282 17.576 50.0006 17.9399C50.073 18.3038 50.0638 18.6792 49.9736 19.039C49.8835 19.3989 49.7147 19.7343 49.4793 20.0211C49.2439 20.3079 48.9479 20.5389 48.6125 20.6976C48.2771 20.8562 47.9108 20.9385 47.5398 20.9385V20.9376ZM48.1981 52.4726C47.3896 52.6471 46.5449 52.4934 45.8496 52.0453C45.3311 51.7111 44.9233 51.2306 44.6778 50.6646C44.4324 50.0987 44.3603 49.4726 44.4708 48.8656C44.5812 48.2587 44.8692 47.6981 45.2982 47.2548C45.7273 46.8116 46.2782 46.5055 46.8812 46.3754C47.6842 46.2149 48.5181 46.3766 49.2029 46.8256C49.8876 47.2746 50.3684 47.9748 50.5414 48.7752C50.7142 49.5756 50.5653 50.4118 50.1269 51.1034C49.6885 51.795 48.9957 52.2865 48.1981 52.4717V52.4726Z" fill="#2DD0ED"/>
<defs>
<radialGradient id="paint0_radial_1024_11498" cx="0" cy="0" r="1" gradientUnits="userSpaceOnUse" gradientTransform="translate(47.4238 47.7197) rotate(90) scale(47.04)">
<stop stop-color="#333944"/>
<stop offset="1" stop-color="#222428"/>
</radialGradient>
</defs>
</svg>
