<svg width="96" height="95" viewBox="0 0 96 95" fill="none" xmlns="http://www.w3.org/2000/svg">
<rect x="1.64856" y="0.912234" width="92.736" height="92.736" rx="13.44" fill="url(#paint0_radial_1024_11594)"/>
<rect x="1.64856" y="0.912234" width="92.736" height="92.736" rx="13.44" stroke="#6886C3" stroke-width="1.344"/>
<path d="M35.6043 68.1519C23.8336 68.1519 14.417 58.7353 14.417 46.9646C14.417 35.1939 23.8336 25.7773 35.6043 25.7773H60.4297C72.2004 25.7773 81.617 35.1939 81.617 46.9646C81.617 58.7353 72.2004 68.1519 60.4297 68.1519H35.6043ZM59.7877 60.6614C67.4922 60.6614 73.4845 54.4551 73.4845 46.9646C73.4845 39.2601 67.2781 33.2678 59.7877 33.2678H36.2463C28.5418 33.2678 22.5495 39.4742 22.5495 46.9646C22.5495 54.4551 28.7558 60.6614 36.2463 60.6614H59.7877Z" fill="#C74634"/>
<defs>
<radialGradient id="paint0_radial_1024_11594" cx="0" cy="0" r="1" gradientUnits="userSpaceOnUse" gradientTransform="translate(48.0166 47.2802) rotate(90) scale(47.04)">
<stop stop-color="#333944"/>
<stop offset="1" stop-color="#222428"/>
</radialGradient>
</defs>
</svg>
