<svg width="95" height="96" viewBox="0 0 95 96" fill="none" xmlns="http://www.w3.org/2000/svg">
<rect x="0.903445" y="1.62512" width="92.736" height="92.736" rx="13.44" fill="url(#paint0_radial_1024_11628)"/>
<rect x="0.903445" y="1.62512" width="92.736" height="92.736" rx="13.44" stroke="#6886C3" stroke-width="1.344"/>
<path d="M65.735 58.625L27.3682 81.4073L77.0463 78.0359L80.8722 27.9434L65.7348 58.6247L65.735 58.625Z" fill="url(#paint1_linear_1024_11628)"/>
<path d="M77.127 78.0016L72.8571 48.5312L61.2266 63.8891L77.127 78.0019V78.0016Z" fill="url(#paint2_linear_1024_11628)"/>
<path d="M77.1854 78.0003L45.904 75.5449L27.5342 81.3416L77.1854 78.0003V78.0003Z" fill="url(#paint3_linear_1024_11628)"/>
<path d="M27.5772 81.3468L35.3918 55.7461L18.1953 59.4227L27.5769 81.3466L27.5772 81.3468Z" fill="url(#paint4_linear_1024_11628)"/>
<path d="M61.225 63.9712L54.0344 35.8066L33.457 55.0955L61.225 63.9717V63.9712Z" fill="url(#paint5_linear_1024_11628)"/>
<path d="M79.2401 36.2051L59.7886 20.3184L54.3721 37.8297L79.2401 36.2051V36.2051Z" fill="url(#paint6_linear_1024_11628)"/>
<path d="M70.1453 14.651L58.7051 20.9734L51.4873 14.5664L70.1453 14.6513V14.651Z" fill="url(#paint7_linear_1024_11628)"/>
<path d="M13.6719 68.0125L18.4643 59.2721L14.5875 48.8594L13.6719 68.0125Z" fill="url(#paint8_linear_1024_11628)"/>
<path d="M14.3311 48.5304L18.2315 59.5941L35.18 55.7917L54.5295 37.8087L59.9903 20.4637L51.392 14.3926L36.7738 19.8634C32.168 24.1472 23.2309 32.6232 22.9088 32.7824C22.5897 32.9453 17.0071 43.497 14.3311 48.5304V48.5304Z" fill="white"/>
<path d="M28.0254 28.6522C38.0073 18.7552 50.8754 12.9078 55.8136 17.8904C60.7492 22.8729 55.5152 34.9812 45.5333 44.875C35.5513 54.7686 22.8427 60.9381 17.9077 55.9556C12.9694 50.9765 18.0434 38.546 28.0254 28.6522V28.6522Z" fill="url(#paint9_linear_1024_11628)"/>
<path d="M27.5781 81.3385L35.3316 55.6562L61.0814 63.9286C51.7712 72.659 41.4162 80.0395 27.5781 81.3385V81.3385Z" fill="url(#paint10_linear_1024_11628)"/>
<path d="M54.5635 37.758L61.1741 63.9422C68.9513 55.7647 75.9313 46.9735 79.3498 36.0996L54.5637 37.758H54.5635Z" fill="url(#paint11_linear_1024_11628)"/>
<path d="M79.2804 36.2305C81.9262 28.2465 82.5366 16.7926 70.0615 14.666L59.8252 20.3201L79.2804 36.2305V36.2305Z" fill="url(#paint12_linear_1024_11628)"/>
<path d="M13.6719 67.8964C14.0384 81.0735 23.5452 81.2699 27.5949 81.3854L18.2405 59.5391L13.6719 67.8964Z" fill="#9E1209"/>
<path d="M54.6006 37.7985C60.5768 41.4717 72.6213 48.8487 72.8654 48.9843C73.2451 49.1978 78.0581 40.868 79.1504 36.1602L54.6006 37.7985V37.7985Z" fill="url(#paint13_radial_1024_11628)"/>
<path d="M35.3213 55.6562L45.6863 75.6538C51.8152 72.33 56.6147 68.2802 61.0101 63.9424L35.3213 55.6562Z" fill="url(#paint14_radial_1024_11628)"/>
<path d="M18.2 59.5649L16.7314 77.0525C19.5024 80.8378 23.3149 81.1668 27.3134 80.8718C24.4204 73.6712 18.6408 59.2733 18.2 59.5649Z" fill="url(#paint15_linear_1024_11628)"/>
<path d="M59.7656 20.3658L80.357 23.2555C79.2578 18.5988 75.883 15.5937 70.1306 14.6543L59.7656 20.3658V20.3658Z" fill="url(#paint16_linear_1024_11628)"/>
<defs>
<radialGradient id="paint0_radial_1024_11628" cx="0" cy="0" r="1" gradientUnits="userSpaceOnUse" gradientTransform="translate(47.2714 47.9931) rotate(90) scale(47.04)">
<stop stop-color="#333944"/>
<stop offset="1" stop-color="#222428"/>
</radialGradient>
<linearGradient id="paint1_linear_1024_11628" x1="72.7128" y1="87.5016" x2="58.5525" y2="62.4634" gradientUnits="userSpaceOnUse">
<stop stop-color="#FB7655"/>
<stop offset="0.41" stop-color="#E42B1E"/>
<stop offset="0.99" stop-color="#990000"/>
<stop offset="1" stop-color="#990000"/>
</linearGradient>
<linearGradient id="paint2_linear_1024_11628" x1="79.7746" y1="66.4759" x2="59.8688" y2="62.5875" gradientUnits="userSpaceOnUse">
<stop stop-color="#871101"/>
<stop offset="0.99" stop-color="#911209"/>
<stop offset="1" stop-color="#911209"/>
</linearGradient>
<linearGradient id="paint3_linear_1024_11628" x1="65.1569" y1="88.2586" x2="64.9004" y2="75.6329" gradientUnits="userSpaceOnUse">
<stop stop-color="#871101"/>
<stop offset="0.99" stop-color="#911209"/>
<stop offset="1" stop-color="#911209"/>
</linearGradient>
<linearGradient id="paint4_linear_1024_11628" x1="26.7956" y1="57.5981" x2="32.7142" y2="74.9528" gradientUnits="userSpaceOnUse">
<stop stop-color="white"/>
<stop offset="0.23" stop-color="#E57252"/>
<stop offset="0.46" stop-color="#DE3B20"/>
<stop offset="0.99" stop-color="#A60003"/>
<stop offset="1" stop-color="#A60003"/>
</linearGradient>
<linearGradient id="paint5_linear_1024_11628" x1="46.2786" y1="40.4111" x2="47.3521" y2="59.1952" gradientUnits="userSpaceOnUse">
<stop stop-color="white"/>
<stop offset="0.23" stop-color="#E4714E"/>
<stop offset="0.56" stop-color="#BE1A0D"/>
<stop offset="0.99" stop-color="#A80D00"/>
<stop offset="1" stop-color="#A80D00"/>
</linearGradient>
<linearGradient id="paint6_linear_1024_11628" x1="63.5645" y1="23.0491" x2="65.1343" y2="36.6914" gradientUnits="userSpaceOnUse">
<stop stop-color="white"/>
<stop offset="0.18" stop-color="#E46342"/>
<stop offset="0.4" stop-color="#C82410"/>
<stop offset="0.99" stop-color="#A80D00"/>
<stop offset="1" stop-color="#A80D00"/>
</linearGradient>
<linearGradient id="paint7_linear_1024_11628" x1="54.0265" y1="18.3047" x2="56.2397" y2="8.9202" gradientUnits="userSpaceOnUse">
<stop stop-color="white"/>
<stop offset="0.54" stop-color="#C81F11"/>
<stop offset="0.99" stop-color="#BF0905"/>
<stop offset="1" stop-color="#BF0905"/>
</linearGradient>
<linearGradient id="paint8_linear_1024_11628" x1="14.9957" y1="52.9074" x2="20.7835" y2="56.5353" gradientUnits="userSpaceOnUse">
<stop stop-color="white"/>
<stop offset="0.31" stop-color="#DE4024"/>
<stop offset="0.99" stop-color="#BF190B"/>
<stop offset="1" stop-color="#BF190B"/>
</linearGradient>
<linearGradient id="paint9_linear_1024_11628" x1="7.37791" y1="66.9973" x2="59.3888" y2="13.3631" gradientUnits="userSpaceOnUse">
<stop stop-color="#BD0012"/>
<stop offset="0.07" stop-color="white"/>
<stop offset="0.17" stop-color="white"/>
<stop offset="0.27" stop-color="#C82F1C"/>
<stop offset="0.33" stop-color="#820C01"/>
<stop offset="0.46" stop-color="#A31601"/>
<stop offset="0.72" stop-color="#B31301"/>
<stop offset="0.99" stop-color="#E82609"/>
<stop offset="1" stop-color="#E82609"/>
</linearGradient>
<linearGradient id="paint10_linear_1024_11628" x1="47.2753" y1="72.4023" x2="32.5567" y2="66.2203" gradientUnits="userSpaceOnUse">
<stop stop-color="#8C0C01"/>
<stop offset="0.54" stop-color="#990C00"/>
<stop offset="0.99" stop-color="#A80D0E"/>
<stop offset="1" stop-color="#A80D0E"/>
</linearGradient>
<linearGradient id="paint11_linear_1024_11628" x1="74.2237" y1="53.572" x2="59.0625" y2="42.8028" gradientUnits="userSpaceOnUse">
<stop stop-color="#7E110B"/>
<stop offset="0.99" stop-color="#9E0C00"/>
<stop offset="1" stop-color="#9E0C00"/>
</linearGradient>
<linearGradient id="paint12_linear_1024_11628" x1="79.3428" y1="30.65" x2="72.2129" y2="23.4123" gradientUnits="userSpaceOnUse">
<stop stop-color="#79130D"/>
<stop offset="0.99" stop-color="#9E120B"/>
<stop offset="1" stop-color="#9E120B"/>
</linearGradient>
<radialGradient id="paint13_radial_1024_11628" cx="0" cy="0" r="1" gradientUnits="userSpaceOnUse" gradientTransform="translate(62.4568 41.3183) scale(17.0801 8.92492)">
<stop stop-color="#A80D00"/>
<stop offset="0.99" stop-color="#7E0E08"/>
<stop offset="1" stop-color="#7E0E08"/>
</radialGradient>
<radialGradient id="paint14_radial_1024_11628" cx="0" cy="0" r="1" gradientUnits="userSpaceOnUse" gradientTransform="translate(38.8019 63.8273) scale(22.7053 17.6751)">
<stop stop-color="#A30C00"/>
<stop offset="0.99" stop-color="#800E08"/>
<stop offset="1" stop-color="#800E08"/>
</radialGradient>
<linearGradient id="paint15_linear_1024_11628" x1="22.7177" y1="81.3216" x2="9.93446" y2="70.7105" gradientUnits="userSpaceOnUse">
<stop stop-color="#8B2114"/>
<stop offset="0.43" stop-color="#9E100A"/>
<stop offset="0.99" stop-color="#B3100C"/>
<stop offset="1" stop-color="#B3100C"/>
</linearGradient>
<linearGradient id="paint16_linear_1024_11628" x1="66.1222" y1="17.7162" x2="69.7504" y2="26.895" gradientUnits="userSpaceOnUse">
<stop stop-color="#B31000"/>
<stop offset="0.44" stop-color="#910F08"/>
<stop offset="0.99" stop-color="#791C12"/>
<stop offset="1" stop-color="#791C12"/>
</linearGradient>
</defs>
</svg>
