<svg width="95" height="96" viewBox="0 0 95 96" fill="none" xmlns="http://www.w3.org/2000/svg">
<rect x="0.920047" y="1.64075" width="92.736" height="92.736" rx="13.44" fill="url(#paint0_radial_1024_11474)"/>
<rect x="0.920047" y="1.64075" width="92.736" height="92.736" rx="13.44" stroke="#6886C3" stroke-width="1.344"/>
<path d="M20.3697 14.4082H14.4739C14.0401 14.4082 13.6885 14.7598 13.6885 15.1936V80.8228C13.6885 81.2566 14.0401 81.6082 14.4739 81.6082H20.3697C20.8035 81.6082 21.1551 81.2566 21.1551 80.8228V15.1936C21.1551 14.7598 20.8035 14.4082 20.3697 14.4082Z" fill="white"/>
<path d="M35.3033 14.4082H29.4075C28.9737 14.4082 28.6221 14.7598 28.6221 15.1936V80.8228C28.6221 81.2566 28.9737 81.6082 29.4075 81.6082H35.3033C35.7371 81.6082 36.0887 81.2566 36.0887 80.8228V15.1936C36.0887 14.7598 35.7371 14.4082 35.3033 14.4082Z" fill="white"/>
<path d="M50.2369 14.4082H44.3411C43.9073 14.4082 43.5557 14.7598 43.5557 15.1936V80.8228C43.5557 81.2566 43.9073 81.6082 44.3411 81.6082H50.2369C50.6707 81.6082 51.0223 81.2566 51.0223 80.8228V15.1936C51.0223 14.7598 50.6707 14.4082 50.2369 14.4082Z" fill="white"/>
<path d="M65.1666 14.4082H59.2708C58.837 14.4082 58.4854 14.7598 58.4854 15.1936V80.8228C58.4854 81.2566 58.837 81.6082 59.2708 81.6082H65.1666C65.6004 81.6082 65.952 81.2566 65.952 80.8228V15.1936C65.952 14.7598 65.6004 14.4082 65.1666 14.4082Z" fill="white"/>
<path d="M80.1061 40.5449H74.2102C73.7764 40.5449 73.4248 40.8966 73.4248 41.3303V54.6929C73.4248 55.1266 73.7764 55.4783 74.2102 55.4783H80.1061C80.5398 55.4783 80.8915 55.1266 80.8915 54.6929V41.3303C80.8915 40.8966 80.5398 40.5449 80.1061 40.5449Z" fill="white"/>
<defs>
<radialGradient id="paint0_radial_1024_11474" cx="0" cy="0" r="1" gradientUnits="userSpaceOnUse" gradientTransform="translate(47.288 48.0088) rotate(90) scale(47.04)">
<stop stop-color="#333944"/>
<stop offset="1" stop-color="#222428"/>
</radialGradient>
</defs>
</svg>
