<svg width="95" height="96" viewBox="0 0 95 96" fill="none" xmlns="http://www.w3.org/2000/svg">
<rect x="1.47962" y="1.62512" width="92.736" height="92.736" rx="13.44" fill="url(#paint0_radial_1024_11626)"/>
<rect x="1.47962" y="1.62512" width="92.736" height="92.736" rx="13.44" stroke="#6886C3" stroke-width="1.344"/>
<path d="M14.248 55.1307H17.2175V50.4786H19.7118L22.0477 55.1307H25.3339L22.602 49.7858C24.0471 49.0929 24.9775 47.6676 24.9775 45.8859C24.9775 43.0749 22.9385 41.2734 19.8899 41.2734H14.248V55.1307ZM19.6524 43.7479C21.0579 43.7479 21.9488 44.5794 21.9488 45.8859C21.9488 47.1727 21.0579 48.0041 19.6524 48.0041H17.2175V43.7479H19.6524ZM31.2377 55.2495C33.9498 55.2495 35.7117 53.6658 36.0284 51.6862H33.2767C33.0392 52.6364 32.2474 53.1313 31.119 53.1313C29.7135 53.1313 28.783 52.2603 28.7236 50.8152V50.6766H36.1076C36.167 50.3599 36.1868 50.0233 36.1868 49.7264C36.1472 46.7372 34.0884 44.8367 31.0398 44.8367C27.8922 44.8367 25.8136 46.8955 25.8136 50.0629C25.8136 53.2105 27.8526 55.2495 31.2377 55.2495ZM28.783 48.8554C28.9414 47.6478 29.852 46.9153 31.0596 46.9153C32.3265 46.9153 33.1778 47.6082 33.3757 48.8554H28.783ZM37.1597 51.7456C37.2785 53.9232 39.1987 55.2495 42.0296 55.2495C44.7615 55.2495 46.6618 53.9628 46.6618 51.9435C46.6618 49.6472 44.7219 49.1127 42.3859 48.8751C40.921 48.697 40.05 48.6178 40.05 47.8457C40.05 47.1925 40.7626 46.7965 41.8514 46.7965C42.9798 46.7965 43.7518 47.2914 43.831 48.1031H46.5035C46.3649 46.0245 44.4843 44.817 41.7524 44.817C39.1393 44.7971 37.3775 46.1235 37.3775 48.1427C37.3775 50.2411 39.2185 50.7756 41.5941 51.0527C43.2371 51.2705 43.93 51.3299 43.93 52.1613C43.93 52.874 43.2174 53.2501 42.0494 53.2501C40.6834 53.2501 39.9114 52.6364 39.8124 51.7456H37.1597ZM53.1604 55.2495C55.8725 55.2495 57.6343 53.6658 57.9511 51.6862H55.1994C54.9618 52.6364 54.17 53.1313 53.0416 53.1313C51.6361 53.1313 50.7057 52.2603 50.6463 50.8152V50.6766H58.0303C58.0896 50.3599 58.1095 50.0233 58.1095 49.7264C58.0699 46.7372 56.011 44.8367 52.9624 44.8367C49.8149 44.8367 47.7362 46.8955 47.7362 50.0629C47.7362 53.2105 49.7753 55.2495 53.1604 55.2495ZM50.7057 48.8554C50.864 47.6478 51.7747 46.9153 52.9822 46.9153C54.2492 46.9153 55.1004 47.6082 55.2984 48.8554H50.7057ZM65.4746 44.8367C63.911 44.8367 62.9803 45.4306 62.3273 46.2225L62.0697 44.9555H59.6348V55.1307H62.4259V49.9243C62.4259 48.1625 63.2575 47.1331 64.7024 47.1331C66.108 47.1331 66.7615 48.0437 66.7615 49.766V55.1307H69.5527V49.4888C69.5527 46.0047 67.6721 44.8367 65.4746 44.8367ZM78.6569 46.2225C78.0034 45.391 76.9937 44.8367 75.5885 44.8367C72.8763 44.8367 70.877 46.8757 70.877 50.0233C70.877 53.2501 72.8763 55.2495 75.6081 55.2495C77.0731 55.2495 78.0627 54.5962 78.7359 53.7252L79.0131 55.1307H81.448V41.2734H78.6569V46.2225ZM76.2219 52.9729C74.6975 52.9729 73.7275 51.7852 73.7275 50.0431C73.7275 48.301 74.6975 47.1133 76.2219 47.1133C77.7463 47.1133 78.6961 48.3209 78.6961 50.0629C78.6961 51.7852 77.7463 52.9729 76.2219 52.9729Z" fill="white"/>
<defs>
<radialGradient id="paint0_radial_1024_11626" cx="0" cy="0" r="1" gradientUnits="userSpaceOnUse" gradientTransform="translate(47.8476 47.9931) rotate(90) scale(47.04)">
<stop stop-color="#333944"/>
<stop offset="1" stop-color="#222428"/>
</radialGradient>
</defs>
</svg>
