<svg width="95" height="95" viewBox="0 0 95 95" fill="none" xmlns="http://www.w3.org/2000/svg">
<rect x="1.51184" y="1.06458" width="92.736" height="92.736" rx="13.44" fill="url(#paint0_radial_1024_11507)"/>
<rect x="1.51184" y="1.06458" width="92.736" height="92.736" rx="13.44" stroke="#6886C3" stroke-width="1.344"/>
<path d="M55.5458 38.1025L48.8253 44.3599L42.5869 31.7715L45.8096 24.5334C46.6241 23.0896 47.9563 23.0705 48.7708 24.5334L55.5458 38.1025Z" fill="#FFA000"/>
<path d="M48.8282 44.3572L23.6895 67.7388L42.5898 31.7715L48.8282 44.3572Z" fill="#F57F17"/>
<path d="M62.9149 28.5324C64.119 27.3855 65.3585 27.7723 65.6717 29.4014L72.207 67.4228L50.5308 80.4362C49.7707 80.8611 47.7548 81.0273 47.7548 81.0273C47.7548 81.0273 45.9215 80.8039 45.2186 80.4171L23.6895 67.7388L62.9149 28.5324Z" fill="#FFCA28"/>
<path d="M42.5898 31.7721L23.6895 67.7394L32.1126 15.1682C32.4286 13.5392 33.3521 13.373 34.1857 14.8168L42.5898 31.7721Z" fill="#FFA000"/>
<defs>
<radialGradient id="paint0_radial_1024_11507" cx="0" cy="0" r="1" gradientUnits="userSpaceOnUse" gradientTransform="translate(47.8798 47.4326) rotate(90) scale(47.04)">
<stop stop-color="#333944"/>
<stop offset="1" stop-color="#222428"/>
</radialGradient>
</defs>
</svg>
