<svg width="95" height="95" viewBox="0 0 95 95" fill="none" xmlns="http://www.w3.org/2000/svg">
<rect x="0.903445" y="1.06458" width="92.736" height="92.736" rx="13.44" fill="url(#paint0_radial_1024_11523)"/>
<rect x="0.903445" y="1.06458" width="92.736" height="92.736" rx="13.44" stroke="#6886C3" stroke-width="1.344"/>
<path fill-rule="evenodd" clip-rule="evenodd" d="M53.3007 21.5226L67.1 29.4902C67.4984 29.0686 67.9556 28.7068 68.4574 28.416C71.3192 26.7707 74.9696 27.7476 76.6319 30.6096C78.2772 33.4716 77.3003 37.1217 74.4383 38.7841C73.9402 39.0709 73.4035 39.2846 72.8446 39.4187V55.3596C73.3974 55.4939 73.9283 55.7061 74.4213 55.99C77.3003 57.6523 78.2772 61.3027 76.6149 64.1647C74.9696 67.0265 71.3022 68.0034 68.4402 66.3583C67.8857 66.0402 67.3862 65.6347 66.961 65.1574L53.2456 73.076C53.4465 73.6842 53.5485 74.3206 53.5477 74.9611C53.5477 78.2515 50.8745 80.9423 47.5669 80.9423C44.2592 80.9423 41.586 78.2685 41.586 74.9611C41.586 74.3732 41.6704 73.8053 41.8279 73.2689L28.0323 65.3037C27.6383 65.7169 27.1875 66.072 26.6935 66.3583C23.8145 68.0034 20.1641 67.0265 18.5188 64.1647C16.8738 61.3027 17.8506 57.6523 20.7124 55.99C21.2054 55.7061 21.7363 55.4937 22.2891 55.3594V39.4187C21.7302 39.2846 21.1935 39.0709 20.6954 38.7841C17.8334 37.139 16.8565 33.4716 18.5018 30.6096C20.1471 27.7476 23.8143 26.7707 26.6763 28.416C27.1754 28.7053 27.6303 29.0648 28.0271 29.4834L41.8305 21.5138C41.6677 20.9615 41.5854 20.3887 41.586 19.8129C41.586 16.5058 44.2592 13.832 47.5669 13.832C50.8745 13.832 53.5477 16.5055 53.5477 19.8129C53.5477 20.4074 53.4614 20.9811 53.3007 21.5226ZM51.863 23.9775L65.6953 31.9637C65.475 32.7337 65.4118 33.54 65.5095 34.3349C65.6072 35.1297 65.8637 35.8968 66.2638 36.5905C67.1059 38.0552 68.4775 39.0262 69.9998 39.4047V55.3654C69.9221 55.3843 69.8449 55.4051 69.7682 55.427L51.7023 24.1373C51.7569 24.0851 51.8105 24.0316 51.863 23.9775ZM43.4352 24.1408L25.3695 55.43C25.2914 55.4075 25.2128 55.3865 25.1339 55.367V39.4047C26.6562 39.0262 28.0278 38.0552 28.8699 36.5905C29.2708 35.8955 29.5276 35.1268 29.6248 34.3303C29.7221 33.5339 29.6579 32.726 29.4361 31.9549L43.2644 23.971C43.3201 24.0286 43.3771 24.0855 43.4352 24.1408ZM49.238 25.5582L67.2995 56.8404C66.8858 57.2352 66.5312 57.6876 66.2466 58.1836C65.9627 58.6766 65.7504 59.2075 65.6162 59.7603H29.518C29.3835 59.2074 29.1711 58.6766 28.8871 58.1836C28.6016 57.691 28.2476 57.2413 27.8358 56.8481L45.9008 25.5596C46.4424 25.7155 47.0033 25.7944 47.5669 25.7938C48.1471 25.7938 48.7077 25.7117 49.238 25.5582ZM51.9899 70.9319L65.7324 62.9975C65.6912 62.8679 65.6544 62.737 65.622 62.605H29.5103C29.4912 62.6827 29.4704 62.7597 29.4482 62.8365L43.2579 70.8098C43.8155 70.23 44.4848 69.7689 45.2253 69.4545C45.9658 69.1401 46.7623 68.9787 47.5669 68.9802C48.3995 68.9788 49.2232 69.1517 49.985 69.4878C50.7468 69.8239 51.4298 70.3158 51.9899 70.9319Z" fill="#E535AB"/>
<defs>
<radialGradient id="paint0_radial_1024_11523" cx="0" cy="0" r="1" gradientUnits="userSpaceOnUse" gradientTransform="translate(47.2714 47.4326) rotate(90) scale(47.04)">
<stop stop-color="#333944"/>
<stop offset="1" stop-color="#222428"/>
</radialGradient>
</defs>
</svg>
