<svg width="95" height="95" viewBox="0 0 95 95" fill="none" xmlns="http://www.w3.org/2000/svg">
<rect x="1.20813" y="1.21497" width="92.736" height="92.736" rx="13.44" fill="url(#paint0_radial_1024_11431)"/>
<rect x="1.20813" y="1.21497" width="92.736" height="92.736" rx="13.44" stroke="#6886C3" stroke-width="1.344"/>
<g clip-path="url(#clip0_1024_11431)">
<path fill-rule="evenodd" clip-rule="evenodd" d="M42.9206 54.7134L41.46 58.2525C45.3849 70.3387 45.3849 70.3387 47.5761 80.8819C49.7672 70.3387 49.7672 70.3387 53.6922 58.2525L52.2315 54.7134L47.5761 43.4336L42.9206 54.7134Z" fill="#069EFE"/>
<path fill-rule="evenodd" clip-rule="evenodd" d="M42.424 16.9824H52.7278L75.5434 73.6074H65.9756L47.5759 30.359L29.1762 73.6074H19.6084L42.424 16.9824Z" fill="url(#paint1_linear_1024_11431)"/>
<mask id="mask0_1024_11431" style="mask-type:luminance" maskUnits="userSpaceOnUse" x="41" y="43" width="13" height="39">
<path d="M41.458 58.6129L47.5741 43.4336L53.6903 58.6129L47.5741 81.7928L41.458 58.6129Z" fill="white"/>
</mask>
<g mask="url(#mask0_1024_11431)">
<g filter="url(#filter0_f_1024_11431)">
<path fill-rule="evenodd" clip-rule="evenodd" d="M47.575 66.5411L65.8345 21.0312L29.3154 21.2183L47.575 66.5411Z" fill="white"/>
</g>
</g>
</g>
<defs>
<filter id="filter0_f_1024_11431" x="26.4444" y="18.1602" width="42.2616" height="51.2518" filterUnits="userSpaceOnUse" color-interpolation-filters="sRGB">
<feFlood flood-opacity="0" result="BackgroundImageFix"/>
<feBlend mode="normal" in="SourceGraphic" in2="BackgroundImageFix" result="shape"/>
<feGaussianBlur stdDeviation="1.43551" result="effect1_foregroundBlur_1024_11431"/>
</filter>
<radialGradient id="paint0_radial_1024_11431" cx="0" cy="0" r="1" gradientUnits="userSpaceOnUse" gradientTransform="translate(47.5761 47.583) rotate(90) scale(47.04)">
<stop stop-color="#333944"/>
<stop offset="1" stop-color="#222428"/>
</radialGradient>
<linearGradient id="paint1_linear_1024_11431" x1="47.6679" y1="16.9824" x2="47.5828" y2="78.2082" gradientUnits="userSpaceOnUse">
<stop stop-color="#EC2802"/>
<stop offset="1" stop-color="#FCB200"/>
</linearGradient>
<clipPath id="clip0_1024_11431">
<rect width="67.2" height="67.2" fill="white" transform="translate(13.9766 13.9824)"/>
</clipPath>
</defs>
</svg>
