<svg width="95" height="95" viewBox="0 0 95 95" fill="none" xmlns="http://www.w3.org/2000/svg">
<rect x="1.32825" y="1.04895" width="92.736" height="92.736" rx="13.44" fill="url(#paint0_radial_1024_11672)"/>
<rect x="1.32825" y="1.04895" width="92.736" height="92.736" rx="13.44" stroke="#6886C3" stroke-width="1.344"/>
<path d="M47.6967 81.0145C66.2534 81.0145 81.2967 65.9712 81.2967 47.4145C81.2967 28.8577 66.2534 13.8145 47.6967 13.8145C29.1399 13.8145 14.0967 28.8577 14.0967 47.4145C14.0967 65.9712 29.1399 81.0145 47.6967 81.0145Z" fill="#303846"/>
<path d="M47.9695 61.3091C50.6484 56.6323 50.8301 50.7296 47.9695 45.735C45.109 40.7404 39.8419 37.9707 34.4841 37.9707C31.8052 42.6475 31.6236 48.5502 34.4841 53.5448C37.3446 58.4939 42.5663 61.3091 47.9695 61.3091Z" stroke="#97DCCF" stroke-width="2.27027" stroke-miterlimit="10"/>
<path d="M47.4245 61.3091C52.7824 61.3091 58.004 58.5394 60.9099 53.5448C63.7705 48.5502 63.5889 42.6475 60.9099 37.9707C55.5521 37.9707 50.3305 40.7404 47.4245 45.735C44.564 50.7296 44.7456 56.6323 47.4245 61.3091Z" stroke="#97DCCF" stroke-width="2.27027" stroke-miterlimit="10"/>
<path d="M47.6969 60.7657C52.3283 58.0868 55.4613 53.0468 55.4613 47.2803C55.4613 41.5138 52.3283 36.4738 47.6969 33.7949C43.0656 36.4738 39.9326 41.5138 39.9326 47.2803C39.9326 53.0468 43.0656 58.0868 47.6969 60.7657Z" stroke="#97DCCF" stroke-width="2.27027" stroke-miterlimit="10"/>
<defs>
<radialGradient id="paint0_radial_1024_11672" cx="0" cy="0" r="1" gradientUnits="userSpaceOnUse" gradientTransform="translate(47.6963 47.417) rotate(90) scale(47.04)">
<stop stop-color="#333944"/>
<stop offset="1" stop-color="#222428"/>
</radialGradient>
</defs>
</svg>
