<svg width="95" height="95" viewBox="0 0 95 95" fill="none" xmlns="http://www.w3.org/2000/svg">
<rect x="1.32825" y="1.21497" width="92.736" height="92.736" rx="13.44" fill="url(#paint0_radial_1024_11441)"/>
<rect x="1.32825" y="1.21497" width="92.736" height="92.736" rx="13.44" stroke="#6886C3" stroke-width="1.344"/>
<g clip-path="url(#clip0_1024_11441)">
<path d="M44.8697 15.3858L15.5006 44.7308C13.9217 46.3084 13.9217 48.8566 15.5006 50.4342L44.8697 79.7792C46.4487 81.3568 48.9989 81.3568 50.5778 79.7792L62.8919 67.4752C64.306 66.0624 64.306 63.7716 62.8919 62.3587C61.4779 60.9458 59.1852 60.9458 57.7712 62.3587L48.436 71.6862C48.043 72.0789 47.4465 72.0789 47.0535 71.6862L23.6002 48.2522C23.2072 47.8595 23.2072 47.2635 23.6002 46.8709L47.0535 23.4368C47.4465 23.0441 48.043 23.0441 48.436 23.4368L57.7712 32.7643C59.1852 34.1772 61.4779 34.1772 62.8919 32.7643C64.306 31.3514 64.306 29.0607 62.8919 27.6478L50.5792 15.3452C48.9938 13.8017 46.4426 13.8142 44.8697 15.3858Z" fill="url(#paint1_linear_1024_11441)"/>
<path d="M44.8697 15.3858L15.5006 44.7308C13.9217 46.3084 13.9217 48.8566 15.5006 50.4342L44.8697 79.7792C46.4487 81.3568 48.9989 81.3568 50.5778 79.7792L62.8919 67.4752C64.306 66.0624 64.306 63.7716 62.8919 62.3587C61.4779 60.9458 59.1852 60.9458 57.7712 62.3587L48.436 71.6862C48.043 72.0789 47.4465 72.0789 47.0535 71.6862L23.6002 48.2522C23.2072 47.8595 23.2072 47.2635 23.6002 46.8709L47.0535 23.4368C48.0321 22.5932 49.6287 20.8845 51.9733 20.4849C53.7158 20.1879 55.6208 20.8416 57.6883 22.446C56.306 21.0648 53.9363 18.6979 50.5792 15.3452C48.9938 13.8017 46.4426 13.8142 44.8697 15.3858Z" fill="url(#paint2_linear_1024_11441)"/>
<path d="M65.7343 59.6289C67.1483 61.0417 69.441 61.0417 70.855 59.6289L79.9385 50.5529C81.5174 48.9752 81.5174 46.4271 79.9387 44.8496L70.776 35.727C69.3586 34.3158 67.0653 34.3178 65.6504 35.7315C64.2363 37.1444 64.2363 39.4352 65.6504 40.8481L71.8389 47.0315C72.2319 47.4241 72.2319 48.0201 71.8389 48.4128L65.7343 54.5123C64.3202 55.9252 64.3202 58.216 65.7343 59.6289Z" fill="url(#paint3_linear_1024_11441)"/>
<path d="M47.8711 55.651C52.2505 55.651 55.8007 52.1037 55.8007 47.7278C55.8007 43.352 52.2505 39.8047 47.8711 39.8047C43.4916 39.8047 39.9414 43.352 39.9414 47.7278C39.9414 52.1037 43.4916 55.651 47.8711 55.651Z" fill="url(#paint4_linear_1024_11441)"/>
</g>
<defs>
<radialGradient id="paint0_radial_1024_11441" cx="0" cy="0" r="1" gradientUnits="userSpaceOnUse" gradientTransform="translate(47.6963 47.583) rotate(90) scale(47.04)">
<stop stop-color="#333944"/>
<stop offset="1" stop-color="#222428"/>
</radialGradient>
<linearGradient id="paint1_linear_1024_11441" x1="3096.83" y1="14.1974" x2="5887.75" y2="1718.57" gradientUnits="userSpaceOnUse">
<stop stop-color="#4285EB"/>
<stop offset="1" stop-color="#2EC7FF"/>
</linearGradient>
<linearGradient id="paint2_linear_1024_11441" x1="3471.17" y1="14.1972" x2="2092.72" y2="7138.44" gradientUnits="userSpaceOnUse">
<stop stop-color="#29CDFF"/>
<stop offset="0.378601" stop-color="#148EFF"/>
<stop offset="1" stop-color="#0A60FF"/>
</linearGradient>
<linearGradient id="paint3_linear_1024_11441" x1="1216.78" y1="-302.905" x2="-576.809" y2="2502.12" gradientUnits="userSpaceOnUse">
<stop stop-color="#FA816E"/>
<stop offset="0.414726" stop-color="#F74A5C"/>
<stop offset="1" stop-color="#F51D2C"/>
</linearGradient>
<linearGradient id="paint4_linear_1024_11441" x1="1120.41" y1="-525.758" x2="523.626" y2="1861.45" gradientUnits="userSpaceOnUse">
<stop stop-color="#FA8E7D"/>
<stop offset="0.512635" stop-color="#F74A5C"/>
<stop offset="1" stop-color="#F51D2C"/>
</linearGradient>
<clipPath id="clip0_1024_11441">
<rect width="67.2" height="67.2" fill="white" transform="translate(14.0967 13.9824)"/>
</clipPath>
</defs>
</svg>
