<svg width="95" height="95" viewBox="0 0 95 95" fill="none" xmlns="http://www.w3.org/2000/svg">
<rect x="1.32825" y="1.33606" width="92.736" height="92.736" rx="13.44" fill="url(#paint0_radial_1024_11651)"/>
<rect x="1.32825" y="1.33606" width="92.736" height="92.736" rx="13.44" stroke="#6886C3" stroke-width="1.344"/>
<path d="M48.1098 79.4429C30.4661 79.4429 16.1113 65.0895 16.1113 47.4451C16.1113 29.8007 30.4661 15.4473 48.1098 15.4473C65.7536 15.4473 80.1083 29.802 80.1083 47.4458C80.1083 65.0895 65.7536 79.4429 48.1098 79.4429Z" fill="#85EA2D"/>
<path d="M47.6963 17.3065C64.4844 17.3065 78.093 30.9151 78.093 47.7032C78.093 64.4906 64.4844 78.0998 47.6963 78.0998C30.9089 78.0998 17.2997 64.4906 17.2997 47.7032C17.2997 30.9158 30.9089 17.3065 47.6963 17.3065ZM47.6963 14.1035C29.1694 14.1035 14.0967 29.1762 14.0967 47.7032C14.0967 66.2301 29.1694 81.3028 47.6963 81.3028C66.2233 81.3028 81.2967 66.2301 81.2967 47.7032C81.2967 29.1762 66.2233 14.1035 47.6963 14.1035Z" fill="#173647"/>
<path d="M35.546 36.5416C35.4426 37.6914 35.5843 38.8802 35.5077 40.0428C35.417 41.206 35.2747 42.3559 35.0423 43.5057C34.7192 45.1465 33.6983 46.387 32.2906 47.4206C35.0302 49.2038 35.3398 51.9683 35.5205 54.7723C35.6111 56.2842 35.5722 57.8088 35.7273 59.3072C35.8435 60.4698 36.2955 60.7673 37.4978 60.8056C37.9887 60.8183 38.4918 60.8056 39.0613 60.8056V64.3975C35.5084 65.0046 32.5754 63.9972 31.8514 60.9869C31.6183 59.8888 31.4632 58.7645 31.4121 57.6274C31.3342 56.4259 31.4632 55.2243 31.3732 54.0228C31.1146 50.7278 30.6881 49.6169 27.5361 49.4617V45.3661C27.7685 45.3144 27.9881 45.2755 28.2205 45.2499C29.952 45.1593 30.6881 44.6293 31.0629 42.9241C31.2442 41.9683 31.3476 40.9992 31.3859 40.0173C31.5155 38.1441 31.4638 36.2319 31.7862 34.3715C32.2382 31.6971 33.8924 30.4049 36.6448 30.2497C37.4198 30.2108 38.2083 30.2497 39.0996 30.2497V33.9195C38.7248 33.9457 38.4018 33.9968 38.066 33.9968C35.8308 33.9189 35.7139 34.6812 35.546 36.5416ZM39.8485 45.0431H39.7968C38.5045 44.9786 37.3937 45.986 37.3285 47.2783C37.264 48.5832 38.2715 49.6948 39.5637 49.7586H39.7188C40.9983 49.8365 42.0957 48.8539 42.1736 47.5751V47.4462C42.1998 46.1412 41.1534 45.0693 39.8485 45.0431ZM47.9497 45.0431C46.6964 45.0041 45.6493 45.986 45.6111 47.2265C45.6111 47.3045 45.6111 47.3689 45.6245 47.4462C45.6245 48.8546 46.5802 49.7593 48.0276 49.7593C49.4488 49.7593 50.3407 48.8291 50.3407 47.3689C50.3272 45.9605 49.3836 45.0303 47.9497 45.0431ZM56.245 45.0431C54.9272 45.0169 53.8285 46.0639 53.7902 47.3817C53.7902 48.6994 54.8493 49.7586 56.1671 49.7586H56.1933C57.3821 49.9655 58.5836 48.8156 58.6615 47.4334C58.7253 46.1539 57.5627 45.0431 56.245 45.0431ZM67.6278 45.2365C66.1287 45.172 65.3792 44.6683 65.0051 43.2465C64.772 42.3424 64.6303 41.3988 64.5786 40.4686C64.4751 38.7371 64.4879 36.9929 64.3717 35.2614C64.1004 31.1531 61.1291 29.7191 56.8132 30.4291V33.9954C57.4976 33.9954 58.0275 33.9954 58.5574 34.0082C59.4749 34.0209 60.1727 34.3702 60.2627 35.3911C60.3533 36.3213 60.3533 37.2642 60.444 38.2079C60.6254 40.0817 60.7281 41.9804 61.0512 43.8281C61.3359 45.3527 62.3823 46.4898 63.6866 47.42C61.4004 48.9573 60.7281 51.1536 60.6119 53.6218C60.5475 55.3143 60.5085 57.0196 60.4185 58.7255C60.3406 60.2757 59.7986 60.7794 58.235 60.8183C57.7958 60.8311 57.3693 60.87 56.8783 60.8962V64.5526C57.7958 64.5526 58.6353 64.6043 59.4749 64.5526C62.0848 64.3974 63.6611 63.1314 64.1783 60.5987C64.3979 59.2031 64.5269 57.7953 64.5658 56.3869C64.6558 55.0947 64.6437 53.7897 64.7727 52.5109C64.9661 50.5081 65.8836 49.6814 67.8864 49.5524C68.0805 49.5262 68.2611 49.4879 68.4425 49.4234V45.3272C68.106 45.2882 67.8729 45.2499 67.6278 45.2365Z" fill="#173647"/>
<defs>
<radialGradient id="paint0_radial_1024_11651" cx="0" cy="0" r="1" gradientUnits="userSpaceOnUse" gradientTransform="translate(47.6963 47.7041) rotate(90) scale(47.04)">
<stop stop-color="#333944"/>
<stop offset="1" stop-color="#222428"/>
</radialGradient>
</defs>
</svg>
