<svg width="95" height="95" viewBox="0 0 95 95" fill="none" xmlns="http://www.w3.org/2000/svg">
<rect x="0.935672" y="1.35169" width="92.736" height="92.736" rx="13.44" fill="url(#paint0_radial_1024_11488)"/>
<rect x="0.935672" y="1.35169" width="92.736" height="92.736" rx="13.44" stroke="#6886C3" stroke-width="1.344"/>
<path d="M47.3041 14.1191C65.8609 14.1191 80.9041 29.1624 80.9041 47.7191C80.9041 66.276 65.8609 81.3191 47.3041 81.3191C28.7473 81.3191 13.7041 66.276 13.7041 47.7191C13.7041 29.1624 28.7473 14.1191 47.3041 14.1191Z" fill="black"/>
<path d="M46.5517 64.1586C45.69 63.9263 44.8036 64.4252 44.5514 65.2757L44.5402 65.3154L42.3089 73.5841L42.2988 73.624C42.0887 74.4859 42.6039 75.3631 43.4657 75.5954C44.3272 75.8281 45.2135 75.3293 45.4658 74.4785L45.477 74.4391L47.708 66.1704L47.7183 66.1303C47.7335 66.0682 47.745 66.0057 47.7528 65.9435L47.7593 65.8812L47.7064 65.6133L47.6291 65.2276L47.5803 64.9868C47.4757 64.7849 47.3303 64.6071 47.1531 64.4644C46.9762 64.3219 46.7712 64.2178 46.5517 64.1586ZM31.0036 55.6433C30.963 55.7244 30.9284 55.8099 30.901 55.8993L30.8855 55.9533L28.6543 64.222L28.644 64.2621C28.434 65.1241 28.9492 66.001 29.8108 66.2335C30.6724 66.4661 31.5588 65.9674 31.8111 65.1167L31.8221 65.077L33.8452 57.5795C32.7856 57.0184 31.8346 56.3711 31.0036 55.6433ZM25.6829 46.1345C24.8212 45.902 23.9348 46.4006 23.6827 47.2513L23.6715 47.291L21.4403 55.5597L21.43 55.5996C21.22 56.4615 21.7352 57.3385 22.5968 57.571C23.4584 57.8035 24.3448 57.3049 24.5971 56.4542L24.6081 56.4145L26.8393 48.1458L26.8496 48.1059C27.0596 47.2439 26.5446 46.367 25.6829 46.1345ZM75.7131 44.2567C74.8514 44.0242 73.9648 44.5228 73.7128 45.3735L73.7016 45.4132L71.4704 53.6819L71.4601 53.7218C71.2502 54.5838 71.7654 55.4607 72.6269 55.6932C73.4886 55.9257 74.375 55.4271 74.6272 54.5764L74.6382 54.5367L76.8694 46.268L76.8797 46.2281C77.0896 45.3662 76.5747 44.4892 75.7131 44.2567ZM20.8238 33.215C18.9552 36.6178 17.7653 40.3515 17.3203 44.2081C17.5332 44.4507 17.8132 44.6249 18.125 44.7085C18.9867 44.9412 19.8731 44.4424 20.1253 43.5916L20.1364 43.5522L22.3677 35.2834L22.3779 35.2435C22.5879 34.3814 22.0727 33.5044 21.2111 33.2719C21.0847 33.2378 20.9546 33.2187 20.8238 33.215ZM70.0616 33.2719C69.2001 33.0394 68.3135 33.5381 68.0613 34.3889L68.0503 34.4284L65.8191 42.6972L65.8088 42.7371C65.5989 43.599 66.1139 44.4762 66.9756 44.7085C67.8371 44.9412 68.7237 44.4424 68.9759 43.5916L68.9869 43.5522L71.2181 35.2834L71.2284 35.2435C71.4383 34.3814 70.9231 33.5044 70.0616 33.2719Z" fill="white"/>
<path d="M30.533 25.4083C29.6715 25.1757 28.785 25.6745 28.5328 26.5253L28.5217 26.5648L26.2905 34.8335L26.2802 34.8734C26.0702 35.7355 26.5854 36.6125 27.447 36.845C28.3086 37.0775 29.195 36.5786 29.4473 35.728L29.4583 35.6885L31.6896 27.4197L31.6998 27.3798C31.9098 26.5178 31.3946 25.6408 30.533 25.4083ZM59.2022 26.9714C58.3405 26.7388 57.4541 27.2375 57.2019 28.0883L57.1907 28.1278L55.6915 33.6836C56.6627 34.1634 57.5896 34.7281 58.4614 35.3713L58.6057 35.4789L60.3587 28.9828L60.3688 28.9429C60.5789 28.0808 60.0639 27.2038 59.2022 26.9714ZM44.6091 17.6484C43.5625 17.7409 42.5211 17.888 41.4899 18.0892L41.271 18.1327L39.1914 25.8418L39.1811 25.8817C38.9712 26.7438 39.4864 27.6208 40.3479 27.8533C41.2096 28.0858 42.096 27.5871 42.3482 26.7363L42.3592 26.6968L44.5905 18.428L44.6008 18.3882C44.6601 18.1455 44.663 17.8924 44.6091 17.6484ZM65.1404 23.3602L64.7021 24.985L64.6918 25.0248C64.4819 25.8869 64.9971 26.7639 65.8586 26.9963C66.7201 27.2289 67.6067 26.7301 67.8589 25.8794L67.8699 25.8399L67.9178 25.6636C67.0973 24.8962 66.2347 24.1751 65.3342 23.5033L65.1404 23.3602ZM52.1587 17.918L51.3674 20.8505L51.3573 20.8904C51.1472 21.7525 51.6624 22.6295 52.5241 22.8619C53.3856 23.0945 54.272 22.5958 54.5244 21.745L54.5354 21.7055L55.3682 18.6189C54.388 18.3479 53.3948 18.1269 52.3922 17.9567L52.1587 17.918Z" fill="white"/>
<path d="M35.4116 69.2795C35.6637 68.4288 36.5503 67.9302 37.4118 68.1625C38.2735 68.3947 38.7885 69.2719 38.5786 70.1341L38.5683 70.174L36.9714 76.0916L36.7483 76.0094C35.7868 75.6503 34.8444 75.2424 33.9248 74.7868L35.4005 69.319L35.4116 69.2795Z" fill="white"/>
<path d="M45.9921 33.1367C36.2215 33.1367 28.6211 39.2877 28.6211 46.9371C28.6211 54.1615 35.6145 58.7744 46.4558 58.5434C47.3778 58.5237 47.6443 59.1431 47.9443 59.9777C48.2444 60.8123 49.0508 65.211 49.6935 68.5755C50.2687 71.5867 50.8531 74.6089 51.2993 77.6428C58.3789 76.7069 64.925 73.21 69.7216 67.9357L64.6056 48.857C63.3304 44.2493 61.8399 40.0036 57.8959 36.9191C54.723 34.4378 50.6919 33.1367 45.9921 33.1367Z" fill="white"/>
<path d="M48.0922 38.6621C49.2521 38.6621 50.1922 39.6022 50.1922 40.7621C50.1922 41.922 49.2521 42.8621 48.0922 42.8621C46.9323 42.8621 45.9922 41.922 45.9922 40.7621C45.9922 39.6022 46.9323 38.6621 48.0922 38.6621Z" fill="black"/>
<defs>
<radialGradient id="paint0_radial_1024_11488" cx="0" cy="0" r="1" gradientUnits="userSpaceOnUse" gradientTransform="translate(47.3037 47.7197) rotate(90) scale(47.04)">
<stop stop-color="#333944"/>
<stop offset="1" stop-color="#222428"/>
</radialGradient>
</defs>
</svg>
