<svg width="95" height="95" viewBox="0 0 95 95" fill="none" xmlns="http://www.w3.org/2000/svg">
<rect x="1.51184" y="1.35169" width="92.736" height="92.736" rx="13.44" fill="url(#paint0_radial_1024_11486)"/>
<rect x="1.51184" y="1.35169" width="92.736" height="92.736" rx="13.44" stroke="#6886C3" stroke-width="1.344"/>
<g clip-path="url(#clip0_1024_11486)">
<path d="M32.3432 32.3022L28.0254 27.9844V59.1214L28.0862 60.5809C28.0862 61.2499 28.2078 62.0405 28.4511 62.8311L62.6288 74.8723L71.1429 71.1018L32.3432 32.3022Z" fill="#00C4B3"/>
<path d="M71.1427 71.1009L62.6286 74.8714L28.5117 62.8301C29.1807 65.3235 30.5794 68.1209 32.1606 69.7021L43.2896 80.7703L68.102 80.8312L71.1427 71.1009Z" fill="#22D3C5"/>
<path d="M28.1479 27.9844L14.8904 48.0532C13.7957 49.2086 14.3431 51.6412 16.1067 53.4656L23.7693 61.1891L28.5736 62.8919C28.3912 62.1013 28.2088 61.3107 28.2088 60.6417L28.1479 59.1822V27.9844Z" fill="#0075C9"/>
<path d="M62.8721 28.3476C62.0815 28.1651 61.2909 28.0435 60.622 27.9827L59.1016 27.9219H28.0254L71.1429 71.0393L74.9134 62.5253L62.8721 28.3476Z" fill="#0075C9"/>
<path d="M69.7434 31.9985C68.1622 30.4173 65.4256 28.9578 62.8714 28.3496L74.9126 62.5273L71.1421 71.0414L80.3859 68.0615V42.7018L69.7434 31.9985Z" fill="#00A8E1"/>
<path d="M61.1696 23.6052L53.4461 15.9426C51.6825 14.179 49.2499 13.6317 48.0336 14.7263L27.9648 27.9839H59.041L60.5614 28.0447C61.2304 28.0447 62.0209 28.1663 62.8115 28.4096L61.1696 23.6052Z" fill="#00C4B3"/>
</g>
<defs>
<radialGradient id="paint0_radial_1024_11486" cx="0" cy="0" r="1" gradientUnits="userSpaceOnUse" gradientTransform="translate(47.8798 47.7197) rotate(90) scale(47.04)">
<stop stop-color="#333944"/>
<stop offset="1" stop-color="#222428"/>
</radialGradient>
<clipPath id="clip0_1024_11486">
<rect width="67.2" height="67.2" fill="white" transform="translate(14.2803 14.1191)"/>
</clipPath>
</defs>
</svg>
