<svg width="95" height="95" viewBox="0 0 95 95" fill="none" xmlns="http://www.w3.org/2000/svg">
<rect x="0.920047" y="1.33606" width="92.736" height="92.736" rx="13.44" fill="url(#paint0_radial_1024_11642)"/>
<rect x="0.920047" y="1.33606" width="92.736" height="92.736" rx="13.44" stroke="#6886C3" stroke-width="1.344"/>
<path fill-rule="evenodd" clip-rule="evenodd" d="M27.209 22.25H67.9363V62.9773H27.209V22.25Z" fill="white"/>
<path d="M52.2111 45.0846H39.046V51.2792H51.8954C52.655 51.2792 53.3514 50.9697 53.9216 50.4749C54.4266 49.978 54.7443 49.2347 54.7443 48.3062C54.7619 47.5068 54.5173 46.7236 54.0479 46.0763C53.5408 45.4552 52.9706 45.0846 52.2111 45.0846ZM52.655 37.5867C53.2252 37.2161 53.4777 36.4097 53.4777 35.3569C53.4777 34.4283 53.2252 33.7462 52.7813 33.3124C52.323 32.9184 51.7402 32.6992 51.1359 32.6934H39.0439V38.2689H50.8834C51.5146 38.2689 52.1479 37.9594 52.655 37.5867Z" fill="#0AB3AF"/>
<path d="M73.5912 14.1035H22.0203C20.3769 14.1035 19.0635 15.4129 19.0635 16.985V68.4642C19.0635 70.0384 20.3769 71.0199 21.9551 71.0199H29.5752V81.3035L39.0361 71.085H73.5932C75.1694 71.085 76.155 70.1035 76.155 68.4663V17.0501C76.155 15.4781 75.1694 14.1687 73.5281 14.1687L73.5891 14.1035H73.5912ZM64.9224 55.8245C64.2455 57.0133 63.2724 58.0067 62.0979 58.708C60.8497 59.492 59.471 60.2149 57.8929 60.5408C56.3167 60.9338 54.6082 61.2616 52.8345 61.2616H29.5752V24.5826H55.9868C57.3003 24.5826 58.4162 24.8453 59.469 25.4338C60.4526 25.9592 61.373 26.6781 62.0959 27.5313C63.5673 29.3189 64.3587 31.5696 64.3298 33.8848C64.3298 35.5872 63.8696 37.2244 63.0143 38.7965C62.128 40.3787 60.7423 41.6226 59.074 42.3336C61.1755 42.9221 62.8188 43.9709 64.0651 45.4757C65.2482 47.0478 65.8408 49.0801 65.8408 51.6337C65.8408 53.2709 65.5109 54.6475 64.8552 55.8245H64.9203H64.9224Z" fill="#0AB3AF"/>
<defs>
<radialGradient id="paint0_radial_1024_11642" cx="0" cy="0" r="1" gradientUnits="userSpaceOnUse" gradientTransform="translate(47.288 47.7041) rotate(90) scale(47.04)">
<stop stop-color="#333944"/>
<stop offset="1" stop-color="#222428"/>
</radialGradient>
</defs>
</svg>
