<svg width="95" height="96" viewBox="0 0 95 96" fill="none" xmlns="http://www.w3.org/2000/svg">
<rect x="1.34387" y="1.62512" width="92.736" height="92.736" rx="13.44" fill="url(#paint0_radial_1024_11623)"/>
<rect x="1.34387" y="1.62512" width="92.736" height="92.736" rx="13.44" stroke="#6886C3" stroke-width="1.344"/>
<g clip-path="url(#clip0_1024_11623)">
<path d="M48.2397 52.4199C48.2397 53.8035 47.2105 54.946 45.876 55.1254C44.294 58.8132 41.0718 62.4111 36.6571 64.9599C32.9519 67.0991 29.0255 68.1429 25.5035 68.1429C21.0243 68.1429 17.199 66.4553 15.3116 63.1863C12.2464 57.8773 15.2331 50.4696 22.3118 45.464C22.3121 46.6075 22.4015 47.6559 22.6019 48.5862C22.0307 49.0678 21.5115 49.4802 21.0049 50.0114C19.7014 51.3779 18.6593 52.7937 17.9463 54.3055C16.6164 57.1253 16.5265 59.7908 17.6931 61.8113C19.0073 64.0875 21.8541 65.393 25.5035 65.393C28.6657 65.393 32.1385 64.3935 35.2822 62.5785C37.1128 61.5216 38.7404 60.2524 40.1202 58.8059C41.4237 57.4393 42.4461 55.9798 43.1592 54.468C43.2213 54.3362 43.2799 54.205 43.3364 54.0741C42.9863 53.615 42.7779 53.0419 42.7779 52.4199C42.7779 50.9117 44.0006 49.6891 45.5088 49.6891C47.017 49.6891 48.2397 50.9117 48.2397 52.4199ZM36.0525 27.1602C42.1496 27.1602 47.2029 33.6028 48.1146 42.023C47.1636 41.4515 46.1679 40.9752 45.1253 40.5989C45.001 39.9481 44.8469 39.3089 44.6633 38.6831C44.1315 36.8709 43.3788 35.2557 42.426 33.8822C40.6491 31.3207 38.3855 29.91 36.0525 29.91C33.7195 29.91 31.4559 31.3207 29.679 33.8822C28.7261 35.2557 27.9734 36.8709 27.4417 38.6831C26.8789 40.6012 26.5935 42.6455 26.5935 44.7592C26.5935 46.8729 26.8789 48.9171 27.4417 50.8352C27.9734 52.6473 28.7261 54.2626 29.679 55.6361C29.7777 55.7783 29.878 55.9169 29.9796 56.0519C30.1424 56.0217 30.31 56.0052 30.4814 56.0052C31.9897 56.0052 33.2123 57.2279 33.2123 58.736C33.2123 60.2442 31.9897 61.4669 30.4814 61.4669C28.9733 61.4669 27.7506 60.2442 27.7506 58.736C27.7506 58.4272 27.8026 58.1307 27.8971 57.8539C25.4092 54.6321 23.8437 49.9596 23.8437 44.7592C23.8437 35.0395 29.3097 27.1602 36.0525 27.1602ZM46.5753 65.3925C49.9241 65.3925 52.5971 64.2933 54.0301 62.3534C54.8633 62.7937 55.7894 63.0616 56.767 63.1974C54.8688 66.4301 51.0289 68.1424 46.5753 68.1424C43.8213 68.1424 40.8209 67.5044 37.8717 66.2036C39.0193 65.5698 40.0361 64.9574 40.7892 64.3879C42.7385 65.045 44.7108 65.3925 46.5753 65.3925ZM51.0934 49.9671C49.7137 48.5206 48.086 47.2514 46.2556 46.1945C43.1119 44.3795 39.6393 43.3799 36.4777 43.3799H36.4773C35.7864 43.38 35.1242 43.4268 34.4957 43.5181C34.4798 43.5204 34.4643 43.5234 34.4484 43.5258C34.1629 44.7289 33.0823 45.6241 31.7919 45.6241C30.2837 45.6241 29.0611 44.4015 29.0611 42.8933C29.0611 41.3851 30.2837 40.1624 31.7919 40.1624C32.5001 40.1624 33.1452 40.432 33.6305 40.8741C33.6342 40.8735 33.6378 40.8726 33.6416 40.8719C34.5463 40.7111 35.4959 40.6301 36.4768 40.63C39.9991 40.6298 43.9247 41.6735 47.6304 43.8131C53.7272 47.3331 57.5542 52.8537 57.9198 57.8491C56.8125 57.7245 55.8756 57.3571 55.0142 56.8819C54.841 56.0479 54.5469 55.184 54.1325 54.305C53.4194 52.7931 52.397 51.3336 51.0934 49.9671Z" fill="#999999"/>
<path d="M78.9537 45.8182C80.1634 47.64 77.7001 49.065 76.5968 47.2332C75.9243 46.0853 74.8928 45.0116 73.5406 44.0736C72.1671 43.1208 70.5519 42.3681 68.7398 41.8364C66.8217 41.2735 64.7774 40.9882 62.6638 40.9882C60.5501 40.9882 58.5058 41.2735 56.5877 41.8364C56.2576 41.9333 55.9348 42.0383 55.6181 42.1497C55.5789 43.6236 54.3726 44.8067 52.8891 44.8067C51.381 44.8067 50.1582 43.5841 50.1582 42.0759C50.1582 40.5677 51.381 39.345 52.8891 39.345C53.3909 39.345 53.8607 39.4811 54.2648 39.7172C56.7612 38.7749 59.6218 38.2383 62.6638 38.2383C70.0216 38.2383 76.3249 41.3708 78.9537 45.8182ZM81.2496 52.4189C81.2496 53.7883 80.2417 54.9219 78.9275 55.1192C76.2834 59.5436 69.9977 62.656 62.6637 62.656C56.9365 62.656 51.8483 60.7581 48.6346 57.8196C47.08 56.2569 48.9513 54.4413 50.4011 55.7097C50.8164 56.097 51.2789 56.4684 51.7868 56.8207C53.1603 57.7735 54.7755 58.5262 56.5876 59.058C58.5058 59.6207 60.55 59.9061 62.6637 59.9061C64.7774 59.9061 66.8217 59.6207 68.7398 59.058C70.5519 58.5262 72.1672 57.7735 73.5406 56.8207C74.7322 55.994 75.6739 55.0619 76.3413 54.0666C75.9942 53.6086 75.7879 53.038 75.7879 52.4189C75.7879 50.9107 77.0105 49.6881 78.5188 49.6881C80.0269 49.6881 81.2496 50.9107 81.2496 52.4189Z" fill="#89D96D"/>
</g>
<defs>
<radialGradient id="paint0_radial_1024_11623" cx="0" cy="0" r="1" gradientUnits="userSpaceOnUse" gradientTransform="translate(47.7119 47.9931) rotate(90) scale(47.04)">
<stop stop-color="#333944"/>
<stop offset="1" stop-color="#222428"/>
</radialGradient>
<clipPath id="clip0_1024_11623">
<rect width="67.2" height="41.2125" fill="white" transform="translate(14.1123 27.1582)"/>
</clipPath>
</defs>
</svg>
