<svg width="95" height="95" viewBox="0 0 95 95" fill="none" xmlns="http://www.w3.org/2000/svg">
<rect x="1.49622" y="0.929812" width="92.736" height="92.736" rx="13.44" fill="url(#paint0_radial_1024_11451)"/>
<rect x="1.49622" y="0.929812" width="92.736" height="92.736" rx="13.44" stroke="#6886C3" stroke-width="1.344"/>
<g clip-path="url(#clip0_1024_11451)">
<path d="M80.8546 58.8742L66.5252 34.8922C65.8681 33.7899 64.2489 32.8881 62.9268 32.8881H53.9808C51.9015 32.8881 51.0491 31.4714 52.0862 29.7398L56.9922 21.5506C57.3815 20.9007 57.3806 20.1006 56.9901 19.4514C56.5995 18.8022 55.8782 18.4023 55.0977 18.4023H42.6178C41.2956 18.4023 39.673 19.3021 39.0115 20.4019L14.7611 60.7211C14.0995 61.8209 14.0992 63.6206 14.7601 64.7206L20.9999 75.1056C22.0397 76.8357 23.7447 76.8378 24.7888 75.1099L29.6644 67.0422C30.7087 65.3143 32.4134 65.3162 33.4533 67.0465L37.8734 74.4032C38.5344 75.5032 40.1567 76.4031 41.4788 76.4031H70.3171C71.6386 76.4031 73.2614 75.5032 73.9223 74.4032L80.8473 62.8784C81.5082 61.7784 81.5114 59.9766 80.8546 58.8742ZM61.5025 57.72C62.5358 59.4537 61.6799 60.8724 59.6006 60.8724H37.1691C35.0899 60.8724 34.2392 59.4567 35.2789 57.7264L46.5032 39.0461C47.5429 37.3158 49.2441 37.316 50.2838 39.0463L61.5025 57.72Z" fill="white"/>
</g>
<defs>
<radialGradient id="paint0_radial_1024_11451" cx="0" cy="0" r="1" gradientUnits="userSpaceOnUse" gradientTransform="translate(47.8642 47.2978) rotate(90) scale(47.04)">
<stop stop-color="#333944"/>
<stop offset="1" stop-color="#222428"/>
</radialGradient>
<clipPath id="clip0_1024_11451">
<rect width="67.2" height="58.0022" fill="white" transform="translate(14.2646 18.4023)"/>
</clipPath>
</defs>
</svg>
