<svg width="95" height="95" viewBox="0 0 95 95" fill="none" xmlns="http://www.w3.org/2000/svg">
<rect x="0.920047" y="1.48841" width="92.736" height="92.736" rx="13.44" fill="url(#paint0_radial_1024_11558)"/>
<rect x="0.920047" y="1.48841" width="92.736" height="92.736" rx="13.44" stroke="#6886C3" stroke-width="1.344"/>
<path d="M25.5874 14.9277H68.9896C75.568 14.9277 80.8885 20.2482 80.8885 26.8266V68.5515C80.8885 75.1299 75.568 80.4504 68.9896 80.4504H25.5874C19.0089 80.4504 13.6885 75.1299 13.6885 68.5515V26.8266C13.6885 20.2482 19.0089 14.9277 25.5874 14.9277Z" fill="#001E36"/>
<path d="M48.9649 61.2381H31.2213C30.9068 61.2381 30.7758 61.0808 30.7758 60.7401V32.1198C30.7496 31.9363 30.8806 31.7529 31.0903 31.7267C31.1165 31.7267 31.1427 31.7267 31.1951 31.7267H36.6728C36.8039 31.7005 36.9873 31.8053 36.9873 31.9626C36.9873 31.9888 36.9873 32.015 36.9873 32.0412V55.5507H49.9346C50.2229 55.5507 50.3015 55.6817 50.2491 55.9438L49.4366 60.8187C49.4366 60.9498 49.358 61.0808 49.2794 61.1594C49.1745 61.2118 49.0697 61.2381 48.9649 61.2381Z" fill="#31A8FF"/>
<path d="M53.4465 38.8317H58.3476C58.6359 38.8317 58.8455 39.0151 58.9242 39.2772C59.029 39.4607 59.1076 39.6966 59.1601 39.9324C59.2125 40.2207 59.2649 40.509 59.2911 40.7973C59.3173 41.1118 59.3435 41.4526 59.3435 41.7933C60.1822 40.8236 61.2044 40.0111 62.3314 39.3821C63.6156 38.6744 65.0571 38.3337 66.4986 38.3861C66.6821 38.3599 66.8655 38.4909 66.8917 38.7006C66.8917 38.7268 66.8917 38.753 66.8917 38.8055V44.2831C66.8917 44.519 66.7607 44.5977 66.4462 44.5977C64.6377 44.4928 62.8031 44.8335 61.1519 45.5412C60.6016 45.8033 60.0512 46.1178 59.6318 46.5895V60.8735C59.6318 61.1618 59.527 61.2666 59.2649 61.2666H53.8134C53.5775 61.2928 53.3941 61.1618 53.3679 60.9259C53.3679 60.8997 53.3679 60.8473 53.3679 60.8211V45.3053C53.3679 44.6239 53.3679 43.9424 53.3416 43.2086C53.3154 42.4747 53.3154 41.7409 53.2892 41.0332C53.263 40.4042 53.2106 39.8014 53.132 39.1724C53.1058 39.0413 53.1844 38.8841 53.3154 38.8579C53.3679 38.8055 53.3941 38.8055 53.4465 38.8317Z" fill="#31A8FF"/>
<defs>
<radialGradient id="paint0_radial_1024_11558" cx="0" cy="0" r="1" gradientUnits="userSpaceOnUse" gradientTransform="translate(47.288 47.8564) rotate(90) scale(47.04)">
<stop stop-color="#333944"/>
<stop offset="1" stop-color="#222428"/>
</radialGradient>
</defs>
</svg>
