<svg width="95" height="95" viewBox="0 0 95 95" fill="none" xmlns="http://www.w3.org/2000/svg">
<rect x="1.22473" y="0.777469" width="92.736" height="92.736" rx="13.44" fill="url(#paint0_radial_1024_11529)"/>
<rect x="1.22473" y="0.777469" width="92.736" height="92.736" rx="13.44" stroke="#6886C3" stroke-width="1.344"/>
<path d="M27.2981 55.307L68.2967 41.617C67.4775 36.4922 66.8936 33.0687 66.2173 30.4559C65.4885 27.6456 64.9109 26.8937 64.6841 26.6333C63.8936 25.7285 62.9094 25.0134 61.8045 24.5413C61.4853 24.4048 60.5905 24.0877 57.6963 24.262C54.634 24.4468 50.6139 25.0727 44.2478 26.0809C37.8838 27.089 33.8659 27.738 30.8981 28.5068C28.09 29.2356 27.3359 29.8153 27.0755 30.0421C26.1723 30.8339 25.4582 31.8169 24.9857 32.9217C24.8491 33.2409 24.532 34.1357 24.7063 37.032C24.8911 40.0943 25.517 44.1164 26.5252 50.4826C26.8066 52.2678 27.0608 53.8641 27.2981 55.307Z" fill="url(#paint1_linear_1024_11529)"/>
<path fill-rule="evenodd" clip-rule="evenodd" d="M15.9941 52.1489C14.045 39.8325 13.0684 33.6744 15.1813 28.7302C16.2828 26.1515 17.9512 23.8543 20.0625 22.0091C24.1098 18.4742 30.2659 17.4997 42.5781 15.5485C54.8944 13.5952 61.0526 12.6206 65.9968 14.7335C68.574 15.8353 70.8698 17.5037 72.7137 19.6147C76.2507 23.6642 77.2252 29.8223 79.1743 42.1408C81.1255 54.4572 82.1001 60.6175 79.9871 65.5595C78.8864 68.138 77.2188 70.4353 75.1081 72.2806C71.0607 75.8176 64.9025 76.7921 52.5883 78.7433C40.2761 80.6946 34.1179 81.6691 29.1758 79.5562C26.5987 78.4543 24.3029 76.7859 22.459 74.675C18.922 70.6255 17.9454 64.4674 15.9941 52.1489ZM37.7137 74.0218C41.0112 73.8223 45.2581 73.1565 51.5444 72.1609C57.8328 71.1653 62.0734 70.4848 65.2743 69.6552C68.3723 68.8508 69.8005 68.0673 70.7226 67.2608C72.0791 66.0745 73.1509 64.5978 73.8584 62.9404C74.3414 61.8146 74.646 60.2142 74.4528 57.0175C74.2532 53.72 73.5874 49.471 72.5919 43.1826C71.5963 36.8942 70.9179 32.6494 70.0883 29.4506C69.2838 26.3505 68.4983 24.9223 67.6939 24.0002C66.5085 22.6431 65.0325 21.5706 63.3756 20.8623C62.2498 20.3792 60.6494 20.0747 57.4527 20.2679C54.1551 20.4675 49.9104 21.1333 43.624 22.1288C37.3356 23.1265 33.093 23.8049 29.8942 24.6345C26.7941 25.4389 25.3679 26.2245 24.4459 27.0289C23.0886 28.215 22.0161 29.6917 21.308 31.3493C20.827 32.4751 20.5225 34.0755 20.7157 37.2722C20.9152 40.5719 21.5789 44.8187 22.5766 51.1071C23.5722 57.3955 24.2506 61.6403 25.0802 64.8391C25.8846 67.9392 26.668 69.3675 27.4746 70.2895C28.66 71.6465 30.136 72.7191 31.7929 73.4274C32.9186 73.9105 34.5149 74.215 37.7137 74.0218Z" fill="url(#paint2_linear_1024_11529)"/>
<defs>
<radialGradient id="paint0_radial_1024_11529" cx="0" cy="0" r="1" gradientUnits="userSpaceOnUse" gradientTransform="translate(47.5927 47.1455) rotate(90) scale(47.04)">
<stop stop-color="#333944"/>
<stop offset="1" stop-color="#222428"/>
</radialGradient>
<linearGradient id="paint1_linear_1024_11529" x1="40.3097" y1="13.5461" x2="50.9773" y2="80.196" gradientUnits="userSpaceOnUse">
<stop stop-color="#66E3FF"/>
<stop offset="1" stop-color="#7064F9"/>
</linearGradient>
<linearGradient id="paint2_linear_1024_11529" x1="40.3097" y1="13.5447" x2="50.9773" y2="80.1947" gradientUnits="userSpaceOnUse">
<stop stop-color="#66E3FF"/>
<stop offset="1" stop-color="#7064F9"/>
</linearGradient>
</defs>
</svg>
