<svg width="95" height="96" viewBox="0 0 95 96" fill="none" xmlns="http://www.w3.org/2000/svg">
<rect x="1.22473" y="1.62512" width="92.736" height="92.736" rx="13.44" fill="url(#paint0_radial_1024_11613)"/>
<rect x="1.22473" y="1.62512" width="92.736" height="92.736" rx="13.44" stroke="#6886C3" stroke-width="1.344"/>
<path d="M71.6407 81.5903L59.5743 69.5922L59.39 69.6186V69.487L33.7292 44.149L40.0522 38.0447L36.3375 16.7324L18.7122 38.571C15.7087 41.5968 15.1555 46.5171 17.3158 50.148L28.3283 68.4083C30.0145 71.2236 33.0705 72.9075 36.3638 72.8812L41.8174 72.8285L71.6407 81.5903Z" fill="#18B6F6"/>
<path d="M78.227 38.1521L75.8031 33.6792L74.5385 31.3901L74.038 30.4955L73.9853 30.5482L67.3461 19.05C65.6864 16.1557 62.5776 14.3666 59.2053 14.3929L53.3829 14.5507L36.021 14.6033C32.7279 14.6297 29.7245 16.3662 28.0646 19.1816L17.5 40.1255L36.3899 16.682L61.1549 43.888L56.7551 48.3347L59.3897 69.6207L59.416 69.568V69.6207H59.3634L59.416 69.6733L61.471 71.673L71.4561 81.4345C71.8777 81.8292 72.5627 81.3557 72.2728 80.8557L66.108 68.7261L76.857 48.861L77.1994 48.4663C77.3311 48.3083 77.4628 48.1506 77.5683 47.9927C79.676 45.1246 79.9658 41.2832 78.227 38.1521Z" fill="#AC7EF4"/>
<path d="M61.2334 43.7835L36.3893 16.709L39.9197 37.9161L33.5967 44.0467L59.3365 69.5952L57.0181 48.388L61.2334 43.7835Z" fill="white"/>
<defs>
<radialGradient id="paint0_radial_1024_11613" cx="0" cy="0" r="1" gradientUnits="userSpaceOnUse" gradientTransform="translate(47.5927 47.9931) rotate(90) scale(47.04)">
<stop stop-color="#333944"/>
<stop offset="1" stop-color="#222428"/>
</radialGradient>
</defs>
</svg>
