<svg width="95" height="95" viewBox="0 0 95 95" fill="none" xmlns="http://www.w3.org/2000/svg">
<rect x="1.34387" y="1.33606" width="92.736" height="92.736" rx="13.44" fill="url(#paint0_radial_1024_11644)"/>
<rect x="1.34387" y="1.33606" width="92.736" height="92.736" rx="13.44" stroke="#6886C3" stroke-width="1.344"/>
<path d="M16.0888 14.1016C14.9972 14.1016 14.1123 14.9865 14.1123 16.078V32.1972C14.1123 33.1807 14.1123 33.6724 14.3061 33.9344C14.4792 34.1684 14.7272 34.3068 15.0172 34.3313C15.3419 34.3589 15.7722 34.0934 16.6327 33.5628C25.6698 27.9898 36.3156 24.7745 47.7123 24.7745C59.1089 24.7745 69.7547 27.9898 78.7918 33.5628C79.6524 34.0934 80.0826 34.3589 80.4074 34.3313C80.6974 34.3068 80.9453 34.1684 81.1185 33.9344C81.3122 33.6724 81.3122 33.1807 81.3122 32.1972V16.078C81.3122 14.9865 80.4273 14.1016 79.3358 14.1016H16.0888Z" fill="#E76057"/>
<path d="M21.2276 81.3023C21.7811 81.3023 22.0578 81.3023 22.2692 81.1945C22.4551 81.0998 22.6063 80.9487 22.7011 80.7626C22.8088 80.5513 22.8088 80.2746 22.8088 79.721V43.6669C22.8088 42.7777 22.8088 42.333 22.6102 42.069C22.4417 41.8451 22.1649 41.6955 21.8853 41.6771C21.5558 41.6555 21.1954 41.8913 20.4748 42.3628C18.4155 43.7105 16.4621 45.2065 14.6298 46.8357C14.4432 47.0016 14.3499 47.0846 14.2798 47.1891C14.2188 47.2801 14.1713 47.3859 14.1438 47.492C14.1123 47.6137 14.1123 47.7422 14.1123 47.9991V79.3258C14.1123 80.4173 14.9972 81.3023 16.0888 81.3023H21.2276Z" fill="#E76057"/>
<path d="M35.8536 81.3018C36.407 81.3018 36.6838 81.3018 36.8952 81.1941C37.0812 81.0993 37.2324 80.9482 37.3271 80.7622C37.4347 80.5509 37.4347 80.2741 37.4347 79.7206V37.2707C37.4347 36.6069 37.4347 36.2749 37.2916 36.0387C37.1688 35.8364 36.9638 35.6764 36.7375 35.6068C36.4737 35.5254 36.1615 35.6038 35.5372 35.7606C33.5483 36.2604 31.6068 36.8796 29.721 37.6105C29.3748 37.7447 29.2016 37.8118 29.0674 37.9318C28.9511 38.0359 28.8568 38.1736 28.8018 38.3197C28.7383 38.4882 28.7383 38.6794 28.7383 39.0617V79.7206C28.7383 80.2741 28.7383 80.5509 28.846 80.7622C28.9408 80.9482 29.092 81.0993 29.2779 81.1941C29.4892 81.3018 29.766 81.3018 30.3195 81.3018H35.8536Z" fill="#E76057"/>
<path d="M50.4806 81.3017C51.0341 81.3017 51.3107 81.3017 51.5222 81.1939C51.7081 81.0992 51.8593 80.9481 51.9541 80.7621C52.0618 80.5507 52.0618 80.274 52.0618 79.7205V35.8993C52.0618 35.3882 52.0618 35.1327 51.9617 34.9276C51.8752 34.7505 51.7291 34.5957 51.5571 34.4993C51.3581 34.3875 51.1105 34.3733 50.6152 34.3448C49.655 34.2897 48.6876 34.2617 47.7135 34.2617C46.7395 34.2617 45.772 34.2897 44.8118 34.3448C44.3166 34.3733 44.0689 34.3875 43.8699 34.4993C43.698 34.5957 43.5518 34.7505 43.4654 34.9276C43.3652 35.1327 43.3652 35.3882 43.3652 35.8993V79.7205C43.3652 80.274 43.3652 80.5507 43.473 80.7621C43.5677 80.9481 43.7189 81.0992 43.9049 81.1939C44.1163 81.3017 44.3929 81.3017 44.9464 81.3017H50.4806Z" fill="#E76057"/>
<path d="M65.1065 81.3018C65.66 81.3018 65.9367 81.3018 66.1481 81.1941C66.334 81.0993 66.4852 80.9482 66.5799 80.7622C66.6877 80.5509 66.6877 80.2741 66.6877 79.7206V39.0617C66.6877 38.6794 66.6877 38.4882 66.6242 38.3197C66.5691 38.1736 66.4749 38.0359 66.3585 37.9318C66.2243 37.8118 66.0512 37.7447 65.705 37.6105C63.8191 36.8796 61.8776 36.2604 59.8887 35.7606C59.2644 35.6038 58.9523 35.5254 58.6884 35.6068C58.4622 35.6764 58.2571 35.8364 58.1343 36.0387C57.9912 36.2749 57.9912 36.6069 57.9912 37.2707V79.7206C57.9912 80.2741 57.9912 80.5509 58.0988 80.7622C58.1936 80.9482 58.3448 81.0993 58.5307 81.1941C58.7422 81.3018 59.0189 81.3018 59.5723 81.3018H65.1065Z" fill="#E76057"/>
<path d="M81.3136 47.9991C81.3136 47.7422 81.3136 47.6137 81.2822 47.492C81.2546 47.3859 81.2072 47.2801 81.1461 47.1891C81.0761 47.0846 80.9828 47.0016 80.7962 46.8357C78.9639 45.2065 77.0104 43.7105 74.9512 42.3628C74.2305 41.8913 73.8702 41.6555 73.5406 41.6771C73.2611 41.6955 72.9842 41.8451 72.8158 42.069C72.6172 42.333 72.6172 42.7777 72.6172 43.6669V79.721C72.6172 80.2746 72.6172 80.5513 72.7249 80.7626C72.8197 80.9487 72.9708 81.0998 73.1568 81.1945C73.3681 81.3023 73.6449 81.3023 74.1984 81.3023H79.3372C80.4287 81.3023 81.3136 80.4173 81.3136 79.3258V47.9991Z" fill="#E76057"/>
<defs>
<radialGradient id="paint0_radial_1024_11644" cx="0" cy="0" r="1" gradientUnits="userSpaceOnUse" gradientTransform="translate(47.7119 47.7041) rotate(90) scale(47.04)">
<stop stop-color="#333944"/>
<stop offset="1" stop-color="#222428"/>
</radialGradient>
</defs>
</svg>
