<svg width="95" height="95" viewBox="0 0 95 95" fill="none" xmlns="http://www.w3.org/2000/svg">
<rect x="1.22473" y="1.21497" width="92.736" height="92.736" rx="13.44" fill="url(#paint0_radial_1024_11424)"/>
<rect x="1.22473" y="1.21497" width="92.736" height="92.736" rx="13.44" stroke="#6886C3" stroke-width="1.344"/>
<path d="M25.8932 14.6543H69.2932C75.8732 14.6543 81.1932 19.9743 81.1932 26.5543V68.2743C81.1932 74.8543 75.8732 80.1743 69.2932 80.1743H25.8932C19.3132 80.1743 13.9932 74.8543 13.9932 68.2743V26.5543C13.9932 19.9743 19.3132 14.6543 25.8932 14.6543Z" fill="#00005B"/>
<path d="M40.9853 53.8538H30.5693L28.4413 60.4618C28.3853 60.7138 28.1613 60.8818 27.9093 60.8538H22.6453C22.3373 60.8538 22.2533 60.6858 22.3373 60.3498L31.3533 34.5058C31.4373 34.2258 31.5213 33.9738 31.6333 33.6378C31.7453 33.0498 31.8013 32.4338 31.8013 31.8178C31.7733 31.6778 31.8853 31.5378 32.0253 31.5098H32.1093H39.2773C39.4733 31.5098 39.6133 31.5938 39.6413 31.7338L49.8613 60.2938C49.9453 60.6018 49.8613 60.7418 49.5813 60.7418H43.7293C43.5333 60.7698 43.3373 60.6298 43.2813 60.4338L40.9853 53.7138V53.8538ZM32.1933 48.2818H39.3053C39.1373 47.6938 38.9133 46.9938 38.6613 46.2658C38.4093 45.5098 38.1573 44.6978 37.9053 43.8578C37.6253 42.9898 37.3733 42.1498 37.0933 41.2818C36.8133 40.4138 36.5613 39.6018 36.3373 38.7898C36.1133 38.0058 35.9173 37.2778 35.7213 36.6058H35.6653C35.4133 37.8098 35.1053 39.0138 34.7133 40.2178C34.2933 41.5618 33.8733 42.9618 33.4253 44.3618C33.0613 45.7898 32.6133 47.1058 32.1933 48.2818Z" fill="#9999FF"/>
<path d="M66.3534 51.3357H57.4774C57.5894 52.2037 57.8694 53.0717 58.3454 53.8277C58.8494 54.5837 59.5494 55.1717 60.3894 55.5077C61.5094 55.9837 62.7414 56.2357 63.9734 56.2077C64.9534 56.1797 65.9334 56.0957 66.8854 55.8997C67.7534 55.7877 68.5934 55.5637 69.3774 55.2557C69.5174 55.1437 69.6014 55.1997 69.6014 55.4797V59.7637C69.6014 59.8757 69.5734 59.9877 69.5454 60.0997C69.4894 60.1837 69.4334 60.2397 69.3494 60.2957C68.4534 60.6877 67.5294 60.9677 66.5494 61.1357C65.2334 61.3877 63.9174 61.4997 62.5734 61.4717C60.4454 61.4717 58.6534 61.1357 57.1974 60.4917C55.8254 59.9037 54.6214 58.9797 53.6694 57.8317C52.7734 56.7397 52.1294 55.5077 51.7374 54.1637C51.3454 52.8477 51.1494 51.4757 51.1494 50.0757C51.1494 48.5637 51.3734 47.0797 51.8494 45.6237C52.2974 44.2237 52.9974 42.9357 53.9494 41.7877C54.8734 40.6677 56.0214 39.7717 57.3374 39.1277C58.6534 38.4837 60.2214 38.2597 62.0134 38.2597C63.4974 38.2317 64.9814 38.5117 66.3534 39.1277C67.5014 39.6317 68.5094 40.3877 69.2934 41.3677C70.0214 42.3197 70.6094 43.3837 70.9734 44.5597C71.3374 45.6797 71.5054 46.8277 71.5054 47.9757C71.5054 48.6477 71.4774 49.2357 71.4494 49.7677C71.3934 50.2997 71.3654 50.6917 71.3374 50.9437C71.3094 51.1397 71.1414 51.3077 70.9454 51.3077C70.7774 51.3077 70.4694 51.3357 70.0214 51.3637C69.5734 51.4197 69.0414 51.4477 68.3974 51.4477C67.7534 51.4477 67.0814 51.3357 66.3534 51.3357ZM57.4774 47.2477H63.3854C64.1134 47.2477 64.6454 47.2477 64.9814 47.2197C65.2054 47.1917 65.4294 47.1357 65.6254 46.9957V46.7157C65.6254 46.3517 65.5694 46.0157 65.4574 45.6797C64.9534 44.1117 63.4694 43.0477 61.8174 43.1037C60.2774 43.0197 58.8214 43.8317 58.0934 45.2317C57.7574 45.8757 57.5614 46.5477 57.4774 47.2477Z" fill="#9999FF"/>
<defs>
<radialGradient id="paint0_radial_1024_11424" cx="0" cy="0" r="1" gradientUnits="userSpaceOnUse" gradientTransform="translate(47.5927 47.583) rotate(90) scale(47.04)">
<stop stop-color="#333944"/>
<stop offset="1" stop-color="#222428"/>
</radialGradient>
</defs>
</svg>
