<svg width="95" height="96" viewBox="0 0 95 96" fill="none" xmlns="http://www.w3.org/2000/svg">
<rect x="1.49622" y="1.64075" width="92.736" height="92.736" rx="13.44" fill="url(#paint0_radial_1024_11472)"/>
<rect x="1.49622" y="1.64075" width="92.736" height="92.736" rx="13.44" stroke="#6886C3" stroke-width="1.344"/>
<g clip-path="url(#clip0_1024_11472)">
<path d="M47.8646 48.0091L62.4142 56.4089L47.8646 81.6089C66.4214 81.6089 81.4645 66.5658 81.4645 48.0091C81.4645 41.8872 79.8192 36.1527 76.9584 31.209H47.8643L47.8646 48.0091Z" fill="url(#paint1_linear_1024_11472)"/>
<path d="M47.8657 14.4082C35.4293 14.4082 24.5794 21.1695 18.7695 31.2123L33.3161 56.4083L47.8657 48.0084V31.2083H76.9598C71.1489 21.168 60.3005 14.4082 47.8657 14.4082Z" fill="url(#paint2_linear_1024_11472)"/>
<path d="M14.2648 48.011C14.2648 66.5677 29.3075 81.6107 47.8647 81.6107L62.4143 56.4108L47.8647 48.011L33.3152 56.4108L18.7686 31.2148C15.9094 36.1572 14.2646 41.8896 14.2646 48.0105" fill="url(#paint3_linear_1024_11472)"/>
<path d="M64.6648 48.0091C64.6648 57.2874 57.143 64.8092 47.8646 64.8092C38.5863 64.8092 31.0645 57.2874 31.0645 48.0091C31.0645 38.7308 38.5863 31.209 47.8646 31.209C57.143 31.209 64.6648 38.7308 64.6648 48.0091Z" fill="white"/>
<path d="M61.5152 48.0095C61.5152 55.5482 55.4037 61.6596 47.865 61.6596C40.3264 61.6596 34.2148 55.5482 34.2148 48.0095C34.2148 40.4709 40.3264 34.3594 47.865 34.3594C55.4037 34.3594 61.5152 40.4709 61.5152 48.0095Z" fill="url(#paint4_linear_1024_11472)"/>
</g>
<defs>
<radialGradient id="paint0_radial_1024_11472" cx="0" cy="0" r="1" gradientUnits="userSpaceOnUse" gradientTransform="translate(47.8642 48.0088) rotate(90) scale(47.04)">
<stop stop-color="#333944"/>
<stop offset="1" stop-color="#222428"/>
</radialGradient>
<linearGradient id="paint1_linear_1024_11472" x1="64.7361" y1="31.1396" x2="64.6644" y2="81.6089" gradientUnits="userSpaceOnUse">
<stop stop-color="#AFCCFB"/>
<stop offset="1" stop-color="#8BB5F8"/>
</linearGradient>
<linearGradient id="paint2_linear_1024_11472" x1="42.9929" y1="14.9201" x2="45.77" y2="60.0728" gradientUnits="userSpaceOnUse">
<stop stop-color="#1972E7"/>
<stop offset="1" stop-color="#1969D5"/>
</linearGradient>
<linearGradient id="paint3_linear_1024_11472" x1="38.3395" y1="31.2148" x2="38.3395" y2="81.6108" gradientUnits="userSpaceOnUse">
<stop stop-color="#659CF6"/>
<stop offset="1" stop-color="#4285F4"/>
</linearGradient>
<linearGradient id="paint4_linear_1024_11472" x1="47.7258" y1="34.4113" x2="47.865" y2="61.6596" gradientUnits="userSpaceOnUse">
<stop stop-color="#3680F0"/>
<stop offset="1" stop-color="#2678EC"/>
</linearGradient>
<clipPath id="clip0_1024_11472">
<rect width="67.2" height="67.2" fill="white" transform="translate(14.2646 14.4082)"/>
</clipPath>
</defs>
</svg>
