<svg width="95" height="95" viewBox="0 0 95 95" fill="none" xmlns="http://www.w3.org/2000/svg">
<rect x="1.36048" y="1.21497" width="92.736" height="92.736" rx="13.44" fill="url(#paint0_radial_1024_11427)"/>
<rect x="1.36048" y="1.21497" width="92.736" height="92.736" rx="13.44" stroke="#6886C3" stroke-width="1.344"/>
<g clip-path="url(#clip0_1024_11427)">
<path fill-rule="evenodd" clip-rule="evenodd" d="M81.3284 20.5449C81.3284 16.9229 78.3879 13.9824 74.7659 13.9824H20.6914C17.0694 13.9824 14.1289 16.9229 14.1289 20.5449V74.6199C14.1289 78.2419 17.0694 81.1824 20.6914 81.1824H74.7659C78.3879 81.1824 81.3284 78.2419 81.3284 74.6199L81.3284 20.5449Z" fill="#4E3188"/>
<path fill-rule="evenodd" clip-rule="evenodd" d="M76.409 56.6444V73.6355C76.409 75.0668 75.2612 76.2321 73.8365 76.26L56.4839 76.26L45.1544 56.6444H76.409ZM53.9022 76.26H23.2042L38.5617 49.7006L53.9022 76.26ZM20.7393 76.0874C19.8107 75.7314 19.1354 74.8634 19.06 73.8301L19.0527 62.1185L31.5326 40.5114H41.2871L20.7393 76.0874ZM50.2082 40.471C51.058 40.4746 51.8711 40.9738 52.3102 41.7136C52.3148 41.7211 52.3233 41.7362 52.3233 41.7362L54.9024 46.2021L54.9247 46.2391C55.346 46.9764 55.3624 47.9053 54.9411 48.6559C54.0768 50.168 53.1987 51.6729 52.3272 53.1814C51.8994 53.915 51.0896 54.3937 50.2286 54.4044C48.586 54.4113 45.2922 54.4075 45.2876 54.4075C44.4378 54.4039 43.6116 53.9508 43.1719 53.2109C43.1621 53.1949 43.1437 53.1622 43.1437 53.1622C43.1437 53.1622 40.5633 48.6958 40.558 48.6854C40.1361 47.9482 40.1367 46.9958 40.558 46.2452C40.564 46.2342 40.5771 46.2121 40.5771 46.2121C40.5771 46.2121 42.3037 43.2171 43.168 41.7196C43.5958 40.986 44.4076 40.4813 45.268 40.4705C45.2824 40.4704 45.3113 40.4698 45.3113 40.4698L50.1787 40.471H50.2082ZM74.6299 19.0438L54.2041 54.4075H76.409V21.5293C76.409 20.3765 75.6641 19.3963 74.6299 19.0438ZM44.0126 18.9043H72.1283L56.923 45.2302L42.8654 20.8912L44.0126 18.9043ZM50.3244 38.2762H32.8235L41.5739 23.1263L50.3244 38.2762Z" fill="url(#paint1_radial_1024_11427)"/>
</g>
<defs>
<radialGradient id="paint0_radial_1024_11427" cx="0" cy="0" r="1" gradientUnits="userSpaceOnUse" gradientTransform="translate(47.7285 47.583) rotate(90) scale(47.04)">
<stop stop-color="#333944"/>
<stop offset="1" stop-color="#222428"/>
</radialGradient>
<radialGradient id="paint1_radial_1024_11427" cx="0" cy="0" r="1" gradientUnits="userSpaceOnUse" gradientTransform="translate(62.8922 8.1248) scale(68.1352 68.1352)">
<stop stop-color="#F9A6FF"/>
<stop offset="1" stop-color="#EA73FF"/>
</radialGradient>
<clipPath id="clip0_1024_11427">
<rect width="67.2" height="67.2" fill="white" transform="translate(14.1289 13.9824)"/>
</clipPath>
</defs>
</svg>
