<svg width="95" height="95" viewBox="0 0 95 95" fill="none" xmlns="http://www.w3.org/2000/svg">
<rect x="1.04016" y="1.33606" width="92.736" height="92.736" rx="13.44" fill="url(#paint0_radial_1024_11652)"/>
<rect x="1.04016" y="1.33606" width="92.736" height="92.736" rx="13.44" stroke="#6886C3" stroke-width="1.344"/>
<path d="M28.7396 14.1035H65.9475C67.7581 14.1035 69.5161 14.3923 71.2217 14.996C73.6882 15.8885 75.9186 17.4635 77.598 19.511C79.3036 21.5585 80.4319 24.0785 80.8255 26.7035C80.9829 27.6748 81.0091 28.646 81.0091 29.6173V65.921C81.0091 67.076 80.9567 68.2573 80.7205 69.386C80.1957 71.9848 78.9624 74.426 77.1781 76.3948C75.4201 78.3635 73.111 79.8335 70.6182 80.621C69.0963 81.0935 67.5219 81.3035 65.9213 81.3035C65.2128 81.3035 28.6346 81.3035 28.0836 81.2773C25.4071 81.146 22.7569 80.2798 20.5265 78.7835C18.3486 77.3135 16.5643 75.266 15.4098 72.9035C14.4127 70.8823 13.9141 68.6248 13.9141 66.3673V29.0398C13.8616 26.8085 14.3339 24.6035 15.3048 22.6085C16.4331 20.246 18.1912 18.1723 20.3691 16.7023C22.5995 15.1798 25.2234 14.2873 27.8999 14.156C28.1623 14.1035 28.4509 14.1035 28.7396 14.1035V14.1035Z" fill="url(#paint1_linear_1024_11652)"/>
<path d="M70.4864 69.071C70.2502 68.7035 69.9878 68.336 69.6992 67.9948C69.0432 67.2073 68.2823 66.5248 67.4426 65.9473C66.393 65.2385 65.1597 64.7923 63.9002 64.7398C63.0081 64.6873 62.1159 64.8448 61.2762 65.1598C60.4366 65.4485 59.6231 65.8685 58.836 66.2885C57.9176 66.761 56.9992 67.2335 56.0283 67.6273C54.8738 68.0998 53.6667 68.4673 52.4335 68.7298C50.8853 69.0185 49.3109 69.1235 47.7628 69.0973C44.9551 69.0448 42.1475 68.6248 39.471 67.8373C37.1095 67.1285 34.8528 66.1573 32.7274 64.9235C30.8644 63.8473 29.1326 62.6135 27.5057 61.2223C26.1675 60.0673 24.9342 58.8335 23.7797 57.521C22.9925 56.6023 22.2315 55.631 21.5231 54.6335C21.2344 54.2398 20.972 53.8198 20.7359 53.3998L13.8086 45.9185V28.9873C13.8086 20.771 20.4472 14.1035 28.6603 14.1035H41.9113L51.725 24.0785C73.8713 39.146 66.7079 55.7623 66.7079 55.7623C66.7079 55.7623 73.0054 62.8498 70.4864 69.071V69.071Z" fill="url(#paint2_linear_1024_11652)"/>
<path d="M51.7779 24.0801C73.9242 39.1476 66.7607 55.7638 66.7607 55.7638C66.7607 55.7638 73.0582 62.8776 70.513 69.0988C70.513 69.0988 67.9153 64.7413 63.5595 64.7413C59.3611 64.7413 56.8946 69.0988 48.4454 69.0988C29.6316 69.0988 20.7363 53.3751 20.7363 53.3751C37.6872 64.5313 49.2589 56.6301 49.2589 56.6301C41.6231 52.1938 25.3808 30.9838 25.3808 30.9838C39.5239 43.0326 45.6378 46.2088 45.6378 46.2088C41.9905 43.1901 31.757 28.4376 31.757 28.4376C39.9438 36.7326 56.2124 48.3088 56.2124 48.3088C60.8306 35.4988 51.7779 24.0801 51.7779 24.0801Z" fill="white"/>
<defs>
<radialGradient id="paint0_radial_1024_11652" cx="0" cy="0" r="1" gradientUnits="userSpaceOnUse" gradientTransform="translate(47.4082 47.7041) rotate(90) scale(47.04)">
<stop stop-color="#333944"/>
<stop offset="1" stop-color="#222428"/>
</radialGradient>
<linearGradient id="paint1_linear_1024_11652" x1="53.7699" y1="11.7056" x2="41.0689" y2="83.7079" gradientUnits="userSpaceOnUse">
<stop stop-color="#FAAE42"/>
<stop offset="1" stop-color="#EF3E31"/>
</linearGradient>
<linearGradient id="paint2_linear_1024_11652" x1="48.0808" y1="15.1892" x2="38.7852" y2="67.8867" gradientUnits="userSpaceOnUse">
<stop stop-color="#E39F3A"/>
<stop offset="1" stop-color="#D33929"/>
</linearGradient>
</defs>
</svg>
