<svg width="95" height="95" viewBox="0 0 95 95" fill="none" xmlns="http://www.w3.org/2000/svg">
<rect x="1.47962" y="0.912234" width="92.736" height="92.736" rx="13.44" fill="url(#paint0_radial_1024_11605)"/>
<rect x="1.47962" y="0.912234" width="92.736" height="92.736" rx="13.44" stroke="#6886C3" stroke-width="1.344"/>
<path d="M63.8481 26.4805H67.0481C67.9441 26.4805 68.6481 27.1845 68.6481 28.0805C68.6481 28.9765 67.9441 29.6805 67.0481 29.6805H63.8481C62.952 29.6805 62.248 28.9765 62.248 28.0805C62.248 27.1845 62.952 26.4805 63.8481 26.4805Z" fill="#56B3B4"/>
<path d="M15.848 77.6797H31.848C32.744 77.6797 33.448 78.3837 33.448 79.2797C33.448 80.1757 32.744 80.8797 31.848 80.8797H15.848C14.952 80.8797 14.248 80.1757 14.248 79.2797C14.248 78.3837 14.952 77.6797 15.848 77.6797Z" fill="#EA5E5E"/>
<path d="M54.2474 52.0801H63.8474C64.7433 52.0801 65.4473 52.784 65.4473 53.68C65.4473 54.576 64.7433 55.2799 63.8474 55.2799H54.2474C53.3515 55.2799 52.6475 54.576 52.6475 53.68C52.6475 52.784 53.3515 52.0801 54.2474 52.0801Z" fill="#BF85BF"/>
<path d="M35.0473 52.0801H47.8473C48.7433 52.0801 49.4473 52.784 49.4473 53.68C49.4473 54.576 48.7433 55.2799 47.8473 55.2799H35.0473C34.1513 55.2799 33.4473 54.576 33.4473 53.68C33.4473 52.784 34.1513 52.0801 35.0473 52.0801Z" fill="#EA5E5E"/>
<path d="M15.848 52.0801H28.6481C29.5441 52.0801 30.2481 52.784 30.2481 53.68C30.2481 54.576 29.5441 55.2799 28.6481 55.2799H15.848C14.952 55.2799 14.248 54.576 14.248 53.68C14.248 52.784 14.952 52.0801 15.848 52.0801Z" fill="#56B3B4"/>
<path d="M15.848 64.8809H31.848C32.744 64.8809 33.448 65.5849 33.448 66.4809C33.448 67.3769 32.744 68.0809 31.848 68.0809H15.848C14.952 68.0809 14.248 67.3769 14.248 66.4809C14.248 65.5849 14.952 64.8809 15.848 64.8809Z" fill="#BF85BF"/>
<path d="M15.848 39.2793H31.848C32.744 39.2793 33.448 39.9833 33.448 40.8793C33.448 41.7753 32.744 42.4793 31.848 42.4793H15.848C14.952 42.4793 14.248 41.7753 14.248 40.8793C14.248 39.9833 14.952 39.2793 15.848 39.2793Z" fill="#BF85BF"/>
<path d="M31.848 20.0801H63.848C64.744 20.0801 65.448 20.7841 65.448 21.6801C65.448 22.5761 64.744 23.2801 63.848 23.2801H31.848C30.952 23.2801 30.248 22.5761 30.248 21.6801C30.248 20.7841 30.952 20.0801 31.848 20.0801Z" fill="#F7BA3E"/>
<path d="M15.848 20.0801H25.448C26.344 20.0801 27.048 20.7841 27.048 21.6801C27.048 22.5761 26.344 23.2801 25.448 23.2801H15.848C14.952 23.2801 14.248 22.5761 14.248 21.6801C14.248 20.7841 14.952 20.0801 15.848 20.0801Z" fill="#EA5E5E"/>
<path d="M28.6488 71.2793H31.8489C32.7449 71.2793 33.4489 71.9833 33.4489 72.8793C33.4489 73.7753 32.7449 74.4793 31.8489 74.4793H28.6488C27.7528 74.4793 27.0488 73.7753 27.0488 72.8793C27.0488 71.9833 27.7528 71.2793 28.6488 71.2793Z" fill="#F7BA3E"/>
<path d="M28.6488 32.8809H31.8489C32.7449 32.8809 33.4489 33.5848 33.4489 34.4808C33.4489 35.3768 32.7449 36.0808 31.8489 36.0808H28.6488C27.7528 36.0808 27.0488 35.3768 27.0488 34.4808C27.0488 33.5848 27.7528 32.8809 28.6488 32.8809Z" fill="#56B3B4"/>
<path d="M15.848 71.2793H22.2481C23.1441 71.2793 23.8481 71.9833 23.8481 72.8793C23.8481 73.7753 23.1441 74.4793 22.2481 74.4793H15.848C14.952 74.4793 14.248 73.7753 14.248 72.8793C14.248 71.9833 14.952 71.2793 15.848 71.2793Z" fill="#56B3B4"/>
<path d="M15.848 32.8809H22.2481C23.1441 32.8809 23.8481 33.5848 23.8481 34.4808C23.8481 35.3768 23.1441 36.0808 22.2481 36.0808H15.848C14.952 36.0808 14.248 35.3768 14.248 34.4808C14.248 33.5848 14.952 32.8809 15.848 32.8809Z" fill="#F7BA3E"/>
<path opacity="0.5" d="M57.4486 71.2793H60.6485C61.5445 71.2793 62.2485 71.9833 62.2485 72.8793C62.2485 73.7753 61.5445 74.4793 60.6485 74.4793H57.4486C56.5526 74.4793 55.8486 73.7753 55.8486 72.8793C55.8486 71.9833 56.5526 71.2793 57.4486 71.2793Z" fill="#D0D4D8"/>
<path opacity="0.5" d="M38.2475 71.2793H51.0475C51.9435 71.2793 52.6475 71.9833 52.6475 72.8793C52.6475 73.7753 51.9435 74.4793 51.0475 74.4793H38.2475C37.3515 74.4793 36.6475 73.7753 36.6475 72.8793C36.6475 71.9833 37.3515 71.2793 38.2475 71.2793Z" fill="#D0D4D8"/>
<path opacity="0.5" d="M67.0473 71.2793H79.8473C80.7433 71.2793 81.4473 71.9833 81.4473 72.8793C81.4473 73.7753 80.7433 74.4793 79.8473 74.4793H67.0473C66.1513 74.4793 65.4473 73.7753 65.4473 72.8793C65.4473 71.9833 66.1513 71.2793 67.0473 71.2793Z" fill="#D0D4D8"/>
<path d="M41.4486 45.6797H67.0486C67.9446 45.6797 68.6486 46.3837 68.6486 47.2797C68.6486 48.1756 67.9446 48.8796 67.0486 48.8796H41.4486C40.5526 48.8796 39.8486 48.1756 39.8486 47.2797C39.8486 46.3837 40.5526 45.6797 41.4486 45.6797Z" fill="#56B3B4"/>
<path d="M25.4477 45.6797H35.0477C35.9437 45.6797 36.6477 46.3837 36.6477 47.2797C36.6477 48.1756 35.9437 48.8796 35.0477 48.8796H25.4477C24.5517 48.8796 23.8477 48.1756 23.8477 47.2797C23.8477 46.3837 24.5517 45.6797 25.4477 45.6797Z" fill="#F7BA3E"/>
<path d="M15.848 45.6797H19.0481C19.9441 45.6797 20.6481 46.3837 20.6481 47.2797C20.6481 48.1756 19.9441 48.8796 19.0481 48.8796H15.848C14.952 48.8796 14.248 48.1756 14.248 47.2797C14.248 46.3837 14.952 45.6797 15.848 45.6797Z" fill="#EA5E5E"/>
<path d="M44.6488 26.4805H57.4488C58.3448 26.4805 59.0488 27.1845 59.0488 28.0805C59.0488 28.9765 58.3448 29.6805 57.4488 29.6805H44.6488C43.7528 29.6805 43.0488 28.9765 43.0488 28.0805C43.0488 27.1845 43.7528 26.4805 44.6488 26.4805Z" fill="#BF85BF"/>
<path d="M15.848 26.4805H38.248C39.144 26.4805 39.848 27.1845 39.848 28.0805C39.848 28.9765 39.144 29.6805 38.248 29.6805H15.848C14.952 29.6805 14.248 28.9765 14.248 28.0805C14.248 27.1845 14.952 26.4805 15.848 26.4805Z" fill="#56B3B4"/>
<path d="M25.4477 58.4785H54.2477C55.1437 58.4785 55.8477 59.1825 55.8477 60.0785C55.8477 60.9745 55.1437 61.6785 54.2477 61.6785H25.4477C24.5517 61.6785 23.8477 60.9745 23.8477 60.0785C23.8477 59.1825 24.5517 58.4785 25.4477 58.4785Z" fill="#F7BA3E"/>
<path d="M15.848 58.4785H19.0481C19.9441 58.4785 20.6481 59.1825 20.6481 60.0785C20.6481 60.9745 19.9441 61.6785 19.0481 61.6785H15.848C14.952 61.6785 14.248 60.9745 14.248 60.0785C14.248 59.1825 14.952 58.4785 15.848 58.4785Z" fill="#BF85BF"/>
<path d="M54.2475 32.8809H70.2474C71.1434 32.8809 71.8474 33.5848 71.8474 34.4808C71.8474 35.3768 71.1434 36.0808 70.2474 36.0808H54.2475C53.3515 36.0808 52.6475 35.3768 52.6475 34.4808C52.6475 33.5848 53.3515 32.8809 54.2475 32.8809Z" fill="#EA5E5E"/>
<path d="M54.2475 39.2793H70.2474C71.1434 39.2793 71.8474 39.9833 71.8474 40.8793C71.8474 41.7753 71.1434 42.4793 70.2474 42.4793H54.2475C53.3515 42.4793 52.6475 41.7753 52.6475 40.8793C52.6475 39.9833 53.3515 39.2793 54.2475 39.2793Z" fill="#F7BA3E"/>
<path d="M15.848 13.6797H54.248C55.144 13.6797 55.848 14.3837 55.848 15.2797C55.848 16.1757 55.144 16.8797 54.248 16.8797H15.848C14.952 16.8797 14.248 16.1757 14.248 15.2797C14.248 14.3837 14.952 13.6797 15.848 13.6797Z" fill="#56B3B4"/>
<path opacity="0.5" d="M60.6479 13.6797H79.8479C80.7439 13.6797 81.4479 14.3837 81.4479 15.2797C81.4479 16.1757 80.7439 16.8797 79.8479 16.8797H60.6479C59.7519 16.8797 59.0479 16.1757 59.0479 15.2797C59.0479 14.3837 59.7519 13.6797 60.6479 13.6797Z" fill="#D0D4D8"/>
<path opacity="0.5" d="M60.6478 58.4785H67.0478C67.9438 58.4785 68.6478 59.1825 68.6478 60.0785C68.6478 60.9745 67.9438 61.6785 67.0478 61.6785H60.6478C59.7518 61.6785 59.0479 60.9745 59.0479 60.0785C59.0479 59.1825 59.7518 58.4785 60.6478 58.4785Z" fill="#D0D4D8"/>
<path opacity="0.5" d="M73.4477 58.4785H79.8477C80.7437 58.4785 81.4477 59.1825 81.4477 60.0785C81.4477 60.9745 80.7437 61.6785 79.8477 61.6785H73.4477C72.5517 61.6785 71.8477 60.9745 71.8477 60.0785C71.8477 59.1825 72.5517 58.4785 73.4477 58.4785Z" fill="#D0D4D8"/>
<path opacity="0.5" d="M70.2475 52.0801H79.8475C80.7435 52.0801 81.4475 52.784 81.4475 53.68C81.4475 54.576 80.7435 55.2799 79.8475 55.2799H70.2475C69.3515 55.2799 68.6475 54.576 68.6475 53.68C68.6475 52.784 69.3515 52.0801 70.2475 52.0801Z" fill="#D0D4D8"/>
<path opacity="0.5" d="M70.2475 20.0801H79.8475C80.7435 20.0801 81.4475 20.7841 81.4475 21.6801C81.4475 22.5761 80.7435 23.2801 79.8475 23.2801H70.2475C69.3515 23.2801 68.6475 22.5761 68.6475 21.6801C68.6475 20.7841 69.3515 20.0801 70.2475 20.0801Z" fill="#D0D4D8"/>
<path opacity="0.5" d="M73.4477 45.6797H79.8477C80.7437 45.6797 81.4477 46.3837 81.4477 47.2797C81.4477 48.1756 80.7437 48.8796 79.8477 48.8796H73.4477C72.5517 48.8796 71.8477 48.1756 71.8477 47.2797C71.8477 46.3837 72.5517 45.6797 73.4477 45.6797Z" fill="#D0D4D8"/>
<path opacity="0.5" d="M73.4477 26.4805H79.8477C80.7437 26.4805 81.4477 27.1845 81.4477 28.0805C81.4477 28.9765 80.7437 29.6805 79.8477 29.6805H73.4477C72.5517 29.6805 71.8477 28.9765 71.8477 28.0805C71.8477 27.1845 72.5517 26.4805 73.4477 26.4805Z" fill="#D0D4D8"/>
<path opacity="0.5" d="M76.6479 32.8809H79.8479C80.7439 32.8809 81.4479 33.5848 81.4479 34.4808C81.4479 35.3768 80.7439 36.0808 79.8479 36.0808H76.6479C75.7519 36.0808 75.0479 35.3768 75.0479 34.4808C75.0479 33.5848 75.7519 32.8809 76.6479 32.8809Z" fill="#D0D4D8"/>
<path opacity="0.5" d="M76.6479 39.2793H79.8479C80.7439 39.2793 81.4479 39.9833 81.4479 40.8793C81.4479 41.7753 80.7439 42.4793 79.8479 42.4793H76.6479C75.7519 42.4793 75.0479 41.7753 75.0479 40.8793C75.0479 39.9833 75.7519 39.2793 76.6479 39.2793Z" fill="#D0D4D8"/>
<path opacity="0.5" d="M51.0473 64.8809H79.8472C80.7432 64.8809 81.4472 65.5849 81.4472 66.4809C81.4472 67.3769 80.7432 68.0809 79.8472 68.0809H51.0473C50.1513 68.0809 49.4473 67.3769 49.4473 66.4809C49.4473 65.5849 50.1513 64.8809 51.0473 64.8809Z" fill="#D0D4D8"/>
<path opacity="0.5" d="M38.2475 64.8809H44.6475C45.5435 64.8809 46.2475 65.5849 46.2475 66.4809C46.2475 67.3769 45.5435 68.0809 44.6475 68.0809H38.2475C37.3515 68.0809 36.6475 67.3769 36.6475 66.4809C36.6475 65.5849 37.3515 64.8809 38.2475 64.8809Z" fill="#D0D4D8"/>
<path opacity="0.5" d="M63.8481 77.6797H79.8481C80.7441 77.6797 81.4481 78.3837 81.4481 79.2797C81.4481 80.1757 80.7441 80.8797 79.8481 80.8797H63.8481C62.952 80.8797 62.248 80.1757 62.248 79.2797C62.248 78.3837 62.952 77.6797 63.8481 77.6797Z" fill="#D0D4D8"/>
<path opacity="0.5" d="M38.2475 77.6797H57.4474C58.3434 77.6797 59.0474 78.3837 59.0474 79.2797C59.0474 80.1757 58.3434 80.8797 57.4474 80.8797H38.2475C37.3515 80.8797 36.6475 80.1757 36.6475 79.2797C36.6475 78.3837 37.3515 77.6797 38.2475 77.6797Z" fill="#D0D4D8"/>
<path opacity="0.5" d="M38.2475 32.8809H47.8475C48.7435 32.8809 49.4475 33.5848 49.4475 34.4808C49.4475 35.3768 48.7435 36.0808 47.8475 36.0808H38.2475C37.3515 36.0808 36.6475 35.3768 36.6475 34.4808C36.6475 33.5848 37.3515 32.8809 38.2475 32.8809Z" fill="#D0D4D8"/>
<path opacity="0.5" d="M38.2475 39.2793H47.8475C48.7435 39.2793 49.4475 39.9833 49.4475 40.8793C49.4475 41.7753 48.7435 42.4793 47.8475 42.4793H38.2475C37.3515 42.4793 36.6475 41.7753 36.6475 40.8793C36.6475 39.9833 37.3515 39.2793 38.2475 39.2793Z" fill="#D0D4D8"/>
<defs>
<radialGradient id="paint0_radial_1024_11605" cx="0" cy="0" r="1" gradientUnits="userSpaceOnUse" gradientTransform="translate(47.8476 47.2802) rotate(90) scale(47.04)">
<stop stop-color="#333944"/>
<stop offset="1" stop-color="#222428"/>
</radialGradient>
</defs>
</svg>
