<svg width="95" height="95" viewBox="0 0 95 95" fill="none" xmlns="http://www.w3.org/2000/svg">
<rect x="0.903445" y="1.04895" width="92.736" height="92.736" rx="13.44" fill="url(#paint0_radial_1024_11670)"/>
<rect x="0.903445" y="1.04895" width="92.736" height="92.736" rx="13.44" stroke="#6886C3" stroke-width="1.344"/>
<path fill-rule="evenodd" clip-rule="evenodd" d="M33.0618 17.1777C31.2469 17.1816 29.4702 18.2146 28.5566 19.7904L14.3464 44.5415C13.447 46.1216 13.447 48.1868 14.3464 49.7669L28.5566 74.518C29.4703 76.0938 31.2469 77.1271 33.0618 77.1307H61.482C63.2969 77.1268 65.0734 76.0938 65.9872 74.518L80.1973 49.7669C81.0968 48.1868 81.0967 46.1216 80.1973 44.5415L65.9872 19.7904C65.0734 18.2146 63.2969 17.1813 61.482 17.1777H33.0618ZM33.3197 31.6574C33.3587 31.6535 33.3997 31.6535 33.4388 31.6574H38.3409C38.5579 31.6619 38.7684 31.7876 38.8767 31.9765L47.1925 46.8351C47.2344 46.9086 47.2613 46.9904 47.2716 47.0744C47.2818 46.9904 47.3087 46.9085 47.3506 46.8351L55.6465 31.9765C55.7583 31.7819 55.9786 31.6555 56.2021 31.6574H61.1042C61.5383 31.6612 61.8633 32.2095 61.6599 32.5948L53.5427 47.1542L61.6599 61.6937C61.8826 62.0812 61.5495 62.6549 61.1042 62.651H56.2021C55.9747 62.6491 55.7531 62.5139 55.6465 62.312L47.3506 47.4534C47.3088 47.3799 47.2818 47.298 47.2716 47.214C47.2613 47.2981 47.2344 47.3799 47.1925 47.4534L38.8767 62.312C38.7733 62.5082 38.5617 62.6421 38.3409 62.651H33.4388C32.9935 62.6549 32.6605 62.0812 32.8832 61.6937L41.0004 47.1542L32.8832 32.5948C32.6886 32.2432 32.926 31.7324 33.3197 31.6574Z" fill="#3498DB"/>
<defs>
<radialGradient id="paint0_radial_1024_11670" cx="0" cy="0" r="1" gradientUnits="userSpaceOnUse" gradientTransform="translate(47.2714 47.417) rotate(90) scale(47.04)">
<stop stop-color="#333944"/>
<stop offset="1" stop-color="#222428"/>
</radialGradient>
</defs>
</svg>
