<svg width="95" height="95" viewBox="0 0 95 95" fill="none" xmlns="http://www.w3.org/2000/svg">
<rect x="1.32825" y="0.912234" width="92.736" height="92.736" rx="13.44" fill="url(#paint0_radial_1024_11609)"/>
<rect x="1.32825" y="0.912234" width="92.736" height="92.736" rx="13.44" stroke="#6886C3" stroke-width="1.344"/>
<path d="M63.5547 55.2832L65.496 50.374H71.1014L68.4411 42.9271L71.7681 34.5137L81.2973 59.8147H74.2698L72.6413 55.2832H63.5547Z" fill="white"/>
<path d="M57.5589 59.8146L67.7598 34.5137H60.9969L54.0185 50.8634L49.0564 34.5137H43.8579L38.53 50.8634L34.7723 43.4133L31.3721 53.8892L34.8245 59.8146H41.4801L46.2948 45.1521L50.8853 59.8146H57.5589" fill="#5A0FC8"/>
<path d="M20.5162 51.1294H24.6818C25.9438 51.1294 27.0675 50.9885 28.0528 50.7067L29.1304 47.3879L32.141 38.1118C31.9118 37.7481 31.6498 37.4043 31.3554 37.0803C29.8093 35.3692 27.5475 34.5137 24.5697 34.5137H14.0967V59.8147H20.5162V51.1294V51.1294ZM26.0303 40.3345C26.634 40.9421 26.936 41.7555 26.936 42.7744C26.936 43.8011 26.6704 44.6152 26.1396 45.217C25.5572 45.8858 24.4854 46.2199 22.9235 46.2199H20.5162V39.4228H22.9412C24.3967 39.4228 25.4263 39.7266 26.0303 40.3345" fill="white"/>
<defs>
<radialGradient id="paint0_radial_1024_11609" cx="0" cy="0" r="1" gradientUnits="userSpaceOnUse" gradientTransform="translate(47.6963 47.2802) rotate(90) scale(47.04)">
<stop stop-color="#333944"/>
<stop offset="1" stop-color="#222428"/>
</radialGradient>
</defs>
</svg>
