<svg width="95" height="95" viewBox="0 0 95 95" fill="none" xmlns="http://www.w3.org/2000/svg">
<rect x="1.20813" y="1.06458" width="92.736" height="92.736" rx="13.44" fill="url(#paint0_radial_1024_11515)"/>
<rect x="1.20813" y="1.06458" width="92.736" height="92.736" rx="13.44" stroke="#6886C3" stroke-width="1.344"/>
<g clip-path="url(#clip0_1024_11515)">
<path d="M56.6168 35.4438H58.6674L64.5094 29.6018L64.7967 27.123C53.9268 17.529 37.3331 18.5628 27.7391 29.4328C25.0716 32.4523 23.1365 36.0438 22.083 39.9309C22.7337 39.6633 23.4548 39.6211 24.1336 39.807L35.8148 37.8803C35.8148 37.8803 36.4092 36.8972 36.7162 36.9592C41.9132 31.2524 50.6593 30.5876 56.659 35.4438H56.6168Z" fill="#EA4335"/>
<path d="M72.8298 39.9308C71.4862 34.9873 68.7314 30.5424 64.8978 27.1426L56.7009 35.3394C60.1628 38.1675 62.1345 42.4293 62.05 46.8995V48.3558C66.0808 48.3558 69.3455 51.6232 69.3455 55.6512C69.3455 59.6821 66.078 62.9467 62.05 62.9467H47.4563L46 64.4227V73.1745L47.4563 74.6307H62.05C70.4158 74.6955 77.838 69.2732 80.3224 61.2848C82.8012 53.2936 79.7591 44.6179 72.8298 39.9308Z" fill="#4285F4"/>
<path d="M32.8434 74.5484H47.4372V62.8672H32.8434C31.804 62.8672 30.7759 62.6447 29.8295 62.2109L27.7789 62.8447L21.8974 68.6867L21.3848 70.7373C24.6832 73.2274 28.7084 74.5653 32.8434 74.5484Z" fill="#34A853"/>
<path d="M32.843 36.6524C24.7363 36.7003 17.5563 41.8917 14.9705 49.573C12.3847 57.2544 14.9621 65.7329 21.3872 70.6735L29.8516 62.2091C26.1785 60.55 24.5476 56.2291 26.2067 52.556C27.8658 48.8829 32.1867 47.252 35.8598 48.9111C37.4766 49.6434 38.7723 50.9392 39.5047 52.556L47.9692 44.0916C44.3665 39.3847 38.7695 36.6327 32.843 36.6524Z" fill="#FBBC05"/>
</g>
<defs>
<radialGradient id="paint0_radial_1024_11515" cx="0" cy="0" r="1" gradientUnits="userSpaceOnUse" gradientTransform="translate(47.5761 47.4326) rotate(90) scale(47.04)">
<stop stop-color="#333944"/>
<stop offset="1" stop-color="#222428"/>
</radialGradient>
<clipPath id="clip0_1024_11515">
<rect width="67.2" height="54.0794" fill="white" transform="translate(13.9766 20.5527)"/>
</clipPath>
</defs>
</svg>
