<svg width="95" height="95" viewBox="0 0 95 95" fill="none" xmlns="http://www.w3.org/2000/svg">
<rect x="0.935672" y="0.912234" width="92.736" height="92.736" rx="13.44" fill="url(#paint0_radial_1024_11593)"/>
<rect x="0.935672" y="0.912234" width="92.736" height="92.736" rx="13.44" stroke="#6886C3" stroke-width="1.344"/>
<g clip-path="url(#clip0_1024_11593)">
<path d="M36.243 66.2166C32.5268 61.8285 30.1211 55.3504 29.9598 48.0726V46.4867C30.1211 39.209 32.5268 32.7309 36.243 28.3427C41.0679 22.0864 48.2315 18.1149 56.2283 18.1149C61.1473 18.1149 65.7572 19.6202 69.6951 22.2342C63.7815 16.9389 55.9863 13.7133 47.4318 13.6797H47.3041C28.7502 13.6797 13.7041 28.7258 13.7041 47.2797C13.7041 65.3027 27.89 80.0061 45.7047 80.8394C46.2356 80.8662 46.7665 80.8797 47.3041 80.8797C55.9057 80.8797 63.7547 77.6474 69.6951 72.3318C65.7572 74.9392 61.154 76.4445 56.2283 76.4445C48.2315 76.4445 41.0679 72.473 36.243 66.2166Z" fill="url(#paint1_linear_1024_11593)"/>
<path d="M36.2432 28.3431C39.3276 24.7008 43.3059 22.5101 47.6604 22.5101C57.4448 22.5101 65.3676 33.5981 65.3676 47.28C65.3676 60.962 57.438 72.05 47.6604 72.05C43.3126 72.05 39.3276 69.8525 36.2432 66.217C41.0681 72.4733 48.2316 76.4448 56.2284 76.4448C61.1475 76.4448 65.7574 74.9396 69.6953 72.3322C76.5766 66.1767 80.9043 57.2324 80.9043 47.28C80.9043 37.3277 76.5766 28.3834 69.6953 22.2346C65.7574 19.6205 61.1542 18.1152 56.2284 18.1152C48.2316 18.1152 41.0681 22.0868 36.2432 28.3431Z" fill="url(#paint2_linear_1024_11593)"/>
</g>
<defs>
<radialGradient id="paint0_radial_1024_11593" cx="0" cy="0" r="1" gradientUnits="userSpaceOnUse" gradientTransform="translate(47.3037 47.2802) rotate(90) scale(47.04)">
<stop stop-color="#333944"/>
<stop offset="1" stop-color="#222428"/>
</radialGradient>
<linearGradient id="paint1_linear_1024_11593" x1="41.7012" y1="14.7753" x2="41.7012" y2="79.9017" gradientUnits="userSpaceOnUse">
<stop offset="0.3" stop-color="#FF1B2D"/>
<stop offset="0.4381" stop-color="#FA1A2C"/>
<stop offset="0.5939" stop-color="#ED1528"/>
<stop offset="0.7581" stop-color="#D60E21"/>
<stop offset="0.9272" stop-color="#B70519"/>
<stop offset="1" stop-color="#A70014"/>
</linearGradient>
<linearGradient id="paint2_linear_1024_11593" x1="58.5743" y1="18.6142" x2="58.5743" y2="76.2153" gradientUnits="userSpaceOnUse">
<stop stop-color="#9C0000"/>
<stop offset="0.7" stop-color="#FF4B4B"/>
</linearGradient>
<clipPath id="clip0_1024_11593">
<rect width="67.2" height="67.2" fill="white" transform="translate(13.7041 13.6797)"/>
</clipPath>
</defs>
</svg>
