<svg width="95" height="95" viewBox="0 0 95 95" fill="none" xmlns="http://www.w3.org/2000/svg">
<rect x="1.07239" y="0.777469" width="92.736" height="92.736" rx="13.44" fill="url(#paint0_radial_1024_11533)"/>
<rect x="1.07239" y="0.777469" width="92.736" height="92.736" rx="13.44" stroke="#6886C3" stroke-width="1.344"/>
<g clip-path="url(#clip0_1024_11533)">
<path fill-rule="evenodd" clip-rule="evenodd" d="M43.749 26.0259C43.9325 20.2018 41.9706 16.7682 36.3305 14.5C34.7274 20.1076 41.3457 25.278 43.749 26.0259Z" fill="#D1D3D4" stroke="black" stroke-width="1.18778" stroke-linejoin="round"/>
<path fill-rule="evenodd" clip-rule="evenodd" d="M59.0446 35.8967C59.2281 31.1143 58.0202 29.1841 57.1136 27.8039C56.1939 26.5164 53.987 24.493 51.2754 24.4082C48.7112 24.3279 48.0945 25.7453 45.7288 25.8308C45.341 21.5231 48.5921 19.1592 48.5921 19.1592C48.5921 19.1592 47.7032 17.9027 46.9677 17.5957C45.9098 18.5358 42.9982 21.6713 43.6719 25.7063C41.4952 25.2902 39.9588 24.0444 37.6723 24.4942C34.5573 25.1072 31.9895 26.9906 30.526 31.1232C29.0627 35.2562 31.0425 40.0777 31.473 41.4547C31.9037 42.8329 35.0894 48.6865 37.5862 49.5479C40.0825 50.4096 40.0833 50.0213 41.4179 49.505C42.7527 48.9885 44.7754 48.0415 47.7466 49.118C50.716 50.1939 51.1033 50.4518 52.9539 49.2467C54.806 48.0418 57.2161 44.2967 57.7752 43.2202C58.3349 42.1443 58.6364 41.5844 58.8093 41.0249C60.6085 40.127 58.8794 40.1826 59.0446 35.8967Z" fill="#D1D3D4" stroke="black" stroke-width="1.18778" stroke-linejoin="round"/>
<path d="M63.878 70.847C64.4655 70.8491 65.0475 70.7352 65.5909 70.5119C66.1342 70.2885 66.6281 69.9601 67.0442 69.5455C67.4604 69.1309 67.7906 68.6382 68.0159 68.0957C68.2413 67.5532 68.3573 66.9715 68.3573 66.3841C68.3578 61.8529 68.3578 54.8509 68.3578 50.3074C68.3578 49.1236 67.8876 47.9883 67.0505 47.1512C66.2135 46.3142 65.0782 45.8439 63.8944 45.8439H60.215C59.9519 45.8439 59.6996 45.7394 59.5136 45.5534C59.3276 45.3674 59.2231 45.1151 59.2231 44.852V42.5137H30.2031L30.2763 76.7864C30.2766 76.9528 30.3188 77.1164 30.399 77.2623C30.4792 77.4081 30.5947 77.5314 30.735 77.6208C32.0274 78.3692 36.1708 79.7906 44.8703 79.7906C53.7539 79.7906 57.7249 77.8876 58.8618 77.0284C58.9734 76.9358 59.0632 76.8198 59.1248 76.6886C59.1864 76.5573 59.2184 76.4141 59.2184 76.2691C59.2231 75.3207 59.2231 73.1229 59.2231 71.8245C59.2231 71.6925 59.2494 71.5619 59.3005 71.4402C59.3517 71.3185 59.4266 71.2082 59.5209 71.1159C59.6152 71.0235 59.727 70.9509 59.8497 70.9023C59.9724 70.8537 60.1036 70.8301 60.2356 70.8329C61.3269 70.8483 62.6344 70.8505 63.878 70.847ZM59.2231 51.0575C59.2231 50.7287 59.3538 50.4133 59.5861 50.1807C59.8188 49.9483 60.1341 49.8177 60.463 49.8176H63.6216C63.9504 49.8176 64.2658 49.9483 64.4984 50.1807C64.7308 50.4133 64.8614 50.7287 64.8615 51.0575V65.4857C64.8614 65.8145 64.7308 66.1299 64.4984 66.3625C64.2658 66.5949 63.9504 66.7255 63.6216 66.7255H60.463C60.1341 66.7255 59.8188 66.5949 59.5861 66.3625C59.3537 66.1299 59.2232 65.8145 59.2231 65.4857V51.0575Z" fill="white" stroke="black" stroke-width="1.18778" stroke-linejoin="round"/>
<path fill-rule="evenodd" clip-rule="evenodd" d="M33.0635 42.2266V72.9714C33.0635 73.3263 33.2529 73.6541 33.5602 73.8311C34.8151 74.4292 38.4558 75.8568 44.8389 75.8568C51.2643 75.8568 54.7969 74.1223 55.9797 73.4074C56.1186 73.3178 56.2329 73.1948 56.3121 73.0496C56.3912 72.9045 56.4327 72.7418 56.4327 72.5764C56.4354 68.4995 56.4354 42.2266 56.4354 42.2266H33.0635Z" fill="#FBB040"/>
<path d="M36.499 47.4336V71.1931" stroke="#FFDB96" stroke-width="2.73316" stroke-linecap="round"/>
<path fill-rule="evenodd" clip-rule="evenodd" d="M49.703 48.5358C49.703 48.0399 49.4111 47.4477 48.9318 47.1504C48.1459 46.6739 47.5404 45.95 47.2104 45.0923C40.8646 45.3058 35.0725 44.1914 32.1546 43.4046C31.4055 43.1923 30.6465 43.016 29.8805 42.8764C28.134 42.53 26.8066 40.9963 26.8066 39.1524C26.8066 37.1228 28.417 35.4735 30.429 35.4013C30.8171 33.2547 32.6907 31.625 34.9492 31.625C37.489 31.625 39.5476 33.6841 39.5476 36.2236C39.5476 36.758 39.4512 37.2696 39.2838 37.7471L39.2974 37.7494C39.8645 35.9756 41.5249 34.6904 43.4871 34.6904C45.4367 34.6904 47.0881 35.9605 47.6649 37.7176C47.6482 37.5572 47.6398 37.3961 47.6399 37.2348C47.6399 34.5935 49.7809 32.4525 52.4217 32.4525C54.5597 32.4525 56.3692 33.8557 56.9814 35.7907L57.3983 35.682C57.9604 35.364 58.5953 35.197 59.2412 35.1973C61.3164 35.1973 62.9989 36.8797 62.9982 38.9545C62.9982 40.8555 61.587 42.4263 59.755 42.677C59.3401 42.7358 58.9332 42.8415 58.5422 42.992C57.4533 43.4024 56.3399 43.7426 55.2151 44.0233C55.1606 44.5645 54.9997 45.0895 54.7418 45.5684C54.2855 46.4245 54.0809 47.3923 54.1516 48.3598C54.1511 48.4183 54.1533 48.7248 54.1533 48.7838C54.1533 50.0128 53.1575 50.7606 51.9275 50.7606C51.6354 50.7606 51.3461 50.7031 51.0762 50.5913C50.8063 50.4795 50.561 50.3156 50.3545 50.109C50.1479 49.9024 49.984 49.6571 49.8723 49.3872C49.7605 49.1173 49.703 48.828 49.703 48.5358Z" fill="white" stroke="black" stroke-width="1.18778" stroke-linecap="round" stroke-linejoin="round"/>
</g>
<defs>
<radialGradient id="paint0_radial_1024_11533" cx="0" cy="0" r="1" gradientUnits="userSpaceOnUse" gradientTransform="translate(47.4404 47.1455) rotate(90) scale(47.04)">
<stop stop-color="#333944"/>
<stop offset="1" stop-color="#222428"/>
</radialGradient>
<clipPath id="clip0_1024_11533">
<rect width="44.6347" height="67.2" fill="white" transform="translate(25.2646 13.5449)"/>
</clipPath>
</defs>
</svg>
