<svg width="95" height="95" viewBox="0 0 95 95" fill="none" xmlns="http://www.w3.org/2000/svg">
<rect x="1.51184" y="0.912234" width="92.736" height="92.736" rx="13.44" fill="url(#paint0_radial_1024_11591)"/>
<rect x="1.51184" y="0.912234" width="92.736" height="92.736" rx="13.44" stroke="#6886C3" stroke-width="1.344"/>
<path d="M53.8927 49.5068C53.8927 49.5068 68.2959 41.436 68.5442 41.5602C67.1674 36.1822 63.716 31.5687 58.9455 28.7296C54.1749 25.8906 48.4739 25.0572 43.0903 26.412C38.0256 27.6907 33.6334 30.8407 30.7979 35.2277C30.922 35.2277 53.8927 49.5068 53.8927 49.5068Z" fill="#0364B8"/>
<path d="M39.8601 37.7099C37.2066 36.0854 34.1556 35.226 31.0443 35.2266H30.796C26.3512 35.2952 22.1155 37.1253 19.0191 40.3148C15.9227 43.5043 14.2189 47.7924 14.282 52.2373C14.336 55.6057 15.3716 58.8853 17.2619 61.6739L40.3568 59.3147L53.8908 46.2773L39.8601 37.7099Z" fill="#0F78D4"/>
<path d="M68.6672 41.5609H67.798C65.9589 41.5473 64.1382 41.9284 62.4589 42.6784L54.0156 46.155L63.2039 56.3366L79.8421 61.5516C80.6965 59.9714 81.2298 58.2377 81.4112 56.4505C81.5927 54.6633 81.4187 52.8579 80.8994 51.1382C80.38 49.4185 79.5255 47.8186 78.3851 46.4306C77.2447 45.0426 75.8409 43.894 74.2546 43.0509C72.5067 42.1957 70.6088 41.6896 68.6672 41.5609Z" fill="#1490DF"/>
<path d="M67.7981 54.4734L64.3215 52.3626L56.3749 47.6443L53.8916 46.1543L47.5591 48.8859L35.2667 54.1009L29.6793 56.3359L17.2627 61.5508C18.8154 63.7672 20.8777 65.5783 23.2761 66.8315C25.6746 68.0848 28.339 68.7435 31.0451 68.7525H67.674C70.1421 68.7387 72.5613 68.0633 74.6797 66.7967C76.798 65.5301 78.5379 63.7185 79.7181 61.5508L67.7981 54.4734Z" fill="#28A8EA"/>
<defs>
<radialGradient id="paint0_radial_1024_11591" cx="0" cy="0" r="1" gradientUnits="userSpaceOnUse" gradientTransform="translate(47.8798 47.2802) rotate(90) scale(47.04)">
<stop stop-color="#333944"/>
<stop offset="1" stop-color="#222428"/>
</radialGradient>
</defs>
</svg>
