<svg width="95" height="96" viewBox="0 0 95 96" fill="none" xmlns="http://www.w3.org/2000/svg">
<rect x="1.34387" y="1.64075" width="92.736" height="92.736" rx="13.44" fill="url(#paint0_radial_1024_11476)"/>
<rect x="1.34387" y="1.64075" width="92.736" height="92.736" rx="13.44" stroke="#6886C3" stroke-width="1.344"/>
<g clip-path="url(#clip0_1024_11476)">
<path d="M67.2311 45.5204L65.8369 44.9629C59.2847 59.7059 33.2187 50.7429 31.65 55.1287C31.3885 58.0913 45.8846 55.6921 56.2478 56.1942C59.408 56.3473 60.9927 58.7329 59.6508 62.6213L62.294 62.6294C65.3429 53.1245 75.0732 57.9753 75.4799 54.8384C74.8118 52.7759 64.2974 54.8384 67.2311 45.5204Z" fill="white"/>
<path d="M60.3995 60.996C60.8176 59.6022 60.6782 58.2078 59.9813 57.3712C59.2841 56.5346 58.3081 55.9773 57.0534 55.8376L32.7944 55.5586C32.655 55.5586 32.5157 55.4195 32.3763 55.4195C32.2369 55.2798 32.2369 55.1404 32.3763 55.0011C32.5157 54.7223 32.655 54.5826 32.9338 54.5826L57.3321 54.3039C60.2601 54.1647 63.3274 51.7944 64.4425 49.0061L65.8369 45.3812C65.8369 45.2416 65.9763 45.1022 65.8369 44.9628C64.3031 37.8525 57.89 32.5547 50.3612 32.5547C43.3902 32.5547 37.3953 37.0159 35.3039 43.2899C33.9098 42.3139 32.2369 41.7561 30.2849 41.896C26.9388 42.1745 24.29 44.9628 23.8715 48.3089C23.7321 49.1455 23.8715 49.9821 24.0112 50.8184C18.5738 50.9578 14.1123 55.4192 14.1123 60.996C14.1123 61.5536 14.1123 61.972 14.2517 62.5296C14.2517 62.8086 14.5305 62.948 14.6701 62.948H59.4235C59.7023 62.948 59.9813 62.8089 59.9813 62.5296L60.3995 60.996Z" fill="#F4811F"/>
<path d="M68.0687 45.3828H67.3715C67.2321 45.3828 67.0927 45.5219 66.9533 45.6616L65.9773 49.0077C65.5592 50.4016 65.6986 51.7962 66.3958 52.6325C67.0927 53.4691 68.0687 54.0264 69.3234 54.1663L74.4821 54.4451C74.6212 54.4451 74.7608 54.5842 74.9002 54.5842C75.0394 54.7239 75.0394 54.8633 74.9002 55.0027C74.7608 55.2817 74.6215 55.4211 74.3424 55.4211L69.0446 55.6998C66.1167 55.839 63.0497 58.2093 61.9343 60.9976L61.6553 62.2524C61.5159 62.392 61.6553 62.6708 61.9343 62.6708H80.3377C80.6164 62.6708 80.7558 62.5314 80.7558 62.2526C81.0346 61.137 81.3134 59.8823 81.3134 58.6275C81.3134 51.3778 75.3184 45.3828 68.0687 45.3828Z" fill="#FAAD3F"/>
</g>
<defs>
<radialGradient id="paint0_radial_1024_11476" cx="0" cy="0" r="1" gradientUnits="userSpaceOnUse" gradientTransform="translate(47.7119 48.0088) rotate(90) scale(47.04)">
<stop stop-color="#333944"/>
<stop offset="1" stop-color="#222428"/>
</radialGradient>
<clipPath id="clip0_1024_11476">
<rect width="67.2" height="67.2" fill="white" transform="translate(14.1123 14.4082)"/>
</clipPath>
</defs>
</svg>
