<svg width="95" height="95" viewBox="0 0 95 95" fill="none" xmlns="http://www.w3.org/2000/svg">
<rect x="1.07239" y="0.912234" width="92.736" height="92.736" rx="13.44" fill="url(#paint0_radial_1024_11596)"/>
<rect x="1.07239" y="0.912234" width="92.736" height="92.736" rx="13.44" stroke="#6886C3" stroke-width="1.344"/>
<path fill-rule="evenodd" clip-rule="evenodd" d="M47.4408 64.5356C65.9976 64.5356 81.0408 56.9118 81.0408 47.508C81.0408 38.1043 65.9976 30.4805 47.4408 30.4805C28.8844 30.4805 13.8408 38.1043 13.8408 47.508C13.8408 56.9118 28.8844 64.5356 47.4408 64.5356Z" fill="#6E81B6"/>
<path fill-rule="evenodd" clip-rule="evenodd" d="M54.2504 53.0131L55.917 44.4353C56.2933 42.4993 55.9804 41.0553 54.9878 40.1428C54.0261 39.2599 52.3936 38.8305 49.9973 38.8305H47.1109L47.9365 34.5806C47.952 34.5015 47.9498 34.4199 47.93 34.3418C47.9102 34.2637 47.8734 34.1909 47.8222 34.1287C47.771 34.0664 47.7066 34.0163 47.6337 33.9819C47.5608 33.9475 47.4812 33.9297 47.4006 33.9297H43.4169C43.1552 33.9297 42.9305 34.1154 42.8806 34.3721L41.1103 43.4785C40.9494 42.4538 40.5529 41.573 39.9182 40.8461C38.7497 39.5086 36.9015 38.8305 34.4243 38.8305H26.703C26.4414 38.8305 26.2167 39.0161 26.1667 39.2725L22.5844 57.7054C22.5531 57.8659 22.5949 58.0309 22.6989 58.1568C22.8025 58.2832 22.9569 58.3559 23.1207 58.3559H27.1357C27.3974 58.3559 27.6221 58.1702 27.672 57.9131L28.5387 53.4547H31.5274C33.0957 53.4547 34.4137 53.2849 35.4425 52.9501C36.4944 52.608 37.4626 52.0278 38.3158 51.229C39.0053 50.5956 39.5749 49.8862 40.0133 49.1212L39.2978 52.8039C39.2665 52.9643 39.3084 53.1301 39.4124 53.2553C39.516 53.3816 39.6708 53.4543 39.8341 53.4543H43.8179C44.0795 53.4543 44.3042 53.2687 44.3542 53.0123L46.3203 42.8942H49.0539C50.2187 42.8942 50.56 43.1262 50.653 43.2258C50.7371 43.3168 50.9118 43.6374 50.7156 44.6478L49.131 52.8035C49.1159 52.8825 49.1183 52.964 49.1382 53.042C49.1581 53.12 49.195 53.1927 49.2462 53.2548C49.2975 53.3169 49.3618 53.367 49.4346 53.4014C49.5073 53.4358 49.5868 53.4538 49.6674 53.4539H53.7145C53.8411 53.4542 53.9639 53.4103 54.0617 53.3299C54.1595 53.2494 54.2262 53.1374 54.2504 53.0131V53.0131ZM35.7809 45.9256C35.5306 47.2116 35.0593 48.1286 34.3792 48.6515C33.6885 49.1842 32.5838 49.4539 31.0955 49.4539H29.3159L30.6027 42.8321H32.9035C34.5937 42.8321 35.2747 43.1933 35.5481 43.496C35.9272 43.9161 36.0076 44.7567 35.7809 45.9256V45.9256ZM71.0309 40.8461C69.8628 39.5086 68.0145 38.8305 65.5373 38.8305H57.8161C57.554 38.8305 57.3297 39.0161 57.2798 39.2725L53.6978 57.7054C53.6661 57.8659 53.708 58.0309 53.812 58.1568C53.916 58.2828 54.0708 58.3559 54.2333 58.3559H58.2488C58.5108 58.3559 58.7351 58.1702 58.7851 57.9131L59.6517 53.4547H62.6408C64.2096 53.4547 65.5264 53.2849 66.5555 52.9501C67.6078 52.608 68.576 52.0278 69.4289 51.229C70.1407 50.5753 70.7262 49.8403 71.1699 49.0468C71.6135 48.2533 71.9317 47.3684 72.1173 46.416C72.5736 44.0672 72.2084 42.1934 71.0309 40.8461V40.8461ZM67.1219 45.9256C66.8712 47.2116 66.3999 48.1286 65.7206 48.6515C65.0295 49.1842 63.9247 49.4539 62.4369 49.4539H60.6569L61.9432 42.8321H64.2445C65.9347 42.8321 66.6157 43.1933 66.8895 43.496C67.2678 43.9161 67.3486 44.7567 67.1219 45.9256V45.9256Z" fill="white"/>
<path fill-rule="evenodd" clip-rule="evenodd" d="M32.7901 42.2821C34.3153 42.2821 35.3323 42.5637 35.8406 43.1268C36.3485 43.6899 36.4695 44.6569 36.2038 46.0265C35.9259 47.453 35.3912 48.4712 34.5989 49.0815C33.8067 49.6917 32.6008 49.9965 30.9821 49.9965H28.5394L30.0386 42.2821H32.7901ZM23.0068 57.8059H27.0219L27.9746 52.9055H31.414C32.9315 52.9055 34.1801 52.7459 35.16 52.4269C36.14 52.108 37.031 51.5737 37.8327 50.8233C38.5055 50.2053 39.0499 49.5227 39.4668 48.7768C39.8833 48.0308 40.179 47.208 40.3542 46.3081C40.7792 44.123 40.4586 42.421 39.3933 41.2022C38.3284 39.9829 36.6337 39.3734 34.3109 39.3734H26.5896L23.0068 57.8059V57.8059ZM43.3031 34.4727H47.2868L46.3345 39.3734H49.8839C52.1161 39.3734 53.6572 39.7626 54.5047 40.5415C55.3523 41.3204 55.6062 42.5828 55.2674 44.3278L53.6007 52.9055H49.5536L51.1381 44.7495C51.3181 43.8216 51.2523 43.1889 50.9391 42.8513C50.6258 42.5141 49.9591 42.3451 48.9401 42.3451H45.7563L43.7041 52.9055H39.7203L43.3031 34.4727ZM64.1312 42.2821C65.6564 42.2821 66.673 42.5637 67.1817 43.1268C67.6895 43.6899 67.8102 44.6569 67.5445 46.0265C67.2674 47.453 66.7327 48.4712 65.94 49.0815C65.1481 49.6917 63.9418 49.9965 62.324 49.9965H59.8813L61.3801 42.2821H64.1312V42.2821ZM54.3471 57.8059H58.3625L59.3149 52.9055H62.7542C64.2722 52.9055 65.5207 52.7459 66.5007 52.4269C67.4807 52.108 68.3717 51.5737 69.1733 50.8233C69.8462 50.2053 70.3906 49.5227 70.8071 48.7768C71.2235 48.0308 71.5197 47.208 71.6952 46.3081C72.1198 44.123 71.7992 42.421 70.7343 41.2022C69.6686 39.9829 67.9743 39.3734 65.6515 39.3734H57.9302L54.3471 57.8059V57.8059Z" fill="black"/>
<defs>
<radialGradient id="paint0_radial_1024_11596" cx="0" cy="0" r="1" gradientUnits="userSpaceOnUse" gradientTransform="translate(47.4404 47.2802) rotate(90) scale(47.04)">
<stop stop-color="#333944"/>
<stop offset="1" stop-color="#222428"/>
</radialGradient>
</defs>
</svg>
