<svg width="95" height="95" viewBox="0 0 95 95" fill="none" xmlns="http://www.w3.org/2000/svg">
<rect x="1.05579" y="1.21497" width="92.736" height="92.736" rx="13.44" fill="url(#paint0_radial_1024_11435)"/>
<rect x="1.05579" y="1.21497" width="92.736" height="92.736" rx="13.44" stroke="#6886C3" stroke-width="1.344"/>
<g clip-path="url(#clip0_1024_11435)">
<path d="M47.4242 13.9824C65.9826 13.9824 81.0242 29.0268 81.0242 47.5824C81.0242 66.138 65.9826 81.1824 47.4242 81.1824C28.8686 81.1824 13.8242 66.138 13.8242 47.5824C13.8242 29.0268 28.8686 13.9824 47.4242 13.9824ZM44.8482 67.9608L58.9434 44.5052C59.114 44.2917 59.2094 44.028 59.215 43.7548C59.215 43.4169 59.0808 43.0929 58.8419 42.854C58.603 42.615 58.2789 42.4808 57.941 42.4808L49.9582 42.492L52.5454 27.1816L49.9498 27.1732L35.8994 50.6008C35.8994 50.6008 35.6194 51.1132 35.6194 51.4156C35.6194 52.1184 36.1906 52.6896 36.8934 52.6896L44.8202 52.6784L42.2974 67.9608H44.8482Z" fill="#005AF0"/>
</g>
<defs>
<radialGradient id="paint0_radial_1024_11435" cx="0" cy="0" r="1" gradientUnits="userSpaceOnUse" gradientTransform="translate(47.4238 47.583) rotate(90) scale(47.04)">
<stop stop-color="#333944"/>
<stop offset="1" stop-color="#222428"/>
</radialGradient>
<clipPath id="clip0_1024_11435">
<rect width="67.2" height="67.2" fill="white" transform="translate(13.8242 13.9824)"/>
</clipPath>
</defs>
</svg>
