<svg width="95" height="95" viewBox="0 0 95 95" fill="none" xmlns="http://www.w3.org/2000/svg">
<rect x="1.05579" y="1.33606" width="92.736" height="92.736" rx="13.44" fill="url(#paint0_radial_1024_11645)"/>
<rect x="1.05579" y="1.33606" width="92.736" height="92.736" rx="13.44" stroke="#6886C3" stroke-width="1.344"/>
<path fill-rule="evenodd" clip-rule="evenodd" d="M57.6447 42.0887L79.082 40.6458C80.5249 40.6458 81.5556 42.0887 80.731 43.1193L65.6837 63.7321C65.2715 63.9382 64.8592 64.3505 64.2408 64.3505H30.4359C30.1796 64.3195 29.9341 64.2287 29.7193 64.0855C29.5045 63.9423 29.3263 63.7506 29.1991 63.526L14.1518 43.1193C13.3273 42.0887 14.1518 40.4397 15.5947 40.6458L37.032 42.0887L46.1016 32.1946C46.72 31.37 48.1629 31.37 48.5751 32.1946L57.6447 41.8826V42.0887ZM62.1795 61.0524L48.1629 55.8993V61.0524H62.1795ZM46.5138 61.0524V55.8993L32.4971 61.0524H46.72H46.5138ZM44.8648 54.8686L30.642 60.0218L20.3356 45.5929L45.0709 54.6625L44.8648 54.8686ZM49.8119 54.8686L64.2408 60.0218L74.5472 45.5929L49.8119 54.6625V54.8686ZM46.5138 53.6318V36.5232L34.9707 49.3032L46.5138 53.4257V53.6318ZM48.1629 53.6318V36.5232L59.9121 49.3032L48.1629 53.4257V53.6318ZM31.4665 48.0664L34.1462 45.1806L20.954 44.3561L31.4665 48.0664ZM63.2102 48.0664L60.5305 45.1806L73.5166 44.3561L63.2102 48.0664Z" fill="#006CFF"/>
<defs>
<radialGradient id="paint0_radial_1024_11645" cx="0" cy="0" r="1" gradientUnits="userSpaceOnUse" gradientTransform="translate(47.4238 47.7041) rotate(90) scale(47.04)">
<stop stop-color="#333944"/>
<stop offset="1" stop-color="#222428"/>
</radialGradient>
</defs>
</svg>
