<svg width="95" height="95" viewBox="0 0 95 95" fill="none" xmlns="http://www.w3.org/2000/svg">
<rect x="0.935672" y="1.19934" width="92.736" height="92.736" rx="13.44" fill="url(#paint0_radial_1024_11572)"/>
<rect x="0.935672" y="1.19934" width="92.736" height="92.736" rx="13.44" stroke="#6886C3" stroke-width="1.344"/>
<path d="M28.2618 13.9668H66.3464C74.381 13.9668 80.9041 20.4899 80.9041 28.5245V66.6091C80.9041 74.6437 74.381 81.1668 66.3464 81.1668H28.2618C20.2272 81.1668 13.7041 74.6437 13.7041 66.6091V28.5245C13.7041 20.4899 20.2272 13.9668 28.2618 13.9668Z" fill="#FFD02F"/>
<path d="M60.4002 22.3574H53.0219L59.1671 33.1564L45.6436 22.3574H38.2653L45.0271 35.5627L30.8871 22.3574H23.5088L30.8871 39.1624L23.5088 72.7723H30.8871L45.0271 36.756L38.2653 72.7723H45.6436L59.1671 34.3695L53.0219 72.7723H60.4002L73.9237 30.75L60.4002 22.3574Z" fill="#050038"/>
<defs>
<radialGradient id="paint0_radial_1024_11572" cx="0" cy="0" r="1" gradientUnits="userSpaceOnUse" gradientTransform="translate(47.3037 47.5673) rotate(90) scale(47.04)">
<stop stop-color="#333944"/>
<stop offset="1" stop-color="#222428"/>
</radialGradient>
</defs>
</svg>
