<svg width="96" height="95" viewBox="0 0 96 95" fill="none" xmlns="http://www.w3.org/2000/svg">
<rect x="1.61536" y="1.33606" width="92.736" height="92.736" rx="13.44" fill="url(#paint0_radial_1024_11650)"/>
<rect x="1.61536" y="1.33606" width="92.736" height="92.736" rx="13.44" stroke="#6886C3" stroke-width="1.344"/>
<path d="M72.1428 22.9946C65.8994 14.0636 53.5674 11.4164 44.6521 17.0945L28.9953 27.0698C27.9421 27.7316 26.9594 28.5011 26.0655 29.3659C25.1703 30.2307 24.3683 31.1864 23.6717 32.2173C22.9752 33.2481 22.3874 34.3485 21.9174 35.5005C21.4485 36.653 21.1004 37.8511 20.8787 39.0754C20.6936 40.1017 20.5927 41.1427 20.5792 42.1859C20.5646 43.2302 20.6375 44.2733 20.7957 45.3042C20.9538 46.3362 21.1973 47.3535 21.5226 48.3451C21.8478 49.3367 22.255 50.2991 22.7396 51.2234C22.4062 51.73 22.0985 52.253 21.8176 52.7904C21.536 53.3277 21.2825 53.8796 21.057 54.4427C20.8316 55.0058 20.6353 55.5801 20.4682 56.1634C20.301 56.7467 20.1642 57.3378 20.0565 57.9346C19.609 60.444 19.6682 63.0176 20.2304 65.5038C20.5108 66.7433 20.9135 67.9525 21.4339 69.1124C21.9544 70.2722 22.5882 71.3782 23.3285 72.4124C29.5719 81.3434 41.9028 83.9906 50.8181 78.3126L66.4748 68.3788C67.5281 67.7158 68.5084 66.9452 69.4024 66.0793C70.2963 65.214 71.0981 64.2584 71.795 63.2279C72.4916 62.1982 73.0794 61.0978 73.5494 59.9458C74.0194 58.7949 74.3682 57.5969 74.5914 56.3732C74.7765 55.3468 74.8764 54.307 74.8898 53.2638C74.9033 52.2206 74.8304 51.1774 74.6711 50.1466C74.5129 49.1157 74.2695 48.0995 73.9431 47.1079C73.6167 46.1174 73.2095 45.155 72.7249 44.2307C73.0581 43.7248 73.3665 43.201 73.6481 42.6637C73.9285 42.1264 74.1831 41.5745 74.4086 41.0114C74.6341 40.4483 74.8315 39.874 74.9997 39.2907C75.1669 38.7086 75.306 38.1174 75.4148 37.5207C75.6369 36.2689 75.7333 34.998 75.7042 33.7271C75.675 32.4562 75.5191 31.192 75.2387 29.9514C74.9582 28.7119 74.5556 27.5028 74.0351 26.3429C73.5153 25.1829 72.8814 24.0774 72.1428 23.0429" fill="#FF3E00"/>
<path d="M43.1225 73.2753C41.8972 73.5936 40.6304 73.723 39.366 73.6589C38.1018 73.5938 36.8545 73.3381 35.6677 72.8972C34.4809 72.4571 33.3681 71.8387 32.3677 71.0633C31.368 70.2873 30.4924 69.3637 29.7709 68.3241C29.3256 67.7015 28.9442 67.0375 28.6324 66.3398C28.3197 65.6425 28.0773 64.9158 27.9089 64.1704C27.7418 63.4245 27.6475 62.6639 27.6307 61.9001C27.6139 61.1362 27.6733 60.3723 27.8079 59.6196C27.8293 59.4974 27.8539 59.3751 27.8809 59.254C27.9067 59.1317 27.9358 59.0106 27.9672 58.8905C27.9975 58.7694 28.0312 58.6494 28.0671 58.5293C28.1018 58.4104 28.14 58.2915 28.1792 58.1738L28.4742 57.273L29.2785 57.8731C29.7395 58.2097 30.2151 58.5271 30.7031 58.8232C31.191 59.1205 31.6913 59.3964 32.2028 59.6499C32.7131 59.9046 33.2359 60.1379 33.7664 60.3476C34.297 60.5585 34.8365 60.7458 35.3839 60.9107L35.984 61.0846L35.9302 61.6847C35.9013 62.0931 35.9438 62.5034 36.0558 62.8973C36.1108 63.0947 36.1837 63.2854 36.2723 63.4693C36.3609 63.6533 36.4652 63.8294 36.5841 63.9954C36.802 64.3085 37.0664 64.5866 37.3682 64.8199C37.6688 65.0532 38.0042 65.2394 38.362 65.3717C38.7199 65.5041 39.0945 65.5804 39.4759 65.5994C39.8561 65.6196 40.2375 65.5804 40.6066 65.4839C40.6918 65.4615 40.7748 65.4357 40.8578 65.4065C40.9408 65.3773 41.0227 65.3459 41.1024 65.31C41.1831 65.2753 41.2616 65.2371 41.3402 65.1956C41.4175 65.1552 41.4927 65.1115 41.5667 65.0644L57.1999 55.088C57.3915 54.9678 57.5701 54.8279 57.7327 54.6707C57.8953 54.5125 58.04 54.3387 58.1668 54.1513C58.2936 53.964 58.399 53.7632 58.4842 53.5535C58.5684 53.3437 58.6312 53.1261 58.6716 52.904C58.7108 52.6763 58.7276 52.4463 58.722 52.2153C58.7164 51.9853 58.6873 51.7565 58.6357 51.531C58.5852 51.3067 58.5112 51.088 58.4158 50.8771C58.3216 50.6673 58.2049 50.4677 58.0703 50.2803C57.8527 49.9674 57.5891 49.6903 57.2874 49.457C56.9856 49.2237 56.6503 49.0375 56.2936 48.9051C55.9361 48.7727 55.5605 48.6956 55.1797 48.6763C54.7983 48.6572 54.417 48.6965 54.0479 48.7918C53.9638 48.8143 53.8797 48.8401 53.7967 48.8692C53.7136 48.8984 53.6329 48.9298 53.5521 48.9646C53.4714 49.0005 53.3928 49.0386 53.3154 49.0801C53.238 49.1205 53.1618 49.1654 53.0877 49.2125L47.0844 53.024C46.8399 53.1788 46.5886 53.3246 46.3328 53.4615C46.076 53.5972 45.8157 53.724 45.5499 53.8406C45.2841 53.9573 45.0137 54.0638 44.74 54.1592C44.4663 54.2556 44.1893 54.3409 43.9089 54.4161C42.6851 54.7324 41.4209 54.8602 40.159 54.7952C38.8971 54.7301 37.6531 54.4733 36.4686 54.0347C35.2841 53.595 34.1736 52.9769 33.1753 52.2029C32.177 51.429 31.302 50.508 30.5808 49.4705C30.1377 48.8479 29.7575 48.1827 29.4467 47.485C29.1349 46.7873 28.8938 46.0605 28.7266 45.3157C28.5595 44.5697 28.4675 43.8092 28.4518 43.0453C28.435 42.2826 28.4944 41.5187 28.6302 40.7672C28.8953 39.2875 29.4661 37.8793 30.306 36.6326C31.1464 35.3858 32.238 34.3283 33.5107 33.5277L49.1921 23.5524C49.4355 23.3976 49.6845 23.2518 49.9391 23.1149C50.1937 22.9792 50.454 22.8524 50.7176 22.7358C50.9818 22.6191 51.2504 22.5128 51.523 22.4172C51.7944 22.3207 52.0704 22.2344 52.3497 22.1592C53.5746 21.8418 54.841 21.7117 56.104 21.7756C57.3681 21.8407 58.6144 22.0964 59.8011 22.5372C60.9879 22.9769 62.0995 23.5961 63.1 24.3712C64.0994 25.1476 64.9746 26.0716 65.6957 27.1115C66.1399 27.733 66.5224 28.397 66.8353 29.0947C67.1483 29.7924 67.3906 30.5182 67.5599 31.2641C67.7282 32.01 67.8224 32.7705 67.8392 33.5344C67.8572 34.2983 67.7989 35.0622 67.6642 35.8148C67.6407 35.9382 67.616 36.0616 67.588 36.1839C67.5611 36.3061 67.5319 36.4284 67.5005 36.5496C67.4702 36.6718 67.4365 36.793 67.4018 36.913C67.367 37.0341 67.3311 37.1542 67.2918 37.2731L66.9923 38.1738L66.1937 37.5737C65.7316 37.2338 65.2548 36.9152 64.7658 36.6157C64.2767 36.3174 63.7742 36.0392 63.2616 35.7823C62.2353 35.2704 61.1678 34.8456 60.0703 34.5125L59.4691 34.3387L59.5241 33.7386C59.5409 33.5333 59.5398 33.3269 59.5207 33.1228C59.5027 32.9186 59.4657 32.7156 59.4119 32.517C59.3569 32.3196 59.2863 32.1256 59.1976 31.9405C59.1102 31.7543 59.0058 31.577 58.8869 31.4088C58.6681 31.1014 58.4037 30.829 58.1029 30.6012C57.8025 30.3723 57.4688 30.1907 57.1135 30.0627C56.3995 29.8037 55.6235 29.7689 54.8892 29.9629C54.8039 29.9853 54.7198 30.0111 54.6379 30.0392C54.5549 30.0684 54.473 30.1009 54.3923 30.1357C54.3126 30.1704 54.233 30.2097 54.1556 30.2501C54.0782 30.2916 54.0019 30.3353 53.9279 30.3824L38.2656 40.3409C38.0749 40.4609 37.8965 40.6012 37.735 40.7582C37.5735 40.9152 37.4277 41.0891 37.3009 41.2753C37.1752 41.4626 37.0689 41.6622 36.9835 41.8709C36.8982 42.0807 36.8354 42.2972 36.795 42.5193C36.7558 42.747 36.7389 42.978 36.7445 43.2091C36.758 43.6716 36.862 44.1271 37.0508 44.5495C37.1459 44.7599 37.2613 44.9605 37.3951 45.1485C37.6116 45.4581 37.8741 45.7341 38.1736 45.9651C38.4725 46.1973 38.8049 46.3826 39.1596 46.5148C39.8727 46.7799 40.6494 46.8225 41.3873 46.637C41.4714 46.6135 41.5555 46.5877 41.6385 46.5585C41.7204 46.5294 41.8023 46.4968 41.8831 46.4621C41.9634 46.4271 42.0424 46.3889 42.1197 46.3476C42.1971 46.3073 42.2734 46.2635 42.3474 46.2164L48.3508 42.4116C48.5964 42.2545 48.8466 42.1065 49.1035 41.9696C49.3592 41.8317 49.6206 41.7049 49.8875 41.5871C50.1536 41.4704 50.4241 41.3641 50.6985 41.2686C50.9733 41.1721 51.2515 41.0868 51.5331 41.0128C52.758 40.6943 54.0232 40.5641 55.2874 40.627C56.5516 40.6909 57.7978 40.9466 58.9845 41.3863C60.1702 41.8261 61.2829 42.4441 62.2823 43.2203C63.2829 43.9954 64.1578 44.9186 64.8791 45.9584C65.3233 46.581 65.7046 47.245 66.0176 47.9427C66.3305 48.64 66.5733 49.3667 66.7422 50.1121C66.9105 50.8569 67.0047 51.6174 67.0226 52.3813C67.0406 53.1463 66.9811 53.9102 66.8476 54.6617C66.7154 55.3996 66.5067 56.1218 66.2251 56.8165C65.9437 57.5114 65.5903 58.175 65.1707 58.7963C64.7523 59.4177 64.27 59.9943 63.7316 60.5159C63.1931 61.0375 62.602 61.5019 61.9671 61.9012L46.3037 71.8765C46.058 72.0324 45.8068 72.1794 45.551 72.3162C45.2942 72.453 45.0328 72.5798 44.7658 72.6965C44.5 72.8142 44.2297 72.9208 43.9548 73.0173C43.6811 73.1137 43.403 73.2001 43.1225 73.2753" fill="white"/>
<defs>
<radialGradient id="paint0_radial_1024_11650" cx="0" cy="0" r="1" gradientUnits="userSpaceOnUse" gradientTransform="translate(47.9834 47.7041) rotate(90) scale(47.04)">
<stop stop-color="#333944"/>
<stop offset="1" stop-color="#222428"/>
</radialGradient>
</defs>
</svg>
