<svg width="95" height="96" viewBox="0 0 95 96" fill="none" xmlns="http://www.w3.org/2000/svg">
<rect x="0.783328" y="1.62512" width="92.736" height="92.736" rx="13.44" fill="url(#paint0_radial_1024_11618)"/>
<rect x="0.783328" y="1.62512" width="92.736" height="92.736" rx="13.44" stroke="#6886C3" stroke-width="1.344"/>
<path fill-rule="evenodd" clip-rule="evenodd" d="M55.0208 55.1563L53.7318 57.3946C53.3435 58.0688 52.6246 58.4844 51.8465 58.4844H41.972C41.1939 58.4844 40.4751 58.0688 40.0868 57.3946L38.7977 55.1563H55.0208ZM58.6294 48.8904L56.3566 52.8368H37.4619L35.1892 48.8904H58.6294ZM56.4401 42.7631L58.633 46.571H35.1855L37.3785 42.7631H56.4401ZM51.8465 36.9707C52.6246 36.9707 53.3435 37.3863 53.7318 38.0605L55.1043 40.4436H38.7143L40.0868 38.0605C40.4751 37.3863 41.1939 36.9707 41.972 36.9707H51.8465Z" fill="#00435B"/>
<path d="M27.6005 35.9306C26.5067 30.6265 26.2719 26.5584 26.979 23.6043C27.3995 21.8474 28.1683 20.4141 29.3373 19.3801C30.5715 18.2884 32.1319 17.7527 33.8852 17.7527C36.7776 17.7527 39.8183 19.0716 43.0678 21.5774C44.3931 22.5994 45.7687 23.8313 47.1973 25.2737C47.311 25.1274 47.4396 24.9893 47.5828 24.8617C51.6217 21.2624 55.0221 19.0262 57.9305 18.164C59.6598 17.6513 61.2835 17.6024 62.762 18.1C64.3227 18.6252 65.5663 19.7109 66.4437 21.2317C67.8916 23.7414 68.2735 27.0393 67.7336 31.1113C67.5136 32.7711 67.1374 34.5791 66.6059 36.5381C66.8064 36.5623 67.0075 36.6067 67.2065 36.6727C72.3309 38.3709 75.9596 40.197 78.1565 42.2841C79.4636 43.5258 80.3172 44.9082 80.6257 46.4384C80.9514 48.0536 80.6338 49.6736 79.7575 51.1932C78.3122 53.6994 75.6548 55.6759 71.8689 57.2415C70.3488 57.8701 68.6288 58.4395 66.7071 58.9515C66.7948 59.1495 66.8628 59.3597 66.9083 59.5803C68.0022 64.8844 68.2369 68.9526 67.5299 71.9066C67.1094 73.6635 66.3406 75.0968 65.1715 76.1308C63.9373 77.2226 62.3769 77.7583 60.6236 77.7583C57.7312 77.7583 54.6906 76.4393 51.4411 73.9336C50.1016 72.9007 48.7108 71.6534 47.2659 70.1911C47.1172 70.4236 46.9347 70.6398 46.7188 70.8322C42.6799 74.4314 39.2795 76.6677 36.371 77.5299C34.6417 78.0426 33.0181 78.0914 31.5395 77.5938C29.9788 77.0686 28.7353 75.9829 27.8579 74.4622C26.4099 71.9524 26.0281 68.6545 26.5679 64.5825C26.7959 62.8628 27.1915 60.9839 27.7539 58.9428C27.5341 58.9205 27.3134 58.874 27.0951 58.8017C21.9706 57.1035 18.3419 55.2773 16.145 53.1903C14.838 51.9486 13.9844 50.5662 13.6759 49.0359C13.3502 47.4208 13.6677 45.8007 14.5441 44.2811C15.9894 41.775 18.6468 39.7984 22.4326 38.2328C23.9981 37.5855 25.7754 37.001 27.7667 36.4772C27.6958 36.3035 27.6398 36.1209 27.6005 35.9306Z" fill="#002B3B"/>
<path fill-rule="evenodd" clip-rule="evenodd" d="M40.7621 34.2403C43.4184 34.0289 46.1564 33.9355 48.976 33.9602C49.51 33.9649 49.9467 33.5358 49.9513 33.0018C49.9533 32.7769 49.8768 32.5583 49.735 32.3838C43.3175 24.4821 38.0331 20.5312 33.882 20.5312C29.5963 20.5312 28.3737 25.2553 30.2141 34.7035C30.315 35.2213 30.8124 35.5627 31.3319 35.4707C34.6084 34.89 37.7518 34.4799 40.7621 34.2403Z" fill="#FF4154"/>
<path fill-rule="evenodd" clip-rule="evenodd" d="M55.6736 35.5431C57.2077 37.7536 58.6801 40.0946 60.0907 42.566C60.3554 43.0298 60.9459 43.1911 61.4097 42.9264C61.6042 42.8154 61.7541 42.6404 61.8339 42.4311C65.4641 32.9093 66.227 26.3427 64.1227 22.7312C61.9512 19.0045 57.2197 20.2931 49.9283 26.5971C49.5274 26.9437 49.4802 27.5484 49.8225 27.953C51.9889 30.5139 53.9393 33.0439 55.6736 35.5431Z" fill="#FF4154"/>
<path fill-rule="evenodd" clip-rule="evenodd" d="M62.1115 48.8453C60.9634 51.2583 59.6728 53.6835 58.24 56.1209C57.9693 56.5813 58.1231 57.1738 58.5835 57.4445C58.7784 57.559 59.0073 57.6017 59.2304 57.565C69.2345 55.9201 75.2756 53.2948 77.3537 49.689C79.4998 45.9649 76.0485 42.5516 66.9997 39.449C66.5012 39.2781 65.9577 39.5378 65.7775 40.033C64.6356 43.1712 63.4136 46.1086 62.1115 48.8453Z" fill="#FF4154"/>
<path fill-rule="evenodd" clip-rule="evenodd" d="M53.903 61.332C51.2466 61.5434 48.5086 61.6368 45.689 61.6121C45.155 61.6074 44.7184 62.0365 44.7137 62.5705C44.7117 62.7954 44.7882 63.0139 44.93 63.1885C51.3476 71.0902 56.6319 75.041 60.7831 75.041C65.0687 75.041 66.2913 70.3169 64.4509 60.8688C64.3501 60.3509 63.8526 60.0095 63.3331 60.1016C60.0566 60.6823 56.9132 61.0924 53.903 61.332Z" fill="#FF4154"/>
<path fill-rule="evenodd" clip-rule="evenodd" d="M38.6288 60.1533C37.0947 57.9427 35.6224 55.6018 34.2118 53.1303C33.9471 52.6666 33.3565 52.5052 32.8927 52.7699C32.6983 52.8809 32.5483 53.056 32.4686 53.2652C28.8384 62.787 28.0755 69.3536 30.1798 72.9651C32.3513 76.6919 37.0827 75.4033 44.3742 69.0992C44.7751 68.7526 44.8222 68.1479 44.48 67.7433C42.3136 65.1825 40.3632 62.6524 38.6288 60.1533Z" fill="#FF4154"/>
<path fill-rule="evenodd" clip-rule="evenodd" d="M32.1904 46.4884C33.3385 44.0753 34.629 41.6501 36.0619 39.2128C36.3325 38.7524 36.1787 38.1599 35.7184 37.8892C35.5235 37.7746 35.2946 37.732 35.0715 37.7687C25.0673 39.4135 19.0262 42.0389 16.9482 45.6447C14.802 49.3688 18.2534 52.7821 27.3022 55.8847C27.8007 56.0556 28.3442 55.7959 28.5244 55.3007C29.6663 52.1625 30.8882 49.2251 32.1904 46.4884Z" fill="#FF4154"/>
<path fill-rule="evenodd" clip-rule="evenodd" d="M42.7659 37.0918H51.0546C52.2667 37.0918 53.3863 37.7401 53.9897 38.7915L58.1516 46.0433C58.7503 47.0865 58.7503 48.3691 58.1516 49.4123L53.9897 56.6641C53.3863 57.7154 52.2667 58.3637 51.0546 58.3637H42.7659C41.5537 58.3637 40.4341 57.7154 39.8307 56.6641L35.6689 49.4123C35.0702 48.3691 35.0702 47.0865 35.6689 46.0433L39.8307 38.7915C40.4341 37.7401 41.5537 37.0918 42.7659 37.0918ZM49.7913 39.2805C51.0041 39.2805 52.1242 39.9296 52.7273 40.9818L55.6295 46.0448C56.227 47.0872 56.227 48.3683 55.6295 49.4107L52.7273 54.4738C52.1242 55.526 51.0041 56.175 49.7913 56.175H44.0292C42.8163 56.175 41.6962 55.526 41.0931 54.4738L38.191 49.4107C37.5935 48.3683 37.5935 47.0872 38.191 46.0448L41.0931 40.9818C41.6962 39.9296 42.8163 39.2805 44.0292 39.2805H49.7913ZM48.4297 41.6745H45.3908C44.1792 41.6745 43.0601 42.3222 42.4565 43.3727L40.9229 46.0418C40.3231 47.0858 40.3231 48.3698 40.9229 49.4137L42.4565 52.0828C43.0601 53.1333 44.1792 53.781 45.3908 53.781H48.4297C49.6413 53.781 50.7604 53.1333 51.364 52.0828L52.8976 49.4137C53.4974 48.3698 53.4974 47.0858 52.8976 46.0418L51.364 43.3727C50.7604 42.3222 49.6413 41.6745 48.4297 41.6745ZM47.1186 43.9658C48.3293 43.9658 49.4477 44.6126 50.0516 45.6619L50.2691 46.0396C50.8706 47.0847 50.8706 48.3709 50.2691 49.4159L50.0516 49.7937C49.4477 50.843 48.3293 51.4897 47.1186 51.4897H46.7019C45.4912 51.4897 44.3727 50.843 43.7688 49.7937L43.5514 49.4159C42.9499 48.3709 42.9499 47.0847 43.5514 46.0396L43.7688 45.6619C44.3727 44.6126 45.4912 43.9658 46.7019 43.9658H47.1186ZM46.9108 46.223C46.3719 46.223 45.875 46.5098 45.606 46.9754C45.337 47.4409 45.337 48.0146 45.606 48.4802C45.875 48.9458 46.3719 49.2325 46.9097 49.2325C47.4485 49.2325 47.9454 48.9458 48.2145 48.4802C48.4835 48.0146 48.4835 47.4409 48.2145 46.9754C47.9454 46.5098 47.4485 46.223 46.9108 46.223ZM34.7021 47.7278H37.4114Z" fill="#FFD94C"/>
<defs>
<radialGradient id="paint0_radial_1024_11618" cx="0" cy="0" r="1" gradientUnits="userSpaceOnUse" gradientTransform="translate(47.1513 47.9931) rotate(90) scale(47.04)">
<stop stop-color="#333944"/>
<stop offset="1" stop-color="#222428"/>
</radialGradient>
</defs>
</svg>
