<svg width="95" height="95" viewBox="0 0 95 95" fill="none" xmlns="http://www.w3.org/2000/svg">
<rect x="1.19251" y="1.33606" width="92.736" height="92.736" rx="13.44" fill="url(#paint0_radial_1024_11648)"/>
<rect x="1.19251" y="1.33606" width="92.736" height="92.736" rx="13.44" stroke="#6886C3" stroke-width="1.344"/>
<path d="M78.559 81.2885H16.5629C15.1341 81.2885 13.9609 80.1153 13.9609 78.6865V16.7055C13.9609 15.2767 15.1341 14.1035 16.5629 14.1035H78.559C79.9878 14.1035 81.1609 15.2767 81.1609 16.7055V78.7015C81.1459 80.1304 79.9878 81.2885 78.559 81.2885V81.2885Z" fill="#4D4D4E"/>
<path d="M29.4531 34.3938L64.6173 23.2339C64.6173 23.2339 67.114 21.9254 66.5124 24.3468L66.6026 35.1007C66.6026 35.1007 67.0388 36.6799 64.873 37.0709L50.5847 41.5379L29.4531 34.3938Z" fill="#F89820"/>
<path d="M29.4522 34.3926C29.4522 34.3926 28.0685 34.7235 28.4746 37.0848L28.3994 47.4475C28.3994 47.4475 28.2791 48.7561 30.7607 49.2825L65.609 60.5025C65.609 60.5025 66.7822 60.9688 66.6468 59.5249L66.6619 47.974C66.6619 47.974 66.9928 46.7858 64.827 46.0037L50.5838 41.5367L29.4522 34.3926Z" fill="#F89820"/>
<path d="M44.81 53.7949L29.9802 58.322C29.9802 58.322 28.1904 58.3822 28.401 61.7362C28.6116 65.0902 28.386 71.8433 28.386 71.8433C28.386 71.8433 28.5364 73.0916 30.251 72.3697L65.4152 61.1496C65.4152 61.1496 66.6635 60.8338 65.6107 60.4878C64.5579 60.157 44.81 53.7949 44.81 53.7949V53.7949Z" fill="url(#paint1_linear_1024_11648)"/>
<defs>
<radialGradient id="paint0_radial_1024_11648" cx="0" cy="0" r="1" gradientUnits="userSpaceOnUse" gradientTransform="translate(47.5605 47.7041) rotate(90) scale(47.04)">
<stop stop-color="#333944"/>
<stop offset="1" stop-color="#222428"/>
</radialGradient>
<linearGradient id="paint1_linear_1024_11648" x1="30.4432" y1="65.6975" x2="66.0139" y2="53.3903" gradientUnits="userSpaceOnUse">
<stop offset="0.233" stop-color="#F89822"/>
<stop offset="1" stop-color="#C27818"/>
</linearGradient>
</defs>
</svg>
