<svg width="95" height="95" viewBox="0 0 95 95" fill="none" xmlns="http://www.w3.org/2000/svg">
<rect x="0.783328" y="1.19934" width="92.736" height="92.736" rx="13.44" fill="url(#paint0_radial_1024_11576)"/>
<rect x="0.783328" y="1.19934" width="92.736" height="92.736" rx="13.44" stroke="#6886C3" stroke-width="1.344"/>
<path d="M72.0352 50.4274C72.0352 50.9989 72.3104 51.4519 73.0805 51.4519C73.9865 51.4519 74.9517 50.8014 75.0098 49.3251C74.5871 49.2573 74.1602 49.2185 73.7321 49.209C72.8227 49.2078 72.0352 49.4634 72.0352 50.4274Z" fill="white"/>
<path d="M13.5518 36.8145V58.3654H80.7517V36.8145H13.5518ZM32.5752 53.0677H28.8583V48.0661C28.8583 46.5306 28.3461 45.9394 27.3425 45.9394C26.1218 45.9394 25.6293 46.8059 25.6293 48.0464V51.1407H26.8047V53.07H23.0879V48.0661C23.0879 46.5306 22.5768 45.9394 21.5721 45.9394C20.3513 45.9394 19.8588 46.8059 19.8588 48.0464V51.1407H21.5477V53.07H16.1327V51.1407H17.3139V46.1171H16.0363V44.1878H19.8542V45.5259C20.3862 44.5816 21.3119 44.0101 22.5512 44.0101C23.8289 44.0101 25.0125 44.6211 25.4458 45.9208C25.9383 44.7395 26.9418 44.0101 28.3403 44.0101C29.9351 44.0101 31.3928 44.9753 31.3928 47.0823V51.1407H32.574L32.5752 53.0677ZM38.226 53.264C35.4895 53.264 33.5985 51.5902 33.5985 48.7549C33.5985 46.1554 35.1735 44.0089 38.3608 44.0089C41.548 44.0089 43.1067 46.1554 43.1067 48.6364C43.1091 51.4729 41.0613 53.2651 38.226 53.2651V53.264ZM52.3641 53.0677H44.6051L44.3496 51.7284L49.228 46.1159H46.4519L46.0582 47.4947L44.2265 47.2984L44.5412 44.1866H52.3467L52.543 45.5259L47.6181 51.1407H50.4882L50.9017 49.762L52.91 49.9583L52.3641 53.0677ZM57.1682 53.0677H54.5094V49.8781H57.1682V53.0677ZM57.1682 47.3762H54.5094V44.1878H57.1682V47.3762ZM58.562 53.0677L62.4055 39.5255H64.9062L61.0662 53.0677H58.562ZM63.7215 53.0677L67.5626 39.5255H70.0634L66.2257 53.0677H63.7215ZM76.9536 53.264C75.7723 53.264 75.123 52.574 75.0045 51.4915C74.4923 52.3975 73.5863 53.264 72.1495 53.264C70.8718 53.264 69.4129 52.574 69.4129 50.7237C69.4129 48.5377 71.5199 48.0266 73.548 48.0266C74.035 48.0225 74.5219 48.0488 75.0057 48.1056V47.8106C75.0057 46.9046 74.9859 45.8221 73.548 45.8221C73.016 45.8221 72.6025 45.8616 72.189 46.0776L71.8603 47.3379L69.8323 47.1207L70.226 44.8174C71.7813 44.1866 72.5688 44.0043 74.0265 44.0043C75.9372 44.0043 77.5517 44.9893 77.5517 47.0173V50.877C77.5517 51.3893 77.748 51.567 78.1627 51.567C78.2896 51.5651 78.4155 51.5451 78.5367 51.5077L78.5565 52.847C78.0653 53.1145 77.5163 53.258 76.957 53.2651L76.9536 53.264Z" fill="white"/>
<path d="M38.3248 45.959C37.025 45.959 36.2178 46.923 36.2178 48.598C36.2178 50.1335 36.9263 51.3148 38.3085 51.3148C39.628 51.3148 40.4945 50.252 40.4945 48.5585C40.491 46.7662 39.527 45.959 38.3248 45.959V45.959Z" fill="white"/>
<defs>
<radialGradient id="paint0_radial_1024_11576" cx="0" cy="0" r="1" gradientUnits="userSpaceOnUse" gradientTransform="translate(47.1513 47.5673) rotate(90) scale(47.04)">
<stop stop-color="#333944"/>
<stop offset="1" stop-color="#222428"/>
</radialGradient>
</defs>
</svg>
